<svg width="28" height="29" viewBox="0 0 28 29" fill="none" xmlns="http://www.w3.org/2000/svg">
<path d="M2.26096 16.6241L0.887376 15.2505C0.30577 14.6689 0.30577 13.7284 0.887376 13.153L12.9093 1.12492C13.4909 0.543319 14.4314 0.543319 15.0068 1.12492L27.0287 13.1468C27.6103 13.7284 27.6103 14.6689 27.0287 15.2443L25.6551 16.6179C25.0673 17.2057 24.1083 17.1933 23.5329 16.5932L16.436 9.14366V26.9259C16.436 27.7489 15.774 28.4109 14.9511 28.4109H12.9712C12.1483 28.4109 11.4862 27.7489 11.4862 26.9259V9.14366L4.3832 16.5993C3.80778 17.2057 2.84875 17.2181 2.26096 16.6241Z" fill="#1EBCC3"/>
</svg>
