<svg width="166" height="155" viewBox="0 0 166 155" fill="none" xmlns="http://www.w3.org/2000/svg">
<rect x="0.0644531" y="0.0925293" width="165.935" height="154.334" fill="#FFD234"/>
<path d="M149.546 104.603H16.5197C16.4627 104.603 16.408 104.581 16.3677 104.54C16.3273 104.5 16.3047 104.445 16.3047 104.388C16.3058 104.332 16.3288 104.278 16.3689 104.237C16.409 104.197 16.463 104.174 16.5197 104.173H149.546C149.603 104.174 149.657 104.197 149.697 104.237C149.737 104.278 149.76 104.332 149.761 104.388C149.761 104.445 149.739 104.5 149.698 104.54C149.658 104.581 149.603 104.603 149.546 104.603Z" fill="#D1D3D4"/>
<path d="M27.0916 58.2784C20.6704 62.9535 19.8102 72.6993 19.6468 80.0194C19.4833 86.9008 21.0187 93.4726 22.4552 100.186C23.8573 106.754 29.1861 110.336 35.5471 111.799C45.0091 113.988 55.3312 114.242 64.9351 113.184C74.539 112.126 74.7884 102.664 73.825 94.9177C73.5584 92.7672 72.0488 91.4383 70.4187 90.277C68.402 88.93 66.6424 87.2331 65.2233 85.2665C60.6686 78.6732 60.4063 70.837 57.3699 63.6631C54.97 57.9816 49.6283 54.0248 43.4307 54.2227C37.2331 54.4205 31.3624 55.1732 27.0916 58.2784Z" fill="white"/>
<path d="M54.0279 114.018C47.7964 114.053 41.5809 113.383 35.4997 112.022C26.1625 109.872 23.1389 104.414 22.2443 100.229L21.9433 98.8187C20.5713 92.4534 19.2767 86.4451 19.4316 80.0152C19.7885 65.1901 23.6464 60.5193 26.9667 58.1022C31.487 54.8163 37.8222 54.1884 43.4262 54.0078C49.4733 53.8228 55.0386 57.5689 57.5675 63.5772C58.679 66.3755 59.5874 69.2502 60.2857 72.179C61.4469 76.5874 62.6512 81.1421 65.4038 85.1505C66.6209 86.9225 68.1563 88.4063 70.5648 90.1094C72.2164 91.2836 73.7819 92.6899 74.0571 94.8963C74.9431 101.988 74.2163 106.9 71.8336 109.915C70.2681 111.898 67.9628 113.072 64.978 113.403C61.3419 113.807 57.6864 114.013 54.0279 114.018ZM27.2205 58.4592C21.053 62.945 20.0466 72.3468 19.8617 80.0324C19.7111 86.4107 20.9971 92.3975 22.3605 98.737L22.6658 100.148C23.526 104.212 26.4807 109.494 35.5986 111.61C44.424 113.657 54.5612 114.134 64.9092 112.99C67.7735 112.676 69.9842 111.554 71.4766 109.666C73.7819 106.745 74.4872 101.924 73.6271 94.9651C73.369 92.9136 71.8809 91.5932 70.3111 90.475C67.8811 88.7546 66.3112 87.2278 65.064 85.4128C62.2684 81.3442 61.0599 76.7466 59.9029 72.3037C59.2067 69.3932 58.3041 66.5359 57.202 63.7536C54.7333 57.9087 49.3399 54.2443 43.4692 54.4465C37.934 54.6271 31.6762 55.2421 27.2506 58.4592H27.2205Z" fill="#231F20"/>
<path d="M43.9511 94.621C42.8015 94.6202 41.6528 94.5556 40.5104 94.4275C38.3185 94.1789 36.1572 93.7106 34.0591 93.0297C31.2033 92.105 29.2851 91.047 27.8443 89.6105C25.6551 87.4213 24.8337 84.4494 24.5025 82.3721C23.7713 77.5379 24.5025 72.1962 25.0315 69.4436C25.3769 67.5565 26.131 65.7678 27.241 64.2031C28.351 62.6383 29.79 61.3355 31.457 60.3859C33.7709 59.0398 36.5321 58.171 39.8911 57.7323C43.4178 57.2721 45.9553 57.6506 47.8778 58.9193C51.0175 60.9924 51.9121 64.9793 52.5572 68.8845L53.6539 75.5121C53.9206 77.1594 54.2904 79.4131 55.585 80.4754C56.0417 80.821 56.5332 81.118 57.0516 81.3614C57.9591 81.8173 58.8924 82.2947 59.4214 83.3312C60.0708 84.6214 60.3461 86.7719 59.6795 88.1869C58.9397 89.7438 57.4301 90.7674 56.3635 91.3996C52.5909 93.5698 48.3029 94.6826 43.9511 94.621ZM42.6049 57.9731C41.7303 57.9797 40.8569 58.0415 39.99 58.1581C36.6869 58.5882 33.9688 59.4483 31.7194 60.7386C30.105 61.6562 28.7115 62.9165 27.637 64.431C26.5625 65.9454 25.8331 67.677 25.5003 69.5038C24.9713 72.2478 24.2401 77.5336 24.9713 82.3076C25.2767 84.3376 26.0852 87.1977 28.1927 89.3051C29.5818 90.6943 31.4441 91.7179 34.2139 92.6211C36.2763 93.2939 38.4019 93.7551 40.5577 93.9974C46.3854 94.6554 51.783 93.6275 56.1656 91.0298C57.1849 90.4233 58.6214 89.4513 59.3096 88.0191C59.9203 86.7289 59.6623 84.7333 59.0601 83.5419C58.5956 82.6301 57.7699 82.2086 56.8796 81.7613C56.3334 81.5057 55.8158 81.1928 55.3356 80.828C53.912 79.6625 53.5292 77.3099 53.2496 75.5982L52.1529 68.9705C51.525 65.1599 50.6562 61.2719 47.6628 59.2978C46.351 58.4032 44.6995 57.9731 42.6049 57.9731Z" fill="#D1D3D4"/>
<path d="M28.1149 87.8986C28.0718 87.8987 28.0297 87.8861 27.9938 87.8624C27.9578 87.8387 27.9297 87.8049 27.9128 87.7653C27.9023 87.7391 27.8971 87.711 27.8975 87.6827C27.8979 87.6544 27.9038 87.6265 27.915 87.6006C27.9262 87.5746 27.9424 87.5511 27.9627 87.5314C27.9829 87.5117 28.0069 87.4962 28.0332 87.4858C30.7944 86.3417 32.6351 86.6256 32.7126 86.6256C32.7408 86.6298 32.7679 86.6396 32.7924 86.6543C32.8169 86.669 32.8382 86.6884 32.8552 86.7114C32.8721 86.7343 32.8844 86.7604 32.8913 86.7881C32.8982 86.8158 32.8996 86.8446 32.8953 86.8729C32.8911 86.9011 32.8814 86.9282 32.8666 86.9527C32.8519 86.9772 32.8325 86.9985 32.8095 87.0155C32.7866 87.0325 32.7605 87.0447 32.7328 87.0516C32.7051 87.0585 32.6763 87.0599 32.648 87.0557C32.648 87.0557 30.8374 86.7976 28.1966 87.89C28.1704 87.899 28.1424 87.9019 28.1149 87.8986Z" fill="#D1D3D4"/>
<path d="M138.975 58.2784C145.405 62.9535 146.243 72.6993 146.42 80.0194C146.583 86.9008 145.048 93.4726 143.611 100.186C142.209 106.754 136.88 110.336 130.519 111.799C121.057 113.988 110.735 114.242 101.131 113.184C91.5276 112.126 91.2781 102.664 92.2415 94.9177C92.5082 92.7672 94.0178 91.4383 95.6478 90.277C97.6646 88.93 99.4241 87.2331 100.843 85.2665C105.398 78.6732 105.66 70.837 108.697 63.6631C111.097 57.9816 116.438 54.0248 122.636 54.2227C128.833 54.4205 134.704 55.1732 138.975 58.2784Z" fill="white"/>
<path d="M112.038 114.018C108.383 114.015 104.73 113.813 101.097 113.412C98.1118 113.08 95.8065 111.906 94.241 109.924C91.8583 106.913 91.1315 101.997 92.0175 94.9048C92.2927 92.6856 93.8582 91.2921 95.5098 90.1179C97.8968 88.3976 99.4322 86.931 100.671 85.159C103.423 81.1506 104.628 76.5959 105.789 72.1875C106.487 69.2587 107.396 66.384 108.507 63.5858C111.049 57.5645 116.614 53.8357 122.648 54.0163C128.24 54.1969 134.588 54.8249 139.108 58.1107C145.43 62.7084 146.454 72.2349 146.643 80.0453C146.798 86.4751 145.503 92.4834 144.131 98.8487L143.83 100.259C142.936 104.444 139.912 109.885 130.575 112.052C124.49 113.404 118.271 114.063 112.038 114.018ZM122.171 54.4292C116.472 54.4292 111.285 58.0462 108.877 63.7449C107.775 66.5272 106.872 69.3845 106.176 72.2951C105.006 76.7379 103.798 81.3269 101.015 85.4042C99.7677 87.2191 98.1978 88.7331 95.7678 90.4663C94.198 91.5845 92.7099 92.9049 92.4518 94.9564C91.5917 101.928 92.2798 106.737 94.6023 109.657C96.0947 111.545 98.3054 112.667 101.17 112.981C111.518 114.125 121.655 113.648 130.48 111.601C139.598 109.485 142.523 104.203 143.413 100.139L143.718 98.7283C145.082 92.3888 146.368 86.402 146.217 80.0238C145.865 65.4007 142.101 60.8074 138.858 58.4505C134.433 55.2334 128.175 54.6184 122.64 54.4378L122.171 54.4292Z" fill="#231F20"/>
<path d="M122.115 94.621C117.751 94.6889 113.451 93.5758 109.668 91.3996C108.601 90.7674 107.087 89.7438 106.352 88.1869C105.685 86.7762 105.961 84.6128 106.61 83.3312C107.139 82.2947 108.072 81.8173 108.98 81.3614C109.498 81.118 109.99 80.821 110.446 80.4754C111.737 79.4131 112.111 77.1594 112.378 75.5121L113.474 68.8845C114.119 64.9793 115.014 60.9924 118.154 58.9193C120.076 57.6506 122.614 57.2721 126.14 57.7323C129.499 58.1624 132.261 59.0225 134.574 60.3859C136.241 61.3355 137.68 62.6383 138.79 64.2031C139.9 65.7678 140.655 67.5565 141 69.4436C141.512 72.1962 142.26 77.5379 141.529 82.3721C141.215 84.4666 140.376 87.4213 138.187 89.6105C136.746 91.047 134.828 92.105 131.972 93.0297C129.874 93.7106 127.713 94.1789 125.521 94.4275C124.39 94.5544 123.253 94.619 122.115 94.621ZM123.461 57.9731C121.358 57.9731 119.706 58.4032 118.382 59.2634C115.371 61.2375 114.511 65.1255 113.891 68.9361L112.795 75.5638C112.515 77.2841 112.132 79.6281 110.709 80.7936C110.229 81.1584 109.711 81.4713 109.165 81.7269C108.305 82.157 107.444 82.5871 106.984 83.5075C106.382 84.6988 106.124 86.6945 106.735 87.9847C107.423 89.4341 108.859 90.4061 109.879 90.9953C114.261 93.5759 119.655 94.621 125.487 93.963C127.642 93.7207 129.768 93.2595 131.83 92.5867C134.622 91.6835 136.484 90.6599 137.852 89.2707C139.959 87.1633 140.768 84.3032 141.073 82.2731C141.796 77.4992 141.073 72.2134 140.544 69.4909C140.211 67.6641 139.482 65.9325 138.407 64.4181C137.333 62.9036 135.939 61.6432 134.325 60.7257C132.063 59.4096 129.357 58.5753 126.054 58.1452C125.194 58.0336 124.328 57.9762 123.461 57.9731Z" fill="#D1D3D4"/>
<path d="M137.951 87.8986C137.924 87.9047 137.896 87.9047 137.869 87.8986C135.228 86.8062 133.439 87.0643 133.418 87.0643C133.389 87.0685 133.361 87.0671 133.333 87.0602C133.305 87.0533 133.279 87.041 133.256 87.0241C133.233 87.0071 133.214 86.9858 133.199 86.9613C133.184 86.9368 133.175 86.9097 133.17 86.8815C133.166 86.8532 133.168 86.8244 133.174 86.7967C133.181 86.769 133.194 86.7429 133.211 86.72C133.228 86.697 133.249 86.6776 133.273 86.6629C133.298 86.6482 133.325 86.6384 133.353 86.6342C133.431 86.6342 135.271 86.3546 138.033 87.4943C138.059 87.5048 138.083 87.5203 138.103 87.54C138.123 87.5597 138.14 87.5832 138.151 87.6091C138.162 87.6351 138.168 87.663 138.168 87.6913C138.169 87.7196 138.163 87.7476 138.153 87.7739C138.135 87.8119 138.106 87.8439 138.07 87.866C138.034 87.8881 137.993 87.8994 137.951 87.8986Z" fill="#D1D3D4"/>
<path d="M106.597 62.8117L93.2647 55.5002C93.2647 55.5002 92.4949 53.2981 91.6691 52.6229C90.8433 51.9476 91.3552 54.3432 91.3552 54.3432C91.3552 54.3432 86.7962 51.4315 86.3274 52.2186C85.8586 53.0057 85.0802 56.2141 86.6371 57.4571C88.0091 58.5452 90.5638 58.8205 90.5638 58.8205C97.6861 64.5622 107.737 70.906 107.737 70.906" fill="white"/>
<path d="M107.738 71.1123C107.698 71.1114 107.659 71.0995 107.626 71.0779C107.523 71.0134 97.523 64.6911 90.4739 59.0354C90.0438 58.9838 87.803 58.6656 86.5041 57.6334C84.8741 56.3431 85.5966 53.0228 86.1429 52.1153C86.177 52.0589 86.2226 52.0102 86.2767 51.9725C86.3307 51.9347 86.3921 51.9086 86.4568 51.896C87.317 51.6895 89.9793 53.2508 91.0545 53.9088C90.9556 53.2852 90.9125 52.554 91.2265 52.3605C91.3426 52.2917 91.5319 52.2529 91.8028 52.4723C92.5899 53.1045 93.278 54.941 93.4286 55.3496L106.701 62.6611C106.751 62.6885 106.789 62.7347 106.805 62.7895C106.821 62.8444 106.814 62.9034 106.787 62.9536C106.76 63.0037 106.714 63.041 106.659 63.0571C106.604 63.0733 106.545 63.0669 106.495 63.0396L93.1619 55.7281C93.1383 55.7166 93.1173 55.7004 93.1002 55.6804C93.0832 55.6604 93.0705 55.6371 93.063 55.6119C93.063 55.6119 92.3189 53.4615 91.5448 52.8508L91.4588 52.7906C91.4004 53.3125 91.4413 53.8407 91.5792 54.3475C91.5893 54.3891 91.5864 54.4328 91.5711 54.4727C91.5557 54.5127 91.5285 54.547 91.4932 54.5711C91.4572 54.5941 91.4154 54.6063 91.3727 54.6063C91.3301 54.6063 91.2883 54.5941 91.2523 54.5711C89.7857 53.6335 87.2095 52.2013 86.5687 52.3562C86.5428 52.3562 86.5256 52.3562 86.5256 52.3562C86.0439 53.1561 85.373 56.1926 86.7837 57.3151C88.074 58.3559 90.5728 58.6355 90.5986 58.6355C90.6394 58.641 90.678 58.6574 90.7104 58.6828C97.7424 64.3513 107.768 70.6909 107.867 70.7511C107.914 70.782 107.948 70.8302 107.961 70.8856C107.974 70.9409 107.965 70.9991 107.935 71.0478C107.91 71.0738 107.879 71.0933 107.844 71.1045C107.81 71.1157 107.773 71.1184 107.738 71.1123Z" fill="#231F20"/>
<path d="M103.294 104.225C103.294 104.225 104.262 115.27 103.866 115.983C103.471 116.697 93.9959 118.134 93.8238 117.123C93.6518 116.113 98.4602 114.113 98.4602 114.113L97.4022 105.081" fill="white"/>
<path d="M95.2519 117.678C94.9411 117.685 94.6303 117.665 94.3229 117.618C94.0434 117.571 93.6649 117.472 93.609 117.162C93.4327 116.108 96.9207 114.543 98.2281 113.997L97.1873 105.128C97.1839 105.1 97.1861 105.071 97.1938 105.044C97.2015 105.016 97.2145 104.991 97.2321 104.968C97.2496 104.946 97.2714 104.927 97.2962 104.913C97.321 104.9 97.3483 104.891 97.3766 104.887C97.4048 104.884 97.4334 104.886 97.4608 104.894C97.4882 104.901 97.5138 104.914 97.5362 104.932C97.5586 104.95 97.5772 104.971 97.5912 104.996C97.6051 105.021 97.614 105.048 97.6174 105.076L98.6754 114.108C98.6807 114.155 98.6705 114.202 98.6465 114.243C98.6224 114.283 98.5857 114.314 98.5421 114.332C96.3056 115.252 93.9445 116.568 94.0348 117.089C94.0348 117.089 94.1595 117.226 95.0799 117.252C97.8411 117.343 103.325 116.297 103.682 115.872C103.94 115.33 103.449 108.453 103.08 104.259C103.077 104.231 103.08 104.203 103.089 104.176C103.097 104.148 103.111 104.123 103.129 104.102C103.147 104.08 103.169 104.062 103.194 104.049C103.22 104.036 103.247 104.027 103.275 104.025C103.303 104.022 103.332 104.025 103.359 104.034C103.386 104.042 103.411 104.056 103.433 104.074C103.455 104.092 103.473 104.115 103.486 104.14C103.499 104.165 103.507 104.192 103.51 104.221C103.673 106.074 104.464 115.369 104.056 116.1C103.647 116.831 97.9056 117.678 95.2519 117.678Z" fill="#231F20"/>
<path d="M117.307 107.124C117.307 107.124 118.636 116.882 117.948 117.162C117.259 117.442 107.905 117.885 108.056 117.063C108.206 116.242 112.821 114.676 112.821 114.676L111.152 105.162" fill="white"/>
<path d="M111.754 117.76C109.935 117.76 108.343 117.652 107.974 117.356C107.924 117.318 107.885 117.268 107.861 117.211C107.838 117.153 107.83 117.09 107.84 117.029C107.986 116.168 111.281 114.973 112.571 114.534L110.928 105.197C110.92 105.141 110.933 105.084 110.966 105.038C110.999 104.992 111.049 104.961 111.105 104.952C111.132 104.946 111.161 104.946 111.189 104.952C111.216 104.958 111.243 104.969 111.266 104.985C111.289 105.001 111.309 105.022 111.324 105.045C111.339 105.069 111.349 105.096 111.354 105.124L113.027 114.637C113.036 114.689 113.026 114.742 112.999 114.787C112.973 114.832 112.93 114.866 112.881 114.883C110.804 115.584 108.524 116.603 108.279 117.033C108.537 117.179 109.767 117.364 113.01 117.291C114.621 117.285 116.23 117.174 117.827 116.96C118.124 116.418 117.685 111.575 117.079 107.141C117.071 107.084 117.086 107.026 117.121 106.981C117.156 106.935 117.207 106.904 117.263 106.896C117.292 106.892 117.32 106.893 117.348 106.9C117.375 106.907 117.401 106.92 117.423 106.937C117.446 106.954 117.464 106.976 117.478 107.001C117.492 107.025 117.501 107.053 117.504 107.081C118.124 111.61 118.713 117.063 118.016 117.347C117.612 117.532 114.429 117.76 111.754 117.76Z" fill="#231F20"/>
<path d="M107.002 87.5589C106.774 88.3417 104.778 108.848 104.778 108.848H96.7315C96.7315 108.848 93.0284 88.2556 94.2456 83.172C95.0799 79.6711 98.8819 77.9593 102.753 79.0947C108.512 78.8668 114.43 78.1313 114.43 78.1313L107.002 87.5589Z" fill="#231F20"/>
<path d="M104.778 109.063H96.731C96.6806 109.064 96.6316 109.047 96.593 109.014C96.5543 108.982 96.5285 108.937 96.5203 108.887C96.3698 108.027 92.8215 88.1911 94.0344 83.1204C94.2174 82.3535 94.5557 81.6323 95.0284 81.0013C95.5011 80.3703 96.0981 79.8429 96.7827 79.4517C97.6928 78.96 98.6923 78.6556 99.722 78.5566C100.752 78.4576 101.791 78.566 102.778 78.8754C108.451 78.6518 114.343 77.9249 114.39 77.9206C114.433 77.9145 114.476 77.9215 114.515 77.9407C114.553 77.9599 114.585 77.9904 114.606 78.0281C114.626 78.0652 114.635 78.1075 114.631 78.1497C114.627 78.1919 114.611 78.232 114.584 78.2647L107.187 87.6535C106.971 88.6814 105.526 103.257 104.98 108.87C104.975 108.921 104.952 108.968 104.915 109.004C104.878 109.039 104.829 109.061 104.778 109.063ZM96.9117 108.633H104.584C104.8 106.414 106.576 88.26 106.795 87.4987C106.804 87.4723 106.817 87.4475 106.834 87.4256L113.939 78.3937C112.369 78.5744 107.488 79.112 102.757 79.2969H102.688C101.752 78.9973 100.766 78.8893 99.7872 78.9795C98.8088 79.0696 97.8586 79.356 96.9934 79.8216C96.3571 80.1795 95.8025 80.6661 95.3648 81.2504C94.9271 81.8347 94.6161 82.5038 94.4516 83.215C93.3204 87.9546 96.5547 106.629 96.9117 108.633Z" fill="#231F20"/>
<path d="M131.844 80.9957C131.844 80.9957 134.377 85.202 130.463 89.9373C126.549 94.6726 115.41 89.6921 115.41 89.6921L118.193 108.22L110.021 108.139C110.021 108.139 101.505 82.9139 102.486 80.3033C103.466 77.6926 110.443 76.4884 110.443 76.4884L131.844 80.9957Z" fill="#231F20"/>
<path d="M118.18 108.435L110.008 108.354C109.963 108.353 109.92 108.339 109.884 108.313C109.847 108.287 109.82 108.25 109.806 108.207C109.458 107.175 101.273 82.8795 102.271 80.2259C103.269 77.5722 110.103 76.3293 110.395 76.2777C110.422 76.2733 110.45 76.2733 110.477 76.2777L131.887 80.785C131.916 80.7915 131.944 80.804 131.968 80.8218C131.993 80.8396 132.013 80.8622 132.029 80.8882C132.054 80.9312 134.609 85.2751 130.627 90.0749C128.975 92.0748 125.788 92.6555 121.418 91.7953C119.451 91.3856 117.524 90.7968 115.664 90.0362L118.391 108.186C118.396 108.216 118.394 108.248 118.386 108.277C118.378 108.307 118.363 108.335 118.343 108.358C118.323 108.382 118.298 108.401 118.27 108.414C118.242 108.427 118.211 108.435 118.18 108.435ZM110.163 107.919L117.93 108.001L115.182 89.7179C115.176 89.6797 115.181 89.6407 115.196 89.6049C115.21 89.5691 115.234 89.5379 115.265 89.5146C115.296 89.4913 115.332 89.4767 115.371 89.4723C115.409 89.468 115.448 89.4741 115.483 89.49C115.595 89.5416 126.532 94.35 130.295 89.7954C132.265 87.4127 132.532 85.1805 132.407 83.7268C132.338 82.842 132.099 81.9788 131.702 81.185L110.43 76.7078C109.862 76.811 103.548 77.998 102.688 80.3764C101.897 82.4451 107.767 100.819 110.163 107.919Z" fill="#231F20"/>
<path d="M105.32 93.9759C105.278 93.9762 105.236 93.9637 105.201 93.9399C105.165 93.9161 105.138 93.8822 105.122 93.8426C104.937 93.3738 100.611 82.3119 101.97 79.5378C102.036 79.3835 102.135 79.2454 102.259 79.1332C102.384 79.0211 102.532 78.9375 102.692 78.8884C102.719 78.8805 102.748 78.878 102.776 78.881C102.804 78.8841 102.831 78.8927 102.856 78.9063C102.881 78.9198 102.903 78.9382 102.92 78.9602C102.938 78.9822 102.951 79.0075 102.959 79.0346C102.974 79.0893 102.967 79.1477 102.94 79.1974C102.912 79.2471 102.867 79.2843 102.813 79.3013C102.71 79.3349 102.616 79.3909 102.537 79.4653C102.458 79.5396 102.396 79.6305 102.357 79.7313C101.067 82.3377 105.475 93.5759 105.522 93.6877C105.533 93.7142 105.538 93.7426 105.537 93.771C105.536 93.7995 105.53 93.8276 105.518 93.8536C105.507 93.8796 105.49 93.903 105.469 93.9225C105.449 93.9421 105.424 93.9573 105.398 93.9673L105.32 93.9759Z" fill="white"/>
<path d="M115.397 89.9072C115.357 89.908 115.319 89.8975 115.285 89.877C115.178 89.8125 112.64 88.2642 111.922 87.1675C111.906 87.1442 111.895 87.1179 111.889 87.0902C111.883 87.0626 111.883 87.034 111.889 87.0063C111.895 86.9787 111.906 86.9524 111.922 86.9291C111.938 86.9058 111.958 86.8859 111.982 86.8707C112.029 86.8396 112.087 86.8285 112.143 86.8397C112.198 86.851 112.247 86.8838 112.279 86.9309C112.945 87.9502 115.483 89.5115 115.509 89.5115C115.557 89.5417 115.592 89.5896 115.605 89.645C115.619 89.7004 115.611 89.759 115.582 89.8082C115.561 89.8386 115.534 89.8635 115.502 89.8807C115.469 89.898 115.433 89.907 115.397 89.9072Z" fill="white"/>
<path d="M131.844 80.9958C131.844 80.9958 140.828 58.8591 134.192 53.7798C127.556 48.7004 118.098 50.9627 116.808 55.7109C115.518 60.459 110.43 76.4884 110.43 76.4884C110.43 76.4884 126.73 81.3484 131.844 80.9958Z" fill="#1EBCC3"/>
<path d="M122.451 56.1925L120.898 71.8176L129.462 55.0872L122.451 56.1925Z" fill="#231F20"/>
<path d="M120.881 72.0327C120.86 72.0369 120.838 72.0369 120.817 72.0327C120.768 72.0196 120.726 71.9892 120.698 71.9472C120.671 71.9053 120.659 71.8546 120.666 71.8048L122.223 56.1797C122.227 56.1319 122.247 56.0869 122.28 56.0518C122.313 56.0167 122.356 55.9936 122.404 55.9861L129.41 54.8851C129.449 54.8778 129.49 54.882 129.528 54.8972C129.565 54.9125 129.597 54.9381 129.621 54.9711C129.641 55.005 129.651 55.0436 129.651 55.083C129.651 55.1223 129.641 55.1609 129.621 55.1948L121.053 71.9252C121.036 71.9559 121.011 71.9818 120.981 72.0005C120.951 72.0193 120.916 72.0304 120.881 72.0327ZM122.632 56.3775L121.204 70.7081L129.061 55.3668L122.632 56.3775Z" fill="#231F20"/>
<path d="M117.396 53.8055L106.18 61.7407L107.203 71.8177L119.224 66.7383C119.224 66.7383 121.216 55.5904 117.396 53.8055Z" fill="#1EBCC3"/>
<path d="M121.741 54.0335C122.547 53.7624 123.403 53.67 124.248 53.7625C125.569 53.9947 126.777 54.6227 128.119 54.8205C129.599 54.9538 131.087 54.9538 132.566 54.8205C132.996 54.799 132.566 55.3796 132.928 55.1302C134.141 54.2442 134.08 52.4894 134.076 51.1734C134.113 48.1252 133.732 45.0864 132.945 42.1415C132.515 40.6104 130.816 35.0063 128.334 37.4105C128.893 36.8643 126.184 35.5912 125.797 35.4837C122.279 34.5074 119.087 37.5998 118.3 40.8168C117.728 43.1522 117.685 45.4704 116.58 47.6638C116.09 48.6315 115.453 49.5863 115.41 50.6745C115.421 51.3303 115.614 51.9703 115.967 52.5231C116.32 53.0759 116.82 53.5198 117.41 53.8055C118.609 54.3562 119.96 54.4792 121.238 54.1539L121.741 54.0335Z" fill="white"/>
<path d="M132.802 55.4055C132.762 55.4047 132.722 55.3944 132.686 55.3754C132.638 55.3426 132.6 55.296 132.578 55.2416C132.555 55.1873 132.55 55.1276 132.562 55.07V55.0399L131.886 55.07C130.622 55.1748 129.351 55.1633 128.089 55.0356C127.373 54.9139 126.671 54.7268 125.99 54.4765C125.409 54.2646 124.812 54.0978 124.205 53.9776C123.432 53.8888 122.648 53.968 121.908 54.2099L121.784 54.24L121.272 54.3647C119.945 54.6958 118.545 54.5653 117.302 53.9948C116.674 53.693 116.143 53.2219 115.768 52.6345C115.394 52.0471 115.191 51.3668 115.182 50.6702C115.283 49.7507 115.597 48.8673 116.098 48.0897C116.192 47.9134 116.287 47.737 116.377 47.5607C117.117 46.107 117.375 44.6146 117.668 43.0362C117.792 42.2921 117.926 41.5265 118.098 40.761C118.607 38.7291 119.89 36.9762 121.672 35.8752C122.292 35.4943 122.983 35.2444 123.704 35.1408C124.424 35.0372 125.158 35.0823 125.861 35.2731C126.106 35.3419 128.11 36.2193 128.545 36.9547C128.737 36.7983 128.963 36.6885 129.204 36.6341C129.446 36.5796 129.697 36.5819 129.938 36.6407C131.443 37.045 132.519 39.8105 133.159 42.0599C133.957 45.0264 134.34 48.0889 134.299 51.1605V51.324C134.299 52.6142 134.299 54.3819 133.06 55.2937C132.988 55.357 132.898 55.3961 132.802 55.4055ZM132.583 54.5883C132.638 54.5854 132.693 54.5938 132.745 54.6131C132.797 54.6323 132.844 54.6619 132.884 54.7002C132.915 54.7325 132.94 54.7704 132.957 54.812C133.878 53.9948 133.869 52.5153 133.865 51.3154V51.1562C133.905 48.1226 133.527 45.0979 132.742 42.1674C131.882 39.1568 130.845 37.3203 129.826 37.0493C129.579 37.0027 129.323 37.025 129.087 37.1137C128.851 37.2024 128.644 37.3542 128.489 37.5525C128.448 37.5924 128.392 37.6144 128.335 37.6136C128.278 37.6128 128.223 37.5893 128.183 37.5482C128.143 37.5072 128.121 37.4519 128.122 37.3947C128.123 37.3374 128.146 37.2828 128.188 37.2429C128.265 36.9203 126.342 35.8451 125.74 35.6773C125.091 35.4997 124.413 35.4577 123.747 35.5539C123.081 35.65 122.442 35.8824 121.87 36.2365C120.186 37.2774 118.976 38.935 118.498 40.8556C118.313 41.604 118.184 42.3652 118.068 43.1007C117.805 44.6447 117.53 46.236 116.777 47.7499C116.687 47.9263 116.588 48.1026 116.493 48.2832C116.031 49.0028 115.737 49.8172 115.633 50.6659C115.643 51.2812 115.824 51.8816 116.157 52.3992C116.49 52.9168 116.961 53.3309 117.517 53.5948C118.672 54.1204 119.972 54.2372 121.203 53.926L121.702 53.8056L121.827 53.7755C122.624 53.5181 123.467 53.4359 124.3 53.5346C124.928 53.661 125.546 53.8335 126.149 54.0507C126.805 54.2925 127.481 54.4739 128.17 54.5926C129.405 54.7168 130.649 54.7268 131.886 54.6227L132.574 54.5883H132.583Z" fill="#231F20"/>
<path d="M119.638 42.0684C119.638 42.0684 118.464 45.6769 119.165 48.3735C119.34 49.1269 119.732 49.8128 120.291 50.3474C120.85 50.882 121.552 51.2423 122.313 51.3841L122.451 56.1882C122.451 56.1882 122.502 58.6483 125.5 58.1795C126.369 58.0439 127.19 57.6882 127.883 57.1462C128.576 56.6042 129.119 55.894 129.461 55.0829L129.547 46.236C129.547 46.236 126.076 44.3694 126.278 41.191C126.278 41.1953 122.278 43.277 119.638 42.0684Z" fill="white"/>
<path d="M124.782 58.4591C124.16 58.4876 123.549 58.2906 123.061 57.9042C122.817 57.686 122.619 57.4215 122.478 57.1263C122.337 56.831 122.256 56.5107 122.24 56.1839L122.102 51.5776C121.339 51.3969 120.641 51.0082 120.085 50.4548C119.529 49.9013 119.138 49.2047 118.954 48.4423C118.249 45.7155 119.384 42.163 119.436 41.991C119.445 41.9626 119.46 41.9364 119.48 41.9142C119.5 41.892 119.524 41.8742 119.552 41.8619C119.58 41.8502 119.61 41.8442 119.64 41.8442C119.67 41.8442 119.7 41.8502 119.728 41.8619C122.244 43.0146 126.141 41.0018 126.179 41.0018C126.213 40.9829 126.251 40.973 126.289 40.973C126.327 40.973 126.365 40.9829 126.399 41.0018C126.43 41.0228 126.455 41.0518 126.472 41.0858C126.489 41.1198 126.496 41.1576 126.493 41.1953C126.3 44.2059 129.616 46.0209 129.646 46.0381C129.681 46.0561 129.71 46.0832 129.73 46.1166C129.751 46.1499 129.762 46.1882 129.762 46.2273L129.676 55.0786C129.68 55.1013 129.68 55.1246 129.676 55.1474C129.325 55.997 128.761 56.7414 128.037 57.3081C127.314 57.8749 126.456 58.2447 125.547 58.3816C125.295 58.4284 125.038 58.4543 124.782 58.4591ZM119.775 42.3608C119.539 43.1823 118.795 46.094 119.371 48.3176C119.532 49.0319 119.898 49.6834 120.426 50.1911C120.954 50.6988 121.619 51.0404 122.339 51.1734C122.39 51.1795 122.437 51.2037 122.472 51.2416C122.506 51.2794 122.526 51.3285 122.528 51.3798L122.666 56.1839C122.699 56.718 122.94 57.2179 123.336 57.5774C123.822 58.0075 124.541 58.115 125.487 57.9731C126.312 57.841 127.09 57.5034 127.75 56.9916C128.41 56.4797 128.93 55.81 129.263 55.0442L129.345 46.365C128.751 46.0166 126.119 44.3134 126.072 41.5394C125.07 41.9996 122.051 43.2296 119.775 42.3608Z" fill="#231F20"/>
<path d="M127.861 45.6684C127.861 45.6684 129.251 42.2879 130.984 44.3437C132.717 46.3995 130.347 48.7736 128.859 48.6188" fill="white"/>
<path d="M129.001 48.8424H128.838C128.809 48.8397 128.782 48.8314 128.757 48.818C128.732 48.8047 128.71 48.7864 128.692 48.7644C128.674 48.7424 128.66 48.7171 128.652 48.6899C128.644 48.6626 128.641 48.6341 128.644 48.6058C128.647 48.5775 128.655 48.55 128.668 48.525C128.682 48.4999 128.7 48.4777 128.722 48.4597C128.744 48.4417 128.769 48.4282 128.797 48.4201C128.824 48.412 128.852 48.4093 128.881 48.4123C129.629 48.4897 130.635 47.8316 131.104 46.9414C131.323 46.5555 131.414 46.11 131.363 45.6692C131.312 45.2285 131.122 44.8155 130.82 44.4899C130.703 44.3056 130.538 44.1554 130.345 44.0543C130.151 43.9532 129.934 43.9046 129.715 43.9135C128.932 44.034 128.257 45.2855 128.064 45.7586C128.042 45.8117 128 45.8539 127.947 45.8761C127.894 45.8983 127.835 45.8986 127.782 45.8769C127.729 45.8552 127.686 45.8134 127.664 45.7605C127.642 45.7077 127.642 45.6482 127.664 45.5952C127.698 45.5135 128.468 43.6727 129.651 43.4878C130.171 43.406 130.674 43.6512 131.152 44.2146C131.506 44.6067 131.729 45.1 131.789 45.6252C131.849 46.1505 131.744 46.6813 131.487 47.1435C130.962 48.137 129.913 48.8424 129.001 48.8424Z" fill="#231F20"/>
<path d="M121.586 48.4768C121.352 48.4836 121.12 48.4395 120.906 48.3478C120.854 48.3227 120.808 48.2861 120.772 48.2406C120.736 48.1951 120.712 48.142 120.7 48.0854C120.54 47.4704 121.697 45.7758 122.059 45.2683C122.074 45.2452 122.095 45.2255 122.118 45.2103C122.142 45.1952 122.168 45.1849 122.196 45.1801C122.224 45.1753 122.252 45.1761 122.279 45.1824C122.307 45.1886 122.333 45.2003 122.355 45.2167C122.379 45.233 122.398 45.2537 122.414 45.2777C122.429 45.3017 122.439 45.3285 122.444 45.3565C122.449 45.3845 122.448 45.4131 122.442 45.4408C122.435 45.4685 122.423 45.4947 122.407 45.5178C121.633 46.6102 121.026 47.7628 121.117 47.9822C121.567 48.0784 122.034 48.0547 122.471 47.9134C122.5 47.9052 122.529 47.9026 122.559 47.9059C122.588 47.9091 122.616 47.9181 122.642 47.9323C122.668 47.9464 122.69 47.9655 122.709 47.9885C122.727 48.0115 122.741 48.0378 122.749 48.066C122.757 48.0943 122.76 48.1239 122.756 48.1531C122.753 48.1823 122.744 48.2106 122.73 48.2364C122.716 48.2621 122.697 48.2848 122.674 48.3032C122.651 48.3216 122.624 48.3353 122.596 48.3435C122.267 48.4343 121.927 48.4792 121.586 48.4768Z" fill="#231F20"/>
<path d="M122.313 51.3885C122.313 51.3885 124.894 51.6379 126.352 51.2164C126.352 51.2164 124.851 55.0485 122.412 55.0872L122.313 51.3885Z" fill="#231F20"/>
<path d="M122.412 55.3151C122.355 55.3151 122.301 55.293 122.261 55.2536C122.221 55.2142 122.198 55.1606 122.197 55.1044L122.098 51.3927C122.097 51.3622 122.103 51.3319 122.115 51.3038C122.126 51.2756 122.144 51.2504 122.166 51.2296C122.189 51.2089 122.215 51.1931 122.244 51.1834C122.273 51.1737 122.304 51.1703 122.334 51.1733C122.36 51.1733 124.885 51.4142 126.291 51.0099C126.33 50.9979 126.371 50.9972 126.41 51.0079C126.448 51.0186 126.483 51.0402 126.51 51.0701C126.538 51.0996 126.556 51.1362 126.564 51.1758C126.572 51.2153 126.568 51.2562 126.553 51.2938C126.489 51.4572 124.971 55.2592 122.416 55.3151H122.412ZM122.532 51.6206L122.618 54.8678C124.338 54.6614 125.551 52.4378 125.981 51.526C124.839 51.689 123.682 51.7207 122.532 51.6206Z" fill="#231F20"/>
<path d="M124.279 44.8476C124.289 44.482 124.127 44.1812 123.918 44.1759C123.709 44.1706 123.532 44.4627 123.523 44.8284C123.513 45.194 123.675 45.4948 123.884 45.5001C124.093 45.5054 124.27 45.2133 124.279 44.8476Z" fill="#231F20"/>
<path d="M120.797 44.7626C120.806 44.3969 120.645 44.0961 120.436 44.0908C120.227 44.0855 120.05 44.3776 120.04 44.7433C120.031 45.1089 120.193 45.4097 120.402 45.415C120.611 45.4204 120.788 45.1282 120.797 44.7626Z" fill="#231F20"/>
<path d="M134.028 49.4272C134.213 52.2529 134.458 57.4484 129.968 56.1667C129.038 55.8881 128.249 55.2652 127.762 54.4249C126.902 52.8852 129.216 50.6573 130.312 49.6552" fill="white"/>
<path d="M131.246 56.584C130.792 56.5774 130.342 56.508 129.908 56.3776C128.913 56.0904 128.069 55.427 127.555 54.5282C126.665 52.9627 128.609 50.9069 130.136 49.4962C130.177 49.4565 130.232 49.4343 130.289 49.4343C130.346 49.4343 130.4 49.4565 130.441 49.4962C130.462 49.5162 130.478 49.5399 130.488 49.5661C130.499 49.5923 130.505 49.6205 130.505 49.6488C130.505 49.6772 130.499 49.7053 130.488 49.7315C130.478 49.7577 130.462 49.7815 130.441 49.8015C129.616 50.5585 127.108 52.8551 127.934 54.3045C128.394 55.1049 129.146 55.6954 130.033 55.9518C131.16 56.2744 132.046 56.184 132.665 55.6851C134.149 54.4852 133.925 51.0746 133.818 49.4359C133.816 49.4077 133.819 49.3794 133.828 49.3525C133.837 49.3257 133.851 49.3008 133.87 49.2795C133.888 49.2581 133.911 49.2406 133.936 49.228C133.962 49.2153 133.989 49.2078 134.018 49.2058C134.046 49.2039 134.074 49.2075 134.101 49.2165C134.128 49.2254 134.153 49.2396 134.174 49.2582C134.195 49.2768 134.213 49.2994 134.226 49.3247C134.238 49.35 134.246 49.3776 134.248 49.4058C134.368 51.2509 134.596 54.6787 132.932 56.0206C132.454 56.4022 131.857 56.6018 131.246 56.584Z" fill="#231F20"/>
<path d="M124.244 49.4573C124.244 49.6853 123.862 49.8874 123.384 49.8874C122.907 49.8874 123.1 49.6982 123.1 49.4573C123.1 49.2165 122.911 49.0272 123.384 49.0272C123.857 49.0272 124.244 49.2294 124.244 49.4573Z" fill="#231F20"/>
<path d="M134.974 54.9409C134.974 54.9409 131.005 58.2569 130.987 61.0611C130.97 63.8653 133.998 76.9744 133.998 76.9744L142.269 72.3638C142.269 72.3638 139.043 56.0764 134.974 54.9409Z" fill="#1EBCC3"/>
<path d="M110.881 75.2756H110.821C110.794 75.2672 110.769 75.2536 110.747 75.2354C110.725 75.2173 110.707 75.1949 110.693 75.1697C110.68 75.1445 110.672 75.1169 110.67 75.0886C110.667 75.0603 110.67 75.0317 110.679 75.0046L116.606 55.6506C116.611 55.6208 116.623 55.5924 116.64 55.5674C116.657 55.5424 116.68 55.5213 116.705 55.5055C116.731 55.4897 116.76 55.4796 116.79 55.4758C116.82 55.472 116.851 55.4746 116.88 55.4835C116.909 55.4924 116.936 55.5072 116.959 55.5272C116.982 55.5472 117 55.5717 117.013 55.5993C117.025 55.6269 117.032 55.6568 117.032 55.6871C117.033 55.7175 117.026 55.7475 117.014 55.7753L111.088 75.1293C111.073 75.1724 111.045 75.2097 111.008 75.236C110.971 75.2623 110.927 75.2761 110.881 75.2756Z" fill="#231F20"/>
<path d="M134.08 76.295C134.031 76.296 133.983 76.2798 133.945 76.2492C133.906 76.2185 133.88 76.1754 133.87 76.1272C130.519 61.1817 130.726 61.0053 130.859 60.8978C130.9 60.8581 130.955 60.8359 131.012 60.8359C131.069 60.8359 131.123 60.8581 131.164 60.8978C131.189 60.9263 131.206 60.9608 131.212 60.9979C131.219 61.035 131.216 61.0732 131.203 61.1085C131.203 61.8096 133.039 70.377 134.304 76.0111C134.31 76.0388 134.311 76.0675 134.306 76.0955C134.301 76.1234 134.291 76.1502 134.276 76.1742C134.261 76.1982 134.241 76.2189 134.218 76.2352C134.194 76.2515 134.168 76.2631 134.14 76.2692L134.08 76.295Z" fill="#231F20"/>
<path d="M122.536 76.0798L107.118 81.8903L100.271 76.9744L113.749 72.9058L122.536 76.0798Z" fill="white"/>
<path d="M107.118 82.1141C107.072 82.1144 107.028 82.101 106.989 82.0754L100.147 77.1551C100.113 77.1321 100.087 77.1001 100.071 77.0628C100.055 77.0255 100.05 76.9845 100.056 76.9444C100.064 76.9054 100.082 76.8692 100.108 76.8397C100.135 76.8102 100.169 76.7884 100.207 76.7767L113.686 72.7123C113.731 72.6994 113.779 72.6994 113.824 72.7123L122.602 75.8778C122.642 75.8943 122.677 75.9221 122.702 75.958C122.728 75.9938 122.742 76.0361 122.744 76.0799C122.744 76.1241 122.73 76.1672 122.704 76.2034C122.679 76.2396 122.643 76.267 122.602 76.2821L107.192 82.1141C107.167 82.1185 107.143 82.1185 107.118 82.1141ZM100.749 77.0605L107.149 81.6582L121.913 76.0928L113.742 73.1424L100.749 77.0605Z" fill="#231F20"/>
<path d="M141.306 72.91C141.306 72.91 143.026 81.6107 138.343 82.4408C133.659 83.2709 118.129 80.2301 118.129 80.2301C118.129 80.2301 112.735 81.1806 113.079 79.8001C113.423 78.4195 116.791 77.8087 116.791 77.8087C116.791 77.8087 114.013 76.4626 115.38 76.4669C116.836 76.5533 118.286 76.7156 119.724 76.9529L134.089 75.039" fill="white"/>
<path d="M136.217 82.8022C130.333 82.8022 119.061 80.6517 118.153 80.4496C117.34 80.5915 113.784 81.1549 113.035 80.3464C112.964 80.2708 112.913 80.1778 112.889 80.0766C112.865 79.9755 112.868 79.8698 112.898 79.7701C113.186 78.6475 115.155 78.011 116.183 77.7529C114.721 76.9788 114.79 76.6734 114.82 76.553C114.885 76.2734 115.25 76.2734 115.405 76.2734C116.862 76.3577 118.313 76.5184 119.753 76.7551L134.088 74.8456C134.145 74.8381 134.203 74.8537 134.248 74.8888C134.294 74.9239 134.324 74.9756 134.331 75.0326C134.338 75.0897 134.323 75.1473 134.288 75.1929C134.253 75.2385 134.201 75.2682 134.144 75.2756L119.779 77.1852C119.758 77.1895 119.736 77.1895 119.714 77.1852C118.29 76.9512 116.854 76.7905 115.414 76.7035H115.349C115.84 77.0687 116.367 77.3815 116.923 77.6368C116.963 77.6575 116.996 77.6898 117.017 77.7296C117.037 77.7694 117.046 77.8146 117.04 77.8591C117.034 77.9037 117.015 77.9454 116.985 77.9788C116.955 78.0121 116.915 78.0353 116.872 78.0454C115.973 78.2131 113.581 78.8755 113.328 79.8776C113.315 79.907 113.311 79.9396 113.318 79.9711C113.324 80.0025 113.339 80.0314 113.362 80.0539C113.827 80.5571 116.532 80.2991 118.127 80.0195H118.209C118.364 80.0496 133.748 83.0301 138.324 82.2302C138.735 82.1602 139.128 82.007 139.478 81.78C139.828 81.5529 140.127 81.2568 140.359 80.9098C142.113 78.3594 141.159 73.1682 141.116 72.9532C141.11 72.9214 141.111 72.8888 141.12 72.8577C141.128 72.8265 141.143 72.7974 141.163 72.7725C141.188 72.7403 141.223 72.7162 141.262 72.7032C141.301 72.6902 141.343 72.6889 141.382 72.6994C141.422 72.709 141.457 72.7301 141.485 72.7599C141.513 72.7898 141.531 72.8271 141.537 72.8671L141.326 72.9102L141.541 72.8714C141.649 73.4392 142.539 78.5056 140.711 81.155C140.449 81.5495 140.108 81.886 139.71 82.1434C139.312 82.4009 138.865 82.5739 138.397 82.6517C137.676 82.7642 136.947 82.8146 136.217 82.8022Z" fill="#231F20"/>
<path d="M81.4844 110.001C81.9306 110.43 82.5012 110.707 83.1144 110.792C83.8327 110.792 91.6216 109.356 91.9442 110.422C92.2667 111.489 91.6302 112.022 89.7679 112.9C87.2734 114.074 78.8996 116.831 78.8996 116.831L77.0674 112.53L81.4844 110.001Z" fill="white"/>
<path d="M78.8999 117.029C78.8611 117.03 78.8229 117.018 78.7906 116.997C78.7583 116.975 78.7334 116.944 78.7193 116.908L76.8871 112.607C76.8681 112.564 76.8659 112.514 76.881 112.469C76.8961 112.424 76.9274 112.386 76.9688 112.362L81.3858 109.833C81.4249 109.811 81.4706 109.802 81.5152 109.809C81.5598 109.816 81.6006 109.839 81.631 109.872C82.0398 110.262 82.5597 110.516 83.1191 110.599C83.6441 110.563 84.1667 110.499 84.6846 110.405C89.3252 109.756 91.8843 109.545 92.1337 110.367C92.5036 111.592 91.7294 112.194 89.85 113.08C87.3769 114.25 79.0461 116.994 78.9601 117.024L78.8999 117.029ZM77.3172 112.612L79.0117 116.59C80.216 116.19 87.4243 113.786 89.6822 112.719C91.5961 111.816 92.0219 111.356 91.7552 110.474C91.5617 109.833 86.4264 110.552 84.7405 110.788C83.7943 110.921 83.2911 110.977 83.1105 110.986C82.4955 110.91 81.9181 110.649 81.4546 110.238L77.3172 112.612Z" fill="#231F20"/>
<path d="M57.2752 114.616C57.2752 114.616 65.6233 117.485 65.9802 118.031C66.3372 118.577 65.705 119.218 63.4814 119.416C61.2579 119.613 51.7443 119.097 51.7443 119.097C51.7443 119.097 51.6239 116.517 52.2217 115.227C52.8195 113.936 57.2752 114.616 57.2752 114.616Z" fill="white"/>
<path d="M61.8941 119.656C58.4878 119.656 52.058 119.312 51.7354 119.295C51.6863 119.292 51.6399 119.271 51.605 119.236C51.5702 119.202 51.5493 119.155 51.5462 119.106C51.5462 118.998 51.4344 116.465 52.0408 115.132C52.6816 113.726 56.832 114.349 57.3051 114.422H57.3352C59.3093 115.102 65.7778 117.355 66.1434 117.919C66.2133 118.016 66.2557 118.131 66.2663 118.25C66.2769 118.37 66.2553 118.49 66.2036 118.598C65.9499 119.119 65.0123 119.459 63.4984 119.601C63.1328 119.644 62.5737 119.656 61.8941 119.656ZM51.9333 118.912C53.258 118.981 61.4511 119.398 63.464 119.218C65.408 119.046 65.7821 118.577 65.8467 118.435C65.8707 118.388 65.8806 118.335 65.8753 118.282C65.8699 118.23 65.8496 118.18 65.8165 118.138C65.4854 117.751 60.3802 115.893 57.2148 114.809C55.546 114.543 52.772 114.444 52.3849 115.295C51.9204 116.349 51.9204 118.315 51.9333 118.912Z" fill="#231F20"/>
<path d="M35.6247 87.4213C35.6247 87.4213 28.8121 70.3941 29.5261 61.9945C30.24 53.5948 35.7237 53.083 37.6461 52.9626C39.5686 52.8422 49.6628 51.496 53.3487 56.0162C57.0345 60.5365 56.0884 82.3076 56.0884 82.3076L35.6247 87.4213Z" fill="#1EBCC3"/>
<path d="M47.6496 56.842L47.5249 73.9037L40.2822 55.698L47.6496 56.842Z" fill="#231F20"/>
<path d="M47.5242 74.1187C47.4812 74.1187 47.4391 74.1061 47.4031 74.0824C47.3672 74.0587 47.339 74.0249 47.3221 73.9853L40.0794 55.7754C40.0667 55.7395 40.0633 55.701 40.0693 55.6635C40.0753 55.6259 40.0906 55.5904 40.1138 55.5603C40.1374 55.5303 40.1686 55.5073 40.2042 55.4937C40.2398 55.48 40.2784 55.4763 40.316 55.4829L47.6834 56.6312C47.7343 56.6384 47.781 56.6637 47.8149 56.7023C47.8488 56.741 47.8678 56.7905 47.8683 56.842L47.7393 73.9079C47.7381 73.9573 47.7199 74.0049 47.6878 74.0425C47.6557 74.0801 47.6116 74.1055 47.563 74.1143L47.5242 74.1187ZM40.6428 55.9646L47.335 72.8026L47.4511 57.0269L40.6428 55.9646Z" fill="#231F20"/>
<path d="M56.5054 77.9938C56.5054 77.9938 64.8319 80.2216 72.2768 85.2795C75.6917 87.5977 82.0699 110.341 82.0699 110.341C82.0699 110.341 81.3559 114.28 76.8056 113.665L56.9183 87.8987C56.9183 87.8987 52.6518 77.8949 56.5054 77.9938Z" fill="#231F20"/>
<path d="M77.7342 113.941C77.4133 113.94 77.0928 113.917 76.7751 113.872C76.7193 113.863 76.6687 113.834 76.6332 113.79L56.7502 88.0234C56.7377 88.0093 56.7275 87.9933 56.7201 87.9761C56.5954 87.6793 53.6105 80.6258 55.0943 78.441C55.2498 78.2143 55.4628 78.033 55.7115 77.9158C55.9602 77.7987 56.2355 77.7499 56.5093 77.7743H56.561C56.6427 77.7959 65.0079 80.071 72.3968 85.0859C75.8375 87.4255 82.0136 109.339 82.2889 110.272C82.2952 110.303 82.2952 110.335 82.2889 110.366C82.0679 111.401 81.4911 112.325 80.6588 112.978C79.8266 113.631 78.7916 113.972 77.7342 113.941ZM76.9214 113.459C80.9169 113.953 81.7513 110.792 81.8459 110.345C81.5104 109.154 75.3945 87.6492 72.156 85.4514C65.0251 80.6086 56.9824 78.3421 56.4749 78.2044H56.4491C56.2556 78.1902 56.0618 78.2268 55.8868 78.3105C55.7118 78.3943 55.5617 78.5223 55.4513 78.6818C54.1395 80.6172 56.9093 87.318 57.1072 87.7825L76.9214 113.459Z" fill="#231F20"/>
<path d="M35.6239 87.4213C35.6239 87.4213 51.3996 81.0044 55.4424 80.4109C55.4424 80.4109 61.2271 82.5613 64.1991 88.0407C67.171 93.52 57.2746 114.616 57.2746 114.616C55.6463 115.579 53.7237 115.918 51.8641 115.571L51.7351 93.4899C51.7351 93.4899 32.6778 95.378 35.6239 87.4213Z" fill="#231F20"/>
<path d="M53.3049 115.923C52.8069 115.923 52.3101 115.875 51.8211 115.781C51.7725 115.772 51.7289 115.745 51.6975 115.707C51.6662 115.668 51.649 115.62 51.649 115.571L51.52 93.7265C49.705 93.8856 38.6389 94.6856 35.7788 90.9782C35.0132 89.9933 34.9186 88.7719 35.4218 87.3483C35.4321 87.3203 35.4481 87.2947 35.4689 87.2732C35.4896 87.2518 35.5146 87.2348 35.5422 87.2235C36.1874 86.9612 51.3867 80.7722 55.4123 80.1959C55.4477 80.1875 55.4845 80.1875 55.5198 80.1959C55.5758 80.2174 61.4121 82.4452 64.3883 87.9375C67.3645 93.4297 57.8724 113.842 57.4681 114.706C57.4522 114.744 57.4252 114.775 57.3907 114.797C56.1569 115.537 54.7441 115.927 53.3049 115.923ZM52.0662 115.39C53.7981 115.665 55.572 115.341 57.094 114.47C57.6574 113.248 66.814 93.3179 63.9969 88.1439C61.2443 83.0775 55.98 80.8582 55.3951 80.6303C51.4942 81.241 37.0475 87.0816 35.7745 87.5848C35.3444 88.8235 35.4476 89.8729 36.097 90.7159C39.0044 94.4834 51.5802 93.2964 51.6921 93.2964C51.7214 93.2936 51.7509 93.2967 51.779 93.3056C51.8071 93.3144 51.8331 93.3289 51.8555 93.348C51.8782 93.3679 51.8964 93.3924 51.909 93.4198C51.9216 93.4472 51.9283 93.477 51.9286 93.5071L52.0662 115.39Z" fill="#231F20"/>
<path d="M63.8421 97.1284H63.8034C63.7474 97.1179 63.6976 97.086 63.6647 97.0394C63.6318 96.9929 63.6183 96.9353 63.6271 96.8789C64.1819 93.7221 64.7539 88.7417 64.0572 87.9589C61.7648 85.43 56.0704 81.2151 56.0145 81.1721C55.9694 81.1386 55.9393 81.0888 55.9304 81.0334C55.9216 80.9779 55.9348 80.9212 55.9672 80.8753C56.0015 80.83 56.052 80.7997 56.1082 80.7909C56.1643 80.782 56.2217 80.7954 56.2683 80.828C56.3242 80.871 62.053 85.1289 64.3754 87.6707C65.455 88.8578 64.212 96.1306 64.0658 96.9564C64.0564 97.0076 64.0283 97.0536 63.987 97.0853C63.9457 97.1171 63.8941 97.1324 63.8421 97.1284Z" fill="white"/>
<path d="M53.3571 56.0162C53.3571 56.0162 56.0882 61.2633 57.6967 63.96C59.3052 66.6566 62.7975 70.5231 62.7975 70.5231C62.7975 70.5231 75.1669 74.9229 75.2486 75.1595C75.3303 75.396 74.0745 79.555 74.0745 79.555C74.0745 79.555 61.0987 78.6217 58.9483 77.6067C56.7978 76.5917 52.4453 71.5855 52.4453 71.5855L53.3571 56.0162Z" fill="#1EBCC3"/>
<path d="M44.8454 58.7258L43.9336 60.1623L44.9314 60.7558L45.0303 67.6373L47.5248 73.9037L47.6496 68.1061L45.5722 60.558L46.1916 59.8312L44.8454 58.7258Z" fill="white"/>
<path d="M47.525 74.1186C47.482 74.1187 47.4398 74.1061 47.4039 74.0824C47.3679 74.0586 47.3398 74.0249 47.3229 73.9853L44.8327 67.7189C44.8307 67.6931 44.8307 67.6672 44.8327 67.6415L44.738 60.8762L43.8392 60.3471C43.79 60.3154 43.7547 60.2662 43.7402 60.2095C43.7334 60.1817 43.7325 60.1527 43.7377 60.1246C43.7429 60.0964 43.754 60.0696 43.7703 60.0461L44.6821 58.6096C44.6983 58.5839 44.7197 58.5618 44.7449 58.5448C44.77 58.5277 44.7985 58.5161 44.8284 58.5107C44.8587 58.5063 44.8897 58.5083 44.9193 58.5164C44.9489 58.5246 44.9765 58.5387 45.0004 58.558L46.3466 59.6633C46.3685 59.6815 46.3866 59.7039 46.3998 59.7292C46.413 59.7545 46.421 59.7822 46.4234 59.8106C46.4258 59.839 46.4225 59.8676 46.4138 59.8948C46.405 59.9219 46.3909 59.947 46.3724 59.9687L45.8133 60.6095L47.8605 68.05C47.8626 68.0715 47.8626 68.0931 47.8605 68.1146L47.7315 73.9079C47.7303 73.9573 47.7121 74.0048 47.68 74.0424C47.6479 74.08 47.6038 74.1054 47.5551 74.1143L47.525 74.1186ZM45.2455 67.5984L47.3358 72.8412L47.439 68.1361L45.366 60.6095C45.3577 60.5754 45.3573 60.5399 45.3648 60.5057C45.3722 60.4714 45.3873 60.4393 45.409 60.4117L45.8864 59.8525L44.8972 59.0397L44.2348 60.0848L45.0434 60.5665C45.0748 60.5851 45.1008 60.6115 45.1189 60.6432C45.137 60.6748 45.1465 60.7107 45.1466 60.7471L45.2455 67.5984Z" fill="#231F20"/>
<path d="M39.8309 39.2211C40.079 39.1265 40.3374 39.0615 40.6008 39.0276C41.6502 38.9072 41.6674 39.1351 42.476 38.4556C43.7095 37.4851 45.2101 36.9149 46.7768 36.8213C49.7875 36.6234 51.9766 38.133 51.2885 41.4361C50.9576 42.7444 50.357 43.9691 49.5251 45.0316C47.8048 47.3885 45.4264 49.5218 42.5276 49.7626C41.6674 49.8271 40.0546 49.7626 39.4309 49.0616C38.5449 48.0569 37.9324 46.8412 37.6522 45.5313C37.372 44.2215 37.4336 42.8615 37.831 41.5823C37.9897 41.0345 38.2541 40.5231 38.6095 40.077C38.9395 39.695 39.3592 39.4009 39.8309 39.2211Z" fill="white"/>
<path d="M41.9983 49.9735C41.2327 49.9735 39.8779 49.8703 39.2586 49.1822C38.3502 48.1521 37.7225 46.9054 37.4363 45.5621C37.15 44.2189 37.2147 42.8246 37.6243 41.5137C37.7912 40.9398 38.0704 40.4047 38.4457 39.9395C38.9942 39.3062 39.7629 38.9049 40.5962 38.817C40.8131 38.7901 41.0313 38.7743 41.2499 38.7697C41.68 38.7697 41.8133 38.7697 42.3552 38.2923C43.6161 37.2876 45.1582 36.6999 46.768 36.6107C48.5442 36.4945 49.985 36.959 50.8237 37.9009C51.572 38.7611 51.8086 39.9912 51.5032 41.4578C51.174 42.798 50.561 44.052 49.7055 45.135C48.2217 47.1908 45.7787 49.694 42.5488 49.9348C42.4671 49.9606 42.2692 49.9735 41.9983 49.9735ZM47.2798 37.0192C47.1163 37.0192 46.9486 37.0192 46.7766 37.0192C45.255 37.1165 43.7994 37.6762 42.6047 38.6235C42.4321 38.8117 42.221 38.9606 41.9857 39.06C41.7505 39.1595 41.4966 39.2071 41.2413 39.1998C41.0822 39.1998 40.8843 39.1998 40.6177 39.2428C40.3717 39.2729 40.1304 39.3336 39.8994 39.4234C39.4624 39.589 39.0736 39.861 38.7683 40.2148C38.4296 40.6393 38.1769 41.1258 38.0242 41.647C37.6407 42.8887 37.5836 44.2083 37.8586 45.4784C38.1336 46.7486 38.7313 47.9264 39.5941 48.8983C40.0844 49.4445 41.4521 49.6122 42.5144 49.5262C45.5766 49.2983 47.9249 46.8855 49.3528 44.9071C50.1702 43.8718 50.7567 42.6738 51.0731 41.3932C51.3484 40.06 51.1463 38.9589 50.4882 38.202C49.8302 37.445 48.6861 37.0192 47.2798 37.0192Z" fill="#231F20"/>
<path d="M47.6539 52.3002V56.842C47.6539 56.842 46.5873 59.3408 43.6154 58.5881C40.6435 57.8355 40.2822 55.6936 40.2822 55.6936L40.4156 47.2768C40.4156 47.2768 42.6391 46.1242 42.0456 41.3201C44.4742 42.3981 47.1484 42.8022 49.7872 42.4899C49.7872 42.4899 50.699 47.7413 50.3807 50.0552C50.0581 52.3088 47.6927 52.2701 47.6539 52.3002Z" fill="white"/>
<path d="M44.6861 58.9451C44.3072 58.9417 43.9301 58.8911 43.5636 58.7946C40.4928 58.0118 40.0842 55.8227 40.0713 55.7324L40.2003 47.2854C40.2015 47.2465 40.2129 47.2086 40.2332 47.1754C40.2536 47.1422 40.2823 47.1149 40.3164 47.0962C40.3164 47.0962 42.3981 45.9306 41.8347 41.3588C41.8284 41.32 41.8336 41.2802 41.8497 41.2442C41.8657 41.2083 41.8919 41.1779 41.925 41.1566C41.958 41.1365 41.996 41.1259 42.0346 41.1259C42.0733 41.1259 42.1113 41.1365 42.1443 41.1566C44.5334 42.2083 47.1595 42.6047 49.7526 42.305C49.8069 42.2997 49.8612 42.3148 49.9049 42.3474C49.9487 42.38 49.9787 42.4278 49.9891 42.4813C50.0235 42.6964 50.9009 47.7929 50.5784 50.1154C50.3934 51.4874 49.43 52.3346 47.8688 52.511V56.8592C47.8733 56.8862 47.8733 56.9138 47.8688 56.9409C47.5786 57.539 47.1266 58.0438 46.5641 58.3981C46.0015 58.7524 45.3509 58.9419 44.6861 58.9451ZM40.6304 47.4101L40.4971 55.6979C40.4971 55.741 40.8799 57.6677 43.6711 58.3774C46.2517 59.0397 47.2925 57.0871 47.4387 56.7947V52.3002C47.4383 52.2683 47.4451 52.2367 47.4585 52.2076C47.4719 52.1786 47.4916 52.153 47.5161 52.1325C47.5743 52.0931 47.6437 52.0735 47.714 52.0766C49.1462 51.9476 49.9891 51.2422 50.1526 50.038C50.4278 48.0381 49.7569 43.7157 49.5978 42.7265C47.1113 42.9861 44.5993 42.6255 42.2862 41.6771C42.6948 45.7156 41.0863 47.1005 40.6304 47.4101Z" fill="#231F20"/>
<path d="M42.1748 47.165C42.0784 46.7538 41.8504 46.3853 41.5254 46.1156C41.213 45.8786 40.8625 45.6968 40.4889 45.5779C40.2911 45.4918 40.0766 45.4507 39.861 45.4575C39.7091 45.4791 39.563 45.5303 39.4309 45.608C39.1072 45.7609 38.8492 46.0249 38.704 46.3521C38.6165 46.6302 38.5987 46.9257 38.6524 47.2123C38.6862 47.5229 38.7599 47.828 38.8718 48.1198C38.9886 48.4107 39.1624 48.6754 39.3828 48.8983C39.6032 49.1212 39.8659 49.298 40.1555 49.4181C40.4451 49.5383 40.7557 49.5994 41.0692 49.5981C41.3827 49.5967 41.6928 49.5327 41.9813 49.41" fill="white"/>
<path d="M41.0476 49.7842C40.5384 49.7832 40.0408 49.6316 39.6176 49.3484C39.1944 49.0652 38.8644 48.6632 38.6692 48.1929C38.5472 47.8841 38.469 47.5599 38.4369 47.2295C38.3782 46.9111 38.3989 46.5831 38.4972 46.2747C38.6611 45.8987 38.9539 45.5936 39.3229 45.4145C39.4771 45.3224 39.6482 45.2624 39.8261 45.2381C40.0754 45.2273 40.3238 45.2728 40.553 45.3715C40.9496 45.4988 41.3218 45.6922 41.654 45.9435C42.0128 46.2444 42.2648 46.6532 42.3723 47.109C42.3793 47.1364 42.3807 47.165 42.3764 47.193C42.3722 47.2209 42.3623 47.2477 42.3475 47.2718C42.3326 47.2959 42.3131 47.3168 42.29 47.3331C42.2669 47.3495 42.2408 47.361 42.2131 47.3671C42.1578 47.38 42.0996 47.3705 42.0513 47.3407C42.0029 47.3109 41.9683 47.2632 41.9551 47.208C41.8679 46.8431 41.6659 46.516 41.3788 46.2747C41.0836 46.0548 40.7536 45.8861 40.4024 45.7758C40.2365 45.6998 40.0559 45.6617 39.8734 45.6639C39.7515 45.6843 39.6346 45.7281 39.5294 45.793C39.2536 45.9225 39.0304 46.1426 38.8971 46.4166C38.8294 46.6603 38.8176 46.9161 38.8627 47.1649C38.8903 47.46 38.9598 47.7497 39.0692 48.0251C39.1777 48.2869 39.337 48.5246 39.5378 48.7247C39.7385 48.9247 39.9768 49.0831 40.239 49.1907C40.77 49.4056 41.3638 49.4056 41.8949 49.1907C41.9204 49.1787 41.9482 49.1722 41.9764 49.1714C42.0046 49.1706 42.0326 49.1756 42.0588 49.1861C42.085 49.1965 42.1088 49.2123 42.1287 49.2323C42.1486 49.2523 42.1641 49.2762 42.1744 49.3025C42.1858 49.3285 42.1919 49.3564 42.1925 49.3848C42.193 49.4131 42.188 49.4413 42.1776 49.4677C42.1672 49.4941 42.1517 49.5181 42.1319 49.5385C42.1122 49.5589 42.0886 49.5751 42.0626 49.5863C41.7411 49.7201 41.3958 49.7874 41.0476 49.7842Z" fill="#231F20"/>
<path d="M47.4777 45.522C47.4777 45.522 49.0948 47.8186 48.7335 48.2315C48.3723 48.6444 47.3271 48.3993 47.3271 48.3993" fill="white"/>
<path d="M47.9641 48.6875C47.7341 48.6856 47.5049 48.6597 47.2803 48.6101C47.2521 48.6039 47.2253 48.5922 47.2016 48.5756C47.1779 48.5591 47.1577 48.538 47.1421 48.5136C47.1265 48.4893 47.1159 48.4621 47.1108 48.4336C47.1058 48.4052 47.1064 48.376 47.1126 48.3477C47.1188 48.3195 47.1305 48.2927 47.147 48.269C47.1636 48.2453 47.1846 48.2251 47.209 48.2095C47.2334 48.1939 47.2606 48.1833 47.289 48.1783C47.3175 48.1732 47.3467 48.1738 47.3749 48.18C47.7319 48.2617 48.3727 48.3047 48.5706 48.0768C48.6609 47.866 48.0674 46.722 47.2803 45.6339C47.2512 45.587 47.2413 45.5309 47.2524 45.4769C47.2636 45.423 47.295 45.3753 47.3403 45.3439C47.3855 45.3124 47.4411 45.2996 47.4956 45.3079C47.55 45.3162 47.5992 45.3452 47.633 45.3887C48.2738 46.2962 49.2845 47.8875 48.8759 48.3606C48.7538 48.4738 48.6101 48.5611 48.4534 48.6172C48.2967 48.6734 48.1303 48.6973 47.9641 48.6875Z" fill="#231F20"/>
<path d="M46.5814 45.0467C46.5999 44.748 46.4418 44.4951 46.2285 44.482C46.0151 44.4688 45.8272 44.7003 45.8088 44.999C45.7903 45.2978 45.9484 45.5506 46.1617 45.5637C46.3751 45.5769 46.563 45.3454 46.5814 45.0467Z" fill="#231F20"/>
<path d="M49.551 45.5718C49.7642 45.5569 49.9201 45.3027 49.8991 45.0041C49.8781 44.7056 49.6882 44.4757 49.475 44.4907C49.2617 44.5057 49.1059 44.7598 49.1269 45.0584C49.1478 45.357 49.3377 45.5868 49.551 45.5718Z" fill="#231F20"/>
<path d="M47.5547 50.0638C46.6602 50.0638 45.486 49.9262 44.7119 49.3025C44.6673 49.2663 44.6387 49.214 44.6322 49.1569C44.6258 49.0998 44.642 49.0424 44.6774 48.9972C44.695 48.9751 44.7168 48.9567 44.7415 48.9432C44.7663 48.9296 44.7935 48.9212 44.8216 48.9184C44.8497 48.9156 44.878 48.9185 44.905 48.9268C44.9319 48.9352 44.9569 48.9489 44.9785 48.9671C46.2043 49.952 48.7246 49.552 48.7504 49.5477C48.8074 49.5386 48.8657 49.5525 48.9125 49.5863C48.9593 49.6202 48.9907 49.6713 48.9998 49.7283C49.009 49.7853 48.9951 49.8437 48.9612 49.8905C48.9273 49.9372 48.8762 49.9686 48.8192 49.9778C48.4005 50.0382 47.9778 50.0669 47.5547 50.0638Z" fill="#231F20"/>
<path d="M50.4669 47.9134C50.0438 47.9147 49.6256 47.8233 49.2416 47.6455C48.8577 47.4677 48.5174 47.2079 48.2447 46.8843C47.9721 46.5608 47.7736 46.1815 47.6634 45.773C47.5532 45.3645 47.5339 44.9368 47.6068 44.52C47.7411 43.7651 48.1691 43.0941 48.797 42.6539C49.425 42.2138 50.2017 42.0404 50.9572 42.1717C51.6747 42.2903 52.3212 42.675 52.7677 43.2491C53.2141 43.8232 53.4277 44.5446 53.3659 45.2692C53.304 45.9938 52.9712 46.6685 52.4338 47.1586C51.8965 47.6488 51.1942 47.9183 50.4669 47.9134ZM48.0326 44.5974C47.9477 45.0774 48.0073 45.5718 48.2038 46.0178C48.4004 46.4638 48.725 46.8414 49.1364 47.1027C49.5479 47.3639 50.0277 47.4971 50.515 47.4852C51.0023 47.4734 51.475 47.317 51.8733 47.036C52.1389 46.8498 52.3651 46.613 52.5391 46.3392C52.7132 46.0654 52.8315 45.76 52.8874 45.4405C52.9434 45.1209 52.9357 44.7935 52.865 44.4769C52.7943 44.1603 52.6619 43.8607 52.4754 43.5953C52.195 43.1969 51.8028 42.8906 51.3484 42.715C50.894 42.5394 50.3977 42.5024 49.9223 42.6087C49.4469 42.715 49.0136 42.9599 48.6773 43.3123C48.3409 43.6647 48.1166 44.109 48.0326 44.5888V44.5974Z" fill="#231F20"/>
<path d="M44.8493 47.7068C44.6806 47.7075 44.5122 47.6931 44.3461 47.6638C43.961 47.6104 43.5907 47.4799 43.2572 47.2802C42.9237 47.0805 42.6338 46.8157 42.4048 46.5015C42.1759 46.1874 42.0126 45.8303 41.9247 45.4517C41.8367 45.073 41.8259 44.6805 41.893 44.2976C41.96 43.9147 42.1035 43.5492 42.3149 43.223C42.5262 42.8968 42.8012 42.6164 43.1232 42.3987C43.4453 42.1811 43.8079 42.0305 44.1894 41.956C44.5709 41.8815 44.9636 41.8846 45.3439 41.9652C45.9071 42.0642 46.4283 42.3279 46.8418 42.723C47.2553 43.118 47.5425 43.6267 47.6672 44.1848C47.7919 44.7429 47.7485 45.3254 47.5424 45.8589C47.3364 46.3923 46.9769 46.8528 46.5094 47.1821C46.0229 47.523 45.4433 47.7062 44.8493 47.7068ZM44.8493 42.3522C44.4001 42.3542 43.96 42.4789 43.5766 42.7129C43.1931 42.9468 42.8809 43.2811 42.6737 43.6797C42.4664 44.0782 42.3721 44.5258 42.4008 44.974C42.4294 45.4223 42.5801 45.8542 42.8364 46.223C43.0223 46.4892 43.259 46.7159 43.5329 46.8902C43.8068 47.0645 44.1125 47.1828 44.4323 47.2384C44.7522 47.2939 45.0798 47.2857 45.3965 47.214C45.7131 47.1423 46.0124 47.0087 46.2772 46.8209C46.5427 46.6346 46.769 46.3978 46.943 46.124C47.117 45.8502 47.2354 45.5448 47.2913 45.2253C47.3472 44.9058 47.3396 44.5783 47.2689 44.2617C47.1982 43.9451 47.0658 43.6456 46.8793 43.3802C46.653 43.0545 46.3505 42.789 45.9982 42.6069C45.6459 42.4247 45.2544 42.3314 44.8579 42.335L44.8493 42.3522Z" fill="#231F20"/>
<path d="M47.6542 52.3002C47.6542 52.3002 44.8285 52.9539 43.1641 52.0077C43.1641 52.0077 45.0048 55.814 47.6542 55.4183V52.3002Z" fill="#231F20"/>
<path d="M47.2584 55.6592C44.7209 55.6592 43.0435 52.2486 42.9575 52.0981C42.9357 52.0574 42.9285 52.0104 42.9371 51.965C42.9457 51.9196 42.9696 51.8786 43.0048 51.8487C43.0373 51.8169 43.0794 51.7967 43.1245 51.7913C43.1696 51.7858 43.2152 51.7954 43.2543 51.8185C44.8284 52.7174 47.5552 52.0981 47.5896 52.0938C47.6211 52.086 47.6539 52.0855 47.6857 52.0922C47.7174 52.0989 47.7472 52.1127 47.7729 52.1325C47.7985 52.1524 47.8193 52.1778 47.8338 52.2068C47.8482 52.2359 47.8559 52.2678 47.8562 52.3002V55.4141C47.8557 55.4655 47.8368 55.5151 47.8028 55.5537C47.7689 55.5924 47.7222 55.6176 47.6713 55.6248C47.5347 55.6462 47.3967 55.6577 47.2584 55.6592ZM43.6672 52.4637C44.2607 53.4357 45.6671 55.3496 47.4391 55.2206V52.5669C46.781 52.6873 45.0478 52.9325 43.6672 52.4637Z" fill="#231F20"/>
<path d="M32.2825 55.0184C29.9729 55.4485 20.6185 77.0561 23.8226 79.5334C28.8203 83.4042 46.2087 79.4904 46.2087 79.4904L44.7938 72.781C44.7938 72.781 33.6114 73.095 33.4523 70.7983C33.2932 68.5017 39.9553 57.8957 39.0822 56.2871C38.2091 54.6786 32.2825 55.0184 32.2825 55.0184Z" fill="#1EBCC3"/>
<path d="M37.732 81.7054C37.7037 81.708 37.6753 81.7049 37.6482 81.6965C37.6212 81.688 37.596 81.6743 37.5743 81.6561C37.5525 81.638 37.5345 81.6157 37.5214 81.5906C37.5082 81.5654 37.5001 81.538 37.4976 81.5097C37.495 81.4815 37.4981 81.453 37.5065 81.426C37.515 81.3989 37.5287 81.3738 37.5469 81.352C37.5651 81.3302 37.5873 81.3123 37.6124 81.2991C37.6376 81.286 37.665 81.2779 37.6933 81.2753L42.9533 80.3722L43.1167 74.2434L33.2246 73.2241C33.1936 73.2219 33.1635 73.2127 33.1367 73.197C33.1098 73.1814 33.0869 73.1597 33.0698 73.1338C33.0515 73.1079 33.0393 73.0782 33.0341 73.0469C33.0289 73.0156 33.0308 72.9836 33.0397 72.9531L37.4438 57.8527C37.4598 57.798 37.4969 57.7518 37.5469 57.7244C37.5969 57.6969 37.6557 57.6905 37.7105 57.7065C37.7646 57.7234 37.81 57.7606 37.8373 57.8103C37.8646 57.8601 37.8715 57.9184 37.8567 57.9731L33.5558 72.8284L43.3661 73.8391C43.4201 73.8445 43.4701 73.8701 43.506 73.9108C43.5418 73.9515 43.561 74.0042 43.5597 74.0585L43.3876 80.5614C43.3863 80.6115 43.3675 80.6595 43.3345 80.6972C43.3015 80.7348 43.2564 80.7598 43.207 80.7678L37.775 81.7054H37.732Z" fill="#231F20"/>
<path d="M43.5719 75.0218C45.4313 75.134 47.2975 75.0432 49.1372 74.7508C50.4957 74.421 51.8897 74.2606 53.2876 74.2734C55.1322 74.3625 56.9465 74.7775 58.6465 75.4992C58.7168 75.5217 58.7793 75.5634 58.8271 75.6196C58.9906 75.8475 58.5992 76.0497 58.3196 76.0798C57.58 76.0969 56.842 76.0027 56.1305 75.8002C57.8893 76.4528 59.5527 77.3381 61.0765 78.4324C61.2528 78.5571 61.4421 78.7506 61.3561 78.9485C61.27 79.1463 60.926 79.1076 60.6894 79.0044L56.6896 77.1765C57.726 77.5884 58.6868 78.1698 59.5325 78.8969C59.6529 79.0044 59.7819 79.142 59.7475 79.3012C59.6916 79.5678 59.2916 79.5162 59.0422 79.3958C57.8264 78.7901 56.6652 78.0807 55.5714 77.2754L58.0401 79.1635C58.0702 79.3657 57.8594 79.5377 57.653 79.5463C57.4489 79.5319 57.2525 79.462 57.0853 79.3442L54.3327 77.7528L56.0531 78.9571C56.324 79.1463 56.6294 79.4517 56.4831 79.7527C56.3369 80.0538 55.7993 79.9979 55.4423 79.8388C54.025 79.2233 52.5435 78.7675 51.0253 78.4797C50.4941 78.3048 49.9441 78.1936 49.3867 78.1485C48.5361 78.2545 47.6969 78.4373 46.8793 78.6947C45.6363 78.9743 44.3933 79.2624 43.1504 79.5549" fill="white"/>
<path d="M56.0617 80.1915C55.8238 80.1796 55.5903 80.1227 55.3735 80.0238C53.9705 79.4119 52.5033 78.959 50.9995 78.6733C50.8103 78.6389 50.6254 78.583 50.4404 78.5314C50.1083 78.4159 49.7598 78.3549 49.4082 78.3508C48.8341 78.3993 48.2671 78.5119 47.718 78.6862C47.4513 78.7593 47.189 78.8325 46.9352 78.8884C45.6922 79.1722 44.4493 79.4561 43.2063 79.7485C43.1557 79.7591 43.1029 79.7498 43.0589 79.7226C43.0149 79.6954 42.983 79.6523 42.9698 79.6023C42.9634 79.5772 42.9622 79.551 42.9661 79.5254C42.9701 79.4997 42.9791 79.4751 42.9928 79.4531C43.0064 79.431 43.0244 79.4119 43.0455 79.3969C43.0667 79.3819 43.0907 79.3713 43.116 79.3658C44.359 79.0733 45.6062 78.7894 46.8492 78.5056C47.0943 78.4497 47.3524 78.3809 47.6147 78.3077C48.193 78.1231 48.7903 78.0048 49.3953 77.9551C49.7871 77.9649 50.1753 78.0315 50.5479 78.1529C50.7243 78.2045 50.8963 78.2561 51.077 78.2905C52.6103 78.5795 54.1063 79.0397 55.537 79.6625C55.7426 79.7762 55.981 79.8157 56.2122 79.7744C56.2354 79.7672 56.2566 79.755 56.2745 79.7387C56.2923 79.7223 56.3063 79.7022 56.3154 79.6797C56.4058 79.4733 56.0488 79.2023 55.937 79.1206L54.2166 77.9207C54.1746 77.8911 54.1454 77.8466 54.135 77.7963C54.1246 77.7459 54.1338 77.6935 54.1607 77.6497C54.1889 77.6073 54.2323 77.5774 54.2819 77.5661C54.3316 77.5549 54.3837 77.5633 54.4274 77.5895L57.1799 79.1808C57.3151 79.2814 57.4763 79.3411 57.6444 79.3529C57.6774 79.3509 57.7097 79.3422 57.7392 79.3274C57.7688 79.3127 57.7951 79.292 57.8164 79.2668L55.4381 77.4476C55.414 77.4334 55.3932 77.4144 55.3771 77.3917C55.3609 77.3689 55.3497 77.3431 55.3443 77.3157C55.3388 77.2884 55.3392 77.2602 55.3454 77.233C55.3516 77.2058 55.3635 77.1802 55.3803 77.158C55.3971 77.1357 55.4184 77.1172 55.4428 77.1038C55.4672 77.0903 55.4942 77.0822 55.522 77.0799C55.5498 77.0776 55.5778 77.0812 55.6041 77.0904C55.6304 77.0997 55.6544 77.1144 55.6746 77.1336C56.7585 77.9329 57.9097 78.6366 59.1153 79.2367C59.2379 79.3063 59.382 79.3278 59.5196 79.297C59.5454 79.2539 59.5196 79.1937 59.3863 79.0647C58.8078 78.5625 58.1727 78.1295 57.4939 77.7744L56.5907 77.3444C56.5486 77.3202 56.5168 77.2815 56.5014 77.2355C56.486 77.1894 56.4881 77.1393 56.5072 77.0947C56.5263 77.0501 56.5611 77.0141 56.6051 76.9935C56.649 76.9729 56.699 76.9692 56.7455 76.9831C57.0595 77.1078 57.3649 77.2497 57.6659 77.4132L60.754 78.8282C60.8698 78.8901 61.0026 78.9127 61.1324 78.8927C61.184 78.8153 61.0937 78.6948 60.9475 78.5916C59.437 77.5076 57.788 76.631 56.0445 75.9853C55.9969 75.9678 55.958 75.9323 55.9363 75.8864C55.9146 75.8406 55.9117 75.788 55.9284 75.7401C55.9442 75.6918 55.9781 75.6514 56.0229 75.6274C56.0678 75.6033 56.1202 75.5975 56.1692 75.6111C56.8593 75.8102 57.5759 75.9016 58.2938 75.882C58.3612 75.8819 58.4277 75.8677 58.4892 75.8403C58.5507 75.8129 58.6057 75.7729 58.6508 75.7229L58.5519 75.6799C56.8744 74.9652 55.0831 74.5546 53.2618 74.4671C52.0507 74.4467 50.8417 74.5752 49.662 74.8498L49.1545 74.9445C47.306 75.2368 45.4315 75.3291 43.5633 75.2197C43.5373 75.2186 43.5118 75.2124 43.4882 75.2014C43.4646 75.1904 43.4435 75.1749 43.4259 75.1557C43.4083 75.1366 43.3947 75.1141 43.3858 75.0897C43.3769 75.0652 43.3729 75.0393 43.3741 75.0133C43.374 74.9873 43.3793 74.9616 43.3896 74.9377C43.3999 74.9139 43.415 74.8924 43.434 74.8747C43.4529 74.8569 43.4754 74.8433 43.4998 74.8346C43.5243 74.8258 43.5503 74.8223 43.5762 74.824C45.4198 74.9334 47.2698 74.844 49.0942 74.5574L49.6018 74.4628C50.811 74.1812 52.0506 74.0511 53.2919 74.0757C55.1603 74.1665 56.9979 74.5873 58.7196 75.3186C58.8231 75.3538 58.9141 75.418 58.982 75.5036C59.0238 75.5599 59.0492 75.6267 59.0553 75.6965C59.0613 75.7664 59.0479 75.8366 59.0164 75.8993C58.9387 76.0128 58.8348 76.1061 58.7136 76.1712C58.5923 76.2363 58.4572 76.2713 58.3196 76.2734C58.1304 76.2734 57.9412 76.2734 57.7562 76.2734C58.9634 76.8322 60.1154 77.5033 61.1969 78.2776C61.5238 78.5099 61.6485 78.7851 61.541 79.0303C61.5179 79.0848 61.4839 79.1339 61.441 79.1746C61.398 79.2153 61.3472 79.2467 61.2916 79.2668C61.0632 79.3246 60.8216 79.2971 60.612 79.1894L59.6529 78.7593C59.7467 78.8248 59.8218 78.9136 59.8708 79.0169C59.9199 79.1202 59.9411 79.2345 59.9325 79.3486C59.9188 79.4124 59.8908 79.4723 59.8506 79.5237C59.8104 79.5752 59.7589 79.6167 59.7002 79.6453C59.5771 79.6878 59.4463 79.7036 59.3165 79.6917C59.1868 79.6799 59.061 79.6406 58.9476 79.5765C58.7067 79.4604 58.4702 79.3357 58.2293 79.2066C58.2308 79.3234 58.1895 79.4366 58.1132 79.5249C58.056 79.5918 57.9856 79.6462 57.9064 79.6846C57.8272 79.7231 57.741 79.7449 57.653 79.7485C57.4112 79.7401 57.1768 79.6625 56.9778 79.5249L56.6466 79.3314C56.6847 79.4105 56.7045 79.4973 56.7045 79.5851C56.7045 79.673 56.6847 79.7597 56.6466 79.8389C56.6172 79.9088 56.5739 79.972 56.5191 80.0245C56.4644 80.0771 56.3995 80.1178 56.3283 80.1442C56.2427 80.1746 56.1526 80.1906 56.0617 80.1915Z" fill="#231F20"/>
<path d="M51 58.73C51 58.73 53.0472 67.078 54.8708 73.0175L51 58.73Z" fill="white"/>
<path d="M54.8883 73.2113C54.8468 73.2112 54.8064 73.1978 54.7731 73.173C54.7398 73.1482 54.7154 73.1134 54.7034 73.0736C52.8798 67.2029 50.8326 58.8807 50.8068 58.7775C50.8004 58.7521 50.7991 58.7256 50.803 58.6997C50.8069 58.6738 50.8159 58.6489 50.8295 58.6265C50.8431 58.6041 50.861 58.5846 50.8822 58.5692C50.9034 58.5537 50.9275 58.5427 50.953 58.5366C51.0037 58.525 51.057 58.5338 51.1013 58.5612C51.1456 58.5885 51.1773 58.6323 51.1896 58.6829C51.2111 58.7646 53.2583 67.0954 55.0604 72.9575C55.0752 73.0071 55.07 73.0606 55.0459 73.1064C55.0218 73.1523 54.9806 73.1868 54.9313 73.2027C54.9175 73.2077 54.903 73.2106 54.8883 73.2113Z" fill="#231F20"/>
<path d="M75.5537 83.0903L75.4462 84.2602L49.1377 88.1052L49.4 86.8794L75.5537 83.0903Z" fill="white"/>
<path d="M49.138 88.3202C49.1082 88.3199 49.0788 88.3137 49.0515 88.3019C49.0242 88.2901 48.9995 88.2729 48.9789 88.2514C48.9552 88.2266 48.9382 88.1964 48.9292 88.1633C48.9201 88.1303 48.9195 88.0955 48.9273 88.0622L49.1896 86.8321C49.2005 86.7898 49.2233 86.7515 49.2553 86.7217C49.2873 86.692 49.3272 86.6721 49.3702 86.6644L75.5239 82.8796C75.5556 82.8755 75.5878 82.8784 75.6183 82.8881C75.6488 82.8977 75.6767 82.9139 75.7003 82.9355C75.7237 82.9583 75.742 82.9858 75.7539 83.0162C75.7657 83.0466 75.7709 83.0793 75.7691 83.1119L75.6616 84.2774C75.6574 84.3252 75.6373 84.3702 75.6046 84.4053C75.5718 84.4403 75.5283 84.4634 75.4809 84.4709L49.1681 88.3417L49.138 88.3202ZM49.5681 87.0687L49.4004 87.8471L75.2358 84.071L75.3003 83.3441L49.5681 87.0687Z" fill="#231F20"/>
<path d="M75.5541 83.0904C75.5541 83.0904 69.563 77.9551 69.3651 78.0024C69.1673 78.0497 42.2695 81.2754 42.2695 81.2754L49.4133 86.8665L75.5541 83.0904Z" fill="white"/>
<path d="M49.4005 87.0944C49.3532 87.0946 49.3074 87.0778 49.2714 87.0471L42.1234 81.4559C42.0898 81.4297 42.0649 81.394 42.0517 81.3535C42.0384 81.3131 42.0375 81.2696 42.049 81.2286C42.0605 81.1876 42.084 81.1509 42.1163 81.1232C42.1487 81.0956 42.1886 81.0781 42.2309 81.0732C42.4975 81.0431 68.8964 77.8776 69.3265 77.8045C69.4469 77.7787 69.6232 77.7314 75.6961 82.9397C75.7275 82.9667 75.7506 83.002 75.7628 83.0416C75.775 83.0812 75.7757 83.1234 75.7649 83.1634C75.7527 83.203 75.7298 83.2385 75.6987 83.2658C75.6675 83.2931 75.6294 83.3113 75.5886 83.3182L49.4392 87.103L49.4005 87.0944ZM42.7986 81.4258L49.4607 86.6514L75.0552 82.9483C72.9048 81.1205 69.7996 78.4969 69.3351 78.2174C67.933 78.4152 48.0973 80.7893 42.7986 81.4258Z" fill="#231F20"/>
<path d="M49.1374 88.1051L42.1484 82.4408L42.256 81.2753L49.3997 86.8793L49.1374 88.1051Z" fill="white"/>
<path d="M49.1369 88.3203C49.087 88.3203 49.0386 88.3036 48.9993 88.273L42.0146 82.6087C41.9875 82.5864 41.9659 82.5581 41.9517 82.526C41.9375 82.4939 41.9311 82.4588 41.9329 82.4237L42.0405 81.2539C42.045 81.2157 42.0594 81.1794 42.0824 81.1486C42.1053 81.1178 42.136 81.0935 42.1713 81.0783C42.2066 81.063 42.2452 81.0573 42.2834 81.0617C42.3216 81.0661 42.3579 81.0805 42.3888 81.1034L49.5326 86.6945C49.564 86.7198 49.5879 86.7532 49.6015 86.7912C49.6152 86.8291 49.6181 86.8701 49.61 86.9096L49.3477 88.1396C49.3392 88.1754 49.3217 88.2084 49.2969 88.2356C49.272 88.2627 49.2407 88.2829 49.2057 88.2945C49.1847 88.3074 49.1613 88.3161 49.1369 88.3203ZM42.3716 82.3463L48.9993 87.7052L49.1627 86.9526L42.4318 81.684L42.3716 82.3463Z" fill="#231F20"/>
<path d="M75.5541 83.0902L80.6076 66.149L52.8755 70.8757L49.4004 86.8793L75.5541 83.0902Z" fill="white"/>
<path d="M49.3998 87.0945C49.3707 87.0941 49.342 87.0878 49.3154 87.076C49.2887 87.0642 49.2648 87.0471 49.245 87.0257C49.2215 86.9999 49.2042 86.969 49.1945 86.9354C49.1848 86.9019 49.183 86.8665 49.1891 86.8322L52.6642 70.8329C52.6724 70.7907 52.6932 70.752 52.724 70.7221C52.7547 70.6921 52.7939 70.6722 52.8362 70.6651L80.5727 65.9341C80.6086 65.9272 80.6457 65.9297 80.6803 65.9414C80.715 65.9532 80.746 65.9737 80.7703 66.001C80.7946 66.0284 80.8113 66.0616 80.8189 66.0973C80.8265 66.1331 80.8246 66.1703 80.8135 66.2051L75.76 83.1506C75.7467 83.1892 75.7234 83.2235 75.6924 83.25C75.6614 83.2764 75.6238 83.2941 75.5836 83.3011L49.4342 87.0859L49.3998 87.0945ZM53.0556 71.0651L49.6794 86.6214L75.3858 82.8968L80.3017 66.4201L53.0556 71.0651Z" fill="#231F20"/>
<path d="M90.4218 57.6592C90.3695 57.6594 90.3189 57.6402 90.2799 57.6052C90.241 57.5702 90.2164 57.522 90.2111 57.4699C90.0648 56.0463 91.1272 54.2959 91.1745 54.2227C91.1891 54.1983 91.2083 54.1771 91.2312 54.1602C91.254 54.1433 91.28 54.1311 91.3076 54.1243C91.3352 54.1175 91.3639 54.1162 91.392 54.1206C91.42 54.1249 91.447 54.1348 91.4712 54.1496C91.5189 54.1805 91.5527 54.2288 91.5656 54.2841C91.5784 54.3395 91.5693 54.3976 91.54 54.4464C91.54 54.4464 90.5078 56.1667 90.6369 57.4226C90.6398 57.4509 90.6372 57.4794 90.629 57.5067C90.6209 57.5339 90.6074 57.5592 90.5894 57.5812C90.5714 57.6032 90.5492 57.6215 90.5242 57.6348C90.4991 57.6482 90.4716 57.6565 90.4433 57.6592H90.4218Z" fill="#231F20"/>
<path d="M108.008 80.2775C107.967 80.2767 107.927 80.2648 107.892 80.2431L103.088 77.1551C103.039 77.1243 103.005 77.0755 102.992 77.0194C102.98 76.9634 102.99 76.9046 103.021 76.8562C103.052 76.8077 103.101 76.7734 103.157 76.7609C103.213 76.7484 103.272 76.7587 103.32 76.7895L108.124 79.8775C108.172 79.9092 108.206 79.9585 108.218 80.0149C108.23 80.0712 108.22 80.13 108.189 80.1786C108.168 80.2081 108.141 80.2324 108.11 80.2496C108.079 80.2668 108.044 80.2764 108.008 80.2775Z" fill="#D1D3D4"/>
<path d="M109.746 79.5033C109.705 79.5045 109.665 79.494 109.63 79.4732L105.066 76.5228C105.018 76.4914 104.985 76.4423 104.973 76.3862C104.962 76.3302 104.973 76.2718 105.004 76.2239C105.035 76.1759 105.085 76.1425 105.141 76.1308C105.197 76.1191 105.255 76.1301 105.303 76.1615L109.862 79.0904C109.91 79.1221 109.944 79.1714 109.956 79.2277C109.968 79.284 109.957 79.3429 109.926 79.3915C109.908 79.4236 109.882 79.4507 109.85 79.4702C109.819 79.4897 109.783 79.5011 109.746 79.5033Z" fill="#D1D3D4"/>
<path d="M111.418 78.9314C111.377 78.93 111.337 78.9181 111.302 78.8969L106.687 75.9379C106.64 75.9066 106.606 75.8574 106.594 75.8014C106.583 75.7453 106.594 75.6869 106.625 75.639C106.656 75.5911 106.706 75.5576 106.762 75.5459C106.818 75.5342 106.876 75.5453 106.924 75.5767L111.522 78.5357C111.57 78.5665 111.603 78.6151 111.615 78.6707C111.627 78.7263 111.617 78.7845 111.586 78.8324C111.569 78.8614 111.544 78.8857 111.515 78.9029C111.485 78.9202 111.452 78.9299 111.418 78.9314Z" fill="#D1D3D4"/>
<path d="M113.522 78.3637C113.484 78.3644 113.447 78.354 113.415 78.3336L108.464 75.4176C108.437 75.4052 108.412 75.3872 108.392 75.3647C108.372 75.3423 108.357 75.3159 108.348 75.2872C108.339 75.2585 108.336 75.2283 108.339 75.1984C108.342 75.1685 108.352 75.1396 108.367 75.1136C108.382 75.0875 108.403 75.065 108.427 75.0474C108.451 75.0297 108.479 75.0174 108.509 75.0112C108.538 75.005 108.568 75.0051 108.598 75.0113C108.627 75.0176 108.655 75.03 108.679 75.0477L113.63 77.9637C113.67 77.9877 113.702 78.0242 113.719 78.0676C113.737 78.1111 113.74 78.1592 113.728 78.2045C113.716 78.2498 113.689 78.2899 113.652 78.3187C113.615 78.3474 113.569 78.3632 113.522 78.3637Z" fill="#D1D3D4"/>
<path d="M115.023 77.8517C114.983 77.8525 114.945 77.8421 114.911 77.8216L109.961 74.9056C109.912 74.8754 109.877 74.8275 109.864 74.772C109.85 74.7166 109.859 74.6581 109.887 74.6088C109.901 74.5841 109.92 74.5625 109.942 74.5453C109.965 74.5281 109.99 74.5157 110.018 74.5088C110.045 74.502 110.074 74.5008 110.102 74.5055C110.13 74.5101 110.156 74.5204 110.18 74.5357L115.13 77.4517C115.171 77.4757 115.202 77.5122 115.22 77.5556C115.237 77.5991 115.24 77.6472 115.228 77.6925C115.216 77.7378 115.189 77.7779 115.152 77.8067C115.115 77.8354 115.07 77.8512 115.023 77.8517Z" fill="#D1D3D4"/>
</svg>
