<svg width="200" height="186" viewBox="0 0 200 186" fill="none" xmlns="http://www.w3.org/2000/svg">
<rect x="0.4823" y="0.045105" width="199.255" height="185.324" fill="#1EBCC3"/>
<path d="M179.979 125.407H20.2406C20.1721 125.407 20.1065 125.38 20.058 125.331C20.0096 125.283 19.9824 125.217 19.9824 125.149C19.9837 125.081 20.0113 125.016 20.0595 124.968C20.1076 124.92 20.1725 124.892 20.2406 124.891H179.979C180.047 124.892 180.112 124.92 180.16 124.968C180.208 125.016 180.236 125.081 180.237 125.149C180.237 125.217 180.21 125.283 180.161 125.331C180.113 125.38 180.047 125.407 179.979 125.407Z" fill="#D1D3D4"/>
<path d="M32.9353 69.7802C25.2247 75.394 24.1918 87.0968 23.9955 95.8868C23.7993 104.15 25.643 112.041 27.3679 120.103C29.0516 127.989 35.4504 132.291 43.0887 134.047C54.4506 136.676 66.8454 136.981 78.3777 135.71C89.91 134.44 90.2096 123.078 89.0527 113.777C88.7325 111.194 86.9198 109.598 84.9625 108.204C82.5407 106.587 80.4279 104.549 78.7237 102.187C73.2545 94.2703 72.9395 84.8605 69.2934 76.2462C66.4116 69.4238 59.9973 64.6725 52.5552 64.9101C45.1132 65.1476 38.0636 66.0514 32.9353 69.7802Z" fill="white"/>
<path d="M65.2801 136.712C57.7973 136.754 50.3338 135.95 43.0314 134.316C31.8193 131.734 28.1886 125.18 27.1144 120.155L26.7529 118.461C25.1054 110.817 23.5509 103.603 23.7368 95.8817C24.1655 78.0797 28.798 72.471 32.785 69.5686C38.2129 65.6229 45.8202 64.8689 52.5496 64.652C59.8109 64.4299 66.4937 68.9282 69.5305 76.143C70.8651 79.5031 71.9559 82.9551 72.7944 86.472C74.1888 91.7656 75.6349 97.2348 78.9402 102.048C80.4017 104.176 82.2455 105.958 85.1376 108.003C87.1208 109.413 89.0006 111.102 89.3312 113.751C90.3951 122.267 89.5223 128.165 86.6611 131.785C84.7812 134.166 82.0131 135.576 78.4289 135.974C74.0627 136.459 69.6732 136.706 65.2801 136.712ZM33.0898 69.9973C25.6839 75.3838 24.4754 86.6734 24.2533 95.9024C24.0725 103.561 25.6167 110.75 27.2539 118.363L27.6205 120.057C28.6534 124.937 32.2015 131.279 43.1502 133.82C53.7478 136.278 65.9205 136.852 78.3463 135.478C81.7858 135.101 84.4404 133.753 86.2325 131.486C89.0006 127.979 89.8476 122.19 88.8147 113.834C88.5048 111.37 86.7179 109.785 84.8329 108.442C81.9149 106.376 80.0299 104.543 78.5322 102.363C75.1753 97.4776 73.724 91.9567 72.3348 86.6218C71.4988 83.1268 70.4149 79.6958 69.0915 76.3548C66.1271 69.3362 59.6508 64.936 52.6012 65.1788C45.9545 65.3957 38.4402 66.1342 33.1259 69.9973H33.0898Z" fill="#231F20"/>
<path d="M53.1797 113.42C51.7992 113.419 50.4199 113.342 49.0481 113.188C46.4161 112.889 43.8208 112.327 41.3013 111.509C37.8721 110.399 35.5687 109.129 33.8386 107.404C31.2099 104.775 30.2235 101.206 29.8258 98.7118C28.9478 92.9069 29.8258 86.4926 30.461 83.1873C30.8757 80.9213 31.7813 78.7734 33.1142 76.8945C34.4471 75.0156 36.1751 73.4511 38.1768 72.3109C40.9553 70.6944 44.2709 69.6512 48.3044 69.1244C52.5393 68.5718 55.5863 69.0263 57.8949 70.5498C61.6649 73.0391 62.7392 77.8266 63.5138 82.516L64.8308 90.4745C65.151 92.4525 65.5951 95.1587 67.1496 96.4343C67.698 96.8493 68.2882 97.2059 68.9107 97.4982C70.0004 98.0456 71.1211 98.6189 71.7564 99.8635C72.5362 101.413 72.8667 103.995 72.0662 105.694C71.1779 107.564 69.3652 108.793 68.0844 109.552C63.5543 112.158 58.4053 113.494 53.1797 113.42ZM51.5632 69.4136C50.5129 69.4215 49.4641 69.4957 48.4232 69.6357C44.4568 70.1521 41.1929 71.185 38.4918 72.7344C36.5533 73.8362 34.88 75.3497 33.5897 77.1682C32.2994 78.9867 31.4236 81.066 31.024 83.2596C30.3887 86.5546 29.5108 92.9018 30.3887 98.6344C30.7554 101.072 31.7263 104.506 34.2569 107.037C35.9251 108.705 38.1613 109.934 41.4872 111.019C43.9638 111.827 46.5162 112.381 49.1049 112.671C56.1028 113.462 62.5842 112.227 67.8468 109.108C69.0708 108.38 70.7958 107.213 71.6221 105.493C72.3554 103.943 72.0456 101.547 71.3226 100.117C70.7648 99.0217 69.7732 98.5156 68.7042 97.9785C68.0483 97.6715 67.4268 97.2958 66.8501 96.8578C65.1406 95.4582 64.681 92.6332 64.3453 90.5777L63.0284 82.6193C62.2743 78.0435 61.2311 73.3748 57.6366 71.0043C56.0615 69.9301 54.0783 69.4136 51.5632 69.4136Z" fill="#D1D3D4"/>
<path d="M34.1639 105.348C34.1122 105.348 34.0616 105.333 34.0185 105.305C33.9753 105.276 33.9415 105.236 33.9212 105.188C33.9086 105.157 33.9024 105.123 33.9028 105.089C33.9033 105.055 33.9104 105.021 33.9239 104.99C33.9373 104.959 33.9567 104.931 33.9811 104.907C34.0055 104.883 34.0342 104.865 34.0658 104.852C37.3814 103.479 39.5918 103.819 39.6848 103.819C39.7187 103.825 39.7512 103.836 39.7806 103.854C39.81 103.872 39.8356 103.895 39.856 103.922C39.8764 103.95 39.8911 103.981 39.8994 104.015C39.9077 104.048 39.9093 104.082 39.9043 104.116C39.8992 104.15 39.8875 104.183 39.8698 104.212C39.8521 104.242 39.8288 104.267 39.8012 104.288C39.7737 104.308 39.7423 104.323 39.7091 104.331C39.6758 104.339 39.6412 104.341 39.6073 104.336C39.6073 104.336 37.433 104.026 34.262 105.338C34.2305 105.349 34.197 105.352 34.1639 105.348Z" fill="#D1D3D4"/>
<path d="M167.285 69.7802C175.005 75.394 176.013 87.0968 176.224 95.8868C176.421 104.15 174.577 112.041 172.852 120.103C171.168 127.989 164.769 132.291 157.131 134.047C145.769 136.676 133.374 136.981 121.842 135.71C110.31 134.44 110.01 123.078 111.167 113.777C111.487 111.194 113.3 109.598 115.257 108.204C117.679 106.587 119.792 104.549 121.496 102.187C126.965 94.2703 127.28 84.8605 130.926 76.2462C133.808 69.4238 140.223 64.6725 147.665 64.9101C155.107 65.1476 162.156 66.0514 167.285 69.7802Z" fill="white"/>
<path d="M134.939 136.712C130.549 136.709 126.163 136.466 121.8 135.984C118.216 135.586 115.448 134.176 113.568 131.796C110.707 128.18 109.834 122.277 110.898 113.761C111.229 111.096 113.109 109.423 115.092 108.013C117.958 105.947 119.802 104.186 121.289 102.058C124.594 97.2451 126.04 91.7759 127.435 86.4823C128.273 82.9654 129.364 79.5134 130.699 76.1533C133.751 68.923 140.434 64.4454 147.68 64.6623C154.394 64.8792 162.016 65.6332 167.444 69.5789C175.036 75.0997 176.265 86.5391 176.492 95.9178C176.678 103.639 175.124 110.854 173.476 118.497L173.115 120.191C172.041 125.216 168.41 131.749 157.198 134.352C149.891 135.975 142.424 136.766 134.939 136.712ZM147.106 65.1581C140.263 65.1581 134.035 69.5014 131.143 76.3444C129.82 79.6854 128.736 83.1164 127.9 86.6114C126.495 91.9463 125.044 97.4568 121.702 102.353C120.205 104.532 118.32 106.35 115.402 108.431C113.517 109.774 111.73 111.36 111.42 113.823C110.387 122.195 111.213 127.969 114.002 131.475C115.794 133.743 118.449 135.091 121.888 135.468C134.314 136.841 146.487 136.268 157.084 133.81C168.033 131.269 171.545 124.927 172.614 120.046L172.981 118.352C174.618 110.74 176.162 103.551 175.981 95.892C175.558 78.3327 171.039 72.817 167.145 69.9869C161.83 66.1238 154.316 65.3853 147.669 65.1684L147.106 65.1581Z" fill="#231F20"/>
<path d="M147.039 113.42C141.8 113.502 136.636 112.165 132.093 109.552C130.812 108.793 128.995 107.564 128.111 105.694C127.311 104 127.642 101.403 128.421 99.8635C129.057 98.6189 130.177 98.0456 131.267 97.4982C131.889 97.2059 132.48 96.8493 133.028 96.4343C134.577 95.1587 135.027 92.4525 135.347 90.4744L136.664 82.516C137.439 77.8266 138.513 73.0391 142.283 70.5498C144.591 69.0263 147.638 68.5718 151.873 69.1244C155.907 69.6409 159.222 70.6738 162.001 72.3109C164.003 73.4511 165.731 75.0156 167.064 76.8945C168.396 78.7734 169.302 80.9213 169.717 83.1873C170.331 86.4926 171.23 92.9069 170.352 98.7118C169.975 101.227 168.968 104.775 166.339 107.404C164.609 109.129 162.306 110.399 158.876 111.509C156.357 112.327 153.762 112.889 151.13 113.188C149.772 113.34 148.406 113.418 147.039 113.42ZM148.656 69.4136C146.13 69.4136 144.147 69.9301 142.557 70.963C138.941 73.3335 137.909 78.0022 137.165 82.5779L135.848 90.5364C135.512 92.6022 135.053 95.4169 133.343 96.8165C132.766 97.2545 132.145 97.6302 131.489 97.9372C130.456 98.4536 129.423 98.9701 128.871 100.075C128.148 101.506 127.838 103.902 128.571 105.451C129.397 107.192 131.122 108.359 132.346 109.067C137.609 112.165 144.085 113.42 151.088 112.63C153.677 112.339 156.229 111.785 158.706 110.978C162.058 109.893 164.294 108.664 165.936 106.996C168.467 104.465 169.438 101.031 169.804 98.593C170.672 92.8604 169.804 86.5133 169.169 83.2441C168.77 81.0505 167.894 78.9712 166.604 77.1527C165.313 75.3342 163.64 73.8207 161.701 72.7189C158.985 71.1386 155.736 70.1366 151.77 69.6202C150.737 69.4863 149.697 69.4173 148.656 69.4136Z" fill="#D1D3D4"/>
<path d="M166.055 105.348C166.023 105.355 165.989 105.355 165.957 105.348C162.786 104.036 160.637 104.346 160.611 104.346C160.578 104.351 160.543 104.35 160.51 104.341C160.476 104.333 160.445 104.318 160.418 104.298C160.39 104.278 160.367 104.252 160.349 104.223C160.331 104.193 160.32 104.161 160.315 104.127C160.309 104.093 160.311 104.058 160.319 104.025C160.328 103.992 160.342 103.96 160.363 103.933C160.383 103.905 160.409 103.882 160.438 103.864C160.468 103.847 160.5 103.835 160.534 103.83C160.627 103.83 162.837 103.494 166.153 104.863C166.185 104.875 166.213 104.894 166.238 104.917C166.262 104.941 166.281 104.969 166.295 105C166.308 105.032 166.315 105.065 166.316 105.099C166.316 105.133 166.31 105.167 166.298 105.198C166.276 105.244 166.241 105.282 166.198 105.309C166.155 105.335 166.105 105.349 166.055 105.348Z" fill="#D1D3D4"/>
<path d="M128.406 75.2237L112.396 66.444C112.396 66.444 111.472 63.7998 110.48 62.989C109.489 62.1781 110.103 65.0548 110.103 65.0548C110.103 65.0548 104.629 61.5584 104.066 62.5035C103.503 63.4486 102.568 67.3013 104.438 68.7939C106.085 70.1005 109.153 70.431 109.153 70.431C117.705 77.3256 129.775 84.9432 129.775 84.9432" fill="white"/>
<path d="M129.774 85.191C129.727 85.1899 129.68 85.1756 129.64 85.1497C129.516 85.0723 117.509 77.4804 109.044 70.6891C108.528 70.6272 105.837 70.245 104.277 69.0055C102.32 67.4562 103.188 63.4692 103.843 62.3794C103.884 62.3117 103.939 62.2533 104.004 62.2079C104.069 62.1625 104.143 62.1313 104.22 62.1161C105.253 61.8682 108.45 63.7429 109.741 64.533C109.622 63.7842 109.571 62.9062 109.948 62.6738C110.087 62.5912 110.315 62.5447 110.64 62.8081C111.585 63.5673 112.411 65.7725 112.592 66.2632L128.53 75.0428C128.59 75.0757 128.635 75.1311 128.654 75.197C128.673 75.2629 128.666 75.3337 128.633 75.394C128.6 75.4543 128.545 75.499 128.479 75.5184C128.413 75.5377 128.342 75.5302 128.282 75.4973L112.272 66.7176C112.243 66.7039 112.218 66.6844 112.198 66.6604C112.177 66.6364 112.162 66.6084 112.153 66.5782C112.153 66.5782 111.26 63.9959 110.33 63.2626L110.227 63.1903C110.157 63.817 110.206 64.4513 110.371 65.0598C110.383 65.1098 110.38 65.1622 110.362 65.2102C110.343 65.2582 110.31 65.2994 110.268 65.3284C110.225 65.356 110.175 65.3706 110.123 65.3706C110.072 65.3706 110.022 65.356 109.979 65.3284C108.218 64.2025 105.124 62.4827 104.355 62.6687C104.324 62.6687 104.303 62.6687 104.303 62.6687C103.725 63.6293 102.919 67.2754 104.613 68.6233C106.162 69.8731 109.163 70.2088 109.194 70.2088C109.243 70.2155 109.289 70.2351 109.328 70.2656C117.772 77.0724 129.81 84.6849 129.929 84.7572C129.987 84.7944 130.027 84.8523 130.043 84.9187C130.058 84.9852 130.047 85.055 130.012 85.1136C129.982 85.1448 129.944 85.1681 129.903 85.1816C129.861 85.1951 129.817 85.1984 129.774 85.191Z" fill="#231F20"/>
<path d="M124.439 124.953C124.439 124.953 125.601 138.215 125.126 139.072C124.651 139.93 113.274 141.655 113.067 140.441C112.861 139.227 118.634 136.826 118.634 136.826L117.364 125.98" fill="white"/>
<path d="M114.782 141.107C114.409 141.115 114.035 141.091 113.666 141.035C113.331 140.978 112.876 140.859 112.809 140.487C112.597 139.222 116.786 137.342 118.356 136.686L117.106 126.037C117.102 126.003 117.104 125.969 117.114 125.936C117.123 125.903 117.138 125.872 117.16 125.845C117.181 125.819 117.207 125.796 117.237 125.779C117.266 125.763 117.299 125.752 117.333 125.748C117.367 125.744 117.401 125.747 117.434 125.756C117.467 125.765 117.498 125.781 117.525 125.802C117.552 125.823 117.574 125.849 117.591 125.879C117.607 125.909 117.618 125.941 117.622 125.975L118.893 136.821C118.899 136.877 118.887 136.933 118.858 136.982C118.829 137.03 118.785 137.068 118.733 137.089C116.047 138.194 113.212 139.775 113.32 140.4C113.32 140.4 113.47 140.565 114.575 140.596C117.891 140.704 124.476 139.449 124.904 138.938C125.214 138.287 124.625 130.029 124.181 124.994C124.178 124.96 124.182 124.926 124.192 124.893C124.202 124.861 124.219 124.831 124.24 124.805C124.262 124.778 124.289 124.757 124.319 124.741C124.349 124.725 124.382 124.716 124.416 124.712C124.45 124.709 124.484 124.713 124.517 124.723C124.549 124.733 124.579 124.75 124.606 124.772C124.632 124.793 124.653 124.82 124.669 124.85C124.685 124.881 124.695 124.914 124.698 124.947C124.894 127.173 125.844 138.334 125.354 139.212C124.863 140.09 117.968 141.107 114.782 141.107Z" fill="#231F20"/>
<path d="M141.266 128.433C141.266 128.433 142.861 140.152 142.035 140.487C141.209 140.823 129.976 141.355 130.157 140.369C130.338 139.382 135.879 137.502 135.879 137.502L133.875 126.078" fill="white"/>
<path d="M134.598 141.205C132.414 141.205 130.503 141.076 130.059 140.72C129.999 140.675 129.952 140.615 129.924 140.546C129.896 140.477 129.887 140.401 129.899 140.327C130.074 139.294 134.03 137.859 135.58 137.332L133.607 126.12C133.596 126.053 133.613 125.984 133.652 125.929C133.692 125.874 133.752 125.837 133.819 125.825C133.852 125.819 133.886 125.819 133.919 125.826C133.953 125.833 133.984 125.846 134.012 125.865C134.04 125.885 134.064 125.909 134.082 125.938C134.1 125.967 134.113 125.999 134.118 126.032L136.127 137.456C136.138 137.518 136.126 137.582 136.094 137.636C136.062 137.69 136.011 137.73 135.951 137.75C133.457 138.592 130.72 139.816 130.425 140.333C130.735 140.508 132.212 140.73 136.106 140.642C138.041 140.635 139.973 140.502 141.891 140.245C142.247 139.594 141.72 133.779 140.992 128.454C140.983 128.386 141.001 128.317 141.043 128.262C141.084 128.207 141.146 128.17 141.214 128.16C141.248 128.155 141.282 128.157 141.315 128.165C141.348 128.174 141.379 128.189 141.406 128.209C141.433 128.23 141.456 128.256 141.472 128.286C141.489 128.315 141.5 128.348 141.503 128.382C142.247 133.82 142.955 140.369 142.118 140.71C141.632 140.932 137.811 141.205 134.598 141.205Z" fill="#231F20"/>
<path d="M128.891 104.94C128.618 105.88 126.221 130.504 126.221 130.504H116.559C116.559 130.504 112.112 105.777 113.574 99.6724C114.575 95.4685 119.141 93.413 123.789 94.7765C130.704 94.5028 137.811 93.6196 137.811 93.6196L128.891 104.94Z" fill="#231F20"/>
<path d="M126.221 130.763H116.559C116.498 130.764 116.439 130.743 116.393 130.704C116.346 130.665 116.315 130.611 116.305 130.551C116.125 129.518 111.864 105.699 113.32 99.6104C113.54 98.6896 113.946 97.8235 114.514 97.0658C115.082 96.3081 115.799 95.6749 116.62 95.2051C117.713 94.6146 118.914 94.2491 120.15 94.1302C121.387 94.0114 122.634 94.1416 123.82 94.5131C130.632 94.2445 137.707 93.3717 137.764 93.3665C137.815 93.3592 137.867 93.3676 137.913 93.3907C137.959 93.4137 137.997 93.4504 138.022 93.4957C138.047 93.5401 138.058 93.591 138.053 93.6417C138.048 93.6923 138.029 93.7404 137.996 93.7797L129.113 105.054C128.855 106.288 127.12 123.791 126.464 130.53C126.458 130.592 126.43 130.649 126.386 130.691C126.341 130.734 126.283 130.759 126.221 130.763ZM116.775 130.246H125.989C126.247 127.581 128.38 105.782 128.643 104.868C128.654 104.836 128.669 104.806 128.69 104.78L137.222 93.9346C135.337 94.1516 129.475 94.7971 123.794 95.0192H123.711C122.588 94.6594 121.403 94.5297 120.228 94.638C119.053 94.7463 117.912 95.0902 116.874 95.6493C116.11 96.079 115.443 96.6633 114.918 97.3649C114.392 98.0665 114.019 98.87 113.821 99.724C112.463 105.415 116.347 127.84 116.775 130.246Z" fill="#231F20"/>
<path d="M158.722 97.0591C158.722 97.0591 161.764 102.11 157.064 107.796C152.365 113.482 138.988 107.502 138.988 107.502L142.33 129.75L132.517 129.652C132.517 129.652 122.292 99.3625 123.469 96.2276C124.647 93.0928 133.024 91.6467 133.024 91.6467L158.722 97.0591Z" fill="#231F20"/>
<path d="M142.314 130.009L132.502 129.91C132.448 129.91 132.396 129.893 132.352 129.862C132.309 129.83 132.276 129.786 132.259 129.735C131.84 128.495 122.012 99.3212 123.211 96.1347C124.409 92.9482 132.615 91.4556 132.966 91.3936C132.999 91.3884 133.032 91.3884 133.064 91.3936L158.773 96.8061C158.809 96.8139 158.842 96.8289 158.872 96.8502C158.901 96.8716 158.925 96.8987 158.944 96.93C158.975 96.9816 162.042 102.198 157.26 107.961C155.277 110.363 151.45 111.06 146.203 110.027C143.84 109.535 141.527 108.828 139.293 107.915L142.567 129.709C142.573 129.746 142.572 129.783 142.562 129.819C142.552 129.854 142.534 129.887 142.51 129.916C142.486 129.944 142.456 129.967 142.422 129.983C142.388 129.999 142.351 130.008 142.314 130.009ZM132.687 129.389L142.015 129.487L138.714 107.533C138.708 107.487 138.713 107.44 138.731 107.397C138.748 107.354 138.777 107.317 138.814 107.289C138.851 107.261 138.895 107.243 138.941 107.238C138.987 107.233 139.034 107.24 139.076 107.259C139.21 107.321 152.344 113.095 156.863 107.626C159.228 104.765 159.548 102.084 159.398 100.339C159.315 99.2761 159.028 98.2396 158.551 97.2863L133.008 91.9101C132.326 92.034 124.744 93.4595 123.712 96.3154C122.761 98.7995 129.811 120.862 132.687 129.389Z" fill="#231F20"/>
<path d="M126.872 112.646C126.821 112.646 126.771 112.631 126.729 112.602C126.686 112.574 126.653 112.533 126.635 112.486C126.413 111.923 121.217 98.6395 122.849 95.3084C122.928 95.1231 123.047 94.9573 123.197 94.8226C123.347 94.6879 123.524 94.5875 123.717 94.5286C123.749 94.5191 123.783 94.5161 123.817 94.5197C123.851 94.5234 123.883 94.5337 123.913 94.55C123.943 94.5663 123.969 94.5883 123.99 94.6148C124.012 94.6412 124.027 94.6716 124.037 94.7041C124.055 94.7699 124.046 94.8399 124.014 94.8996C123.981 94.9593 123.926 95.004 123.861 95.0243C123.738 95.0648 123.624 95.1321 123.53 95.2213C123.435 95.3106 123.361 95.4197 123.314 95.5408C121.764 98.6705 127.058 112.165 127.115 112.3C127.127 112.331 127.133 112.365 127.133 112.4C127.132 112.434 127.124 112.468 127.11 112.499C127.096 112.53 127.076 112.558 127.051 112.582C127.026 112.605 126.997 112.623 126.965 112.635L126.872 112.646Z" fill="white"/>
<path d="M138.972 107.76C138.925 107.761 138.879 107.748 138.838 107.724C138.709 107.646 135.662 105.787 134.8 104.47C134.78 104.442 134.767 104.411 134.76 104.377C134.753 104.344 134.753 104.31 134.76 104.277C134.767 104.243 134.78 104.212 134.799 104.184C134.819 104.156 134.843 104.132 134.872 104.114C134.929 104.076 134.998 104.063 135.065 104.077C135.132 104.09 135.19 104.129 135.228 104.186C136.029 105.41 139.076 107.285 139.107 107.285C139.165 107.321 139.207 107.379 139.223 107.445C139.239 107.512 139.229 107.582 139.195 107.641C139.17 107.678 139.137 107.707 139.098 107.728C139.06 107.749 139.016 107.76 138.972 107.76Z" fill="white"/>
<path d="M158.722 97.0591C158.722 97.0591 169.511 70.4774 161.542 64.3781C153.573 58.2789 142.216 60.9954 140.667 66.697C139.118 72.3986 133.008 91.6467 133.008 91.6467C133.008 91.6467 152.581 97.4826 158.722 97.0591Z" fill="#FFD234"/>
<path d="M147.442 67.2755L145.578 86.0381L155.86 65.9482L147.442 67.2755Z" fill="#231F20"/>
<path d="M145.558 86.2963C145.532 86.3013 145.506 86.3013 145.48 86.2963C145.422 86.2805 145.371 86.244 145.338 86.1936C145.305 86.1432 145.291 86.0824 145.299 86.0226L147.169 67.26C147.174 67.2026 147.198 67.1485 147.237 67.1064C147.277 67.0643 147.329 67.0366 147.386 67.0276L155.799 65.7055C155.846 65.6966 155.896 65.7017 155.94 65.72C155.985 65.7383 156.024 65.7691 156.052 65.8087C156.076 65.8494 156.089 65.8958 156.089 65.943C156.089 65.9903 156.076 66.0367 156.052 66.0773L145.764 86.1672C145.743 86.2041 145.713 86.2351 145.677 86.2577C145.641 86.2802 145.6 86.2935 145.558 86.2963ZM147.659 67.4975L145.945 84.7057L155.38 66.2839L147.659 67.4975Z" fill="#231F20"/>
<path d="M141.374 64.4091L127.905 73.9377L129.134 86.0381L143.569 79.9388C143.569 79.9388 145.96 66.5524 141.374 64.4091Z" fill="#FFD234"/>
<path d="M146.59 64.6829C147.558 64.3574 148.586 64.2464 149.601 64.3575C151.187 64.6364 152.638 65.3904 154.249 65.628C156.025 65.7881 157.813 65.7881 159.589 65.628C160.106 65.6022 159.589 66.2994 160.023 65.9998C161.479 64.9359 161.407 62.8288 161.402 61.2485C161.446 57.5883 160.989 53.9392 160.044 50.403C159.527 48.5645 157.487 41.8351 154.507 44.7221C155.179 44.0662 151.925 42.5375 151.46 42.4084C147.236 41.236 143.404 44.9493 142.459 48.8124C141.772 51.6167 141.72 54.4004 140.393 57.0343C139.804 58.1963 139.04 59.3428 138.988 60.6494C139.001 61.437 139.233 62.2054 139.657 62.8692C140.081 63.533 140.68 64.0661 141.389 64.4092C142.829 65.0705 144.451 65.2181 145.986 64.8275L146.59 64.6829Z" fill="white"/>
<path d="M159.873 66.3304C159.824 66.3295 159.777 66.3171 159.734 66.2942C159.675 66.2548 159.63 66.1989 159.603 66.1336C159.576 66.0683 159.57 65.9966 159.584 65.9275V65.8914L158.773 65.9275C157.255 66.0533 155.728 66.0395 154.213 65.8862C153.354 65.7401 152.51 65.5153 151.692 65.2148C150.994 64.9604 150.278 64.7601 149.549 64.6158C148.621 64.5091 147.68 64.6042 146.791 64.8946L146.642 64.9308L146.027 65.0806C144.434 65.4781 142.753 65.3215 141.26 64.6364C140.506 64.274 139.868 63.7083 139.419 63.0029C138.969 62.2976 138.725 61.4807 138.714 60.6443C138.836 59.5401 139.212 58.4794 139.814 57.5456C139.928 57.3338 140.041 57.1221 140.15 56.9103C141.038 55.1647 141.348 53.3726 141.699 51.4773C141.849 50.5838 142.009 49.6645 142.216 48.7453C142.827 46.3053 144.367 44.2005 146.507 42.8784C147.252 42.421 148.082 42.1209 148.948 41.9965C149.813 41.8722 150.694 41.9262 151.537 42.1554C151.832 42.238 154.239 43.2915 154.76 44.1747C154.991 43.9869 155.262 43.8551 155.553 43.7897C155.843 43.7242 156.144 43.727 156.433 43.7977C158.241 44.2831 159.532 47.6039 160.302 50.3049C161.259 53.8672 161.72 57.5447 161.67 61.233V61.4293C161.67 62.9786 161.67 65.1012 160.183 66.1961C160.096 66.2721 159.988 66.3191 159.873 66.3304ZM159.61 65.3491C159.676 65.3456 159.742 65.3557 159.804 65.3788C159.866 65.4019 159.923 65.4375 159.971 65.4834C160.009 65.5222 160.038 65.5678 160.059 65.6177C161.164 64.6364 161.154 62.8598 161.149 61.4189V61.2279C161.197 57.5851 160.744 53.953 159.801 50.434C158.768 46.8189 157.523 44.6137 156.299 44.2883C156.002 44.2323 155.695 44.2591 155.411 44.3656C155.128 44.4722 154.88 44.6544 154.693 44.8925C154.644 44.9405 154.577 44.9669 154.509 44.9659C154.44 44.9649 154.374 44.9367 154.326 44.8874C154.278 44.8381 154.252 44.7717 154.253 44.703C154.254 44.6342 154.282 44.5686 154.331 44.5207C154.424 44.1334 152.116 42.8422 151.393 42.6408C150.614 42.4275 149.799 42.377 148.999 42.4925C148.199 42.608 147.432 42.8871 146.745 43.3122C144.723 44.5621 143.27 46.5526 142.696 48.8589C142.474 49.7575 142.319 50.6716 142.179 51.5547C141.864 53.4088 141.534 55.3197 140.63 57.1376C140.522 57.3493 140.403 57.5611 140.289 57.778C139.734 58.642 139.381 59.6199 139.256 60.6391C139.268 61.378 139.486 62.0989 139.885 62.7204C140.285 63.3419 140.851 63.8392 141.518 64.1561C142.906 64.7872 144.467 64.9275 145.944 64.5538L146.543 64.4092L146.693 64.373C147.651 64.064 148.664 63.9653 149.663 64.0838C150.417 64.2355 151.159 64.4427 151.883 64.7036C152.671 64.9939 153.484 65.2117 154.311 65.3543C155.794 65.5033 157.288 65.5154 158.773 65.3904L159.599 65.3491H159.61Z" fill="#231F20"/>
<path d="M144.065 50.3152C144.065 50.3152 142.655 54.6482 143.497 57.8864C143.708 58.791 144.178 59.6146 144.849 60.2566C145.52 60.8986 146.364 61.3312 147.277 61.5015L147.443 67.2703C147.443 67.2703 147.505 70.2244 151.104 69.6614C152.148 69.4986 153.133 69.0714 153.966 68.4206C154.798 67.7698 155.451 66.9169 155.861 65.943L155.964 55.3196C155.964 55.3196 151.796 53.0782 152.039 49.2617C152.039 49.2668 147.236 51.7664 144.065 50.3152Z" fill="white"/>
<path d="M150.241 69.9971C149.495 70.0313 148.761 69.7947 148.175 69.3309C147.883 69.0687 147.645 68.7512 147.476 68.3967C147.306 68.0421 147.209 67.6575 147.189 67.2651L147.024 61.7339C146.107 61.5168 145.269 61.0501 144.602 60.3855C143.934 59.721 143.464 58.8845 143.243 57.969C142.396 54.6947 143.76 50.4288 143.822 50.2222C143.833 50.1881 143.851 50.1567 143.875 50.1301C143.899 50.1034 143.928 50.082 143.961 50.0673C143.995 50.0532 144.031 50.046 144.067 50.046C144.103 50.046 144.139 50.0532 144.173 50.0673C147.194 51.4514 151.873 49.0344 151.92 49.0344C151.96 49.0118 152.005 48.9999 152.051 48.9999C152.097 48.9999 152.143 49.0118 152.183 49.0344C152.221 49.0597 152.251 49.0945 152.271 49.1353C152.291 49.1761 152.3 49.2215 152.297 49.2668C152.064 52.8819 156.046 55.0614 156.082 55.082C156.124 55.1036 156.159 55.1362 156.184 55.1762C156.208 55.2163 156.221 55.2623 156.222 55.3093L156.118 65.9378C156.123 65.9651 156.123 65.9931 156.118 66.0204C155.697 67.0406 155.02 67.9345 154.151 68.6151C153.282 69.2956 152.252 69.7397 151.16 69.9041C150.857 69.9603 150.55 69.9914 150.241 69.9971ZM144.23 50.6664C143.946 51.6528 143.052 55.1492 143.744 57.8192C143.937 58.677 144.378 59.4593 145.011 60.0689C145.645 60.6786 146.443 61.0887 147.308 61.2484C147.369 61.2558 147.426 61.2848 147.467 61.3303C147.509 61.3758 147.533 61.4347 147.535 61.4963L147.7 67.2651C147.741 67.9064 148.03 68.5067 148.506 68.9384C149.089 69.4548 149.952 69.5839 151.088 69.4135C152.078 69.2549 153.013 68.8496 153.805 68.235C154.598 67.6203 155.223 66.8161 155.623 65.8965L155.721 55.4745C155.008 55.0562 151.847 53.0111 151.791 49.6799C150.587 50.2326 146.962 51.7096 144.23 50.6664Z" fill="#231F20"/>
<path d="M153.939 54.638C153.939 54.638 155.607 50.5787 157.689 53.0473C159.77 55.5159 156.924 58.3667 155.137 58.1808" fill="white"/>
<path d="M155.308 58.4493H155.112C155.078 58.4461 155.045 58.4362 155.015 58.4201C154.984 58.404 154.958 58.3822 154.936 58.3558C154.915 58.3294 154.898 58.2989 154.889 58.2662C154.879 58.2335 154.876 58.1992 154.879 58.1653C154.882 58.1313 154.892 58.0983 154.908 58.0682C154.924 58.0381 154.946 58.0114 154.973 57.9898C154.999 57.9682 155.03 57.9521 155.062 57.9423C155.095 57.9325 155.129 57.9293 155.163 57.9329C156.062 58.0258 157.27 57.2357 157.833 56.1666C158.096 55.7033 158.205 55.1683 158.144 54.6391C158.082 54.1098 157.854 53.6138 157.492 53.2228C157.351 53.0016 157.154 52.8212 156.921 52.6998C156.688 52.5784 156.428 52.5201 156.165 52.5308C155.225 52.6754 154.414 54.1783 154.182 54.7464C154.156 54.8101 154.106 54.8608 154.042 54.8874C153.979 54.9141 153.907 54.9144 153.844 54.8884C153.78 54.8624 153.729 54.8121 153.703 54.7487C153.676 54.6852 153.676 54.6138 153.702 54.5501C153.743 54.452 154.667 52.2416 156.088 52.0195C156.713 51.9214 157.317 52.2158 157.89 52.8923C158.316 53.3632 158.584 53.9555 158.656 54.5862C158.728 55.2169 158.601 55.8544 158.293 56.4093C157.663 57.6023 156.403 58.4493 155.308 58.4493Z" fill="#231F20"/>
<path d="M146.404 58.0103C146.124 58.0185 145.846 57.9656 145.588 57.8554C145.525 57.8253 145.47 57.7813 145.427 57.7267C145.385 57.6721 145.355 57.6083 145.34 57.5404C145.149 56.8018 146.538 54.767 146.972 54.1576C146.991 54.1299 147.016 54.1062 147.044 54.088C147.072 54.0698 147.104 54.0575 147.137 54.0517C147.17 54.0459 147.204 54.0469 147.237 54.0544C147.27 54.0619 147.301 54.076 147.328 54.0957C147.356 54.1152 147.38 54.1401 147.398 54.1689C147.417 54.1977 147.429 54.2299 147.435 54.2635C147.441 54.2971 147.44 54.3315 147.432 54.3648C147.424 54.398 147.41 54.4294 147.39 54.4572C146.461 55.769 145.733 57.153 145.841 57.4164C146.381 57.532 146.942 57.5035 147.468 57.3338C147.502 57.324 147.537 57.3209 147.572 57.3248C147.608 57.3287 147.642 57.3395 147.672 57.3565C147.703 57.3735 147.731 57.3964 147.753 57.424C147.775 57.4516 147.791 57.4832 147.801 57.5171C147.811 57.551 147.814 57.5866 147.81 57.6217C147.806 57.6567 147.795 57.6907 147.778 57.7217C147.761 57.7526 147.738 57.7799 147.711 57.8019C147.683 57.824 147.652 57.8404 147.618 57.8502C147.222 57.9594 146.814 58.0133 146.404 58.0103Z" fill="#231F20"/>
<path d="M147.277 61.5067C147.277 61.5067 150.376 61.8063 152.127 61.3002C152.127 61.3002 150.324 65.9017 147.396 65.9482L147.277 61.5067Z" fill="#231F20"/>
<path d="M147.395 66.2219C147.328 66.2219 147.263 66.1954 147.215 66.1481C147.166 66.1008 147.138 66.0365 147.137 65.9689L147.018 61.5119C147.017 61.4753 147.024 61.4389 147.039 61.4051C147.053 61.3713 147.074 61.341 147.101 61.3161C147.128 61.2912 147.16 61.2723 147.194 61.2606C147.229 61.249 147.266 61.2448 147.302 61.2485C147.333 61.2485 150.365 61.5377 152.054 61.0523C152.1 61.0379 152.149 61.037 152.196 61.0498C152.243 61.0626 152.285 61.0886 152.317 61.1246C152.35 61.16 152.372 61.204 152.381 61.2514C152.391 61.2989 152.386 61.348 152.369 61.3931C152.291 61.5894 150.468 66.1548 147.401 66.2219H147.395ZM147.54 61.7856L147.643 65.6848C149.709 65.4369 151.165 62.7669 151.682 61.672C150.31 61.8677 148.92 61.9058 147.54 61.7856Z" fill="#231F20"/>
<path d="M149.638 53.6526C149.65 53.2135 149.455 52.8523 149.204 52.8459C148.953 52.8395 148.741 53.1903 148.73 53.6294C148.719 54.0685 148.913 54.4297 149.164 54.4361C149.415 54.4425 149.627 54.0917 149.638 53.6526Z" fill="#231F20"/>
<path d="M145.457 53.5502C145.468 53.1111 145.274 52.75 145.023 52.7436C144.772 52.7372 144.56 53.088 144.549 53.5271C144.537 53.9662 144.732 54.3273 144.983 54.3337C145.234 54.3401 145.446 53.9893 145.457 53.5502Z" fill="#231F20"/>
<path d="M161.345 59.1517C161.567 62.5448 161.861 68.7835 156.469 67.2445C155.352 66.9099 154.405 66.1619 153.82 65.1529C152.787 63.304 155.566 60.6287 156.883 59.4254" fill="white"/>
<path d="M158.004 67.7455C157.459 67.7376 156.919 67.6542 156.397 67.4976C155.203 67.1527 154.19 66.3562 153.572 65.2769C152.503 63.397 154.838 60.9284 156.671 59.2344C156.72 59.1868 156.786 59.1601 156.854 59.1601C156.923 59.1601 156.989 59.1868 157.038 59.2344C157.062 59.2584 157.081 59.287 157.094 59.3184C157.107 59.3499 157.114 59.3836 157.114 59.4177C157.114 59.4518 157.107 59.4856 157.094 59.517C157.081 59.5485 157.062 59.5771 157.038 59.6011C156.046 60.51 153.035 63.2679 154.027 65.0083C154.579 65.9693 155.482 66.6785 156.547 66.9863C157.9 67.3737 158.964 67.2652 159.708 66.6661C161.49 65.2252 161.221 61.1298 161.092 59.1621C161.09 59.1282 161.094 59.0941 161.105 59.0619C161.115 59.0297 161.132 58.9999 161.155 58.9742C161.177 58.9486 161.204 58.9275 161.235 58.9124C161.265 58.8972 161.298 58.8882 161.332 58.8858C161.366 58.8834 161.4 58.8877 161.432 58.8985C161.465 58.9093 161.494 58.9263 161.52 58.9486C161.546 58.9709 161.567 58.9981 161.582 59.0285C161.597 59.0589 161.606 59.092 161.608 59.1259C161.753 61.3415 162.027 65.4576 160.028 67.0689C159.455 67.5271 158.737 67.7669 158.004 67.7455Z" fill="#231F20"/>
<path d="M149.596 59.1878C149.596 59.4616 149.136 59.7043 148.563 59.7043C147.99 59.7043 148.222 59.477 148.222 59.1878C148.222 58.8986 147.995 58.6714 148.563 58.6714C149.131 58.6714 149.596 58.9141 149.596 59.1878Z" fill="#231F20"/>
<path d="M162.481 65.7726C162.481 65.7726 157.714 69.7544 157.694 73.1216C157.673 76.4889 161.309 92.2303 161.309 92.2303L171.24 86.6939C171.24 86.6939 167.367 67.136 162.481 65.7726Z" fill="#FFD234"/>
<path d="M133.55 90.1904H133.477C133.445 90.1804 133.414 90.164 133.388 90.1422C133.362 90.1204 133.34 90.0936 133.324 90.0633C133.308 90.0331 133.299 89.9999 133.296 89.9659C133.293 89.9319 133.297 89.8976 133.307 89.8651L140.424 66.6248C140.43 66.589 140.444 66.5549 140.465 66.5249C140.486 66.4948 140.512 66.4695 140.543 66.4506C140.575 66.4316 140.609 66.4195 140.645 66.4149C140.682 66.4103 140.718 66.4135 140.753 66.4241C140.788 66.4348 140.82 66.4527 140.848 66.4766C140.875 66.5006 140.897 66.5301 140.912 66.5632C140.928 66.5963 140.936 66.6322 140.936 66.6687C140.936 66.7051 140.929 66.7412 140.914 66.7746L133.798 90.0148C133.78 90.0665 133.747 90.1114 133.702 90.1429C133.658 90.1745 133.604 90.1911 133.55 90.1904Z" fill="#231F20"/>
<path d="M161.407 91.4144C161.348 91.4156 161.291 91.3961 161.244 91.3594C161.198 91.3226 161.166 91.2708 161.154 91.2129C157.131 73.2663 157.379 73.0546 157.539 72.9255C157.588 72.8778 157.654 72.8512 157.722 72.8512C157.791 72.8512 157.857 72.8778 157.906 72.9255C157.935 72.9596 157.955 73.0011 157.964 73.0456C157.972 73.0901 157.968 73.136 157.952 73.1785C157.952 74.0203 160.157 84.308 161.676 91.0735C161.683 91.1067 161.684 91.1412 161.679 91.1748C161.673 91.2084 161.661 91.2405 161.642 91.2693C161.624 91.2981 161.6 91.3231 161.572 91.3426C161.544 91.3622 161.513 91.3761 161.48 91.3834L161.407 91.4144Z" fill="#231F20"/>
<path d="M147.545 91.1561L129.031 98.1334L120.809 92.2303L136.994 87.3447L147.545 91.1561Z" fill="white"/>
<path d="M129.031 98.402C128.976 98.4025 128.922 98.3863 128.876 98.3555L120.659 92.4473C120.619 92.4197 120.588 92.3812 120.569 92.3365C120.549 92.2917 120.543 92.2424 120.551 92.1943C120.56 92.1475 120.582 92.104 120.614 92.0686C120.645 92.0331 120.686 92.0069 120.732 91.9928L136.917 87.1124C136.971 87.0969 137.029 87.0969 137.083 87.1124L147.623 90.9135C147.672 90.9333 147.714 90.9667 147.744 91.0097C147.774 91.0528 147.792 91.1036 147.794 91.1562C147.794 91.2093 147.777 91.261 147.747 91.3045C147.716 91.3479 147.673 91.3809 147.623 91.3989L129.119 98.402C129.09 98.4073 129.06 98.4073 129.031 98.402ZM121.382 92.3337L129.067 97.8546L146.797 91.1717L136.984 87.6288L121.382 92.3337Z" fill="#231F20"/>
<path d="M170.083 87.3499C170.083 87.3499 172.149 97.7977 166.525 98.7944C160.901 99.7912 142.252 96.1399 142.252 96.1399C142.252 96.1399 135.775 97.2812 136.189 95.6234C136.602 93.9656 140.646 93.2322 140.646 93.2322C140.646 93.2322 137.309 91.6158 138.952 91.6209C140.699 91.7247 142.44 91.9195 144.168 92.2045L161.417 89.9063" fill="white"/>
<path d="M163.973 99.2282C156.908 99.2282 143.372 96.646 142.282 96.4032C141.306 96.5737 137.035 97.2502 136.137 96.2793C136.051 96.1885 135.99 96.0768 135.961 95.9554C135.932 95.8339 135.936 95.707 135.971 95.5873C136.317 94.2393 138.683 93.475 139.917 93.1651C138.161 92.2355 138.244 91.8688 138.28 91.7242C138.357 91.3885 138.796 91.3885 138.982 91.3885C140.732 91.4896 142.475 91.6827 144.204 91.9669L161.417 89.6739C161.485 89.665 161.555 89.6837 161.609 89.7258C161.664 89.7679 161.7 89.8301 161.709 89.8986C161.718 89.967 161.699 90.0363 161.657 90.091C161.615 90.1457 161.552 90.1814 161.484 90.1904L144.235 92.4834C144.209 92.4885 144.183 92.4885 144.157 92.4834C142.447 92.2024 140.723 92.0093 138.993 91.905H138.915C139.504 92.3434 140.138 92.719 140.805 93.0257C140.853 93.0504 140.892 93.0893 140.917 93.1371C140.943 93.1848 140.952 93.2391 140.946 93.2926C140.939 93.3461 140.916 93.3963 140.88 93.4363C140.844 93.4763 140.796 93.5042 140.743 93.5163C139.664 93.7177 136.793 94.513 136.488 95.7164C136.473 95.7517 136.468 95.7908 136.476 95.8286C136.483 95.8664 136.502 95.9011 136.529 95.9281C137.087 96.5324 140.335 96.2225 142.251 95.8868H142.35C142.535 95.9229 161.009 99.5019 166.504 98.5413C166.998 98.4573 167.469 98.2734 167.889 98.0007C168.309 97.7281 168.669 97.3725 168.947 96.9558C171.054 93.8933 169.907 87.6597 169.856 87.4015C169.849 87.3634 169.851 87.3243 169.86 87.2868C169.87 87.2494 169.888 87.2145 169.912 87.1846C169.943 87.1459 169.984 87.117 170.031 87.1014C170.078 87.0858 170.128 87.0842 170.176 87.0968C170.223 87.1084 170.266 87.1337 170.299 87.1695C170.332 87.2053 170.354 87.2501 170.362 87.2982L170.109 87.3499L170.367 87.3034C170.496 87.9851 171.565 94.0689 169.37 97.2502C169.055 97.724 168.645 98.128 168.167 98.4372C167.69 98.7463 167.153 98.9541 166.592 99.0475C165.726 99.1826 164.85 99.2431 163.973 99.2282Z" fill="#231F20"/>
<path d="M98.2504 131.889C98.7862 132.404 99.4714 132.737 100.208 132.839C101.07 132.839 110.423 131.114 110.81 132.395C111.198 133.675 110.433 134.316 108.197 135.369C105.202 136.779 95.1465 140.09 95.1465 140.09L92.9465 134.925L98.2504 131.889Z" fill="white"/>
<path d="M95.1463 140.327C95.0997 140.328 95.0539 140.315 95.0151 140.289C94.9763 140.263 94.9464 140.226 94.9294 140.183L92.7293 135.018C92.7065 134.966 92.704 134.907 92.7221 134.852C92.7402 134.798 92.7777 134.752 92.8275 134.724L98.1314 131.687C98.1784 131.66 98.2332 131.65 98.2868 131.659C98.3403 131.667 98.3894 131.694 98.4258 131.734C98.9167 132.203 99.5411 132.508 100.213 132.606C100.843 132.564 101.471 132.486 102.093 132.374C107.665 131.594 110.738 131.341 111.037 132.328C111.482 133.799 110.552 134.523 108.295 135.586C105.326 136.991 95.3219 140.286 95.2186 140.322L95.1463 140.327ZM93.2458 135.023L95.2806 139.801C96.7267 139.32 105.382 136.433 108.094 135.153C110.392 134.068 110.903 133.515 110.583 132.457C110.351 131.687 104.184 132.55 102.16 132.834C101.024 132.994 100.419 133.061 100.202 133.071C99.4639 132.98 98.7706 132.666 98.214 132.173L93.2458 135.023Z" fill="#231F20"/>
<path d="M69.1797 137.43C69.1797 137.43 79.204 140.875 79.6327 141.531C80.0614 142.187 79.3022 142.956 76.6321 143.194C73.9621 143.431 62.5382 142.812 62.5382 142.812C62.5382 142.812 62.3936 139.713 63.1115 138.164C63.8293 136.614 69.1797 137.43 69.1797 137.43Z" fill="white"/>
<path d="M74.7261 143.483C70.6358 143.483 62.9149 143.07 62.5275 143.049C62.4684 143.045 62.4128 143.02 62.3709 142.978C62.3291 142.937 62.3039 142.881 62.3003 142.822C62.3003 142.693 62.166 139.651 62.8942 138.05C63.6637 136.361 68.6474 137.11 69.2155 137.198H69.2517C71.6222 138.014 79.3896 140.72 79.8286 141.396C79.9125 141.513 79.9635 141.651 79.9762 141.794C79.9889 141.938 79.9629 142.082 79.9009 142.212C79.5962 142.837 78.4703 143.245 76.6524 143.416C76.2134 143.467 75.5421 143.483 74.7261 143.483ZM62.7651 142.589C64.3557 142.672 74.1941 143.173 76.6111 142.956C78.9455 142.749 79.3948 142.187 79.4722 142.016C79.5011 141.96 79.513 141.896 79.5066 141.833C79.5002 141.769 79.4757 141.709 79.4361 141.66C79.0384 141.195 72.9082 138.964 69.1071 137.662C67.1033 137.342 63.7722 137.223 63.3074 138.246C62.7496 139.511 62.7496 141.872 62.7651 142.589Z" fill="#231F20"/>
<path d="M43.1816 104.775C43.1816 104.775 35.001 84.3287 35.8583 74.2425C36.7156 64.1562 43.3004 63.5416 45.6089 63.397C47.9174 63.2524 60.0385 61.6359 64.4645 67.0638C68.8905 72.4917 67.7543 98.6344 67.7543 98.6344L43.1816 104.775Z" fill="#FFD234"/>
<path d="M57.6217 68.0553L57.4719 88.5429L48.7749 66.6815L57.6217 68.0553Z" fill="#231F20"/>
<path d="M57.4714 88.8011C57.4196 88.8012 57.3691 88.7861 57.3259 88.7576C57.2827 88.7291 57.2489 88.6886 57.2286 88.641L48.5316 66.7745C48.5164 66.7315 48.5122 66.6853 48.5194 66.6402C48.5266 66.5951 48.545 66.5525 48.5729 66.5163C48.6012 66.4803 48.6387 66.4527 48.6814 66.4363C48.7242 66.4199 48.7706 66.4155 48.8157 66.4234L57.6624 67.8023C57.7236 67.8109 57.7796 67.8412 57.8204 67.8876C57.8611 67.9341 57.8839 67.9936 57.8845 68.0553L57.7296 88.5481C57.7282 88.6074 57.7063 88.6645 57.6678 88.7097C57.6292 88.7548 57.5763 88.7853 57.5178 88.796L57.4714 88.8011ZM49.2082 67.0018L57.2441 87.2208L57.3836 68.2774L49.2082 67.0018Z" fill="#231F20"/>
<path d="M68.2549 93.4543C68.2549 93.4543 78.2534 96.1295 87.1931 102.203C91.2937 104.987 98.9527 132.297 98.9527 132.297C98.9527 132.297 98.0954 137.027 92.6313 136.289L68.7507 105.348C68.7507 105.348 63.6275 93.3355 68.2549 93.4543Z" fill="#231F20"/>
<path d="M93.7474 136.619C93.362 136.618 92.9772 136.591 92.5957 136.537C92.5287 136.526 92.4679 136.491 92.4252 136.438L68.5498 105.498C68.5348 105.481 68.5226 105.462 68.5136 105.441C68.3639 105.085 64.7797 96.6149 66.5614 93.9914C66.7481 93.7191 67.0039 93.5015 67.3025 93.3608C67.6011 93.2201 67.9318 93.1615 68.2606 93.1909H68.3225C68.4207 93.2167 78.4656 95.9487 87.3382 101.971C91.4698 104.78 98.886 131.093 99.2166 132.214C99.2242 132.251 99.2242 132.29 99.2166 132.327C98.9512 133.57 98.2586 134.68 97.2592 135.464C96.2599 136.248 95.0171 136.657 93.7474 136.619ZM92.7713 136.041C97.5691 136.635 98.571 132.839 98.6846 132.302C98.2818 130.871 90.9379 105.049 87.049 102.409C78.4863 96.5943 68.8287 93.8726 68.2192 93.7073H68.1883C67.9559 93.6903 67.7231 93.7342 67.513 93.8347C67.3028 93.9353 67.1226 94.089 66.9901 94.2806C65.4149 96.6046 68.7409 104.651 68.9784 105.209L92.7713 136.041Z" fill="#231F20"/>
<path d="M43.181 104.775C43.181 104.775 62.1244 97.0695 66.9791 96.3568C66.9791 96.3568 73.9253 98.9391 77.494 105.519C81.0627 112.098 69.1791 137.43 69.1791 137.43C67.2238 138.586 64.9152 138.994 62.6822 138.577L62.5273 112.062C62.5273 112.062 39.6433 114.329 43.181 104.775Z" fill="#231F20"/>
<path d="M64.4125 139C63.8146 138.999 63.218 138.942 62.6308 138.83C62.5725 138.818 62.52 138.786 62.4824 138.74C62.4447 138.694 62.4242 138.636 62.4242 138.577L62.2693 112.346C60.0898 112.537 46.8016 113.498 43.3672 109.046C42.4479 107.863 42.3343 106.397 42.9385 104.687C42.9509 104.654 42.9702 104.623 42.9951 104.597C43.02 104.571 43.05 104.551 43.0831 104.537C43.8578 104.222 62.1092 96.7906 66.9431 96.0986C66.9856 96.0885 67.0298 96.0885 67.0722 96.0986C67.1394 96.1244 74.1476 98.7996 77.7214 105.395C81.2953 111.99 69.8972 136.5 69.4118 137.539C69.3926 137.583 69.3602 137.621 69.3188 137.647C67.8372 138.537 66.1407 139.005 64.4125 139ZM62.9252 138.36C65.0047 138.69 67.1349 138.3 68.9625 137.254C69.639 135.788 80.6342 111.855 77.2515 105.643C73.9462 99.5588 67.6249 96.8939 66.9225 96.6202C62.2383 97.3536 44.8907 104.367 43.362 104.971C42.8456 106.459 42.9695 107.719 43.7494 108.731C47.2406 113.255 62.3416 111.83 62.4758 111.83C62.511 111.826 62.5466 111.83 62.5803 111.841C62.614 111.851 62.6452 111.869 62.6721 111.892C62.6993 111.916 62.7212 111.945 62.7363 111.978C62.7515 112.011 62.7595 112.046 62.7599 112.083L62.9252 138.36Z" fill="#231F20"/>
<path d="M77.0653 116.431H77.0188C76.9515 116.419 76.8918 116.38 76.8522 116.324C76.8127 116.268 76.7965 116.199 76.8071 116.132C77.4733 112.341 78.1602 106.36 77.3235 105.42C74.5708 102.384 67.733 97.3225 67.6659 97.2709C67.6118 97.2306 67.5755 97.1708 67.5649 97.1043C67.5543 97.0377 67.5702 96.9696 67.6091 96.9145C67.6502 96.86 67.7109 96.8237 67.7784 96.8131C67.8458 96.8025 67.9147 96.8185 67.9706 96.8577C68.0377 96.9093 74.9169 102.022 77.7057 105.074C79.002 106.5 77.5094 115.233 77.3338 116.225C77.3225 116.286 77.2888 116.341 77.2392 116.379C77.1897 116.418 77.1277 116.436 77.0653 116.431Z" fill="white"/>
<path d="M64.4743 67.0637C64.4743 67.0637 67.7538 73.3644 69.6853 76.6026C71.6168 79.8407 75.8104 84.4836 75.8104 84.4836C75.8104 84.4836 90.6635 89.7669 90.7616 90.0509C90.8597 90.335 89.3517 95.329 89.3517 95.329C89.3517 95.329 73.7704 94.2083 71.1881 92.9895C68.6059 91.7707 63.3794 85.7592 63.3794 85.7592L64.4743 67.0637Z" fill="#FFD234"/>
<path d="M54.2539 70.3174L53.159 72.0423L54.3572 72.755L54.4759 81.0182L57.4714 88.5429L57.6211 81.5812L55.1267 72.5175L55.8704 71.6447L54.2539 70.3174Z" fill="white"/>
<path d="M57.4713 88.8011C57.4196 88.8012 57.369 88.786 57.3258 88.7575C57.2826 88.7291 57.2488 88.6885 57.2285 88.641L54.2383 81.1163C54.2359 81.0854 54.2359 81.0543 54.2383 81.0233L54.1247 72.8996L53.0453 72.2643C52.9863 72.2262 52.9439 72.1672 52.9265 72.0991C52.9183 72.0657 52.9172 72.0309 52.9235 71.9971C52.9297 71.9632 52.9431 71.9311 52.9627 71.9028L54.0575 70.1779C54.077 70.147 54.1026 70.1205 54.1328 70.1C54.1631 70.0796 54.1972 70.0657 54.2331 70.0591C54.2696 70.0539 54.3068 70.0562 54.3423 70.066C54.3779 70.0758 54.411 70.0928 54.4397 70.1159L56.0562 71.4432C56.0825 71.4651 56.1042 71.492 56.1201 71.5223C56.1359 71.5527 56.1456 71.5859 56.1485 71.62C56.1513 71.6542 56.1474 71.6885 56.1369 71.7211C56.1264 71.7537 56.1095 71.7839 56.0872 71.8099L55.4158 72.5794L57.8741 81.514C57.8766 81.5397 57.8766 81.5657 57.8741 81.5914L57.7192 88.548C57.7178 88.6074 57.6959 88.6644 57.6574 88.7096C57.6188 88.7548 57.5658 88.7852 57.5074 88.7959L57.4713 88.8011ZM54.7341 80.9717L57.244 87.2672L57.368 81.6172L54.8787 72.5794C54.8688 72.5384 54.8683 72.4958 54.8773 72.4547C54.8862 72.4135 54.9043 72.3749 54.9303 72.3418L55.5036 71.6704L54.3158 70.6943L53.5204 71.9493L54.4913 72.5277C54.529 72.5501 54.5602 72.5818 54.582 72.6198C54.6037 72.6578 54.6152 72.7008 54.6153 72.7446L54.7341 80.9717Z" fill="#231F20"/>
<path d="M48.2322 46.8963C48.5301 46.7827 48.8404 46.7047 49.1567 46.6639C50.4168 46.5193 50.4375 46.793 51.4084 45.977C52.8896 44.8117 54.6916 44.127 56.5729 44.0145C60.188 43.777 62.8168 45.5897 61.9904 49.556C61.5931 51.127 60.8719 52.5976 59.873 53.8736C57.8072 56.7037 54.9512 59.2653 51.4704 59.5545C50.4375 59.632 48.5008 59.5545 47.7519 58.7127C46.688 57.5063 45.9525 56.0465 45.616 54.4736C45.2795 52.9007 45.3535 51.2677 45.8307 49.7316C46.0212 49.0738 46.3388 48.4597 46.7655 47.924C47.1618 47.4653 47.6658 47.1122 48.2322 46.8963Z" fill="white"/>
<path d="M50.8348 59.8076C49.9155 59.8076 48.2887 59.6836 47.545 58.8573C46.4542 57.6204 45.7005 56.1233 45.3567 54.5104C45.013 52.8974 45.0907 51.2231 45.5825 49.649C45.783 48.9598 46.1182 48.3174 46.5689 47.7588C47.2275 46.9982 48.1506 46.5164 49.1512 46.4108C49.4117 46.3786 49.6737 46.3596 49.9362 46.354C50.4526 46.354 50.6127 46.354 51.2634 45.7808C52.7775 44.5744 54.6293 43.8687 56.5622 43.7615C58.6951 43.622 60.4253 44.1798 61.4323 45.3108C62.331 46.3437 62.615 47.8208 62.2483 49.5819C61.853 51.1913 61.1169 52.6971 60.0896 53.9975C58.3078 56.4661 55.3744 59.4719 51.4958 59.7611C51.3977 59.7921 51.1601 59.8076 50.8348 59.8076ZM57.1768 44.2521C56.9805 44.2521 56.7791 44.2521 56.5725 44.2521C54.7454 44.3689 52.9976 45.041 51.563 46.1784C51.3557 46.4045 51.1022 46.5832 50.8197 46.7026C50.5372 46.8221 50.2324 46.8793 49.9258 46.8705C49.7347 46.8705 49.4972 46.8705 49.177 46.9221C48.8816 46.9583 48.5919 47.0312 48.3145 47.139C47.7897 47.3379 47.3229 47.6645 46.9562 48.0893C46.5495 48.5991 46.2461 49.1832 46.0628 49.8091C45.6022 51.3001 45.5337 52.8847 45.8639 54.4099C46.1941 55.9351 46.9118 57.3494 47.9478 58.5164C48.5366 59.1723 50.1789 59.3737 51.4545 59.2705C55.1316 58.9967 57.9515 56.0994 59.6661 53.7238C60.6476 52.4807 61.3519 51.042 61.7319 49.5044C62.0624 47.9034 61.8197 46.5813 61.0295 45.6723C60.2393 44.7634 58.8656 44.2521 57.1768 44.2521Z" fill="#231F20"/>
<path d="M57.6268 62.6016V68.0553C57.6268 68.0553 56.346 71.0559 52.7774 70.1521C49.2087 69.2483 48.7749 66.6764 48.7749 66.6764L48.935 56.5695C48.935 56.5695 51.605 55.1854 50.8923 49.4166C53.8086 50.7112 57.0198 51.1964 60.1884 50.8214C60.1884 50.8214 61.2833 57.1272 60.9011 59.9057C60.5138 62.6119 57.6733 62.5654 57.6268 62.6016Z" fill="white"/>
<path d="M54.0629 70.5808C53.6078 70.5767 53.155 70.516 52.7149 70.4001C49.0275 69.4601 48.5369 66.8314 48.5214 66.7229L48.6763 56.5799C48.6777 56.5331 48.6914 56.4876 48.7158 56.4477C48.7403 56.4079 48.7747 56.3751 48.8157 56.3526C48.8157 56.3526 51.3154 54.953 50.6388 49.4632C50.6313 49.4165 50.6376 49.3688 50.6568 49.3256C50.6761 49.2825 50.7075 49.246 50.7473 49.2204C50.7869 49.1963 50.8325 49.1835 50.879 49.1835C50.9254 49.1835 50.971 49.1963 51.0107 49.2204C53.8795 50.4833 57.0329 50.9592 60.1467 50.5994C60.2119 50.593 60.2771 50.6112 60.3296 50.6503C60.3821 50.6895 60.4182 50.7468 60.4307 50.8111C60.472 51.0693 61.5256 57.1893 61.1382 59.9781C60.9162 61.6256 59.7593 62.643 57.8846 62.8547V68.076C57.89 68.1085 57.89 68.1417 57.8846 68.1742C57.5361 68.8924 56.9934 69.4986 56.3179 69.924C55.6424 70.3493 54.8611 70.5769 54.0629 70.5808ZM49.1927 56.7296L49.0326 66.6816C49.0326 66.7333 49.4923 69.047 52.844 69.8991C55.9427 70.6944 57.1926 68.3498 57.3681 67.9986V62.6017C57.3677 62.5633 57.3758 62.5253 57.3919 62.4905C57.408 62.4556 57.4316 62.4248 57.4611 62.4002C57.531 62.3529 57.6143 62.3294 57.6987 62.3331C59.4185 62.1782 60.4307 61.3312 60.627 59.8851C60.9575 57.4836 60.1518 52.2933 59.9607 51.1055C56.975 51.4172 53.9586 50.9843 51.1811 49.8453C51.6717 54.6948 49.7402 56.3578 49.1927 56.7296Z" fill="#231F20"/>
<path d="M51.0468 56.4352C50.931 55.9414 50.6572 55.499 50.267 55.175C49.8919 54.8905 49.4709 54.6722 49.0223 54.5295C48.7848 54.4261 48.5272 54.3767 48.2683 54.3848C48.086 54.4108 47.9105 54.4722 47.7518 54.5656C47.3632 54.7491 47.0534 55.0662 46.879 55.4591C46.7739 55.7931 46.7526 56.1478 46.8171 56.492C46.8576 56.865 46.9462 57.2313 47.0805 57.5817C47.2208 57.931 47.4294 58.2488 47.6941 58.5165C47.9588 58.7842 48.2742 58.9964 48.622 59.1407C48.9697 59.285 49.3427 59.3585 49.7192 59.3568C50.0956 59.3551 50.468 59.2784 50.8144 59.131" fill="white"/>
<path d="M49.6936 59.5803C49.0822 59.5791 48.4847 59.3971 47.9765 59.057C47.4683 58.717 47.0721 58.2342 46.8377 57.6695C46.6912 57.2988 46.5973 56.9094 46.5588 56.5126C46.4883 56.1303 46.5131 55.7365 46.6311 55.3661C46.8279 54.9146 47.1796 54.5483 47.6227 54.3332C47.8078 54.2227 48.0133 54.1506 48.2269 54.1215C48.5262 54.1084 48.8246 54.1631 49.0997 54.2816C49.576 54.4344 50.023 54.6667 50.4218 54.9684C50.8527 55.3298 51.1552 55.8207 51.2843 56.368C51.2927 56.4009 51.2944 56.4352 51.2893 56.4688C51.2842 56.5024 51.2724 56.5346 51.2545 56.5635C51.2367 56.5924 51.2132 56.6174 51.1855 56.6371C51.1578 56.6568 51.1264 56.6706 51.0932 56.6779C51.0268 56.6934 50.9569 56.682 50.8989 56.6462C50.8408 56.6104 50.7993 56.5531 50.7834 56.4868C50.6787 56.0487 50.4361 55.6559 50.0913 55.3661C49.7369 55.1021 49.3406 54.8996 48.919 54.767C48.7198 54.6759 48.5028 54.63 48.2837 54.6327C48.1373 54.6571 47.997 54.7098 47.8706 54.7877C47.5394 54.9432 47.2714 55.2075 47.1114 55.5365C47.0301 55.8291 47.0159 56.1363 47.0701 56.4352C47.1032 56.7895 47.1867 57.1373 47.318 57.4681C47.4483 57.7824 47.6396 58.0679 47.8806 58.3081C48.1217 58.5483 48.4079 58.7384 48.7227 58.8676C49.3604 59.1258 50.0734 59.1258 50.7111 58.8676C50.7418 58.8533 50.7751 58.8454 50.8089 58.8445C50.8428 58.8435 50.8765 58.8495 50.908 58.8621C50.9394 58.8747 50.968 58.8936 50.9918 58.9176C51.0157 58.9417 51.0344 58.9704 51.0467 59.0019C51.0604 59.0331 51.0678 59.0667 51.0684 59.1007C51.0691 59.1348 51.063 59.1686 51.0505 59.2003C51.038 59.232 51.0194 59.2609 50.9957 59.2853C50.972 59.3098 50.9437 59.3293 50.9125 59.3428C50.5264 59.5034 50.1118 59.5842 49.6936 59.5803Z" fill="#231F20"/>
<path d="M57.4143 54.4622C57.4143 54.4622 59.3562 57.2201 58.9224 57.7159C58.4886 58.2116 57.2336 57.9173 57.2336 57.9173" fill="white"/>
<path d="M57.9986 58.2634C57.7224 58.2611 57.4472 58.23 57.1775 58.1704C57.1436 58.163 57.1115 58.1489 57.083 58.129C57.0545 58.1092 57.0302 58.0839 57.0115 58.0546C56.9928 58.0254 56.9801 57.9927 56.974 57.9585C56.9679 57.9244 56.9686 57.8893 56.9761 57.8554C56.9835 57.8215 56.9976 57.7894 57.0175 57.7609C57.0373 57.7324 57.0626 57.7082 57.0919 57.6895C57.1211 57.6707 57.1538 57.658 57.1879 57.6519C57.2221 57.6458 57.2572 57.6465 57.2911 57.654C57.7197 57.7521 58.4893 57.8038 58.7268 57.53C58.8353 57.277 58.1226 55.9032 57.1775 54.5966C57.1426 54.5404 57.1306 54.4729 57.144 54.4081C57.1574 54.3433 57.1952 54.2862 57.2495 54.2484C57.3038 54.2106 57.3706 54.1952 57.436 54.2052C57.5014 54.2152 57.5604 54.2499 57.601 54.3022C58.3705 55.3919 59.5841 57.3028 59.0935 57.8709C58.9469 58.0068 58.7743 58.1116 58.5862 58.179C58.398 58.2465 58.1982 58.2752 57.9986 58.2634Z" fill="#231F20"/>
<path d="M56.3386 53.8916C56.3607 53.5329 56.1709 53.2293 55.9147 53.2135C55.6585 53.1977 55.4329 53.4756 55.4107 53.8343C55.3886 54.193 55.5784 54.4966 55.8346 54.5124C56.0908 54.5282 56.3165 54.2503 56.3386 53.8916Z" fill="#231F20"/>
<path d="M59.9044 54.5221C60.1605 54.5041 60.3476 54.1989 60.3224 53.8404C60.2972 53.4819 60.0692 53.2059 59.8131 53.2239C59.5571 53.2419 59.3699 53.5471 59.3951 53.9056C59.4203 54.2641 59.6483 54.5401 59.9044 54.5221Z" fill="#231F20"/>
<path d="M57.5075 59.9161C56.4333 59.9161 55.0234 59.7508 54.0938 59.002C54.0402 58.9584 54.0059 58.8956 53.9982 58.8271C53.9905 58.7585 54.0099 58.6896 54.0525 58.6353C54.0735 58.6087 54.0997 58.5867 54.1294 58.5704C54.1592 58.5542 54.1919 58.5441 54.2256 58.5407C54.2593 58.5373 54.2933 58.5408 54.3257 58.5508C54.3581 58.5608 54.3881 58.5773 54.414 58.5991C55.8859 59.7818 58.9123 59.3015 58.9432 59.2963C59.0117 59.2854 59.0818 59.3021 59.1379 59.3428C59.1941 59.3834 59.2318 59.4448 59.2428 59.5133C59.2537 59.5817 59.237 59.6518 59.1964 59.7079C59.1557 59.7641 59.0944 59.8018 59.0259 59.8128C58.5231 59.8854 58.0155 59.9199 57.5075 59.9161Z" fill="#231F20"/>
<path d="M61.0042 57.3339C60.4962 57.3354 59.994 57.2256 59.5329 57.0121C59.0719 56.7986 58.6633 56.4866 58.3359 56.0981C58.0085 55.7097 57.7702 55.2541 57.6378 54.7636C57.5055 54.2731 57.4823 53.7595 57.5698 53.2591C57.7311 52.3525 58.245 51.5468 58.999 51.0183C59.7531 50.4898 60.6858 50.2816 61.593 50.4392C62.4546 50.5816 63.2309 51.0435 63.767 51.7329C64.3031 52.4223 64.5596 53.2885 64.4853 54.1587C64.411 55.0288 64.0114 55.839 63.3662 56.4275C62.7209 57.016 61.8775 57.3397 61.0042 57.3339ZM58.0811 53.352C57.9792 53.9284 58.0508 54.522 58.2868 55.0576C58.5228 55.5932 58.9125 56.0466 59.4066 56.3603C59.9007 56.674 60.4769 56.8339 61.062 56.8197C61.6471 56.8054 62.2148 56.6177 62.693 56.2803C63.0119 56.0566 63.2836 55.7723 63.4926 55.4435C63.7016 55.1148 63.8437 54.7481 63.9108 54.3643C63.978 53.9806 63.9688 53.5875 63.8839 53.2073C63.799 52.8271 63.6401 52.4674 63.4161 52.1487C63.0794 51.6703 62.6084 51.3024 62.0628 51.0916C61.5171 50.8807 60.9212 50.8363 60.3503 50.964C59.7794 51.0916 59.2591 51.3856 58.8553 51.8088C58.4514 52.232 58.182 52.7655 58.0811 53.3417V53.352Z" fill="#231F20"/>
<path d="M54.2591 57.0859C54.0566 57.0867 53.8544 57.0694 53.6549 57.0343C53.1925 56.9701 52.7479 56.8134 52.3474 56.5737C51.9469 56.3339 51.5988 56.0159 51.3239 55.6386C51.049 55.2614 50.8529 54.8326 50.7473 54.3779C50.6417 53.9232 50.6287 53.4519 50.7092 52.9922C50.7898 52.5324 50.9621 52.0935 51.2159 51.7017C51.4697 51.31 51.7998 50.9734 52.1865 50.712C52.5733 50.4506 53.0087 50.2698 53.4668 50.1803C53.9249 50.0909 54.3964 50.0946 54.8531 50.1913C55.5294 50.3103 56.1553 50.627 56.6518 51.1013C57.1484 51.5757 57.4932 52.1865 57.643 52.8566C57.7927 53.5268 57.7405 54.2263 57.4931 54.8669C57.2457 55.5075 56.814 56.0604 56.2526 56.4559C55.6684 56.8652 54.9725 57.0852 54.2591 57.0859ZM54.2591 50.6561C53.7198 50.6585 53.1913 50.8083 52.7309 51.0892C52.2704 51.3701 51.8955 51.7716 51.6467 52.2501C51.3979 52.7287 51.2845 53.2661 51.319 53.8044C51.3534 54.3427 51.5343 54.8613 51.8422 55.3042C52.0653 55.6238 52.3496 55.8961 52.6785 56.1053C53.0074 56.3146 53.3744 56.4567 53.7585 56.5234C54.1426 56.5901 54.536 56.5802 54.9162 56.4941C55.2964 56.4081 55.6559 56.2477 55.9738 56.0221C56.2927 55.7984 56.5644 55.514 56.7733 55.1853C56.9823 54.8565 57.1244 54.4898 57.1916 54.1061C57.2587 53.7224 57.2496 53.3292 57.1647 52.949C57.0798 52.5689 56.9208 52.2092 56.6968 51.8905C56.425 51.4994 56.0618 51.1806 55.6388 50.9619C55.2158 50.7432 54.7457 50.6311 54.2695 50.6355L54.2591 50.6561Z" fill="#231F20"/>
<path d="M57.6265 62.6015C57.6265 62.6015 54.2335 63.3865 52.2348 62.2503C52.2348 62.2503 54.4452 66.8209 57.6265 66.3458V62.6015Z" fill="#231F20"/>
<path d="M57.1514 66.6351C54.1043 66.6351 52.0902 62.5396 51.9869 62.3589C51.9607 62.31 51.952 62.2536 51.9624 62.1991C51.9727 62.1446 52.0014 62.0952 52.0437 62.0593C52.0827 62.0212 52.1332 61.997 52.1873 61.9904C52.2415 61.9839 52.2963 61.9954 52.3432 62.0232C54.2334 63.1026 57.5077 62.3589 57.549 62.3537C57.5869 62.3444 57.6263 62.3437 57.6644 62.3517C57.7025 62.3598 57.7383 62.3763 57.7691 62.4002C57.7999 62.424 57.8249 62.4545 57.8423 62.4894C57.8596 62.5243 57.8688 62.5626 57.8692 62.6016V66.3407C57.8686 66.4025 57.8459 66.462 57.8051 66.5084C57.7644 66.5548 57.7083 66.5851 57.6472 66.5938C57.4831 66.6194 57.3174 66.6332 57.1514 66.6351ZM52.839 62.7978C53.5517 63.965 55.2405 66.2632 57.3683 66.1083V62.9218C56.5781 63.0664 54.4968 63.3608 52.839 62.7978Z" fill="#231F20"/>
<path d="M39.1685 65.8655C36.3951 66.3819 25.1623 92.3284 29.0099 95.3031C35.011 99.9512 55.8911 95.2515 55.8911 95.2515L54.192 87.1948C54.192 87.1948 40.7643 87.5719 40.5732 84.814C40.3821 82.0562 48.3819 69.3205 47.3335 67.389C46.2851 65.4575 39.1685 65.8655 39.1685 65.8655Z" fill="#FFD234"/>
<path d="M45.7121 97.9113C45.6782 97.9143 45.644 97.9106 45.6115 97.9005C45.579 97.8903 45.5488 97.8739 45.5227 97.8521C45.4966 97.8302 45.475 97.8035 45.4592 97.7733C45.4434 97.7432 45.4337 97.7102 45.4306 97.6763C45.4276 97.6424 45.4312 97.6082 45.4414 97.5757C45.4516 97.5432 45.468 97.513 45.4898 97.4869C45.5117 97.4607 45.5384 97.4391 45.5686 97.4234C45.5987 97.4076 45.6317 97.3979 45.6656 97.3948L51.9818 96.3103L52.1781 88.9508L40.2997 87.7269C40.2625 87.7243 40.2263 87.7132 40.1941 87.6944C40.1618 87.6756 40.1343 87.6496 40.1138 87.6184C40.0918 87.5873 40.0772 87.5516 40.0709 87.5141C40.0647 87.4765 40.067 87.438 40.0776 87.4015L45.3661 69.2689C45.3853 69.2032 45.4298 69.1477 45.4898 69.1148C45.5499 69.0819 45.6205 69.0742 45.6863 69.0933C45.7513 69.1137 45.8058 69.1584 45.8386 69.2181C45.8713 69.2778 45.8797 69.3478 45.8619 69.4135L40.6974 87.2517L52.4776 88.4654C52.5424 88.4719 52.6024 88.5026 52.6455 88.5515C52.6886 88.6003 52.7116 88.6636 52.71 88.7288L52.5034 96.5375C52.5018 96.5976 52.4792 96.6553 52.4396 96.7005C52.4 96.7458 52.3459 96.7758 52.2865 96.7854L45.7637 97.9113H45.7121Z" fill="#231F20"/>
<path d="M52.7253 89.8856C54.9582 90.0204 57.199 89.9113 59.4082 89.5603C61.0394 89.1642 62.7134 88.9716 64.3919 88.987C66.607 89.094 68.7856 89.5923 70.8269 90.4589C70.9113 90.4859 70.9864 90.536 71.0438 90.6035C71.2401 90.8772 70.7701 91.1199 70.4344 91.1561C69.5463 91.1767 68.6601 91.0635 67.8057 90.8204C69.9177 91.604 71.9151 92.667 73.7448 93.9811C73.9566 94.1308 74.1838 94.3632 74.0805 94.6008C73.9773 94.8384 73.5641 94.7919 73.28 94.6679L68.4771 92.473C69.7216 92.9676 70.8753 93.6658 71.8908 94.5388C72.0354 94.6679 72.1903 94.8332 72.149 95.0243C72.0819 95.3445 71.6016 95.2825 71.302 95.1379C69.8422 94.4106 68.4478 93.5587 67.1343 92.5918L70.0987 94.859C70.1349 95.1018 69.8818 95.3083 69.6339 95.3187C69.3888 95.3014 69.1531 95.2175 68.9522 95.0759L65.6469 93.1651L67.7127 94.6111C68.0381 94.8384 68.4048 95.2051 68.2292 95.5666C68.0536 95.9281 67.408 95.8609 66.9794 95.6699C65.2774 94.9309 63.4984 94.3835 61.6754 94.0379C61.0376 93.8279 60.3771 93.6944 59.7077 93.6402C58.6864 93.7675 57.6786 93.987 56.6968 94.2961C55.2043 94.6318 53.7117 94.9778 52.2192 95.329" fill="white"/>
<path d="M67.7231 96.0934C67.4374 96.0791 67.157 96.0108 66.8968 95.892C65.212 95.1573 63.4503 94.6133 61.6445 94.2703C61.4173 94.229 61.1952 94.1619 60.9731 94.0999C60.5744 93.9612 60.1558 93.888 59.7336 93.883C59.0442 93.9413 58.3634 94.0764 57.704 94.2858C57.3838 94.3736 57.0687 94.4614 56.764 94.5286C55.2715 94.8694 53.779 95.2103 52.2864 95.5615C52.2256 95.5741 52.1622 95.5629 52.1094 95.5303C52.0566 95.4976 52.0183 95.4459 52.0024 95.3859C51.9947 95.3557 51.9932 95.3242 51.998 95.2934C52.0027 95.2627 52.0136 95.2331 52.03 95.2066C52.0464 95.1801 52.0679 95.1572 52.0933 95.1392C52.1188 95.1212 52.1475 95.1085 52.178 95.1018C53.6705 94.7506 55.1682 94.4098 56.6608 94.0689C56.9551 94.0018 57.265 93.9191 57.58 93.8313C58.2744 93.6096 58.9917 93.4675 59.7181 93.4079C60.1886 93.4196 60.6548 93.4996 61.1022 93.6454C61.314 93.7074 61.5205 93.7694 61.7375 93.8107C63.5787 94.1577 65.3751 94.7103 67.093 95.4582C67.3399 95.5946 67.6262 95.642 67.9039 95.5924C67.9317 95.5839 67.9572 95.5692 67.9786 95.5496C68.0001 95.5299 68.0169 95.5058 68.0278 95.4788C68.1363 95.2309 67.7076 94.9056 67.5733 94.8074L65.5075 93.3665C65.4571 93.331 65.4221 93.2776 65.4096 93.2171C65.3971 93.1567 65.4081 93.0938 65.4404 93.0412C65.4742 92.9902 65.5264 92.9543 65.586 92.9408C65.6456 92.9274 65.7082 92.9374 65.7606 92.9689L69.0659 94.8797C69.2282 95.0005 69.4218 95.0722 69.6237 95.0863C69.6633 95.0839 69.702 95.0735 69.7375 95.0558C69.773 95.038 69.8045 95.0133 69.8302 94.983L66.9743 92.7984C66.9454 92.7815 66.9204 92.7586 66.901 92.7313C66.8816 92.704 66.8682 92.6729 66.8617 92.6401C66.8551 92.6073 66.8556 92.5734 66.863 92.5408C66.8705 92.5081 66.8848 92.4774 66.9049 92.4507C66.9251 92.4239 66.9506 92.4018 66.98 92.3856C67.0093 92.3694 67.0417 92.3597 67.0751 92.3569C67.1084 92.3541 67.142 92.3585 67.1736 92.3696C67.2052 92.3807 67.234 92.3984 67.2583 92.4214C68.5598 93.3813 69.9422 94.2262 71.3899 94.9469C71.5371 95.0304 71.7102 95.0562 71.8754 95.0192C71.9064 94.9675 71.8754 94.8952 71.7153 94.7403C71.0206 94.1373 70.258 93.6173 69.4429 93.191L68.3584 92.6745C68.3078 92.6455 68.2696 92.599 68.2511 92.5437C68.2326 92.4885 68.2351 92.4283 68.2581 92.3748C68.281 92.3212 68.3229 92.278 68.3756 92.2532C68.4284 92.2285 68.4884 92.224 68.5443 92.2407C68.9213 92.3905 69.288 92.5609 69.6495 92.7571L73.3576 94.4563C73.4967 94.5306 73.6562 94.5578 73.8121 94.5337C73.874 94.4408 73.7656 94.2962 73.59 94.1722C71.7762 92.8705 69.796 91.8179 67.7025 91.0425C67.6453 91.0215 67.5986 90.9789 67.5725 90.9238C67.5465 90.8688 67.543 90.8057 67.563 90.7481C67.582 90.6901 67.6227 90.6416 67.6766 90.6127C67.7304 90.5839 67.7933 90.5769 67.8522 90.5932C68.6808 90.8323 69.5414 90.942 70.4035 90.9186C70.4843 90.9184 70.5642 90.9014 70.6381 90.8685C70.7119 90.8355 70.778 90.7875 70.8321 90.7275L70.7134 90.6758C68.699 89.8177 66.5481 89.3245 64.361 89.2195C62.9067 89.195 61.455 89.3494 60.0383 89.6791L59.4289 89.7927C57.2093 90.1437 54.9584 90.2545 52.7151 90.1232C52.6839 90.1219 52.6532 90.1144 52.6249 90.1013C52.5966 90.0881 52.5712 90.0694 52.55 90.0464C52.5289 90.0234 52.5126 89.9964 52.5019 89.9671C52.4912 89.9377 52.4865 89.9065 52.4878 89.8753C52.4878 89.8442 52.4941 89.8133 52.5065 89.7846C52.5189 89.756 52.537 89.7302 52.5598 89.7089C52.5825 89.6876 52.6095 89.6712 52.6388 89.6607C52.6682 89.6503 52.6995 89.646 52.7306 89.6481C54.9443 89.7794 57.1658 89.672 59.3566 89.3279L59.966 89.2143C61.4181 88.8762 62.9066 88.72 64.3972 88.7495C66.6408 88.8586 68.8473 89.3639 70.9148 90.242C71.039 90.2842 71.1483 90.3613 71.2298 90.4641C71.28 90.5317 71.3105 90.6119 71.3178 90.6958C71.3251 90.7797 71.3089 90.864 71.2711 90.9392C71.1778 91.0756 71.0531 91.1876 70.9075 91.2657C70.7619 91.3439 70.5997 91.386 70.4345 91.3885C70.2072 91.3885 69.98 91.3885 69.7579 91.3885C71.2075 92.0595 72.5908 92.8653 73.8895 93.7952C74.282 94.0741 74.4318 94.4046 74.3027 94.699C74.275 94.7644 74.2341 94.8234 74.1825 94.8722C74.131 94.9211 74.0699 94.9588 74.0031 94.983C73.7289 95.0524 73.4388 95.0193 73.1872 94.8901L72.0355 94.3736C72.1481 94.4522 72.2383 94.5588 72.2971 94.6829C72.356 94.807 72.3815 94.9442 72.3712 95.0812C72.3548 95.1578 72.3211 95.2298 72.2728 95.2915C72.2245 95.3532 72.1628 95.4032 72.0923 95.4375C71.9444 95.4885 71.7873 95.5075 71.6315 95.4932C71.4757 95.479 71.3247 95.4318 71.1885 95.3549C70.8993 95.2154 70.6152 95.0657 70.326 94.9107C70.3278 95.0509 70.2782 95.1868 70.1866 95.2929C70.1179 95.3732 70.0333 95.4385 69.9382 95.4847C69.8432 95.5309 69.7396 95.557 69.634 95.5615C69.3436 95.5514 69.0622 95.4582 68.8232 95.2929L68.4255 95.0605C68.4713 95.1556 68.495 95.2597 68.495 95.3652C68.495 95.4707 68.4713 95.5749 68.4255 95.6699C68.3902 95.7539 68.3381 95.8298 68.2724 95.8929C68.2067 95.9559 68.1287 96.0048 68.0433 96.0366C67.9405 96.0731 67.8323 96.0923 67.7231 96.0934Z" fill="#231F20"/>
<path d="M61.6441 70.3225C61.6441 70.3225 64.1024 80.3468 66.2922 87.479L61.6441 70.3225Z" fill="white"/>
<path d="M66.3134 87.7115C66.2636 87.7114 66.2151 87.6953 66.1751 87.6655C66.1351 87.6357 66.1057 87.5939 66.0913 87.5462C63.9016 80.4967 61.4433 70.5034 61.4123 70.3794C61.4046 70.3489 61.4031 70.3171 61.4077 70.286C61.4124 70.2549 61.4233 70.225 61.4396 70.1981C61.4559 70.1712 61.4775 70.1478 61.5029 70.1292C61.5284 70.1107 61.5573 70.0975 61.5879 70.0902C61.6488 70.0762 61.7128 70.0868 61.766 70.1197C61.8191 70.1525 61.8572 70.205 61.8719 70.2658C61.8978 70.3639 64.3561 80.3676 66.52 87.4068C66.5378 87.4664 66.5316 87.5306 66.5026 87.5856C66.4737 87.6406 66.4243 87.6821 66.365 87.7011C66.3485 87.7072 66.331 87.7106 66.3134 87.7115Z" fill="#231F20"/>
<path d="M91.1285 99.5742L90.9994 100.979L59.4082 105.596L59.7232 104.124L91.1285 99.5742Z" fill="white"/>
<path d="M59.4082 105.854C59.3725 105.854 59.3372 105.847 59.3044 105.832C59.2715 105.818 59.2419 105.798 59.2171 105.772C59.1888 105.742 59.1683 105.706 59.1574 105.666C59.1466 105.626 59.1458 105.585 59.1552 105.545L59.4702 104.067C59.4832 104.017 59.5106 103.971 59.5491 103.935C59.5875 103.899 59.6355 103.875 59.6871 103.866L91.0924 99.3213C91.1305 99.3164 91.1692 99.3198 91.2057 99.3314C91.2423 99.343 91.2759 99.3625 91.3042 99.3884C91.3323 99.4157 91.3543 99.4488 91.3685 99.4853C91.3828 99.5218 91.389 99.561 91.3868 99.6002L91.2577 101C91.2527 101.057 91.2286 101.111 91.1893 101.153C91.15 101.195 91.0977 101.223 91.0408 101.232L59.4444 105.88L59.4082 105.854ZM59.9247 104.352L59.7233 105.286L90.7464 100.752L90.8239 99.8791L59.9247 104.352Z" fill="#231F20"/>
<path d="M91.1285 99.5744C91.1285 99.5744 83.9343 93.4079 83.6968 93.4647C83.4592 93.5216 51.1604 97.3949 51.1604 97.3949L59.7387 104.109L91.1285 99.5744Z" fill="white"/>
<path d="M59.7237 104.382C59.6669 104.383 59.6119 104.362 59.5687 104.326L50.9853 97.6118C50.9451 97.5802 50.9151 97.5374 50.8993 97.4888C50.8834 97.4402 50.8823 97.388 50.8961 97.3388C50.9099 97.2895 50.9381 97.2455 50.9769 97.2123C51.0158 97.1791 51.0637 97.1581 51.1145 97.1521C51.4347 97.116 83.1344 93.3149 83.6508 93.2271C83.7954 93.1961 84.0072 93.1393 91.2994 99.3935C91.3372 99.4259 91.3649 99.4683 91.3796 99.5159C91.3942 99.5634 91.3951 99.6141 91.3821 99.6621C91.3675 99.7097 91.3399 99.7522 91.3025 99.7851C91.2652 99.8179 91.2194 99.8397 91.1703 99.848L59.7702 104.393L59.7237 104.382ZM51.7962 97.5756L59.796 103.85L90.5299 99.4039C87.9477 97.209 84.2189 94.0586 83.6611 93.7229C81.9775 93.9605 58.1588 96.8113 51.7962 97.5756Z" fill="#231F20"/>
<path d="M59.408 105.596L51.0157 98.7944L51.1448 97.3948L59.723 104.124L59.408 105.596Z" fill="white"/>
<path d="M59.4077 105.854C59.3478 105.854 59.2896 105.834 59.2424 105.798L50.8552 98.9959C50.8226 98.9692 50.7967 98.9352 50.7797 98.8966C50.7626 98.858 50.7549 98.8159 50.7571 98.7738L50.8862 97.3691C50.8916 97.3232 50.909 97.2796 50.9366 97.2426C50.9642 97.2056 51.001 97.1765 51.0433 97.1582C51.0857 97.1399 51.1321 97.133 51.178 97.1383C51.2238 97.1436 51.2675 97.1609 51.3046 97.1883L59.8828 103.902C59.9205 103.933 59.9492 103.973 59.9656 104.018C59.982 104.064 59.9855 104.113 59.9758 104.16L59.6607 105.637C59.6506 105.68 59.6296 105.72 59.5997 105.753C59.5699 105.785 59.5322 105.81 59.4903 105.823C59.465 105.839 59.4369 105.849 59.4077 105.854ZM51.2839 98.6809L59.2424 105.116L59.4386 104.212L51.3562 97.8855L51.2839 98.6809Z" fill="#231F20"/>
<path d="M91.1289 99.5741L97.1972 79.2311L63.8965 84.9069L59.7236 104.124L91.1289 99.5741Z" fill="white"/>
<path d="M59.7231 104.382C59.6881 104.382 59.6536 104.374 59.6216 104.36C59.5897 104.346 59.5609 104.325 59.5372 104.3C59.5089 104.269 59.4882 104.232 59.4765 104.191C59.4649 104.151 59.4626 104.109 59.47 104.067L63.6429 84.8555C63.6527 84.8049 63.6778 84.7585 63.7147 84.7225C63.7516 84.6865 63.7987 84.6626 63.8495 84.6541L97.1554 78.9731C97.1985 78.9648 97.243 78.9678 97.2846 78.9819C97.3262 78.9959 97.3635 79.0206 97.3926 79.0534C97.4218 79.0863 97.442 79.1261 97.4511 79.1691C97.4602 79.2121 97.4579 79.2566 97.4446 79.2985L91.3763 99.6466C91.3604 99.6929 91.3324 99.7341 91.2951 99.7659C91.2579 99.7977 91.2128 99.8189 91.1645 99.8274L59.7644 104.372L59.7231 104.382ZM64.1129 85.1344L60.0588 103.814L90.927 99.3419L96.83 79.5567L64.1129 85.1344Z" fill="#231F20"/>
<path d="M108.982 69.0365C108.919 69.0368 108.859 69.0137 108.812 68.9717C108.765 68.9297 108.736 68.8718 108.729 68.8093C108.554 67.0998 109.829 64.9979 109.886 64.9101C109.904 64.8808 109.927 64.8552 109.954 64.8349C109.982 64.8146 110.013 64.8 110.046 64.7918C110.079 64.7837 110.113 64.7822 110.147 64.7874C110.181 64.7926 110.213 64.8045 110.242 64.8223C110.3 64.8594 110.34 64.9173 110.356 64.9837C110.371 65.0502 110.36 65.1201 110.325 65.1786C110.325 65.1786 109.086 67.2444 109.24 68.7524C109.244 68.7864 109.241 68.8207 109.231 68.8534C109.221 68.8861 109.205 68.9165 109.183 68.9429C109.162 68.9694 109.135 68.9912 109.105 69.0073C109.075 69.0233 109.042 69.0333 109.008 69.0365H108.982Z" fill="#231F20"/>
<path d="M130.1 96.1967C130.051 96.1957 130.002 96.1814 129.961 96.1554L124.192 92.4472C124.134 92.4103 124.092 92.3517 124.077 92.2844C124.062 92.217 124.075 92.1465 124.112 92.0883C124.149 92.0301 124.207 91.989 124.275 91.9739C124.342 91.9589 124.412 91.9713 124.471 92.0083L130.239 95.7164C130.297 95.7544 130.338 95.8136 130.352 95.8813C130.367 95.9489 130.354 96.0195 130.317 96.0779C130.293 96.1133 130.26 96.1425 130.223 96.1632C130.185 96.1838 130.143 96.1953 130.1 96.1967Z" fill="#D1D3D4"/>
<path d="M132.186 95.2671C132.137 95.2685 132.089 95.2559 132.047 95.2309L126.567 91.6881C126.51 91.6504 126.469 91.5914 126.455 91.5241C126.441 91.4568 126.454 91.3867 126.492 91.3291C126.53 91.2716 126.589 91.2314 126.656 91.2173C126.723 91.2033 126.794 91.2166 126.851 91.2542L132.325 94.7713C132.383 94.8093 132.424 94.8685 132.438 94.9362C132.453 95.0038 132.44 95.0744 132.403 95.1328C132.381 95.1714 132.349 95.2039 132.311 95.2273C132.274 95.2508 132.23 95.2644 132.186 95.2671Z" fill="#D1D3D4"/>
<path d="M134.195 94.5802C134.146 94.5786 134.098 94.5643 134.056 94.5389L128.514 90.9857C128.457 90.9481 128.417 90.8891 128.403 90.8218C128.389 90.7545 128.402 90.6843 128.44 90.6268C128.477 90.5693 128.536 90.5291 128.604 90.515C128.671 90.501 128.741 90.5142 128.799 90.5519L134.319 94.1051C134.377 94.1421 134.417 94.2004 134.432 94.2672C134.446 94.334 134.434 94.4039 134.397 94.4614C134.376 94.4963 134.346 94.5254 134.311 94.5461C134.276 94.5668 134.236 94.5785 134.195 94.5802Z" fill="#D1D3D4"/>
<path d="M136.721 93.8985C136.675 93.8994 136.63 93.8868 136.592 93.8623L130.647 90.3608C130.614 90.3459 130.585 90.3243 130.561 90.2973C130.537 90.2704 130.519 90.2387 130.508 90.2042C130.497 90.1698 130.493 90.1335 130.497 90.0976C130.501 90.0617 130.512 90.027 130.53 89.9957C130.548 89.9645 130.573 89.9374 130.602 89.9162C130.632 89.8951 130.665 89.8803 130.7 89.8728C130.736 89.8654 130.772 89.8654 130.808 89.873C130.843 89.8805 130.876 89.8954 130.905 89.9167L136.85 93.4182C136.898 93.447 136.936 93.4908 136.957 93.543C136.978 93.5952 136.982 93.6529 136.967 93.7073C136.953 93.7617 136.921 93.8099 136.876 93.8444C136.832 93.8789 136.777 93.8979 136.721 93.8985Z" fill="#D1D3D4"/>
<path d="M138.523 93.2838C138.476 93.2848 138.429 93.2722 138.389 93.2476L132.444 89.7461C132.386 89.7098 132.345 89.6523 132.328 89.5857C132.312 89.5192 132.322 89.4489 132.357 89.3897C132.373 89.3601 132.395 89.3341 132.422 89.3135C132.449 89.2928 132.48 89.2779 132.513 89.2697C132.546 89.2614 132.58 89.2601 132.614 89.2656C132.647 89.2712 132.679 89.2835 132.708 89.3019L138.652 92.8035C138.701 92.8322 138.738 92.876 138.76 92.9282C138.781 92.9804 138.784 93.0382 138.77 93.0926C138.755 93.147 138.723 93.1952 138.679 93.2297C138.634 93.2642 138.579 93.2832 138.523 93.2838Z" fill="#D1D3D4"/>
</svg>
