<svg xmlns="http://www.w3.org/2000/svg" width="134" height="85" fill="none"><path fill="#D1D3D4" d="M133.546 69.603H.52a.215.215 0 0 1-.215-.215.22.22 0 0 1 .215-.215h133.026a.219.219 0 0 1 .215.215.214.214 0 0 1-.215.215Z"/><path fill="#fff" d="M11.092 23.278C4.67 27.953 3.81 37.7 3.647 45.02c-.164 6.882 1.372 13.454 2.808 20.167 1.402 6.568 6.731 10.15 13.092 11.613 9.462 2.189 19.784 2.443 29.388 1.384 9.604-1.058 9.853-10.52 8.89-18.265-.267-2.15-1.776-3.48-3.406-4.641a20.335 20.335 0 0 1-5.196-5.01c-4.554-6.594-4.817-14.43-7.853-21.604-2.4-5.681-7.742-9.638-13.94-9.44-6.197.198-12.068.95-16.338 4.055Z"/><path fill="#231F20" d="M38.028 79.018A82.755 82.755 0 0 1 19.5 77.022c-9.338-2.15-12.361-7.608-13.256-11.793l-.3-1.41C4.57 57.453 3.276 51.445 3.431 45.015c.357-14.825 4.214-19.496 7.535-21.913 4.52-3.286 10.855-3.914 16.46-4.094 6.046-.185 11.612 3.56 14.14 9.57a62.683 62.683 0 0 1 2.719 8.601c1.16 4.408 2.365 8.963 5.118 12.971 1.217 1.773 2.752 3.256 5.16 4.96 1.652 1.174 3.218 2.58 3.493 4.786.886 7.093.16 12.004-2.223 15.019-1.566 1.983-3.871 3.157-6.856 3.488-3.636.404-7.292.61-10.95.615ZM11.22 23.459c-6.168 4.486-7.174 13.888-7.36 21.573-.15 6.379 1.136 12.366 2.5 18.705l.305 1.41c.86 4.065 3.815 9.346 12.933 11.463 8.825 2.047 18.962 2.524 29.31 1.38 2.864-.314 5.075-1.436 6.568-3.325 2.305-2.92 3.01-7.741 2.15-14.7-.258-2.051-1.746-3.372-3.316-4.49-2.43-1.72-4-3.247-5.247-5.062-2.796-4.069-4.004-8.666-5.161-13.11a63.04 63.04 0 0 0-2.701-8.55c-2.469-5.844-7.862-9.509-13.733-9.306-5.535.18-11.793.795-16.218 4.012h-.03Z"/><path fill="#D1D3D4" d="M27.951 59.621c-1.15 0-2.298-.065-3.44-.194a32.917 32.917 0 0 1-6.452-1.397c-2.856-.925-4.774-1.983-6.215-3.42-2.189-2.189-3.01-5.16-3.341-7.238-.732-4.834 0-10.176.529-12.928a13.148 13.148 0 0 1 6.425-9.058c2.314-1.346 5.075-2.215 8.434-2.654 3.527-.46 6.064-.081 7.987 1.187 3.14 2.073 4.034 6.06 4.68 9.966l1.096 6.627c.267 1.647.636 3.901 1.931 4.963a8.22 8.22 0 0 0 1.467.886c.907.456 1.84.934 2.37 1.97.649 1.29.924 3.44.258 4.856-.74 1.557-2.25 2.58-3.316 3.213A24.206 24.206 0 0 1 27.95 59.62Zm-1.346-36.648c-.875.007-1.748.069-2.615.185-3.303.43-6.021 1.29-8.27 2.58a12.7 12.7 0 0 0-6.22 8.766c-.529 2.744-1.26 8.03-.529 12.804.306 2.03 1.114 4.89 3.222 6.997 1.389 1.39 3.251 2.413 6.02 3.316a31.968 31.968 0 0 0 6.345 1.376c5.827.658 11.225-.37 15.608-2.967 1.019-.607 2.455-1.579 3.144-3.01.61-1.291.352-3.287-.25-4.478-.464-.912-1.29-1.333-2.18-1.78a8.527 8.527 0 0 1-1.544-.934c-1.424-1.166-1.807-3.518-2.086-5.23l-1.097-6.627c-.628-3.811-1.497-7.7-4.49-9.673-1.312-.895-2.963-1.325-5.058-1.325Z"/><path fill="#D1D3D4" d="M12.115 52.899a.219.219 0 0 1-.202-.134.214.214 0 0 1 .12-.28c2.761-1.143 4.602-.86 4.68-.86a.217.217 0 1 1-.065.43s-1.81-.257-4.451.835a.184.184 0 0 1-.082.009Z"/><path fill="#fff" d="M122.975 23.278c6.43 4.675 7.268 14.421 7.445 21.741.163 6.882-1.372 13.454-2.809 20.167-1.402 6.568-6.731 10.15-13.092 11.613-9.462 2.189-19.784 2.443-29.388 1.384-9.603-1.058-9.853-10.52-8.89-18.265.267-2.15 1.777-3.48 3.407-4.641a20.335 20.335 0 0 0 5.195-5.01c4.555-6.594 4.817-14.43 7.854-21.604 2.4-5.681 7.741-9.638 13.939-9.44 6.197.198 12.068.95 16.339 4.055Z"/><path fill="#231F20" d="M96.038 79.018a100.418 100.418 0 0 1-10.941-.606c-2.985-.332-5.29-1.506-6.856-3.489-2.383-3.01-3.11-7.926-2.224-15.018.276-2.22 1.841-3.613 3.493-4.787 2.387-1.72 3.922-3.187 5.16-4.959 2.753-4.008 3.958-8.563 5.119-12.971a62.677 62.677 0 0 1 2.718-8.602c2.542-6.021 8.107-9.75 14.141-9.57 5.592.18 11.94.809 16.46 4.095 6.322 4.597 7.346 14.124 7.535 21.934.155 6.43-1.14 12.438-2.512 18.804l-.301 1.41c-.894 4.185-3.918 9.626-13.255 11.793a82.76 82.76 0 0 1-18.537 1.966Zm10.133-59.589c-5.699 0-10.886 3.617-13.294 9.316a63.036 63.036 0 0 0-2.701 8.55c-1.17 4.443-2.378 9.032-5.161 13.11-1.247 1.814-2.817 3.328-5.247 5.061-1.57 1.118-3.058 2.439-3.316 4.49-.86 6.972-.172 11.78 2.15 14.7 1.493 1.889 3.703 3.011 6.568 3.325 10.348 1.145 20.485.667 29.31-1.38 9.118-2.116 12.043-7.398 12.933-11.462l.305-1.41c1.364-6.34 2.65-12.327 2.499-18.705-.352-14.623-4.116-19.217-7.359-21.573-4.425-3.218-10.683-3.833-16.218-4.013l-.469-.009Z"/><path fill="#D1D3D4" d="M106.115 59.621A24.204 24.204 0 0 1 93.668 56.4c-1.067-.633-2.58-1.656-3.316-3.213-.667-1.41-.391-3.574.258-4.856.529-1.036 1.462-1.514 2.37-1.97a8.216 8.216 0 0 0 1.466-.886c1.29-1.062 1.665-3.316 1.931-4.963l1.097-6.627c.645-3.906 1.54-7.893 4.68-9.966 1.922-1.268 4.46-1.647 7.986-1.187 3.359.43 6.121 1.29 8.434 2.654A13.148 13.148 0 0 1 125 34.444c.512 2.752 1.26 8.094.529 12.928-.314 2.095-1.153 5.05-3.342 7.239-1.441 1.436-3.359 2.494-6.215 3.419a32.91 32.91 0 0 1-6.451 1.398 31.035 31.035 0 0 1-3.406.193Zm1.346-36.648c-2.103 0-3.755.43-5.079 1.29-3.011 1.974-3.871 5.862-4.49 9.673l-1.097 6.628c-.28 1.72-.663 4.064-2.086 5.23a8.53 8.53 0 0 1-1.544.933c-.86.43-1.72.86-2.18 1.78-.603 1.192-.861 3.188-.25 4.478.688 1.45 2.124 2.421 3.144 3.01 4.382 2.58 9.776 3.626 15.608 2.968a31.966 31.966 0 0 0 6.343-1.376c2.792-.904 4.654-1.927 6.022-3.316 2.107-2.108 2.916-4.968 3.221-6.998.723-4.774 0-10.06-.529-12.782a12.696 12.696 0 0 0-6.219-8.765c-2.262-1.316-4.968-2.15-8.271-2.58a20.725 20.725 0 0 0-2.593-.173Z"/><path fill="#D1D3D4" d="M121.951 52.899a.186.186 0 0 1-.082 0c-2.641-1.093-4.43-.835-4.451-.835a.219.219 0 0 1-.248-.182.242.242 0 0 1 .004-.085.22.22 0 0 1 .179-.163c.078 0 1.918-.28 4.68.86a.214.214 0 0 1 .135.197.212.212 0 0 1-.015.083.218.218 0 0 1-.202.125Z"/><path fill="#fff" d="M90.597 27.812 77.266 20.5s-.77-2.202-1.596-2.877c-.826-.675-.314 1.72-.314 1.72s-4.559-2.912-5.028-2.124c-.468.787-1.247 3.995.31 5.238 1.372 1.088 3.927 1.363 3.927 1.363 7.122 5.742 17.173 12.086 17.173 12.086"/><path fill="#231F20" d="M91.738 36.112a.215.215 0 0 1-.112-.034c-.103-.065-10.103-6.387-17.152-12.043-.43-.051-2.671-.37-3.97-1.402-1.63-1.29-.907-4.61-.361-5.518a.471.471 0 0 1 .314-.219c.86-.207 3.522 1.355 4.598 2.013-.1-.624-.143-1.355.171-1.549.117-.068.306-.107.577.112.787.633 1.475 2.469 1.626 2.878L90.7 27.66a.216.216 0 0 1-.206.379l-13.333-7.312a.191.191 0 0 1-.099-.116s-.744-2.15-1.518-2.761l-.086-.06a4.165 4.165 0 0 0 .12 1.556.21.21 0 0 1-.086.224.224.224 0 0 1-.24 0c-1.467-.938-4.043-2.37-4.684-2.215h-.043c-.482.8-1.153 3.837.258 4.96 1.29 1.04 3.789 1.32 3.815 1.32.04.005.079.021.111.047C81.742 29.35 91.768 35.69 91.867 35.75a.22.22 0 0 1 .069.297.223.223 0 0 1-.198.064Z"/><path fill="#fff" d="M87.294 69.225s.968 11.044.572 11.759c-.395.713-9.87 2.15-10.042 1.14-.172-1.011 4.636-3.011 4.636-3.011l-1.058-9.032"/><path fill="#231F20" d="M79.252 82.678a5.389 5.389 0 0 1-.93-.06c-.279-.047-.657-.146-.713-.456-.176-1.054 3.312-2.62 4.62-3.166l-1.042-8.868a.216.216 0 1 1 .43-.052l1.058 9.032a.215.215 0 0 1-.133.224c-2.236.92-4.597 2.237-4.507 2.757 0 0 .124.138 1.045.163 2.761.09 8.245-.954 8.602-1.38.258-.542-.233-7.42-.603-11.613a.216.216 0 0 1 .43-.038c.164 1.853.955 11.147.547 11.879-.409.73-6.15 1.578-8.804 1.578Z"/><path fill="#fff" d="M101.307 72.124s1.329 9.758.641 10.038c-.689.28-10.043.722-9.892-.099.15-.821 4.765-2.387 4.765-2.387l-1.669-9.514"/><path fill="#231F20" d="M95.754 82.76c-1.82 0-3.41-.108-3.78-.404a.34.34 0 0 1-.134-.327c.147-.86 3.44-2.056 4.731-2.495l-1.643-9.337a.215.215 0 0 1 .177-.245.212.212 0 0 1 .219.093.21.21 0 0 1 .03.079l1.673 9.513a.22.22 0 0 1-.146.245c-2.078.702-4.357 1.72-4.602 2.151.258.146 1.488.331 4.73.258a37.352 37.352 0 0 0 4.818-.331c.297-.542-.142-5.385-.748-9.82a.214.214 0 0 1 .042-.16.22.22 0 0 1 .227-.08.207.207 0 0 1 .13.1.207.207 0 0 1 .026.08c.62 4.53 1.209 9.983.512 10.267-.404.185-3.587.413-6.262.413ZM91.002 52.559c-.228.783-2.224 21.29-2.224 21.29h-8.047s-3.703-20.593-2.485-25.677c.834-3.5 4.636-5.213 8.507-4.077 5.759-.228 11.677-.964 11.677-.964l-7.428 9.428Z"/><path fill="#231F20" d="M88.778 74.063h-8.047a.21.21 0 0 1-.21-.176c-.151-.86-3.7-20.696-2.487-25.767a5.767 5.767 0 0 1 2.749-3.668 7.743 7.743 0 0 1 5.995-.577c5.673-.223 11.565-.95 11.612-.954a.211.211 0 0 1 .194.344l-7.398 9.389c-.215 1.027-1.66 15.603-2.206 21.216a.215.215 0 0 1-.202.193Zm-7.866-.43h7.672c.215-2.219 1.992-20.373 2.211-21.134a.241.241 0 0 1 .039-.073l7.105-9.032c-1.57.18-6.451.718-11.182.903h-.07a7.311 7.311 0 0 0-5.694.525 5.252 5.252 0 0 0-2.541 3.393c-1.132 4.74 2.103 23.414 2.46 25.418Z"/><path fill="#231F20" d="M115.844 45.996s2.533 4.206-1.381 8.941c-3.914 4.736-15.053-.245-15.053-.245l2.783 18.528-8.172-.081s-8.516-25.225-7.535-27.836c.98-2.61 7.956-3.815 7.956-3.815l21.402 4.508Z"/><path fill="#231F20" d="m102.18 73.435-8.172-.081a.215.215 0 0 1-.202-.147c-.348-1.032-8.533-25.327-7.535-27.981.998-2.654 7.832-3.897 8.124-3.948a.254.254 0 0 1 .082 0l21.41 4.507a.225.225 0 0 1 .142.103c.025.043 2.58 4.387-1.402 9.187-1.652 2-4.839 2.58-9.209 1.72a32.971 32.971 0 0 1-5.754-1.759l2.727 18.15a.216.216 0 0 1-.048.172.22.22 0 0 1-.163.077Zm-8.017-.516 7.767.082-2.748-18.283a.214.214 0 0 1 .189-.246.215.215 0 0 1 .112.018c.112.052 11.049 4.86 14.812.305 1.97-2.382 2.237-4.614 2.112-6.068a6.877 6.877 0 0 0-.705-2.542L94.43 41.708c-.568.103-6.882 1.29-7.742 3.668-.791 2.07 5.08 20.443 7.475 27.543Z"/><path fill="#fff" d="M89.32 58.976a.211.211 0 0 1-.198-.133c-.185-.47-4.511-11.531-3.152-14.305a1.153 1.153 0 0 1 .722-.65.217.217 0 0 1 .228.072c.018.022.031.047.039.075a.22.22 0 0 1-.146.266.734.734 0 0 0-.456.43c-1.29 2.607 3.118 13.845 3.165 13.957a.214.214 0 0 1-.124.28l-.078.008ZM99.397 54.907a.207.207 0 0 1-.112-.03c-.108-.065-2.645-1.613-3.363-2.71a.212.212 0 0 1 .06-.296.216.216 0 0 1 .297.06c.666 1.02 3.204 2.58 3.23 2.58a.219.219 0 0 1 .073.297.223.223 0 0 1-.185.1Z"/><path fill="#1EBCC3" d="M115.844 45.996s8.984-22.137 2.348-27.216c-6.636-5.08-16.094-2.817-17.384 1.93-1.29 4.749-6.378 20.778-6.378 20.778s16.3 4.86 21.414 4.508Z"/><path fill="#231F20" d="m106.451 21.192-1.553 15.626 8.564-16.73-7.011 1.104Z"/><path fill="#231F20" d="M104.881 37.033a.164.164 0 0 1-.064 0 .207.207 0 0 1-.151-.228l1.557-15.625a.215.215 0 0 1 .181-.194l7.006-1.1a.213.213 0 0 1 .211.085.22.22 0 0 1 0 .224l-8.568 16.73a.217.217 0 0 1-.172.108Zm1.751-15.655-1.428 14.33 7.857-15.341-6.429 1.01Z"/><path fill="#1EBCC3" d="M101.396 18.805 90.18 26.741l1.023 10.077 12.021-5.08s1.992-11.148-1.828-12.933Z"/><path fill="#fff" d="M105.741 19.034a5.865 5.865 0 0 1 2.507-.271c1.321.232 2.529.86 3.871 1.057 1.48.134 2.968.134 4.447 0 .43-.021 0 .56.362.31 1.213-.886 1.152-2.64 1.148-3.957a33.413 33.413 0 0 0-1.131-9.031c-.43-1.532-2.129-7.136-4.611-4.731.559-.547-2.15-1.82-2.537-1.927-3.518-.977-6.71 2.116-7.497 5.333-.572 2.335-.615 4.653-1.72 6.847-.49.968-1.127 1.922-1.17 3.01a3.544 3.544 0 0 0 2 3.131c1.199.551 2.55.674 3.828.349l.503-.12Z"/><path fill="#231F20" d="M116.802 20.405a.26.26 0 0 1-.116-.03.298.298 0 0 1-.124-.305v-.03l-.676.03a20.714 20.714 0 0 1-3.797-.034 11.826 11.826 0 0 1-2.099-.56 12.031 12.031 0 0 0-1.785-.498 5.408 5.408 0 0 0-2.297.232l-.124.03-.512.125a6.022 6.022 0 0 1-3.97-.37 3.741 3.741 0 0 1-2.12-3.325c.101-.92.415-1.803.916-2.58.094-.177.189-.353.279-.53.74-1.453.998-2.945 1.291-4.524.124-.744.258-1.51.43-2.275a8.041 8.041 0 0 1 3.574-4.886 5.327 5.327 0 0 1 4.189-.602c.245.069 2.249.946 2.684 1.682a1.604 1.604 0 0 1 1.393-.314c1.505.404 2.581 3.17 3.221 5.419a33.32 33.32 0 0 1 1.14 9.1v.164c0 1.29 0 3.058-1.239 3.97a.458.458 0 0 1-.258.111Zm-.219-.817a.404.404 0 0 1 .301.112c.031.033.056.07.073.112.921-.817.912-2.297.908-3.497v-.159a33.056 33.056 0 0 0-1.123-8.989c-.86-3.01-1.897-4.847-2.916-5.118a1.376 1.376 0 0 0-1.337.504.217.217 0 0 1-.306-.005.215.215 0 0 1 .005-.305c.077-.323-1.846-1.398-2.448-1.566a4.896 4.896 0 0 0-3.87.56 7.583 7.583 0 0 0-3.372 4.619c-.185.748-.314 1.51-.43 2.245-.263 1.544-.538 3.135-1.291 4.649-.09.176-.189.353-.284.533a5.694 5.694 0 0 0-.86 2.383 3.301 3.301 0 0 0 1.884 2.929 5.591 5.591 0 0 0 3.686.331l.499-.12.125-.03a5.817 5.817 0 0 1 2.473-.241 13.06 13.06 0 0 1 1.849.516c.656.242 1.332.423 2.021.542 1.235.124 2.479.134 3.716.03l.688-.035h.009Z"/><path fill="#fff" d="M103.638 7.068s-1.174 3.609-.473 6.306a3.978 3.978 0 0 0 3.148 3.01l.138 4.804s.051 2.46 3.049 1.992a5.16 5.16 0 0 0 3.961-3.097l.086-8.847s-3.471-1.867-3.269-5.045c0 .004-4 2.086-6.64.877Z"/><path fill="#231F20" d="M108.782 23.46a2.582 2.582 0 0 1-1.721-.556 2.474 2.474 0 0 1-.821-1.72l-.138-4.606a4.247 4.247 0 0 1-3.148-3.136c-.705-2.726.43-6.279.482-6.451a.21.21 0 0 1 .204-.147c.03 0 .06.006.088.018 2.516 1.153 6.413-.86 6.451-.86a.228.228 0 0 1 .22 0 .22.22 0 0 1 .073.084.207.207 0 0 1 .021.11c-.193 3.01 3.123 4.825 3.153 4.842a.209.209 0 0 1 .084.079.207.207 0 0 1 .032.11l-.086 8.852a.199.199 0 0 1 0 .068 5.325 5.325 0 0 1-4.129 3.235 4.68 4.68 0 0 1-.765.077Zm-5.007-16.1c-.236.822-.98 3.734-.404 5.958a3.738 3.738 0 0 0 2.968 2.855.216.216 0 0 1 .189.207l.138 4.804c.033.534.274 1.034.67 1.393.486.43 1.205.538 2.151.396a4.977 4.977 0 0 0 3.776-2.929l.082-8.679c-.594-.348-3.226-2.052-3.273-4.826-1.002.46-4.021 1.69-6.297.822Z"/><path fill="#fff" d="M111.861 10.668s1.39-3.38 3.123-1.324c1.733 2.056-.637 4.43-2.125 4.275"/><path fill="#231F20" d="M113.001 13.842h-.163a.211.211 0 0 1-.146-.078.214.214 0 0 1-.04-.074.227.227 0 0 1 .016-.165.226.226 0 0 1 .054-.065.213.213 0 0 1 .159-.047c.748.077 1.754-.581 2.223-1.472a2.09 2.09 0 0 0-.284-2.451 1.25 1.25 0 0 0-1.105-.576c-.783.12-1.458 1.372-1.651 1.845a.218.218 0 0 1-.282.118.215.215 0 0 1-.118-.282c.034-.082.804-1.922 1.987-2.107.52-.082 1.023.163 1.501.727a2.535 2.535 0 0 1 .335 2.928c-.525.994-1.574 1.7-2.486 1.7ZM105.586 13.477a1.608 1.608 0 0 1-.68-.13.383.383 0 0 1-.206-.262c-.16-.615.997-2.31 1.359-2.817a.205.205 0 0 1 .137-.088.209.209 0 0 1 .159.037.218.218 0 0 1 .059.06.222.222 0 0 1 .028.164.238.238 0 0 1-.035.077c-.774 1.092-1.381 2.245-1.29 2.464.45.096.917.073 1.354-.069a.227.227 0 0 1 .238.075.227.227 0 0 1 .021.248.22.22 0 0 1-.134.107 3.7 3.7 0 0 1-1.01.134ZM106.313 16.389s2.581.249 4.039-.173c0 0-1.501 3.832-3.94 3.871l-.099-3.698Z"/><path fill="#231F20" d="M106.412 20.315a.215.215 0 0 1-.215-.21l-.099-3.712a.209.209 0 0 1 .017-.09.206.206 0 0 1 .129-.12.217.217 0 0 1 .09-.01c.026 0 2.551.241 3.957-.163a.212.212 0 0 1 .273.166c.008.04.004.08-.011.118-.064.163-1.582 3.965-4.137 4.021h-.004Zm.12-3.694.086 3.247c1.72-.207 2.933-2.43 3.363-3.342a15.125 15.125 0 0 1-3.449.095ZM108.279 9.848c.01-.366-.152-.667-.361-.672-.209-.005-.386.287-.395.652-.01.366.152.667.361.672.209.005.386-.287.395-.652ZM104.797 9.763c.009-.366-.152-.667-.361-.672-.209-.006-.386.287-.396.652-.009.366.153.667.362.672.209.005.386-.287.395-.652Z"/><path fill="#fff" d="M118.028 14.427c.185 2.826.43 8.021-4.06 6.74a3.815 3.815 0 0 1-2.206-1.742c-.86-1.54 1.454-3.768 2.55-4.77"/><path fill="#231F20" d="M115.246 21.584a4.895 4.895 0 0 1-1.338-.206 3.983 3.983 0 0 1-2.353-1.85c-.89-1.565 1.054-3.621 2.581-5.032a.22.22 0 0 1 .305 0 .214.214 0 0 1 0 .305c-.825.758-3.333 3.054-2.507 4.504.46.8 1.212 1.39 2.099 1.647 1.127.322 2.013.232 2.632-.267 1.484-1.2 1.26-4.61 1.153-6.25a.214.214 0 0 1 .356-.177.23.23 0 0 1 .052.067c.012.025.02.053.022.08.12 1.846.348 5.274-1.316 6.616a2.581 2.581 0 0 1-1.686.563ZM108.244 14.457c0 .228-.382.43-.86.43-.477 0-.284-.189-.284-.43 0-.24-.189-.43.284-.43s.86.202.86.43Z"/><path fill="#1EBCC3" d="M118.974 19.94s-3.969 3.317-3.987 6.121c-.017 2.804 3.011 15.913 3.011 15.913l8.271-4.61s-3.226-16.288-7.295-17.423Z"/><path fill="#231F20" d="M94.881 40.276h-.06a.216.216 0 0 1-.142-.271l5.927-19.354a.21.21 0 0 1 .099-.145.216.216 0 0 1 .308.093.221.221 0 0 1 .001.176L95.088 40.13a.215.215 0 0 1-.207.147ZM118.08 41.295a.209.209 0 0 1-.21-.168c-3.351-14.945-3.144-15.122-3.011-15.23a.22.22 0 0 1 .305 0 .2.2 0 0 1 .048.1.208.208 0 0 1-.009.111c0 .702 1.836 9.269 3.101 14.903a.218.218 0 0 1-.086.224.222.222 0 0 1-.078.034l-.06.026Z"/><path fill="#fff" d="m106.536 41.08-15.418 5.81-6.847-4.916 13.478-4.068 8.787 3.174Z"/><path fill="#231F20" d="M91.118 47.114a.229.229 0 0 1-.129-.039l-6.842-4.92a.215.215 0 0 1-.09-.21.218.218 0 0 1 .15-.168l13.479-4.065a.25.25 0 0 1 .137 0l8.779 3.166a.228.228 0 0 1 .142.202.212.212 0 0 1-.04.123.214.214 0 0 1-.102.08l-15.41 5.831a.204.204 0 0 1-.074 0Zm-6.37-5.053 6.4 4.597 14.765-5.565-8.171-2.95-12.993 3.917Z"/><path fill="#fff" d="M125.306 37.91s1.72 8.7-2.963 9.53c-4.684.83-20.214-2.21-20.214-2.21s-5.394.95-5.05-.43c.344-1.38 3.712-1.991 3.712-1.991s-2.778-1.346-1.41-1.342a41.94 41.94 0 0 1 4.343.486l14.365-1.914"/><path fill="#231F20" d="M120.217 47.802c-5.884 0-17.156-2.15-18.064-2.352-.813.142-4.37.705-5.118-.104a.592.592 0 0 1-.138-.576c.289-1.123 2.258-1.759 3.286-2.017-1.462-.774-1.393-1.08-1.363-1.2.065-.28.43-.28.585-.28 1.457.085 2.908.245 4.348.482l14.335-1.91a.215.215 0 0 1 .16.044.214.214 0 0 1 .083.144.217.217 0 0 1-.187.243l-14.365 1.91a.165.165 0 0 1-.065 0 42.226 42.226 0 0 0-4.3-.483h-.065c.49.366 1.018.678 1.574.934a.22.22 0 0 1 .094.093.223.223 0 0 1-.032.249.22.22 0 0 1-.113.066c-.9.168-3.29.83-3.544 1.833a.16.16 0 0 0 .034.176c.465.503 3.17.245 4.765-.035h.082c.155.03 15.539 3.011 20.115 2.211a3.068 3.068 0 0 0 2.035-1.32c1.754-2.55.8-7.742.757-7.957a.227.227 0 0 1 .047-.18.21.21 0 0 1 .219-.074.207.207 0 0 1 .155.168l-.211.043.215-.039c.108.568.998 5.635-.83 8.284a3.452 3.452 0 0 1-2.314 1.497c-.721.112-1.45.163-2.18.15Z"/><path fill="#fff" d="M65.484 75.001c.447.43 1.017.706 1.63.791.719 0 8.508-1.436 8.83-.37.323 1.067-.314 1.6-2.176 2.478-2.495 1.174-10.868 3.93-10.868 3.93l-1.833-4.3L65.484 75Z"/><path fill="#231F20" d="M62.9 82.029a.19.19 0 0 1-.18-.12l-1.833-4.302a.193.193 0 0 1 .082-.245l4.417-2.529a.198.198 0 0 1 .245.039c.409.39.929.644 1.488.727.525-.036 1.048-.1 1.566-.194 4.64-.65 7.2-.86 7.449-.038.37 1.225-.405 1.828-2.284 2.713-2.473 1.17-10.804 3.914-10.89 3.944l-.06.005Zm-1.583-4.417 1.695 3.978c1.204-.4 8.412-2.804 10.67-3.87 1.914-.904 2.34-1.364 2.073-2.246-.193-.64-5.329.078-7.014.314-.947.133-1.45.19-1.63.198a3.062 3.062 0 0 1-1.656-.748l-4.138 2.374Z"/><path fill="#fff" d="M41.275 79.616s8.348 2.868 8.705 3.415c.357.546-.275 1.187-2.499 1.385-2.223.198-11.737-.319-11.737-.319s-.12-2.58.478-3.87c.597-1.29 5.053-.611 5.053-.611Z"/><path fill="#231F20" d="M45.894 84.656c-3.406 0-9.836-.344-10.159-.36a.203.203 0 0 1-.189-.19c0-.108-.112-2.64.495-3.974.64-1.407 4.791-.783 5.264-.71h.03c1.974.68 8.443 2.934 8.808 3.497a.67.67 0 0 1 .06.68c-.253.52-1.19.86-2.705 1.001-.365.044-.924.056-1.604.056Zm-9.96-.744c1.324.07 9.517.486 11.53.306 1.944-.172 2.318-.641 2.383-.783a.276.276 0 0 0-.03-.297c-.332-.387-5.437-2.245-8.602-3.329-1.669-.266-4.443-.365-4.83.486-.465 1.054-.465 3.02-.452 3.617Z"/><path fill="#1EBCC3" d="M19.625 52.421s-6.813-17.027-6.099-25.427c.714-8.4 6.198-8.911 8.12-9.031 1.923-.12 12.017-1.467 15.703 3.053s2.74 26.292 2.74 26.292L19.624 52.42Z"/><path fill="#231F20" d="m31.65 21.842-.125 17.062-7.243-18.206 7.368 1.144Z"/><path fill="#231F20" d="M31.524 39.119a.22.22 0 0 1-.202-.134l-7.243-18.21a.228.228 0 0 1 .035-.215.21.21 0 0 1 .202-.077l7.367 1.148a.215.215 0 0 1 .185.211l-.129 17.066a.216.216 0 0 1-.176.206l-.039.005Zm-6.881-18.154 6.692 16.838.116-15.776-6.808-1.062ZM40.505 42.994s8.327 2.228 15.772 7.285c3.415 2.319 9.793 25.062 9.793 25.062s-.714 3.94-5.264 3.324L40.918 52.9s-4.266-10.004-.413-9.905Z"/><path fill="#231F20" d="M61.734 78.94c-.32 0-.641-.023-.959-.068a.228.228 0 0 1-.142-.082L40.75 53.023a.177.177 0 0 1-.03-.047c-.125-.297-3.11-7.35-1.626-9.535a1.55 1.55 0 0 1 1.415-.667h.052c.082.022 8.447 2.297 15.836 7.312 3.44 2.34 9.617 24.253 9.892 25.186a.24.24 0 0 1 0 .094 4.52 4.52 0 0 1-4.555 3.575Zm-.813-.481c3.996.494 4.83-2.667 4.925-3.114-.336-1.191-6.452-22.696-9.69-24.894-7.13-4.842-15.174-7.109-15.681-7.247h-.026a1.114 1.114 0 0 0-.998.478c-1.312 1.935 1.458 8.636 1.656 9.1L60.921 78.46Z"/><path fill="#231F20" d="M19.624 52.421s15.776-6.417 19.818-7.01c0 0 5.785 2.15 8.757 7.63 2.972 5.479-6.924 26.575-6.924 26.575a7.81 7.81 0 0 1-5.41.955l-.13-22.081s-19.057 1.888-16.111-6.069Z"/><path fill="#231F20" d="M37.305 80.923c-.498 0-.995-.048-1.484-.142a.215.215 0 0 1-.172-.21l-.129-21.844c-1.815.159-12.881.959-15.741-2.749-.766-.985-.86-2.206-.357-3.63a.214.214 0 0 1 .12-.124c.645-.263 15.845-6.452 19.87-7.028a.232.232 0 0 1 .108 0c.056.021 5.892 2.25 8.868 7.742 2.977 5.492-6.516 25.904-6.92 26.768a.197.197 0 0 1-.077.09 7.896 7.896 0 0 1-4.086 1.127Zm-1.239-.533a7.69 7.69 0 0 0 5.028-.92c.563-1.222 9.72-21.152 6.903-26.326-2.753-5.066-8.017-7.286-8.602-7.514-3.9.611-18.348 6.452-19.62 6.955-.43 1.239-.327 2.288.322 3.13 2.907 3.768 15.483 2.581 15.595 2.581a.219.219 0 0 1 .163.052.215.215 0 0 1 .074.16l.137 21.882Z"/><path fill="#fff" d="M47.842 62.128h-.039a.22.22 0 0 1-.176-.25c.555-3.156 1.127-8.136.43-8.92-2.292-2.528-7.987-6.743-8.043-6.786a.215.215 0 0 1-.047-.297.22.22 0 0 1 .301-.047c.056.043 5.785 4.3 8.107 6.843 1.08 1.187-.163 8.46-.31 9.285a.21.21 0 0 1-.223.172Z"/><path fill="#1EBCC3" d="M37.357 21.016s2.731 5.247 4.34 7.944c1.608 2.697 5.1 6.563 5.1 6.563s12.37 4.4 12.452 4.636c.081.237-1.175 4.396-1.175 4.396s-12.975-.933-15.126-1.948c-2.15-1.015-6.503-6.021-6.503-6.021l.912-15.57Z"/><path fill="#fff" d="m28.845 23.726-.911 1.436.997.594.1 6.881 2.494 6.267.125-5.798-2.078-7.548.62-.727-1.347-1.105Z"/><path fill="#231F20" d="M31.525 39.119a.22.22 0 0 1-.202-.134l-2.49-6.266a.5.5 0 0 1 0-.078l-.095-6.765-.899-.529a.232.232 0 0 1-.099-.138.203.203 0 0 1 .03-.163l.912-1.436a.22.22 0 0 1 .146-.1.223.223 0 0 1 .172.048l1.347 1.105a.215.215 0 0 1 .025.306l-.559.64 2.047 7.441a.332.332 0 0 1 0 .065l-.128 5.793a.215.215 0 0 1-.177.206l-.03.005Zm-2.28-6.52 2.09 5.242.104-4.705-2.073-7.527a.23.23 0 0 1 .043-.197l.477-.56-.989-.812-.662 1.045.808.482a.21.21 0 0 1 .104.18l.099 6.851Z"/><path fill="#fff" d="M23.83 4.221c.249-.094.507-.16.77-.193 1.05-.12 1.067.107 1.876-.572a7.698 7.698 0 0 1 4.3-1.635c3.012-.198 5.2 1.312 4.512 4.615a9.685 9.685 0 0 1-1.763 3.596c-1.72 2.357-4.099 4.49-6.997 4.73-.86.065-2.473 0-3.097-.7a7.806 7.806 0 0 1-1.6-7.48c.159-.547.423-1.059.779-1.505a3.05 3.05 0 0 1 1.22-.856Z"/><path fill="#231F20" d="M25.998 14.973c-.765 0-2.12-.103-2.74-.79a7.99 7.99 0 0 1-1.634-7.67 4.515 4.515 0 0 1 .822-1.573 3.303 3.303 0 0 1 2.15-1.123c.217-.027.435-.043.654-.047.43 0 .563 0 1.105-.478a7.772 7.772 0 0 1 4.413-1.681c1.776-.116 3.217.348 4.056 1.29.748.86.985 2.09.68 3.557a9.642 9.642 0 0 1-1.798 3.677c-1.484 2.056-3.927 4.559-7.157 4.8-.082.026-.28.038-.55.038ZM31.28 2.02h-.503a7.483 7.483 0 0 0-4.172 1.604 1.78 1.78 0 0 1-1.364.577c-.159 0-.357 0-.623.043a2.98 2.98 0 0 0-.719.18 2.808 2.808 0 0 0-1.13.792 4.182 4.182 0 0 0-.745 1.432 7.561 7.561 0 0 0 1.57 7.251c.49.546 1.858.714 2.92.628 3.063-.228 5.41-2.64 6.839-4.619a9.251 9.251 0 0 0 1.72-3.514c.275-1.333.073-2.434-.585-3.191-.658-.757-1.802-1.183-3.208-1.183Z"/><path fill="#fff" d="M31.654 17.3v4.542s-1.067 2.499-4.039 1.746c-2.971-.753-3.333-2.894-3.333-2.894l.134-8.417s2.223-1.153 1.63-5.957a14.795 14.795 0 0 0 7.741 1.17s.912 5.251.594 7.565c-.323 2.254-2.688 2.215-2.727 2.245Z"/><path fill="#231F20" d="M28.686 23.945a4.57 4.57 0 0 1-1.122-.15c-3.071-.783-3.48-2.972-3.493-3.063l.13-8.447a.224.224 0 0 1 .115-.189s2.082-1.165 1.519-5.737a.201.201 0 0 1 .2-.233.21.21 0 0 1 .11.03 14.696 14.696 0 0 0 7.608 1.149.22.22 0 0 1 .236.176c.035.215.912 5.312.59 7.634-.186 1.372-1.149 2.22-2.71 2.396v4.348a.249.249 0 0 1 0 .082 3.558 3.558 0 0 1-3.183 2.004ZM24.63 12.41l-.133 8.288c0 .043.383 1.97 3.174 2.68 2.58.662 3.622-1.29 3.768-1.583V17.3a.215.215 0 0 1 .077-.168.327.327 0 0 1 .198-.055c1.432-.13 2.275-.835 2.439-2.039.275-2-.396-6.322-.555-7.312a15.13 15.13 0 0 1-7.312-1.049c.409 4.039-1.2 5.424-1.656 5.733Z"/><path fill="#fff" d="M26.175 12.165a1.939 1.939 0 0 0-.65-1.05 3.442 3.442 0 0 0-1.036-.537 1.458 1.458 0 0 0-.628-.12 1.175 1.175 0 0 0-.43.15 1.493 1.493 0 0 0-.727.744 1.776 1.776 0 0 0-.052.86c.034.31.108.616.22.908a2.356 2.356 0 0 0 3.11 1.29"/><path fill="#231F20" d="M25.048 14.784a2.58 2.58 0 0 1-2.379-1.591 3.558 3.558 0 0 1-.232-.963 1.969 1.969 0 0 1 .06-.955 1.72 1.72 0 0 1 .826-.86c.154-.093.325-.153.503-.177.25-.01.498.035.727.133.397.128.769.321 1.101.572.359.301.61.71.718 1.166a.21.21 0 0 1-.159.258.215.215 0 0 1-.258-.159 1.75 1.75 0 0 0-.576-.933 3.28 3.28 0 0 0-.977-.5 1.234 1.234 0 0 0-.529-.111.956.956 0 0 0-.344.129c-.275.13-.499.35-.632.624-.068.243-.08.5-.034.748.027.295.097.585.206.86a2.15 2.15 0 0 0 1.17 1.166 2.207 2.207 0 0 0 1.656 0 .205.205 0 0 1 .234.041c.02.02.035.044.045.07a.216.216 0 0 1-.111.284 2.58 2.58 0 0 1-1.015.198Z"/><path fill="#fff" d="M31.478 10.522s1.617 2.297 1.255 2.71c-.36.412-1.406.167-1.406.167"/><path fill="#231F20" d="M31.964 13.688a3.297 3.297 0 0 1-.684-.078.22.22 0 0 1-.167-.262.22.22 0 0 1 .262-.168c.357.082.998.125 1.196-.103.09-.211-.504-1.355-1.29-2.443a.215.215 0 0 1 .352-.245c.64.907 1.652 2.498 1.243 2.972a1.232 1.232 0 0 1-.912.326ZM30.581 10.047c.019-.299-.14-.552-.352-.565-.214-.013-.402.218-.42.517-.019.299.14.552.353.565.213.013.401-.219.42-.517ZM33.551 10.572c.213-.015.37-.27.348-.568-.02-.298-.21-.528-.424-.513-.213.015-.37.269-.348.567.02.299.21.529.424.514ZM31.555 15.064c-.895 0-2.069-.138-2.843-.761a.22.22 0 0 1-.035-.306.212.212 0 0 1 .302-.03c1.225.985 3.746.585 3.771.58a.218.218 0 0 1 .07.43c-.42.061-.842.09-1.265.087Z"/><path fill="#231F20" d="M34.467 12.913a2.895 2.895 0 0 1-2.86-3.393 2.899 2.899 0 0 1 3.35-2.348 2.89 2.89 0 0 1-.49 5.741Zm-2.434-3.316a2.46 2.46 0 0 0 3.84 2.439 2.467 2.467 0 1 0-3.196-3.724c-.336.353-.56.797-.644 1.277v.008Z"/><path fill="#231F20" d="M28.85 12.707a2.83 2.83 0 0 1-.504-.043 2.893 2.893 0 0 1-1.223-5.265 2.895 2.895 0 0 1 2.22-.434 2.894 2.894 0 0 1 1.166 5.217 2.898 2.898 0 0 1-1.66.525Zm0-5.355a2.464 2.464 0 0 0-1.317 4.538 2.46 2.46 0 0 0 2.744-.07 2.47 2.47 0 0 0-.279-4.213 2.434 2.434 0 0 0-1.14-.272l-.009.017ZM31.654 17.3s-2.826.654-4.49-.292c0 0 1.84 3.806 4.49 3.41V17.3Z"/><path fill="#231F20" d="M31.258 20.66c-2.537 0-4.214-3.411-4.3-3.562a.202.202 0 0 1 .047-.25.206.206 0 0 1 .25-.03c1.573.9 4.3.28 4.335.276a.215.215 0 0 1 .266.206v3.114a.214.214 0 0 1-.185.21 2.869 2.869 0 0 1-.413.035Zm-3.59-3.196c.593.972 2 2.886 3.771 2.757v-2.654c-.658.12-2.391.366-3.772-.103Z"/><path fill="#1EBCC3" d="M16.282 20.018c-2.31.43-11.664 22.038-8.46 24.515 4.998 3.871 22.387-.043 22.387-.043l-1.415-6.709s-11.183.314-11.342-1.983c-.159-2.296 6.503-12.902 5.63-14.51-.873-1.61-6.8-1.27-6.8-1.27Z"/><path fill="#231F20" d="M21.732 46.705a.216.216 0 1 1-.039-.43l5.26-.903.164-6.129-9.892-1.019a.202.202 0 0 1-.155-.09.21.21 0 0 1-.03-.18l4.404-15.101a.215.215 0 0 1 .267-.147.22.22 0 0 1 .146.267l-4.301 14.855 9.81 1.011a.215.215 0 0 1 .194.22l-.172 6.502a.215.215 0 0 1-.181.207l-5.432.937h-.043Z"/><path fill="#fff" d="M27.572 40.022c1.86.112 3.726.021 5.565-.271 1.359-.33 2.753-.49 4.15-.478 1.845.09 3.66.505 5.36 1.226.07.023.132.064.18.12.164.228-.228.43-.507.46a7.374 7.374 0 0 1-2.19-.279 21.008 21.008 0 0 1 4.947 2.632c.176.125.365.319.28.517-.087.197-.431.159-.668.055l-4-1.828a10.06 10.06 0 0 1 2.843 1.72c.12.108.25.246.216.405-.056.267-.456.215-.706.095a23.616 23.616 0 0 1-3.47-2.12l2.468 1.887c.03.203-.18.375-.387.383a1.123 1.123 0 0 1-.568-.202l-2.752-1.591 1.72 1.204c.271.19.576.495.43.796-.146.3-.684.245-1.04.086a20.827 20.827 0 0 0-4.418-1.36 7.06 7.06 0 0 0-1.638-.33c-.85.105-1.69.288-2.508.546-1.243.28-2.486.567-3.729.86"/><path fill="#231F20" d="M40.062 45.191a1.885 1.885 0 0 1-.688-.167 20.523 20.523 0 0 0-4.375-1.35c-.189-.035-.374-.091-.559-.143a3.258 3.258 0 0 0-1.032-.18 7.74 7.74 0 0 0-1.69.335c-.267.073-.529.147-.783.202a582.52 582.52 0 0 0-3.729.86.202.202 0 0 1-.236-.146.194.194 0 0 1 .146-.236c1.243-.293 2.49-.577 3.733-.86.245-.056.503-.125.766-.198a8.012 8.012 0 0 1 1.78-.353c.392.01.78.077 1.153.198.176.052.348.103.529.138 1.533.289 3.03.749 4.46 1.372.206.113.444.153.675.111a.165.165 0 0 0 .103-.094c.09-.207-.266-.478-.378-.56l-1.72-1.2a.202.202 0 0 1-.056-.27.198.198 0 0 1 .266-.06l2.753 1.59c.135.101.296.161.464.173a.245.245 0 0 0 .172-.086l-2.378-1.82a.198.198 0 1 1 .237-.313c1.084.799 2.235 1.503 3.44 2.103.123.07.267.09.405.06.025-.043 0-.103-.134-.232a9.855 9.855 0 0 0-1.892-1.29l-.903-.43a.198.198 0 0 1 .154-.362c.315.125.62.267.92.43l3.089 1.415a.607.607 0 0 0 .378.065c.052-.078-.038-.198-.184-.301a20.798 20.798 0 0 0-4.904-2.607.194.194 0 0 1-.116-.245.198.198 0 0 1 .241-.129c.69.2 1.407.29 2.125.271a.482.482 0 0 0 .357-.16l-.1-.042a15.38 15.38 0 0 0-5.29-1.213 14.78 14.78 0 0 0-3.599.383l-.508.094a26.048 26.048 0 0 1-5.59.276.197.197 0 0 1-.19-.207.19.19 0 0 1 .202-.189c1.844.11 3.694.02 5.518-.267l.508-.094a14.963 14.963 0 0 1 3.69-.387c1.868.09 3.706.511 5.428 1.243.103.035.194.099.262.185a.38.38 0 0 1 .034.395.86.86 0 0 1-.696.374h-.564c1.207.56 2.36 1.23 3.44 2.005.328.232.453.507.345.752a.43.43 0 0 1-.25.237.967.967 0 0 1-.679-.078l-.96-.43a.658.658 0 0 1 .28.59.431.431 0 0 1-.232.296.919.919 0 0 1-.752-.069c-.241-.116-.478-.24-.719-.37a.477.477 0 0 1-.116.319.639.639 0 0 1-.46.224 1.264 1.264 0 0 1-.675-.224l-.331-.194a.585.585 0 0 1 0 .508.555.555 0 0 1-.319.305.821.821 0 0 1-.266.047Z"/><path fill="#fff" d="M35 23.73s2.047 8.348 3.87 14.287L35 23.73Z"/><path fill="#231F20" d="M38.888 38.211a.194.194 0 0 1-.185-.137c-1.823-5.871-3.87-14.193-3.896-14.296a.198.198 0 0 1 .146-.241.198.198 0 0 1 .237.146c.021.082 2.068 8.412 3.87 14.275a.198.198 0 0 1-.172.253Z"/><path fill="#fff" d="m59.554 48.09-.108 1.17-26.308 3.845.262-1.226 26.154-3.789Z"/><path fill="#231F20" d="M33.138 53.32a.224.224 0 0 1-.16-.069.205.205 0 0 1-.05-.189l.262-1.23a.229.229 0 0 1 .18-.168l26.154-3.784a.219.219 0 0 1 .176.055.23.23 0 0 1 .07.177l-.108 1.165a.215.215 0 0 1-.181.194l-26.313 3.87-.03-.02Zm.43-1.251-.168.778 25.836-3.776.064-.727-25.732 3.725Z"/><path fill="#fff" d="M59.554 48.09s-5.991-5.135-6.189-5.088c-.198.048-27.096 3.273-27.096 3.273l7.144 5.592 26.141-3.777Z"/><path fill="#231F20" d="M33.4 52.094a.198.198 0 0 1-.129-.047l-7.148-5.591a.214.214 0 0 1-.074-.227.216.216 0 0 1 .182-.156c.266-.03 26.665-3.195 27.096-3.269.12-.025.296-.073 6.37 5.136a.22.22 0 0 1 .068.223.224.224 0 0 1-.176.155l-26.15 3.785-.038-.009ZM26.8 46.426l6.662 5.225 25.594-3.703c-2.15-1.828-5.255-4.451-5.72-4.73-1.402.197-21.238 2.571-26.536 3.208Z"/><path fill="#fff" d="m33.137 53.105-6.989-5.664.108-1.166L33.4 51.88l-.263 1.226Z"/><path fill="#231F20" d="M33.137 53.32a.224.224 0 0 1-.138-.047l-6.984-5.664a.225.225 0 0 1-.082-.185l.108-1.17a.219.219 0 0 1 .348-.15l7.144 5.59a.219.219 0 0 1 .077.216l-.262 1.23a.217.217 0 0 1-.142.154.194.194 0 0 1-.07.026Zm-6.765-5.974 6.627 5.36.164-.753-6.731-5.269-.06.662Z"/><path fill="#fff" d="m59.554 48.09 5.054-16.941-27.733 4.727L33.4 51.879l26.154-3.789Z"/><path fill="#231F20" d="M33.4 52.094a.215.215 0 0 1-.206-.159.228.228 0 0 1-.005-.103l3.475-16a.21.21 0 0 1 .172-.167l27.737-4.73a.211.211 0 0 1 .24.27L59.76 48.151a.229.229 0 0 1-.176.15l-26.15 3.785-.034.008Zm3.656-16.029-3.377 15.556 25.707-3.724 4.916-16.477-27.246 4.645ZM74.422 22.66a.211.211 0 0 1-.21-.19c-.147-1.424.915-3.174.962-3.247a.214.214 0 0 1 .297-.073.22.22 0 0 1 .069.296s-1.032 1.72-.903 2.977a.215.215 0 0 1-.194.236h-.021Z"/><path fill="#D1D3D4" d="M92.008 45.278a.229.229 0 0 1-.116-.035l-4.804-3.088a.217.217 0 0 1 .232-.366l4.804 3.088a.22.22 0 0 1 .065.302.228.228 0 0 1-.181.099ZM93.746 44.503a.215.215 0 0 1-.116-.03l-4.564-2.95a.216.216 0 0 1 .237-.362l4.559 2.93a.22.22 0 0 1 .064.3.224.224 0 0 1-.18.112ZM95.418 43.931a.241.241 0 0 1-.116-.034l-4.615-2.96a.216.216 0 1 1 .237-.36l4.598 2.959a.215.215 0 0 1 .064.296.206.206 0 0 1-.168.1ZM97.522 43.364a.194.194 0 0 1-.107-.03l-4.95-2.916a.214.214 0 0 1-.098-.304.214.214 0 0 1 .312-.066l4.95 2.916a.216.216 0 0 1-.107.4ZM99.023 42.852a.207.207 0 0 1-.112-.03l-4.95-2.916a.219.219 0 0 1-.074-.297.208.208 0 0 1 .293-.073l4.95 2.916a.216.216 0 0 1-.107.4Z"/></svg>