<svg xmlns="http://www.w3.org/2000/svg" width="112" height="108" fill="none"><path fill="#fff" d="M67.762 81.318c1.451.1 2.591-1.399 3.515-2.758-1.195 1.8.346 4.363 1.672 5.571a12.115 12.115 0 0 0 3.881 2.211 17.84 17.84 0 0 0 6.96 1.274 11.559 11.559 0 0 0 6.632-2.272 11.399 11.399 0 0 0 4.078-7.14 16.61 16.61 0 0 0-.91-8.268 7.017 7.017 0 0 0-1.25-2.322 6.58 6.58 0 0 0-2.987-1.734 15.288 15.288 0 0 0-4.705-.727c-2.22 0-3.806-.146-5.8-1.063a26.81 26.81 0 0 0-4.84-1.745c-3.108-.758-6.974-.717-8.31 2.773-1.335 3.49-2.771 15.87 2.064 16.2Z"/><path fill="#231F20" d="M83.237 87.867a18.408 18.408 0 0 1-6.527-1.299 12.055 12.055 0 0 1-3.957-2.261c-1.034-.943-2.254-2.733-2.184-4.408-.813 1.003-1.727 1.735-2.837 1.66a2.92 2.92 0 0 1-2.31-1.47c-2.234-3.51-1.084-12.169 0-15.042 1.507-4.011 6.026-3.545 8.592-2.923a26.853 26.853 0 0 1 4.885 1.76c1.923.888 3.425 1.033 5.7 1.043h.04a15.522 15.522 0 0 1 4.74.737 6.67 6.67 0 0 1 3.092 1.805 7.214 7.214 0 0 1 1.296 2.402 16.821 16.821 0 0 1 .919 8.389 11.659 11.659 0 0 1-4.168 7.29 11.82 11.82 0 0 1-6.768 2.322l-.513-.005Zm-11.78-9.176c-1.074 1.624.312 4.051 1.638 5.26a11.601 11.601 0 0 0 3.8 2.166 17.524 17.524 0 0 0 6.865 1.258c2.341-.053 4.61-.829 6.492-2.221a11.163 11.163 0 0 0 3.987-6.99 16.345 16.345 0 0 0-.9-8.143 6.805 6.805 0 0 0-1.2-2.241 6.202 6.202 0 0 0-2.881-1.665 15.002 15.002 0 0 0-4.59-.717h-.15c-2.23 0-3.826-.18-5.79-1.083a26.534 26.534 0 0 0-4.795-1.73c-2.405-.581-6.638-1.002-8.034 2.623-1.044 2.737-2.179 11.322-.06 14.626a2.462 2.462 0 0 0 1.938 1.248c1.286.086 2.325-1.223 3.274-2.652a.246.246 0 0 1 .337-.07.24.24 0 0 1 .065.336l.005-.005Z"/><path fill="#fff" d="M66.874 107.251h33.982c3.827-11.282 10.685-31.694 10.59-32.933-.136-1.714-12.698-26.018-18.121-29.849-5.423-3.83-15.475 3.039-15.475 3.039l1.325 9.903 8.2-.657 1.637 14.817s-7.853.105-11.825 2.747c-3.972 2.643-9.65 11.247-10.313 16.908-.663 5.661 0 12.415 0 12.415v3.61Z"/><path fill="#231F20" d="M100.857 107.492H66.874a.241.241 0 0 1-.24-.241v-3.61c0-.045-.659-6.804 0-12.445.677-5.816 6.391-14.396 10.423-17.078 3.615-2.407 10.253-2.738 11.684-2.783l-1.582-14.32-7.968.641a.246.246 0 0 1-.256-.21l-1.326-9.908a.245.245 0 0 1 .106-.23 32.205 32.205 0 0 1 5.754-2.98c4.253-1.654 7.707-1.669 9.997-.054 5.398 3.81 18.076 28.164 18.222 30.024.09 1.209-5.715 18.628-10.6 33.029a.245.245 0 0 1-.088.12.245.245 0 0 1-.143.045Zm-33.742-.486h33.566c6.754-19.901 10.59-31.805 10.545-32.668-.146-1.84-12.684-25.903-18.021-29.668-4.906-3.47-13.914 2.196-15.064 2.953l1.27 9.527 7.974-.642a.246.246 0 0 1 .261.216l1.607 14.801a.23.23 0 0 1-.06.186.241.241 0 0 1-.176.08c-.08 0-7.833.136-11.694 2.708-3.861 2.572-9.565 11.187-10.208 16.732-.642 5.546 0 12.3 0 12.365v3.41Z"/><path fill="#231F20" d="M97.367 23.445 92.301 74.82a3.074 3.074 0 0 1-2.175 2.65 3.085 3.085 0 0 1-1.2.118l-11.191-1.103-74.011-7.276a3.08 3.08 0 0 1-2.772-3.37l5.061-51.374a3.07 3.07 0 0 1 2.171-2.651 3.083 3.083 0 0 1 1.199-.117l40.851 4.011 44.372 4.367c.812.084 1.559.485 2.076 1.117.518.63.764 1.44.685 2.253Z"/><path fill="#231F20" d="M89.238 77.823H88.9L3.688 69.43a3.301 3.301 0 0 1-2.967-3.61l5.071-51.375a3.301 3.301 0 0 1 2.33-2.841c.416-.127.853-.17 1.285-.128l85.198 8.404a3.307 3.307 0 0 1 2.968 3.605l-5.051 51.36a3.308 3.308 0 0 1-3.284 2.978ZM9.07 11.903a2.874 2.874 0 0 0-2.837 2.582L1.163 65.86a2.855 2.855 0 0 0 2.56 3.128l85.214 8.379a2.875 2.875 0 0 0 3.138-2.567l5.071-51.375a2.866 2.866 0 0 0-2.57-3.129L9.361 11.917a2.777 2.777 0 0 0-.291-.015Z"/><path fill="#1EBCC3" d="M106.264 22.723 95.183 73.145a3.08 3.08 0 0 1-2.475 2.376c-.4.071-.81.063-1.206-.024l-10.956-2.412-72.675-15.92a3.085 3.085 0 0 1-2.386-2.482c-.07-.4-.06-.812.03-1.208L16.604 3.072a3.075 3.075 0 0 1 2.481-2.38c.401-.07.812-.06 1.209.029l40.093 8.79 43.538 9.527a3.084 3.084 0 0 1 2.34 3.685Z"/><path fill="#231F20" d="M92.175 75.913c-.25 0-.499-.026-.743-.08L7.796 57.486a3.432 3.432 0 0 1-2.643-2.745 3.42 3.42 0 0 1 .027-1.337L16.276 2.997A3.416 3.416 0 0 1 19.021.358a3.43 3.43 0 0 1 1.338.027l83.626 18.327a3.44 3.44 0 0 1 2.616 4.081L95.519 73.22a3.43 3.43 0 0 1-3.344 2.693ZM19.605.992a2.734 2.734 0 0 0-2.666 2.15L5.853 53.57a2.74 2.74 0 0 0 2.088 3.26l83.652 18.33a2.75 2.75 0 0 0 3.269-2.09l11.066-50.422a2.74 2.74 0 0 0-2.094-3.26L20.203 1.058a2.695 2.695 0 0 0-.598-.065Z"/><path fill="#fff" d="m33.483 25.492-7.465-1.636a2.445 2.445 0 0 0-2.912 1.862l-1.25 5.68a2.442 2.442 0 0 0 1.865 2.91l7.465 1.636a2.445 2.445 0 0 0 2.912-1.862l1.249-5.681a2.442 2.442 0 0 0-1.864-2.909Z"/><path fill="#231F20" d="M25.495 23.8c.17.001.338.02.503.056l7.466 1.635a2.447 2.447 0 0 1 1.91 1.954 2.44 2.44 0 0 1-.017.959l-1.245 5.676a2.447 2.447 0 0 1-2.39 1.92 2.738 2.738 0 0 1-.528-.055l-7.461-1.64a2.448 2.448 0 0 1-1.886-1.955 2.44 2.44 0 0 1 .018-.953l1.25-5.676a2.447 2.447 0 0 1 2.39-1.92m0-.371a2.84 2.84 0 0 0-2.751 2.211l-1.25 5.676a2.81 2.81 0 0 0 2.149 3.35l7.461 1.64c.2.04.403.063.608.064a2.84 2.84 0 0 0 2.751-2.21l1.245-5.677a2.815 2.815 0 0 0-2.149-3.354l-7.461-1.635a2.707 2.707 0 0 0-.602-.065Z"/><path fill="#D1D3D4" d="m27.501 24.184-2.297 10.451.49.108 2.298-10.452-.49-.107ZM31.51 25.062l-2.298 10.451.49.108L32 25.169l-.49-.107Z"/><path fill="#D1D3D4" d="m23.16 25.477-.108.49 12.241 2.683.108-.49-12.242-2.683ZM21.91 31.167l-.108.49 12.241 2.683.108-.49-12.242-2.683ZM22.767 27.273l-.108.49 3.88.85.107-.49-3.88-.85ZM22.308 29.36l-.108.49 3.88.85.107-.49-3.88-.85ZM30.893 29.045l-.11.504 4.114.902.11-.504-4.114-.902ZM30.435 31.13l-.11.505 4.114.902.11-.504-4.114-.902Z"/><path fill="#fff" d="m30.58 40.142-8.455-1.853a1.742 1.742 0 0 0-2.076 1.326l-.1.46a1.74 1.74 0 0 0 1.327 2.073l8.456 1.854a1.742 1.742 0 0 0 2.075-1.327l.101-.46a1.74 1.74 0 0 0-1.328-2.073ZM46.54 43.638l-8.455-1.853a1.742 1.742 0 0 0-2.076 1.326l-.1.46a1.74 1.74 0 0 0 1.327 2.073l8.455 1.853c.94.206 1.87-.388 2.076-1.326l.101-.46a1.74 1.74 0 0 0-1.328-2.073ZM62.5 47.14l-8.455-1.854a1.742 1.742 0 0 0-2.076 1.327l-.101.46a1.74 1.74 0 0 0 1.328 2.072L61.651 51a1.742 1.742 0 0 0 2.076-1.327l.1-.46a1.74 1.74 0 0 0-1.327-2.073ZM78.463 50.641l-8.455-1.853a1.742 1.742 0 0 0-2.075 1.326l-.101.46a1.74 1.74 0 0 0 1.328 2.073l8.455 1.853a1.742 1.742 0 0 0 2.076-1.326l.1-.46a1.74 1.74 0 0 0-1.328-2.073Z"/><path fill="#231F20" d="M41.834 54.548a.18.18 0 0 1-.07 0l-23.846-5.235a.346.346 0 0 1 .15-.672l23.841 5.225a.347.347 0 0 1 .266.41.351.351 0 0 1-.341.272ZM51.87 56.749h-.075l-3.68-.807a.345.345 0 1 1 .146-.672l3.685.807a.347.347 0 0 1-.075.682v-.01ZM59.528 58.424h-.07l-3.681-.808a.347.347 0 0 1-.11-.628.343.343 0 0 1 .26-.044l3.681.808a.341.341 0 0 1-.075.677l-.005-.005ZM52.177 59.2a.377.377 0 0 1-.241-.095.351.351 0 0 1 0-.5l3.48-3.646a.346.346 0 0 1 .501 0 .34.34 0 0 1 0 .501l-3.49 3.63a.341.341 0 0 1-.25.11Z"/><path fill="#fff" d="M67.291 89.175s6.593-21.33 6.196-25.687c-.397-4.357-2.777-17.169 1.19-20.734 3.967-3.565 6.874-3.82 9.384 1.846 2.511 5.666 3.31 33.68 3.31 33.68"/><path fill="#231F20" d="M67.29 89.416h-.07a.242.242 0 0 1-.17-.207.241.241 0 0 1 .01-.094c.065-.215 6.572-21.335 6.185-25.572a82.649 82.649 0 0 0-.29-2.507c-.709-5.731-1.899-15.318 1.56-18.422 2.316-2.08 4.128-2.893 5.7-2.557 1.571.336 2.882 1.8 4.072 4.512 2.51 5.656 3.294 32.627 3.329 33.77a.237.237 0 0 1-.144.228.236.236 0 0 1-.092.018.232.232 0 0 1-.251-.23c0-.281-.819-28.02-3.284-33.595-1.12-2.537-2.34-3.916-3.73-4.212-1.392-.296-3.089.502-5.278 2.447-3.269 2.933-2.054 12.736-1.4 18 .125 1.004.23 1.861.29 2.533.397 4.357-5.934 24.905-6.206 25.778a.235.235 0 0 1-.23.11Z"/></svg>