<svg width="500" height="426" viewBox="0 0 500 426" fill="none" xmlns="http://www.w3.org/2000/svg">
<path d="M3.59258 422.673C2.83094 422.673 2.1817 422.535 1.64488 422.26C1.10806 421.98 0.699705 421.549 0.419823 420.966C0.139941 420.383 0 419.638 0 418.729C0 417.789 0.158294 417.023 0.474882 416.431C0.796058 415.834 1.23882 415.396 1.80317 415.116C2.37211 414.836 3.03053 414.696 3.77841 414.696C4.31064 414.696 4.76946 414.749 5.15488 414.855C5.54488 414.956 5.8844 415.077 6.17346 415.219L5.55405 416.844C5.2237 416.711 4.91629 416.603 4.63182 416.52C4.34735 416.433 4.06288 416.389 3.77841 416.389C3.41135 416.389 3.10623 416.477 2.86306 416.651C2.61988 416.821 2.43864 417.078 2.31935 417.422C2.20006 417.766 2.14041 418.197 2.14041 418.716C2.14041 419.225 2.20464 419.647 2.33311 419.982C2.46158 420.317 2.64741 420.567 2.89058 420.732C3.13376 420.893 3.4297 420.973 3.77841 420.973C4.21429 420.973 4.60199 420.916 4.94152 420.801C5.28105 420.682 5.6114 420.516 5.93258 420.305V422.102C5.6114 422.304 5.27417 422.448 4.92088 422.535C4.57217 422.627 4.12941 422.673 3.59258 422.673Z" fill="#231F20"/>
<path d="M9.8211 411.826V414.008C9.8211 414.389 9.80734 414.751 9.77981 415.095C9.75687 415.44 9.73852 415.683 9.72475 415.825H9.83487C10 415.559 10.195 415.343 10.4199 415.178C10.6493 415.013 10.9016 414.891 11.1769 414.813C11.4522 414.735 11.7482 414.696 12.0647 414.696C12.6199 414.696 13.104 414.795 13.5169 414.992C13.9299 415.185 14.251 415.49 14.4805 415.908C14.7099 416.321 14.8246 416.857 14.8246 417.518V422.535H12.7255V418.041C12.7255 417.491 12.6245 417.075 12.4226 416.795C12.2207 416.516 11.9087 416.376 11.4866 416.376C11.0645 416.376 10.7319 416.474 10.4887 416.672C10.2455 416.864 10.0735 417.151 9.97252 417.532C9.87158 417.908 9.8211 418.369 9.8211 418.915V422.535H7.72199V411.826H9.8211Z" fill="#231F20"/>
<path d="M23.9781 418.674C23.9781 419.317 23.8909 419.886 23.7166 420.381C23.5468 420.877 23.2967 421.296 22.9664 421.641C22.6406 421.98 22.246 422.237 21.7826 422.411C21.3238 422.586 20.8053 422.673 20.2272 422.673C19.6858 422.673 19.188 422.586 18.7337 422.411C18.2841 422.237 17.8918 421.98 17.5569 421.641C17.2265 421.296 16.9696 420.877 16.786 420.381C16.6071 419.886 16.5176 419.317 16.5176 418.674C16.5176 417.821 16.669 417.098 16.9719 416.506C17.2747 415.914 17.706 415.465 18.2657 415.157C18.8255 414.85 19.4931 414.696 20.2685 414.696C20.9889 414.696 21.6266 414.85 22.1818 415.157C22.7416 415.465 23.1797 415.914 23.4963 416.506C23.8175 417.098 23.9781 417.821 23.9781 418.674ZM18.658 418.674C18.658 419.179 18.7131 419.603 18.8232 419.948C18.9333 420.292 19.1054 420.551 19.3394 420.725C19.5734 420.9 19.8785 420.987 20.2547 420.987C20.6264 420.987 20.9269 420.9 21.1563 420.725C21.3903 420.551 21.5601 420.292 21.6656 419.948C21.7757 419.603 21.8308 419.179 21.8308 418.674C21.8308 418.165 21.7757 417.743 21.6656 417.408C21.5601 417.068 21.3903 416.814 21.1563 416.644C20.9223 416.474 20.6172 416.389 20.241 416.389C19.6858 416.389 19.282 416.58 19.0297 416.961C18.7819 417.341 18.658 417.913 18.658 418.674Z" fill="#231F20"/>
<path d="M32.7049 418.674C32.7049 419.317 32.6177 419.886 32.4434 420.381C32.2736 420.877 32.0235 421.296 31.6932 421.641C31.3674 421.98 30.9728 422.237 30.5094 422.411C30.0506 422.586 29.5321 422.673 28.954 422.673C28.4126 422.673 27.9148 422.586 27.4606 422.411C27.0109 422.237 26.6186 421.98 26.2837 421.641C25.9533 421.296 25.6964 420.877 25.5128 420.381C25.3339 419.886 25.2444 419.317 25.2444 418.674C25.2444 417.821 25.3958 417.098 25.6987 416.506C26.0015 415.914 26.4328 415.465 26.9926 415.157C27.5523 414.85 28.2199 414.696 28.9953 414.696C29.7157 414.696 30.3534 414.85 30.9086 415.157C31.4684 415.465 31.9065 415.914 32.2231 416.506C32.5443 417.098 32.7049 417.821 32.7049 418.674ZM27.3848 418.674C27.3848 419.179 27.4399 419.603 27.55 419.948C27.6601 420.292 27.8322 420.551 28.0662 420.725C28.3002 420.9 28.6053 420.987 28.9816 420.987C29.3532 420.987 29.6537 420.9 29.8831 420.725C30.1171 420.551 30.2869 420.292 30.3924 419.948C30.5025 419.603 30.5576 419.179 30.5576 418.674C30.5576 418.165 30.5025 417.743 30.3924 417.408C30.2869 417.068 30.1171 416.814 29.8831 416.644C29.6491 416.474 29.344 416.389 28.9678 416.389C28.4126 416.389 28.0088 416.58 27.7565 416.961C27.5087 417.341 27.3848 417.913 27.3848 418.674Z" fill="#231F20"/>
<path d="M39.8075 420.25C39.8075 420.773 39.6836 421.216 39.4358 421.579C39.1927 421.937 38.8279 422.21 38.3415 422.398C37.8552 422.581 37.2495 422.673 36.5246 422.673C35.9878 422.673 35.5267 422.639 35.1412 422.57C34.7604 422.501 34.375 422.386 33.985 422.226V420.491C34.4025 420.679 34.8499 420.835 35.3271 420.959C35.8088 421.079 36.231 421.138 36.5934 421.138C37.0018 421.138 37.2931 421.079 37.4675 420.959C37.6464 420.835 37.7359 420.675 37.7359 420.477C37.7359 420.349 37.6992 420.234 37.6258 420.133C37.557 420.028 37.4055 419.911 37.1715 419.782C36.9375 419.649 36.5705 419.477 36.0704 419.266C35.5886 419.064 35.1917 418.86 34.8797 418.654C34.5723 418.447 34.3429 418.204 34.1915 417.924C34.0447 417.64 33.9712 417.279 33.9712 416.844C33.9712 416.132 34.2465 415.598 34.7971 415.24C35.3523 414.878 36.0933 414.696 37.0201 414.696C37.4973 414.696 37.9515 414.744 38.3828 414.841C38.8187 414.937 39.2661 415.091 39.7249 415.302L39.0917 416.816C38.7109 416.651 38.3507 416.516 38.0112 416.41C37.6762 416.304 37.3344 416.252 36.9857 416.252C36.6783 416.252 36.4466 416.293 36.2906 416.376C36.1346 416.458 36.0566 416.584 36.0566 416.754C36.0566 416.878 36.0956 416.988 36.1736 417.084C36.2562 417.181 36.4122 417.289 36.6416 417.408C36.8756 417.523 37.2174 417.672 37.6671 417.855C38.1029 418.034 38.4815 418.222 38.8027 418.42C39.1238 418.612 39.3716 418.853 39.5459 419.142C39.7203 419.427 39.8075 419.796 39.8075 420.25Z" fill="#231F20"/>
<path d="M44.6182 414.696C45.3294 414.696 45.9419 414.834 46.4558 415.109C46.9697 415.38 47.3666 415.775 47.6465 416.293C47.9263 416.811 48.0663 417.445 48.0663 418.193V419.211H43.1041C43.1271 419.803 43.3037 420.269 43.6341 420.608C43.969 420.943 44.4324 421.111 45.0243 421.111C45.5152 421.111 45.9649 421.06 46.3732 420.959C46.7816 420.858 47.2014 420.707 47.6327 420.505V422.129C47.2519 422.317 46.8527 422.455 46.4352 422.542C46.0222 422.629 45.5198 422.673 44.9279 422.673C44.1571 422.673 43.4735 422.531 42.877 422.246C42.2851 421.962 41.8194 421.528 41.4799 420.945C41.1449 420.363 40.9775 419.629 40.9775 418.743C40.9775 417.844 41.1289 417.096 41.4317 416.499C41.7391 415.898 42.1658 415.449 42.7118 415.151C43.2578 414.848 43.8933 414.696 44.6182 414.696ZM44.632 416.19C44.2236 416.19 43.8841 416.321 43.6134 416.582C43.3473 416.844 43.1936 417.254 43.1523 417.814H46.0979C46.0934 417.502 46.036 417.224 45.9259 416.981C45.8204 416.738 45.6598 416.545 45.4441 416.403C45.2331 416.261 44.9624 416.19 44.632 416.19Z" fill="#231F20"/>
<path d="M59.7594 422.535L59.1675 419.844C59.1354 419.684 59.0826 419.447 59.0092 419.135C58.9358 418.819 58.8555 418.482 58.7683 418.124C58.6857 417.761 58.6077 417.426 58.5343 417.119C58.4655 416.811 58.415 416.587 58.3829 416.444H58.321C58.2889 416.587 58.2384 416.811 58.1696 417.119C58.1007 417.426 58.0227 417.761 57.9356 418.124C57.853 418.486 57.775 418.828 57.7016 419.149C57.6282 419.466 57.5731 419.707 57.5364 419.872L56.917 422.535H54.6596L52.471 414.841H54.5632L55.451 418.248C55.5107 418.486 55.568 418.771 55.6231 419.101C55.6782 419.427 55.7263 419.743 55.7676 420.051C55.8135 420.354 55.8479 420.594 55.8709 420.773H55.9259C55.9351 420.64 55.9535 420.464 55.981 420.243C56.0131 420.023 56.0475 419.796 56.0842 419.562C56.1255 419.324 56.1622 419.11 56.1943 418.922C56.231 418.729 56.2586 418.599 56.2769 418.53L57.2267 414.841H59.5392L60.4407 418.53C60.4729 418.663 60.5142 418.874 60.5646 419.163C60.6197 419.452 60.6679 419.75 60.7092 420.058C60.7504 420.36 60.7734 420.599 60.778 420.773H60.833C60.8514 420.617 60.8835 420.386 60.9294 420.078C60.9753 419.771 61.028 419.45 61.0877 419.115C61.1519 418.775 61.2162 418.486 61.2804 418.248L62.2026 414.841H64.2604L62.0443 422.535H59.7594Z" fill="#231F20"/>
<path d="M67.6053 411.826V414.008C67.6053 414.389 67.5915 414.751 67.564 415.095C67.541 415.44 67.5227 415.683 67.5089 415.825H67.619C67.7842 415.559 67.9792 415.343 68.204 415.178C68.4334 415.013 68.6858 414.891 68.9611 414.813C69.2364 414.735 69.5323 414.696 69.8489 414.696C70.4041 414.696 70.8881 414.795 71.3011 414.992C71.714 415.185 72.0352 415.49 72.2646 415.908C72.494 416.321 72.6087 416.857 72.6087 417.518V422.535H70.5096V418.041C70.5096 417.491 70.4087 417.075 70.2068 416.795C70.0049 416.516 69.6929 416.376 69.2708 416.376C68.8487 416.376 68.516 416.474 68.2729 416.672C68.0297 416.864 67.8576 417.151 67.7567 417.532C67.6557 417.908 67.6053 418.369 67.6053 418.915V422.535H65.5061V411.826H67.6053Z" fill="#231F20"/>
<path d="M77.9219 414.683C78.9542 414.683 79.7457 414.907 80.2963 415.357C80.8469 415.807 81.1222 416.49 81.1222 417.408V422.535H79.6562L79.2502 421.489H79.1951C78.9749 421.764 78.7501 421.989 78.5207 422.164C78.2913 422.338 78.0274 422.466 77.7292 422.549C77.431 422.632 77.0685 422.673 76.6418 422.673C76.1875 422.673 75.7792 422.586 75.4167 422.411C75.0588 422.237 74.7767 421.971 74.5702 421.613C74.3637 421.251 74.2605 420.792 74.2605 420.237C74.2605 419.42 74.5473 418.819 75.1208 418.433C75.6943 418.043 76.5546 417.828 77.7017 417.786L79.0368 417.745V417.408C79.0368 417.004 78.9313 416.708 78.7202 416.52C78.5092 416.332 78.2155 416.238 77.8393 416.238C77.4677 416.238 77.1029 416.291 76.745 416.396C76.3871 416.502 76.0293 416.635 75.6714 416.795L74.9763 415.378C75.3846 415.162 75.8411 414.992 76.3458 414.868C76.8551 414.744 77.3805 414.683 77.9219 414.683ZM79.0368 418.97L78.2247 418.998C77.5457 419.016 77.0731 419.138 76.807 419.363C76.5454 419.587 76.4147 419.883 76.4147 420.25C76.4147 420.572 76.5087 420.801 76.6968 420.939C76.885 421.072 77.1304 421.138 77.4333 421.138C77.8829 421.138 78.2614 421.005 78.5688 420.739C78.8808 420.473 79.0368 420.094 79.0368 419.603V418.97Z" fill="#231F20"/>
<path d="M86.5317 421.001C86.7611 421.001 86.9837 420.978 87.1993 420.932C87.4195 420.886 87.6375 420.828 87.8531 420.76V422.322C87.6283 422.423 87.3484 422.505 87.0135 422.57C86.6831 422.639 86.3207 422.673 85.9261 422.673C85.4672 422.673 85.0543 422.6 84.6872 422.453C84.3248 422.301 84.038 422.042 83.8269 421.675C83.6205 421.303 83.5172 420.787 83.5172 420.126V416.417H82.5124V415.529L83.6687 414.827L84.2743 413.203H85.6164V414.841H87.7705V416.417H85.6164V420.126C85.6164 420.42 85.6989 420.64 85.8641 420.787C86.0339 420.929 86.2564 421.001 86.5317 421.001Z" fill="#231F20"/>
<path d="M91.9756 414.841H94.2743L95.7265 419.17C95.7724 419.307 95.8114 419.447 95.8435 419.59C95.8756 419.732 95.9032 419.879 95.9261 420.03C95.9491 420.182 95.9674 420.34 95.9812 420.505H96.0225C96.05 420.257 96.0867 420.026 96.1326 419.81C96.1831 419.594 96.245 419.381 96.3184 419.17L97.743 414.841H99.9936L96.7382 423.519C96.5409 424.052 96.284 424.494 95.9674 424.848C95.6508 425.206 95.2861 425.474 94.8731 425.653C94.4648 425.832 94.0151 425.921 93.5242 425.921C93.2856 425.921 93.0791 425.908 92.9048 425.88C92.7304 425.857 92.5813 425.832 92.4574 425.804V424.139C92.5538 424.162 92.6753 424.182 92.8222 424.201C92.969 424.219 93.1227 424.228 93.2833 424.228C93.5769 424.228 93.8293 424.166 94.0403 424.043C94.2514 423.919 94.4281 423.751 94.5703 423.54C94.7125 423.334 94.8249 423.107 94.9075 422.859L95.0314 422.48L91.9756 414.841Z" fill="#231F20"/>
<path d="M108.094 418.674C108.094 419.317 108.007 419.886 107.833 420.381C107.663 420.877 107.413 421.296 107.082 421.641C106.757 421.98 106.362 422.237 105.899 422.411C105.44 422.586 104.921 422.673 104.343 422.673C103.802 422.673 103.304 422.586 102.85 422.411C102.4 422.237 102.008 421.98 101.673 421.641C101.343 421.296 101.086 420.877 100.902 420.381C100.723 419.886 100.634 419.317 100.634 418.674C100.634 417.821 100.785 417.098 101.088 416.506C101.391 415.914 101.822 415.465 102.382 415.157C102.942 414.85 103.609 414.696 104.385 414.696C105.105 414.696 105.743 414.85 106.298 415.157C106.858 415.465 107.296 415.914 107.612 416.506C107.934 417.098 108.094 417.821 108.094 418.674ZM102.774 418.674C102.774 419.179 102.829 419.603 102.939 419.948C103.049 420.292 103.221 420.551 103.455 420.725C103.689 420.9 103.995 420.987 104.371 420.987C104.742 420.987 105.043 420.9 105.272 420.725C105.506 420.551 105.676 420.292 105.782 419.948C105.892 419.603 105.947 419.179 105.947 418.674C105.947 418.165 105.892 417.743 105.782 417.408C105.676 417.068 105.506 416.814 105.272 416.644C105.038 416.474 104.733 416.389 104.357 416.389C103.802 416.389 103.398 416.58 103.146 416.961C102.898 417.341 102.774 417.913 102.774 418.674Z" fill="#231F20"/>
<path d="M116.89 414.841V422.535H115.279L114.997 421.551H114.887C114.722 421.813 114.515 422.026 114.268 422.191C114.02 422.356 113.747 422.478 113.449 422.556C113.15 422.634 112.841 422.673 112.519 422.673C111.969 422.673 111.489 422.577 111.081 422.384C110.673 422.187 110.354 421.881 110.124 421.469C109.9 421.056 109.787 420.519 109.787 419.858V414.841H111.886V419.335C111.886 419.886 111.985 420.301 112.182 420.581C112.379 420.861 112.694 421.001 113.125 421.001C113.552 421.001 113.887 420.904 114.13 420.711C114.373 420.514 114.543 420.227 114.639 419.851C114.74 419.47 114.791 419.007 114.791 418.461V414.841H116.89Z" fill="#231F20"/>
<path d="M124.853 422.535H122.753V411.826H124.853V422.535Z" fill="#231F20"/>
<path d="M129.161 414.841V422.535H127.062V414.841H129.161ZM128.115 411.826C128.427 411.826 128.695 411.9 128.92 412.047C129.145 412.189 129.257 412.457 129.257 412.852C129.257 413.242 129.145 413.513 128.92 413.664C128.695 413.811 128.427 413.884 128.115 413.884C127.798 413.884 127.528 413.811 127.303 413.664C127.082 413.513 126.972 413.242 126.972 412.852C126.972 412.457 127.082 412.189 127.303 412.047C127.528 411.9 127.798 411.826 128.115 411.826Z" fill="#231F20"/>
<path d="M133.469 411.826V416.616C133.469 416.906 133.458 417.195 133.435 417.484C133.412 417.773 133.387 418.062 133.359 418.351H133.387C133.529 418.149 133.673 417.949 133.82 417.752C133.972 417.555 134.132 417.364 134.302 417.181L136.456 414.841H138.824L135.768 418.179L139.01 422.535H136.587L134.371 419.418L133.469 420.14V422.535H131.37V411.826H133.469Z" fill="#231F20"/>
<path d="M143.284 414.696C143.995 414.696 144.607 414.834 145.121 415.109C145.635 415.38 146.032 415.775 146.312 416.293C146.592 416.811 146.732 417.445 146.732 418.193V419.211H141.769C141.792 419.803 141.969 420.269 142.299 420.608C142.634 420.943 143.098 421.111 143.69 421.111C144.181 421.111 144.63 421.06 145.039 420.959C145.447 420.858 145.867 420.707 146.298 420.505V422.129C145.917 422.317 145.518 422.455 145.1 422.542C144.688 422.629 144.185 422.673 143.593 422.673C142.822 422.673 142.139 422.531 141.542 422.246C140.95 421.962 140.485 421.528 140.145 420.945C139.81 420.363 139.643 419.629 139.643 418.743C139.643 417.844 139.794 417.096 140.097 416.499C140.404 415.898 140.831 415.449 141.377 415.151C141.923 414.848 142.559 414.696 143.284 414.696ZM143.297 416.19C142.889 416.19 142.549 416.321 142.279 416.582C142.013 416.844 141.859 417.254 141.818 417.814H144.763C144.759 417.502 144.701 417.224 144.591 416.981C144.486 416.738 144.325 416.545 144.109 416.403C143.898 416.261 143.628 416.19 143.297 416.19Z" fill="#231F20"/>
<path d="M150.2 419.197H148.521L148.17 412.473H150.551L150.2 419.197ZM148.142 421.551C148.142 421.12 148.259 420.817 148.493 420.643C148.732 420.468 149.019 420.381 149.354 420.381C149.68 420.381 149.959 420.468 150.193 420.643C150.432 420.817 150.551 421.12 150.551 421.551C150.551 421.964 150.432 422.262 150.193 422.446C149.959 422.629 149.68 422.721 149.354 422.721C149.019 422.721 148.732 422.629 148.493 422.446C148.259 422.262 148.142 421.964 148.142 421.551Z" fill="#231F20"/>
<path d="M314.127 186.41C282.566 193.919 217.403 213.442 209.237 231.463C199.029 253.99 347.424 272.588 322.386 303.971C287.054 348.257 138.129 368.114 91.4072 360.522" stroke="black" stroke-dasharray="10 10"/>
<path d="M337.913 273.87C337.913 280.75 325.454 299.351 325.454 299.351C325.454 299.351 312.996 280.75 312.996 273.87C312.996 266.989 318.574 261.411 325.454 261.411C332.335 261.411 337.913 266.989 337.913 273.87Z" fill="#AEECEF"/>
<circle cx="325.454" cy="274.346" r="5.85676" fill="#FFD234"/>
<path d="M314.081 154.178C314.081 163.996 296.305 190.537 296.305 190.537C296.305 190.537 278.528 163.996 278.528 154.178C278.528 144.361 286.487 136.402 296.305 136.402C306.122 136.402 314.081 144.361 314.081 154.178Z" fill="#68E1FD"/>
<circle cx="296.304" cy="154.858" r="8.35682" fill="#FFD234"/>
<path d="M109.184 323.698C109.184 333.516 91.4073 360.057 91.4073 360.057C91.4073 360.057 73.6309 333.516 73.6309 323.698C73.6309 313.881 81.5896 305.922 91.4073 305.922C101.225 305.922 109.184 313.881 109.184 323.698Z" fill="#68E1FD"/>
<circle cx="91.4066" cy="324.378" r="8.35682" fill="#FFD234"/>
<path d="M142.781 185.994H140.123V180.566H135.142V185.994H132.475V173.417H135.142V178.346H140.123V173.417H142.781V185.994Z" fill="#231F20"/>
<path d="M154.498 181.168C154.498 181.971 154.389 182.682 154.171 183.301C153.959 183.921 153.646 184.446 153.233 184.876C152.826 185.3 152.333 185.621 151.754 185.839C151.18 186.057 150.532 186.166 149.81 186.166C149.133 186.166 148.51 186.057 147.943 185.839C147.381 185.621 146.89 185.3 146.472 184.876C146.059 184.446 145.737 183.921 145.508 183.301C145.284 182.682 145.173 181.971 145.173 181.168C145.173 180.101 145.362 179.198 145.74 178.458C146.119 177.718 146.658 177.156 147.358 176.772C148.057 176.387 148.892 176.195 149.861 176.195C150.762 176.195 151.559 176.387 152.253 176.772C152.952 177.156 153.5 177.718 153.896 178.458C154.297 179.198 154.498 180.101 154.498 181.168ZM147.848 181.168C147.848 181.799 147.917 182.329 148.055 182.759C148.192 183.19 148.407 183.514 148.7 183.732C148.992 183.949 149.374 184.058 149.844 184.058C150.308 184.058 150.684 183.949 150.971 183.732C151.263 183.514 151.476 183.19 151.608 182.759C151.745 182.329 151.814 181.799 151.814 181.168C151.814 180.531 151.745 180.004 151.608 179.585C151.476 179.16 151.263 178.842 150.971 178.63C150.678 178.418 150.297 178.312 149.827 178.312C149.133 178.312 148.628 178.55 148.313 179.026C148.003 179.502 147.848 180.216 147.848 181.168Z" fill="#231F20"/>
<path d="M164.572 185.994L163.832 182.63C163.792 182.43 163.726 182.134 163.634 181.744C163.543 181.348 163.442 180.927 163.333 180.48C163.23 180.027 163.133 179.608 163.041 179.224C162.955 178.839 162.892 178.558 162.852 178.38H162.774C162.734 178.558 162.671 178.839 162.585 179.224C162.499 179.608 162.401 180.027 162.292 180.48C162.189 180.933 162.092 181.36 162 181.761C161.908 182.157 161.839 182.458 161.793 182.665L161.019 185.994H158.197L155.462 176.376H158.077L159.187 180.634C159.261 180.933 159.333 181.288 159.402 181.701C159.471 182.108 159.531 182.504 159.582 182.888C159.64 183.267 159.683 183.568 159.711 183.792H159.78C159.792 183.625 159.815 183.405 159.849 183.129C159.889 182.854 159.932 182.57 159.978 182.278C160.03 181.979 160.076 181.713 160.116 181.478C160.162 181.237 160.196 181.073 160.219 180.987L161.406 176.376H164.297L165.424 180.987C165.464 181.153 165.516 181.417 165.579 181.779C165.648 182.14 165.708 182.513 165.759 182.897C165.811 183.276 165.84 183.574 165.845 183.792H165.914C165.937 183.597 165.977 183.307 166.035 182.923C166.092 182.539 166.158 182.137 166.233 181.718C166.313 181.294 166.393 180.933 166.473 180.634L167.626 176.376H170.198L167.428 185.994H164.572Z" fill="#231F20"/>
<path d="M180.384 184.076C180.671 184.076 180.949 184.047 181.219 183.99C181.494 183.932 181.767 183.861 182.036 183.775V185.727C181.755 185.854 181.405 185.957 180.987 186.037C180.574 186.123 180.12 186.166 179.627 186.166C179.054 186.166 178.538 186.074 178.079 185.891C177.626 185.702 177.267 185.378 177.003 184.919C176.745 184.454 176.616 183.809 176.616 182.983V178.346H175.36V177.236L176.806 176.359L177.563 174.329H179.24V176.376H181.933V178.346H179.24V182.983C179.24 183.35 179.343 183.625 179.55 183.809C179.762 183.987 180.04 184.076 180.384 184.076Z" fill="#231F20"/>
<path d="M192.73 181.168C192.73 181.971 192.621 182.682 192.403 183.301C192.19 183.921 191.878 184.446 191.465 184.876C191.058 185.3 190.564 185.621 189.985 185.839C189.412 186.057 188.764 186.166 188.041 186.166C187.364 186.166 186.742 186.057 186.174 185.839C185.612 185.621 185.122 185.3 184.703 184.876C184.29 184.446 183.969 183.921 183.739 183.301C183.516 182.682 183.404 181.971 183.404 181.168C183.404 180.101 183.593 179.198 183.972 178.458C184.35 177.718 184.889 177.156 185.589 176.772C186.289 176.387 187.123 176.195 188.093 176.195C188.993 176.195 189.79 176.387 190.484 176.772C191.184 177.156 191.732 177.718 192.127 178.458C192.529 179.198 192.73 180.101 192.73 181.168ZM186.079 181.168C186.079 181.799 186.148 182.329 186.286 182.759C186.424 183.19 186.639 183.514 186.931 183.732C187.224 183.949 187.605 184.058 188.075 184.058C188.54 184.058 188.916 183.949 189.202 183.732C189.495 183.514 189.707 183.19 189.839 182.759C189.977 182.329 190.045 181.799 190.045 181.168C190.045 180.531 189.977 180.004 189.839 179.585C189.707 179.16 189.495 178.842 189.202 178.63C188.91 178.418 188.528 178.312 188.058 178.312C187.364 178.312 186.859 178.55 186.544 179.026C186.234 179.502 186.079 180.216 186.079 181.168Z" fill="#231F20"/>
<path d="M206.185 183.138C206.185 183.792 206.03 184.345 205.72 184.798C205.416 185.246 204.96 185.587 204.352 185.822C203.744 186.051 202.987 186.166 202.081 186.166C201.41 186.166 200.833 186.123 200.352 186.037C199.876 185.951 199.394 185.808 198.906 185.607V183.439C199.428 183.674 199.988 183.869 200.584 184.024C201.186 184.173 201.714 184.248 202.167 184.248C202.677 184.248 203.042 184.173 203.26 184.024C203.483 183.869 203.595 183.668 203.595 183.422C203.595 183.261 203.549 183.118 203.457 182.992C203.371 182.86 203.182 182.713 202.89 182.553C202.597 182.387 202.138 182.172 201.513 181.908C200.911 181.655 200.415 181.4 200.025 181.142C199.641 180.884 199.354 180.58 199.165 180.23C198.981 179.875 198.889 179.424 198.889 178.879C198.889 177.99 199.233 177.322 199.922 176.875C200.616 176.422 201.542 176.195 202.7 176.195C203.297 176.195 203.865 176.256 204.404 176.376C204.949 176.496 205.508 176.689 206.081 176.952L205.29 178.845C204.814 178.639 204.364 178.469 203.939 178.337C203.52 178.206 203.093 178.14 202.657 178.14C202.273 178.14 201.983 178.191 201.788 178.294C201.593 178.398 201.496 178.555 201.496 178.768C201.496 178.922 201.545 179.06 201.642 179.181C201.745 179.301 201.94 179.436 202.227 179.585C202.52 179.728 202.947 179.915 203.509 180.144C204.054 180.368 204.527 180.603 204.928 180.85C205.33 181.09 205.64 181.392 205.858 181.753C206.076 182.108 206.185 182.57 206.185 183.138Z" fill="#231F20"/>
<path d="M212.284 184.076C212.571 184.076 212.849 184.047 213.118 183.99C213.394 183.932 213.666 183.861 213.936 183.775V185.727C213.655 185.854 213.305 185.957 212.886 186.037C212.473 186.123 212.02 186.166 211.527 186.166C210.953 186.166 210.437 186.074 209.978 185.891C209.525 185.702 209.167 185.378 208.903 184.919C208.645 184.454 208.516 183.809 208.516 182.983V178.346H207.26V177.236L208.705 176.359L209.462 174.329H211.14V176.376H213.833V178.346H211.14V182.983C211.14 183.35 211.243 183.625 211.45 183.809C211.662 183.987 211.94 184.076 212.284 184.076Z" fill="#231F20"/>
<path d="M219.829 176.178C221.119 176.178 222.109 176.459 222.797 177.021C223.485 177.583 223.829 178.438 223.829 179.585V185.994H221.997L221.489 184.686H221.42C221.145 185.031 220.864 185.312 220.577 185.53C220.29 185.747 219.961 185.908 219.588 186.011C219.215 186.115 218.762 186.166 218.229 186.166C217.661 186.166 217.15 186.057 216.697 185.839C216.25 185.621 215.897 185.289 215.639 184.841C215.381 184.388 215.252 183.815 215.252 183.121C215.252 182.1 215.61 181.348 216.327 180.867C217.044 180.379 218.12 180.11 219.553 180.058L221.222 180.006V179.585C221.222 179.08 221.091 178.71 220.827 178.475C220.563 178.24 220.196 178.122 219.726 178.122C219.261 178.122 218.805 178.188 218.358 178.32C217.91 178.452 217.463 178.618 217.016 178.819L216.147 177.047C216.657 176.777 217.228 176.565 217.859 176.41C218.495 176.256 219.152 176.178 219.829 176.178ZM221.222 181.538L220.207 181.572C219.358 181.595 218.768 181.747 218.435 182.028C218.108 182.309 217.945 182.679 217.945 183.138C217.945 183.539 218.062 183.826 218.297 183.998C218.533 184.165 218.839 184.248 219.218 184.248C219.78 184.248 220.253 184.081 220.637 183.749C221.027 183.416 221.222 182.943 221.222 182.329V181.538Z" fill="#231F20"/>
<path d="M231.907 176.195C232.039 176.195 232.191 176.204 232.363 176.221C232.541 176.233 232.684 176.25 232.793 176.273L232.596 178.733C232.509 178.705 232.386 178.684 232.226 178.673C232.071 178.656 231.936 178.647 231.821 178.647C231.483 178.647 231.153 178.69 230.832 178.776C230.516 178.862 230.233 179.003 229.98 179.198C229.728 179.387 229.527 179.639 229.378 179.955C229.235 180.265 229.163 180.646 229.163 181.099V185.994H226.539V176.376H228.526L228.913 177.993H229.042C229.232 177.666 229.467 177.368 229.748 177.099C230.035 176.823 230.359 176.605 230.72 176.445C231.087 176.279 231.483 176.195 231.907 176.195Z" fill="#231F20"/>
<path d="M238.592 184.076C238.879 184.076 239.157 184.047 239.426 183.99C239.702 183.932 239.974 183.861 240.244 183.775V185.727C239.962 185.854 239.613 185.957 239.194 186.037C238.781 186.123 238.328 186.166 237.835 186.166C237.261 186.166 236.745 186.074 236.286 185.891C235.833 185.702 235.475 185.378 235.211 184.919C234.953 184.454 234.824 183.809 234.824 182.983V178.346H233.568V177.236L235.013 176.359L235.77 174.329H237.448V176.376H240.14V178.346H237.448V182.983C237.448 183.35 237.551 183.625 237.757 183.809C237.969 183.987 238.248 184.076 238.592 184.076Z" fill="#231F20"/>
<path d="M243.194 181.822V181.185C243.194 180.795 243.249 180.451 243.358 180.153C243.467 179.849 243.642 179.562 243.883 179.292C244.123 179.017 244.442 178.736 244.837 178.449C245.193 178.197 245.477 177.97 245.689 177.77C245.907 177.569 246.065 177.371 246.162 177.176C246.266 176.975 246.317 176.749 246.317 176.496C246.317 176.124 246.18 175.84 245.904 175.645C245.629 175.45 245.245 175.352 244.751 175.352C244.258 175.352 243.768 175.43 243.28 175.585C242.799 175.739 242.308 175.943 241.809 176.195L240.872 174.311C241.445 173.99 242.067 173.732 242.738 173.537C243.409 173.336 244.143 173.236 244.941 173.236C246.168 173.236 247.117 173.531 247.788 174.122C248.465 174.707 248.803 175.453 248.803 176.359C248.803 176.841 248.726 177.259 248.571 177.615C248.422 177.965 248.193 178.292 247.883 178.596C247.579 178.894 247.198 179.209 246.739 179.542C246.395 179.794 246.131 180.006 245.947 180.178C245.764 180.351 245.638 180.523 245.569 180.695C245.506 180.861 245.474 181.065 245.474 181.305V181.822H243.194ZM242.919 184.764C242.919 184.225 243.065 183.846 243.358 183.628C243.656 183.41 244.014 183.301 244.433 183.301C244.84 183.301 245.19 183.41 245.483 183.628C245.781 183.846 245.93 184.225 245.93 184.764C245.93 185.28 245.781 185.653 245.483 185.882C245.19 186.112 244.84 186.226 244.433 186.226C244.014 186.226 243.656 186.112 243.358 185.882C243.065 185.653 242.919 185.28 242.919 184.764Z" fill="#231F20"/>
<path d="M363.119 295.39C363.119 296.322 362.894 297.132 362.442 297.82C361.99 298.508 361.331 299.039 360.463 299.411C359.603 299.784 358.556 299.971 357.323 299.971C356.778 299.971 356.244 299.935 355.721 299.863C355.205 299.791 354.706 299.687 354.226 299.551C353.753 299.408 353.301 299.232 352.871 299.024V295.927C353.617 296.257 354.391 296.555 355.194 296.82C355.997 297.085 356.793 297.218 357.581 297.218C358.126 297.218 358.563 297.146 358.893 297.003C359.23 296.859 359.474 296.662 359.624 296.411C359.775 296.16 359.85 295.873 359.85 295.551C359.85 295.157 359.718 294.82 359.452 294.54C359.187 294.26 358.821 293.999 358.355 293.755C357.897 293.511 357.377 293.25 356.796 292.97C356.431 292.798 356.033 292.59 355.603 292.346C355.172 292.095 354.764 291.791 354.377 291.432C353.989 291.074 353.67 290.64 353.42 290.131C353.176 289.615 353.054 288.998 353.054 288.281C353.054 287.342 353.269 286.539 353.699 285.873C354.129 285.206 354.742 284.697 355.538 284.346C356.341 283.987 357.287 283.808 358.377 283.808C359.194 283.808 359.972 283.905 360.711 284.098C361.456 284.285 362.234 284.557 363.044 284.916L361.969 287.507C361.245 287.213 360.596 286.987 360.022 286.83C359.449 286.665 358.864 286.582 358.269 286.582C357.854 286.582 357.499 286.65 357.205 286.787C356.911 286.916 356.689 287.102 356.538 287.346C356.388 287.582 356.312 287.858 356.312 288.174C356.312 288.547 356.42 288.862 356.635 289.12C356.857 289.371 357.187 289.615 357.624 289.851C358.069 290.088 358.621 290.364 359.28 290.679C360.083 291.059 360.768 291.457 361.334 291.873C361.908 292.282 362.349 292.766 362.657 293.325C362.965 293.877 363.119 294.565 363.119 295.39Z" fill="#231F20"/>
<path d="M368.991 287.733V299.756H365.711V287.733H368.991ZM367.356 283.023C367.844 283.023 368.263 283.138 368.614 283.367C368.966 283.589 369.141 284.009 369.141 284.625C369.141 285.235 368.966 285.658 368.614 285.894C368.263 286.123 367.844 286.238 367.356 286.238C366.862 286.238 366.439 286.123 366.087 285.894C365.743 285.658 365.571 285.235 365.571 284.625C365.571 284.009 365.743 283.589 366.087 283.367C366.439 283.138 366.862 283.023 367.356 283.023Z" fill="#231F20"/>
<path d="M375.959 305.046C374.282 305.046 372.998 304.752 372.109 304.165C371.228 303.584 370.787 302.767 370.787 301.713C370.787 300.989 371.013 300.383 371.464 299.895C371.916 299.408 372.579 299.06 373.454 298.852C373.117 298.709 372.823 298.476 372.572 298.153C372.321 297.823 372.195 297.476 372.195 297.11C372.195 296.651 372.328 296.271 372.593 295.97C372.859 295.662 373.242 295.361 373.744 295.067C373.113 294.795 372.611 294.357 372.238 293.755C371.873 293.153 371.69 292.443 371.69 291.626C371.69 290.751 371.88 290.009 372.26 289.4C372.647 288.783 373.206 288.314 373.938 287.991C374.676 287.668 375.572 287.507 376.626 287.507C376.848 287.507 377.106 287.521 377.4 287.55C377.694 287.579 377.963 287.611 378.207 287.647C378.458 287.683 378.626 287.711 378.712 287.733H382.906V289.4L381.024 289.884C381.196 290.149 381.325 290.432 381.411 290.733C381.497 291.034 381.54 291.353 381.54 291.69C381.54 292.981 381.089 293.988 380.185 294.712C379.289 295.429 378.042 295.787 376.443 295.787C376.063 295.766 375.705 295.737 375.368 295.701C375.203 295.83 375.077 295.967 374.991 296.11C374.905 296.253 374.862 296.404 374.862 296.562C374.862 296.719 374.927 296.852 375.056 296.96C375.192 297.06 375.393 297.139 375.658 297.196C375.931 297.246 376.267 297.271 376.669 297.271H378.712C380.031 297.271 381.035 297.555 381.723 298.121C382.419 298.687 382.766 299.519 382.766 300.616C382.766 302.021 382.178 303.111 381.003 303.885C379.834 304.659 378.153 305.046 375.959 305.046ZM376.099 302.906C376.88 302.906 377.551 302.831 378.11 302.681C378.676 302.537 379.11 302.329 379.411 302.057C379.712 301.792 379.863 301.473 379.863 301.1C379.863 300.799 379.773 300.558 379.594 300.379C379.422 300.207 379.157 300.085 378.798 300.014C378.447 299.942 377.995 299.906 377.443 299.906H375.744C375.343 299.906 374.981 299.971 374.658 300.1C374.343 300.229 374.092 300.408 373.905 300.637C373.719 300.874 373.626 301.146 373.626 301.455C373.626 301.906 373.841 302.261 374.271 302.519C374.708 302.777 375.318 302.906 376.099 302.906ZM376.626 293.787C377.242 293.787 377.694 293.597 377.981 293.217C378.268 292.837 378.411 292.321 378.411 291.669C378.411 290.945 378.26 290.403 377.959 290.045C377.665 289.679 377.221 289.497 376.626 289.497C376.024 289.497 375.572 289.679 375.271 290.045C374.97 290.403 374.819 290.945 374.819 291.669C374.819 292.321 374.966 292.837 375.26 293.217C375.561 293.597 376.017 293.787 376.626 293.787Z" fill="#231F20"/>
<path d="M391.724 287.507C393.007 287.507 394.04 287.858 394.821 288.561C395.603 289.256 395.993 290.375 395.993 291.916V299.756H392.713V292.733C392.713 291.873 392.556 291.224 392.24 290.787C391.932 290.35 391.444 290.131 390.778 290.131C389.774 290.131 389.089 290.472 388.724 291.153C388.358 291.834 388.175 292.816 388.175 294.099V299.756H384.896V287.733H387.401L387.842 289.271H388.025C388.283 288.855 388.602 288.518 388.982 288.26C389.369 288.002 389.796 287.812 390.262 287.69C390.735 287.568 391.222 287.507 391.724 287.507Z" fill="#231F20"/>
<path d="M416.124 287.733V299.756H413.608L413.167 298.218H412.995C412.737 298.626 412.414 298.96 412.027 299.218C411.64 299.476 411.213 299.666 410.747 299.788C410.281 299.91 409.797 299.971 409.296 299.971C408.435 299.971 407.686 299.82 407.048 299.519C406.41 299.211 405.912 298.734 405.553 298.089C405.202 297.444 405.026 296.605 405.026 295.572V287.733H408.306V294.755C408.306 295.615 408.46 296.264 408.769 296.702C409.077 297.139 409.568 297.357 410.242 297.357C410.909 297.357 411.432 297.207 411.812 296.906C412.192 296.598 412.457 296.149 412.608 295.562C412.765 294.967 412.844 294.243 412.844 293.389V287.733H416.124Z" fill="#231F20"/>
<path d="M426.254 287.507C427.609 287.507 428.702 288.034 429.534 289.088C430.373 290.142 430.792 291.687 430.792 293.723C430.792 295.085 430.595 296.232 430.201 297.164C429.806 298.089 429.262 298.788 428.566 299.261C427.871 299.734 427.071 299.971 426.168 299.971C425.587 299.971 425.089 299.899 424.673 299.756C424.257 299.605 423.903 299.415 423.609 299.186C423.315 298.949 423.06 298.698 422.845 298.433H422.673C422.73 298.72 422.773 299.014 422.802 299.315C422.831 299.616 422.845 299.91 422.845 300.196V305.046H419.565V287.733H422.232L422.695 289.292H422.845C423.06 288.97 423.322 288.672 423.63 288.4C423.938 288.127 424.308 287.912 424.738 287.754C425.175 287.59 425.681 287.507 426.254 287.507ZM425.2 290.131C424.627 290.131 424.171 290.249 423.835 290.486C423.498 290.722 423.25 291.077 423.093 291.551C422.942 292.024 422.86 292.622 422.845 293.346V293.701C422.845 294.476 422.917 295.131 423.06 295.669C423.211 296.207 423.458 296.615 423.802 296.895C424.154 297.175 424.634 297.314 425.243 297.314C425.745 297.314 426.157 297.175 426.48 296.895C426.803 296.615 427.043 296.207 427.2 295.669C427.365 295.124 427.448 294.461 427.448 293.68C427.448 292.504 427.265 291.619 426.899 291.024C426.534 290.429 425.967 290.131 425.2 290.131Z" fill="#231F20"/>
<path d="M230.09 299.756V284.034H233.423V297.003H239.8V299.756H230.09Z" fill="#231F20"/>
<path d="M253.21 293.723C253.21 294.726 253.074 295.615 252.802 296.39C252.536 297.164 252.146 297.82 251.629 298.358C251.12 298.888 250.504 299.29 249.78 299.562C249.063 299.834 248.253 299.971 247.349 299.971C246.504 299.971 245.726 299.834 245.016 299.562C244.313 299.29 243.7 298.888 243.177 298.358C242.661 297.82 242.259 297.164 241.973 296.39C241.693 295.615 241.553 294.726 241.553 293.723C241.553 292.389 241.79 291.26 242.263 290.335C242.736 289.411 243.41 288.708 244.285 288.228C245.159 287.747 246.202 287.507 247.414 287.507C248.54 287.507 249.536 287.747 250.404 288.228C251.278 288.708 251.963 289.411 252.457 290.335C252.959 291.26 253.21 292.389 253.21 293.723ZM244.898 293.723C244.898 294.511 244.984 295.174 245.156 295.712C245.328 296.25 245.597 296.655 245.962 296.927C246.328 297.2 246.805 297.336 247.392 297.336C247.973 297.336 248.443 297.2 248.801 296.927C249.167 296.655 249.432 296.25 249.597 295.712C249.769 295.174 249.855 294.511 249.855 293.723C249.855 292.927 249.769 292.267 249.597 291.744C249.432 291.214 249.167 290.816 248.801 290.55C248.436 290.285 247.959 290.153 247.371 290.153C246.504 290.153 245.873 290.45 245.478 291.045C245.091 291.64 244.898 292.533 244.898 293.723Z" fill="#231F20"/>
<path d="M259.437 305.046C257.759 305.046 256.476 304.752 255.587 304.165C254.705 303.584 254.264 302.767 254.264 301.713C254.264 300.989 254.49 300.383 254.942 299.895C255.393 299.408 256.056 299.06 256.931 298.852C256.594 298.709 256.3 298.476 256.049 298.153C255.798 297.823 255.673 297.476 255.673 297.11C255.673 296.651 255.805 296.271 256.071 295.97C256.336 295.662 256.719 295.361 257.221 295.067C256.59 294.795 256.089 294.357 255.716 293.755C255.35 293.153 255.167 292.443 255.167 291.626C255.167 290.751 255.357 290.009 255.737 289.4C256.124 288.783 256.684 288.314 257.415 287.991C258.153 287.668 259.049 287.507 260.103 287.507C260.326 287.507 260.584 287.521 260.878 287.55C261.172 287.579 261.44 287.611 261.684 287.647C261.935 287.683 262.103 287.711 262.19 287.733H266.383V289.4L264.502 289.884C264.674 290.149 264.803 290.432 264.889 290.733C264.975 291.034 265.018 291.353 265.018 291.69C265.018 292.981 264.566 293.988 263.663 294.712C262.767 295.429 261.519 295.787 259.921 295.787C259.541 295.766 259.182 295.737 258.845 295.701C258.68 295.83 258.555 295.967 258.469 296.11C258.383 296.253 258.34 296.404 258.34 296.562C258.34 296.719 258.404 296.852 258.533 296.96C258.669 297.06 258.87 297.139 259.135 297.196C259.408 297.246 259.745 297.271 260.146 297.271H262.19C263.509 297.271 264.512 297.555 265.201 298.121C265.896 298.687 266.244 299.519 266.244 300.616C266.244 302.021 265.656 303.111 264.48 303.885C263.311 304.659 261.63 305.046 259.437 305.046ZM259.576 302.906C260.358 302.906 261.028 302.831 261.587 302.681C262.154 302.537 262.587 302.329 262.889 302.057C263.19 301.792 263.34 301.473 263.34 301.1C263.34 300.799 263.251 300.558 263.071 300.379C262.899 300.207 262.634 300.085 262.276 300.014C261.924 299.942 261.473 299.906 260.921 299.906H259.222C258.82 299.906 258.458 299.971 258.135 300.1C257.82 300.229 257.569 300.408 257.383 300.637C257.196 300.874 257.103 301.146 257.103 301.455C257.103 301.906 257.318 302.261 257.748 302.519C258.186 302.777 258.795 302.906 259.576 302.906ZM260.103 293.787C260.72 293.787 261.172 293.597 261.458 293.217C261.745 292.837 261.888 292.321 261.888 291.669C261.888 290.945 261.738 290.403 261.437 290.045C261.143 289.679 260.698 289.497 260.103 289.497C259.501 289.497 259.049 289.679 258.748 290.045C258.447 290.403 258.297 290.945 258.297 291.669C258.297 292.321 258.444 292.837 258.738 293.217C259.039 293.597 259.494 293.787 260.103 293.787Z" fill="#231F20"/>
<path d="M277.374 287.733V299.756H274.094V287.733H277.374ZM275.739 283.023C276.227 283.023 276.646 283.138 276.997 283.367C277.349 283.589 277.524 284.009 277.524 284.625C277.524 285.235 277.349 285.658 276.997 285.894C276.646 286.123 276.227 286.238 275.739 286.238C275.244 286.238 274.821 286.123 274.47 285.894C274.126 285.658 273.954 285.235 273.954 284.625C273.954 284.009 274.126 283.589 274.47 283.367C274.821 283.138 275.244 283.023 275.739 283.023Z" fill="#231F20"/>
<path d="M287.654 287.507C288.937 287.507 289.97 287.858 290.751 288.561C291.533 289.256 291.923 290.375 291.923 291.916V299.756H288.644V292.733C288.644 291.873 288.486 291.224 288.17 290.787C287.862 290.35 287.375 290.131 286.708 290.131C285.704 290.131 285.02 290.472 284.654 291.153C284.288 291.834 284.105 292.816 284.105 294.099V299.756H280.826V287.733H283.331L283.772 289.271H283.955C284.213 288.855 284.532 288.518 284.912 288.26C285.299 288.002 285.726 287.812 286.192 287.69C286.665 287.568 287.152 287.507 287.654 287.507Z" fill="#231F20"/>
<path d="M40.1025 385.671H44.9955C47.0888 385.671 48.6732 385.965 49.7486 386.553C50.8239 387.141 51.3616 388.173 51.3616 389.65C51.3616 390.245 51.2648 390.782 51.0713 391.263C50.8849 391.743 50.6125 392.137 50.254 392.446C49.8955 392.754 49.4582 392.955 48.942 393.048V393.155C49.4654 393.263 49.9386 393.449 50.3615 393.715C50.7845 393.973 51.1215 394.353 51.3724 394.854C51.6305 395.349 51.7595 396.009 51.7595 396.833C51.7595 397.787 51.5265 398.604 51.0605 399.285C50.5945 399.966 49.9278 400.489 49.0603 400.855C48.2 401.213 47.1749 401.393 45.9848 401.393H40.1025V385.671ZM43.4362 391.897H45.3718C46.3397 391.897 47.01 391.747 47.3828 391.446C47.7556 391.137 47.942 390.686 47.942 390.091C47.942 389.488 47.7197 389.058 47.2752 388.8C46.8379 388.535 46.1425 388.402 45.189 388.402H43.4362V391.897ZM43.4362 394.543V398.64H45.6084C46.6121 398.64 47.3111 398.446 47.7054 398.059C48.0997 397.672 48.2968 397.152 48.2968 396.5C48.2968 396.113 48.2108 395.772 48.0387 395.478C47.8667 395.184 47.5763 394.955 47.1677 394.79C46.7662 394.625 46.2106 394.543 45.5009 394.543H43.4362Z" fill="#231F20"/>
<path d="M65.5672 395.36C65.5672 396.364 65.431 397.253 65.1586 398.027C64.8933 398.801 64.5026 399.457 63.9864 399.995C63.4774 400.525 62.8609 400.927 62.1368 401.199C61.4199 401.472 60.6098 401.608 59.7065 401.608C58.8605 401.608 58.0827 401.472 57.3729 401.199C56.6703 400.927 56.0574 400.525 55.534 399.995C55.0179 399.457 54.6164 398.801 54.3296 398.027C54.05 397.253 53.9102 396.364 53.9102 395.36C53.9102 394.026 54.1468 392.897 54.62 391.972C55.0931 391.048 55.767 390.345 56.6417 389.865C57.5163 389.384 58.5594 389.144 59.771 389.144C60.8965 389.144 61.893 389.384 62.7605 389.865C63.6351 390.345 64.3198 391.048 64.8145 391.972C65.3163 392.897 65.5672 394.026 65.5672 395.36ZM57.2546 395.36C57.2546 396.148 57.3407 396.812 57.5127 397.349C57.6848 397.887 57.9536 398.292 58.3192 398.564C58.6849 398.837 59.1616 398.973 59.7495 398.973C60.3302 398.973 60.7998 398.837 61.1582 398.564C61.5238 398.292 61.7891 397.887 61.954 397.349C62.126 396.812 62.2121 396.148 62.2121 395.36C62.2121 394.564 62.126 393.905 61.954 393.381C61.7891 392.851 61.5238 392.453 61.1582 392.188C60.7926 391.922 60.3158 391.79 59.728 391.79C58.8605 391.79 58.2296 392.087 57.8353 392.682C57.4482 393.277 57.2546 394.17 57.2546 395.36Z" fill="#231F20"/>
<path d="M79.2029 395.36C79.2029 396.364 79.0666 397.253 78.7942 398.027C78.529 398.801 78.1382 399.457 77.6221 399.995C77.1131 400.525 76.4965 400.927 75.7724 401.199C75.0555 401.472 74.2454 401.608 73.3421 401.608C72.4962 401.608 71.7183 401.472 71.0086 401.199C70.306 400.927 69.693 400.525 69.1697 399.995C68.6535 399.457 68.252 398.801 67.9653 398.027C67.6857 397.253 67.5459 396.364 67.5459 395.36C67.5459 394.026 67.7825 392.897 68.2556 391.972C68.7288 391.048 69.4027 390.345 70.2773 389.865C71.1519 389.384 72.1951 389.144 73.4066 389.144C74.5322 389.144 75.5287 389.384 76.3961 389.865C77.2708 390.345 77.9554 391.048 78.4501 391.972C78.9519 392.897 79.2029 394.026 79.2029 395.36ZM70.8903 395.36C70.8903 396.148 70.9763 396.812 71.1484 397.349C71.3204 397.887 71.5893 398.292 71.9549 398.564C72.3205 398.837 72.7973 398.973 73.3851 398.973C73.9658 398.973 74.4354 398.837 74.7939 398.564C75.1595 398.292 75.4247 397.887 75.5896 397.349C75.7617 396.812 75.8477 396.148 75.8477 395.36C75.8477 394.564 75.7617 393.905 75.5896 393.381C75.4247 392.851 75.1595 392.453 74.7939 392.188C74.4282 391.922 73.9515 391.79 73.3636 391.79C72.4962 391.79 71.8653 392.087 71.471 392.682C71.0838 393.277 70.8903 394.17 70.8903 395.36Z" fill="#231F20"/>
<path d="M85.1926 384.66V392.145C85.1926 392.596 85.1747 393.048 85.1389 393.5C85.103 393.951 85.0636 394.403 85.0206 394.854H85.0636C85.2858 394.539 85.5117 394.227 85.7411 393.919C85.9777 393.611 86.2286 393.313 86.4938 393.026L89.8597 389.37H93.559L88.7844 394.586L93.8493 401.393H90.0641L86.6014 396.521L85.1926 397.65V401.393H81.9128V384.66H85.1926Z" fill="#231F20"/>
<path d="M98.8498 389.37V401.393H95.5699V389.37H98.8498ZM97.2152 384.66C97.7027 384.66 98.1221 384.775 98.4734 385.004C98.8247 385.226 99.0003 385.646 99.0003 386.262C99.0003 386.872 98.8247 387.295 98.4734 387.531C98.1221 387.761 97.7027 387.875 97.2152 387.875C96.7206 387.875 96.2976 387.761 95.9463 387.531C95.6022 387.295 95.4301 386.872 95.4301 386.262C95.4301 385.646 95.6022 385.226 95.9463 385.004C96.2976 384.775 96.7206 384.66 97.2152 384.66Z" fill="#231F20"/>
<path d="M109.13 389.144C110.414 389.144 111.446 389.496 112.227 390.198C113.009 390.894 113.4 392.012 113.4 393.553V401.393H110.12V394.371C110.12 393.51 109.962 392.861 109.646 392.424C109.338 391.987 108.851 391.768 108.184 391.768C107.18 391.768 106.496 392.109 106.13 392.79C105.764 393.471 105.582 394.453 105.582 395.736V401.393H102.302V389.37H104.807L105.248 390.908H105.431C105.689 390.492 106.008 390.155 106.388 389.897C106.775 389.639 107.202 389.449 107.668 389.327C108.141 389.205 108.628 389.144 109.13 389.144Z" fill="#231F20"/>
<path d="M120.293 406.684C118.615 406.684 117.332 406.39 116.443 405.802C115.561 405.221 115.12 404.404 115.12 403.35C115.12 402.626 115.346 402.02 115.798 401.532C116.249 401.045 116.912 400.697 117.787 400.489C117.45 400.346 117.156 400.113 116.905 399.79C116.654 399.461 116.529 399.113 116.529 398.747C116.529 398.288 116.661 397.909 116.927 397.607C117.192 397.299 117.576 396.998 118.077 396.704C117.446 396.432 116.945 395.994 116.572 395.392C116.206 394.79 116.023 394.08 116.023 393.263C116.023 392.388 116.213 391.646 116.593 391.037C116.98 390.42 117.54 389.951 118.271 389.628C119.009 389.306 119.905 389.144 120.959 389.144C121.182 389.144 121.44 389.159 121.734 389.187C122.028 389.216 122.296 389.248 122.54 389.284C122.791 389.32 122.96 389.349 123.046 389.37H127.239V391.037L125.358 391.521C125.53 391.786 125.659 392.069 125.745 392.37C125.831 392.671 125.874 392.991 125.874 393.327C125.874 394.618 125.422 395.625 124.519 396.349C123.623 397.066 122.375 397.425 120.777 397.425C120.397 397.403 120.038 397.374 119.701 397.339C119.536 397.468 119.411 397.604 119.325 397.747C119.239 397.891 119.196 398.041 119.196 398.199C119.196 398.357 119.26 398.489 119.389 398.597C119.526 398.697 119.726 398.776 119.991 398.833C120.264 398.884 120.601 398.909 121.002 398.909H123.046C124.365 398.909 125.368 399.192 126.057 399.758C126.752 400.325 127.1 401.156 127.1 402.253C127.1 403.658 126.512 404.748 125.336 405.522C124.168 406.296 122.486 406.684 120.293 406.684ZM120.432 404.544C121.214 404.544 121.884 404.468 122.443 404.318C123.01 404.174 123.443 403.966 123.745 403.694C124.046 403.429 124.196 403.11 124.196 402.737C124.196 402.436 124.107 402.196 123.927 402.016C123.755 401.844 123.49 401.722 123.132 401.651C122.78 401.579 122.329 401.543 121.777 401.543H120.078C119.676 401.543 119.314 401.608 118.991 401.737C118.676 401.866 118.425 402.045 118.239 402.275C118.052 402.511 117.959 402.784 117.959 403.092C117.959 403.543 118.174 403.898 118.604 404.156C119.042 404.414 119.651 404.544 120.432 404.544ZM120.959 395.424C121.576 395.424 122.028 395.234 122.314 394.854C122.601 394.475 122.744 393.958 122.744 393.306C122.744 392.582 122.594 392.041 122.293 391.682C121.999 391.317 121.554 391.134 120.959 391.134C120.357 391.134 119.905 391.317 119.604 391.682C119.303 392.041 119.153 392.582 119.153 393.306C119.153 393.958 119.3 394.475 119.594 394.854C119.895 395.234 120.35 395.424 120.959 395.424Z" fill="#231F20"/>
<path d="M411.813 26.5435C414.735 26.3333 417.671 26.5169 420.545 27.0893C425.099 28.0866 429.54 30.7589 431.488 35.0025C432.795 37.8253 432.861 41.1374 432.899 44.2895L433.04 55.1855V58.6764C433.04 61.3298 433.106 63.9832 433.097 66.6366C433.15 69.3925 432.932 72.147 432.447 74.8604C431.506 79.2263 429.163 83.5264 425.193 85.54C422.537 86.7259 419.622 87.2149 416.724 86.9608C410.48 86.786 404.43 84.755 399.345 81.127C396.828 79.2994 394.704 76.9853 393.097 74.3217C391.491 71.6582 390.435 68.6993 389.992 65.6204C389.635 62.6377 390.566 59.3444 390.67 56.277C390.751 52.7794 391.031 49.2892 391.507 45.8232C392.392 39.7542 394.085 31.841 399.9 28.5383C401.905 27.3998 404.285 27.1645 406.572 26.9481C408.331 26.7693 410.072 26.6094 411.813 26.5435Z" fill="#231F20"/>
<path d="M418.08 87.4406C417.647 87.4406 417.195 87.4406 416.734 87.4406C410.382 87.2792 404.226 85.2032 399.073 81.4845C396.501 79.624 394.33 77.2632 392.693 74.5436C391.055 71.8241 389.983 68.8018 389.541 65.658C389.398 63.7241 389.5 61.7799 389.842 59.8713C390.002 58.6669 390.172 57.4154 390.209 56.2393C390.286 52.7227 390.566 49.2135 391.047 45.729C391.988 39.2742 393.87 31.4363 399.685 28.1148C401.811 26.9104 404.323 26.6752 406.544 26.4681C408.153 26.3176 409.978 26.1482 411.766 26.0541C414.732 25.8442 417.713 26.0309 420.63 26.6093C425.861 27.7572 430.039 30.8153 431.921 34.786C433.295 37.797 433.342 41.2314 433.379 44.2612L433.558 58.648C433.558 61.3109 433.624 63.9925 433.605 66.6272C433.657 69.4115 433.437 72.1942 432.946 74.9356C431.902 80.0448 429.183 84.0532 425.419 85.9351C423.128 87.0167 420.611 87.533 418.08 87.4406ZM411.832 26.9951C410.072 27.0798 408.247 27.2491 406.647 27.3997C404.521 27.5973 402.112 27.8231 400.164 28.924C394.66 32.0479 392.91 39.6224 391.997 45.8608C391.52 49.3109 391.241 52.7855 391.16 56.2675C391.101 57.5278 390.976 58.7842 390.783 60.0312C390.461 61.863 390.36 63.7268 390.482 65.5827C390.91 68.6014 391.943 71.5026 393.52 74.1122C395.096 76.7219 397.183 78.9862 399.656 80.7694C404.659 84.3584 410.626 86.3584 416.781 86.509C420.263 86.6596 422.888 86.2268 425.014 85.1447C428.477 83.3852 431.027 79.612 432.024 74.7944C432.5 72.1117 432.715 69.389 432.664 66.6648C432.664 64.0396 432.664 61.3673 432.664 58.7798L432.485 44.3176C432.485 41.3819 432.401 38.051 431.102 35.2282C429.409 31.521 425.457 28.6417 420.489 27.5784C417.656 27.0158 414.76 26.8354 411.879 27.0421L411.832 26.9951Z" fill="#231F20"/>
<path d="M375.868 43.151L361.547 53.1437L350.143 31.3423C350.143 31.3423 350.858 22.2999 349.428 21.3025C347.998 20.3051 347.283 24.4641 347.283 24.4641C347.283 24.4641 344.131 15.704 343.133 16.0709C342.136 16.4379 338.429 18.7244 338.429 21.0108C338.429 23.2973 351.31 65.4135 355.027 67.1165C358.743 68.8196 387.583 51.7888 387.583 51.7888" fill="white"/>
<path d="M355.583 67.6999C355.303 67.7108 355.024 67.6627 354.764 67.5588C353.023 66.7496 349.683 58.9681 344.819 44.4306C341.384 34.1651 337.912 22.3375 337.912 21.0108C337.912 18.3856 341.92 15.9957 342.946 15.6287C343.031 15.5922 343.122 15.5734 343.214 15.5734C343.306 15.5734 343.398 15.5922 343.482 15.6287C344.489 16.0992 346.192 20.2769 347.161 22.8362C347.444 21.9612 347.886 20.9544 348.545 20.7286C348.73 20.6526 348.932 20.6274 349.131 20.6555C349.329 20.6836 349.517 20.764 349.674 20.8885C351.17 21.9329 350.775 28.8864 350.615 31.2388L361.755 52.4474L375.644 42.7558C375.746 42.6922 375.869 42.6704 375.987 42.6948C376.105 42.7192 376.209 42.788 376.278 42.887C376.347 42.986 376.375 43.1076 376.357 43.2267C376.338 43.3459 376.275 43.4535 376.18 43.5274L361.812 53.5295C361.758 53.5672 361.696 53.5934 361.631 53.6064C361.567 53.6193 361.5 53.6188 361.435 53.6047C361.37 53.5868 361.309 53.5559 361.255 53.5138C361.202 53.4718 361.158 53.4195 361.125 53.3601L349.683 31.5587C349.636 31.4828 349.616 31.3933 349.627 31.3046C349.965 27.0893 349.862 22.2058 349.109 21.6789C348.977 21.5942 348.921 21.613 348.893 21.6224C348.404 21.8294 347.886 23.4478 347.698 24.5487C347.68 24.6507 347.628 24.7437 347.552 24.8135C347.475 24.8832 347.378 24.9258 347.274 24.9345C347.171 24.946 347.067 24.9214 346.979 24.8648C346.892 24.8082 346.826 24.7232 346.795 24.624C345.524 21.1049 343.802 17.0966 343.125 16.5602C342.071 17.0025 338.834 19.0913 338.834 21.0108C338.834 23.6454 351.941 65.2347 355.159 66.7025C357.719 67.8881 376.217 57.933 387.283 51.3935C387.39 51.3325 387.517 51.3159 387.636 51.3475C387.755 51.3791 387.858 51.4562 387.92 51.5623C387.983 51.6684 388.002 51.795 387.973 51.9148C387.943 52.0346 387.868 52.138 387.763 52.2027C384.959 53.8306 361.379 67.6999 355.583 67.6999Z" fill="#231F20"/>
<path d="M481.329 179.661H480.378C479.376 179.661 478.562 180.475 478.562 181.478V183.717C478.562 184.72 479.376 185.533 480.378 185.533H481.329C482.332 185.533 483.145 184.72 483.145 183.717V181.478C483.145 180.475 482.332 179.661 481.329 179.661Z" fill="#231F20"/>
<path d="M481.319 185.994H480.378C480.077 185.991 479.779 185.93 479.502 185.812C479.225 185.694 478.974 185.523 478.764 185.308C478.553 185.093 478.387 184.838 478.275 184.559C478.163 184.279 478.107 183.98 478.111 183.679V181.449C478.111 180.843 478.351 180.261 478.78 179.832C479.209 179.404 479.791 179.163 480.397 179.163H481.338C481.944 179.163 482.526 179.404 482.955 179.832C483.383 180.261 483.624 180.843 483.624 181.449V183.679C483.628 183.983 483.571 184.285 483.457 184.567C483.342 184.849 483.173 185.105 482.958 185.321C482.743 185.537 482.488 185.707 482.206 185.823C481.925 185.938 481.623 185.996 481.319 185.994ZM480.378 180.132C480.021 180.132 479.679 180.274 479.427 180.526C479.174 180.778 479.033 181.121 479.033 181.477V183.679C479.033 184.036 479.174 184.378 479.427 184.631C479.679 184.883 480.021 185.025 480.378 185.025H481.319C481.676 185.025 482.018 184.883 482.271 184.631C482.523 184.378 482.665 184.036 482.665 183.679V181.449C482.665 181.092 482.523 180.75 482.271 180.498C482.018 180.245 481.676 180.104 481.319 180.104L480.378 180.132Z" fill="#231F20"/>
<path d="M461.081 179.661H460.13C459.127 179.661 458.314 180.475 458.314 181.478V183.717C458.314 184.72 459.127 185.533 460.13 185.533H461.081C462.084 185.533 462.897 184.72 462.897 183.717V181.478C462.897 180.475 462.084 179.661 461.081 179.661Z" fill="#231F20"/>
<path d="M461.07 185.994H460.129C459.523 185.994 458.941 185.753 458.512 185.324C458.084 184.895 457.843 184.314 457.843 183.707V181.477C457.843 180.871 458.084 180.289 458.512 179.861C458.941 179.432 459.523 179.191 460.129 179.191H461.07C461.677 179.191 462.26 179.432 462.69 179.86C463.121 180.289 463.364 180.87 463.366 181.477V183.679C463.369 183.982 463.311 184.283 463.197 184.564C463.082 184.844 462.914 185.1 462.7 185.315C462.487 185.53 462.233 185.701 461.953 185.817C461.673 185.934 461.373 185.994 461.07 185.994ZM460.129 180.132C459.772 180.132 459.43 180.274 459.178 180.526C458.925 180.778 458.784 181.121 458.784 181.477V183.679C458.784 184.036 458.925 184.378 459.178 184.631C459.43 184.883 459.772 185.025 460.129 185.025H461.07C461.428 185.025 461.771 184.883 462.025 184.631C462.279 184.379 462.423 184.037 462.425 183.679V181.449C462.423 181.092 462.279 180.749 462.025 180.497C461.771 180.245 461.428 180.104 461.07 180.104L460.129 180.132Z" fill="#231F20"/>
<path d="M441.142 128.992L456.027 120.543H489.703L499.526 168.201L487.36 179.078L441.142 128.992Z" fill="white"/>
<path d="M487.36 179.549C487.296 179.55 487.233 179.537 487.174 179.511C487.115 179.485 487.063 179.447 487.021 179.398L440.793 129.312C440.744 129.26 440.708 129.197 440.686 129.129C440.665 129.061 440.66 128.988 440.671 128.918C440.681 128.847 440.708 128.779 440.749 128.721C440.79 128.662 440.844 128.613 440.906 128.578L455.792 120.11C455.861 120.069 455.938 120.047 456.018 120.044H489.703C489.812 120.044 489.917 120.081 490.001 120.15C490.085 120.219 490.143 120.314 490.164 120.42L499.988 168.079C500.006 168.16 500.003 168.244 499.978 168.323C499.953 168.403 499.908 168.474 499.846 168.53L487.68 179.407C487.594 179.491 487.48 179.541 487.36 179.549ZM441.885 129.105L487.398 178.419L499.018 168.069L489.317 121.023H456.149L441.885 129.105Z" fill="#231F20"/>
<path d="M487.36 179.078H451.304L441.142 128.992H477.208L487.36 179.078Z" fill="white"/>
<path d="M487.36 179.549H451.304C451.195 179.55 451.089 179.514 451.004 179.445C450.92 179.376 450.863 179.279 450.843 179.172L440.68 129.105C440.668 129.036 440.669 128.966 440.685 128.898C440.702 128.829 440.732 128.766 440.775 128.71C440.819 128.656 440.875 128.613 440.939 128.584C441.002 128.555 441.072 128.54 441.142 128.541H477.17C477.279 128.539 477.385 128.576 477.469 128.644C477.554 128.713 477.611 128.81 477.631 128.917L487.821 178.975C487.837 179.043 487.836 179.115 487.82 179.183C487.804 179.252 487.772 179.315 487.727 179.37C487.684 179.426 487.629 179.472 487.565 179.503C487.501 179.534 487.431 179.55 487.36 179.549ZM451.689 178.608H486.786L476.822 129.463H441.715L451.689 178.608Z" fill="#231F20"/>
<path d="M456.027 177.723L456.884 180.584H482.355L481.856 177.723H456.027Z" fill="#231F20"/>
<path d="M482.354 181.054H456.883C456.781 181.054 456.682 181.021 456.601 180.96C456.519 180.899 456.46 180.813 456.432 180.715L455.575 177.893C455.553 177.823 455.547 177.75 455.558 177.678C455.57 177.606 455.598 177.537 455.641 177.479C455.685 177.421 455.742 177.374 455.808 177.341C455.873 177.308 455.945 177.291 456.018 177.29H481.874C481.985 177.289 482.092 177.327 482.176 177.398C482.261 177.469 482.317 177.567 482.335 177.676L482.834 180.499C482.848 180.567 482.846 180.637 482.828 180.704C482.81 180.771 482.777 180.833 482.731 180.885C482.685 180.94 482.628 180.984 482.562 181.014C482.497 181.043 482.426 181.057 482.354 181.054ZM457.231 180.113H481.799L481.46 178.231H456.657L457.231 180.113Z" fill="#231F20"/>
<path d="M467.046 131.288H449.102C448.995 131.289 448.891 131.252 448.807 131.186C448.723 131.119 448.665 131.026 448.641 130.921L440.54 94.093C440.523 94.025 440.522 93.9541 440.537 93.8857C440.551 93.8172 440.581 93.753 440.625 93.6978C440.669 93.6429 440.725 93.5984 440.788 93.5675C440.851 93.5366 440.921 93.52 440.992 93.5191H459.406C459.514 93.5172 459.621 93.554 459.705 93.6229C459.789 93.6918 459.847 93.7883 459.867 93.8954L467.507 130.724C467.521 130.793 467.518 130.865 467.5 130.933C467.482 131.001 467.449 131.065 467.403 131.119C467.362 131.173 467.307 131.217 467.245 131.247C467.183 131.276 467.115 131.29 467.046 131.288ZM449.479 130.347H466.463L459.029 94.46H441.584L449.479 130.347Z" fill="#231F20"/>
<path d="M477.17 129.463C477.091 129.464 477.013 129.445 476.944 129.407C476.875 129.369 476.816 129.314 476.775 129.246C476.74 129.195 476.716 129.138 476.704 129.077C476.691 129.017 476.691 128.954 476.704 128.894C476.716 128.833 476.74 128.776 476.775 128.725C476.81 128.674 476.855 128.63 476.907 128.597L487.878 121.437C487.985 121.369 488.113 121.346 488.236 121.372C488.36 121.399 488.468 121.472 488.537 121.578C488.604 121.683 488.627 121.81 488.6 121.932C488.574 122.053 488.5 122.159 488.396 122.227L477.424 129.387C477.348 129.434 477.26 129.46 477.17 129.463Z" fill="#231F20"/>
<path d="M461.701 94.46H438.799C438.674 94.46 438.554 94.4105 438.466 94.3222C438.378 94.234 438.328 94.1143 438.328 93.9896C438.331 93.8655 438.381 93.7473 438.469 93.6596C438.556 93.5719 438.675 93.5215 438.799 93.5191H461.701C461.825 93.5215 461.943 93.5719 462.031 93.6596C462.119 93.7473 462.169 93.8655 462.171 93.9896C462.171 94.1143 462.122 94.234 462.034 94.3222C461.945 94.4105 461.826 94.46 461.701 94.46Z" fill="#231F20"/>
<path d="M384.451 166.018L380.923 174.43L372.85 170.892L376.519 161.614L384.451 166.018Z" fill="white"/>
<path d="M376.49 161.614L384.422 166.018L380.894 174.43L372.821 170.883L376.49 161.614ZM376.49 160.673C376.384 160.673 376.279 160.692 376.18 160.73C376.053 160.774 375.937 160.844 375.839 160.937C375.742 161.029 375.666 161.142 375.615 161.266L371.974 170.506C371.885 170.732 371.888 170.984 371.981 171.209C372.074 171.433 372.25 171.613 372.472 171.711L380.546 175.258C380.665 175.306 380.793 175.332 380.922 175.333C381.041 175.335 381.16 175.313 381.27 175.267C381.386 175.221 381.491 175.152 381.58 175.065C381.669 174.978 381.739 174.874 381.788 174.759L385.316 166.347C385.405 166.133 385.412 165.894 385.336 165.675C385.26 165.457 385.105 165.274 384.902 165.162L376.98 160.758C376.839 160.678 376.68 160.636 376.518 160.636L376.49 160.673Z" fill="#231F20"/>
<path d="M381.854 174.072L377.488 185.166C377.488 185.166 354.482 176.895 353.023 175.408C351.565 173.922 356.59 172.115 357.559 172.407C358.528 172.699 362.263 173.687 363.618 173.517C364.973 173.348 372.284 169.65 372.284 169.65L381.854 174.072Z" fill="#231F20"/>
<path d="M377.488 185.636C377.435 185.645 377.381 185.645 377.328 185.636C374.967 184.78 354.181 177.29 352.667 175.766C352.446 175.57 352.304 175.302 352.266 175.009C352.228 174.717 352.297 174.421 352.46 174.176C353.259 172.84 356.656 171.682 357.663 171.983C358.67 172.284 362.368 173.235 363.534 173.084C364.475 172.962 369.18 170.732 372.05 169.264C372.113 169.234 372.182 169.218 372.252 169.218C372.322 169.218 372.391 169.234 372.454 169.264L382.052 173.686C382.16 173.736 382.245 173.825 382.288 173.936C382.332 174.046 382.332 174.169 382.287 174.279L377.921 185.373C377.884 185.455 377.822 185.524 377.745 185.571C377.668 185.618 377.579 185.641 377.488 185.636ZM357.23 172.84C356.43 172.84 353.833 173.677 353.259 174.627C353.233 174.66 353.213 174.698 353.202 174.738C353.19 174.779 353.188 174.821 353.194 174.863C353.2 174.905 353.215 174.945 353.238 174.98C353.26 175.016 353.29 175.046 353.325 175.07C354.351 176.095 368.013 181.252 377.215 184.573L381.252 174.317L372.266 170.177C370.921 170.854 364.946 173.818 363.657 173.94C362.189 174.119 358.284 173.075 357.39 172.811C357.335 172.81 357.281 172.819 357.23 172.84Z" fill="#231F20"/>
<path d="M423.575 143.624L430.895 149.062L425.523 156.054L417.402 150.267L423.575 143.624Z" fill="white"/>
<path d="M423.537 143.624L430.858 149.062L425.485 156.053L417.365 150.267L423.537 143.624ZM423.537 142.683C423.407 142.682 423.277 142.708 423.158 142.76C423.038 142.812 422.93 142.888 422.841 142.984L416.678 149.627C416.586 149.724 416.515 149.84 416.472 149.966C416.428 150.093 416.412 150.227 416.424 150.361C416.437 150.496 416.479 150.626 416.548 150.743C416.616 150.86 416.708 150.96 416.819 151.038L424.939 156.816C425.098 156.931 425.289 156.993 425.485 156.994C425.63 156.995 425.774 156.963 425.905 156.899C426.035 156.836 426.149 156.743 426.238 156.627L431.601 149.636C431.678 149.537 431.734 149.424 431.767 149.302C431.799 149.181 431.807 149.055 431.789 148.931C431.772 148.808 431.731 148.69 431.668 148.584C431.605 148.477 431.521 148.384 431.422 148.31L424.093 142.871C423.932 142.751 423.738 142.685 423.537 142.683Z" fill="#231F20"/>
<path d="M430.774 148.074L440.475 154.962C440.475 154.962 426.944 175.324 425.147 176.406C423.35 177.488 422.804 172.162 423.312 171.297C423.82 170.431 425.692 167.006 425.843 165.651C425.994 164.296 424.168 156.308 424.168 156.308L430.774 148.074Z" fill="#231F20"/>
<path d="M424.694 177.027C424.358 177.017 424.04 176.875 423.809 176.632C422.699 175.531 422.398 171.927 422.934 171.052C423.471 170.177 425.258 166.808 425.4 165.613C425.503 164.672 424.459 159.62 423.725 156.43C423.712 156.361 423.713 156.29 423.73 156.222C423.746 156.154 423.776 156.09 423.819 156.035L430.405 147.783C430.48 147.688 430.588 147.626 430.707 147.608C430.826 147.591 430.947 147.619 431.045 147.688L440.765 154.586C440.866 154.654 440.936 154.76 440.959 154.88C440.981 155 440.956 155.124 440.887 155.225C439.532 157.333 427.244 175.7 425.418 176.81C425.202 176.949 424.951 177.024 424.694 177.027ZM424.694 156.449C425.023 157.916 426.482 164.428 426.331 165.726C426.162 167.185 424.214 170.732 423.734 171.532C423.461 171.993 423.621 175.117 424.468 175.964C424.497 175.994 424.532 176.019 424.571 176.036C424.61 176.052 424.652 176.061 424.694 176.061C424.736 176.061 424.778 176.052 424.817 176.036C424.856 176.019 424.891 175.994 424.92 175.964C426.152 175.211 434.433 163.186 439.852 155.037L430.857 148.667L424.694 156.449Z" fill="#231F20"/>
<path d="M383.077 74.2488C383.077 74.2488 367.448 115.932 371.522 118.971C375.597 122.01 417.628 155.903 417.628 155.903L427.931 142.655C427.931 142.655 397.991 120.213 397.135 117.541C396.278 114.869 404.568 76.8928 404.568 76.8928L383.077 74.2488Z" fill="#231F20"/>
<path d="M417.59 156.392C417.481 156.392 417.375 156.356 417.289 156.289C416.875 155.95 375.219 122.368 371.183 119.367C366.949 116.205 380.969 78.3983 382.587 74.0983C382.625 74.002 382.693 73.9207 382.782 73.8664C382.87 73.8121 382.973 73.7878 383.076 73.7972L404.586 76.413C404.652 76.4209 404.715 76.4426 404.772 76.4766C404.828 76.5107 404.877 76.5563 404.915 76.6106C404.953 76.663 404.979 76.7228 404.992 76.786C405.005 76.8493 405.004 76.9145 404.991 76.9775C401.66 92.1924 396.936 115.509 397.538 117.381C398.141 119.254 416.649 133.622 428.175 142.259C428.273 142.336 428.338 142.448 428.354 142.571C428.369 142.695 428.336 142.819 428.26 142.918L417.91 156.166C417.873 156.218 417.825 156.26 417.769 156.291C417.714 156.322 417.653 156.341 417.59 156.345V156.392ZM383.34 74.7757C377.355 90.7716 369.009 116.572 371.757 118.614C375.586 121.437 413.337 151.895 417.505 155.254L427.234 142.758C422.784 139.418 397.501 120.345 396.644 117.701C395.788 115.057 402.723 83.0089 403.965 77.3163L383.34 74.7757Z" fill="#231F20"/>
<path d="M417.524 80.5248L387.17 168.032C387.17 168.032 367.711 162.499 369.047 161.501C367.391 162.734 389.287 102.1 394.998 76.7235L417.524 80.5248Z" fill="#231F20"/>
<path d="M387.17 168.474C387.13 168.483 387.088 168.483 387.048 168.474C378.73 166.112 368.765 163.026 368.521 161.727C368.511 161.659 368.511 161.589 368.521 161.52C368.436 160.579 369.584 156.816 375.512 138.938C382.098 119.009 391.141 91.7125 394.538 76.6105C394.562 76.4927 394.633 76.3893 394.733 76.3224C394.833 76.2556 394.955 76.2307 395.074 76.253L417.6 80.0731C417.667 80.0844 417.73 80.1095 417.787 80.1467C417.844 80.184 417.892 80.2326 417.929 80.2896C417.98 80.4163 417.98 80.558 417.929 80.6847L387.575 168.191C387.54 168.271 387.484 168.34 387.412 168.39C387.341 168.44 387.257 168.469 387.17 168.474ZM369.509 161.539C370.666 162.48 379.003 165.19 386.878 167.439L416.894 80.8729L395.356 77.2221C391.875 92.4558 382.945 119.442 376.406 139.211C372.793 150.126 369.65 159.62 369.433 161.2C369.468 161.249 369.493 161.304 369.506 161.362C369.519 161.42 369.52 161.48 369.509 161.539Z" fill="#231F20"/>
<path d="M424.722 58.4411L433.482 50.048C428.778 41.9748 427.103 36.508 423.857 34.8143C419.66 31.9162 404.803 33.8734 395.873 34.325C393.008 34.4279 390.176 34.9771 387.48 35.9528C381.599 38.0891 376.173 41.313 371.484 45.4563L382.315 58.8175L384.893 54.9032C384.893 54.9032 383.368 62.5342 379.793 77.9937C392.447 77.2684 405.117 79.1186 417.035 83.4323C417.035 83.4323 424.713 61.104 424.722 58.4411Z" fill="#68E1FD"/>
<path d="M406.459 60.7464C406.38 60.7476 406.302 60.7281 406.233 60.6899C406.178 60.6613 406.129 60.6218 406.089 60.5738C406.049 60.5257 406.02 60.4701 406.002 60.4103C405.984 60.3504 405.979 60.2877 405.987 60.2258C405.994 60.1639 406.014 60.1041 406.045 60.0501C406.139 59.8713 415.849 41.8713 412.631 34.946C411.897 33.3652 409.667 31.9727 407.212 31.5586C405.971 31.3147 404.69 31.3831 403.483 31.7576C402.275 32.1321 401.18 32.8009 400.296 33.704C395.905 38.092 393.251 43.9211 392.825 50.1138C392.637 52.7282 392.924 55.355 393.672 57.8671C393.701 57.9812 393.686 58.102 393.631 58.2058C393.575 58.3096 393.483 58.3888 393.372 58.4278C393.261 58.4668 393.139 58.4628 393.031 58.4164C392.923 58.3701 392.836 58.2849 392.787 58.1776C392.74 58.0459 388.233 44.9387 399.618 33.0547C400.607 32.0408 401.833 31.2888 403.185 30.8666C404.536 30.4445 405.972 30.3654 407.362 30.6365C410.185 31.0976 412.613 32.6689 413.488 34.5508C416.894 41.9089 407.268 59.749 406.854 60.5017C406.816 60.5739 406.759 60.6345 406.69 60.6775C406.62 60.7205 406.541 60.7442 406.459 60.7464Z" fill="#231F20"/>
<path d="M393.427 4.6669C393.427 4.6669 387.565 4.75158 390.332 11.3099C392.11 15.5723 404.718 16.278 404.718 16.278C404.718 16.278 404.662 8.36477 393.427 4.6669Z" fill="#231F20"/>
<path d="M404.717 16.7485C404.19 16.7485 391.826 15.9769 389.935 11.4887C388.994 9.1834 388.9 7.35799 389.756 6.05009C390.192 5.47922 390.751 5.01368 391.391 4.68793C392.031 4.36218 392.736 4.18456 393.454 4.16823H393.605C405.065 7.93196 405.216 15.8922 405.216 16.231C405.216 16.2949 405.203 16.3581 405.177 16.4165C405.151 16.4749 405.113 16.5271 405.065 16.5697C405.024 16.6237 404.972 16.6678 404.912 16.6988C404.851 16.7297 404.785 16.7467 404.717 16.7485ZM393.332 5.13739C392.787 5.16267 392.254 5.30322 391.767 5.54975C391.281 5.79628 390.852 6.1432 390.509 6.5676C389.841 7.59322 389.926 9.12694 390.773 11.1311C392.09 14.2456 400.464 15.4971 404.209 15.7793C403.955 14.0198 402.544 8.19542 393.332 5.13739Z" fill="#231F20"/>
<path d="M398.781 11.1874C398.933 10.9243 399.099 10.6698 399.28 10.4253C401.274 7.60247 406.562 8.5434 409.338 9.36201C411.972 10.012 414.393 11.3311 416.367 13.1916C417.891 14.7441 419.312 17.2658 419.03 19.5241C418.747 21.7823 417.317 24.4358 416.207 26.3364C415.58 27.5202 414.668 28.5292 413.553 29.2722C412.39 29.8754 411.101 30.1977 409.79 30.2131C406.973 30.4964 404.133 29.9709 401.604 28.6982C400.266 27.9495 399.123 26.8969 398.266 25.6254C397.41 24.3538 396.864 22.8989 396.673 21.3777C396.32 17.8455 397.056 14.2898 398.781 11.1874Z" fill="white"/>
<path d="M408.396 30.693C405.935 30.7873 403.491 30.2324 401.311 29.084C398.893 27.7103 396.353 24.7934 396.136 21.3778C395.802 17.7507 396.58 14.1079 398.366 10.9334C398.524 10.6609 398.697 10.397 398.884 10.1431C401.18 6.92507 407.051 8.19533 409.469 8.89162C412.188 9.55932 414.685 10.9247 416.714 12.8529C418.201 14.3678 419.829 17.0307 419.537 19.5806C419.035 22.0878 418.04 24.4704 416.611 26.5906C416.009 27.8712 415.038 28.9425 413.822 29.6668C412.606 30.3912 411.202 30.7354 409.789 30.6554C409.29 30.6836 408.839 30.693 408.396 30.693ZM404.106 9.05158C402.327 9.05158 400.596 9.44677 399.674 10.7358C399.505 10.9711 399.345 11.2157 399.194 11.4604C397.516 14.4672 396.784 17.9107 397.096 21.3402C397.284 22.782 397.807 24.1596 398.625 25.3624C399.442 26.5651 400.529 27.5594 401.801 28.2654C403.824 29.4228 406.411 29.8932 409.714 29.7145C410.952 29.7181 412.173 29.4313 413.28 28.877C414.32 28.1738 415.173 27.2275 415.764 26.1201C417.124 24.1288 418.083 21.8916 418.587 19.5336C418.841 17.4635 417.505 15.0641 416.056 13.5963C414.145 11.79 411.797 10.5123 409.243 9.88901C407.576 9.37763 405.849 9.08661 404.106 9.02335V9.05158Z" fill="#231F20"/>
<path d="M400.212 29.9967L399.393 36.7902C399.393 36.7902 401.275 41.0997 405.707 40.2529C407.02 39.9902 408.259 39.4374 409.332 38.6349C410.405 37.8323 411.284 36.8002 411.907 35.6141L412.463 23.2032C412.463 23.2032 409.282 21.3213 410.581 14.2643C406.907 15.6357 402.932 15.9932 399.073 15.2993C399.073 15.2993 396.702 22.8832 397.069 26.3176C397.436 29.7521 400.212 29.9967 400.212 29.9967Z" fill="white"/>
<path d="M404.567 40.8457C400.662 40.8457 398.921 37.0255 398.921 36.9879C398.898 36.9047 398.898 36.817 398.921 36.7338L399.693 30.3731C398.82 30.1203 398.049 29.5969 397.493 28.8782C396.937 28.1595 396.623 27.2827 396.597 26.3741C396.23 22.8739 398.479 15.4687 398.62 15.1582C398.657 15.0447 398.733 14.9481 398.835 14.8859C398.937 14.8238 399.057 14.8002 399.175 14.8195C402.927 15.4819 406.787 15.1378 410.363 13.8221C410.444 13.7859 410.534 13.7728 410.622 13.7845C410.71 13.7961 410.793 13.8319 410.862 13.888C410.931 13.9425 410.984 14.0156 411.014 14.0988C411.044 14.1821 411.05 14.272 411.031 14.3584C409.817 20.945 412.659 22.7704 412.687 22.8268C412.761 22.8714 412.821 22.9353 412.86 23.0117C412.9 23.088 412.918 23.1738 412.913 23.2597L412.367 35.6706C412.377 35.7329 412.377 35.7964 412.367 35.8587C411.709 37.1201 410.776 38.2169 409.635 39.0673C408.495 39.9177 407.177 40.4999 405.781 40.7704C405.379 40.8304 404.973 40.8556 404.567 40.8457ZM399.862 36.715C400.182 37.3642 401.913 40.4787 405.583 39.773C406.804 39.5218 407.956 39.009 408.96 38.27C409.964 37.5309 410.795 36.5831 411.398 35.4918L411.934 23.4384C411.2 22.8362 409.111 20.6156 409.939 14.97C406.538 16.0746 402.925 16.3615 399.392 15.8075C398.912 17.4071 397.227 23.3349 397.51 26.2236C397.792 29.1123 400.116 29.451 400.21 29.4604C400.341 29.4746 400.461 29.54 400.544 29.6422C400.627 29.7444 400.666 29.8752 400.652 30.0061L399.862 36.715Z" fill="#231F20"/>
<path d="M409.894 22.8551C410.075 22.2612 410.441 21.7406 410.938 21.3684C411.421 21.0474 411.956 20.8119 412.519 20.6721C412.818 20.5573 413.141 20.5154 413.46 20.5498C413.677 20.5976 413.884 20.6836 414.071 20.8038C414.53 21.0637 414.883 21.4767 415.069 21.9706C415.167 22.3851 415.167 22.817 415.069 23.2314C414.991 23.6862 414.855 24.1289 414.664 24.5487C414.461 24.963 414.177 25.3332 413.831 25.6379C413.484 25.9426 413.081 26.1759 412.644 26.3245C412.207 26.4731 411.745 26.534 411.284 26.5038C410.823 26.4735 410.373 26.3527 409.959 26.1483" fill="white"/>
<path d="M411.54 26.9952C410.92 26.9956 410.308 26.854 409.752 26.5812C409.694 26.5522 409.643 26.5122 409.601 26.4634C409.559 26.4146 409.527 26.358 409.507 26.2968C409.487 26.2356 409.479 26.171 409.484 26.1068C409.489 26.0426 409.506 25.98 409.536 25.9225C409.596 25.8104 409.696 25.7256 409.817 25.6854C409.938 25.6452 410.069 25.6526 410.185 25.7061C410.905 26.0616 411.735 26.1223 412.499 25.8755C413.255 25.6106 413.877 25.06 414.231 24.3418C414.408 23.9591 414.532 23.5538 414.598 23.1374C414.677 22.8001 414.677 22.449 414.598 22.1118C414.445 21.7171 414.163 21.3856 413.798 21.1708C413.665 21.0786 413.514 21.0145 413.356 20.9826C413.113 20.9653 412.869 21.0006 412.641 21.0861C412.132 21.2151 411.649 21.4281 411.21 21.7166C410.794 22.0229 410.487 22.4551 410.335 22.9492C410.299 23.074 410.215 23.1792 410.101 23.2419C409.987 23.3045 409.853 23.3194 409.728 23.2832C409.604 23.247 409.498 23.1628 409.436 23.0489C409.373 22.9351 409.358 22.8011 409.394 22.6763C409.605 21.9773 410.037 21.366 410.627 20.9356C411.155 20.5776 411.741 20.3134 412.358 20.1546C412.725 20.0204 413.119 19.9752 413.506 20.0229C413.788 20.0775 414.056 20.1861 414.297 20.3428C414.884 20.6678 415.327 21.2019 415.539 21.8389C415.661 22.3269 415.661 22.8375 415.539 23.3256C415.463 23.8277 415.314 24.3159 415.096 24.7746C414.866 25.2463 414.544 25.6678 414.15 26.015C413.756 26.3621 413.298 26.6281 412.801 26.7976C412.394 26.9315 411.968 26.9982 411.54 26.9952Z" fill="#231F20"/>
<path d="M400.014 33.3841C400.821 33.5158 401.647 33.4721 402.436 33.2562C403.225 33.0403 403.959 32.6571 404.587 32.1327C406.619 30.3543 406.468 29.3099 406.468 29.3099C406.468 29.3099 403.26 30.8718 400.409 30.1567L400.014 33.3841Z" fill="#231F20"/>
<path d="M400.869 33.9204C400.535 33.9247 400.201 33.8963 399.872 33.8357C399.755 33.8128 399.652 33.7468 399.582 33.6508C399.512 33.5548 399.481 33.436 399.496 33.3182L399.928 30.0532C399.933 29.9866 399.953 29.922 399.988 29.8648C400.022 29.8076 400.069 29.7593 400.126 29.7238C400.18 29.6854 400.242 29.6595 400.307 29.6481C400.372 29.6367 400.439 29.6401 400.502 29.658C403.156 30.326 406.214 28.8582 406.251 28.8488C406.318 28.8141 406.393 28.796 406.468 28.796C406.543 28.796 406.617 28.8141 406.684 28.8488C406.748 28.8861 406.803 28.9378 406.844 28.9999C406.885 29.0619 406.911 29.1326 406.919 29.2063C406.919 29.3475 406.995 30.5989 404.849 32.4714C403.744 33.4234 402.328 33.9387 400.869 33.9204ZM400.493 32.9794C401.856 33.0932 403.209 32.6637 404.257 31.7845C404.843 31.3059 405.343 30.7298 405.734 30.0814C404.167 30.6778 402.478 30.8845 400.813 30.6836L400.493 32.9794Z" fill="#231F20"/>
<path d="M402.667 19.6653C402.667 19.6653 400.08 22.9115 400.578 23.5514C401.077 24.1912 402.639 23.9277 402.639 23.9277" fill="white"/>
<path d="M401.895 24.4546C401.582 24.4831 401.266 24.4422 400.97 24.3349C400.674 24.2276 400.405 24.0565 400.183 23.8336C399.703 23.222 400.409 21.7165 402.281 19.3736C402.36 19.2763 402.474 19.2142 402.598 19.2009C402.723 19.1877 402.847 19.2244 402.945 19.303C403.042 19.3816 403.104 19.4957 403.117 19.6201C403.13 19.7445 403.094 19.8691 403.015 19.9664C401.895 21.3872 400.955 22.968 400.955 23.3349C401.453 23.5365 402.001 23.5824 402.526 23.4667C402.588 23.4562 402.651 23.4579 402.712 23.4719C402.773 23.4858 402.831 23.5116 402.882 23.5479C402.933 23.5842 402.977 23.6301 403.01 23.6832C403.043 23.7363 403.066 23.7954 403.076 23.8571C403.087 23.9189 403.085 23.9822 403.071 24.0433C403.057 24.1044 403.031 24.1621 402.995 24.2133C402.959 24.2644 402.913 24.3078 402.86 24.3412C402.807 24.3745 402.748 24.3971 402.686 24.4076C402.424 24.4436 402.16 24.4594 401.895 24.4546Z" fill="#231F20"/>
<path d="M401.942 26.3554C401.942 26.3554 404.426 27.3998 405.33 24.9722Z" fill="white"/>
<path d="M403.137 27.0421C402.665 27.0359 402.197 26.95 401.754 26.7881C401.638 26.7394 401.546 26.6467 401.498 26.5302C401.451 26.4137 401.451 26.2831 401.5 26.1671C401.548 26.051 401.641 25.9591 401.758 25.9114C401.874 25.8638 402.005 25.8644 402.121 25.913C402.698 26.1246 403.331 26.1246 403.909 25.913C404.142 25.7982 404.35 25.6374 404.52 25.4401C404.69 25.2428 404.818 25.0132 404.897 24.7651C404.913 24.7009 404.942 24.6408 404.983 24.5888C405.024 24.5368 405.076 24.4941 405.135 24.4634C405.193 24.4327 405.258 24.4148 405.324 24.4107C405.39 24.4067 405.456 24.4167 405.518 24.44C405.58 24.4633 405.637 24.4995 405.684 24.5461C405.731 24.5927 405.768 24.6488 405.791 24.7105C405.815 24.7723 405.826 24.8385 405.823 24.9046C405.819 24.9708 405.802 25.0354 405.772 25.0944C405.651 25.4628 405.456 25.8025 405.199 26.0923C404.942 26.382 404.627 26.6157 404.276 26.7787C403.918 26.9419 403.53 27.0315 403.137 27.0421Z" fill="#231F20"/>
<path d="M407.12 20.0708C407.25 19.6486 407.109 19.2309 406.806 19.1379C406.503 19.0449 406.152 19.3118 406.023 19.7341C405.893 20.1564 406.034 20.5741 406.337 20.6671C406.64 20.7601 406.991 20.4931 407.12 20.0708Z" fill="#231F20"/>
<path d="M401.133 19.6064C401.262 19.1841 401.122 18.7664 400.819 18.6734C400.516 18.5804 400.165 18.8473 400.035 19.2696C399.906 19.6919 400.046 20.1096 400.349 20.2026C400.653 20.2956 401.003 20.0287 401.133 19.6064Z" fill="#231F20"/>
<path d="M410.091 17.8493L418.973 19.7312C418.973 19.7312 423.678 8.09184 414.532 2.86967C404.182 -3.02998 398.828 5.34432 398.828 5.34432L410.091 17.8493Z" fill="white"/>
<path d="M418.973 20.2205H418.832L409.959 18.3386C409.857 18.3189 409.764 18.266 409.695 18.1881L398.404 5.70193C398.331 5.62279 398.286 5.52125 398.278 5.4137C398.269 5.30614 398.297 5.19885 398.357 5.10914C398.414 5.02446 404.088 -3.58508 414.711 2.48394C418.597 4.70454 420.639 8.44004 420.591 13.2858C420.583 15.5596 420.188 17.8153 419.425 19.9571C419.383 20.0399 419.318 20.1089 419.238 20.1557C419.158 20.2025 419.066 20.225 418.973 20.2205ZM410.345 17.3977L418.663 19.1667C419.306 17.2484 419.652 15.2429 419.688 13.22C419.688 8.7035 417.9 5.36319 414.287 3.29314C405.471 -1.74085 400.512 3.88593 399.449 5.30674L410.345 17.3977Z" fill="#231F20"/>
<path d="M410.091 17.8494C410.091 17.8494 408.331 8.44004 398.799 5.35378L393.427 4.6669C396.616 7.19589 399.262 10.3416 401.208 13.9163C404.577 19.863 410.091 17.8494 410.091 17.8494Z" fill="white"/>
<path d="M407.908 18.6491C405.857 18.6491 402.893 17.8963 400.757 14.1608C398.84 10.6505 396.243 7.5574 393.117 5.06203C393.029 4.99859 392.965 4.90783 392.934 4.80396C392.903 4.70009 392.908 4.58898 392.947 4.48806C392.986 4.3884 393.058 4.30464 393.15 4.25008C393.242 4.19553 393.349 4.17331 393.455 4.18696L398.894 4.87384C408.642 8.07301 410.552 17.6611 410.571 17.7552C410.593 17.8683 410.574 17.9857 410.517 18.0859C410.46 18.1861 410.369 18.2625 410.261 18.3009C409.5 18.5409 408.706 18.6584 407.908 18.6491ZM395.008 5.35372C397.628 7.76514 399.851 10.5756 401.595 13.681C404.257 18.3856 408.181 17.8211 409.508 17.5106C409.018 15.6287 406.629 8.43998 398.668 5.81477L395.008 5.35372Z" fill="#231F20"/>
<path d="M381.128 125.021H380.987C380.869 124.983 380.771 124.899 380.714 124.787C380.658 124.676 380.648 124.547 380.686 124.429L388.844 97.9603C388.881 97.8422 388.963 97.7434 389.072 97.6853C389.181 97.6272 389.309 97.6144 389.427 97.6498C389.546 97.6887 389.645 97.7724 389.703 97.8831C389.761 97.9938 389.774 98.1228 389.738 98.2425L381.58 124.711C381.545 124.803 381.484 124.882 381.403 124.937C381.322 124.993 381.226 125.022 381.128 125.021Z" fill="white"/>
<path d="M397.276 140.763C397.214 140.777 397.15 140.777 397.088 140.763C397.031 140.74 396.98 140.705 396.936 140.661C396.893 140.618 396.859 140.566 396.837 140.509C396.814 140.452 396.803 140.391 396.804 140.33C396.805 140.268 396.818 140.208 396.843 140.152L403.429 124.4C403.477 124.286 403.568 124.195 403.683 124.148C403.797 124.1 403.926 124.1 404.041 124.146C404.154 124.196 404.243 124.287 404.29 124.401C404.338 124.515 404.339 124.643 404.295 124.758L397.709 140.519C397.666 140.596 397.604 140.66 397.527 140.703C397.451 140.746 397.364 140.767 397.276 140.763Z" fill="white"/>
<path d="M422.182 53.0685C422.182 53.0685 435.769 80.3555 442.064 91.5526C442.064 91.5526 443.4 101.348 449.506 100.811C458.191 100.04 456.657 94.5165 456.657 94.5165L451.765 89.7648L433.482 50.0669" fill="white"/>
<path d="M449.017 101.301C443.231 101.301 441.772 92.7569 441.612 91.7031C435.364 80.6095 421.853 53.5483 421.759 53.2754C421.734 53.1698 421.746 53.0589 421.794 52.9614C421.841 52.8639 421.921 52.7858 422.02 52.7405C422.118 52.6951 422.229 52.6851 422.334 52.7123C422.439 52.7395 422.532 52.8021 422.596 52.8896C422.737 53.1625 436.258 80.3366 442.478 91.3549C442.505 91.4083 442.524 91.4654 442.534 91.5243C442.534 91.6184 443.889 100.868 449.469 100.378C452.518 100.106 454.578 99.2211 455.604 97.7533C456.192 96.8887 456.419 95.8281 456.234 94.7987L451.454 90.0941C451.412 90.0569 451.377 90.0122 451.351 89.9624L433.05 50.2456C432.999 50.132 432.995 50.0029 433.039 49.8865C433.083 49.7701 433.172 49.6759 433.285 49.6246C433.34 49.5978 433.401 49.5824 433.462 49.5792C433.524 49.5761 433.585 49.5854 433.643 49.6064C433.701 49.6275 433.754 49.6599 433.799 49.7018C433.844 49.7437 433.881 49.7942 433.906 49.8504L452.17 89.4825L456.987 94.1871C457.048 94.2473 457.094 94.3216 457.119 94.4036C457.267 95.0632 457.277 95.7461 457.149 96.4099C457.021 97.0736 456.758 97.7039 456.375 98.2614C455.19 99.9739 452.894 100.99 449.554 101.282L449.017 101.301Z" fill="#231F20"/>
<path d="M422.181 71.0307C422.181 71.0307 414.381 62.2048 415.152 50.5654C415.924 38.9261 419.857 32.603 419.857 32.603L423.865 33.6098C423.865 33.6098 419.509 40.074 419.076 50.8477C418.728 59.382 423.527 66.8436 423.527 66.8436L422.181 71.0307Z" fill="#231F20"/>
<path d="M422.182 71.5013C422.114 71.5019 422.047 71.4879 421.985 71.4603C421.924 71.4327 421.869 71.3921 421.824 71.3413C421.749 71.2472 413.911 62.2331 414.682 50.5279C415.454 38.8227 419.293 32.6502 419.453 32.3585C419.503 32.2724 419.579 32.2048 419.671 32.1658C419.763 32.1268 419.864 32.1185 419.961 32.1421L423.969 33.1301C424.043 33.1496 424.111 33.1861 424.169 33.2368C424.226 33.2874 424.27 33.3508 424.299 33.4217C424.323 33.4919 424.33 33.5666 424.32 33.6401C424.31 33.7135 424.284 33.7837 424.242 33.8452C424.242 33.911 419.952 40.347 419.538 50.8478C419.199 59.128 423.866 66.5332 423.913 66.6084C423.943 66.67 423.958 66.7376 423.958 66.806C423.958 66.8745 423.943 66.9421 423.913 67.0036L422.596 71.1719C422.569 71.2499 422.523 71.32 422.462 71.3758C422.401 71.4316 422.327 71.4715 422.247 71.4919L422.182 71.5013ZM420.083 33.1301C419.331 34.5038 416.32 40.5916 415.623 50.5844C414.983 60.1066 420.271 67.8128 421.993 70.0523L423.01 66.9283C422.247 65.6769 418.305 58.7516 418.597 50.8196C418.729 44.8933 420.281 39.0852 423.123 33.8828L420.083 33.1301Z" fill="#231F20"/>
<path d="M383.021 64.3784C383.021 64.3784 384.366 48.3826 393.719 34.0239L389.776 34.5603C389.776 34.5603 384.394 37.4584 381.985 49.5305C379.737 60.8123 383.021 64.3784 383.021 64.3784Z" fill="#231F20"/>
<path d="M383.021 64.8489C382.956 64.85 382.891 64.8371 382.831 64.8111C382.771 64.7852 382.717 64.7467 382.673 64.6984C382.532 64.5478 379.257 60.8311 381.525 49.4365C383.953 37.289 389.325 34.2686 389.561 34.1463H389.711L393.654 33.61C393.743 33.5991 393.834 33.6137 393.915 33.652C393.997 33.6902 394.066 33.7507 394.115 33.8264C394.163 33.9008 394.188 33.9873 394.188 34.0757C394.188 34.1641 394.163 34.2507 394.115 34.3251C384.941 48.4391 383.51 64.3126 383.492 64.4349C383.486 64.5245 383.453 64.6103 383.398 64.6809C383.342 64.7515 383.267 64.8035 383.181 64.8301C383.129 64.8466 383.075 64.8529 383.021 64.8489ZM389.937 35.012C389.325 35.3977 384.63 38.6722 382.409 49.6246C380.904 57.1521 381.911 61.1511 382.682 62.9294C383.247 58.7705 385.505 46.209 392.741 34.6262L389.937 35.012Z" fill="#231F20"/>
<path d="M423.452 82.7172C423.333 82.7175 423.219 82.6732 423.132 82.5929C423.045 82.5127 422.991 82.4025 422.982 82.2843C422.563 76.6923 423.877 71.107 426.745 66.2885C426.774 66.2303 426.815 66.1787 426.866 66.1372C426.916 66.0956 426.974 66.0649 427.036 66.047C427.099 66.0291 427.165 66.0244 427.229 66.0331C427.294 66.0419 427.356 66.064 427.411 66.098C427.467 66.132 427.515 66.1771 427.552 66.2306C427.589 66.284 427.615 66.3446 427.627 66.4085C427.64 66.4724 427.639 66.5382 427.625 66.6018C427.611 66.6654 427.584 66.7253 427.545 66.7778C424.776 71.4259 423.501 76.8127 423.894 82.2091C423.899 82.2704 423.892 82.3321 423.873 82.3906C423.854 82.4491 423.823 82.5032 423.783 82.5497C423.743 82.5961 423.693 82.6341 423.638 82.6612C423.583 82.6884 423.523 82.7042 423.461 82.7077L423.452 82.7172Z" fill="white"/>
<path d="M389.287 94.46C389.227 94.4612 389.167 94.4505 389.112 94.4283C389.056 94.4062 389.005 94.3731 388.962 94.3311C388.919 94.289 388.885 94.2388 388.862 94.1834C388.838 94.128 388.826 94.0684 388.826 94.0083C388.826 93.7637 388.657 88.1181 388.826 85.4553C388.829 85.393 388.844 85.3319 388.87 85.2756C388.897 85.2192 388.934 85.1689 388.981 85.1275C389.028 85.0862 389.082 85.0548 389.141 85.0351C389.2 85.0154 389.263 85.0079 389.325 85.013C389.448 85.0227 389.563 85.0804 389.644 85.1737C389.725 85.267 389.766 85.3884 389.758 85.5117C389.588 88.1275 389.758 93.9236 389.758 93.9801C389.76 94.1033 389.714 94.2226 389.63 94.3123C389.546 94.4021 389.429 94.4551 389.306 94.46H389.287Z" fill="white"/>
<path d="M411.54 92.0324C411.413 92.0321 411.291 91.9813 411.201 91.8912C407.202 87.7417 407.861 83.4887 407.889 83.3099C407.912 83.1892 407.98 83.0818 408.08 83.01C408.18 82.9383 408.303 82.9075 408.425 82.9241C408.486 82.9333 408.545 82.9545 408.597 82.9866C408.65 83.0186 408.695 83.0609 408.731 83.1109C408.767 83.1609 408.793 83.2176 408.807 83.2776C408.82 83.3377 408.822 83.3998 408.811 83.4605C408.722 84.9029 408.951 86.3474 409.481 87.6919C410.011 89.0364 410.829 90.2482 411.879 91.242C411.923 91.2857 411.958 91.3378 411.982 91.3951C412.005 91.4524 412.018 91.5139 412.018 91.576C412.018 91.6381 412.005 91.6996 411.982 91.7569C411.958 91.8143 411.923 91.8663 411.879 91.9101C411.833 91.9526 411.78 91.9854 411.722 92.0064C411.664 92.0275 411.602 92.0363 411.54 92.0324Z" fill="white"/>
<path d="M344.998 28.8958C344.889 28.8958 344.784 28.8584 344.7 28.7898C344.616 28.7212 344.558 28.6257 344.537 28.5194C344.104 26.3553 346.833 24.1911 346.946 24.097C347.043 24.0201 347.167 23.9849 347.29 23.999C347.414 24.0131 347.527 24.0754 347.604 24.1723C347.679 24.2722 347.713 24.3971 347.699 24.5213C347.685 24.6456 347.624 24.7597 347.529 24.8404C346.861 25.3579 345.195 27.0045 345.459 28.3312C345.473 28.3919 345.474 28.4547 345.463 28.5158C345.451 28.5769 345.428 28.6352 345.394 28.6871C345.359 28.7389 345.315 28.7833 345.263 28.8176C345.211 28.8518 345.153 28.8752 345.092 28.8864L344.998 28.8958Z" fill="#231F20"/>
<path d="M408.875 60.7478L390.289 57.5107C389.521 57.377 388.79 57.8911 388.656 58.659L387.171 67.1872C387.037 67.9552 387.551 68.6861 388.319 68.8199L406.905 72.0569C407.673 72.1907 408.404 71.6766 408.538 70.9087L410.023 62.3805C410.157 61.6125 409.643 60.8816 408.875 60.7478Z" fill="white"/>
<path d="M407.146 72.5457C407.04 72.5548 406.933 72.5548 406.826 72.5457L388.233 69.3089C387.745 69.2169 387.31 68.9407 387.019 68.5374C386.876 68.3349 386.773 68.1059 386.718 67.8636C386.664 67.6214 386.657 67.3707 386.7 67.126L388.186 58.6011C388.273 58.1103 388.55 57.6738 388.958 57.3873C389.16 57.2435 389.389 57.1412 389.632 57.0862C389.874 57.0313 390.124 57.0249 390.369 57.0674L408.953 60.3042C409.445 60.3939 409.883 60.6704 410.176 61.0758C410.318 61.2789 410.419 61.5082 410.472 61.7505C410.525 61.9927 410.53 62.243 410.486 62.4872L409 71.012C408.918 71.4438 408.689 71.8336 408.35 72.1138C408.011 72.3939 407.585 72.5467 407.146 72.5457ZM406.986 71.6048C407.108 71.6265 407.233 71.6239 407.353 71.5974C407.474 71.5708 407.588 71.5207 407.69 71.4499C407.791 71.3791 407.878 71.2891 407.944 71.1849C408.011 71.0807 408.056 70.9644 408.078 70.8426L409.564 62.3178C409.586 62.1954 409.583 62.0699 409.556 61.9487C409.529 61.8274 409.478 61.7127 409.406 61.6112C409.334 61.5098 409.243 61.4235 409.138 61.3574C409.033 61.2914 408.915 61.2468 408.793 61.2263L390.209 57.9895C390.088 57.9678 389.963 57.9703 389.842 57.9969C389.721 58.0235 389.607 58.0736 389.506 58.1444C389.404 58.2152 389.318 58.3052 389.251 58.4094C389.185 58.5136 389.139 58.6299 389.118 58.7517L387.631 67.2765C387.61 67.3989 387.613 67.5242 387.641 67.6453C387.668 67.7665 387.719 67.8809 387.791 67.9822C387.933 68.185 388.15 68.3237 388.393 68.368L406.986 71.6048Z" fill="#231F20"/>
<path d="M396.59 55.8301L403.515 57.0361C403.94 57.1102 404.319 57.3502 404.567 57.7033C404.816 58.0565 404.913 58.4938 404.839 58.9191L404.649 60.013L394.508 58.2467L394.698 57.1529C394.772 56.7275 395.012 56.3491 395.365 56.1007C395.719 55.8523 396.156 55.7544 396.581 55.8285L396.59 55.8301Z" fill="white"/>
<path d="M404.643 60.4736H404.567L394.433 58.7046C394.373 58.6947 394.316 58.673 394.264 58.6407C394.212 58.6084 394.168 58.5662 394.132 58.5164C394.059 58.4128 394.028 58.2845 394.048 58.1589L394.236 57.0674C394.335 56.5185 394.646 56.0308 395.102 55.7101C395.559 55.3895 396.123 55.2618 396.673 55.3549L403.589 56.5593C404.139 56.6581 404.629 56.9689 404.953 57.425C405.271 57.8825 405.397 58.4471 405.301 58.9963L405.113 60.0878C405.089 60.21 405.018 60.318 404.915 60.3889C404.836 60.4459 404.74 60.4756 404.643 60.4736ZM395.054 57.8578L404.266 59.4668L404.37 58.8364C404.399 58.6869 404.397 58.533 404.365 58.3841C404.332 58.2353 404.27 58.0946 404.181 57.9707C404.004 57.7173 403.733 57.5447 403.429 57.4908L396.503 56.2864C396.202 56.2345 395.891 56.3044 395.641 56.4808C395.391 56.6572 395.22 56.9256 395.167 57.2274L395.054 57.8578Z" fill="#231F20"/>
<path d="M398.593 69.6194C401.264 69.6194 403.43 67.4541 403.43 64.783C403.43 62.112 401.264 59.9466 398.593 59.9466C395.922 59.9466 393.757 62.112 393.757 64.783C393.757 67.4541 395.922 69.6194 398.593 69.6194Z" fill="white"/>
<path d="M398.603 70.0899C398.288 70.0891 397.973 70.064 397.662 70.0146C396.277 69.7665 395.047 68.9818 394.238 67.8311C393.429 66.6805 393.107 65.257 393.343 63.8703C393.462 63.1833 393.715 62.5265 394.089 61.9374C394.462 61.3483 394.947 60.8384 395.517 60.437C396.087 60.0355 396.731 59.7502 397.411 59.5975C398.092 59.4447 398.795 59.4275 399.482 59.5467C400.169 59.666 400.826 59.9193 401.415 60.2924C402.004 60.6655 402.514 61.1509 402.916 61.7211C403.317 62.2912 403.603 62.9348 403.755 63.6151C403.908 64.2955 403.925 64.9993 403.806 65.6863C403.594 66.9145 402.956 68.0288 402.005 68.834C401.053 69.6391 399.849 70.0837 398.603 70.0899ZM398.603 60.4077C397.502 60.3989 396.439 60.8058 395.626 61.547C394.813 62.2882 394.31 63.3091 394.217 64.4054C394.125 65.5017 394.449 66.5927 395.126 67.4599C395.803 68.3272 396.783 68.9069 397.869 69.0831C399.01 69.2815 400.184 69.0182 401.132 68.3512C402.079 67.6842 402.723 66.668 402.922 65.5263C403.12 64.3846 402.857 63.2109 402.19 62.2633C401.523 61.3157 400.506 60.6719 399.365 60.4735C399.107 60.4302 398.845 60.4113 398.584 60.4171L398.603 60.4077Z" fill="#231F20"/>
<path d="M398.593 67.6905C400.199 67.6905 401.501 66.3888 401.501 64.783C401.501 63.1773 400.199 61.8755 398.593 61.8755C396.987 61.8755 395.686 63.1773 395.686 64.783C395.686 66.3888 396.987 67.6905 398.593 67.6905Z" fill="white"/>
<path d="M398.593 68.161C398.402 68.175 398.21 68.175 398.019 68.161C397.579 68.0786 397.16 67.9101 396.786 67.6652C396.411 67.4203 396.089 67.1039 395.837 66.734C395.585 66.3642 395.409 65.9483 395.318 65.5101C395.228 65.072 395.225 64.6202 395.309 64.1808C395.385 63.7428 395.547 63.3242 395.786 62.9494C396.025 62.5746 396.336 62.2511 396.702 61.9979C397.062 61.7381 397.471 61.5542 397.905 61.4571C398.338 61.3601 398.787 61.352 399.223 61.4333C400.105 61.5872 400.89 62.085 401.405 62.8171C401.921 63.5493 402.124 64.4561 401.971 65.3382C401.838 66.1348 401.425 66.8575 400.805 67.3754C400.185 67.8933 399.401 68.172 398.593 68.161ZM398.593 62.3366C397.965 62.3912 397.382 62.6861 396.966 63.16C396.55 63.6338 396.333 64.2499 396.361 64.8798C396.388 65.5097 396.657 66.1048 397.113 66.5408C397.568 66.9769 398.174 67.2203 398.805 67.2203C399.435 67.2203 400.041 66.9769 400.497 66.5408C400.952 66.1048 401.222 65.5097 401.249 64.8798C401.276 64.2499 401.059 63.6338 400.643 63.16C400.227 62.6861 399.645 62.3912 399.016 62.3366C398.877 62.3101 398.735 62.2975 398.593 62.299V62.3366Z" fill="#231F20"/>
<path d="M458.351 175.644C458.243 175.642 458.139 175.604 458.055 175.536C457.972 175.467 457.914 175.373 457.89 175.267L449.187 132.511C449.164 132.389 449.19 132.263 449.258 132.16C449.327 132.056 449.433 131.983 449.554 131.956C449.614 131.944 449.677 131.943 449.737 131.955C449.798 131.967 449.856 131.991 449.907 132.025C449.959 132.059 450.003 132.103 450.038 132.154C450.072 132.205 450.096 132.263 450.109 132.323L458.812 175.079C458.835 175.201 458.809 175.327 458.741 175.431C458.672 175.534 458.567 175.607 458.445 175.634L458.351 175.644Z" fill="#D1D3D4"/>
<path d="M476.285 175.644C476.177 175.644 476.072 175.606 475.988 175.538C475.904 175.469 475.846 175.374 475.824 175.267L466.584 132.521C466.57 132.46 466.569 132.398 466.579 132.336C466.59 132.275 466.612 132.217 466.645 132.164C466.679 132.112 466.722 132.066 466.773 132.03C466.824 131.995 466.881 131.97 466.942 131.956C467.065 131.934 467.192 131.959 467.297 132.027C467.402 132.095 467.477 132.201 467.506 132.323L476.746 175.07C476.76 175.13 476.762 175.193 476.751 175.254C476.741 175.316 476.718 175.374 476.685 175.427C476.652 175.479 476.609 175.524 476.558 175.56C476.507 175.596 476.449 175.621 476.389 175.634L476.285 175.644Z" fill="#D1D3D4"/>
<path d="M486.401 158.274C486.331 158.275 486.262 158.26 486.198 158.231C486.135 158.202 486.078 158.158 486.034 158.105C485.957 158.006 485.922 157.882 485.934 157.758C485.946 157.633 486.005 157.519 486.1 157.437L493.834 151.142C493.931 151.063 494.056 151.026 494.18 151.04C494.305 151.053 494.419 151.115 494.497 151.212C494.576 151.31 494.613 151.434 494.599 151.559C494.586 151.683 494.524 151.797 494.427 151.876L486.702 158.171C486.614 158.235 486.509 158.271 486.401 158.274Z" fill="#D1D3D4"/>
</svg>
