<svg width="167" height="156" viewBox="0 0 167 156" fill="none" xmlns="http://www.w3.org/2000/svg">
<rect x="0.228516" y="0.731689" width="165.935" height="154.334" fill="#FFD234"/>
<path d="M94.7622 105.318C96.2133 105.418 97.3531 103.919 98.277 102.56C97.0819 104.36 98.6234 106.923 99.949 108.131C101.094 109.102 102.41 109.852 103.83 110.342C106.041 111.227 108.408 111.66 110.79 111.616C113.183 111.564 115.501 110.77 117.422 109.345C119.623 107.553 121.077 105.008 121.5 102.204C121.903 99.4159 121.59 96.5708 120.591 93.9361C120.325 93.0903 119.9 92.3026 119.34 91.6145C118.517 90.7806 117.486 90.1816 116.353 89.8796C114.832 89.3931 113.245 89.1478 111.648 89.1526C109.429 89.1526 107.842 89.0071 105.849 88.0896C104.295 87.3541 102.674 86.7698 101.008 86.3446C97.9004 85.5875 94.0341 85.6276 92.6985 89.1175C91.3629 92.6073 89.9269 104.987 94.7622 105.318Z" fill="white"/>
<path d="M110.237 111.867C108.001 111.834 105.789 111.394 103.71 110.568C102.259 110.072 100.916 109.305 99.7534 108.307C98.719 107.364 97.4989 105.574 97.5692 103.899C96.7558 104.902 95.8419 105.634 94.7322 105.559C94.2563 105.521 93.7968 105.368 93.394 105.112C92.9913 104.856 92.6577 104.505 92.4225 104.09C90.1882 100.58 91.338 91.9204 92.4225 89.0473C93.9289 85.036 98.4479 85.5023 101.014 86.124C102.695 86.5515 104.332 87.1409 105.899 87.884C107.822 88.7715 109.324 88.9169 111.598 88.9269H111.638C113.247 88.9255 114.846 89.1742 116.378 89.664C117.555 89.9727 118.624 90.5969 119.471 91.4691C120.052 92.1802 120.492 92.9953 120.767 93.8709C121.781 96.5439 122.097 99.4308 121.686 102.26C121.251 105.122 119.765 107.721 117.518 109.55C115.557 111.004 113.192 111.816 110.75 111.872L110.237 111.867ZM98.4579 102.691C97.3834 104.315 98.7692 106.742 100.095 107.951C101.213 108.907 102.503 109.642 103.896 110.117C106.076 110.992 108.41 111.42 110.76 111.375C113.101 111.322 115.369 110.546 117.252 109.154C119.404 107.4 120.825 104.908 121.239 102.164C121.635 99.4178 121.326 96.6156 120.34 94.0213C120.084 93.2056 119.677 92.4453 119.14 91.78C118.349 90.9731 117.352 90.3974 116.258 90.1153C114.775 89.6395 113.226 89.3976 111.668 89.3983H111.518C109.288 89.3983 107.692 89.2178 105.728 88.3152C104.189 87.5861 102.584 87.0067 100.933 86.5853C98.5282 86.0037 94.2954 85.5825 92.8995 89.2077C91.8552 91.9454 90.7204 100.53 92.8393 103.834C93.0359 104.184 93.3153 104.481 93.6532 104.699C93.991 104.916 94.3769 105.048 94.7774 105.083C96.0628 105.168 97.1022 103.859 98.0512 102.43C98.087 102.377 98.1422 102.34 98.2051 102.327C98.268 102.313 98.3335 102.325 98.3876 102.36C98.4141 102.377 98.4369 102.4 98.4545 102.427C98.4722 102.453 98.4844 102.483 98.4905 102.514C98.4965 102.545 98.4963 102.578 98.4899 102.609C98.4834 102.64 98.4709 102.669 98.4529 102.696L98.4579 102.691Z" fill="#231F20"/>
<path d="M93.8737 131.251H127.856C131.683 119.969 138.541 99.5569 138.446 98.3184C138.31 96.6036 125.748 72.3 120.325 68.4692C114.902 64.6384 104.85 71.5078 104.85 71.5078L106.175 81.4107L114.375 80.7538L116.012 95.5706C116.012 95.5706 108.159 95.676 104.187 98.3184C100.215 100.961 94.5365 109.565 93.8737 115.226C93.2109 120.887 93.8737 127.641 93.8737 127.641V131.251Z" fill="white"/>
<path d="M127.857 131.492H93.8742C93.8103 131.492 93.749 131.467 93.7038 131.422C93.6586 131.376 93.6332 131.315 93.6332 131.251V127.641C93.6332 127.596 92.9754 120.837 93.6332 115.196C94.311 109.38 100.025 100.8 104.057 98.1178C107.672 95.7111 114.31 95.3801 115.741 95.335L114.159 81.0146L106.191 81.6564C106.13 81.6595 106.069 81.6397 106.022 81.6007C105.975 81.5617 105.944 81.5065 105.935 81.4458L104.609 71.5379C104.604 71.4935 104.611 71.4485 104.63 71.4079C104.648 71.3673 104.678 71.3325 104.715 71.3072C106.528 70.1236 108.455 69.1257 110.469 68.3288C114.722 66.6741 118.176 66.6591 120.466 68.2737C125.864 72.0844 138.542 96.4381 138.688 98.2984C138.778 99.5068 132.973 116.926 128.088 131.327C128.072 131.375 128.041 131.417 128 131.447C127.958 131.477 127.908 131.492 127.857 131.492ZM94.1152 131.006H127.681C134.435 111.104 138.271 99.2009 138.226 98.3385C138.08 96.4983 125.542 72.4354 120.205 68.6698C115.299 65.2 106.291 70.866 105.142 71.6231L106.412 81.15L114.385 80.5082C114.448 80.5039 114.51 80.5238 114.559 80.5639C114.608 80.6041 114.639 80.6613 114.646 80.7238L116.253 95.5255C116.257 95.559 116.254 95.5929 116.244 95.625C116.233 95.657 116.216 95.6864 116.193 95.7111C116.171 95.7358 116.144 95.7557 116.114 95.7695C116.083 95.7833 116.05 95.7907 116.017 95.7913C115.937 95.7913 108.184 95.9267 104.323 98.4989C100.462 101.071 94.7579 109.685 94.1152 115.231C93.4725 120.777 94.1152 127.531 94.1152 127.596V131.006Z" fill="#231F20"/>
<path d="M124.367 47.4449L119.301 98.8198C119.262 99.2231 119.144 99.6146 118.953 99.9721C118.762 100.33 118.503 100.646 118.189 100.903C117.876 101.16 117.515 101.353 117.126 101.471C116.738 101.588 116.331 101.628 115.927 101.588L104.735 100.485L30.7239 93.209C29.9089 93.1291 29.1591 92.7293 28.6393 92.0974C28.1196 91.4655 27.8724 90.6533 27.9522 89.8395L33.0135 38.4646C33.0518 38.0616 33.1695 37.6701 33.3598 37.3127C33.55 36.9552 33.8091 36.6388 34.1222 36.3816C34.4352 36.1245 34.7961 35.9316 35.184 35.814C35.5719 35.6965 35.9793 35.6567 36.3826 35.6968L77.2343 39.7081L121.606 44.0754C122.418 44.159 123.165 44.5603 123.682 45.1916C124.2 45.8229 124.446 46.6329 124.367 47.4449Z" fill="#231F20"/>
<path d="M116.238 101.823H115.901L30.6883 93.4297C29.8156 93.3435 29.0128 92.9148 28.4564 92.2379C27.8999 91.5609 27.6354 90.6911 27.7208 89.8195L32.7921 38.4446C32.8343 38.0126 32.9612 37.5931 33.1657 37.2101C33.3702 36.8271 33.6482 36.4881 33.984 36.2125C34.3197 35.9368 34.7065 35.7299 35.1223 35.6036C35.5381 35.4773 35.9748 35.434 36.4073 35.4762L121.605 43.8799C122.477 43.9674 123.278 44.3957 123.834 45.0712C124.39 45.7467 124.656 46.6145 124.573 47.4851L119.522 98.8449C119.44 99.6589 119.059 100.414 118.452 100.964C117.846 101.514 117.057 101.82 116.238 101.823ZM36.0709 35.9024C35.3624 35.9075 34.6807 36.1741 34.157 36.6507C33.6333 37.1274 33.3046 37.7806 33.234 38.4847L28.1627 89.8596C28.087 90.6136 28.3142 91.3667 28.7944 91.9534C29.2746 92.5402 29.9685 92.9124 30.7234 92.9884L115.937 101.367C116.693 101.441 117.449 101.213 118.037 100.731C118.625 100.25 118.999 99.5554 119.075 98.7998L124.146 47.4249C124.219 46.6699 123.989 45.9168 123.508 45.3304C123.026 44.744 122.331 44.3721 121.575 44.2961L36.3621 35.9174C36.2654 35.9073 36.1682 35.9023 36.0709 35.9024Z" fill="#231F20"/>
<path d="M133.264 46.7229L122.183 97.1451C122.096 97.541 121.932 97.9158 121.7 98.2483C121.468 98.5808 121.172 98.8643 120.831 99.0827C120.489 99.3011 120.107 99.4501 119.708 99.5211C119.308 99.5922 118.899 99.5839 118.502 99.4967L107.546 97.085L34.8708 81.165C34.4725 81.079 34.0952 80.915 33.7608 80.6825C33.4264 80.45 33.1414 80.1536 32.9225 79.8104C32.7035 79.4672 32.5548 79.0841 32.485 78.6832C32.4152 78.2822 32.4257 77.8715 32.5159 77.4746L43.6025 27.0724C43.6886 26.6752 43.8527 26.299 44.0852 25.9654C44.3177 25.6318 44.6141 25.3475 44.9572 25.1289C45.3003 24.9103 45.6833 24.7617 46.0842 24.6916C46.4851 24.6216 46.8959 24.6315 47.293 24.7208L87.3865 33.5106L130.924 43.0375C131.321 43.1258 131.695 43.2913 132.027 43.5243C132.359 43.7574 132.642 44.0536 132.859 44.3958C133.077 44.7381 133.224 45.1198 133.294 45.5191C133.363 45.9184 133.353 46.3275 133.264 46.7229Z" fill="#1EBCC3"/>
<path d="M119.175 99.9129C118.925 99.9136 118.676 99.8866 118.432 99.8327L34.7957 81.486C34.3555 81.3897 33.9385 81.2078 33.5687 80.9505C33.1989 80.6933 32.8835 80.3657 32.6406 79.9867C32.3976 79.6076 32.2319 79.1844 32.1528 78.7414C32.0737 78.2983 32.0829 77.844 32.1798 77.4044L43.2764 26.9972C43.3722 26.5578 43.5538 26.1415 43.811 25.7723C44.0681 25.403 44.3956 25.0881 44.7748 24.8454C45.154 24.6027 45.5774 24.4372 46.0207 24.3581C46.4641 24.2791 46.9187 24.2882 47.3586 24.3849L130.985 42.7116C131.871 42.9107 132.643 43.4511 133.133 44.2153C133.623 44.9795 133.791 45.9058 133.601 46.7931L122.519 97.2203C122.352 97.9819 121.929 98.6637 121.321 99.1532C120.713 99.6426 119.956 99.9106 119.175 99.9129ZM46.6054 24.9916C45.9819 24.9924 45.3774 25.2062 44.8924 25.5975C44.4073 25.9888 44.071 26.5341 43.9392 27.1427L32.8526 77.5699C32.6986 78.2786 32.8319 79.0193 33.2233 79.63C33.6148 80.2408 34.2325 80.6719 34.9414 80.8291L118.593 99.1608C119.304 99.3159 120.048 99.1829 120.661 98.7908C121.273 98.3988 121.705 97.7798 121.862 97.0699L132.928 46.6477C133.082 45.9383 132.948 45.197 132.556 44.5861C132.163 43.9752 131.544 43.5445 130.834 43.3885L47.2029 25.0568C47.0068 25.0128 46.8064 24.991 46.6054 24.9916Z" fill="#231F20"/>
<path d="M60.4827 49.4922L53.0183 47.856C51.6992 47.5669 50.3952 48.4004 50.1056 49.7176L48.8569 55.3988C48.5674 56.716 49.402 58.0183 50.7211 58.3074L58.1855 59.9436C59.5046 60.2327 60.8086 59.3993 61.0981 58.082L62.3469 52.4008C62.6364 51.0836 61.8018 49.7813 60.4827 49.4922Z" fill="white"/>
<path d="M52.4954 47.8009C52.6643 47.8012 52.8327 47.8197 52.9976 47.8561L60.4639 49.4907C60.7807 49.5562 61.0812 49.6838 61.3482 49.8661C61.6152 50.0484 61.8434 50.2817 62.0194 50.5527C62.1955 50.8236 62.316 51.1268 62.3739 51.4445C62.4318 51.7623 62.426 52.0884 62.3569 52.4039L61.1117 58.0799C60.9916 58.6239 60.6894 59.1107 60.2548 59.4599C59.8202 59.809 59.2794 59.9997 58.7216 60.0004C58.5445 59.9991 58.3679 59.9806 58.1944 59.9452L50.733 58.3056C50.4191 58.2372 50.1217 58.1078 49.8579 57.9246C49.5941 57.7414 49.369 57.5081 49.1956 57.238C49.0221 56.968 48.9036 56.6664 48.8469 56.3505C48.7903 56.0347 48.7965 55.7108 48.8652 55.3974L50.1154 49.7214C50.2355 49.1774 50.5377 48.6906 50.9723 48.3414C51.4069 47.9923 51.9477 47.8016 52.5055 47.8009M52.5055 47.4299C51.8641 47.4336 51.2428 47.6542 50.7431 48.0558C50.2434 48.4574 49.8947 49.0162 49.7539 49.6411L48.5037 55.3171C48.3439 56.0459 48.4805 56.8082 48.8836 57.4363C49.2866 58.0645 49.923 58.507 50.6527 58.6666L58.1141 60.3062C58.314 60.3477 58.5174 60.3696 58.7216 60.3714C59.363 60.3677 59.9843 60.1471 60.484 59.7455C60.9837 59.3439 61.3324 58.7851 61.4732 58.1602L62.7184 52.4842C62.8783 51.7548 62.7418 50.9919 62.3389 50.3629C61.9359 49.734 61.2995 49.2904 60.5694 49.1297L53.108 47.4951C52.9103 47.4509 52.7081 47.429 52.5055 47.4299Z" fill="#231F20"/>
<path d="M54.5013 48.1837L52.2041 58.6351L52.6945 58.7426L54.9918 48.2912L54.5013 48.1837Z" fill="#D1D3D4"/>
<path d="M58.5092 49.0617L56.2119 59.5131L56.7023 59.6206L58.9996 49.1692L58.5092 49.0617Z" fill="#D1D3D4"/>
<path d="M50.1594 49.4773L50.0518 49.9671L62.293 52.6503L62.4007 52.1606L50.1594 49.4773Z" fill="#D1D3D4"/>
<path d="M48.9094 55.1672L48.8018 55.657L61.043 58.3402L61.1507 57.8504L48.9094 55.1672Z" fill="#D1D3D4"/>
<path d="M49.7668 51.2734L49.6592 51.7632L53.5385 52.6135L53.6462 52.1238L49.7668 51.2734Z" fill="#D1D3D4"/>
<path d="M49.3078 53.3597L49.2002 53.8494L53.0795 54.6998L53.1872 54.21L49.3078 53.3597Z" fill="#D1D3D4"/>
<path d="M57.8931 53.0446L57.7822 53.5491L61.897 54.451L62.0079 53.9466L57.8931 53.0446Z" fill="#D1D3D4"/>
<path d="M57.4351 55.1309L57.3242 55.6353L61.439 56.5372L61.5498 56.0328L57.4351 55.1309Z" fill="#D1D3D4"/>
<path d="M57.5798 64.1424L49.1247 62.2891C48.1848 62.0831 47.2556 62.6769 47.0493 63.6155L46.9481 64.0759C46.7418 65.0145 47.3365 65.9424 48.2764 66.1484L56.7315 68.0017C57.6714 68.2077 58.6005 67.6138 58.8068 66.6753L58.908 66.2149C59.1143 65.2763 58.5196 64.3484 57.5798 64.1424Z" fill="white"/>
<path d="M73.5397 67.638L65.0846 65.7847C64.1447 65.5787 63.2156 66.1726 63.0093 67.1111L62.9081 67.5715C62.7018 68.5101 63.2965 69.438 64.2363 69.644L72.6914 71.4973C73.6313 71.7033 74.5605 71.1094 74.7668 70.1709L74.868 69.7105C75.0743 68.7719 74.4796 67.844 73.5397 67.638Z" fill="white"/>
<path d="M89.4997 71.1395L81.0446 69.2862C80.1047 69.0802 79.1755 69.6741 78.9692 70.6127L78.868 71.073C78.6617 72.0116 79.2564 72.9395 80.1963 73.1455L88.6514 74.9988C89.5913 75.2048 90.5204 74.611 90.7267 73.6724L90.8279 73.212C91.0342 72.2734 90.4396 71.3456 89.4997 71.1395Z" fill="white"/>
<path d="M105.464 74.6411L97.0084 72.7878C96.0686 72.5817 95.1394 73.1756 94.9331 74.1142L94.8319 74.5746C94.6256 75.5131 95.2203 76.441 96.1602 76.647L104.615 78.5003C105.555 78.7064 106.484 78.1125 106.691 77.1739L106.792 76.7135C106.998 75.775 106.403 74.8471 105.464 74.6411Z" fill="white"/>
<path d="M68.8337 78.5477C68.8105 78.5523 68.7866 78.5523 68.7634 78.5477L44.9182 73.3129C44.8366 73.2859 44.768 73.2296 44.7257 73.155C44.6833 73.0803 44.6703 72.9926 44.689 72.9089C44.7078 72.8251 44.7571 72.7514 44.8273 72.7019C44.8974 72.6524 44.9835 72.6307 45.0688 72.641L68.909 77.8657C68.9536 77.8753 68.9958 77.8935 69.0332 77.9193C69.0707 77.9451 69.1027 77.9781 69.1274 78.0162C69.1522 78.0544 69.1691 78.0971 69.1773 78.1418C69.1855 78.1866 69.1847 78.2325 69.1752 78.2769C69.1571 78.3538 69.1135 78.4224 69.0516 78.4715C68.9896 78.5207 68.9128 78.5475 68.8337 78.5477Z" fill="#231F20"/>
<path d="M78.8707 80.7489H78.7954L75.115 79.9416C75.0664 79.9368 75.0193 79.9218 74.977 79.8975C74.9346 79.8733 74.8978 79.8404 74.8691 79.801C74.8404 79.7615 74.8203 79.7165 74.8102 79.6688C74.8001 79.6211 74.8002 79.5718 74.8106 79.5241C74.8209 79.4765 74.8412 79.4315 74.8701 79.3923C74.8991 79.353 74.936 79.3203 74.9785 79.2963C75.021 79.2722 75.0681 79.2574 75.1167 79.2529C75.1653 79.2483 75.2143 79.254 75.2606 79.2697L78.946 80.077C79.0277 80.097 79.0993 80.1459 79.1475 80.2147C79.1956 80.2835 79.2171 80.3675 79.2079 80.4509C79.1987 80.5344 79.1594 80.6116 79.0974 80.6683C79.0353 80.725 78.9548 80.7572 78.8707 80.7589V80.7489Z" fill="#231F20"/>
<path d="M86.5277 82.4236H86.4574L82.7769 81.6163C82.6879 81.5959 82.6106 81.5413 82.5617 81.4643C82.5128 81.3873 82.4963 81.2942 82.5158 81.2051C82.5253 81.1608 82.5435 81.1188 82.5695 81.0816C82.5954 81.0444 82.6285 81.0127 82.6669 80.9884C82.7052 80.9642 82.748 80.9478 82.7928 80.9402C82.8375 80.9326 82.8833 80.9341 82.9275 80.9444L86.608 81.7517C86.6945 81.7657 86.7723 81.8123 86.8253 81.882C86.8783 81.9516 86.9025 82.039 86.8928 82.1259C86.8831 82.2129 86.8403 82.2928 86.7733 82.3491C86.7063 82.4054 86.6201 82.4339 86.5327 82.4286L86.5277 82.4236Z" fill="#231F20"/>
<path d="M79.1766 83.2008C79.0875 83.1985 79.0021 83.1647 78.9356 83.1055C78.9022 83.0728 78.8756 83.0338 78.8575 82.9908C78.8394 82.9477 78.8301 82.9015 78.8301 82.8548C78.8301 82.8081 78.8394 82.7619 78.8575 82.7188C78.8756 82.6758 78.9022 82.6368 78.9356 82.6041L82.4152 78.9588C82.4476 78.9248 82.4865 78.8978 82.5297 78.8793C82.5728 78.8608 82.6193 78.8513 82.6663 78.8513C82.7132 78.8513 82.7597 78.8608 82.8028 78.8793C82.846 78.8978 82.8849 78.9248 82.9173 78.9588C82.952 78.9907 82.9797 79.0295 82.9986 79.0727C83.0176 79.1158 83.0273 79.1624 83.0273 79.2095C83.0273 79.2566 83.0176 79.3032 82.9986 79.3464C82.9797 79.3895 82.952 79.4283 82.9173 79.4602L79.4276 83.0905C79.3957 83.1252 79.3569 83.1529 79.3137 83.1719C79.2705 83.1909 79.2238 83.2007 79.1766 83.2008Z" fill="#231F20"/>
<path d="M94.291 113.175C94.291 113.175 100.884 91.8452 100.487 87.4879C100.09 83.1306 97.7104 70.3195 101.677 66.7544C105.644 63.1894 108.551 62.9336 111.061 68.5996C113.572 74.2656 114.37 102.28 114.37 102.28" fill="white"/>
<path d="M94.2904 113.416H94.2201C94.1897 113.407 94.1615 113.392 94.1369 113.372C94.1124 113.352 94.0921 113.327 94.0772 113.299C94.0623 113.271 94.053 113.24 94.0499 113.209C94.0469 113.177 94.0501 113.145 94.0594 113.115C94.1247 112.9 100.632 91.78 100.245 87.543C100.185 86.8811 100.08 86.0388 99.9542 85.0359C99.2462 79.3048 98.0562 69.7177 101.516 66.614C103.83 64.5331 105.643 63.7208 107.215 64.0567C108.786 64.3927 110.097 65.8568 111.287 68.5695C113.797 74.2254 114.581 101.197 114.616 102.34C114.617 102.372 114.612 102.403 114.601 102.433C114.59 102.463 114.572 102.49 114.55 102.513C114.528 102.536 114.502 102.554 114.472 102.567C114.443 102.579 114.412 102.585 114.38 102.585C114.348 102.588 114.316 102.584 114.285 102.574C114.255 102.564 114.227 102.547 114.203 102.525C114.18 102.504 114.161 102.477 114.148 102.448C114.135 102.419 114.129 102.387 114.129 102.355C114.129 102.074 113.31 74.3357 110.845 68.76C109.725 66.2229 108.505 64.844 107.114 64.5481C105.723 64.2523 104.026 65.0495 101.837 66.995C98.5683 69.9283 99.7834 79.731 100.436 84.9958C100.562 85.9986 100.667 86.8561 100.727 87.528C101.124 91.8853 94.7925 112.433 94.5213 113.306C94.4975 113.344 94.4631 113.375 94.4221 113.395C94.3812 113.414 94.3354 113.422 94.2904 113.416Z" fill="#231F20"/>
</svg>
