<svg width="200" height="186" viewBox="0 0 200 186" fill="none" xmlns="http://www.w3.org/2000/svg">
<rect x="0.208267" y="0.115356" width="199.104" height="185.184" fill="#1EBCC3"/>
<path d="M113.638 125.608C115.38 125.728 116.747 123.929 117.856 122.299C116.422 124.458 118.271 127.533 119.862 128.983C121.236 130.148 122.815 131.048 124.519 131.636C127.172 132.698 130.012 133.217 132.87 133.164C135.741 133.101 138.522 132.149 140.828 130.439C143.469 128.29 145.213 125.235 145.72 121.871C146.204 118.525 145.829 115.112 144.63 111.95C144.31 110.935 143.801 109.99 143.13 109.165C142.142 108.164 140.904 107.445 139.545 107.083C137.72 106.499 135.816 106.205 133.9 106.211C131.237 106.211 129.333 106.036 126.941 104.935C125.077 104.053 123.132 103.352 121.133 102.841C117.404 101.933 112.765 101.981 111.162 106.169C109.56 110.356 107.837 125.21 113.638 125.608Z" fill="white"/>
<path d="M132.207 133.465C129.523 133.426 126.869 132.898 124.375 131.907C122.634 131.312 121.023 130.391 119.627 129.193C118.386 128.062 116.922 125.914 117.007 123.905C116.031 125.108 114.934 125.987 113.603 125.896C113.032 125.851 112.48 125.667 111.997 125.36C111.514 125.052 111.113 124.631 110.831 124.133C108.15 119.922 109.53 109.532 110.831 106.084C112.639 101.271 118.061 101.831 121.14 102.577C123.157 103.09 125.121 103.797 127.002 104.688C129.309 105.753 131.111 105.928 133.84 105.94H133.888C135.818 105.938 137.737 106.237 139.575 106.824C140.987 107.195 142.271 107.944 143.287 108.99C143.984 109.843 144.511 110.821 144.841 111.872C146.058 115.079 146.437 118.543 145.944 121.937C145.422 125.372 143.639 128.49 140.943 130.685C138.59 132.43 135.752 133.404 132.822 133.471L132.207 133.465ZM118.073 122.455C116.784 124.404 118.447 127.316 120.037 128.766C121.378 129.914 122.926 130.796 124.598 131.365C127.214 132.416 130.015 132.929 132.834 132.875C135.644 132.811 138.365 131.88 140.624 130.21C143.206 128.105 144.912 125.115 145.407 121.823C145.883 118.528 145.512 115.165 144.329 112.053C144.022 111.074 143.534 110.161 142.889 109.363C141.94 108.395 140.744 107.704 139.431 107.366C137.651 106.795 135.793 106.505 133.924 106.505H133.743C131.068 106.505 129.153 106.289 126.797 105.206C124.95 104.331 123.023 103.636 121.043 103.13C118.157 102.432 113.078 101.927 111.404 106.277C110.15 109.562 108.789 119.862 111.331 123.827C111.567 124.247 111.903 124.603 112.308 124.864C112.713 125.125 113.176 125.283 113.657 125.325C115.199 125.427 116.446 123.857 117.585 122.142C117.628 122.078 117.694 122.034 117.77 122.018C117.845 122.002 117.924 122.016 117.989 122.058C118.02 122.079 118.048 122.106 118.069 122.138C118.09 122.17 118.105 122.206 118.112 122.243C118.119 122.281 118.119 122.319 118.111 122.356C118.104 122.394 118.089 122.429 118.067 122.461L118.073 122.455Z" fill="#231F20"/>
<path d="M112.572 156.724H153.348C157.939 143.188 166.169 118.695 166.054 117.209C165.891 115.151 150.818 85.9894 144.311 81.3929C137.804 76.7964 125.742 85.0389 125.742 85.0389L127.333 96.9213L137.171 96.1331L139.135 113.912C139.135 113.912 129.713 114.038 124.947 117.209C120.182 120.379 113.368 130.703 112.572 137.496C111.777 144.289 112.572 152.393 112.572 152.393V156.724Z" fill="white"/>
<path d="M153.348 157.013H112.572C112.496 157.013 112.422 156.983 112.368 156.929C112.314 156.874 112.283 156.801 112.283 156.724V152.393C112.283 152.338 111.494 144.228 112.283 137.46C113.097 130.481 119.953 120.187 124.791 116.968C129.129 114.08 137.093 113.683 138.81 113.629L136.913 96.4459L127.351 97.216C127.278 97.2198 127.205 97.1959 127.149 97.1492C127.092 97.1024 127.054 97.0361 127.044 96.9633L125.453 85.0749C125.447 85.0216 125.456 84.9677 125.478 84.919C125.5 84.8702 125.536 84.8284 125.58 84.7981C127.755 83.3779 130.068 82.1806 132.484 81.2244C137.587 79.239 141.732 79.2209 144.48 81.1582C150.956 85.7307 166.169 114.952 166.343 117.185C166.452 118.634 159.487 139.536 153.625 156.815C153.606 156.873 153.569 156.923 153.519 156.959C153.469 156.995 153.409 157.014 153.348 157.013ZM112.862 156.43H153.137C161.241 132.55 165.843 118.267 165.789 117.233C165.615 115.025 150.571 86.1518 144.166 81.6335C138.28 77.4702 127.472 84.2687 126.092 85.1772L127.616 96.6084L137.184 95.8383C137.259 95.8331 137.334 95.8571 137.392 95.9052C137.45 95.9533 137.488 96.022 137.497 96.097L139.425 113.857C139.43 113.898 139.426 113.938 139.413 113.977C139.401 114.015 139.38 114.05 139.353 114.08C139.326 114.11 139.293 114.134 139.257 114.15C139.221 114.167 139.182 114.176 139.142 114.176C139.045 114.176 129.743 114.339 125.11 117.425C120.477 120.512 113.633 130.848 112.862 137.502C112.09 144.156 112.862 152.26 112.862 152.338V156.43Z" fill="#231F20"/>
<path d="M149.161 56.1661L143.082 117.81C143.035 118.294 142.893 118.764 142.664 119.193C142.435 119.622 142.124 120.001 141.748 120.31C141.372 120.618 140.938 120.85 140.473 120.991C140.007 121.132 139.518 121.179 139.033 121.131L125.604 119.808L36.7991 111.078C35.8212 110.982 34.9215 110.502 34.2979 109.744C33.6742 108.986 33.3777 108.011 33.4734 107.035L39.5464 45.3907C39.5924 44.9071 39.7336 44.4374 39.9619 44.0085C40.1902 43.5796 40.5011 43.1999 40.8767 42.8914C41.2523 42.5828 41.6853 42.3513 42.1508 42.2103C42.6162 42.0693 43.105 42.0215 43.589 42.0696L92.6065 46.8827L145.847 52.123C146.822 52.2234 147.718 52.7048 148.339 53.4623C148.96 54.2198 149.255 55.1918 149.161 56.1661Z" fill="#231F20"/>
<path d="M139.407 121.414H139.003L36.7566 111.343C35.7094 111.239 34.7462 110.725 34.0785 109.913C33.4109 109.1 33.0935 108.057 33.196 107.011L39.281 45.3666C39.3315 44.8483 39.4838 44.345 39.7292 43.8854C39.9746 43.4259 40.3082 43.0191 40.711 42.6884C41.1139 42.3576 41.578 42.1093 42.0769 41.9578C42.5758 41.8062 43.0998 41.7542 43.6188 41.8049L145.847 51.8884C146.892 51.9934 147.854 52.5073 148.521 53.3178C149.188 54.1284 149.507 55.1697 149.408 56.2142L143.347 117.84C143.248 118.817 142.791 119.723 142.064 120.383C141.336 121.043 140.389 121.41 139.407 121.414ZM43.2152 42.3163C42.365 42.3224 41.547 42.6422 40.9187 43.2142C40.2903 43.7862 39.8959 44.5699 39.8112 45.4147L33.7262 107.059C33.6353 107.964 33.908 108.867 34.4841 109.571C35.0603 110.275 35.8929 110.722 36.7988 110.813L139.045 120.867C139.953 120.956 140.86 120.681 141.566 120.104C142.271 119.526 142.719 118.693 142.811 117.786L148.896 56.142C148.983 55.2361 148.708 54.3324 148.129 53.6289C147.551 52.9253 146.718 52.479 145.811 52.3877L43.5646 42.3343C43.4485 42.3221 43.3319 42.3161 43.2152 42.3163Z" fill="#231F20"/>
<path d="M159.836 55.2997L146.54 115.801C146.436 116.276 146.239 116.726 145.96 117.124C145.682 117.523 145.327 117.864 144.917 118.126C144.507 118.388 144.049 118.566 143.57 118.652C143.091 118.737 142.599 118.727 142.124 118.622L128.978 115.729L41.7751 96.6265C41.2972 96.5233 40.8445 96.3265 40.4432 96.0475C40.042 95.7685 39.7001 95.4128 39.4373 95.001C39.1745 94.5893 38.9961 94.1295 38.9124 93.6485C38.8287 93.1674 38.8413 92.6746 38.9495 92.1984L52.2521 31.7214C52.3555 31.2448 52.5524 30.7933 52.8314 30.3931C53.1104 29.9928 53.466 29.6517 53.8776 29.3894C54.2893 29.127 54.7489 28.9487 55.23 28.8647C55.711 28.7806 56.2039 28.7925 56.6803 28.8997L104.788 39.4465L157.029 50.8776C157.504 50.9836 157.954 51.1821 158.352 51.4618C158.751 51.7415 159.09 52.0968 159.351 52.5075C159.611 52.9182 159.788 53.3762 159.872 53.8553C159.955 54.3344 159.943 54.8252 159.836 55.2997Z" fill="#FFD234"/>
<path d="M142.931 119.122C142.631 119.123 142.332 119.09 142.039 119.026L41.6849 97.0115C41.1566 96.896 40.6563 96.6777 40.2126 96.369C39.7689 96.0603 39.3904 95.6674 39.0989 95.2125C38.8074 94.7577 38.6085 94.2499 38.5136 93.7183C38.4187 93.1866 38.4297 92.6415 38.546 92.1141L51.8607 31.6311C51.9756 31.1038 52.1936 30.6043 52.5021 30.1613C52.8106 29.7182 53.2036 29.3403 53.6586 29.0491C54.1136 28.758 54.6216 28.5593 55.1536 28.4645C55.6856 28.3697 56.2311 28.3806 56.7588 28.4966L157.101 50.4866C158.165 50.7255 159.091 51.3739 159.679 52.2909C160.267 53.2078 160.468 54.3193 160.24 55.3839L146.944 115.891C146.742 116.805 146.235 117.623 145.506 118.21C144.776 118.798 143.868 119.119 142.931 119.122ZM55.8551 29.2245C55.1069 29.2255 54.3816 29.4821 53.7997 29.9516C53.2177 30.4211 52.8141 31.0753 52.656 31.8056L39.3533 92.3127C39.1685 93.163 39.3284 94.0518 39.7981 94.7846C40.2678 95.5175 41.009 96.0348 41.8596 96.2234L142.232 118.219C143.085 118.406 143.978 118.246 144.713 117.775C145.448 117.305 145.967 116.562 146.154 115.711L159.433 55.2094C159.617 54.3583 159.457 53.4688 158.986 52.7358C158.515 52.0027 157.772 51.486 156.921 51.2988L56.5721 29.3028C56.3368 29.25 56.0963 29.2238 55.8551 29.2245Z" fill="#231F20"/>
<path d="M72.5066 58.6226L63.5502 56.6594C61.9674 56.3124 60.4027 57.3125 60.0553 58.8931L58.5569 65.7098C58.2095 67.2904 59.211 68.8529 60.7937 69.1999L69.7502 71.1631C71.3329 71.51 72.8977 70.5099 73.2451 68.9294L74.7434 62.1126C75.0908 60.532 74.0894 58.9695 72.5066 58.6226Z" fill="white"/>
<path d="M62.9224 56.5932C63.125 56.5935 63.327 56.6157 63.5248 56.6594L72.4837 58.6207C72.8637 58.6993 73.2243 58.8524 73.5447 59.0711C73.8651 59.2898 74.1388 59.5699 74.3501 59.895C74.5613 60.2201 74.7059 60.5838 74.7754 60.9651C74.8449 61.3464 74.838 61.7377 74.755 62.1163L73.2608 68.9268C73.1168 69.5795 72.7542 70.1636 72.2327 70.5826C71.7113 71.0016 71.0623 71.2304 70.3931 71.2311C70.1805 71.2296 69.9687 71.2075 69.7605 71.165L60.8077 69.1976C60.431 69.1156 60.0742 68.9602 59.7576 68.7405C59.4411 68.5207 59.171 68.2407 58.9629 67.9167C58.7547 67.5926 58.6126 67.2307 58.5446 66.8518C58.4765 66.4728 58.484 66.0842 58.5665 65.7081L60.0666 58.8975C60.2106 58.2448 60.5733 57.6607 61.0947 57.2417C61.6162 56.8228 62.2651 56.594 62.9344 56.5932M62.9344 56.148C62.1648 56.1524 61.4193 56.4171 60.8197 56.899C60.2201 57.3808 59.8017 58.0514 59.6328 58.8012L58.1327 65.6118C57.941 66.4862 58.1049 67.4009 58.5885 68.1546C59.0721 68.9083 59.8356 69.4393 60.7113 69.6308L69.6641 71.5981C69.9039 71.6479 70.1481 71.6741 70.3931 71.6763C71.1627 71.672 71.9081 71.4072 72.5077 70.9254C73.1073 70.4435 73.5257 69.773 73.6946 69.0231L75.1888 62.2125C75.3806 61.3374 75.2168 60.422 74.7333 59.6673C74.2499 58.9126 73.4863 58.3804 72.6102 58.1875L63.6574 56.2262C63.4201 56.1731 63.1776 56.1469 62.9344 56.148Z" fill="#231F20"/>
<path d="M65.3292 57.0525L62.5728 69.593L63.1612 69.722L65.9177 57.1815L65.3292 57.0525Z" fill="#D1D3D4"/>
<path d="M70.1382 58.106L67.3817 70.6465L67.9702 70.7754L70.7266 58.2349L70.1382 58.106Z" fill="#D1D3D4"/>
<path d="M60.1196 58.6048L59.9905 59.1924L74.6786 62.412L74.8078 61.8243L60.1196 58.6048Z" fill="#D1D3D4"/>
<path d="M58.6204 65.4319L58.4912 66.0196L73.1793 69.2391L73.3085 68.6515L58.6204 65.4319Z" fill="#D1D3D4"/>
<path d="M59.6482 60.7599L59.5191 61.3475L64.1738 62.3678L64.303 61.7802L59.6482 60.7599Z" fill="#D1D3D4"/>
<path d="M59.0975 63.2631L58.9684 63.8507L63.6231 64.871L63.7523 64.2834L59.0975 63.2631Z" fill="#D1D3D4"/>
<path d="M69.3989 62.8851L69.2659 63.4904L74.2031 64.5726L74.3361 63.9673L69.3989 62.8851Z" fill="#D1D3D4"/>
<path d="M68.8497 65.3884L68.7166 65.9937L73.6539 67.0759L73.7869 66.4706L68.8497 65.3884Z" fill="#D1D3D4"/>
<path d="M69.0235 76.2012L58.8783 73.9774C57.7506 73.7302 56.6357 74.4428 56.3881 75.569L56.2667 76.1214C56.0192 77.2476 56.7327 78.3609 57.8605 78.6081L68.0057 80.8319C69.1334 81.0791 70.2483 80.3665 70.4958 79.2403L70.6173 78.6879C70.8648 77.5618 70.1512 76.4484 69.0235 76.2012Z" fill="white"/>
<path d="M88.174 80.3955L78.0289 78.1718C76.9011 77.9246 75.7862 78.6371 75.5387 79.7633L75.4172 80.3157C75.1697 81.4419 75.8833 82.5553 77.011 82.8025L87.1562 85.0262C88.2839 85.2734 89.3988 84.5609 89.6464 83.4347L89.7678 82.8823C90.0153 81.7561 89.3018 80.6427 88.174 80.3955Z" fill="white"/>
<path d="M107.324 84.5969L97.1784 82.3732C96.0507 82.126 94.9358 82.8385 94.6883 83.9647L94.5668 84.5171C94.3193 85.6433 95.0329 86.7567 96.1606 87.0039L106.306 89.2276C107.434 89.4748 108.548 88.7622 108.796 87.6361L108.917 87.0837C109.165 85.9575 108.451 84.8441 107.324 84.5969Z" fill="white"/>
<path d="M126.479 88.7984L116.333 86.5746C115.206 86.3274 114.091 87.04 113.843 88.1662L113.722 88.7186C113.474 89.8448 114.188 90.9581 115.315 91.2053L125.461 93.4291C126.588 93.6763 127.703 92.9637 127.951 91.8375L128.072 91.2851C128.32 90.1589 127.606 89.0456 126.479 88.7984Z" fill="white"/>
<path d="M82.5267 93.4859C82.4989 93.4914 82.4702 93.4914 82.4424 93.4859L53.8308 87.2048C53.7329 87.1724 53.6505 87.1049 53.5997 87.0153C53.5489 86.9257 53.5332 86.8204 53.5558 86.72C53.5783 86.6195 53.6374 86.531 53.7216 86.4716C53.8058 86.4122 53.9092 86.3862 54.0115 86.3986L82.6171 92.6677C82.6705 92.6791 82.7212 92.7009 82.7661 92.7319C82.8111 92.7629 82.8495 92.8024 82.8791 92.8482C82.9088 92.8941 82.9291 92.9453 82.9389 92.9989C82.9488 93.0526 82.9479 93.1077 82.9364 93.161C82.9147 93.2533 82.8624 93.3356 82.7881 93.3946C82.7138 93.4535 82.6217 93.4857 82.5267 93.4859Z" fill="#231F20"/>
<path d="M94.5704 96.1271H94.48L90.0639 95.1584C90.0056 95.1527 89.9492 95.1346 89.8983 95.1055C89.8475 95.0765 89.8034 95.037 89.7689 94.9897C89.7344 94.9424 89.7103 94.8883 89.6982 94.8311C89.6861 94.7739 89.6863 94.7147 89.6987 94.6575C89.7111 94.6003 89.7354 94.5464 89.7701 94.4993C89.8049 94.4522 89.8492 94.4129 89.9002 94.3841C89.9511 94.3553 90.0076 94.3375 90.066 94.332C90.1243 94.3265 90.1831 94.3334 90.2386 94.3522L94.6608 95.3209C94.7588 95.3449 94.8447 95.4036 94.9025 95.4862C94.9603 95.5687 94.9861 95.6694 94.975 95.7696C94.9639 95.8697 94.9168 95.9624 94.8424 96.0304C94.7679 96.0984 94.6713 96.137 94.5704 96.1391V96.1271Z" fill="#231F20"/>
<path d="M103.758 98.1366H103.674L99.2574 97.168C99.1506 97.1435 99.0578 97.078 98.9991 96.9856C98.9405 96.8932 98.9207 96.7815 98.9441 96.6746C98.9555 96.6214 98.9774 96.571 99.0085 96.5264C99.0396 96.4817 99.0793 96.4437 99.1253 96.4146C99.1713 96.3855 99.2227 96.3658 99.2764 96.3567C99.3301 96.3476 99.3851 96.3494 99.4381 96.3618L103.854 97.3304C103.958 97.3472 104.051 97.4031 104.115 97.4867C104.179 97.5703 104.208 97.6751 104.196 97.7794C104.184 97.8838 104.133 97.9796 104.053 98.0472C103.972 98.1148 103.869 98.149 103.764 98.1426L103.758 98.1366Z" fill="#231F20"/>
<path d="M94.9377 99.0691C94.8308 99.0664 94.7283 99.0259 94.6485 98.9548C94.6084 98.9156 94.5766 98.8688 94.5549 98.8171C94.5331 98.7655 94.5219 98.71 94.5219 98.654C94.5219 98.5979 94.5331 98.5425 94.5549 98.4908C94.5766 98.4392 94.6084 98.3924 94.6485 98.3531L98.8237 93.9792C98.8625 93.9384 98.9092 93.906 98.961 93.8838C99.0128 93.8616 99.0685 93.8502 99.1249 93.8502C99.1812 93.8502 99.237 93.8616 99.2888 93.8838C99.3406 93.906 99.3873 93.9384 99.4261 93.9792C99.4678 94.0175 99.501 94.064 99.5237 94.1158C99.5464 94.1676 99.5582 94.2235 99.5582 94.28C99.5582 94.3366 99.5464 94.3925 99.5237 94.4443C99.501 94.496 99.4678 94.5425 99.4261 94.5809L95.2389 98.9367C95.2006 98.9784 95.154 99.0117 95.1022 99.0345C95.0503 99.0572 94.9943 99.069 94.9377 99.0691Z" fill="#231F20"/>
<path d="M113.072 135.035C113.072 135.035 120.983 109.441 120.507 104.213C120.031 98.9849 117.175 83.613 121.935 79.3353C126.694 75.0576 130.183 74.7508 133.195 81.5493C136.207 88.3479 137.165 121.962 137.165 121.962" fill="white"/>
<path d="M113.072 135.324H112.988C112.952 135.313 112.918 135.295 112.888 135.271C112.859 135.247 112.834 135.217 112.817 135.184C112.799 135.15 112.788 135.113 112.784 135.075C112.78 135.038 112.784 134.999 112.795 134.963C112.874 134.704 120.682 109.363 120.218 104.279C120.145 103.485 120.019 102.474 119.868 101.271C119.019 94.3943 117.591 82.8909 121.742 79.1668C124.519 76.67 126.694 75.6953 128.58 76.0984C130.466 76.5015 132.038 78.2583 133.466 81.5132C136.479 88.2997 137.418 120.662 137.461 122.034C137.462 122.072 137.456 122.11 137.443 122.146C137.429 122.181 137.408 122.214 137.382 122.242C137.356 122.269 137.324 122.291 137.289 122.306C137.253 122.321 137.216 122.329 137.177 122.329C137.139 122.332 137.1 122.327 137.064 122.315C137.028 122.302 136.994 122.283 136.966 122.257C136.937 122.23 136.915 122.199 136.899 122.164C136.884 122.128 136.876 122.09 136.876 122.052C136.876 121.715 135.894 88.4321 132.936 81.7418C131.592 78.6975 130.128 77.043 128.46 76.688C126.791 76.3331 124.754 77.2897 122.128 79.624C118.205 83.1436 119.663 94.9057 120.447 101.223C120.597 102.426 120.724 103.455 120.796 104.261C121.272 109.49 113.675 134.145 113.349 135.192C113.321 135.238 113.28 135.275 113.23 135.299C113.181 135.322 113.126 135.331 113.072 135.324Z" fill="#231F20"/>
</svg>
