<svg width="180" height="150" viewBox="0 0 180 150" fill="none" xmlns="http://www.w3.org/2000/svg">
<path d="M100.729 4.63026C101.977 1.66636 105.654 0.352738 108.829 0.847822C112.004 1.34291 114.77 3.23742 117.324 5.16495C121.84 8.54472 126.242 12.2941 129.081 17.1658C131.919 22.0374 133.755 26.942 136.811 31.6882C140.633 37.5896 144.838 43.8211 151.333 46.4945C155.815 48.3428 161.631 48.7719 163.875 53.0956C166.318 57.822 162.463 64.0403 164.932 68.76C166.443 71.6183 169.843 72.9386 172.483 74.9189C177.546 78.7277 179.797 85.4345 179.586 91.7649C179.375 98.0954 177.012 104.155 174.305 109.892C172.094 114.605 169.566 119.298 165.724 122.817C161.017 127.134 154.753 129.305 148.561 130.877C141.148 132.751 133.451 133.92 125.84 133.127C118.229 132.335 110.657 129.437 105.225 124.071C97.9633 116.928 95.1644 106.314 88.4445 98.6565C83.6125 93.1512 76.7671 89.3225 72.9055 82.9722C68.6225 75.8695 65.5026 68.1277 63.6639 60.04C60.3634 45.5175 64.6607 30.4604 68.9448 16.1888C69.8228 13.2645 70.7205 10.2478 72.483 7.77899C77.5131 0.550772 87.9494 -0.333777 96.5705 1.41552C98.4584 1.78518 100.703 2.72914 100.729 4.63026Z" fill="white"/>
<path d="M130.856 133.669C136.879 133.573 142.866 132.726 148.679 131.147C154.435 129.688 161.004 127.589 165.987 123.014C169.908 119.423 172.47 114.624 174.648 109.984C177.137 104.703 179.718 98.3461 179.929 91.7318C180.167 84.6026 177.467 78.1996 172.668 74.6086C171.876 74.0145 171.011 73.4732 170.172 72.9583C168.146 71.6975 166.212 70.5093 165.195 68.5355C164.007 66.2648 164.344 63.6507 164.694 60.8848C165.043 58.119 165.406 55.3201 164.139 52.8711C162.449 49.5705 158.779 48.4814 155.221 47.4054C153.954 47.0225 152.64 46.6264 151.452 46.138C145.306 43.6097 141.306 37.9922 137.074 31.4571C135.448 28.8399 133.978 26.1287 132.672 23.3377C131.642 21.2452 130.579 19.08 129.371 16.9743C126.427 11.9244 121.733 8.02316 117.529 4.87443C114.954 2.9403 112.162 1.01278 108.888 0.49789C106.082 0.0622165 102.518 1.03258 100.874 3.63342C100.174 1.95674 97.7847 1.29002 96.6691 1.06559C92.5764 0.233846 78.7075 -1.73989 72.1658 7.54788C70.357 10.1091 69.4527 13.1258 68.5814 16.0501C64.5217 29.655 59.9141 45.095 63.3005 60.0663C65.1562 68.1902 68.2983 75.9654 72.608 83.0976C74.9448 86.946 78.4038 89.9099 81.7506 92.7748C84.034 94.6406 86.1845 96.6632 88.1867 98.828C91.2892 102.366 93.593 106.624 95.8241 110.71C98.4052 115.469 101.065 120.381 104.98 124.236C110.089 129.266 117.482 132.513 125.793 133.378C127.475 133.563 129.165 133.66 130.856 133.669ZM107.528 1.07879C107.946 1.0779 108.363 1.11102 108.776 1.17781C111.904 1.66629 114.617 3.5476 117.133 5.42892C121.489 8.72948 125.919 12.3997 128.797 17.3109C130.011 19.3969 131.067 21.5554 132.097 23.6348C133.414 26.449 134.898 29.1823 136.54 31.8202C140.831 38.4543 144.903 44.151 151.221 46.7519C152.435 47.2536 153.762 47.6562 155.049 48.0721C158.62 49.1745 162.007 50.1712 163.571 53.2012C164.74 55.4719 164.41 58.0728 164.053 60.832C163.697 63.5913 163.34 66.41 164.621 68.8656C165.736 71.0043 167.822 72.2916 169.836 73.5458C170.661 74.0541 171.519 74.5887 172.285 75.163C176.906 78.622 179.487 84.8205 179.256 91.7318C179.031 98.2339 176.483 104.479 174.021 109.733C171.876 114.314 169.354 119.041 165.512 122.559C160.634 127.028 154.171 129.101 148.488 130.533C139.702 132.758 132.52 133.471 125.886 132.778C117.72 131.926 110.465 128.744 105.462 123.82C101.62 120.031 98.9795 115.159 96.4248 110.453C94.1805 106.3 91.8503 102.016 88.7015 98.4188C86.681 96.2285 84.5082 94.1836 82.1994 92.2995C78.8989 89.4677 75.4795 86.5368 73.1889 82.7807C68.9133 75.7098 65.7936 68.0017 63.9474 59.9475C60.5808 45.128 65.1554 29.7936 69.2283 16.2613C70.0864 13.3965 70.971 10.426 72.7136 7.95054C79.0111 -0.993961 92.5368 0.926963 96.5305 1.7389C97.6856 1.96994 100.372 2.71586 100.399 4.63019C100.4 4.70687 100.428 4.78073 100.477 4.83955C100.526 4.89837 100.594 4.93862 100.669 4.95364C100.743 4.96693 100.82 4.95455 100.886 4.91854C100.952 4.88252 101.004 4.82504 101.032 4.75561C102.089 2.24718 104.947 1.07879 107.528 1.07879Z" fill="#231F20"/>
<path d="M57.6637 72.6414C34.7182 86.3123 10.9872 149.214 10.9872 149.214H121.034C121.034 149.214 156.542 86.7282 140.798 72.8461C130.322 63.6573 67.3607 66.8655 57.6637 72.6414Z" fill="#68E1FD"/>
<path d="M65.2414 149.511C65.3076 149.512 65.3721 149.491 65.4264 149.454C65.4807 149.416 65.5221 149.362 65.5451 149.3L73.704 128.837C73.7201 128.796 73.7281 128.753 73.7275 128.71C73.7269 128.667 73.7178 128.624 73.7006 128.584C73.6834 128.544 73.6586 128.508 73.6275 128.478C73.5963 128.448 73.5596 128.424 73.5192 128.408C73.4794 128.392 73.4368 128.384 73.3938 128.385C73.3509 128.385 73.3086 128.394 73.2693 128.412C73.2299 128.429 73.1944 128.454 73.1648 128.485C73.1352 128.516 73.1121 128.552 73.0967 128.593L64.9378 149.056C64.9206 149.096 64.9116 149.139 64.9113 149.182C64.911 149.225 64.9194 149.268 64.936 149.308C64.9527 149.348 64.9772 149.385 65.0081 149.415C65.039 149.445 65.0757 149.469 65.116 149.485C65.1563 149.5 65.1985 149.509 65.2414 149.511Z" fill="#231F20"/>
<path d="M32.1633 149.512C32.2226 149.511 32.2806 149.495 32.3316 149.465C32.3826 149.435 32.4248 149.392 32.4538 149.34C32.8301 148.68 34.8434 144.825 37.6291 139.511C46.2501 123.061 64.1853 88.8341 65.4263 87.7383C65.4633 87.719 65.496 87.6924 65.5225 87.6601C65.5489 87.6278 65.5686 87.5905 65.5803 87.5505C65.592 87.5104 65.5955 87.4684 65.5906 87.427C65.5857 87.3855 65.5725 87.3455 65.5518 87.3093C65.5072 87.2313 65.4344 87.1734 65.3484 87.1476C65.2624 87.1218 65.1698 87.13 65.0897 87.1706C64.3239 87.5601 56.7195 101.66 37.0482 139.201C34.2625 144.481 32.2492 148.356 31.8795 149.023C31.8585 149.06 31.845 149.101 31.84 149.144C31.8349 149.186 31.8383 149.229 31.85 149.27C31.8616 149.311 31.8813 149.35 31.9079 149.383C31.9345 149.417 31.9675 149.445 32.0049 149.465C32.0521 149.496 32.1072 149.512 32.1633 149.512Z" fill="#231F20"/>
<path d="M85.2035 75.1828L73.4007 128.731C73.4007 128.731 110.228 81.9357 112.638 67.9678C104.69 59.855 85.2035 75.1828 85.2035 75.1828Z" fill="#231F20"/>
<path d="M73.4 129.048C73.4495 129.047 73.4982 129.036 73.5427 129.014C73.5872 128.992 73.6264 128.961 73.6574 128.923C73.7498 128.804 82.9782 117.041 92.3848 103.766C105.026 85.8834 111.95 73.8495 112.96 68.0142C112.97 67.9624 112.967 67.9092 112.952 67.8587C112.937 67.8083 112.911 67.7621 112.875 67.7237C109.515 64.2977 103.633 64.4694 95.7975 68.2254C91.9907 70.1039 88.3741 72.3454 84.9981 74.9189C84.9397 74.9662 84.898 75.031 84.8793 75.1038L73.0765 128.652C73.0606 128.725 73.0703 128.802 73.1039 128.869C73.1375 128.937 73.1931 128.99 73.2613 129.022C73.3053 129.04 73.3525 129.049 73.4 129.048ZM112.281 68.067C109.884 80.7675 79.6446 120.143 74.0337 127.371L85.4998 75.3546C86.9454 74.2588 104.828 60.8124 112.281 68.0802V68.067Z" fill="#231F20"/>
<path d="M84.5365 59.7363L85.1966 75.1697C85.1966 75.1697 90.9132 84.0812 100.511 80.5562C103.34 79.4875 105.896 77.802 107.992 75.6223C110.089 73.4426 111.673 70.8233 112.631 67.9547L109.297 40.1112C109.297 40.1112 101.191 32.9886 101.528 16.8291C93.5273 21.2458 84.5327 23.5496 75.394 23.5226C75.394 23.5226 74.1266 45.2139 76.1927 52.7193C78.2589 60.2248 84.5365 59.7363 84.5365 59.7363Z" fill="white"/>
<path d="M96.121 81.7179C97.6638 81.7084 99.1927 81.4246 100.636 80.8796C110.28 77.3348 112.927 68.1461 112.954 68.0537C112.961 68.0121 112.961 67.9698 112.954 67.9282L109.62 40.0847C109.613 40.0055 109.575 39.9322 109.515 39.8801C109.442 39.8075 101.547 32.6717 101.851 16.829C101.852 16.7703 101.837 16.7124 101.808 16.6614C101.779 16.6103 101.737 16.5679 101.686 16.5386C101.635 16.5077 101.577 16.4913 101.517 16.4913C101.458 16.4913 101.4 16.5077 101.349 16.5386C93.3927 20.898 84.4659 23.1819 75.3935 23.1793C75.3506 23.1756 75.3074 23.1809 75.2666 23.1949C75.2259 23.2088 75.1885 23.2311 75.1568 23.2603C75.1252 23.2895 75.0999 23.3249 75.0827 23.3644C75.0655 23.4039 75.0567 23.4465 75.0568 23.4896C75.004 24.3741 73.8026 45.3062 75.8688 52.7787C77.7105 59.4458 82.8395 60.0399 84.2126 60.0399L84.8727 75.1564C84.8731 75.2155 84.8915 75.2731 84.9255 75.3215C84.9717 75.4403 89.104 81.7179 96.121 81.7179ZM112.3 67.9414C112.056 68.727 109.323 76.9849 100.418 80.2591C91.6256 83.4936 86.1071 75.9024 85.5394 75.0772L84.8793 59.7296C84.8725 59.6412 84.8324 59.5586 84.7671 59.4986C84.7339 59.4694 84.6952 59.4473 84.6531 59.4337C84.6111 59.4201 84.5668 59.4152 84.5228 59.4194C84.2786 59.4194 78.496 59.7759 76.5223 52.6335C74.6212 45.7485 75.5717 26.5591 75.7169 23.8658H75.948C84.7565 23.7631 93.4123 21.5516 101.191 17.4165C101.131 25.5227 103.217 31.2789 105.006 34.6916C106.019 36.7549 107.356 38.6426 108.967 40.2828L112.3 67.9414Z" fill="#231F20"/>
<path d="M105.554 39.8868C105.739 38.4948 106.366 37.199 107.343 36.1902C108.299 35.2943 109.402 34.5707 110.604 34.0514C111.228 33.6921 111.926 33.4799 112.644 33.4309C113.15 33.4527 113.648 33.5715 114.109 33.7808C115.224 34.189 116.158 34.9766 116.75 36.0053C117.126 36.8899 117.283 37.8526 117.205 38.8108C117.203 39.8544 117.063 40.8931 116.789 41.9001C116.495 42.9025 116.003 43.836 115.343 44.6461C114.683 45.4563 113.869 46.1268 112.947 46.6184C112.025 47.1101 111.014 47.4131 109.974 47.5097C108.934 47.6063 107.884 47.4946 106.888 47.181" fill="white"/>
<path d="M109.264 47.8543C111.034 47.8607 112.757 47.2928 114.176 46.2357C115.595 45.1787 116.633 43.6897 117.133 41.9925C117.416 40.9578 117.56 39.8901 117.562 38.8174C117.641 37.8066 117.473 36.7918 117.074 35.8601C116.446 34.7489 115.438 33.9024 114.235 33.4771C113.733 33.2535 113.193 33.1258 112.644 33.1008C111.874 33.1467 111.126 33.3728 110.459 33.7609C109.231 34.3003 108.105 35.0485 107.132 35.9723C106.099 37.0294 105.439 38.3943 105.251 39.8604C105.24 39.9479 105.263 40.0364 105.317 40.1063C105.371 40.1763 105.451 40.222 105.538 40.2333C105.626 40.2447 105.714 40.2208 105.784 40.167C105.854 40.1131 105.9 40.0337 105.911 39.9462C106.078 38.62 106.674 37.3846 107.608 36.4278C108.54 35.5655 109.611 34.8669 110.776 34.3616C111.353 34.0267 111.999 33.8259 112.664 33.7741C113.121 33.7976 113.569 33.9073 113.984 34.0976C115.03 34.4768 115.912 35.207 116.479 36.1637C116.83 36.9973 116.975 37.9029 116.902 38.8042C116.902 39.8188 116.766 40.8288 116.499 41.8077C116.216 42.7654 115.746 43.6572 115.115 44.4311C114.484 45.2051 113.705 45.8457 112.824 46.3157C111.943 46.7857 110.977 47.0757 109.983 47.1687C108.989 47.2617 107.986 47.156 107.033 46.8575C106.99 46.8445 106.944 46.8402 106.899 46.8448C106.854 46.8493 106.811 46.8627 106.771 46.8842C106.731 46.9057 106.696 46.9347 106.667 46.9698C106.639 47.0049 106.617 47.0452 106.604 47.0886C106.591 47.1319 106.587 47.1774 106.591 47.2224C106.596 47.2674 106.609 47.3111 106.631 47.351C106.652 47.3908 106.681 47.426 106.716 47.4546C106.752 47.4832 106.792 47.5046 106.835 47.5177C107.624 47.7509 108.442 47.8644 109.264 47.8543Z" fill="#231F20"/>
<path d="M86.6684 45.5505C87.6558 45.5204 88.6339 45.3492 89.5729 45.0422C89.6141 45.0279 89.652 45.0057 89.6846 44.9767C89.7172 44.9477 89.7437 44.9126 89.7627 44.8734C89.7817 44.8342 89.7928 44.7916 89.7953 44.7481C89.7979 44.7045 89.7918 44.661 89.7775 44.6198C89.7632 44.5786 89.7409 44.5406 89.712 44.5081C89.683 44.4755 89.6479 44.449 89.6087 44.43C89.5694 44.411 89.5268 44.3999 89.4833 44.3973C89.4398 44.3948 89.3962 44.4008 89.3551 44.4151C88.4639 44.7188 85.9423 45.3195 84.9653 44.4151C84.2524 43.755 86.1205 39.2267 88.2659 35.4046C88.3086 35.3284 88.3194 35.2384 88.2959 35.1543C88.2724 35.0701 88.2165 34.9987 88.1404 34.9558C88.0631 34.9153 87.9731 34.9064 87.8893 34.931C87.8056 34.9557 87.7347 35.0119 87.6916 35.0878C86.5892 37.0681 83.1038 43.5768 84.523 44.897C85.1328 45.3725 85.8971 45.6053 86.6684 45.5505Z" fill="#231F20"/>
<path d="M98.3786 118.374C98.4316 118.375 98.484 118.363 98.5312 118.338C98.5784 118.314 98.6189 118.279 98.6492 118.235C98.7483 118.09 109.211 103.614 121.304 85.2958C121.352 85.223 121.369 85.1343 121.352 85.049C121.334 84.9637 121.284 84.8887 121.212 84.8403C121.139 84.7942 121.05 84.7781 120.966 84.7953C120.881 84.8125 120.806 84.8617 120.756 84.9327C108.643 103.244 98.2202 117.707 98.1146 117.852C98.0648 117.923 98.0445 118.01 98.0581 118.095C98.0717 118.18 98.118 118.257 98.1872 118.308C98.2415 118.351 98.3091 118.374 98.3786 118.374Z" fill="#231F20"/>
<path d="M88.3587 54.1517C88.9041 54.1495 89.4472 54.0808 89.9759 53.947C96.3526 52.4222 96.2998 44.6593 96.2998 44.5801C96.2981 44.493 96.2628 44.4101 96.2013 44.3485C96.1397 44.287 96.0567 44.2517 95.9697 44.25C95.9264 44.2509 95.8836 44.2602 95.8439 44.2776C95.8042 44.295 95.7683 44.3201 95.7383 44.3513C95.7082 44.3826 95.6846 44.4195 95.6689 44.4598C95.6531 44.5002 95.6454 44.5433 95.6463 44.5867C95.6463 44.6593 95.6859 51.9007 89.8241 53.3067C89.15 53.4977 88.4436 53.547 87.7494 53.4515C87.0553 53.3561 86.3884 53.118 85.7908 52.7522C83.2428 51.1416 82.4309 47.4053 82.4177 47.3657C82.409 47.3232 82.392 47.2829 82.3678 47.247C82.3435 47.211 82.3124 47.1802 82.2763 47.1563C82.2401 47.1324 82.1996 47.1159 82.157 47.1076C82.1144 47.0994 82.0707 47.0996 82.0282 47.1083C81.9859 47.1169 81.9457 47.1339 81.9101 47.1582C81.8744 47.1826 81.844 47.2138 81.8207 47.2501C81.7973 47.2864 81.7814 47.327 81.774 47.3696C81.7665 47.4121 81.7677 47.4557 81.7773 47.4977C81.7773 47.6628 82.6487 51.5442 85.4344 53.3067C86.3075 53.864 87.3229 54.1574 88.3587 54.1517Z" fill="#231F20"/>
<path d="M84.5369 59.7362C84.5369 59.7362 94.1085 59.9342 99.9307 52.376C99.9307 52.376 96.9602 67.7434 84.9395 68.9778L84.5369 59.7362Z" fill="#231F20"/>
<path d="M84.9388 69.3211H84.9718C97.098 68.0734 100.227 52.607 100.253 52.4486C100.27 52.3753 100.261 52.2984 100.228 52.2311C100.194 52.1637 100.138 52.1102 100.069 52.0797C100.001 52.0493 99.9233 52.0437 99.8508 52.064C99.7784 52.0844 99.7153 52.1293 99.6724 52.1912C94.0219 59.5184 84.6417 59.4128 84.5427 59.4524C84.4974 59.4516 84.4524 59.46 84.4105 59.477C84.3685 59.494 84.3304 59.5193 84.2985 59.5514C84.2672 59.5837 84.243 59.622 84.2271 59.664C84.2112 59.706 84.204 59.7508 84.206 59.7957L84.6087 69.0372C84.611 69.0829 84.6227 69.1276 84.6431 69.1685C84.6636 69.2094 84.6923 69.2456 84.7275 69.2748C84.7901 69.3151 84.8651 69.3315 84.9388 69.3211ZM99.2632 53.6962C98.2136 57.4061 94.5236 67.4331 85.2556 68.6279L84.8793 60.0465C86.5692 60.0135 94.0351 59.4458 99.2632 53.6962Z" fill="#231F20"/>
<path d="M111.396 144.231C111.474 144.23 111.549 144.202 111.608 144.151C111.766 144.013 127.556 130.203 137.873 110.301C137.893 110.263 137.905 110.221 137.908 110.178C137.912 110.136 137.907 110.093 137.893 110.052C137.88 110.011 137.859 109.974 137.831 109.941C137.804 109.908 137.77 109.881 137.731 109.862C137.693 109.842 137.652 109.831 137.609 109.827C137.566 109.824 137.523 109.829 137.483 109.842C137.442 109.855 137.404 109.876 137.371 109.904C137.339 109.932 137.312 109.966 137.293 110.004C127.034 129.807 111.337 143.518 111.179 143.67C111.148 143.7 111.123 143.736 111.107 143.775C111.09 143.815 111.081 143.858 111.081 143.901C111.081 143.944 111.09 143.986 111.107 144.026C111.123 144.066 111.148 144.101 111.179 144.132C111.237 144.19 111.314 144.225 111.396 144.231Z" fill="#231F20"/>
<path d="M94.2933 31.675C93.6516 31.675 93.1315 30.5933 93.1315 29.259C93.1315 27.9247 93.6516 26.843 94.2933 26.843C94.9349 26.843 95.4551 27.9247 95.4551 29.259C95.4551 30.5933 94.9349 31.675 94.2933 31.675Z" fill="#231F20"/>
<path d="M80.0856 31.5174C80.0323 30.1831 80.5091 29.0806 81.1508 29.0549C81.7924 29.0293 82.3558 30.0901 82.4092 31.4245C82.4626 32.7588 81.9857 33.8613 81.3441 33.8869C80.7024 33.9126 80.139 32.8517 80.0856 31.5174Z" fill="#231F20"/>
<path d="M114.083 127.781C106.531 119.608 54.6731 95.4351 49.9335 91.6593C45.1939 87.8835 45.1675 84.9394 38.9031 83.1901C32.6386 81.4408 22.6577 78.0214 21.6808 79.0974C20.7038 80.1734 21.3639 82.9326 22.869 84.2132C24.374 85.4939 28.2951 86.4444 29.7011 87.758C29.7011 87.758 21.5554 89.2235 18.9281 87.8637C16.3009 86.5038 11.8121 82.9524 9.50172 82.5828C8.03594 82.3893 6.54565 82.6327 5.21759 83.2825C5.21759 83.2825 2.27351 81.2493 1.22393 82.794C0.524208 83.8172 1.07871 85.0252 1.93686 85.7447C-0.0104675 85.1374 1.34275 87.6326 1.72562 88.3323C11.8385 106.683 35.5563 102.571 39.1275 102.769C39.1275 102.769 50.4748 112.71 52.937 115.06C59.0629 120.915 65.3207 126.632 71.836 132.045C78.9586 137.986 86.8007 144.686 95.6594 147.822C113.971 154.324 121.655 135.959 114.083 127.781Z" fill="white"/>
<path d="M102.979 149.511C108.029 149.511 112.267 147.393 114.947 143.339C118.314 138.23 118.05 131.596 114.287 127.563C109.415 122.282 86.1729 110.367 69.2014 101.667C59.8477 96.8808 51.7745 92.7419 50.1044 91.4019C48.7767 90.3114 47.5504 89.1029 46.4408 87.7911C44.5859 85.6919 43.1403 84.0351 38.9552 82.8733C37.4699 82.4574 35.7998 81.9557 34.0373 81.4276C26.05 79.0314 22.2016 77.995 21.4028 78.873C21.1861 79.1507 21.0271 79.469 20.9353 79.8091C20.8435 80.1492 20.8206 80.5043 20.8681 80.8533C20.9734 82.2368 21.5983 83.5292 22.6174 84.4707C23.6773 85.2114 24.8318 85.8064 26.05 86.2398C27.0146 86.6094 27.9502 87.0507 28.8489 87.56C26.7827 87.8835 21.086 88.636 19.0462 87.56C18.1287 87.0848 16.9735 86.3322 15.7457 85.5401C13.4485 84.0483 11.0721 82.5036 9.51421 82.2396C8.04382 82.0443 6.54826 82.2734 5.20368 82.8997C4.702 82.5828 3.15735 81.6983 1.96915 81.9227C1.75703 81.9566 1.55382 82.0325 1.37135 82.1458C1.18887 82.2592 1.03079 82.4077 0.906357 82.5828C0.639511 83.0025 0.51355 83.4965 0.546791 83.9927C0.580032 84.489 0.770744 84.9617 1.09119 85.3421C0.944443 85.3767 0.813988 85.4606 0.721527 85.5797C0.338661 86.0418 0.549896 86.9329 1.38164 88.471C10.3063 104.664 29.5618 103.568 36.8098 103.158C37.7406 103.106 38.4931 103.066 38.942 103.079C40.0047 104.01 50.3421 113.067 52.6591 115.278C59.5506 121.879 65.7359 127.431 71.5712 132.283L72.4888 133.042C79.2747 138.686 86.965 145.089 95.5003 148.112C97.8945 149.004 100.424 149.478 102.979 149.511ZM22.4854 79.1898C24.3205 79.1898 29.9644 80.8863 33.8789 82.0613C35.648 82.5894 37.3181 83.0911 38.8165 83.507C42.7772 84.616 44.1964 86.2134 45.9787 88.2268C47.1121 89.5697 48.3673 90.805 49.7282 91.9168C51.4511 93.2964 59.1612 97.2505 68.9308 102.254C85.8626 110.935 109.046 122.817 113.818 127.998C117.343 131.82 117.574 138.111 114.373 142.97C110.643 148.627 103.679 150.323 95.7511 147.511C87.3281 144.528 79.684 138.164 72.9443 132.553L72.0267 131.794C66.2045 126.955 60.0325 121.404 53.1475 114.823C50.7051 112.492 39.437 102.624 39.3248 102.525C39.2709 102.474 39.2008 102.444 39.1268 102.439C38.6515 102.439 37.8792 102.439 36.8098 102.518C29.6674 102.927 10.7156 103.997 1.99555 88.1674C0.998787 86.3653 1.24303 86.0286 1.24963 86.0154C1.25623 86.0022 1.42125 85.9362 1.81731 86.0616C1.89435 86.1089 1.98701 86.1236 2.07491 86.1026C2.1628 86.0815 2.23874 86.0264 2.286 85.9494C2.33327 85.8724 2.34801 85.7797 2.32696 85.6918C2.30592 85.6039 2.25081 85.528 2.17377 85.4807C1.42125 84.8536 0.93277 83.8304 1.51366 82.9657C1.58837 82.8545 1.68587 82.7606 1.79968 82.69C1.9135 82.6194 2.04102 82.5739 2.17377 82.5564C3.11774 82.3782 4.58319 83.2165 5.07168 83.54C5.12312 83.5722 5.18259 83.5893 5.24329 83.5893C5.30399 83.5893 5.36347 83.5722 5.41492 83.54C6.67841 82.9252 8.09481 82.6956 9.4878 82.8799C10.907 83.1043 13.3297 84.6754 15.4618 86.0682C16.6962 86.8735 17.8646 87.6327 18.8152 88.1211C21.3368 89.4414 28.4264 88.2862 29.6344 88.0749L30.1361 88.5436C30.1549 88.5959 30.1867 88.6426 30.2284 88.6793C30.2701 88.716 30.3204 88.7416 30.3746 88.7537C30.4289 88.7659 30.4853 88.7641 30.5387 88.7485C30.5921 88.733 30.6406 88.7043 30.6799 88.665C30.7192 88.6257 30.748 88.5771 30.7635 88.5238C30.779 88.4704 30.7808 88.414 30.7687 88.3597C30.7566 88.3055 30.731 88.2552 30.6942 88.2135C30.6575 88.1718 30.6108 88.14 30.5586 88.1211L29.938 87.5402C28.8459 86.7311 27.6374 86.0924 26.3536 85.6457C25.1991 85.238 24.1028 84.681 23.0927 83.9889C22.2047 83.165 21.6621 82.0351 21.5744 80.8269C21.4969 80.3034 21.6272 79.7704 21.9375 79.3417C22.0974 79.2298 22.2908 79.1762 22.4854 79.1898Z" fill="#231F20"/>
<path d="M5.21711 83.2891C5.21711 83.2891 9.03916 88.1739 16.7559 91.6725L5.21711 83.2891Z" fill="white"/>
<path d="M16.7563 92.0025C16.8197 92.0017 16.8816 91.9834 16.9352 91.9496C16.9888 91.9158 17.032 91.8679 17.06 91.811C17.0957 91.7314 17.0984 91.6408 17.0675 91.5591C17.0365 91.4775 16.9745 91.4114 16.895 91.3754C9.3499 87.9494 5.52127 83.1306 5.48166 83.0844C5.42816 83.0154 5.34949 82.9704 5.26289 82.9592C5.17628 82.9481 5.08879 82.9717 5.01957 83.025C4.95013 83.0797 4.90496 83.1595 4.89385 83.2471C4.88273 83.3348 4.90656 83.4234 4.96017 83.4937C4.99977 83.5399 8.92084 88.4841 16.6243 91.9761C16.6657 91.9949 16.7109 92.0039 16.7563 92.0025Z" fill="#231F20"/>
<path d="M1.93666 85.7515C1.93666 85.7515 8.7358 94.4979 13.6074 95.2637L1.93666 85.7515Z" fill="white"/>
<path d="M13.6073 95.5935C13.6507 95.597 13.6943 95.5919 13.7356 95.5785C13.777 95.5651 13.8154 95.5437 13.8485 95.5155C13.8816 95.4873 13.9088 95.4529 13.9286 95.4142C13.9484 95.3754 13.9603 95.3332 13.9638 95.2899C13.9673 95.2465 13.9622 95.2029 13.9488 95.1615C13.9354 95.1202 13.914 95.0818 13.8858 95.0487C13.8576 95.0156 13.8232 94.9884 13.7844 94.9686C13.7457 94.9488 13.7035 94.9369 13.6601 94.9334C8.97335 94.1941 2.26663 85.6324 2.20062 85.54C2.14404 85.473 2.06395 85.4302 1.97679 85.4204C1.88964 85.4106 1.80201 85.4345 1.73193 85.4872C1.66392 85.5417 1.62021 85.6208 1.61031 85.7074C1.60042 85.7939 1.62516 85.8809 1.67913 85.9493C1.95638 86.3124 8.6169 94.808 13.5611 95.5869L13.6073 95.5935Z" fill="#231F20"/>
<path d="M57.7688 119.958C57.8377 119.959 57.9049 119.937 57.9607 119.897C58.0165 119.856 58.058 119.799 58.0791 119.734C58.1253 119.615 62.4094 107.726 71.5453 103.455C71.585 103.437 71.6206 103.411 71.65 103.379C71.6795 103.346 71.7023 103.309 71.717 103.267C71.7317 103.226 71.7382 103.183 71.7359 103.139C71.7336 103.095 71.7227 103.053 71.7038 103.013C71.6665 102.935 71.6 102.874 71.5184 102.845C71.4369 102.815 71.347 102.819 71.2681 102.855C61.8747 107.244 57.4982 119.397 57.4586 119.516C57.4288 119.598 57.433 119.689 57.4701 119.768C57.5073 119.847 57.5743 119.909 57.6566 119.938L57.7688 119.958Z" fill="#231F20"/>
<path d="M94.8536 35.4837C95.0742 35.4831 95.2946 35.4699 95.5137 35.4441L100.531 34.8632C101.289 34.7764 102.024 34.5407 102.691 34.1697C103.359 33.7988 103.947 33.2998 104.421 32.7014C104.896 32.103 105.248 31.4169 105.457 30.6823C105.666 29.9478 105.728 29.1792 105.64 28.4205L105.303 25.4897C105.238 24.9284 104.953 24.4158 104.511 24.0638C104.066 23.7147 103.502 23.5536 102.94 23.6149L90.6289 25.0408C90.0708 25.1087 89.5617 25.393 89.2111 25.8325C88.8605 26.272 88.6964 26.8315 88.7541 27.3908L89.0908 30.3283C89.2542 31.7427 89.9314 33.0479 90.9938 33.9958C92.0562 34.9438 93.4297 35.4686 94.8536 35.4705V35.4837ZM103.224 24.3081C103.572 24.3118 103.907 24.4416 104.167 24.6734C104.426 24.9052 104.593 25.2234 104.636 25.5689L104.973 28.5064C105.05 29.1726 104.995 29.8476 104.812 30.4926C104.628 31.1377 104.318 31.7401 103.902 32.2656C103.485 32.791 102.968 33.2291 102.382 33.5547C101.796 33.8804 101.151 34.0873 100.484 34.1635L95.4543 34.7444C94.788 34.8216 94.113 34.7668 93.468 34.5829C92.8229 34.399 92.2205 34.0898 91.6951 33.6729C91.1696 33.256 90.7315 32.7396 90.4059 32.1532C90.0802 31.5669 89.8734 30.922 89.7971 30.2557L89.4539 27.3248C89.4129 26.9496 89.5217 26.5734 89.7566 26.278C89.9914 25.9826 90.3333 25.7918 90.7081 25.7471L103.052 24.3213L103.224 24.3081Z" fill="#231F20"/>
<path d="M78.4702 37.4378C78.6908 37.4374 78.9112 37.4241 79.1303 37.3982L84.1669 36.8173C84.9251 36.7297 85.6586 36.4934 86.3255 36.1221C86.9923 35.7508 87.5795 35.2518 88.0534 34.6534C88.5272 34.0551 88.8786 33.3692 89.0873 32.6351C89.2959 31.9009 89.3579 31.1328 89.2696 30.3747L88.9329 27.4438C88.9009 27.1655 88.8144 26.8962 88.6784 26.6513C88.5423 26.4065 88.3593 26.1908 88.1398 26.0167C87.9203 25.8426 87.6687 25.7135 87.3993 25.6366C87.1299 25.5598 86.848 25.5369 86.5697 25.5691L74.2256 26.9949C73.6668 27.0619 73.1568 27.3465 72.8064 27.787C72.631 28.006 72.501 28.2577 72.4239 28.5274C72.3468 28.7971 72.3243 29.0795 72.3575 29.3581L72.7008 32.289C72.8642 33.7052 73.5421 35.012 74.6057 35.9612C75.6694 36.9104 77.0446 37.4359 78.4702 37.4378ZM79.0577 36.6985C77.7124 36.8527 76.3609 36.4665 75.3001 35.6249C74.2394 34.7832 73.5561 33.5549 73.4005 32.2098L73.0638 29.2789C73.0418 29.0933 73.0566 28.9052 73.1074 28.7253C73.1582 28.5455 73.244 28.3775 73.3599 28.2309C73.4758 28.0843 73.6196 27.962 73.7829 27.8711C73.9462 27.7803 74.1258 27.7225 74.3115 27.7012L86.6687 26.2754C86.8536 26.2522 87.0413 26.2666 87.2205 26.3177C87.3997 26.3687 87.5668 26.4554 87.7117 26.5724C87.8594 26.6875 87.9827 26.8308 88.0745 26.994C88.1663 27.1572 88.2247 27.337 88.2464 27.523L88.5831 30.4605C88.6603 31.1267 88.6054 31.8017 88.4216 32.4468C88.2377 33.0918 87.9285 33.6943 87.5116 34.2197C87.0946 34.7451 86.5782 35.1832 85.9919 35.5089C85.4055 35.8345 84.7607 36.0414 84.0943 36.1176L79.0577 36.6985Z" fill="#231F20"/>
</svg>
