<svg xmlns="http://www.w3.org/2000/svg" width="113" height="95" fill="none"><path fill="#093F68" d="M106.438 52.541 86.93 26.164a4.314 4.314 0 0 0-3.473-1.75H24.55a4.309 4.309 0 0 0-3.473 1.75L1.567 52.541v32.145c0 1.749.694 3.426 1.93 4.663a6.583 6.583 0 0 0 4.657 1.931h91.71a6.581 6.581 0 0 0 4.657-1.931 6.6 6.6 0 0 0 1.929-4.663l-.012-32.145Z"/><path fill="#093F68" d="M99.863 91.868H8.142A7.181 7.181 0 0 1 3.06 89.76a7.198 7.198 0 0 1-2.105-5.087V52.54a.6.6 0 0 1 .114-.36l19.508-26.377a4.948 4.948 0 0 1 3.958-1.996h58.909a4.942 4.942 0 0 1 3.958 1.996l19.508 26.378c.076.104.115.23.114.36v32.144a7.198 7.198 0 0 1-2.101 5.07 7.18 7.18 0 0 1-5.06 2.112ZM2.166 52.739v31.947c0 1.59.63 3.115 1.753 4.239a5.984 5.984 0 0 0 4.234 1.756h91.71c1.588 0 3.111-.632 4.234-1.756a5.998 5.998 0 0 0 1.754-4.24V52.74L86.463 26.512A3.744 3.744 0 0 0 83.469 25h-58.92a3.74 3.74 0 0 0-2.995 1.51L2.166 52.74Z"/><path fill="#1EBCC3" d="M106.438 52.541v32.145a6.6 6.6 0 0 1-1.929 4.663 6.585 6.585 0 0 1-4.658 1.931H8.141a6.583 6.583 0 0 1-4.657-1.931 6.598 6.598 0 0 1-1.93-4.663V52.54h28.39l2.67 13.19a5.236 5.236 0 0 0 5.138 4.196h32.836a5.254 5.254 0 0 0 5.162-4.287l2.467-13.135 28.221.036Z"/><path fill="#093F68" d="M99.857 91.868H8.141a7.181 7.181 0 0 1-5.08-2.107 7.198 7.198 0 0 1-2.105-5.087V52.541a.6.6 0 0 1 .599-.599h28.388a.598.598 0 0 1 .599.48l2.67 13.188a4.659 4.659 0 0 0 4.551 3.735h32.838a4.649 4.649 0 0 0 4.568-3.8l2.467-13.135a.6.6 0 0 1 .6-.486h28.208a.596.596 0 0 1 .599.6v32.144a7.212 7.212 0 0 1-2.103 5.09 7.173 7.173 0 0 1-5.083 2.11ZM2.166 53.14v31.545c0 1.59.63 3.115 1.753 4.239a5.984 5.984 0 0 0 4.234 1.756h91.704c1.588 0 3.111-.632 4.234-1.756a5.998 5.998 0 0 0 1.754-4.24V53.142H78.726l-2.395 12.643a5.864 5.864 0 0 1-2.01 3.437 5.852 5.852 0 0 1-3.738 1.359h-32.82a5.846 5.846 0 0 1-3.697-1.326 5.859 5.859 0 0 1-2.027-3.368l-2.587-12.745H2.166Z"/><path fill="#093F68" d="M24.602 78.181h-11.76a.598.598 0 0 1-.424-1.023.599.599 0 0 1 .424-.175h11.76a.599.599 0 0 1 0 1.198Z"/><path fill="#fff" d="M109.953 73.601H75.469a2.33 2.33 0 0 0-2.33 2.332v15.773a2.33 2.33 0 0 0 2.33 2.332h34.484a2.33 2.33 0 0 0 2.329-2.332V75.933a2.33 2.33 0 0 0-2.329-2.332Z"/><path fill="#093F68" d="M109.953 94.643H75.469a2.932 2.932 0 0 1-2.928-2.931V75.933a2.94 2.94 0 0 1 2.928-2.931h34.484a2.934 2.934 0 0 1 2.928 2.931v15.779a2.935 2.935 0 0 1-2.928 2.931ZM75.469 74.201a1.73 1.73 0 0 0-1.73 1.732v15.779a1.734 1.734 0 0 0 1.73 1.732h34.484a1.734 1.734 0 0 0 1.731-1.732V75.933a1.743 1.743 0 0 0-1.731-1.732H75.469Z"/><path fill="#093F68" d="M85.187 81.52a1.492 1.492 0 0 0-.533-.407c-.234-.1-.487-.15-.742-.144a1.865 1.865 0 0 0-.779.162c-.23.108-.433.263-.599.456-.18.2-.32.434-.413.689a2.72 2.72 0 0 0 0 1.744c.094.253.232.486.407.69.167.189.371.342.6.45.234.108.49.163.748.161a1.63 1.63 0 0 0 1.407-.725l1.24.93c-.276.39-.653.696-1.09.886a3.35 3.35 0 0 1-1.354.288 4.134 4.134 0 0 1-1.46-.252 3.31 3.31 0 0 1-1.15-.707 3.176 3.176 0 0 1-.76-1.121 4.07 4.07 0 0 1 0-2.944 3.13 3.13 0 0 1 .76-1.12c.33-.315.721-.558 1.15-.714.468-.166.963-.25 1.46-.246a3.525 3.525 0 0 1 1.198.216c.21.078.412.18.599.306.185.133.352.29.497.467l-1.186.936ZM87.145 79.308h1.432v7.194h-1.431v-7.194ZM93.996 85.723c-.23.293-.528.526-.868.677-.342.16-.714.241-1.09.24a2.953 2.953 0 0 1-1.006-.168 2.555 2.555 0 0 1-.82-.491 2.29 2.29 0 0 1-.546-.773 2.564 2.564 0 0 1 0-2.003c.125-.292.31-.553.545-.767a2.36 2.36 0 0 1 .82-.492 2.817 2.817 0 0 1 1.007-.174c.31-.005.618.054.904.174.263.108.497.276.683.492.197.222.346.484.437.767.104.323.155.662.15 1.001v.45h-3.318c.046.254.177.484.371.653.198.166.45.254.707.246.211.008.42-.048.599-.162.166-.104.31-.24.425-.401l1 .731Zm-1.198-2.038a.846.846 0 0 0-.233-.6.851.851 0 0 0-.641-.257 1.084 1.084 0 0 0-.73.27.83.83 0 0 0-.198.281.864.864 0 0 0-.084.33l1.886-.024ZM97.99 85.945c-.152.239-.374.425-.635.533-.465.188-.98.213-1.461.072a1.57 1.57 0 0 1-.527-.27 1.278 1.278 0 0 1-.365-.449 1.37 1.37 0 0 1-.132-.6 1.398 1.398 0 0 1 .15-.677c.092-.184.23-.34.4-.456.183-.126.386-.222.6-.281a4.04 4.04 0 0 1 .67-.15c.23-.03.463-.048.695-.054h.646a.743.743 0 0 0-.269-.6.993.993 0 0 0-.647-.227 1.417 1.417 0 0 0-.64.15c-.199.1-.376.238-.521.407l-.767-.785c.271-.247.589-.437.934-.558.356-.124.731-.187 1.108-.186a2.99 2.99 0 0 1 1.036.156c.253.094.476.253.647.462.169.22.285.477.341.75.066.339.098.684.096 1.03v2.356H98.03l-.041-.623Zm-.354-1.45h-.407a2.01 2.01 0 0 0-.467.083.944.944 0 0 0-.377.198.461.461 0 0 0-.162.372.42.42 0 0 0 .222.383.897.897 0 0 0 .455.126c.138.002.275-.019.407-.06a1.09 1.09 0 0 0 .347-.162.732.732 0 0 0 .336-.647v-.306l-.354.012ZM100.198 81.862h1.377v.63a.982.982 0 0 1 .192-.264c.085-.094.184-.175.293-.24.262-.159.563-.242.869-.24.302-.013.604.044.88.168.213.102.394.262.521.462.125.214.211.45.251.695a5.5 5.5 0 0 1 .066.87v2.56h-1.431V83.846a1.346 1.346 0 0 0-.09-.396.692.692 0 0 0-.215-.3.718.718 0 0 0-.407-.09.896.896 0 0 0-.45.102.694.694 0 0 0-.263.264 1.117 1.117 0 0 0-.12.378 3.647 3.647 0 0 0 0 .443v2.308h-1.431l-.042-4.694Z"/><path fill="#fff" d="M51.421 39.299c-6.161.491-11.514 5.869-11.838 11.912-1.017-6.72-5.023-10.75-11.67-11.954 6.64-1.2 10.646-5.222 11.64-11.786 1 6.594 5.006 10.629 11.868 11.828Z"/><path fill="#093F68" d="M39.584 51.828a.597.597 0 0 1-.599-.51c-.976-6.432-4.736-10.28-11.185-11.456a.598.598 0 0 1-.423-1.023.598.598 0 0 1 .423-.176C34.243 37.5 37.98 33.7 38.955 27.375a.6.6 0 0 1 .6-.51.598.598 0 0 1 .598.51c.964 6.33 4.79 10.143 11.377 11.324a.599.599 0 1 1-.054 1.2c-5.916.473-10.982 5.569-11.287 11.353a.6.6 0 0 1-.569.564l-.036.012Zm-9.167-12.53a13.332 13.332 0 0 1 5.694 3.335 13.353 13.353 0 0 1 3.401 5.658 14.054 14.054 0 0 1 9.138-9.04c-4.611-1.499-7.7-4.58-9.09-9.046-1.395 4.52-4.503 7.607-9.143 9.094Z"/><path fill="#fff" d="M81.181 24.797c-6.161.498-11.514 5.875-11.838 11.918-1.018-6.726-5.024-10.749-11.67-11.954 6.64-1.199 10.646-5.221 11.64-11.792 1 6.577 5.006 10.6 11.868 11.828Z"/><path fill="#093F68" d="M69.344 37.315a.599.599 0 0 1-.599-.51c-.976-6.433-4.736-10.287-11.185-11.456a.599.599 0 0 1 0-1.2c6.443-1.162 10.18-4.957 11.161-11.288a.6.6 0 1 1 1.198 0c.964 6.337 4.79 10.15 11.377 11.33a.6.6 0 0 1-.054 1.2c-5.916.473-10.982 5.563-11.287 11.348a.6.6 0 0 1-.6.6l-.011-.024ZM60.176 24.76a13.344 13.344 0 0 1 5.697 3.334 13.365 13.365 0 0 1 3.405 5.659 14.024 14.024 0 0 1 9.131-9.035c-4.61-1.505-7.7-4.58-9.09-9.046-1.394 4.532-4.502 7.626-9.143 9.088Z"/><path fill="#fff" d="M54.002 8.671c-3.755.3-7.024 3.597-7.216 7.266-.598-4.1-3.065-6.553-7.119-7.29 4.048-.731 6.49-3.183 7.102-7.194.604 4.017 3.041 6.469 7.233 7.218Z"/><path fill="#093F68" d="M46.817 16.518a.599.599 0 0 1-.599-.51c-.598-3.812-2.814-6.096-6.634-6.785a.599.599 0 0 1-.491-.6.6.6 0 0 1 .49-.6c3.821-.689 6.049-2.943 6.617-6.69a.6.6 0 0 1 .6-.51.599.599 0 0 1 .598.51c.599 3.753 2.838 5.995 6.748 6.715a.6.6 0 0 1-.06 1.198c-3.437.276-6.49 3.346-6.67 6.703a.6.6 0 0 1-.599.57Zm-4.886-7.883a8.215 8.215 0 0 1 4.844 4.796 8.878 8.878 0 0 1 4.868-4.796A8.22 8.22 0 0 1 46.8 3.839a8.178 8.178 0 0 1-4.898 4.814l.03-.018Z"/></svg>