<svg width="167" height="155" viewBox="0 0 167 155" fill="none" xmlns="http://www.w3.org/2000/svg">
<rect x="0.480469" y="0.551514" width="165.935" height="154.334" fill="#FFD234"/>
<path d="M133.438 74.5414L113.93 48.164C113.529 47.6203 113.005 47.1786 112.402 46.8745C111.799 46.5705 111.132 46.4126 110.457 46.4135H51.5487C50.8733 46.4126 50.2072 46.5705 49.6039 46.8745C49.0007 47.1786 48.4772 47.6203 48.0758 48.164L28.5674 74.5414V106.686C28.5674 108.435 29.2613 110.112 30.4966 111.349C31.7318 112.586 33.4071 113.28 35.154 113.28H126.864C128.611 113.28 130.286 112.586 131.521 111.349C132.756 110.112 133.45 108.435 133.45 106.686L133.438 74.5414Z" fill="#093F68"/>
<path d="M126.863 113.868H35.1415C33.2358 113.868 31.4082 113.11 30.0607 111.761C28.7131 110.412 27.9561 108.582 27.9561 106.674V74.5414C27.9544 74.4124 27.9943 74.2863 28.0699 74.1818L47.5783 47.8043C48.0375 47.1863 48.6343 46.6841 49.3214 46.3375C50.0085 45.991 50.7669 45.8097 51.5362 45.808H110.445C111.214 45.8097 111.972 45.991 112.659 46.3375C113.347 46.6841 113.943 47.1863 114.403 47.8043L133.911 74.1818C133.987 74.2863 134.026 74.4124 134.025 74.5414V106.686C134.022 108.588 133.266 110.411 131.924 111.757C130.582 113.102 128.763 113.861 126.863 113.868ZM29.1657 74.7393V106.686C29.1657 108.276 29.7965 109.801 30.9194 110.925C32.0424 112.049 33.5654 112.681 35.1535 112.681H126.863C128.451 112.681 129.974 112.049 131.097 110.925C132.22 109.801 132.851 108.276 132.851 106.686V74.7393L113.463 48.5117C113.115 48.0442 112.664 47.6642 112.144 47.4019C111.624 47.1397 111.051 47.0024 110.469 47.001H51.5482C50.9662 47.0024 50.3925 47.1397 49.8728 47.4019C49.3531 47.6642 48.9016 48.0442 48.5543 48.5117L29.1657 74.7393Z" fill="#093F68"/>
<path d="M133.438 74.5415V106.686C133.438 108.435 132.744 110.112 131.509 111.349C130.273 112.586 128.598 113.28 126.851 113.28H35.1413C33.3944 113.28 31.7191 112.586 30.4839 111.349C29.2486 110.112 28.5547 108.435 28.5547 106.686V74.5415H56.9431L59.6136 87.7302C59.8553 88.9155 60.4988 89.9808 61.435 90.7455C62.3713 91.5103 63.5428 91.9275 64.7512 91.9266H97.5885C98.8128 91.9255 99.9983 91.4968 100.941 90.7143C101.883 89.9318 102.523 88.8446 102.75 87.6402L105.217 74.5055L133.438 74.5415Z" fill="#1EBCC3"/>
<path d="M126.857 113.868H35.1415C33.2358 113.868 31.4081 113.11 30.0606 111.761C28.7131 110.412 27.9561 108.582 27.9561 106.674V74.5415C27.9561 74.3825 28.0191 74.23 28.1314 74.1176C28.2437 74.0051 28.396 73.942 28.5548 73.942H56.9432C57.0833 73.9391 57.2199 73.9856 57.3293 74.0732C57.4387 74.1608 57.514 74.2841 57.542 74.4216L60.2126 87.6103C60.4251 88.6625 60.9941 89.6089 61.8233 90.2894C62.6525 90.97 63.6911 91.3429 64.7633 91.3451H97.6007C98.6853 91.3441 99.7355 90.9637 100.57 90.2697C101.404 89.5757 101.97 88.6117 102.169 87.5443L104.636 74.4096C104.663 74.271 104.738 74.1464 104.847 74.0575C104.957 73.9687 105.094 73.9214 105.235 73.924H133.444C133.603 73.924 133.755 73.9871 133.867 74.0996C133.98 74.212 134.043 74.3645 134.043 74.5235V106.668C134.043 107.613 133.858 108.549 133.497 109.423C133.137 110.296 132.608 111.09 131.94 111.759C131.273 112.427 130.481 112.958 129.608 113.32C128.736 113.682 127.801 113.868 126.857 113.868ZM29.1656 75.1409V106.686C29.1656 108.276 29.7965 109.801 30.9194 110.925C32.0423 112.049 33.5654 112.681 35.1534 112.681H126.857C128.445 112.681 129.968 112.049 131.091 110.925C132.214 109.801 132.845 108.276 132.845 106.686V75.1409H105.726L103.331 87.7841C103.082 89.1294 102.371 90.3453 101.322 91.2211C100.272 92.097 98.9492 92.5777 97.5827 92.58H64.7633C63.415 92.5779 62.1088 92.1095 61.0657 91.2542C60.0226 90.3989 59.3067 89.209 59.0389 87.886L56.4522 75.1409H29.1656Z" fill="#093F68"/>
<path d="M51.6021 100.182H39.8419C39.6831 100.182 39.5308 100.118 39.4185 100.006C39.3062 99.8935 39.2432 99.741 39.2432 99.582C39.2432 99.423 39.3062 99.2706 39.4185 99.1581C39.5308 99.0457 39.6831 98.9825 39.8419 98.9825H51.6021C51.7609 98.9825 51.9132 99.0457 52.0255 99.1581C52.1378 99.2706 52.2009 99.423 52.2009 99.582C52.2009 99.741 52.1378 99.8935 52.0255 100.006C51.9132 100.118 51.7609 100.182 51.6021 100.182Z" fill="#093F68"/>
<path d="M136.953 95.6014H102.469C101.182 95.6014 100.14 96.6455 100.14 97.9334V113.706C100.14 114.994 101.182 116.038 102.469 116.038H136.953C138.239 116.038 139.282 114.994 139.282 113.706V97.9334C139.282 96.6455 138.239 95.6014 136.953 95.6014Z" fill="white"/>
<path d="M136.953 116.643H102.469C101.693 116.642 100.949 116.332 100.4 115.783C99.8516 115.234 99.5426 114.489 99.541 113.712V97.9333C99.5426 97.1563 99.8516 96.4116 100.4 95.8622C100.949 95.3128 101.693 95.0034 102.469 95.0018H136.953C137.729 95.0034 138.473 95.3128 139.022 95.8622C139.571 96.4116 139.88 97.1563 139.881 97.9333V113.712C139.88 114.489 139.571 115.234 139.022 115.783C138.473 116.332 137.729 116.642 136.953 116.643ZM102.469 96.2008C102.01 96.2008 101.57 96.3833 101.245 96.7082C100.921 97.0332 100.739 97.4738 100.739 97.9333V113.712C100.739 114.171 100.921 114.612 101.245 114.937C101.57 115.262 102.01 115.444 102.469 115.444H136.953C137.412 115.443 137.851 115.26 138.175 114.935C138.499 114.611 138.682 114.171 138.684 113.712V97.9333C138.682 97.4743 138.499 97.0346 138.175 96.71C137.851 96.3854 137.412 96.2024 136.953 96.2008H102.469Z" fill="#093F68"/>
<path d="M112.187 103.521C112.043 103.346 111.86 103.206 111.654 103.113C111.42 103.013 111.166 102.964 110.912 102.969C110.644 102.966 110.378 103.022 110.133 103.131C109.904 103.239 109.7 103.394 109.534 103.586C109.353 103.787 109.213 104.022 109.121 104.276C108.93 104.842 108.93 105.455 109.121 106.02C109.215 106.273 109.353 106.506 109.528 106.71C109.695 106.899 109.899 107.052 110.127 107.159C110.362 107.268 110.617 107.323 110.876 107.321C111.156 107.328 111.434 107.264 111.684 107.135C111.926 107.009 112.131 106.823 112.283 106.596L113.522 107.525C113.247 107.915 112.87 108.222 112.433 108.412C112.006 108.601 111.545 108.699 111.079 108.7C110.581 108.705 110.086 108.62 109.618 108.448C109.191 108.294 108.799 108.053 108.469 107.741C108.137 107.426 107.878 107.044 107.708 106.62C107.341 105.673 107.341 104.623 107.708 103.676C107.877 103.252 108.136 102.869 108.469 102.555C108.799 102.241 109.19 101.998 109.618 101.842C110.087 101.676 110.582 101.592 111.079 101.596C111.28 101.597 111.48 101.615 111.678 101.65C111.883 101.684 112.083 101.738 112.277 101.812C112.488 101.89 112.689 101.992 112.876 102.118C113.061 102.251 113.228 102.408 113.373 102.585L112.187 103.521Z" fill="#093F68"/>
<path d="M114.146 101.308H115.577V108.502H114.146V101.308Z" fill="#093F68"/>
<path d="M120.996 107.723C120.766 108.016 120.468 108.249 120.128 108.4C119.786 108.559 119.414 108.641 119.038 108.64C118.695 108.643 118.355 108.586 118.032 108.472C117.73 108.362 117.452 108.195 117.211 107.981C116.978 107.764 116.792 107.5 116.667 107.208C116.532 106.891 116.463 106.55 116.463 106.206C116.463 105.862 116.532 105.522 116.667 105.205C116.791 104.913 116.977 104.652 117.211 104.438C117.449 104.22 117.728 104.052 118.032 103.946C118.354 103.828 118.695 103.769 119.038 103.772C119.348 103.767 119.656 103.826 119.942 103.946C120.205 104.054 120.439 104.222 120.625 104.438C120.822 104.66 120.971 104.922 121.062 105.205C121.166 105.528 121.217 105.867 121.211 106.206V106.656H117.894C117.94 106.91 118.071 107.14 118.265 107.309C118.463 107.475 118.714 107.563 118.972 107.555C119.183 107.563 119.392 107.507 119.571 107.393C119.737 107.289 119.882 107.152 119.996 106.992L120.996 107.723ZM119.798 105.685C119.802 105.462 119.718 105.247 119.565 105.085C119.482 105 119.382 104.933 119.272 104.888C119.161 104.844 119.043 104.823 118.924 104.828C118.655 104.824 118.395 104.92 118.193 105.097C118.109 105.176 118.041 105.272 117.996 105.379C117.946 105.482 117.918 105.594 117.912 105.709L119.798 105.685Z" fill="#093F68"/>
<path d="M124.99 107.945C124.838 108.184 124.616 108.37 124.355 108.478C123.89 108.666 123.375 108.691 122.894 108.55C122.703 108.495 122.524 108.403 122.367 108.281C122.212 108.161 122.087 108.007 122.002 107.831C121.913 107.644 121.868 107.439 121.87 107.231C121.862 106.997 121.914 106.764 122.02 106.554C122.112 106.37 122.25 106.213 122.421 106.098C122.603 105.972 122.806 105.876 123.02 105.817C123.238 105.748 123.463 105.698 123.69 105.667C123.921 105.637 124.153 105.619 124.385 105.613H125.031C125.035 105.499 125.013 105.386 124.967 105.282C124.92 105.178 124.85 105.086 124.762 105.013C124.58 104.863 124.351 104.782 124.115 104.786C123.893 104.785 123.674 104.836 123.475 104.935C123.276 105.036 123.099 105.175 122.954 105.343L122.187 104.558C122.458 104.311 122.776 104.122 123.121 104C123.477 103.876 123.852 103.813 124.229 103.814C124.581 103.805 124.932 103.858 125.265 103.97C125.518 104.064 125.741 104.223 125.912 104.432C126.081 104.653 126.197 104.909 126.253 105.181C126.319 105.521 126.351 105.866 126.349 106.212V108.568H125.031L124.99 107.945ZM124.636 106.494H124.229C124.071 106.504 123.914 106.532 123.762 106.578C123.623 106.614 123.494 106.682 123.385 106.776C123.331 106.821 123.289 106.879 123.261 106.943C123.233 107.007 123.22 107.077 123.223 107.148C123.221 107.226 123.24 107.303 123.279 107.371C123.318 107.439 123.376 107.494 123.445 107.531C123.582 107.613 123.74 107.657 123.9 107.657C124.038 107.659 124.175 107.638 124.307 107.597C124.431 107.564 124.549 107.509 124.654 107.435C124.762 107.366 124.849 107.27 124.908 107.156C124.967 107.043 124.995 106.916 124.99 106.788V106.482L124.636 106.494Z" fill="#093F68"/>
<path d="M127.198 103.862H128.575V104.492C128.624 104.393 128.689 104.304 128.767 104.228C128.852 104.134 128.951 104.053 129.06 103.988C129.322 103.829 129.623 103.746 129.929 103.748C130.231 103.735 130.533 103.792 130.809 103.916C131.022 104.018 131.203 104.178 131.33 104.378C131.455 104.592 131.541 104.828 131.581 105.073C131.626 105.361 131.648 105.652 131.647 105.943V108.502H130.216V106.26C130.216 106.128 130.216 105.99 130.216 105.847C130.206 105.711 130.176 105.578 130.126 105.451C130.083 105.333 130.008 105.23 129.911 105.151C129.787 105.082 129.645 105.05 129.504 105.061C129.348 105.055 129.193 105.09 129.054 105.163C128.944 105.225 128.853 105.317 128.791 105.427C128.729 105.545 128.688 105.673 128.671 105.805C128.662 105.952 128.662 106.101 128.671 106.248V108.556H127.24L127.198 103.862Z" fill="#093F68"/>
<path d="M78.4214 61.2988C72.2599 61.7903 66.9067 67.1677 66.5834 73.2106C65.5655 66.4903 61.5596 62.4618 54.9131 61.2568C61.5536 60.0578 65.5595 56.0353 66.5535 49.4709C67.5534 56.0652 71.5593 60.0998 78.4214 61.2988Z" fill="white"/>
<path d="M66.584 73.828C66.4396 73.8297 66.2995 73.779 66.1895 73.6853C66.0794 73.5917 66.0069 73.4614 65.9852 73.3185C65.0092 66.886 61.2489 63.0373 54.8 61.8623C54.6411 61.8623 54.4888 61.7991 54.3766 61.6867C54.2643 61.5743 54.2012 61.4218 54.2012 61.2628C54.2012 61.1038 54.2643 60.9513 54.3766 60.8389C54.4888 60.7265 54.6411 60.6633 54.8 60.6633C61.2429 59.5003 64.9793 55.6995 65.9553 49.375C65.977 49.232 66.0495 49.1017 66.1595 49.0081C66.2696 48.9144 66.4097 48.8638 66.5541 48.8654C66.6985 48.8638 66.8386 48.9144 66.9487 49.0081C67.0587 49.1017 67.1312 49.232 67.1529 49.375C68.1169 55.7055 71.9431 59.5183 78.5298 60.6993C78.6886 60.7064 78.838 60.7764 78.9453 60.8939C79.0525 61.0114 79.1088 61.1667 79.1016 61.3257C79.0945 61.4847 79.0245 61.6344 78.9072 61.7417C78.7898 61.8491 78.6347 61.9054 78.4759 61.8982C72.5599 62.3718 67.4942 67.4675 67.1888 73.2525C67.1801 73.4002 67.1172 73.5394 67.0122 73.6434C66.9072 73.7474 66.7675 73.8089 66.62 73.816L66.584 73.828ZM57.4166 61.2987C59.5636 61.9151 61.5216 63.0615 63.1108 64.6327C64.7 66.2038 65.8696 68.1495 66.5122 70.291C67.2065 68.1648 68.3979 66.2353 69.9872 64.6629C71.5765 63.0905 73.5178 61.9207 75.6496 61.2508C71.039 59.7521 67.9493 56.6707 66.5601 52.2045C65.1649 56.7247 62.0572 59.812 57.4166 61.2987Z" fill="#093F68"/>
<path d="M108.181 46.7972C102.02 47.2947 96.6665 52.6721 96.3432 58.715C95.3252 51.9887 91.3194 47.9662 84.6729 46.7612C91.3134 45.5622 95.3192 41.5397 96.3132 34.9693C97.3132 41.5457 101.319 45.5682 108.181 46.7972Z" fill="white"/>
<path d="M96.3438 59.3145C96.1994 59.3161 96.0593 59.2654 95.9492 59.1718C95.8392 59.0781 95.7667 58.9478 95.745 58.8049C94.769 52.3724 91.0086 48.5177 84.5597 47.3487C84.4009 47.3487 84.2486 47.2855 84.1363 47.1731C84.024 47.0607 83.9609 46.9082 83.9609 46.7492C83.9609 46.5902 84.024 46.4377 84.1363 46.3253C84.2486 46.2129 84.4009 46.1497 84.5597 46.1497C91.0026 44.9867 94.7391 41.192 95.7211 34.8614C95.7211 34.7024 95.7841 34.5499 95.8964 34.4375C96.0087 34.3251 96.161 34.2619 96.3198 34.2619C96.4787 34.2619 96.631 34.3251 96.7432 34.4375C96.8555 34.5499 96.9186 34.7024 96.9186 34.8614C97.8827 41.198 101.709 45.0107 108.296 46.1917C108.454 46.1988 108.604 46.2689 108.711 46.3863C108.818 46.5038 108.875 46.6592 108.867 46.8182C108.86 46.9771 108.79 47.1268 108.673 47.2341C108.556 47.3415 108.4 47.3978 108.242 47.3907C102.326 47.8643 97.2599 52.9539 96.9546 58.7389C96.9546 58.8979 96.8915 59.0504 96.7792 59.1628C96.6669 59.2753 96.5146 59.3384 96.3558 59.3384L96.3438 59.3145ZM87.1764 46.7612C89.324 47.3777 91.2826 48.524 92.8728 50.0951C94.463 51.6662 95.6338 53.6118 96.2779 55.7535C96.9703 53.6278 98.1604 51.6988 99.7489 50.1272C101.337 48.5556 103.278 47.3872 105.409 46.7192C100.799 45.2145 97.709 42.1392 96.3198 37.673C94.9247 42.2051 91.817 45.2985 87.1764 46.7612Z" fill="#093F68"/>
<path d="M81.0019 30.671C77.2475 30.9708 73.9781 34.2679 73.7865 37.9368C73.1878 33.8363 70.7208 31.3844 66.667 30.647C70.7148 29.9157 73.1578 27.4638 73.7686 23.4532C74.3733 27.4697 76.8104 29.9217 81.0019 30.671Z" fill="white"/>
<path d="M73.8172 38.5183C73.6728 38.5199 73.5326 38.4692 73.4226 38.3756C73.3126 38.282 73.24 38.1517 73.2184 38.0087C72.6196 34.196 70.4041 31.9119 66.5839 31.2225C66.4444 31.197 66.3184 31.1227 66.2285 31.0129C66.1386 30.9032 66.0905 30.765 66.0929 30.623C66.0905 30.4811 66.1386 30.3429 66.2285 30.2331C66.3184 30.1233 66.4444 30.0491 66.5839 30.0235C70.4041 29.3341 72.6316 27.0801 73.2004 23.3333C73.2221 23.1903 73.2946 23.06 73.4046 22.9664C73.5147 22.8727 73.6548 22.8221 73.7992 22.8237C73.9436 22.8221 74.0837 22.8727 74.1938 22.9664C74.3038 23.06 74.3763 23.1903 74.398 23.3333C74.9968 27.0861 77.2362 29.3281 81.1463 30.0475C81.3051 30.0555 81.4542 30.1263 81.5609 30.2443C81.6676 30.3624 81.7231 30.518 81.7151 30.677C81.7072 30.836 81.6365 30.9853 81.5186 31.0921C81.4007 31.1989 81.2452 31.2544 81.0864 31.2465C77.6494 31.5223 74.5956 34.5916 74.416 37.9488C74.4083 38.1025 74.3418 38.2474 74.2303 38.3534C74.1189 38.4594 73.9709 38.5185 73.8172 38.5183ZM68.9311 30.635C70.0342 31.041 71.0374 31.6792 71.8731 32.5065C72.7088 33.3339 73.3574 34.3311 73.7752 35.4309C74.2298 34.349 74.8941 33.3681 75.7297 32.545C76.5653 31.7218 77.5556 31.0726 78.6434 30.635C77.5405 30.2287 76.5374 29.5904 75.7018 28.7631C74.8661 27.9358 74.2174 26.9387 73.7992 25.8391C73.3806 26.9493 72.7256 27.9549 71.8798 28.7862C71.034 29.6175 70.0176 30.2545 68.9011 30.653L68.9311 30.635Z" fill="#093F68"/>
</svg>
