<svg width="200" height="187" viewBox="0 0 200 187" fill="none" xmlns="http://www.w3.org/2000/svg">
<rect x="0.0206299" y="0.785278" width="199.813" height="185.844" fill="#1EBCC3"/>
<path d="M160.124 89.8814L136.632 58.1186C136.149 57.4639 135.518 56.932 134.792 56.5659C134.066 56.1997 133.263 56.0096 132.45 56.0107H61.5147C60.7014 56.0096 59.8993 56.1997 59.1729 56.5659C58.4465 56.932 57.8161 57.4639 57.3327 58.1186L33.8414 89.8814V128.589C33.8414 130.695 34.677 132.714 36.1644 134.204C37.6518 135.693 39.6692 136.529 41.7728 136.529H152.207C154.31 136.529 156.327 135.693 157.815 134.204C159.302 132.714 160.138 130.695 160.138 128.589L160.124 89.8814Z" fill="#093F68"/>
<path d="M152.207 137.237H41.7583C39.4635 137.237 37.2628 136.324 35.6401 134.7C34.0175 133.075 33.1059 130.872 33.1059 128.574V89.8814C33.1038 89.7261 33.1518 89.5742 33.2429 89.4483L56.7342 57.6855C57.2871 56.9413 58.0059 56.3365 58.8332 55.9192C59.6606 55.5019 60.5738 55.2836 61.5002 55.2817H132.436C133.362 55.2836 134.275 55.5019 135.103 55.9192C135.93 56.3365 136.649 56.9413 137.202 57.6855L160.693 89.4483C160.784 89.5742 160.832 89.7261 160.83 89.8814V128.589C160.826 130.879 159.917 133.074 158.301 134.695C156.685 136.315 154.494 137.229 152.207 137.237ZM34.5624 90.1197V128.589C34.5624 130.503 35.322 132.339 36.6742 133.693C38.0264 135.047 39.8604 135.808 41.7727 135.808H152.207C154.119 135.808 155.953 135.047 157.305 133.693C158.657 132.339 159.417 130.503 159.417 128.589V90.1197L136.07 58.5374C135.651 57.9744 135.108 57.5168 134.482 57.201C133.856 56.8852 133.165 56.7199 132.465 56.7182H61.5147C60.8138 56.7199 60.1231 56.8852 59.4972 57.201C58.8714 57.5168 58.3277 57.9744 57.9095 58.5374L34.5624 90.1197Z" fill="#093F68"/>
<path d="M160.124 89.8814V128.589C160.124 130.695 159.288 132.714 157.8 134.204C156.313 135.693 154.296 136.529 152.192 136.529H41.7584C39.6548 136.529 37.6374 135.693 36.15 134.204C34.6626 132.714 33.827 130.695 33.827 128.589V89.8814H68.0113L71.2271 105.763C71.5181 107.19 72.2929 108.473 73.4204 109.394C74.5478 110.315 75.9585 110.817 77.4136 110.816H116.955C118.429 110.815 119.857 110.298 120.992 109.356C122.126 108.414 122.897 107.105 123.17 105.655L126.141 89.8381L160.124 89.8814Z" fill="#FFC700"/>
<path d="M152.199 137.237H41.7582C39.4635 137.237 37.2627 136.324 35.64 134.7C34.0174 133.075 33.1058 130.872 33.1058 128.574V89.8814C33.1058 89.69 33.1818 89.5064 33.317 89.371C33.4522 89.2356 33.6356 89.1596 33.8268 89.1596H68.0111C68.1798 89.1562 68.3443 89.2121 68.4761 89.3176C68.6078 89.4231 68.6985 89.5716 68.7322 89.7371L71.948 105.618C72.2039 106.885 72.889 108.025 73.8876 108.845C74.8861 109.664 76.1367 110.113 77.4278 110.116H116.969C118.276 110.115 119.54 109.657 120.545 108.821C121.549 107.985 122.231 106.824 122.471 105.539L125.442 89.7226C125.474 89.5558 125.564 89.4057 125.696 89.2987C125.828 89.1918 125.993 89.1348 126.163 89.1379H160.131C160.322 89.1379 160.505 89.214 160.64 89.3493C160.776 89.4847 160.852 89.6683 160.852 89.8598V128.567C160.853 129.705 160.629 130.832 160.195 131.884C159.761 132.936 159.123 133.892 158.32 134.697C157.516 135.502 156.562 136.141 155.512 136.577C154.462 137.013 153.336 137.237 152.199 137.237ZM34.5623 90.6033V128.589C34.5623 130.503 35.322 132.339 36.6742 133.693C38.0264 135.047 39.8603 135.808 41.7726 135.808H152.199C154.112 135.808 155.945 135.047 157.298 133.693C158.65 132.339 159.41 130.503 159.41 128.589V90.6033H126.754L123.87 105.828C123.57 107.448 122.714 108.912 121.45 109.967C120.186 111.021 118.593 111.6 116.948 111.603H77.4278C75.8043 111.6 74.2314 111.036 72.9753 110.006C71.7193 108.976 70.8571 107.544 70.5348 105.951L67.4199 90.6033H34.5623Z" fill="#093F68"/>
<path d="M61.5796 120.756H47.4185C47.2273 120.756 47.0439 120.68 46.9086 120.545C46.7734 120.409 46.6974 120.226 46.6974 120.034C46.6974 119.843 46.7734 119.659 46.9086 119.524C47.0439 119.389 47.2273 119.313 47.4185 119.313H61.5796C61.7709 119.313 61.9542 119.389 62.0895 119.524C62.2247 119.659 62.3007 119.843 62.3007 120.034C62.3007 120.226 62.2247 120.409 62.0895 120.545C61.9542 120.68 61.7709 120.756 61.5796 120.756Z" fill="#093F68"/>
<path d="M164.356 115.241H122.831C121.282 115.241 120.027 116.498 120.027 118.049V137.042C120.027 138.593 121.282 139.85 122.831 139.85H164.356C165.905 139.85 167.161 138.593 167.161 137.042V118.049C167.161 116.498 165.905 115.241 164.356 115.241Z" fill="white"/>
<path d="M164.356 140.579H122.831C121.897 140.577 121.001 140.205 120.34 139.543C119.679 138.881 119.307 137.985 119.305 137.049V118.049C119.307 117.114 119.679 116.217 120.34 115.555C121.001 114.894 121.897 114.521 122.831 114.519H164.356C165.29 114.521 166.186 114.894 166.847 115.555C167.508 116.217 167.88 117.114 167.882 118.049V137.049C167.88 137.985 167.508 138.881 166.847 139.543C166.186 140.205 165.29 140.577 164.356 140.579ZM122.831 115.963C122.279 115.963 121.749 116.183 121.358 116.574C120.967 116.965 120.748 117.496 120.748 118.049V137.049C120.748 137.602 120.967 138.133 121.358 138.524C121.749 138.916 122.279 139.135 122.831 139.135H164.356C164.908 139.133 165.437 138.913 165.827 138.522C166.218 138.131 166.438 137.602 166.44 137.049V118.049C166.438 117.496 166.218 116.967 165.827 116.576C165.437 116.185 164.908 115.965 164.356 115.963H122.831Z" fill="#093F68"/>
<path d="M134.534 124.777C134.36 124.567 134.141 124.399 133.892 124.286C133.61 124.166 133.305 124.107 132.998 124.113C132.675 124.11 132.356 124.176 132.061 124.308C131.785 124.438 131.539 124.625 131.34 124.857C131.122 125.098 130.953 125.38 130.842 125.687C130.612 126.368 130.612 127.106 130.842 127.787C130.955 128.091 131.121 128.372 131.333 128.618C131.534 128.845 131.779 129.029 132.054 129.159C132.336 129.29 132.644 129.356 132.955 129.354C133.293 129.362 133.628 129.285 133.928 129.13C134.219 128.977 134.467 128.754 134.649 128.48L136.142 129.599C135.811 130.069 135.357 130.439 134.83 130.668C134.317 130.895 133.762 131.013 133.2 131.014C132.6 131.02 132.004 130.917 131.441 130.711C130.926 130.525 130.455 130.235 130.056 129.859C129.658 129.48 129.345 129.02 129.141 128.509C128.698 127.369 128.698 126.105 129.141 124.965C129.344 124.453 129.656 123.993 130.056 123.615C130.454 123.237 130.925 122.944 131.441 122.756C132.006 122.555 132.601 122.455 133.2 122.46C133.442 122.461 133.683 122.483 133.921 122.525C134.167 122.566 134.409 122.631 134.642 122.72C134.896 122.813 135.138 122.937 135.363 123.088C135.586 123.249 135.788 123.438 135.962 123.651L134.534 124.777Z" fill="#093F68"/>
<path d="M136.892 122.113H138.615V130.776H136.892V122.113Z" fill="#093F68"/>
<path d="M145.14 129.838C144.863 130.19 144.504 130.47 144.095 130.653C143.684 130.844 143.236 130.943 142.783 130.942C142.37 130.945 141.96 130.877 141.571 130.74C141.208 130.607 140.873 130.406 140.584 130.148C140.302 129.887 140.079 129.57 139.927 129.217C139.766 128.835 139.682 128.425 139.682 128.011C139.682 127.597 139.766 127.187 139.927 126.806C140.077 126.454 140.301 126.139 140.584 125.882C140.869 125.619 141.205 125.417 141.571 125.29C141.959 125.147 142.37 125.076 142.783 125.08C143.156 125.074 143.527 125.145 143.871 125.29C144.188 125.419 144.47 125.622 144.693 125.882C144.931 126.15 145.11 126.464 145.22 126.806C145.346 127.195 145.407 127.602 145.4 128.011V128.553H141.406C141.461 128.858 141.618 129.136 141.853 129.339C142.09 129.539 142.393 129.644 142.703 129.635C142.958 129.645 143.209 129.577 143.424 129.441C143.625 129.314 143.799 129.15 143.936 128.957L145.14 129.838ZM143.698 127.383C143.703 127.115 143.602 126.855 143.417 126.661C143.317 126.558 143.197 126.478 143.064 126.424C142.931 126.371 142.789 126.346 142.646 126.351C142.322 126.346 142.009 126.462 141.766 126.676C141.664 126.771 141.583 126.886 141.528 127.015C141.468 127.139 141.434 127.274 141.427 127.412L143.698 127.383Z" fill="#093F68"/>
<path d="M149.95 130.105C149.767 130.393 149.5 130.617 149.185 130.747C148.625 130.973 148.006 131.003 147.426 130.834C147.196 130.767 146.98 130.656 146.791 130.509C146.605 130.365 146.455 130.179 146.352 129.967C146.245 129.742 146.191 129.495 146.193 129.246C146.184 128.963 146.246 128.682 146.373 128.43C146.485 128.209 146.651 128.02 146.856 127.881C147.076 127.728 147.32 127.614 147.577 127.542C147.841 127.459 148.111 127.399 148.385 127.361C148.663 127.326 148.942 127.304 149.221 127.297H150C150.005 127.159 149.978 127.023 149.922 126.898C149.866 126.773 149.781 126.662 149.676 126.575C149.457 126.394 149.181 126.296 148.897 126.3C148.629 126.299 148.365 126.361 148.125 126.481C147.886 126.602 147.673 126.769 147.498 126.972L146.575 126.026C146.901 125.729 147.284 125.501 147.7 125.355C148.129 125.205 148.58 125.129 149.034 125.131C149.458 125.12 149.88 125.183 150.281 125.319C150.585 125.432 150.854 125.623 151.06 125.874C151.264 126.14 151.404 126.449 151.471 126.777C151.55 127.186 151.589 127.602 151.586 128.018V130.855H150L149.95 130.105ZM149.524 128.358H149.034C148.843 128.369 148.654 128.403 148.472 128.459C148.304 128.503 148.149 128.584 148.017 128.697C147.953 128.752 147.902 128.821 147.868 128.898C147.834 128.976 147.819 129.06 147.823 129.145C147.82 129.239 147.843 129.332 147.89 129.414C147.937 129.495 148.006 129.562 148.089 129.607C148.255 129.705 148.444 129.757 148.637 129.758C148.804 129.76 148.969 129.736 149.128 129.686C149.277 129.646 149.419 129.58 149.546 129.491C149.675 129.408 149.781 129.292 149.852 129.155C149.923 129.018 149.956 128.865 149.95 128.711V128.343L149.524 128.358Z" fill="#093F68"/>
<path d="M152.61 125.189H154.269V125.947C154.327 125.828 154.405 125.721 154.499 125.629C154.602 125.516 154.721 125.418 154.853 125.34C155.168 125.149 155.53 125.049 155.898 125.051C156.262 125.035 156.625 125.104 156.958 125.254C157.215 125.376 157.433 125.569 157.585 125.809C157.737 126.068 157.839 126.352 157.888 126.647C157.942 126.993 157.968 127.343 157.968 127.694V130.776H156.244V128.076C156.244 127.917 156.244 127.751 156.244 127.578C156.232 127.415 156.196 127.254 156.136 127.102C156.084 126.96 155.994 126.835 155.877 126.741C155.727 126.657 155.557 126.619 155.386 126.632C155.198 126.625 155.012 126.668 154.846 126.755C154.713 126.83 154.603 126.94 154.528 127.073C154.454 127.214 154.405 127.369 154.384 127.528C154.373 127.705 154.373 127.884 154.384 128.062V130.841H152.661L152.61 125.189Z" fill="#093F68"/>
<path d="M93.8746 73.935C86.4551 74.527 80.0091 81.0023 79.6197 88.2788C78.394 80.1865 73.5702 75.3355 65.5667 73.8845C73.563 72.4407 78.3868 67.5969 79.5837 59.6923C80.7878 67.633 85.6115 72.4913 93.8746 73.935Z" fill="white"/>
<path d="M79.6198 89.0223C79.446 89.0243 79.2772 88.9633 79.1447 88.8505C79.0122 88.7378 78.9249 88.5809 78.8988 88.4087C77.7235 80.6629 73.1954 76.0285 65.4299 74.6136C65.2386 74.6136 65.0552 74.5375 64.92 74.4021C64.7848 74.2668 64.7088 74.0831 64.7088 73.8917C64.7088 73.7002 64.7848 73.5166 64.92 73.3812C65.0552 73.2459 65.2386 73.1698 65.4299 73.1698C73.1882 71.7694 77.6875 67.1926 78.8628 59.5768C78.8888 59.4046 78.9762 59.2477 79.1087 59.135C79.2412 59.0222 79.4099 58.9612 79.5838 58.9632C79.7577 58.9612 79.9264 59.0222 80.0589 59.135C80.1914 59.2477 80.2787 59.4046 80.3048 59.5768C81.4657 67.1998 86.0731 71.791 94.0045 73.2131C94.1957 73.2217 94.3757 73.3061 94.5048 73.4475C94.634 73.589 94.7017 73.776 94.6931 73.9675C94.6845 74.1589 94.6003 74.3391 94.459 74.4684C94.3177 74.5977 94.1308 74.6655 93.9396 74.6569C86.8158 75.2272 80.7158 81.3632 80.3481 88.3293C80.3376 88.5071 80.2619 88.6747 80.1354 88.8C80.009 88.9252 79.8408 88.9993 79.6631 89.0079L79.6198 89.0223ZM68.5808 73.935C71.1661 74.6772 73.5238 76.0576 75.4375 77.9496C77.3512 79.8415 78.7595 82.1844 79.5333 84.7632C80.3694 82.2029 81.8041 79.8794 83.7178 77.986C85.6316 76.0925 87.9692 74.6839 90.5363 73.8772C84.9843 72.0725 81.2638 68.3621 79.591 62.9841C77.911 68.427 74.1688 72.1447 68.5808 73.935Z" fill="#093F68"/>
<path d="M129.71 56.4727C122.291 57.0719 115.845 63.5471 115.455 70.8237C114.23 62.7242 109.406 57.8804 101.402 56.4294C109.399 54.9856 114.222 50.1418 115.419 42.23C116.623 50.149 121.447 54.9928 129.71 56.4727Z" fill="white"/>
<path d="M115.456 71.5456C115.282 71.5476 115.113 71.4865 114.98 71.3738C114.848 71.261 114.761 71.1041 114.735 70.932C113.559 63.1862 109.031 58.5445 101.266 57.1368C101.074 57.1368 100.891 57.0608 100.756 56.9254C100.621 56.79 100.545 56.6064 100.545 56.415C100.545 56.2235 100.621 56.0399 100.756 55.9045C100.891 55.7691 101.074 55.6931 101.266 55.6931C109.024 54.2926 113.523 49.7231 114.706 42.1001C114.706 41.9086 114.782 41.725 114.917 41.5896C115.052 41.4542 115.235 41.3782 115.427 41.3782C115.618 41.3782 115.801 41.4542 115.937 41.5896C116.072 41.725 116.148 41.9086 116.148 42.1001C117.309 49.7303 121.916 54.3215 129.847 55.7436C130.039 55.7522 130.219 55.8365 130.348 55.978C130.477 56.1195 130.545 56.3065 130.536 56.498C130.527 56.6894 130.443 56.8696 130.302 56.9989C130.161 57.1282 129.974 57.196 129.783 57.1874C122.659 57.7577 116.559 63.8864 116.191 70.8526C116.191 71.044 116.115 71.2277 115.98 71.363C115.845 71.4984 115.661 71.5745 115.47 71.5745L115.456 71.5456ZM104.417 56.4294C107.003 57.1717 109.361 58.5521 111.276 60.4439C113.191 62.3358 114.601 64.6786 115.376 67.2576C116.21 64.698 117.643 62.375 119.556 60.4826C121.469 58.5902 123.806 57.1832 126.372 56.3789C120.82 54.5669 117.1 50.8637 115.427 45.4857C113.747 50.9431 110.005 54.668 104.417 56.4294Z" fill="#093F68"/>
<path d="M96.9823 37.0541C92.4614 37.4151 88.5245 41.3854 88.2938 45.8033C87.5727 40.8657 84.6021 37.9132 79.7207 37.0252C84.5949 36.1446 87.5367 33.1921 88.2722 28.3627C89.0004 33.1993 91.935 36.1518 96.9823 37.0541Z" fill="white"/>
<path d="M88.3298 46.5036C88.1559 46.5055 87.9872 46.4445 87.8547 46.3318C87.7222 46.219 87.6348 46.0621 87.6088 45.89C86.8877 41.2988 84.2199 38.5484 79.6197 37.7183C79.4517 37.6875 79.3001 37.5981 79.1918 37.4659C79.0836 37.3337 79.0257 37.1673 79.0284 36.9964C79.0257 36.8255 79.0836 36.6591 79.1918 36.5269C79.3001 36.3947 79.4517 36.3053 79.6197 36.2745C84.2199 35.4444 86.9021 32.7301 87.5871 28.2183C87.6132 28.0462 87.7005 27.8893 87.833 27.7765C87.9655 27.6638 88.1343 27.6028 88.3082 27.6047C88.4821 27.6028 88.6508 27.6638 88.7833 27.7765C88.9158 27.8893 89.0031 28.0462 89.0292 28.2183C89.7502 32.7373 92.4469 35.4371 97.1553 36.3034C97.3465 36.313 97.5261 36.3982 97.6546 36.5403C97.783 36.6825 97.8498 36.8699 97.8403 37.0614C97.8307 37.2528 97.7456 37.4326 97.6036 37.5612C97.4616 37.6899 97.2744 37.7567 97.0832 37.7472C92.9444 38.0792 89.2671 41.7753 89.0508 45.8178C89.0416 46.0029 88.9615 46.1774 88.8273 46.3051C88.6931 46.4327 88.5149 46.5038 88.3298 46.5036ZM82.4461 37.0108C83.7745 37.4997 84.9826 38.2682 85.9888 39.2645C86.9951 40.2607 87.7762 41.4616 88.2793 42.7859C88.8267 41.4831 89.6266 40.302 90.6328 39.3107C91.6389 38.3194 92.8315 37.5377 94.1413 37.0108C92.8133 36.5216 91.6054 35.7529 90.5992 34.7567C89.5929 33.7605 88.8117 32.5599 88.3082 31.2358C87.8041 32.5726 87.0154 33.7835 85.9969 34.7845C84.9784 35.7855 83.7544 36.5526 82.4101 37.0325L82.4461 37.0108Z" fill="#093F68"/>
</svg>
