<svg width="230" height="292" fill="none" xmlns="http://www.w3.org/2000/svg"><path d="M108.263 291.099c52.713 0 95.444-3.629 95.444-8.105 0-4.476-42.731-8.105-95.444-8.105-52.712 0-95.444 3.629-95.444 8.105 0 4.476 42.732 8.105 95.444 8.105Z" fill="#D1D3D4"/><path d="M63.229 84.501h-12.01v198.505h12.01V84.502Z" fill="#fff"/><path d="M63.23 283.551H51.22a.559.559 0 0 1-.557-.557V84.501a.557.557 0 0 1 .557-.557h12.01a.546.546 0 0 1 .544.557v198.481a.547.547 0 0 1-.545.569Zm-11.453-1.102h10.895V85.047H51.777v197.402Z" fill="#231F20"/><path d="M63.229 136.826h-12.01v32.856h12.01v-32.856Z" fill="#231F20"/><path d="M63.228 170.215H51.22a.532.532 0 0 1-.532-.533v-32.856a.534.534 0 0 1 .532-.533h12.01a.532.532 0 0 1 .532.533v32.856a.532.532 0 0 1-.533.533Zm-11.44-1.114h10.896v-31.742H51.788v31.742Z" fill="#231F20"/><path d="M177.135 49.659a19.968 19.968 0 0 0 2.421-8.057 17.52 17.52 0 0 0-1.211-6.93c-.787-1.332-2.288-2.083-3.232-3.295-1.828-2.423-1.211-5.73-.63-8.662 1.538-8.396-6.755-17.47-14.188-20.426a17.722 17.722 0 0 0-10.556-.909c-1.686.23-3.302.825-4.734 1.745-1.295.945-1.949 2.362-3.353 3.04-1.211.558-2.312.607-3.499 1.115a5.722 5.722 0 0 0-1.501.97c-3.172 2.847-6.925 10.2-5.557 14.538.497 1.526 1.054 3.368 0 4.591a3.798 3.798 0 0 1-1.803 1.03c-4.092 1.212-10.896 1.926-7.821 8.226.823 1.648 2.07 3.271 1.901 5.113-.303 3.247-4.455 4.361-6.634 6.796-3.305 3.635-1.272 9.874 2.506 13.084 5.956 5.04 14.527 5.222 22.335 4.701 8.269-.57 16.743-1.684 24.006-5.536a28.088 28.088 0 0 0 11.55-11.134Z" fill="#fff"/><path d="M136.349 67.068c-6.258 0-12.626-.993-17.396-5.04a12.437 12.437 0 0 1-4.334-8.299 7.356 7.356 0 0 1 1.78-5.573 15.874 15.874 0 0 1 2.941-2.35c1.732-1.211 3.378-2.302 3.56-4.119a6.74 6.74 0 0 0-1.211-3.634 16.944 16.944 0 0 1-.605-1.14 5.345 5.345 0 0 1-.816-2.293 5.347 5.347 0 0 1 .283-2.419c1.029-2.278 4.165-3.09 6.925-3.816.605-.158 1.21-.303 1.731-.473a3.145 3.145 0 0 0 1.537-.848c.787-.945.412-2.423-.121-4.07-1.489-4.653 2.422-12.115 5.702-15.084a6.051 6.051 0 0 1 1.659-1.15 10.869 10.869 0 0 1 1.755-.558 8.625 8.625 0 0 0 1.719-.557 5.745 5.745 0 0 0 1.743-1.527 9.783 9.783 0 0 1 1.526-1.466 12.098 12.098 0 0 1 4.927-1.865 18.302 18.302 0 0 1 10.895.945c8.111 3.222 16.065 12.648 14.528 21.031v.134c-.509 2.786-1.09 5.96.557 8.093.418.493.885.943 1.392 1.344a8.494 8.494 0 0 1 1.876 2.048c.92 1.55 1.368 5.694 1.211 7.269a20.478 20.478 0 0 1-2.482 8.286 28.34 28.34 0 0 1-11.779 11.34c-7.579 4.01-16.476 5.076-24.212 5.597a82.755 82.755 0 0 1-5.291.194Zm17.264-65.554c-1.266 0-2.528.134-3.765.4a10.97 10.97 0 0 0-4.504 1.671A8.093 8.093 0 0 0 144 4.894a6.594 6.594 0 0 1-2.106 1.78 8.97 8.97 0 0 1-1.925.643c-.54.119-1.071.28-1.586.484-.493.221-.95.515-1.356.873-3.002 2.701-6.682 9.898-5.387 13.92.484 1.526 1.211 3.634-.085 5.112a4.268 4.268 0 0 1-2.07 1.212c-.544.17-1.21.315-1.767.484-2.518.655-5.387 1.406-6.198 3.199a4.375 4.375 0 0 0 .484 3.756c.181.363.387.726.593 1.09a7.669 7.669 0 0 1 1.368 4.337c-.23 2.338-2.167 3.635-4.043 4.93a15.38 15.38 0 0 0-2.736 2.17 6.279 6.279 0 0 0-1.246 2.224 6.279 6.279 0 0 0-.256 2.537 11.467 11.467 0 0 0 3.959 7.535c5.823 4.943 14.358 5.076 21.936 4.568 7.579-.51 16.319-1.551 23.716-5.464a27.249 27.249 0 0 0 11.319-10.904 19.407 19.407 0 0 0 2.349-7.838 17.44 17.44 0 0 0-1.114-6.615 7.274 7.274 0 0 0-1.634-1.72 10.164 10.164 0 0 1-1.55-1.515c-1.961-2.532-1.32-5.96-.763-8.977v-.133c1.514-8.25-7.045-17.095-13.849-19.796a17.47 17.47 0 0 0-6.44-1.272ZM124.159 280.922s-4.189 5.294-3.123 7.003c1.065 1.708 20.907-1.927 23.461-3.744 2.555-1.817 9.976-14.623 10.109-15.059.133-.436-6.138-7.269-6.138-7.269l-24.309 19.069Z" fill="#231F20"/><path d="M123.299 288.906a9.032 9.032 0 0 1-1.683-.121 1.515 1.515 0 0 1-1.041-.57c-1.211-1.938 2.421-6.687 3.172-7.62a.315.315 0 0 1 .085-.097l24.308-19.093a.535.535 0 0 1 .727 0c6.477 7.087 6.355 7.475 6.247 7.814-.17.606-7.676 13.484-10.303 15.35-2.118 1.551-15.774 4.337-21.512 4.337Zm1.21-7.608c-1.598 2.035-3.631 5.415-3.062 6.348 1.392 1.139 20.096-2.035 22.711-3.889 2.227-1.587 8.946-12.915 9.83-14.659-.485-.788-3.099-3.78-5.618-6.554l-23.861 18.754Z" fill="#231F20"/><path d="M144.666 279.65s-4.697 7.378-3.208 8.626c1.489 1.248 17.311-1.211 18.449-1.987 1.138-.775 6.695-13.326 6.695-13.326l.194 6.651 2.99-1.83s-2.603-15.567-3.729-16.549c-1.126-.981-21.391 18.415-21.391 18.415Z" fill="#231F20"/><path d="M143.795 289.148a5.064 5.064 0 0 1-2.724-.46c-1.659-1.405 1.622-6.99 3.111-9.329a.358.358 0 0 1 .085-.097c20.58-19.759 21.682-18.826 22.093-18.475 1.211 1.018 3.293 13.169 3.911 16.864a.546.546 0 0 1-.242.545l-2.991 1.818a.517.517 0 0 1-.532 0 .555.555 0 0 1-.279-.461l-.133-4.313c-1.816 4.047-4.963 10.819-5.92 11.461-.641.473-11.137 2.447-16.379 2.447Zm1.21-9.159c-2.348 3.695-3.873 7.378-3.28 7.887 1.21.897 16.331-1.127 17.82-2.035.666-.533 3.825-7.1 6.489-13.145a.54.54 0 0 1 .593-.315.558.558 0 0 1 .436.509l.169 5.742 1.889-1.211c-1.211-6.966-2.7-14.417-3.402-15.75-1.804.824-11.828 9.874-20.641 18.318h-.073Z" fill="#231F20"/><path d="m132.547 257.54 1.308 8.25s-5.496 10.129-9.685 15.193c0 0 7.264-1.018 10.556-2.605 3.293-1.587 13.753-16.501 13.753-16.501l-4.201-11.424-11.731 7.087Z" fill="#fff"/><path d="M124.159 281.479a.53.53 0 0 1-.473-.29.535.535 0 0 1 0-.618c3.826-4.616 8.814-13.617 9.54-14.95l-1.223-8.081a.544.544 0 0 1 .267-.557l11.706-7.087a.5.5 0 0 1 .472 0 .532.532 0 0 1 .339.327l4.201 11.424a.575.575 0 0 1 0 .509c-.436.618-10.556 15.047-13.97 16.682-3.414 1.636-10.424 2.617-10.714 2.654l-.145-.013Zm8.994-23.721 1.211 7.887a.526.526 0 0 1-.061.339 134.15 134.15 0 0 1-8.861 14.175 42.6 42.6 0 0 0 9.007-2.338c2.566-1.212 10.362-11.8 13.316-16.077l-3.874-10.54-10.738 6.554Z" fill="#231F20"/><path d="M154.242 256.195a45.328 45.328 0 0 1-2.216 8.323c-1.61 4.241-7.36 15.132-7.36 15.132l13.922 1.212s5.787-9.692 6.428-12.576c.642-2.883 1.659-12.43 1.659-12.43l-12.433.339Z" fill="#fff"/><path d="m158.589 281.37-13.922-1.211a.53.53 0 0 1-.436-.291.573.573 0 0 1 0-.521c0-.109 5.75-10.903 7.324-15.071a45.078 45.078 0 0 0 2.191-8.202.545.545 0 0 1 .521-.472l12.433-.364a.666.666 0 0 1 .424.17.589.589 0 0 1 .145.436c0 .4-1.029 9.692-1.671 12.491-.641 2.798-6.247 12.333-6.489 12.733a.531.531 0 0 1-.52.302Zm-13.038-2.205 12.735 1.079c.969-1.648 5.642-9.692 6.186-12.115.545-2.423 1.344-9.559 1.574-11.728l-11.331.34a45.63 45.63 0 0 1-2.167 7.971c-1.38 3.635-5.678 11.909-6.997 14.453Z" fill="#231F20"/><path d="M172.304 127.51a44.134 44.134 0 0 1 8.051 28.773c-.944 14.114-4.842 74.398-10.762 102.335l-16.428 1.345-7.869-95.175 1.392-35.837 25.616-1.441Z" fill="#231F20"/><path d="M153.164 260.508a.517.517 0 0 1-.532-.484l-7.869-95.176 1.452-35.909a.547.547 0 0 1 .509-.509l25.604-1.453a.54.54 0 0 1 .248.042.541.541 0 0 1 .2.152 45.091 45.091 0 0 1 8.172 29.148l-.109 1.769c-3.269 48.908-6.852 82.77-10.666 100.639a.549.549 0 0 1-.484.424l-16.428 1.357h-.097Zm-5.956-131.036-1.38 35.352 7.821 94.582 15.495-1.284c3.777-17.918 7.337-51.598 10.569-100.107l.109-1.768a44.297 44.297 0 0 0-7.772-28.192l-24.842 1.417Z" fill="#231F20"/><path d="m152.499 128.116-28.147 1.574s-19.563 58.334-19.563 68.753c0 10.419 23.861 65.979 23.861 65.979l19.515-9.983-17.566-50.786 25.81-45.153-3.91-30.384Z" fill="#231F20"/><path d="M128.65 264.954h-.182a.529.529 0 0 1-.315-.29c-.968-2.278-23.897-55.79-23.897-66.197 0-10.406 18.788-66.535 19.6-68.922a.515.515 0 0 1 .472-.363l28.146-1.575a.533.533 0 0 1 .557.46l3.91 30.384a.546.546 0 0 1-.072.34l-25.689 44.934 17.457 50.544a.538.538 0 0 1-.267.642l-19.515 9.995a.559.559 0 0 1-.205.048Zm-3.899-134.743c-1.61 4.846-19.43 58.431-19.43 68.232 0 9.801 21.162 59.545 23.595 65.252l18.595-9.523-17.421-50.35a.51.51 0 0 1 0-.436l25.81-44.995-3.813-29.718-27.336 1.538ZM128.057 80.261s-47.213 15.205-53.57 9.595c-6.355-5.609-8.776-53.148-8.776-53.148l16.258-4.204s7.724 31.39 9.334 32.395c1.416.885 21.174-6.857 40.882-11.303" fill="#231F20"/><path d="M80.068 91.564c-2.797 0-4.915-.4-6.053-1.332-6.501-5.694-8.862-51.574-8.959-53.524a.533.533 0 0 1 .4-.545l16.258-4.216a.532.532 0 0 1 .654.387c2.906 11.8 7.942 30.93 9.128 32.093.69.17 6.053-1.49 11.634-3.259 7.711-2.423 18.28-5.755 28.812-8.13a.536.536 0 0 1 .642.4.545.545 0 0 1-.412.643c-10.484 2.423-21.028 5.682-28.727 8.105-9.31 2.932-11.767 3.634-12.554 3.125-1.61-1.017-7.47-24.23-9.43-32.19l-15.315 3.962c.266 4.846 2.736 47.249 8.571 52.337 5.073 4.434 39.95-5.5 53.049-9.692a.543.543 0 0 1 .678.352.536.536 0 0 1-.351.666c-1.562.545-33.704 10.819-48.025 10.819Z" fill="#231F20"/><path d="M144.109 51.96s-11.791 10.444-13.631 18.549c-1.84 8.105-2.421 58.976-2.421 58.976l35.882 3.634s-2.748-56.31 1.211-65.93c3.958-9.62 5.314-14.271 5.314-14.271l-26.355-.957Z" fill="#68E1FD"/><path d="m145.986 43.407-1.211 11.958s.581 6.796 8.051 5.44a15.057 15.057 0 0 0 10.459-7.669 10.34 10.34 0 0 0 .17-3.065l.375-7.015c.194-3.513.678-7.16.581-10.685-.133-4.229 1.404-8.48-3.45-9.305-2.228-.363-9.407-2.229-9.261-5.633a9.466 9.466 0 0 0 2.191 6.47l-4.165-2.763a15.076 15.076 0 0 1-3.631-3.005 5.167 5.167 0 0 1-1.211-4.397c-6.586 6.566-5.569 14.853-5.617 23.406-.024 3.792 2.651 6.833 6.719 6.263Z" fill="#fff"/><path d="M150.973 61.544a6.629 6.629 0 0 1-4.128-1.285 7.44 7.44 0 0 1-2.603-4.846l1.126-11.4a6.052 6.052 0 0 1-4.395-1.466 7.05 7.05 0 0 1-2.264-5.415v-3.138c-.072-7.572-.145-14.732 5.799-20.596a.546.546 0 0 1 .654-.084.56.56 0 0 1 .266.617 4.696 4.696 0 0 0 1.102 3.925 15.106 15.106 0 0 0 3.523 2.884l2.033 1.345a10.126 10.126 0 0 1-.92-4.616.573.573 0 0 1 .181-.387.55.55 0 0 1 .784.037.568.568 0 0 1 .149.399c-.121 2.701 5.872 4.579 8.789 5.064 4.322.714 4.153 4.022 3.983 7.269 0 .848-.097 1.732-.073 2.592a65.345 65.345 0 0 1-.314 7.27c-.097 1.21-.194 2.422-.255 3.525l-.387 7.002v.848a5.62 5.62 0 0 1-.23 2.423 15.595 15.595 0 0 1-10.895 7.972c-.639.08-1.283.1-1.925.06Zm-5.63-6.13a5.642 5.642 0 0 0 2.525 4.217 5.626 5.626 0 0 0 4.872.628 14.452 14.452 0 0 0 10.06-7.353c.152-.63.193-1.282.121-1.927v-.945l.376-7.002c.072-1.212.169-2.423.266-3.562.237-2.355.343-4.72.315-7.087 0-.909 0-1.818.072-2.69.182-3.525.134-5.549-3.05-6.057-.085 0-5.593-.957-8.281-3.308a8.756 8.756 0 0 0 1.719 3.247.557.557 0 0 1 0 .727.545.545 0 0 1-.714.085l-4.177-2.762a16.213 16.213 0 0 1-3.765-3.114 6.45 6.45 0 0 1-1.44-3.271c-4.564 5.391-4.504 11.885-4.431 18.742v3.162a6.068 6.068 0 0 0 1.876 4.58 5.192 5.192 0 0 0 4.213 1.138.534.534 0 0 1 .594.351.56.56 0 0 1 .036.243l-1.211 11.957h.024Z" fill="#231F20"/><path d="M145.501 49.283a11.493 11.493 0 0 0 8.256-2.265 8.414 8.414 0 0 0 3.269-6.252s-5.581 3.029-11.041 2.641l-.484 5.876Z" fill="#231F20"/><path d="M146.76 49.889c-.445.005-.89-.02-1.331-.073a.544.544 0 0 1-.46-.57l.484-5.887a.533.533 0 0 1 .569-.485c5.242.364 10.689-2.544 10.75-2.568a.51.51 0 0 1 .521 0 .529.529 0 0 1 .266.436 8.827 8.827 0 0 1-3.45 6.675 11.365 11.365 0 0 1-7.349 2.472Zm-.678-1.09a10.746 10.746 0 0 0 7.325-2.193 8.481 8.481 0 0 0 3.014-4.943 23.219 23.219 0 0 1-9.939 2.302l-.4 4.833ZM147.607 34.624a3.46 3.46 0 0 1-2.748-.957c-.932-1.212 1.841-5.004 3.632-7.136a.537.537 0 1 1 .836.679c-2.071 2.544-3.729 5.27-3.535 5.827.448.606 2.154.557 2.905.436a.532.532 0 0 1 .617.448.526.526 0 0 1-.094.4.52.52 0 0 1-.353.206 6.82 6.82 0 0 1-1.26.097Z" fill="#231F20"/><path d="M161.01 25.84a11.52 11.52 0 0 1 2.603-3.84 3.858 3.858 0 0 1 4.334-.63c1.476.897 1.803 2.908 1.634 4.628a18.89 18.89 0 0 1-1.574 5.634 6.754 6.754 0 0 1-1.925 2.822 2.638 2.638 0 0 1-3.196.158" fill="#fff"/><path d="M164.253 35.63a2.675 2.675 0 0 1-1.719-.594.562.562 0 0 1-.197-.373.549.549 0 0 1 .497-.6.548.548 0 0 1 .402.125 2.142 2.142 0 0 0 2.518-.17 6.229 6.229 0 0 0 1.744-2.605 18.45 18.45 0 0 0 1.537-5.475c.073-.715.17-3.15-1.368-4.095a3.338 3.338 0 0 0-3.692.581 11.036 11.036 0 0 0-2.421 3.635.572.572 0 0 1-.751.254.537.537 0 0 1-.276-.319.552.552 0 0 1 .034-.42 11.822 11.822 0 0 1 2.748-4.022 4.407 4.407 0 0 1 4.976-.678c2.045 1.211 2.009 4.022 1.9 5.148a19.508 19.508 0 0 1-1.622 5.803 7.427 7.427 0 0 1-2.094 3.053 3.729 3.729 0 0 1-2.216.752ZM157.026 28.336c.388 0 .703-.797.703-1.78 0-.984-.315-1.782-.703-1.782-.387 0-.702.798-.702 1.781 0 .984.315 1.781.702 1.781ZM143.71 28.336c.388 0 .702-.797.702-1.78 0-.984-.314-1.782-.702-1.782-.388 0-.702.798-.702 1.781 0 .984.314 1.781.702 1.781Z" fill="#231F20"/><path d="M144.449 29.778h-3.632a3.802 3.802 0 0 1-3.801-3.792V23.89a.545.545 0 0 1 .544-.545h10.182a.544.544 0 0 1 .544.545v2.072a3.792 3.792 0 0 1-1.122 2.71 3.793 3.793 0 0 1-2.715 1.106Zm-6.392-5.33v1.538a2.726 2.726 0 0 0 2.724 2.726h3.631a2.726 2.726 0 0 0 2.724-2.726v-1.563l-9.079.024ZM156.857 29.778h-3.632a3.802 3.802 0 0 1-3.801-3.792V23.89a.545.545 0 0 1 .545-.545h10.181a.544.544 0 0 1 .545.545v2.072a3.811 3.811 0 0 1-2.369 3.536c-.467.19-.966.285-1.469.28Zm-6.392-5.33v1.538a2.726 2.726 0 0 0 2.724 2.726h3.632a2.725 2.725 0 0 0 2.711-2.75v-1.539l-9.067.024Z" fill="#231F20"/><path d="M150.078 25.89a.646.646 0 0 1-.291-.074 2.188 2.188 0 0 0-1.84 0 .543.543 0 0 1-.714-.254.534.534 0 0 1 .194-.63 3.215 3.215 0 0 1 2.881 0 .531.531 0 0 1 .169.739.512.512 0 0 1-.399.218ZM163.467 50.07s-5.436 21.977-7.143 35.595c-1.029 8.238-8.159 35.545-2.421 53.221l30.483 1.017s-4.588-34.103-4.588-37.714c0-3.61 5.702-28.591 5.702-28.591s20.665 19.384 20.374 23.334c-.29 3.949-17.384 25.841-17.384 25.841l9.576 12.624s32.42-20.123 30.265-36.345c-2.155-16.222-29.091-40.876-34.284-46.122-6.755-6.821-30.58-2.86-30.58-2.86Z" fill="#231F20"/><path d="m184.374 140.437-30.495-1.018a.53.53 0 0 1-.485-.364c-4.685-14.453-.932-34.794 1.308-46.945.508-2.775.92-4.967 1.102-6.506 1.694-13.496 7.106-35.448 7.154-35.667a.53.53 0 0 1 .436-.4c.981-.169 24.212-3.925 31.04 3.017l2.276 2.23c8.28 8.068 30.265 29.475 32.202 44.195.896 6.906-3.995 15.229-14.527 24.727a129.486 129.486 0 0 1-16.029 12.115.527.527 0 0 1-.376.068.528.528 0 0 1-.326-.202l-9.6-12.623a.548.548 0 0 1 0-.655c4.721-6.057 17.033-22.473 17.275-25.55.194-2.593-11.597-14.756-19.527-22.268-1.017 4.52-5.484 24.449-5.484 27.562 0 3.526 4.54 37.302 4.588 37.641a.519.519 0 0 1-.532.606v.037Zm-30.096-2.072 29.49.993c-.641-4.846-4.515-33.801-4.515-37.169 0-3.634 5.484-27.694 5.714-28.712a.556.556 0 0 1 .363-.4.569.569 0 0 1 .521.121c2.142 2.011 20.846 19.723 20.58 23.77-.303 3.816-14.612 22.413-17.251 25.817l9.031 11.897c3.741-2.423 31.573-20.85 29.66-35.57-1.852-14.344-23.668-35.57-31.875-43.614a186.372 186.372 0 0 1-2.301-2.241c-6.053-6.058-26.814-3.21-29.756-2.762-.702 2.847-5.484 22.691-7.046 35.194-.194 1.575-.605 3.768-1.114 6.566-2.094 11.219-5.932 31.923-1.501 46.11Z" fill="#231F20"/><path d="M179.568 128.721a.58.58 0 0 1-.315-.084l-19.443-11.57a.615.615 0 0 1-.285-.372.596.596 0 0 1 .065-.464.612.612 0 0 1 .375-.279.602.602 0 0 1 .463.073l19.442 11.57a.598.598 0 0 1 .278.367.6.6 0 0 1-.281.676.617.617 0 0 1-.299.083Z" fill="#fff"/><path d="M144.109 51.96s-3.148 17.919-4.842 29.803c-4.576 31.5-8.644 55.063-8.644 55.063s-19.588-.836-18.692-1.429c.896-.594 11.453-30.397 10.242-37.012-1.211-6.615-4.843-18.56-3.935-21.261.908-2.702 7.264-20.596 7.264-20.596s6.259-4.567 18.607-4.567Z" fill="#231F20"/><path d="M130.599 137.359c-18.946-.799-19.079-1.32-19.212-1.768a.655.655 0 0 1 .242-.643c.787-1.005 11.186-30.069 10.024-36.466-.4-2.193-1.053-4.918-1.743-7.814-1.453-6.057-2.833-11.776-2.18-13.714.884-2.677 7.179-20.426 7.264-20.596a.496.496 0 0 1 .182-.254c.266-.194 6.585-4.676 18.97-4.676a.547.547 0 0 1 .411.181.512.512 0 0 1 .109.436c0 .182-3.159 18.052-4.842 29.791-4.516 31.16-8.595 54.845-8.644 55.075a.52.52 0 0 1-.581.448Zm-17.929-2.18c2.325.375 11.44.884 17.481 1.138.593-3.452 4.383-25.841 8.559-54.578 1.526-10.503 4.189-25.902 4.758-29.197-10.653.145-16.622 3.768-17.566 4.386-.642 1.805-6.343 17.882-7.191 20.414-.545 1.647.92 7.741 2.203 13.12.703 2.908 1.368 5.658 1.768 7.875.702 3.865-2.421 14.829-4.358 21.007a163.542 163.542 0 0 1-5.654 15.835Z" fill="#231F20"/><path d="M196.335 133.131s-8.62 4.144-11.816 3.077c-3.196-1.066-8.038-5.245-8.038-5.245s-8.075-.473-8.196-1.902c-.121-1.43 3.45-1.902 7.482-1.067 0 0-7.361-1.478-7.482-2.253a1.738 1.738 0 0 1 .51-1.27 1.733 1.733 0 0 1 1.27-.511c1.138 0 5.944.824 5.944.824s-5.823-1.066-5.399-2.423c.423-1.357 5.12-.388 5.12-.388s-4.551-1.211-3.631-2.423c1.343-1.72 10.036 2.52 11.295 3.453a10.32 10.32 0 0 0 6.464 2.423l6.477 7.705Z" fill="#fff"/><path d="M185.777 136.935a4.341 4.341 0 0 1-1.44-.206c-2.99-.993-7.264-4.506-8.075-5.221-3.862-.243-8.401-.848-8.474-2.423a1.39 1.39 0 0 1 .095-.669c.087-.211.225-.398.401-.543a3.926 3.926 0 0 1 1.816-.751c-2.215-.69-2.276-1.114-2.312-1.357a1.996 1.996 0 0 1 .52-1.587 2.427 2.427 0 0 1 1.804-.836h.315a1.635 1.635 0 0 1-.278-.315 1.075 1.075 0 0 1-.109-.86c.23-.727 1.113-1.005 2.155-1.078a1.921 1.921 0 0 1-.727-.86 1.076 1.076 0 0 1 .194-1.03c1.792-2.29 11.186 2.702 12.106 3.356a9.808 9.808 0 0 0 6.053 2.253.561.561 0 0 1 .472.194l6.44 7.705a.54.54 0 0 1-.181.848c-.291.23-6.888 3.38-10.775 3.38Zm-13.764-8.795a5.19 5.19 0 0 0-3.039.63c-.145.121-.133.206-.133.254.327.497 3.85 1.212 7.675 1.393.122.002.239.05.327.134 0 0 4.782 4.107 7.845 5.136 2.252.752 8.026-1.514 10.762-2.75l-5.799-6.942a11.303 11.303 0 0 1-6.549-2.423c-1.755-1.308-9.685-4.724-10.532-3.561.085.363 1.695 1.114 3.305 1.526a.571.571 0 0 1 .399.666.552.552 0 0 1-.641.412c-2.288-.436-4.383-.351-4.504 0 .194.4 2.518 1.212 4.976 1.66a.57.57 0 0 1 .448.642.551.551 0 0 1-.425.447.547.547 0 0 1-.217.001c-1.32-.23-4.951-.823-5.847-.823a1.27 1.27 0 0 0-.969.46.986.986 0 0 0-.266.569 36.85 36.85 0 0 0 6.925 1.89h.121a.554.554 0 0 1 .381.228.56.56 0 0 1-.599.863h-.145a18.23 18.23 0 0 0-3.499-.412ZM149.63 38.258a14.894 14.894 0 0 1-6.913-2.035.539.539 0 0 1-.169-.739.533.533 0 0 1 .738-.17c.073 0 6.743 4.144 11.053.061a.54.54 0 0 1 .586-.102.545.545 0 0 1 .282.297.518.518 0 0 1-.01.41.526.526 0 0 1-.12.17 7.683 7.683 0 0 1-5.447 2.108Z" fill="#231F20"/><path d="M107.416 92.025H1.016v66.645h106.4V92.025Z" fill="#fff"/><path d="M107.476 159.227H1.016a.568.568 0 0 1-.557-.557V92.037a.57.57 0 0 1 .557-.557h106.46a.556.556 0 0 1 .545.557v66.633a.556.556 0 0 1-.545.557ZM1.621 158.112h105.323v-65.53H1.621v65.53Z" fill="#231F20"/><path d="M22.88 140.025v2.035h3.958v1.963h-3.959v3.84h-2.421v-9.874h6.731v2.036h-4.31ZM39.404 142.896a5.312 5.312 0 0 1-.412 2.132 4.774 4.774 0 0 1-1.21 1.66 5.12 5.12 0 0 1-1.768 1.066 6.386 6.386 0 0 1-2.228.388 6.271 6.271 0 0 1-2.215-.388 5.061 5.061 0 0 1-1.756-1.066 4.772 4.772 0 0 1-1.21-1.66 5.612 5.612 0 0 1 0-4.276 4.636 4.636 0 0 1 1.21-1.624 5.181 5.181 0 0 1 1.756-1.03 6.525 6.525 0 0 1 2.215-.363 6.646 6.646 0 0 1 2.228.363 5.242 5.242 0 0 1 1.767 1.03c.518.445.932 1 1.21 1.624.285.678.426 1.408.413 2.144Zm-2.64 0a3.201 3.201 0 0 0-.218-1.212 2.855 2.855 0 0 0-.593-.957 2.915 2.915 0 0 0-.92-.63 2.992 2.992 0 0 0-1.21-.23 2.923 2.923 0 0 0-1.211.23 3.05 3.05 0 0 0-.92.63 2.67 2.67 0 0 0-.593.957c-.15.386-.225.798-.218 1.212 0 .414.073.824.218 1.211.139.359.344.688.605.97.258.267.567.481.908.63.775.32 1.646.32 2.421 0 .345-.149.657-.363.92-.63.265-.279.471-.609.605-.97.141-.388.21-.798.206-1.211ZM46.51 147.875l-2.215-3.925h-.847v3.925h-2.422v-9.874h3.898c.48-.001.96.048 1.429.146.431.088.842.257 1.21.496.372.223.677.541.884.921.243.432.36.923.34 1.418a2.56 2.56 0 0 1-.57 1.684c-.404.477-.945.82-1.55.981l2.664 4.228h-2.82Zm-.109-6.857a.981.981 0 0 0-.145-.557 1.093 1.093 0 0 0-.4-.34 1.712 1.712 0 0 0-.532-.157h-1.889v2.29h1.211c.206.018.412.018.617 0 .203-.022.4-.079.582-.17a1.21 1.21 0 0 0 .435-.363c.12-.214.163-.462.121-.703ZM59.609 140.558a2.258 2.258 0 0 0-.823-.618 2.6 2.6 0 0 0-.993-.23 2.287 2.287 0 0 0-.496 0 1.21 1.21 0 0 0-.8.46.872.872 0 0 0-.132.485.79.79 0 0 0 .109.424c.08.12.188.22.314.29.159.091.325.168.497.231l.653.218 1.078.363c.365.131.711.31 1.029.533.302.23.56.514.762.836.212.368.317.787.303 1.212a3.075 3.075 0 0 1-.327 1.465 2.998 2.998 0 0 1-.871 1.03 3.636 3.636 0 0 1-1.21.594 5.328 5.328 0 0 1-1.454.206 6.3 6.3 0 0 1-2.118-.376 4.338 4.338 0 0 1-1.707-1.054l1.622-1.587c.269.315.604.568.98.739.375.194.79.297 1.211.303.177.019.356.019.533 0a2.3 2.3 0 0 0 .46-.182 1.004 1.004 0 0 0 .424-.848.787.787 0 0 0-.146-.472 1.53 1.53 0 0 0-.411-.352 3.114 3.114 0 0 0-.666-.29l-.896-.291a7.265 7.265 0 0 1-.968-.363 2.966 2.966 0 0 1-.836-.534 2.421 2.421 0 0 1-.81-1.938c-.017-.49.1-.976.338-1.405a3.02 3.02 0 0 1 .92-.957c.37-.253.779-.442 1.21-.558.47-.11.948-.167 1.43-.169.601.001 1.199.103 1.767.303a4.545 4.545 0 0 1 1.586.908l-1.562 1.624ZM69.668 147.875l-.799-1.938h-3.946l-.75 1.938h-2.7l4.285-9.874h2.421l4.237 9.874h-2.748Zm-2.748-7.269-1.295 3.392h2.567l-1.272-3.392ZM73.265 147.875v-9.874h2.42v7.79h3.947v2.084h-6.367ZM80.843 147.875v-9.874h6.864v2.024h-4.443v1.877h4.25v1.902h-4.25v2.06h4.746v2.035l-7.167-.024Z" fill="#D1D3D4"/><path d="m67.841 35.763-1.356-7.511s-10.58-4.386-11.815-7.064c-2.76-5.96 6.646 1.72 8.68 1.709 2.034-.012 1.21-2.86.714-3.053a72.294 72.294 0 0 0-10.714-2.036c-2.421 0-.436-3.101 1.828-3.525 2.264-.424 9.37 1.32 9.37 1.32s-10.532-8.117-9.334-9.486c1.199-1.369 8.208 2.423 12.36 7.354 0 0-8.812-8.832-7.057-10.25 1.755-1.417 6.465 3.478 9.89 8.639 0 0-5.18-9.692-1.888-10.504 3.293-.812 6.719 7.27 7.978 12.273 1.731 6.966 1.21 4.846 5.411 18.875" fill="#fff"/><path d="M67.841 36.32a.557.557 0 0 1-.544-.46L66 28.59c-1.937-.811-10.617-4.59-11.84-7.268-.447-.97-.871-2.157-.205-2.762.111-.104.243-.182.387-.23-.387 0-.738 0-.993-.061-1.416 0-1.61-.909-1.634-1.212-.133-1.332 1.598-3.101 3.366-3.428 1.5-.279 4.842.303 7.263.787-2.869-2.314-7.566-6.348-7.723-8.008a.982.982 0 0 1 .218-.763 1.67 1.67 0 0 1 1.27-.473 12.791 12.791 0 0 1 5.63 2.35c-1.21-1.55-1.998-3.028-1.95-3.949a1.214 1.214 0 0 1 .425-.896 1.816 1.816 0 0 1 1.452-.34c1.659.255 3.995 2.423 6.21 5.016-.75-2.06-1.27-4.289-.713-5.56a1.817 1.817 0 0 1 1.27-1.079 2.794 2.794 0 0 1 2.168.388c2.941 1.769 5.484 8.31 6.476 12.284 1.296 5.198 1.332 5.307 3.039 10.904l2.421 7.887a.558.558 0 0 1-1.065.315c-1.041-3.501-1.792-6.058-2.36-7.875-1.72-5.682-1.756-5.791-3.064-11.025-1.259-4.41-3.68-10.019-6.101-11.424a1.682 1.682 0 0 0-1.332-.267.739.739 0 0 0-.532.449c-.715 1.635 1.32 6.542 2.772 9.243a.557.557 0 0 1-.944.57c-3.136-4.725-6.707-8.347-8.475-8.626a.677.677 0 0 0-.58.109c-.085 1.211 2.554 4.555 5.047 7.269a25.37 25.37 0 0 1 2.083 2.193.55.55 0 0 1-.811.739 55.366 55.366 0 0 1-2.095-2.181c-3.39-3.15-7.42-5.282-9.043-5.294-.266 0-.375 0-.424.097 0 .908 4.843 5.245 9.262 8.686a.545.545 0 0 1 .157.679.557.557 0 0 1-.63.29c-1.937-.472-7.372-1.647-9.128-1.308-1.392.254-2.518 1.684-2.42 2.241 0 .17.375.194.532.194 3.678.41 7.32 1.1 10.895 2.06.69.254 1.09 1.684.92 2.629a1.72 1.72 0 0 1-1.816 1.49c-.81 0-2.13-.727-4.188-1.902-1.368-.8-3.91-2.266-4.467-2.06.059.519.22 1.021.472 1.478.944 2.035 8.643 5.585 11.537 6.784a.52.52 0 0 1 .327.412l1.356 7.512a.557.557 0 0 1-.448.642l-.134.024ZM56.074 18.68a30.833 30.833 0 0 1 3.632 1.89 14.853 14.853 0 0 0 3.632 1.77c.472 0 .617-.207.678-.388a2.06 2.06 0 0 0-.242-1.648c-.267-.085-4.54-1.102-7.7-1.623Z" fill="#231F20"/><path d="m42.298 23.611.35 10.674 2.265 2.883 3.862-.133.29 6.118 2.095.92s-1.211 1.127-1.114 1.806c.097.678 1.767 1.211 1.767 1.211s-1.235.86-1.235 1.636a10.435 10.435 0 0 0 .218 3.562l1.271 1.126a1.054 1.054 0 0 0-.605 1.115c.21.62.607 1.157 1.138 1.538 0 0-.968.933-.823 1.709.145.775 3.172 3.634 3.172 3.634l2.663-3.053-.75-22.788 3.22-3.562-.4-12.03a2.424 2.424 0 0 0-3.111-2.217l-12.312 3.816-1.961 2.035Zm9.116-2.798s4.612-1.793 5.278-1.611c.666.181.145 4.337.145 4.337l-4.963.811-.46-3.537Z" fill="#68E1FD"/><path d="M54.9 61.968a.569.569 0 0 1-.376-.146c-1.21-1.114-3.208-3.113-3.34-3.962a2.424 2.424 0 0 1 .58-1.732 3.042 3.042 0 0 1-.908-1.514 1.526 1.526 0 0 1 .315-1.212l-.799-.727c-.654-.605-.4-3.973-.4-4.01.108-.54.383-1.032.787-1.405-.556-.279-1.21-.715-1.21-1.296a2.424 2.424 0 0 1 .666-1.648l-1.368-.606a.546.546 0 0 1-.327-.472l-.279-5.561-3.305.109a.545.545 0 0 1-.448-.218l-2.276-2.944a.63.63 0 0 1-.12-.327l-.352-10.661a.557.557 0 0 1 .158-.4l1.9-2.023a.763.763 0 0 1 .242-.158l12.312-3.816a2.965 2.965 0 0 1 3.838 2.726l.387 12.042a.51.51 0 0 1-.133.388l-3.075 3.44.75 22.57a.618.618 0 0 1-.132.376l-2.664 3.053a.534.534 0 0 1-.387.182l-.036-.048Zm-5.29-19.19 1.779.787a.57.57 0 0 1 .293.694.545.545 0 0 1-.148.227c-.496.448-.968 1.09-.944 1.296.382.39.863.666 1.392.8a.593.593 0 0 1 .375.448.545.545 0 0 1-.242.533c-.4.278-1.005.86-1.029 1.211a12.763 12.763 0 0 0 .097 3.187c.242.193 1.21 1.041 1.21 1.041a.558.558 0 0 1 .074.752.545.545 0 0 1-.219.17.483.483 0 0 0-.278.52c.06.424.654.97.92 1.212a.57.57 0 0 1 .23.412.607.607 0 0 1-.121.363c-.303.29-.726.884-.666 1.212a15.47 15.47 0 0 0 2.59 2.943l2.144-2.423-.751-22.582c0-.142.052-.28.145-.388l3.063-3.392-.472-11.8a1.843 1.843 0 0 0-1.574-1.771 1.839 1.839 0 0 0-.847.075l-12.106 3.768-1.659 1.756.34 10.25 1.985 2.532 3.631-.121a.556.556 0 0 1 .545.557l.242 5.73Zm2.263-17.846a.569.569 0 0 1-.339-.11.606.606 0 0 1-.218-.375l-.448-3.537a.533.533 0 0 1 .351-.582c2.18-.848 4.915-1.817 5.605-1.647.376.096 1.126.302.557 4.955a.545.545 0 0 1-.46.472l-4.963.812-.085.012Zm.145-3.731.327 2.532 3.983-.643c.153-1.1.177-2.213.073-3.32a32.68 32.68 0 0 0-4.383 1.406v.025Z" fill="#231F20"/><path d="M55.65 58.297a.544.544 0 0 1-.544-.533l-.739-22.231a.557.557 0 0 1 .746-.537.546.546 0 0 1 .356.5l.738 22.231a.558.558 0 0 1-.532.57h-.024ZM47.89 35.048a.604.604 0 0 1-.254-.06l-2.82-1.49a.545.545 0 0 1-.291-.413l-1.041-7.862a.51.51 0 0 1 .06-.352l1.114-2.01a.57.57 0 0 1 .29-.243l4.685-1.744a.58.58 0 0 1 .472 0 .543.543 0 0 1 .267.4l.58 4.191 4.843-.424a.545.545 0 0 1 .412.133.556.556 0 0 1 .181.4l.23 6.712a.557.557 0 0 1-.423.545l-8.208 2.156-.097.061Zm-2.3-2.423 2.421 1.212 7.578-1.987-.169-5.61-4.842.424a.556.556 0 0 1-.606-.472l-.605-4.034-3.838 1.417-.932 1.684.993 7.366Z" fill="#231F20"/><path d="M56.51 19.177a8.475 8.475 0 0 0-1.852-1.042 2.832 2.832 0 0 0-2.192-.266 1.21 1.21 0 0 0-.544.981c-.01.392.07.781.23 1.139.569 1.333 2.941 2.617 4.334 2.98" fill="#fff"/><path d="M56.486 23.515h-.133c-1.55-.4-4.044-1.757-4.71-3.296a3.08 3.08 0 0 1-.278-1.393 1.844 1.844 0 0 1 .811-1.418c.98-.605 2.652.206 2.724.243l.52.254a6.34 6.34 0 0 1 1.417.836.535.535 0 0 1 .11.776.557.557 0 0 1-.776.109 4.843 4.843 0 0 0-1.21-.715l-.545-.267a2.42 2.42 0 0 0-1.646-.29.739.739 0 0 0-.291.557c-.002.301.065.6.194.872.484 1.115 2.7 2.338 3.958 2.665a.545.545 0 0 1-.133 1.079l-.012-.012Z" fill="#231F20"/><path d="M157.729 89.747a.578.578 0 0 1-.448-.206.607.607 0 0 1 0-.86L169.508 77.9l-4.734-6.833a.62.62 0 0 1 .097-.812l8.668-7.378c-5.944-9.292-5.932-9.837-5.92-10.055a.644.644 0 0 1 .63-.582.617.617 0 0 1 .581.533c.242.715 3.268 5.61 6.053 9.886a.596.596 0 0 1-.121.788l-8.656 7.378 4.745 6.832a.619.619 0 0 1-.096.8L158.116 89.59a.557.557 0 0 1-.387.157ZM135.986 91.71a.594.594 0 0 1-.545-.351l-5.387-11.28a.59.59 0 0 1 0-.569l4.842-8.335-5.907-4.168a.565.565 0 0 1-.255-.424.629.629 0 0 1 .146-.472l9.842-11.025a.605.605 0 0 1 .908.8l-9.394 10.528 5.81 4.082a.604.604 0 0 1 .17.8l-4.988 8.553 5.303 10.989a.61.61 0 0 1-.545.872ZM117.464 128.115a.61.61 0 0 1-.601-.528.617.617 0 0 1 .119-.453.587.587 0 0 1 .179-.157l10.532-6.058a.608.608 0 0 1 .773.248.606.606 0 0 1-.167.794l-10.533 6.058a.715.715 0 0 1-.302.096Z" fill="#fff"/><path d="M67.175 131.932H42.37a.604.604 0 0 1-.605-.606v-22.352a.618.618 0 0 1 .605-.606h24.805a.607.607 0 0 1 .606.606v22.352a.604.604 0 0 1-.606.606Zm-24.212-1.212h23.595v-21.14H42.975l-.012 21.14Z" fill="#D1D3D4"/><path d="m54.778 99.67 15.762 9.304H39.004l15.774-9.305Z" fill="#D1D3D4"/><path d="M70.541 109.58H39.005a.607.607 0 0 1-.303-1.127l15.738-9.305a.629.629 0 0 1 .617 0l15.738 9.305a.591.591 0 0 1 .279.678.609.609 0 0 1-.533.449Zm-29.309-1.212h27.094l-13.547-7.996-13.547 7.996ZM58.266 131.859h-6.053a.607.607 0 0 1-.606-.606v-9.51a.604.604 0 0 1 .606-.606h6.053a.604.604 0 0 1 .605.606v9.51a.607.607 0 0 1-.605.606Zm-5.472-1.211h4.842v-8.299h-4.842v8.299ZM42.37 111.154H26.343l-6.816 9.002h22.845v-9.002Z" fill="#D1D3D4"/><path d="M42.37 120.762H19.526a.607.607 0 0 1-.545-.34.592.592 0 0 1 0-.63l6.816-9.001a.63.63 0 0 1 .484-.242h16.028a.607.607 0 0 1 .606.605v9.002a.605.605 0 0 1-.545.606Zm-21.634-1.212h21.029v-7.79h-15.12l-5.909 7.79Z" fill="#D1D3D4"/><path d="M42.37 131.932h-21.1a.604.604 0 0 1-.606-.606v-11.17a.603.603 0 0 1 .605-.606H42.37a.604.604 0 0 1 .605.606v11.17a.604.604 0 0 1-.605.606Zm-20.495-1.212h19.89v-9.958h-19.89v9.958ZM65.056 123.33H44.488l1.877-3.174H63.18l1.876 3.174Z" fill="#D1D3D4"/><path d="M65.105 123.936h-20.58a.617.617 0 0 1-.52-.921l1.876-3.174a.61.61 0 0 1 .52-.291h16.816a.61.61 0 0 1 .52.291l1.877 3.174a.619.619 0 0 1-.521.921h.012Zm-19.503-1.212H64.04l-1.21-1.962H46.715l-1.114 1.962ZM61.11 118.823H48.725a.603.603 0 0 1-.605-.605v-5.125a.604.604 0 0 1 .605-.606H61.11a.617.617 0 0 1 .605.606v5.125a.616.616 0 0 1-.605.605Zm-11.78-1.211h11.175v-3.913H49.367l-.036 3.913ZM29.768 128.309h-4.37a.603.603 0 0 1-.606-.605v-4.374a.604.604 0 0 1 .605-.606h4.37a.604.604 0 0 1 .606.606v4.374a.607.607 0 0 1-.605.605Zm-3.765-1.211h3.16v-3.162h-3.16v3.162ZM37.72 128.309h-4.37a.603.603 0 0 1-.605-.605v-4.374a.604.604 0 0 1 .605-.606h4.37a.604.604 0 0 1 .606.606v4.374a.607.607 0 0 1-.605.605Zm-3.764-1.211h3.16v-3.162h-3.16v3.162ZM50.07 129.182h-3.052a.604.604 0 0 1-.605-.606v-3.089a.608.608 0 0 1 .605-.606h3.051a.607.607 0 0 1 .605.606v3.065a.606.606 0 0 1-.605.63Zm-2.422-1.212h1.84v-1.853h-1.84v1.853ZM63.229 129.182h-3.063a.616.616 0 0 1-.605-.606v-3.089a.618.618 0 0 1 .605-.606h3.063a.617.617 0 0 1 .605.606v3.065a.62.62 0 0 1-.605.63Zm-2.422-1.212h1.877v-1.853h-1.852l-.025 1.853ZM82.393 131.932H67.176a.604.604 0 0 1-.606-.606v-12.115a.604.604 0 0 1 .606-.606h15.217a.604.604 0 0 1 .605.606v12.115a.604.604 0 0 1-.605.606ZM67.78 130.72h14.007v-10.903H67.78v10.903Z" fill="#D1D3D4"/><path d="M79.366 122.421h-8.825v8.832h8.825v-8.832Z" fill="#D1D3D4"/><path d="M79.366 131.859h-8.825a.607.607 0 0 1-.605-.606v-8.832a.607.607 0 0 1 .605-.605h8.825a.607.607 0 0 1 .605.605v8.832a.608.608 0 0 1-.605.606Zm-8.22-1.211h7.615v-7.584h-7.603l-.012 7.584ZM67.175 114.111h13.704l5.339 5.124H67.175v-5.124Z" fill="#D1D3D4"/><path d="M86.218 119.841H67.176a.617.617 0 0 1-.606-.606v-5.124a.618.618 0 0 1 .606-.606h13.667a.586.586 0 0 1 .412.169l5.35 5.125a.594.594 0 0 1 .134.654.606.606 0 0 1-.52.388Zm-18.437-1.212h16.948l-4.067-3.913H67.78v3.913Z" fill="#D1D3D4"/><path d="M74.85 283.551H46.403a.554.554 0 0 1-.475-.551.556.556 0 0 1 .475-.551H74.85a.556.556 0 1 1 0 1.102Z" fill="#231F20"/><path fill="#fff" d="M11.969 96.042h81.06v57.212h-81.06z"/><path fill="#AEECEF" fill-opacity=".5" d="M56.28 123.299h15.827v23.008H56.28z"/><path fill-rule="evenodd" clip-rule="evenodd" d="M32.556 123.299c0 12.624 10.382 22.859 23.189 22.859v-22.859h-23.19Z" fill="#70DCDC" fill-opacity=".5"/><ellipse cx="5.396" cy="5.305" rx="5.396" ry="5.305" transform="rotate(38.359 -135.228 148.486) skewX(-.094)" fill="#FFD234" fill-opacity=".5"/><path fill-rule="evenodd" clip-rule="evenodd" d="m55.677 101.565-23.189 21.344h23.19v-21.344Z" fill="#AEECEF" fill-opacity=".5"/></svg>