<svg width="23" height="23" viewBox="0 0 23 23" fill="none" xmlns="http://www.w3.org/2000/svg">
<path d="M11.1863 5.83545C8.08081 5.83545 5.57593 8.34033 5.57593 11.4458C5.57593 14.5513 8.08081 17.0562 11.1863 17.0562C14.2917 17.0562 16.7966 14.5513 16.7966 11.4458C16.7966 8.34033 14.2917 5.83545 11.1863 5.83545ZM11.1863 15.0933C9.17944 15.0933 7.53882 13.4575 7.53882 11.4458C7.53882 9.43408 9.17456 7.79834 11.1863 7.79834C13.198 7.79834 14.8337 9.43408 14.8337 11.4458C14.8337 13.4575 13.1931 15.0933 11.1863 15.0933ZM18.3347 5.60596C18.3347 6.3335 17.7488 6.91455 17.0261 6.91455C16.2986 6.91455 15.7175 6.32861 15.7175 5.60596C15.7175 4.8833 16.3035 4.29736 17.0261 4.29736C17.7488 4.29736 18.3347 4.8833 18.3347 5.60596ZM22.0505 6.93408C21.9675 5.18115 21.5671 3.62842 20.283 2.34912C19.0037 1.06982 17.4509 0.669434 15.698 0.581543C13.8914 0.479004 8.47632 0.479004 6.66968 0.581543C4.92163 0.664551 3.3689 1.06494 2.08472 2.34424C0.800537 3.62354 0.405029 5.17627 0.317139 6.9292C0.2146 8.73584 0.2146 14.1509 0.317139 15.9575C0.400146 17.7104 0.800537 19.2632 2.08472 20.5425C3.3689 21.8218 4.91675 22.2222 6.66968 22.3101C8.47632 22.4126 13.8914 22.4126 15.698 22.3101C17.4509 22.2271 19.0037 21.8267 20.283 20.5425C21.5623 19.2632 21.9626 17.7104 22.0505 15.9575C22.1531 14.1509 22.1531 8.74072 22.0505 6.93408ZM19.7166 17.896C19.3357 18.853 18.5984 19.5903 17.6365 19.9761C16.196 20.5474 12.7781 20.4155 11.1863 20.4155C9.59448 20.4155 6.17163 20.5425 4.73608 19.9761C3.77905 19.5952 3.04175 18.8579 2.65601 17.896C2.08472 16.4556 2.21655 13.0376 2.21655 11.4458C2.21655 9.854 2.0896 6.43115 2.65601 4.99561C3.03687 4.03857 3.77417 3.30127 4.73608 2.91553C6.17651 2.34424 9.59448 2.47607 11.1863 2.47607C12.7781 2.47607 16.2009 2.34912 17.6365 2.91553C18.5935 3.29639 19.3308 4.03369 19.7166 4.99561C20.2878 6.43604 20.156 9.854 20.156 11.4458C20.156 13.0376 20.2878 16.4604 19.7166 17.896Z" fill="black"/>
</svg>
