<svg width="23" height="23" viewBox="0 0 23 23" fill="none" xmlns="http://www.w3.org/2000/svg">
<path d="M11.5281 6.09521C8.42261 6.09521 5.91772 8.6001 5.91772 11.7056C5.91772 14.811 8.42261 17.3159 11.5281 17.3159C14.6335 17.3159 17.1384 14.811 17.1384 11.7056C17.1384 8.6001 14.6335 6.09521 11.5281 6.09521ZM11.5281 15.353C9.52124 15.353 7.88061 13.7173 7.88061 11.7056C7.88061 9.69385 9.51636 8.05811 11.5281 8.05811C13.5398 8.05811 15.1755 9.69385 15.1755 11.7056C15.1755 13.7173 13.5349 15.353 11.5281 15.353ZM18.6765 5.86572C18.6765 6.59326 18.0906 7.17432 17.3679 7.17432C16.6404 7.17432 16.0593 6.58838 16.0593 5.86572C16.0593 5.14307 16.6453 4.55713 17.3679 4.55713C18.0906 4.55713 18.6765 5.14307 18.6765 5.86572ZM22.3923 7.19385C22.3093 5.44092 21.9089 3.88818 20.6248 2.60889C19.3455 1.32959 17.7927 0.929199 16.0398 0.841309C14.2332 0.73877 8.81812 0.73877 7.01147 0.841309C5.26343 0.924316 3.71069 1.32471 2.42651 2.604C1.14233 3.8833 0.746826 5.43603 0.658936 7.18896C0.556396 8.99561 0.556396 14.4106 0.658936 16.2173C0.741943 17.9702 1.14233 19.5229 2.42651 20.8022C3.71069 22.0815 5.25854 22.4819 7.01147 22.5698C8.81812 22.6724 14.2332 22.6724 16.0398 22.5698C17.7927 22.4868 19.3455 22.0864 20.6248 20.8022C21.9041 19.5229 22.3044 17.9702 22.3923 16.2173C22.4949 14.4106 22.4949 9.00049 22.3923 7.19385ZM20.0583 18.1558C19.6775 19.1128 18.9402 19.8501 17.9783 20.2358C16.5378 20.8071 13.1199 20.6753 11.5281 20.6753C9.93628 20.6753 6.51343 20.8022 5.07788 20.2358C4.12085 19.855 3.38355 19.1177 2.9978 18.1558C2.42651 16.7153 2.55835 13.2974 2.55835 11.7056C2.55835 10.1138 2.4314 6.69092 2.9978 5.25537C3.37866 4.29834 4.11597 3.56103 5.07788 3.17529C6.51831 2.604 9.93628 2.73584 11.5281 2.73584C13.1199 2.73584 16.5427 2.60889 17.9783 3.17529C18.9353 3.55615 19.6726 4.29346 20.0583 5.25537C20.6296 6.6958 20.4978 10.1138 20.4978 11.7056C20.4978 13.2974 20.6296 16.7202 20.0583 18.1558Z" fill="black"/>
</svg>
