<svg width="178" height="342" viewBox="0 0 178 342" fill="none" xmlns="http://www.w3.org/2000/svg">
<path d="M127.691 71.0686C123.302 78.5313 107.132 95.6577 77.5625 104.461C40.6009 115.466 15.177 150.376 12.1414 164.037C9.10567 177.697 7.21603 223.991 127.691 241.067C224.071 254.728 158.671 313.544 113.923 341.245" stroke="black" stroke-opacity="0.5" stroke-dasharray="20 20"/>
<path d="M144.574 22.2713C144.574 34.2668 122.855 66.6956 122.855 66.6956C122.855 66.6956 101.135 34.2668 101.135 22.2713C101.135 10.2758 110.859 0.551514 122.855 0.551514C134.85 0.551514 144.574 10.2758 144.574 22.2713Z" fill="#68E1FD" fill-opacity="0.5"/>
<circle cx="122.854" cy="23.1017" r="10.2106" fill="#FFD234"/>
<path d="M133.816 295.227C133.816 307.223 112.096 339.652 112.096 339.652C112.096 339.652 90.376 307.223 90.376 295.227C90.376 283.232 100.1 273.508 112.096 273.508C124.091 273.508 133.816 283.232 133.816 295.227Z" fill="#68E1FD" fill-opacity="0.5"/>
<circle cx="112.096" cy="296.058" r="10.2106" fill="#FFD234"/>
<path d="M30.6706 158.12C30.6706 166.527 15.4486 189.254 15.4486 189.254C15.4486 189.254 0.226562 166.527 0.226562 158.12C0.226562 149.713 7.04169 142.898 15.4486 142.898C23.8555 142.898 30.6706 149.713 30.6706 158.12Z" fill="#AEECEF"/>
<circle cx="15.4489" cy="158.702" r="7.15597" fill="#FFD234"/>
</svg>
