<svg width="151" height="83" viewBox="0 0 151 83" fill="none" xmlns="http://www.w3.org/2000/svg">
<rect x="44.1951" y="41.0005" width="28.5231" height="41.5336" fill="#AEECEF"/>
<path fill-rule="evenodd" clip-rule="evenodd" d="M0.580933 41.0083C0.581017 63.799 19.2913 82.2745 42.3716 82.2745C42.3725 82.2745 42.3734 82.2745 42.3743 82.2745L42.3743 41.0083H0.580933Z" fill="#70DCDC"/>
<path fill-rule="evenodd" clip-rule="evenodd" d="M42.774 0.883301L0.98336 39.4133H42.774V0.883301Z" fill="#AEECEF"/>
<ellipse cx="57.9059" cy="41.329" rx="9.73127" ry="9.57114" transform="rotate(38.4059 57.9059 41.329)" fill="#FFD234"/>
<path d="M82.9495 51.1434H88.2178V58.0285C87.5214 58.2586 86.7978 58.4433 86.0469 58.5825C85.296 58.7158 84.4452 58.7824 83.4945 58.7824C82.1744 58.7824 81.0542 58.522 80.1337 58.0012C79.2133 57.4805 78.5139 56.7114 78.0355 55.6941C77.5572 54.6768 77.318 53.4263 77.318 51.9427C77.318 50.55 77.5844 49.345 78.1173 48.3276C78.6562 47.3103 79.4404 46.5231 80.4698 45.966C81.5053 45.4089 82.7679 45.1304 84.2575 45.1304C84.9599 45.1304 85.6533 45.2061 86.3375 45.3575C87.0218 45.5088 87.6425 45.7056 88.1996 45.9479L87.264 48.2005C86.8583 47.9946 86.3951 47.822 85.8743 47.6827C85.3535 47.5435 84.8085 47.4738 84.2393 47.4738C83.4219 47.4738 82.7103 47.6615 82.1048 48.037C81.5053 48.4124 81.039 48.9392 80.706 49.6175C80.379 50.2896 80.2155 51.0829 80.2155 51.9972C80.2155 52.8632 80.3336 53.6322 80.5697 54.3044C80.8059 54.9705 81.1783 55.4943 81.687 55.8758C82.1956 56.2512 82.8587 56.4389 83.6762 56.4389C84.0758 56.4389 84.4119 56.4207 84.6844 56.3844C84.963 56.342 85.2233 56.2996 85.4656 56.2573V53.4869H82.9495V51.1434Z" fill="#FFD234"/>
<path d="M99.5172 58.6007L98.5544 55.4398H93.7131L92.7503 58.6007H89.7165L94.4034 45.2666H97.8459L102.551 58.6007H99.5172ZM97.8823 53.0781L96.9194 49.9899C96.8589 49.784 96.7771 49.5206 96.6742 49.1996C96.5773 48.8726 96.4774 48.5426 96.3744 48.2096C96.2776 47.8705 96.1988 47.5768 96.1383 47.3285C96.0777 47.5768 95.993 47.8856 95.884 48.255C95.781 48.6183 95.6811 48.9635 95.5842 49.2905C95.4873 49.6175 95.4177 49.8506 95.3753 49.9899L94.4216 53.0781H97.8823Z" fill="#FFD234"/>
<path d="M109.354 58.6007H106.539V47.6646H102.932V45.3211H112.96V47.6646H109.354V58.6007Z" fill="#FFD234"/>
<path d="M125.886 58.6007H123.079V52.8692H117.82V58.6007H115.004V45.3211H117.82V50.5258H123.079V45.3211H125.886V58.6007Z" fill="#FFD234"/>
<path d="M136.894 58.6007H129.246V45.3211H136.894V47.6282H132.062V50.5439H136.558V52.8511H132.062V56.2754H136.894V58.6007Z" fill="#FFD234"/>
<path d="M143.543 45.3211C144.748 45.3211 145.741 45.4664 146.523 45.7571C147.31 46.0478 147.894 46.4868 148.276 47.0742C148.657 47.6615 148.848 48.4033 148.848 49.2995C148.848 49.9051 148.733 50.4349 148.503 50.8891C148.273 51.3433 147.97 51.7278 147.594 52.0427C147.219 52.3575 146.813 52.6149 146.377 52.8147L150.283 58.6007H147.158L143.988 53.5051H142.49V58.6007H139.674V45.3211H143.543ZM143.344 47.6282H142.49V51.2161H143.398C144.331 51.2161 144.997 51.0617 145.396 50.7529C145.802 50.438 146.005 49.9778 146.005 49.3722C146.005 48.7424 145.787 48.2943 145.351 48.0279C144.921 47.7615 144.252 47.6282 143.344 47.6282Z" fill="#FFD234"/>
<path d="M80.076 77.0634V63.7838H82.8918V74.7381H88.2781V77.0634H80.076Z" fill="#FFD234"/>
<path d="M92.3616 77.0634V63.7838H95.1774V77.0634H92.3616Z" fill="#FFD234"/>
<path d="M110.706 63.7838L106.191 77.0634H103.121L98.6159 63.7838H101.459L103.957 71.6861C103.999 71.8193 104.069 72.0706 104.166 72.44C104.263 72.8033 104.359 73.1909 104.456 73.6027C104.559 74.0084 104.629 74.3445 104.665 74.6109C104.702 74.3445 104.765 74.0084 104.856 73.6027C104.953 73.197 105.047 72.8124 105.138 72.4491C105.234 72.0797 105.304 71.8254 105.347 71.6861L107.863 63.7838H110.706Z" fill="#FFD234"/>
<path d="M114.153 77.0634V63.7838H116.969V77.0634H114.153Z" fill="#FFD234"/>
<path d="M133.86 77.0634H130.281L124.504 67.0174H124.422C124.446 67.4352 124.468 67.8561 124.486 68.2799C124.504 68.7038 124.522 69.1277 124.54 69.5516C124.558 69.9694 124.577 70.3903 124.595 70.8141V77.0634H122.079V63.7838H125.63L131.398 73.7298H131.462C131.45 73.3181 131.434 72.9093 131.416 72.5036C131.398 72.0979 131.38 71.6922 131.362 71.2865C131.35 70.8807 131.338 70.475 131.325 70.0693V63.7838H133.86V77.0634Z" fill="#FFD234"/>
<path d="M144.02 69.6061H149.288V76.4911C148.592 76.7212 147.868 76.9059 147.117 77.0452C146.366 77.1784 145.515 77.245 144.565 77.245C143.245 77.245 142.124 76.9846 141.204 76.4639C140.284 75.9431 139.584 75.1741 139.106 74.1567C138.627 73.1394 138.388 71.889 138.388 70.4054C138.388 69.0126 138.655 67.8076 139.187 66.7903C139.726 65.773 140.511 64.9858 141.54 64.4287C142.575 63.8716 143.838 63.593 145.328 63.593C146.03 63.593 146.723 63.6687 147.408 63.8201C148.092 63.9715 148.713 64.1683 149.27 64.4105L148.334 66.6631C147.929 66.4572 147.465 66.2847 146.945 66.1454C146.424 66.0061 145.879 65.9365 145.31 65.9365C144.492 65.9365 143.781 66.1242 143.175 66.4996C142.576 66.8751 142.109 67.4019 141.776 68.0801C141.449 68.7523 141.286 69.5455 141.286 70.4599C141.286 71.3258 141.404 72.0949 141.64 72.767C141.876 73.4331 142.249 73.9569 142.757 74.3384C143.266 74.7138 143.929 74.9016 144.746 74.9016C145.146 74.9016 145.482 74.8834 145.755 74.8471C146.033 74.8047 146.294 74.7623 146.536 74.7199V71.9495H144.02V69.6061Z" fill="#FFD234"/>
</svg>
