<svg width="181" height="99" fill="none" xmlns="http://www.w3.org/2000/svg"><path fill="#AEECEF" d="M53.109 48.499h34.152v49.73H53.109z"/><path fill-rule="evenodd" clip-rule="evenodd" d="M.889 48.508c0 27.288 22.403 49.41 50.037 49.41h.004v-49.41H.889Z" fill="#70DCDC"/><path fill-rule="evenodd" clip-rule="evenodd" d="M51.408.465 1.37 46.6h50.038V.465Z" fill="#AEECEF"/><ellipse cx="69.526" cy="48.892" rx="11.652" ry="11.46" transform="rotate(38.406 69.526 48.892)" fill="#FFD234"/><path d="M99.511 60.644h6.308v8.243c-.834.276-1.7.497-2.599.664-.899.16-1.918.239-3.056.239-1.58 0-2.922-.312-4.024-.935-1.102-.624-1.94-1.545-2.512-2.763-.573-1.218-.86-2.715-.86-4.492 0-1.667.32-3.11.958-4.328a6.747 6.747 0 0 1 2.816-2.828c1.24-.667 2.752-1 4.536-1 .841 0 1.671.09 2.49.272.819.181 1.562.417 2.23.707l-1.121 2.697a8.538 8.538 0 0 0-1.664-.62 7.54 7.54 0 0 0-1.957-.25c-.979 0-1.831.224-2.556.674-.718.45-1.276 1.08-1.675 1.892-.391.805-.587 1.755-.587 2.85 0 1.037.141 1.957.424 2.762.283.798.729 1.425 1.338 1.882.609.45 1.403.674 2.381.674.479 0 .881-.022 1.208-.065.333-.051.645-.102.935-.153V63.45h-3.013v-2.805ZM119.349 69.572l-1.153-3.784h-5.797l-1.153 3.784h-3.632l5.612-15.965h4.121l5.634 15.965h-3.632Zm-1.958-6.612-1.153-3.698c-.072-.246-.17-.562-.294-.946a110.64 110.64 0 0 0-.358-1.185 27.57 27.57 0 0 1-.283-1.055c-.073.297-.174.667-.305 1.11a103.248 103.248 0 0 1-.609 2.076l-1.142 3.698h4.144ZM131.127 69.572h-3.372V56.478h-4.317v-2.806h12.006v2.806h-4.317v13.094ZM150.92 69.572h-3.36V62.71h-6.297v6.862h-3.372v-15.9h3.372v6.232h6.297v-6.232h3.36v15.9ZM164.102 69.572h-9.158v-15.9h9.158v2.763h-5.786v3.49h5.383v2.763h-5.383v4.1h5.786v2.784ZM172.063 53.672c1.442 0 2.631.174 3.567.522.942.348 1.642.874 2.099 1.577.457.703.685 1.592.685 2.665 0 .725-.138 1.36-.413 1.903a4.34 4.34 0 0 1-1.088 1.381 6.416 6.416 0 0 1-1.457.925l4.676 6.927h-3.741l-3.796-6.1h-1.794v6.1h-3.371v-15.9h4.633Zm-.24 2.763h-1.022v4.295h1.088c1.116 0 1.914-.184 2.392-.554.486-.377.729-.928.729-1.653 0-.754-.261-1.29-.783-1.61-.515-.319-1.316-.478-2.404-.478ZM96.071 91.678v-15.9h3.372v13.116h6.449v2.784h-9.82ZM110.781 91.678v-15.9h3.372v15.9h-3.372ZM132.745 75.778l-5.405 15.9h-3.676l-5.394-15.9h3.404l2.991 9.462a48.84 48.84 0 0 1 .598 2.295c.123.486.206.888.25 1.207.043-.32.119-.722.228-1.207.116-.486.229-.947.337-1.382.116-.442.2-.746.251-.913l3.012-9.462h3.404ZM136.873 91.678v-15.9h3.372v15.9h-3.372ZM160.468 91.678h-4.285l-6.917-12.028h-.097c.029.5.054 1.004.076 1.512l.065 1.522.065 1.512v7.482h-3.012v-15.9h4.252l6.906 11.909h.076a87.039 87.039 0 0 0-.054-1.468l-.065-1.458-.044-1.457v-7.526h3.034v15.9ZM172.633 82.75h6.308v8.243c-.834.276-1.7.497-2.599.664-.899.16-1.918.239-3.056.239-1.581 0-2.922-.312-4.024-.936-1.102-.623-1.94-1.544-2.512-2.762-.573-1.218-.86-2.715-.86-4.491 0-1.668.32-3.11.958-4.329a6.747 6.747 0 0 1 2.816-2.828c1.24-.667 2.752-1 4.535-1 .841 0 1.672.09 2.491.272a12.2 12.2 0 0 1 2.229.707l-1.12 2.697a8.556 8.556 0 0 0-1.664-.62 7.543 7.543 0 0 0-1.957-.25c-.979 0-1.831.225-2.556.674-.718.45-1.276 1.08-1.675 1.892-.391.805-.587 1.755-.587 2.85 0 1.037.141 1.957.424 2.762.283.798.729 1.425 1.338 1.882.609.45 1.403.674 2.381.674.479 0 .881-.022 1.208-.065.333-.051.645-.102.935-.153v-3.317h-3.013V82.75Z" fill="#FFD234"/></svg>