<svg width="488" height="417" viewBox="0 0 488 417" fill="none" xmlns="http://www.w3.org/2000/svg">
<path d="M443.98 92.4016C385.821 106.239 265.742 142.215 250.694 175.424C231.884 216.935 505.339 251.206 459.2 309.038C394.093 390.646 119.66 427.237 33.5635 413.246" stroke="black" stroke-dasharray="10 10"/>
<path d="M487.812 253.568C487.812 266.247 464.854 300.524 464.854 300.524C464.854 300.524 441.896 266.247 441.896 253.568C441.896 240.889 452.175 230.611 464.854 230.611C477.533 230.611 487.812 240.889 487.812 253.568Z" fill="#AEECEF"/>
<circle cx="464.854" cy="254.446" r="10.7926" fill="#FFD234"/>
<path d="M443.896 33.0068C443.896 51.0983 411.138 100.007 411.138 100.007C411.138 100.007 378.381 51.0983 378.381 33.0068C378.381 14.9153 393.047 0.249268 411.138 0.249268C429.23 0.249268 443.896 14.9153 443.896 33.0068Z" fill="#68E1FD"/>
<circle cx="411.139" cy="34.2594" r="15.3995" fill="#FFD234"/>
<path d="M66.3208 345.391C66.3208 363.482 33.5632 412.391 33.5632 412.391C33.5632 412.391 0.805664 363.482 0.805664 345.391C0.805664 327.299 15.4717 312.633 33.5632 312.633C51.6547 312.633 66.3208 327.299 66.3208 345.391Z" fill="#68E1FD"/>
<circle cx="33.5636" cy="346.643" r="15.3995" fill="#FFD234"/>
</svg>
