<svg xmlns="http://www.w3.org/2000/svg" width="97" height="136" fill="none"><path fill="#F1F2F2" d="m41.34 131.893-40.07-1.385-1.172-97.69a8.91 8.91 0 0 1 2.594-6.37l41.62-23.274a8.817 8.817 0 0 1 11.929-.546l25.258 21.01a8.822 8.822 0 0 1 3.193 6.915l-.868 73.468 10.978 15.247.023.033 1.86 16.12-55.345-3.528Z"/><path fill="#68E1FD" d="M44.991 25.92v-4.53c0-1.195.973-2.168 2.169-2.168h6.364a2.17 2.17 0 0 1 2.169 2.168v4.53a2.17 2.17 0 0 1-2.169 2.169H47.16a2.171 2.171 0 0 1-2.169-2.169Z"/><path fill="#1EBCC3" d="M31.538 61.082v-16.76c0-1.196.973-2.168 2.169-2.168h9.422a2.17 2.17 0 0 1 2.168 2.168v16.76a2.17 2.17 0 0 1-2.168 2.169h-9.422a2.171 2.171 0 0 1-2.169-2.169ZM8.71 80.553v-16.76c0-1.196.973-2.169 2.168-2.169h9.423a2.17 2.17 0 0 1 2.168 2.169v16.76a2.17 2.17 0 0 1-2.168 2.169h-9.422a2.171 2.171 0 0 1-2.169-2.169ZM52.837 100.315a2.175 2.175 0 0 1-2.091-2.104l-.477-16.2a2.15 2.15 0 0 1 .822-1.763 2.153 2.153 0 0 1 1.905-.396l.476.128a2.171 2.171 0 0 1 1.61 2.095v16.072a2.15 2.15 0 0 1-.662 1.56c-.409.395-.94.609-1.504.609l-.08-.001ZM33.067 98.08V81.27c0-1.186.93-2.138 2.116-2.168l8.564-.209c1.187-.016 2.186.916 2.22 2.106l.494 17.017c.017.591-.2 1.15-.613 1.574a2.152 2.152 0 0 1-1.555.658h-9.057a2.171 2.171 0 0 1-2.169-2.169Z"/><path fill="#CCC" d="m83.685 109.565 6.712 11.933.77 13.42 5.345.339-1.834-15.899L83.67 104.07a5.63 5.63 0 0 0 .014 5.495Z"/><path fill="#3F3D56" d="m90.953 131.077-21.785.298.004.306 21.785-.298-.004-.306ZM89.631 128.378l-20.655.162.002.305 20.655-.161-.002-.306ZM88.559 125.621l-19.758.386.006.305 19.758-.385-.006-.306ZM87.946 122.878l-18.974.63.01.306 18.974-.63-.01-.306ZM87.029 120.437l-18.23.641.01.305 18.23-.641-.01-.305ZM85.81 118.288H68.056v.306H85.81v-.306ZM84.892 116.142l-17.256.202.003.306 17.256-.202-.003-.306ZM83.97 114.003l-16.72.556.01.305 16.72-.555-.01-.306ZM83.362 111.875l-16.511.29.005.306 16.511-.291-.005-.305ZM82.137 109.757l-15.81.494.01.306 15.81-.494-.01-.306ZM81.528 107.892l-15.67.153.003.306 15.67-.153-.003-.306Z"/><path fill="#68E1FD" d="M64.713 101.596V80.86c0-1.195.973-2.168 2.168-2.168h10.034a2.17 2.17 0 0 1 2.169 2.169v20.735a2.17 2.17 0 0 1-2.169 2.168H66.881a2.171 2.171 0 0 1-2.168-2.168Z"/><path fill="#CCC" d="m41.34 131.893-36.107-1.131-.143-.009v-13.746c0-1.739 19.76-3.153 21.498-3.153h17.544a3.156 3.156 0 0 1 3.153 3.153v14.887h-.153l-5.792-.001Z"/><path fill="#1EBCC3" d="M65.936 63.987V48.144c0-1.196.972-2.169 2.168-2.169h3.307a2.17 2.17 0 0 1 2.168 2.169v15.843a2.17 2.17 0 0 1-2.168 2.169h-3.307a2.171 2.171 0 0 1-2.168-2.169Z"/><path fill="#CCC" d="m69.3 133.422-.918-13.453-2.752-12.842-.764-3.516c-1.571-1.068-3.686.12-3.591 2.017l.075 1.499 2.751 12.842.918 13.453"/></svg>