<svg width="167" height="156" viewBox="0 0 167 156" fill="none" xmlns="http://www.w3.org/2000/svg">
<rect x="0.333984" y="0.997314" width="165.935" height="154.334" fill="#FFD234"/>
<path d="M75.3405 140.893L35.2698 139.508L34.0983 41.8183C34.0699 39.4471 35.0153 37.1253 36.6922 35.4484L78.3122 12.1738C81.5703 8.91605 86.6983 8.68061 90.2408 11.6276L115.499 32.6388C117.559 34.3529 118.723 36.8731 118.691 39.5533L117.824 113.021L128.802 128.268L128.825 128.301L130.685 144.421L75.3405 140.893Z" fill="#F1F2F2"/>
<path d="M78.9912 34.9202V30.3902C78.9912 29.1945 79.964 28.2217 81.1597 28.2217H87.5244C88.7201 28.2217 89.6928 29.1945 89.6928 30.3902V34.9202C89.6928 36.1159 88.7201 37.0887 87.5244 37.0887H81.1597C79.964 37.0887 78.9912 36.1159 78.9912 34.9202Z" fill="#68E1FD"/>
<path d="M65.5381 70.0824V53.3221C65.5381 52.1264 66.5109 51.1536 67.7066 51.1536H77.1289C78.3246 51.1536 79.2972 52.1264 79.2972 53.3221V70.0824C79.2972 71.2781 78.3246 72.2509 77.1289 72.2509H67.7066C66.5109 72.2509 65.5381 71.2781 65.5381 70.0824Z" fill="#1EBCC3"/>
<path d="M42.71 89.5532V72.7929C42.71 71.5972 43.6828 70.6244 44.8785 70.6244H54.3007C55.4964 70.6244 56.4691 71.5972 56.4691 72.7929V89.5532C56.4691 90.7489 55.4964 91.7217 54.3007 91.7217H44.8785C43.6828 91.7217 42.71 90.7489 42.71 89.5532Z" fill="#1EBCC3"/>
<path d="M86.8368 109.315C85.698 109.274 84.7797 108.35 84.7459 107.211L84.2695 91.0115C84.2492 90.32 84.5486 89.6774 85.0908 89.2477C85.633 88.8184 86.3274 88.675 86.996 88.8524L87.4724 88.9796C88.4201 89.2325 89.0821 90.0939 89.0821 91.0748V107.147C89.0821 107.741 88.8468 108.295 88.4197 108.708C88.0115 109.102 87.4801 109.316 86.9158 109.316C86.8895 109.316 86.8632 109.316 86.8368 109.315Z" fill="#1EBCC3"/>
<path d="M67.0674 107.079V90.2703C67.0674 89.0837 67.9968 88.1315 69.1831 88.1022L77.7468 87.8935C78.9339 87.8771 79.9327 88.8087 79.9675 89.9986L80.4608 107.016C80.4778 107.607 80.2604 108.166 79.8483 108.59C79.4366 109.014 78.8842 109.248 78.2931 109.248H69.2359C68.0402 109.248 67.0674 108.275 67.0674 107.079Z" fill="#1EBCC3"/>
<path d="M117.685 118.565L124.397 130.498L125.168 143.918L130.512 144.257L128.678 128.358L117.671 113.07C116.721 114.78 116.726 116.86 117.685 118.565Z" fill="#CCCCCC"/>
<path d="M124.953 140.077L103.168 140.375L103.172 140.681L124.957 140.383L124.953 140.077Z" fill="#3F3D56"/>
<path d="M123.631 137.378L102.976 137.54L102.978 137.845L123.633 137.684L123.631 137.378Z" fill="#3F3D56"/>
<path d="M122.559 134.621L102.801 135.007L102.807 135.312L122.565 134.927L122.559 134.621Z" fill="#3F3D56"/>
<path d="M121.946 131.878L102.972 132.508L102.982 132.814L121.956 132.184L121.946 131.878Z" fill="#3F3D56"/>
<path d="M121.029 129.437L102.799 130.078L102.81 130.383L121.04 129.742L121.029 129.437Z" fill="#3F3D56"/>
<path d="M119.81 127.288H102.055V127.594H119.81V127.288Z" fill="#3F3D56"/>
<path d="M118.892 125.142L101.636 125.344L101.639 125.65L118.895 125.448L118.892 125.142Z" fill="#3F3D56"/>
<path d="M117.971 123.003L101.25 123.559L101.26 123.864L117.981 123.309L117.971 123.003Z" fill="#3F3D56"/>
<path d="M117.362 120.875L100.851 121.165L100.856 121.471L117.367 121.18L117.362 120.875Z" fill="#3F3D56"/>
<path d="M116.137 118.757L100.327 119.251L100.337 119.557L116.146 119.063L116.137 118.757Z" fill="#3F3D56"/>
<path d="M115.529 116.892L99.8584 117.045L99.8614 117.351L115.532 117.198L115.529 116.892Z" fill="#3F3D56"/>
<path d="M98.7129 110.596V89.8605C98.7129 88.6646 99.6857 87.6918 100.881 87.6918H110.915C112.111 87.6918 113.084 88.6646 113.084 89.8605V110.596C113.084 111.791 112.111 112.764 110.915 112.764H100.881C99.6857 112.764 98.7129 111.791 98.7129 110.596Z" fill="#68E1FD"/>
<path d="M75.3402 140.893L39.233 139.762L39.0898 139.753V126.007C39.0898 124.268 58.8497 122.854 60.5881 122.854H78.1319C79.8703 122.854 81.2845 124.268 81.2845 126.007V140.894H81.1317L75.3402 140.893Z" fill="#CCCCCC"/>
<path d="M99.9355 72.9872V57.144C99.9355 55.9483 100.908 54.9755 102.104 54.9755H105.411C106.607 54.9755 107.58 55.9483 107.58 57.144V72.9872C107.58 74.1827 106.607 75.1555 105.411 75.1555H102.104C100.908 75.1555 99.9355 74.1827 99.9355 72.9872Z" fill="#1EBCC3"/>
<path d="M103.299 142.422L102.382 128.969L99.6301 116.127L98.8657 112.611C97.295 111.543 95.1797 112.731 95.2746 114.628L95.3495 116.127L98.1013 128.969L99.0186 142.422" fill="#CCCCCC"/>
</svg>
