<svg width="201" height="187" viewBox="0 0 201 187" fill="none" xmlns="http://www.w3.org/2000/svg">
<rect x="0.276794" y="0.714355" width="199.966" height="185.986" fill="#1EBCC3"/>
<path d="M90.6659 169.301L42.3774 167.632L40.9656 49.907C40.9314 47.0496 42.0706 44.2516 44.0914 42.2308L94.2471 14.183C98.1734 10.2571 104.353 9.97336 108.622 13.5247L139.06 38.845C141.543 40.9106 142.946 43.9477 142.908 47.1775L141.862 135.713L155.091 154.087L155.119 154.125L157.361 173.552L90.6659 169.301Z" fill="#F1F2F2"/>
<path d="M95.0658 41.5942V36.1352C95.0658 34.6943 96.2381 33.522 97.679 33.522H105.349C106.79 33.522 107.962 34.6943 107.962 36.1352V41.5942C107.962 43.0351 106.79 44.2075 105.349 44.2075H97.679C96.2381 44.2075 95.0658 43.0351 95.0658 41.5942Z" fill="#68E1FD"/>
<path d="M78.8535 83.9677V63.7701C78.8535 62.3292 80.0258 61.1569 81.4668 61.1569H92.8214C94.2623 61.1569 95.4344 62.3292 95.4344 63.7701V83.9677C95.4344 85.4086 94.2623 86.581 92.8214 86.581H81.4668C80.0258 86.581 78.8535 85.4086 78.8535 83.9677Z" fill="#FFD234"/>
<path d="M51.3439 107.432V87.2341C51.3439 85.7932 52.5162 84.6209 53.9572 84.6209H65.3118C66.7527 84.6209 67.9248 85.7932 67.9248 87.2341V107.432C67.9248 108.873 66.7527 110.045 65.3118 110.045H53.9572C52.5162 110.045 51.3439 108.873 51.3439 107.432Z" fill="#FFD234"/>
<path d="M104.52 131.246C103.147 131.197 102.041 130.084 102 128.711L101.426 109.189C101.401 108.356 101.762 107.581 102.416 107.063C103.069 106.546 103.906 106.373 104.711 106.587L105.286 106.74C106.428 107.045 107.225 108.083 107.225 109.265V128.634C107.225 129.349 106.942 130.017 106.427 130.514C105.935 130.989 105.295 131.247 104.615 131.247C104.583 131.247 104.551 131.247 104.52 131.246Z" fill="#FFD234"/>
<path d="M80.6956 128.552V108.296C80.6956 106.866 81.8156 105.718 83.2452 105.683L93.5653 105.432C94.9958 105.412 96.1994 106.534 96.2413 107.968L96.8357 128.476C96.8563 129.188 96.5943 129.862 96.0977 130.373C95.6015 130.884 94.9358 131.165 94.2236 131.165H83.3089C81.8679 131.165 80.6956 129.993 80.6956 128.552Z" fill="#FFD234"/>
<path d="M141.694 142.394L149.783 156.774L150.712 172.945L157.153 173.354L154.942 154.194L141.677 135.771C140.532 137.832 140.539 140.339 141.694 142.394Z" fill="#CCCCCC"/>
<path d="M150.453 168.317L124.2 168.676L124.205 169.044L150.458 168.685L150.453 168.317Z" fill="#3F3D56"/>
<path d="M148.86 165.065L123.969 165.259L123.972 165.628L148.863 165.433L148.86 165.065Z" fill="#3F3D56"/>
<path d="M147.568 161.742L123.758 162.207L123.765 162.575L147.576 162.11L147.568 161.742Z" fill="#3F3D56"/>
<path d="M146.83 158.437L123.964 159.196L123.976 159.565L146.842 158.805L146.83 158.437Z" fill="#3F3D56"/>
<path d="M145.724 155.495L123.755 156.267L123.768 156.635L145.737 155.863L145.724 155.495Z" fill="#3F3D56"/>
<path d="M144.256 152.905H122.859V153.273H144.256V152.905Z" fill="#3F3D56"/>
<path d="M143.148 150.319L122.354 150.563L122.358 150.931L143.153 150.688L143.148 150.319Z" fill="#3F3D56"/>
<path d="M142.039 147.742L121.889 148.411L121.901 148.78L142.051 148.111L142.039 147.742Z" fill="#3F3D56"/>
<path d="M141.305 145.177L121.408 145.526L121.414 145.895L141.312 145.545L141.305 145.177Z" fill="#3F3D56"/>
<path d="M139.828 142.625L120.777 143.22L120.788 143.588L139.84 142.993L139.828 142.625Z" fill="#3F3D56"/>
<path d="M139.096 140.377L120.212 140.561L120.215 140.93L139.099 140.745L139.096 140.377Z" fill="#3F3D56"/>
<path d="M118.832 132.79V107.802C118.832 106.361 120.004 105.188 121.445 105.188H133.537C134.978 105.188 136.15 106.361 136.15 107.802V132.79C136.15 134.23 134.978 135.403 133.537 135.403H121.445C120.004 135.403 118.832 134.23 118.832 132.79Z" fill="#68E1FD"/>
<path d="M90.6658 169.301L47.1537 167.938L46.9811 167.926V151.361C46.9811 149.266 70.7934 147.562 72.8883 147.562H94.03C96.125 147.562 97.8293 149.266 97.8293 151.361V169.301H97.6451L90.6658 169.301Z" fill="#CCCCCC"/>
<path d="M120.306 87.4682V68.3759C120.306 66.9349 121.478 65.7626 122.919 65.7626H126.904C128.345 65.7626 129.517 66.9349 129.517 68.3759V87.4682C129.517 88.909 128.345 90.0813 126.904 90.0813H122.919C121.478 90.0813 120.306 88.909 120.306 87.4682Z" fill="#FFD234"/>
<path d="M124.359 171.144L123.254 154.931L119.937 139.456L119.016 135.218C117.123 133.931 114.574 135.363 114.689 137.649L114.779 139.456L118.095 154.931L119.201 171.144" fill="#CCCCCC"/>
</svg>
