<svg width="262" height="300" viewBox="0 0 262 300" fill="none" xmlns="http://www.w3.org/2000/svg">
<path d="M119.409 43.1136C124.111 42.7753 128.838 43.0708 133.462 43.992C140.792 45.5972 147.94 49.8981 151.075 56.728C153.18 61.2712 153.286 66.6018 153.346 71.675L153.573 89.2117V94.8301C153.573 99.1007 153.679 103.371 153.664 107.642C153.75 112.077 153.4 116.511 152.619 120.878C151.105 127.904 147.334 134.825 140.943 138.066C136.669 139.975 131.978 140.762 127.314 140.353C117.265 140.071 107.527 136.803 99.3431 130.963C95.2921 128.022 91.8726 124.298 89.2869 120.011C86.7013 115.724 85.0021 110.962 84.29 106.006C83.7146 101.206 85.2138 95.9053 85.3804 90.9684C85.5109 85.3391 85.9609 79.7218 86.7282 74.1435C88.1517 64.3757 90.8776 51.6396 100.237 46.3241C103.462 44.4917 107.294 44.1131 110.974 43.7648C113.806 43.4771 116.607 43.2196 119.409 43.1136Z" fill="#231F20"/>
<path d="M129.494 141.125C128.798 141.125 128.071 141.125 127.329 141.125C117.105 140.865 107.197 137.524 98.9037 131.539C94.7636 128.544 91.2708 124.745 88.6348 120.368C85.9987 115.991 84.2736 111.127 83.5629 106.067C83.3331 102.954 83.4959 99.8252 84.0475 96.7533C84.305 94.8149 84.5776 92.8007 84.6382 90.9077C84.7623 85.248 85.2123 79.6 85.986 73.992C87.5004 63.6033 90.5291 50.9884 99.8881 45.6426C103.311 43.7042 107.354 43.3256 110.928 42.9924C113.518 42.7501 116.456 42.4775 119.333 42.3261C124.107 41.9882 128.904 42.2886 133.598 43.2196C142.018 45.0671 148.742 49.9889 151.771 56.3796C153.982 61.2257 154.058 66.7532 154.118 71.6295L154.406 94.7846C154.406 99.0703 154.512 103.386 154.482 107.627C154.566 112.108 154.211 116.587 153.422 120.999C151.741 129.222 147.364 135.673 141.307 138.702C137.62 140.443 133.569 141.274 129.494 141.125ZM119.439 43.8405C116.607 43.9768 113.669 44.2493 111.095 44.4916C107.672 44.8097 103.795 45.1731 100.66 46.945C91.8012 51.9727 88.9845 64.1636 87.5155 74.204C86.748 79.7569 86.298 85.349 86.1677 90.9532C86.0735 92.9817 85.8713 95.0037 85.5619 97.0107C85.0438 99.959 84.8811 102.959 85.0773 105.946C85.7658 110.804 87.4285 115.473 89.9657 119.674C92.503 123.874 95.8625 127.518 99.8426 130.388C107.894 136.164 117.498 139.383 127.405 139.626C133.008 139.868 137.233 139.171 140.656 137.43C146.228 134.598 150.332 128.525 151.938 120.772C152.704 116.454 153.049 112.072 152.968 107.687C152.968 103.462 152.968 99.1612 152.968 94.9966L152.68 71.7204C152.68 66.9955 152.543 61.6346 150.454 57.0914C147.728 51.1247 141.367 46.4906 133.371 44.7794C128.812 43.8738 124.151 43.5835 119.515 43.9162L119.439 43.8405Z" fill="#231F20"/>
<path d="M61.5584 69.8426L38.5094 85.9255L20.155 50.837C20.155 50.837 21.3059 36.2837 19.004 34.6784C16.7022 33.0732 15.5512 39.7668 15.5512 39.7668C15.5512 39.7668 10.478 25.6678 8.87274 26.2584C7.26749 26.849 1.30078 30.529 1.30078 34.209C1.30078 37.8889 22.0328 105.673 28.0147 108.414C33.9965 111.155 80.4126 83.7447 80.4126 83.7447" fill="white"/>
<path d="M28.909 109.353C28.4588 109.371 28.0099 109.293 27.5915 109.126C24.7899 107.824 19.4138 95.2996 11.5844 71.9022C6.05685 55.3802 0.46875 36.3443 0.46875 34.209C0.46875 29.9839 6.92006 26.1373 8.57075 25.5467C8.70705 25.4879 8.85392 25.4576 9.00235 25.4576C9.15078 25.4576 9.29764 25.4879 9.43395 25.5467C11.0543 26.3039 13.7954 33.0278 15.3552 37.1469C15.8095 35.7386 16.5213 34.1182 17.5814 33.7547C17.8799 33.6325 18.2055 33.5919 18.5249 33.6371C18.8443 33.6824 19.1458 33.8118 19.3987 34.0121C21.8065 35.6931 21.1705 46.8845 20.913 50.6705L38.8434 84.8049L61.1959 69.2066C61.3607 69.1043 61.5585 69.0692 61.7485 69.1085C61.9385 69.1478 62.1062 69.2585 62.2169 69.4178C62.3276 69.5771 62.373 69.7728 62.3436 69.9646C62.3143 70.1564 62.2124 70.3296 62.0591 70.4484L38.9343 86.5464C38.8471 86.6072 38.7483 86.6493 38.6441 86.6702C38.5398 86.691 38.4324 86.6901 38.3286 86.6676C38.2232 86.6386 38.1247 86.5889 38.0388 86.5213C37.953 86.4537 37.8816 86.3695 37.8288 86.2738L19.4138 51.1854C19.3382 51.0632 19.3062 50.9191 19.3229 50.7765C19.8681 43.992 19.7015 36.1323 18.49 35.2842C18.278 35.1479 18.1871 35.1782 18.1417 35.1934C17.3542 35.5265 16.5213 38.1313 16.2184 39.9031C16.189 40.0672 16.1063 40.217 15.9831 40.3292C15.8599 40.4415 15.703 40.51 15.5369 40.524C15.3703 40.5426 15.2024 40.5029 15.0617 40.4119C14.9209 40.3208 14.816 40.1839 14.7646 40.0243C12.7202 34.3605 9.94885 27.9091 8.85848 27.0459C7.16236 27.7577 1.95286 31.1197 1.95286 34.209C1.95286 38.4493 23.0483 105.385 28.2276 107.748C32.3467 109.656 62.1197 93.6338 79.9289 83.1087C80.1014 83.0104 80.3056 82.9838 80.4976 83.0346C80.6895 83.0854 80.8538 83.2096 80.9551 83.3804C81.0564 83.5512 81.0865 83.7549 81.039 83.9477C80.9916 84.1405 80.8702 84.3069 80.7012 84.4111C76.1883 87.031 38.2377 109.353 28.909 109.353Z" fill="#231F20"/>
<path d="M231.292 289.551H229.763C228.148 289.551 226.84 290.859 226.84 292.473V296.078C226.84 297.692 228.148 299 229.763 299H231.292C232.906 299 234.215 297.692 234.215 296.078V292.473C234.215 290.859 232.906 289.551 231.292 289.551Z" fill="#231F20"/>
<path d="M231.278 299.743H229.763C229.279 299.739 228.8 299.639 228.354 299.449C227.908 299.26 227.504 298.984 227.165 298.638C226.825 298.292 226.558 297.882 226.378 297.432C226.197 296.983 226.108 296.502 226.114 296.017V292.428C226.114 291.452 226.501 290.516 227.191 289.826C227.882 289.136 228.818 288.748 229.794 288.748H231.308C232.284 288.748 233.22 289.136 233.91 289.826C234.6 290.516 234.988 291.452 234.988 292.428V296.017C234.994 296.507 234.902 296.993 234.718 297.446C234.534 297.9 234.261 298.313 233.916 298.66C233.57 299.006 233.159 299.281 232.706 299.467C232.253 299.653 231.767 299.747 231.278 299.743ZM229.763 290.308C229.189 290.308 228.638 290.536 228.232 290.942C227.826 291.348 227.598 291.899 227.598 292.473V296.017C227.598 296.591 227.826 297.142 228.232 297.548C228.638 297.955 229.189 298.183 229.763 298.183H231.278C231.852 298.183 232.403 297.955 232.809 297.548C233.215 297.142 233.443 296.591 233.443 296.017V292.428C233.443 291.854 233.215 291.303 232.809 290.897C232.403 290.491 231.852 290.262 231.278 290.262L229.763 290.308Z" fill="#231F20"/>
<path d="M198.703 289.551H197.174C195.56 289.551 194.251 290.859 194.251 292.473V296.078C194.251 297.692 195.56 299 197.174 299H198.703C200.317 299 201.626 297.692 201.626 296.078V292.473C201.626 290.859 200.317 289.551 198.703 289.551Z" fill="#231F20"/>
<path d="M198.688 299.743H197.173C196.197 299.743 195.261 299.355 194.571 298.665C193.881 297.975 193.493 297.039 193.493 296.063V292.473C193.493 291.497 193.881 290.561 194.571 289.871C195.261 289.181 196.197 288.793 197.173 288.793H198.688C199.665 288.793 200.602 289.181 201.295 289.87C201.988 290.56 202.379 291.496 202.383 292.473V296.017C202.387 296.505 202.294 296.989 202.11 297.44C201.926 297.892 201.655 298.303 201.311 298.65C200.968 298.996 200.559 299.271 200.109 299.458C199.658 299.646 199.175 299.743 198.688 299.743ZM197.173 290.308C196.599 290.308 196.048 290.536 195.642 290.942C195.236 291.348 195.008 291.899 195.008 292.473V296.017C195.008 296.591 195.236 297.142 195.642 297.548C196.048 297.955 196.599 298.183 197.173 298.183H198.688C199.263 298.183 199.816 297.955 200.224 297.549C200.633 297.144 200.864 296.593 200.868 296.017V292.428C200.864 291.852 200.633 291.301 200.224 290.896C199.816 290.49 199.263 290.262 198.688 290.262L197.173 290.308Z" fill="#231F20"/>
<path d="M166.612 208.001L190.57 194.401H244.77L260.58 271.105L240.999 288.612L166.612 208.001Z" fill="white"/>
<path d="M241 289.369C240.897 289.371 240.794 289.351 240.7 289.309C240.606 289.267 240.522 289.205 240.454 289.127L166.052 208.516C165.973 208.432 165.914 208.331 165.88 208.221C165.846 208.111 165.837 207.994 165.855 207.88C165.872 207.767 165.915 207.658 165.981 207.563C166.047 207.469 166.133 207.39 166.234 207.334L190.192 193.705C190.302 193.64 190.427 193.603 190.555 193.599H244.771C244.945 193.599 245.114 193.659 245.25 193.769C245.385 193.88 245.478 194.033 245.513 194.205L261.323 270.908C261.353 271.039 261.347 271.175 261.307 271.303C261.267 271.43 261.194 271.545 261.096 271.635L241.515 289.142C241.375 289.276 241.193 289.356 241 289.369ZM167.809 208.182L241.06 287.552L259.763 270.893L244.15 195.174H190.767L167.809 208.182Z" fill="#231F20"/>
<path d="M240.999 288.612H182.968L166.612 208.001H224.659L240.999 288.612Z" fill="white"/>
<path d="M240.999 289.369H182.968C182.792 289.372 182.622 289.313 182.486 289.202C182.35 289.091 182.258 288.935 182.226 288.763L165.87 208.182C165.849 208.072 165.852 207.958 165.878 207.848C165.904 207.739 165.953 207.636 166.022 207.546C166.094 207.46 166.184 207.39 166.286 207.343C166.388 207.296 166.5 207.272 166.612 207.274H224.598C224.774 207.271 224.944 207.33 225.08 207.441C225.216 207.552 225.308 207.707 225.34 207.879L241.741 288.445C241.766 288.556 241.766 288.67 241.739 288.781C241.713 288.891 241.662 288.994 241.59 289.081C241.521 289.172 241.432 289.246 241.329 289.296C241.226 289.346 241.113 289.371 240.999 289.369ZM183.589 287.854H240.075L224.038 208.758H167.536L183.589 287.854Z" fill="#231F20"/>
<path d="M190.57 286.431L191.948 291.035H232.943L232.14 286.431H190.57Z" fill="#231F20"/>
<path d="M232.944 291.792H191.949C191.785 291.792 191.626 291.739 191.495 291.641C191.364 291.542 191.268 291.404 191.222 291.247L189.844 286.704C189.808 286.592 189.798 286.474 189.817 286.358C189.835 286.242 189.881 286.132 189.95 286.037C190.021 285.944 190.113 285.868 190.218 285.816C190.323 285.763 190.438 285.736 190.556 285.734H232.171C232.349 285.732 232.521 285.793 232.657 285.907C232.793 286.021 232.884 286.18 232.913 286.355L233.716 290.898C233.739 291.008 233.736 291.121 233.707 291.229C233.678 291.337 233.624 291.436 233.549 291.519C233.476 291.609 233.384 291.68 233.279 291.727C233.173 291.775 233.059 291.797 232.944 291.792ZM192.509 290.278H232.05L231.505 287.249H191.585L192.509 290.278Z" fill="#231F20"/>
<path d="M208.304 211.696H179.425C179.252 211.697 179.085 211.638 178.95 211.531C178.815 211.424 178.721 211.273 178.683 211.105L165.644 151.832C165.617 151.722 165.615 151.608 165.639 151.498C165.662 151.388 165.711 151.285 165.78 151.196C165.851 151.107 165.941 151.036 166.043 150.986C166.145 150.936 166.257 150.91 166.371 150.908H196.007C196.183 150.905 196.353 150.964 196.489 151.075C196.625 151.186 196.717 151.341 196.749 151.514L209.046 210.787C209.068 210.899 209.064 211.014 209.036 211.124C209.007 211.234 208.953 211.337 208.88 211.423C208.812 211.511 208.725 211.582 208.625 211.629C208.525 211.676 208.415 211.699 208.304 211.696ZM180.031 210.181H207.365L195.402 152.422H167.325L180.031 210.181Z" fill="#231F20"/>
<path d="M224.599 208.758C224.472 208.761 224.346 208.73 224.235 208.669C224.123 208.608 224.029 208.518 223.963 208.41C223.907 208.327 223.868 208.235 223.848 208.138C223.828 208.04 223.828 207.94 223.848 207.842C223.868 207.745 223.907 207.652 223.963 207.57C224.019 207.488 224.091 207.418 224.175 207.365L241.833 195.84C242.004 195.731 242.211 195.694 242.41 195.736C242.608 195.779 242.782 195.898 242.893 196.067C243.001 196.236 243.038 196.441 242.995 196.637C242.953 196.833 242.834 197.004 242.666 197.112L225.008 208.637C224.884 208.711 224.744 208.753 224.599 208.758Z" fill="#231F20"/>
<path d="M199.702 152.422H162.842C162.641 152.422 162.449 152.343 162.307 152.201C162.165 152.059 162.085 151.866 162.085 151.665C162.089 151.466 162.17 151.275 162.311 151.134C162.452 150.993 162.643 150.912 162.842 150.908H199.702C199.902 150.912 200.092 150.993 200.234 151.134C200.375 151.275 200.456 151.466 200.46 151.665C200.46 151.866 200.38 152.059 200.238 152.201C200.096 152.343 199.903 152.422 199.702 152.422Z" fill="#231F20"/>
<path d="M75.3707 267.592L69.6917 281.131L56.6982 275.437L62.6044 260.505L75.3707 267.592Z" fill="white"/>
<path d="M62.5586 260.505L75.3249 267.592L69.6459 281.131L56.6524 275.421L62.5586 260.505ZM62.5586 258.99C62.3878 258.99 62.2184 259.02 62.0588 259.081C61.8545 259.152 61.6677 259.265 61.511 259.414C61.3543 259.563 61.2313 259.744 61.1502 259.944L55.2895 274.816C55.1471 275.18 55.1511 275.585 55.3008 275.946C55.4504 276.308 55.7339 276.597 56.0921 276.754L69.0856 282.463C69.2782 282.541 69.4837 282.582 69.6914 282.585C69.8834 282.587 70.074 282.551 70.2517 282.478C70.4377 282.404 70.6071 282.293 70.7501 282.153C70.8931 282.013 71.0068 281.845 71.0846 281.661L76.7636 268.122C76.907 267.778 76.9183 267.393 76.7953 267.041C76.6723 266.688 76.4238 266.394 76.0972 266.214L63.3461 259.127C63.1197 258.998 62.8642 258.93 62.604 258.93L62.5586 258.99Z" fill="#231F20"/>
<path d="M71.1905 280.555L64.1637 298.41C64.1637 298.41 27.1368 285.098 24.7895 282.706C22.4422 280.313 30.5291 277.405 32.0889 277.875C33.6487 278.344 39.6608 279.934 41.8416 279.662C44.0223 279.389 55.7891 273.438 55.7891 273.438L71.1905 280.555Z" fill="#231F20"/>
<path d="M64.1643 299.167C64.0791 299.181 63.9921 299.181 63.9069 299.167C60.1057 297.789 26.6528 285.734 24.2146 283.281C23.8602 282.966 23.6314 282.534 23.5702 282.064C23.509 281.593 23.6195 281.117 23.8815 280.722C25.1687 278.571 30.6357 276.709 32.2561 277.193C33.8765 277.678 39.828 279.207 41.7059 278.965C43.2203 278.768 50.7922 275.179 55.4111 272.816C55.5128 272.768 55.6241 272.743 55.7367 272.743C55.8494 272.743 55.9606 272.768 56.0623 272.816L71.5091 279.934C71.683 280.014 71.8195 280.157 71.89 280.335C71.9605 280.513 71.9597 280.711 71.8877 280.888L64.8609 298.743C64.8005 298.875 64.7019 298.986 64.5777 299.062C64.4535 299.137 64.3095 299.174 64.1643 299.167ZM31.5595 278.571C30.2722 278.571 26.0925 279.919 25.1687 281.449C25.1256 281.501 25.0939 281.562 25.0758 281.627C25.0577 281.692 25.0535 281.761 25.0635 281.828C25.0735 281.895 25.0974 281.959 25.1338 282.017C25.1702 282.074 25.2182 282.123 25.2747 282.16C26.9254 283.811 48.9144 292.11 63.7252 297.456L70.2219 280.949L55.7594 274.285C53.5939 275.376 43.9775 280.146 41.9028 280.343C39.5403 280.631 33.2556 278.95 31.8169 278.526C31.7289 278.523 31.6412 278.538 31.5595 278.571Z" fill="#231F20"/>
<path d="M138.339 231.55L150.121 240.303L141.474 251.555L128.404 242.241L138.339 231.55Z" fill="white"/>
<path d="M138.278 231.549L150.06 240.303L141.413 251.555L128.344 242.241L138.278 231.549ZM138.278 230.035C138.068 230.034 137.86 230.076 137.667 230.159C137.474 230.243 137.301 230.366 137.158 230.52L127.239 241.211C127.09 241.368 126.977 241.554 126.907 241.758C126.836 241.961 126.81 242.178 126.83 242.393C126.851 242.609 126.919 242.819 127.029 243.007C127.138 243.195 127.288 243.358 127.466 243.483L140.535 252.781C140.791 252.966 141.098 253.067 141.413 253.069C141.647 253.071 141.878 253.018 142.088 252.916C142.299 252.813 142.482 252.664 142.625 252.478L151.257 241.226C151.38 241.067 151.471 240.884 151.523 240.689C151.575 240.494 151.587 240.291 151.56 240.091C151.532 239.893 151.465 239.704 151.364 239.532C151.263 239.361 151.128 239.211 150.969 239.091L139.172 230.338C138.914 230.144 138.601 230.038 138.278 230.035Z" fill="#231F20"/>
<path d="M149.924 238.713L165.537 249.798C165.537 249.798 143.76 282.569 140.868 284.311C137.975 286.053 137.097 277.481 137.914 276.088C138.732 274.695 141.746 269.182 141.988 267.001C142.23 264.821 139.293 251.964 139.293 251.964L149.924 238.713Z" fill="#231F20"/>
<path d="M140.141 285.31C139.601 285.295 139.089 285.066 138.717 284.674C136.93 282.902 136.446 277.102 137.309 275.694C138.172 274.285 141.049 268.864 141.276 266.941C141.443 265.426 139.762 257.294 138.581 252.16C138.56 252.049 138.563 251.936 138.589 251.826C138.615 251.716 138.664 251.614 138.732 251.524L149.333 238.243C149.453 238.091 149.626 237.99 149.818 237.962C150.009 237.934 150.204 237.98 150.363 238.091L166.006 249.192C166.169 249.302 166.281 249.473 166.318 249.666C166.355 249.859 166.314 250.059 166.203 250.222C164.023 253.614 144.245 283.175 141.307 284.962C140.959 285.186 140.554 285.306 140.141 285.31ZM140.141 252.19C140.671 254.553 143.018 265.032 142.776 267.122C142.503 269.47 139.368 275.179 138.596 276.466C138.157 277.208 138.414 282.236 139.777 283.599C139.824 283.648 139.88 283.688 139.943 283.715C140.005 283.742 140.073 283.756 140.141 283.756C140.209 283.756 140.276 283.742 140.339 283.715C140.401 283.688 140.457 283.648 140.504 283.599C142.488 282.387 155.815 263.033 164.537 249.919L150.06 239.666L140.141 252.19Z" fill="#231F20"/>
<path d="M73.159 119.893C73.159 119.893 48.005 186.981 54.5623 191.872C61.1196 196.764 128.768 251.312 128.768 251.312L145.35 229.99C145.35 229.99 97.1621 193.871 95.784 189.57C94.406 185.27 107.748 124.149 107.748 124.149L73.159 119.893Z" fill="#231F20"/>
<path d="M128.708 252.1C128.532 252.1 128.361 252.041 128.223 251.933C127.557 251.388 60.5146 197.339 54.0178 192.508C47.2031 187.42 69.7675 126.572 72.3723 119.651C72.4337 119.496 72.5436 119.365 72.6855 119.278C72.8274 119.191 72.9938 119.151 73.1598 119.166L107.779 123.376C107.885 123.389 107.986 123.424 108.078 123.479C108.169 123.534 108.248 123.607 108.309 123.695C108.369 123.779 108.411 123.875 108.432 123.977C108.453 124.079 108.452 124.184 108.43 124.285C103.069 148.773 95.4667 186.299 96.436 189.313C97.4052 192.327 127.193 215.451 145.745 229.354C145.903 229.476 146.006 229.657 146.032 229.856C146.057 230.054 146.003 230.255 145.881 230.414L129.223 251.736C129.163 251.819 129.086 251.888 128.997 251.937C128.908 251.987 128.809 252.017 128.708 252.024V252.1ZM73.5838 120.741C63.9523 146.486 50.5196 188.011 54.9416 191.297C61.1052 195.84 121.863 244.861 128.571 250.267L144.23 230.156C137.067 224.78 96.3754 194.083 94.9973 189.828C93.6192 185.573 104.78 133.992 106.779 124.83L73.5838 120.741Z" fill="#231F20"/>
<path d="M128.601 129.994L79.7472 270.833C79.7472 270.833 48.4296 261.928 50.58 260.323C47.9147 262.307 83.1546 164.719 92.3469 123.876L128.601 129.994Z" fill="#231F20"/>
<path d="M79.7473 271.544C79.6825 271.559 79.6153 271.559 79.5504 271.544C66.1632 267.743 50.1258 262.776 49.7321 260.686C49.7169 260.576 49.7169 260.464 49.7321 260.353C49.5958 258.839 51.4433 252.781 60.984 224.008C71.5848 191.933 86.138 148 91.605 123.694C91.6452 123.505 91.758 123.338 91.9193 123.231C92.0807 123.123 92.2777 123.083 92.4682 123.119L128.723 129.267C128.83 129.285 128.933 129.326 129.024 129.386C129.116 129.446 129.193 129.524 129.253 129.616C129.335 129.82 129.335 130.048 129.253 130.252L80.3985 271.09C80.3427 271.219 80.2522 271.329 80.1372 271.41C80.0223 271.49 79.8873 271.536 79.7473 271.544ZM51.3222 260.383C53.1849 261.898 66.6024 266.259 79.2778 269.879L127.587 130.555L92.9225 124.679C87.3193 149.197 72.9477 192.629 62.4227 224.447C56.6074 242.014 51.5493 257.294 51.201 259.838C51.2569 259.916 51.2965 260.005 51.3173 260.098C51.3381 260.192 51.3398 260.289 51.3222 260.383Z" fill="#231F20"/>
<path d="M140.186 94.4515L154.285 80.9432C146.713 67.9497 144.018 59.1511 138.793 56.4252C132.039 51.7608 108.127 54.9108 93.755 55.6377C89.1434 55.8032 84.5858 56.6872 80.2466 58.2576C70.7815 61.6958 62.048 66.8846 54.502 73.5529L71.9326 95.0573L76.082 88.7574C76.082 88.7574 73.6287 101.039 67.874 125.921C88.2403 124.753 108.632 127.731 127.814 134.674C127.814 134.674 140.171 98.7373 140.186 94.4515Z" fill="#68E1FD"/>
<path d="M110.793 98.1617C110.666 98.1637 110.54 98.1324 110.429 98.0709C110.34 98.0249 110.261 97.9613 110.197 97.8839C110.133 97.8065 110.086 97.717 110.058 97.6208C110.029 97.5245 110.021 97.4235 110.033 97.3239C110.044 97.2242 110.076 97.128 110.126 97.0411C110.278 96.7534 125.906 67.783 120.727 56.6371C119.546 54.0929 115.957 51.8516 112.004 51.1853C110.008 50.7927 107.946 50.9027 106.003 51.5054C104.06 52.1082 102.297 53.1847 100.873 54.6381C93.8069 61.7005 89.5357 71.0821 88.8492 81.0491C88.5467 85.2568 89.0085 89.4845 90.2121 93.5277C90.2591 93.7112 90.2357 93.9057 90.1463 94.0728C90.057 94.2399 89.9082 94.3674 89.7294 94.4302C89.5507 94.4929 89.3549 94.4864 89.1807 94.4118C89.0065 94.3373 88.8666 94.2001 88.7886 94.0275C88.7129 93.8154 81.4589 72.7199 99.7831 53.5932C101.374 51.9612 103.347 50.751 105.523 50.0715C107.699 49.3921 110.009 49.2648 112.247 49.7012C116.79 50.4432 120.697 52.9723 122.105 56.0011C127.587 67.8436 112.095 96.5565 111.429 97.768C111.367 97.8841 111.276 97.9817 111.164 98.0509C111.052 98.1201 110.924 98.1583 110.793 98.1617Z" fill="#231F20"/>
<path d="M89.8178 7.90405C89.8178 7.90405 80.3831 8.04034 84.8354 18.5957C87.6976 25.4559 107.99 26.5916 107.99 26.5916C107.99 26.5916 107.9 13.8556 89.8178 7.90405Z" fill="#231F20"/>
<path d="M107.99 27.349C107.142 27.349 87.2426 26.1072 84.1986 18.8835C82.6843 15.1733 82.5328 12.2354 83.9109 10.1303C84.6124 9.21155 85.5115 8.46228 86.5417 7.938C87.5719 7.41371 88.7068 7.12785 89.8625 7.10156H90.1048C108.55 13.1591 108.792 25.9709 108.792 26.5161C108.793 26.6189 108.772 26.7207 108.73 26.8147C108.688 26.9086 108.627 26.9927 108.55 27.0613C108.484 27.1482 108.4 27.2191 108.303 27.269C108.206 27.3188 108.099 27.3461 107.99 27.349ZM89.6656 8.66138C88.7886 8.70208 87.9303 8.92828 87.1472 9.32506C86.364 9.72185 85.6739 10.2802 85.1224 10.9633C84.0472 12.6139 84.1835 15.0824 85.5465 18.3081C87.6666 23.3207 101.145 25.3348 107.172 25.7892C106.763 22.9572 104.492 13.5832 89.6656 8.66138Z" fill="#231F20"/>
<path d="M98.4344 18.3986C98.6789 17.9751 98.9468 17.5656 99.237 17.1719C102.448 12.6288 110.958 14.1431 115.426 15.4607C119.665 16.5068 123.561 18.6299 126.738 21.6242C129.192 24.123 131.478 28.1816 131.024 31.8161C130.57 35.4506 128.268 39.7212 126.481 42.7803C125.472 44.6855 124.004 46.3094 122.21 47.5052C120.337 48.4762 118.263 48.9948 116.153 49.0196C111.619 49.4757 107.048 48.6299 102.978 46.5814C100.824 45.3764 98.9845 43.6824 97.6061 41.6359C96.2277 39.5894 95.3495 37.2477 95.0421 34.7995C94.4741 29.1145 95.6578 23.3918 98.4344 18.3986Z" fill="white"/>
<path d="M113.912 49.7921C109.949 49.9438 106.017 49.0508 102.508 47.2025C98.6165 44.9915 94.5276 40.2969 94.1793 34.7997C93.6418 28.962 94.8936 23.099 97.7684 17.9899C98.023 17.5512 98.301 17.1266 98.6013 16.7178C102.296 11.5386 111.746 13.583 115.638 14.7037C120.014 15.7783 124.033 17.9759 127.299 21.0792C129.692 23.5174 132.312 27.8032 131.842 31.9072C131.034 35.9423 129.433 39.777 127.132 43.1894C126.163 45.2505 124.6 46.9747 122.644 48.1405C120.687 49.3063 118.427 49.8604 116.153 49.7316C115.35 49.777 114.624 49.7921 113.912 49.7921ZM107.006 14.9611C104.144 14.9611 101.357 15.5971 99.8734 17.6719C99.6008 18.0505 99.3434 18.4442 99.1011 18.838C96.3997 23.6773 95.2226 29.2196 95.7239 34.7391C96.0265 37.0596 96.8691 39.2769 98.1842 41.2127C99.4993 43.1484 101.25 44.7487 103.296 45.885C106.552 47.7477 110.716 48.5049 116.032 48.2172C118.024 48.223 119.99 47.7614 121.772 46.8694C123.445 45.7376 124.818 44.2145 125.77 42.4322C127.958 39.2272 129.501 35.6265 130.313 31.8314C130.722 28.4998 128.571 24.6381 126.239 22.2756C123.164 19.3684 119.386 17.3121 115.275 16.3089C112.591 15.4859 109.811 15.0175 107.006 14.9157V14.9611Z" fill="#231F20"/>
<path d="M100.737 48.6713L99.4198 59.6053C99.4198 59.6053 102.449 66.5412 109.581 65.1782C111.696 64.7555 113.689 63.8658 115.416 62.5742C117.142 61.2825 118.559 59.6214 119.561 57.7123L120.455 37.7374C120.455 37.7374 115.336 34.7086 117.426 23.3507C111.514 25.5579 105.116 26.1333 98.905 25.0165C98.905 25.0165 95.0887 37.2225 95.6793 42.7501C96.2699 48.2776 100.737 48.6713 100.737 48.6713Z" fill="white"/>
<path d="M107.748 66.1324C101.464 66.1324 98.662 59.9839 98.662 59.9234C98.6253 59.7895 98.6253 59.6483 98.662 59.5145L99.9039 49.2772C98.4988 48.8704 97.2591 48.0279 96.3637 46.8711C95.4682 45.7144 94.9632 44.3032 94.9215 42.841C94.3309 37.2075 97.9503 25.2892 98.1775 24.7895C98.2365 24.6067 98.3592 24.4512 98.5231 24.3512C98.687 24.2512 98.8814 24.2132 99.0709 24.2443C105.109 25.3105 111.322 24.7566 117.077 22.639C117.208 22.5807 117.352 22.5597 117.493 22.5784C117.635 22.5971 117.769 22.6548 117.88 22.745C117.992 22.8329 118.077 22.9505 118.125 23.0844C118.173 23.2183 118.183 23.3632 118.152 23.5022C116.199 34.103 120.772 37.0409 120.818 37.1318C120.936 37.2035 121.033 37.3064 121.097 37.4292C121.161 37.5521 121.19 37.6901 121.181 37.8284L120.303 57.8032C120.318 57.9036 120.318 58.0057 120.303 58.1061C119.244 60.1362 117.741 61.9014 115.906 63.2701C114.07 64.6388 111.95 65.5758 109.702 66.0112C109.055 66.1078 108.402 66.1483 107.748 66.1324ZM100.176 59.4842C100.691 60.5291 103.478 65.5417 109.384 64.4059C111.349 64.0016 113.203 63.1763 114.819 61.9868C116.435 60.7973 117.773 59.2719 118.743 57.5155L119.606 38.1161C118.425 37.1469 115.063 33.5729 116.396 24.4866C110.921 26.2643 105.105 26.7261 99.4192 25.8344C98.6469 28.4088 95.9361 37.9495 96.3905 42.5987C96.8448 47.2479 100.585 47.7931 100.737 47.8082C100.947 47.8311 101.14 47.9363 101.274 48.1008C101.407 48.2653 101.47 48.4759 101.449 48.6866L100.176 59.4842Z" fill="#231F20"/>
<path d="M116.319 37.1772C116.612 36.2214 117.2 35.3834 118 34.7844C118.778 34.2679 119.638 33.8888 120.544 33.6638C121.027 33.479 121.546 33.4115 122.059 33.4669C122.409 33.5439 122.742 33.6824 123.043 33.8758C123.782 34.2941 124.35 34.9588 124.648 35.7536C124.807 36.4207 124.807 37.1158 124.648 37.7829C124.524 38.5148 124.305 39.2274 123.997 39.9031C123.67 40.5699 123.214 41.1656 122.656 41.656C122.098 42.1464 121.449 42.5219 120.745 42.7611C120.042 43.0002 119.298 43.0983 118.557 43.0496C117.816 43.0009 117.091 42.8066 116.425 42.4775" fill="white"/>
<path d="M118.969 43.8406C117.972 43.8413 116.988 43.6134 116.092 43.1743C115.999 43.1277 115.917 43.0633 115.849 42.9848C115.782 42.9062 115.73 42.8151 115.698 42.7166C115.665 42.6181 115.653 42.5142 115.661 42.4108C115.669 42.3075 115.697 42.2067 115.744 42.1142C115.841 41.9338 116.003 41.7973 116.197 41.7326C116.391 41.6678 116.603 41.6797 116.789 41.7659C117.948 42.338 119.284 42.4358 120.514 42.0385C121.73 41.6122 122.731 40.726 123.301 39.5701C123.586 38.9542 123.785 38.3019 123.891 37.6316C124.019 37.0889 124.019 36.5237 123.891 35.9809C123.645 35.3457 123.191 34.8122 122.604 34.4666C122.39 34.3181 122.148 34.215 121.892 34.1637C121.501 34.1358 121.108 34.1926 120.741 34.3303C119.923 34.5378 119.145 34.8807 118.439 35.3449C117.769 35.8379 117.275 36.5335 117.031 37.3288C116.973 37.5296 116.837 37.699 116.654 37.7999C116.471 37.9007 116.255 37.9246 116.054 37.8664C115.853 37.8081 115.684 37.6725 115.583 37.4893C115.482 37.3061 115.458 37.0904 115.517 36.8896C115.855 35.7645 116.552 34.7807 117.5 34.088C118.35 33.5118 119.293 33.0865 120.287 32.831C120.877 32.615 121.51 32.5423 122.134 32.619C122.588 32.7068 123.02 32.8817 123.407 33.1339C124.352 33.657 125.065 34.5166 125.406 35.5418C125.602 36.3272 125.602 37.1491 125.406 37.9345C125.284 38.7426 125.044 39.5284 124.694 40.2667C124.322 41.0259 123.805 41.7043 123.171 42.263C122.537 42.8217 121.799 43.2498 120.999 43.5226C120.344 43.7381 119.659 43.8455 118.969 43.8406Z" fill="#231F20"/>
<path d="M100.418 54.1232C101.717 54.3351 103.047 54.2649 104.317 53.9174C105.587 53.5698 106.767 52.9531 107.778 52.1091C111.049 49.2469 110.807 47.5659 110.807 47.5659C110.807 47.5659 105.643 50.0798 101.054 48.9289L100.418 54.1232Z" fill="#231F20"/>
<path d="M101.796 54.9865C101.258 54.9934 100.721 54.9477 100.191 54.8502C100.004 54.8133 99.8373 54.707 99.7249 54.5526C99.6126 54.3981 99.5628 54.2069 99.5854 54.0172L100.282 48.7623C100.29 48.6551 100.322 48.5513 100.378 48.4592C100.433 48.367 100.509 48.2893 100.6 48.2323C100.687 48.1704 100.786 48.1288 100.891 48.1105C100.996 48.0921 101.103 48.0975 101.206 48.1263C105.476 49.2015 110.398 46.839 110.459 46.8239C110.566 46.7681 110.686 46.739 110.807 46.739C110.928 46.739 111.048 46.7681 111.155 46.8239C111.259 46.884 111.347 46.9672 111.412 47.0671C111.478 47.1669 111.52 47.2807 111.534 47.3994C111.534 47.6265 111.655 49.6407 108.202 52.6543C106.423 54.1866 104.145 55.016 101.796 54.9865ZM101.191 53.4721C103.385 53.6551 105.562 52.9639 107.248 51.5488C108.192 50.7785 108.997 49.8513 109.626 48.8077C107.103 49.7677 104.385 50.1003 101.706 49.7769L101.191 53.4721Z" fill="#231F20"/>
<path d="M104.689 32.0435C104.689 32.0435 100.525 37.2681 101.327 38.2979C102.13 39.3277 104.644 38.9037 104.644 38.9037" fill="white"/>
<path d="M103.447 39.7516C102.942 39.7975 102.434 39.7317 101.958 39.559C101.481 39.3862 101.049 39.1108 100.691 38.7521C99.9184 37.7678 101.054 35.3448 104.068 31.5739C104.194 31.4173 104.378 31.3173 104.578 31.296C104.778 31.2747 104.979 31.3338 105.136 31.4603C105.292 31.5869 105.392 31.7704 105.413 31.9706C105.435 32.1709 105.376 32.3714 105.249 32.528C103.447 34.8147 101.933 37.3589 101.933 37.9495C102.735 38.2739 103.617 38.3478 104.462 38.1615C104.561 38.1446 104.663 38.1475 104.761 38.1699C104.86 38.1923 104.952 38.2339 105.035 38.2923C105.117 38.3506 105.187 38.4246 105.241 38.51C105.294 38.5954 105.331 38.6906 105.348 38.79C105.364 38.8894 105.362 38.9912 105.339 39.0896C105.317 39.1879 105.275 39.2809 105.217 39.3631C105.158 39.4454 105.084 39.5153 104.999 39.569C104.914 39.6227 104.818 39.659 104.719 39.6759C104.298 39.7339 103.872 39.7592 103.447 39.7516Z" fill="#231F20"/>
<path d="M103.523 42.8109C103.523 42.8109 107.521 44.4918 108.975 40.5847L103.523 42.8109Z" fill="white"/>
<path d="M105.445 43.9161C104.686 43.906 103.933 43.7678 103.219 43.5072C103.033 43.4289 102.885 43.2796 102.808 43.0922C102.731 42.9047 102.732 42.6945 102.81 42.5077C102.889 42.321 103.038 42.173 103.225 42.0963C103.413 42.0196 103.623 42.0205 103.81 42.0989C104.739 42.4394 105.758 42.4394 106.687 42.0989C107.063 41.9141 107.398 41.6552 107.671 41.3377C107.944 41.0201 108.151 40.6506 108.277 40.2513C108.303 40.1479 108.351 40.0512 108.417 39.9676C108.483 39.8839 108.566 39.8151 108.661 39.7657C108.755 39.7163 108.859 39.6875 108.965 39.681C109.072 39.6745 109.178 39.6905 109.278 39.7281C109.378 39.7656 109.469 39.8238 109.544 39.8989C109.62 39.9739 109.679 40.0641 109.718 40.1635C109.756 40.2629 109.773 40.3694 109.768 40.4758C109.762 40.5823 109.734 40.6864 109.686 40.7813C109.492 41.3743 109.178 41.921 108.764 42.3873C108.35 42.8537 107.844 43.2298 107.278 43.4921C106.702 43.7548 106.078 43.899 105.445 43.9161Z" fill="#231F20"/>
<path d="M111.857 32.6962C112.065 32.0166 111.839 31.3443 111.351 31.1946C110.864 31.0449 110.299 31.4745 110.091 32.1542C109.882 32.8338 110.108 33.5061 110.596 33.6558C111.084 33.8055 111.648 33.3758 111.857 32.6962Z" fill="#231F20"/>
<path d="M102.219 31.9486C102.428 31.269 102.201 30.5967 101.714 30.447C101.226 30.2973 100.661 30.727 100.453 31.4066C100.244 32.0862 100.471 32.7585 100.958 32.9082C101.446 33.0579 102.011 32.6283 102.219 31.9486Z" fill="#231F20"/>
<path d="M116.637 29.1206L130.933 32.1494C130.933 32.1494 138.505 13.4164 123.785 5.01151C107.127 -4.48373 98.5098 8.99436 98.5098 8.99436L116.637 29.1206Z" fill="white"/>
<path d="M130.934 32.937H130.706L116.426 29.9082C116.261 29.8765 116.112 29.7913 116.002 29.6659L97.8289 9.56994C97.7109 9.44258 97.6392 9.27916 97.6255 9.10606C97.6117 8.93295 97.6567 8.76027 97.7532 8.61588C97.8441 8.47959 106.976 -5.3771 124.073 4.39073C130.328 7.96469 133.614 13.9768 133.538 21.776C133.524 25.4354 132.889 29.0659 131.66 32.513C131.593 32.6464 131.489 32.7574 131.36 32.8327C131.231 32.908 131.083 32.9442 130.934 32.937ZM117.047 28.3938L130.434 31.2409C131.469 28.1534 132.026 24.9258 132.084 21.6699C132.084 14.4009 129.207 9.02477 123.392 5.6931C109.202 -2.40889 101.221 6.64717 99.5099 8.9339L117.047 28.3938Z" fill="#231F20"/>
<path d="M116.637 29.1207C116.637 29.1207 113.805 13.9768 98.4646 9.00956L89.8174 7.90405C94.9498 11.9744 99.2093 17.0373 102.341 22.7905C107.763 32.3615 116.637 29.1207 116.637 29.1207Z" fill="white"/>
<path d="M113.125 30.4079C109.823 30.4079 105.053 29.1964 101.615 23.1842C98.5296 17.5345 94.3493 12.5563 89.3184 8.54006C89.1771 8.43796 89.0737 8.29188 89.0244 8.12471C88.9751 7.95754 88.9826 7.77872 89.0458 7.61628C89.1085 7.45589 89.2231 7.32108 89.3713 7.23327C89.5195 7.14547 89.6927 7.10971 89.8635 7.13168L98.6167 8.23719C114.306 13.3861 117.38 28.8178 117.41 28.9692C117.446 29.1512 117.416 29.3402 117.324 29.5015C117.232 29.6628 117.086 29.7856 116.911 29.8476C115.686 30.2337 114.408 30.4229 113.125 30.4079ZM92.3623 9.00953C96.5799 12.8906 100.158 17.4139 102.963 22.4119C107.249 29.9839 113.564 29.0752 115.699 28.5755C114.912 25.5467 111.065 13.9767 98.2533 9.75158L92.3623 9.00953Z" fill="#231F20"/>
<path d="M70.0243 201.61H69.7972C69.6065 201.547 69.4483 201.412 69.3575 201.233C69.2666 201.054 69.2505 200.847 69.3126 200.656L82.4424 158.056C82.5018 157.866 82.6336 157.707 82.8093 157.613C82.985 157.52 83.1905 157.499 83.3813 157.556C83.5724 157.619 83.7316 157.754 83.8249 157.932C83.9182 158.11 83.9384 158.317 83.881 158.51L70.7513 201.11C70.6956 201.258 70.5961 201.385 70.4661 201.474C70.3362 201.563 70.182 201.611 70.0243 201.61Z" fill="white"/>
<path d="M96.0116 226.946C95.9118 226.967 95.8086 226.967 95.7087 226.946C95.6176 226.908 95.535 226.852 95.4656 226.782C95.3963 226.711 95.3417 226.628 95.305 226.536C95.2684 226.445 95.2504 226.347 95.2521 226.248C95.2538 226.149 95.2752 226.052 95.315 225.961L105.916 200.61C105.993 200.426 106.139 200.28 106.324 200.203C106.508 200.127 106.715 200.126 106.9 200.202C107.082 200.282 107.225 200.429 107.302 200.612C107.378 200.795 107.38 201.001 107.309 201.186L96.7082 226.552C96.6405 226.676 96.5393 226.779 96.4162 226.848C96.2931 226.918 96.1529 226.952 96.0116 226.946Z" fill="white"/>
<path d="M136.098 85.8044C136.098 85.8044 157.965 129.722 168.097 147.743C168.097 147.743 170.247 163.508 180.076 162.645C194.053 161.403 191.585 152.513 191.585 152.513L183.71 144.866L154.286 80.9735" fill="white"/>
<path d="M179.289 163.432C169.975 163.432 167.628 149.681 167.37 147.985C157.315 130.131 135.568 86.5767 135.417 86.1375C135.377 85.9676 135.397 85.789 135.473 85.6321C135.55 85.4752 135.678 85.3496 135.837 85.2765C135.995 85.2035 136.174 85.1875 136.343 85.2312C136.512 85.275 136.661 85.3758 136.764 85.5166C136.992 85.9558 158.753 129.691 168.763 147.425C168.807 147.511 168.838 147.603 168.854 147.698C168.854 147.849 171.035 162.735 180.015 161.948C184.922 161.509 188.239 160.085 189.889 157.723C190.836 156.331 191.2 154.624 190.904 152.968L183.211 145.396C183.143 145.336 183.086 145.264 183.044 145.184L153.589 81.2612C153.507 81.0784 153.501 80.8706 153.572 80.6832C153.643 80.4959 153.785 80.3443 153.968 80.2617C154.057 80.2185 154.154 80.1937 154.253 80.1887C154.352 80.1837 154.451 80.1985 154.544 80.2324C154.638 80.2663 154.723 80.3185 154.796 80.386C154.868 80.4534 154.927 80.5347 154.967 80.6251L184.362 144.411L192.115 151.983C192.214 152.08 192.287 152.2 192.327 152.332C192.565 153.393 192.582 154.492 192.376 155.561C192.17 156.629 191.746 157.643 191.131 158.541C189.223 161.297 185.528 162.932 180.152 163.402L179.289 163.432Z" fill="#231F20"/>
<path d="M136.098 114.714C136.098 114.714 123.544 100.509 124.786 81.7759C126.027 63.0429 132.358 52.8662 132.358 52.8662L138.809 54.4866C138.809 54.4866 131.797 64.8905 131.101 82.2303C130.54 95.9658 138.264 107.975 138.264 107.975L136.098 114.714Z" fill="#231F20"/>
<path d="M136.098 115.471C135.989 115.472 135.882 115.45 135.782 115.405C135.683 115.361 135.594 115.296 135.523 115.214C135.401 115.062 122.787 100.555 124.028 81.7155C125.27 62.8765 131.449 52.9421 131.706 52.4726C131.787 52.3341 131.91 52.2253 132.057 52.1625C132.205 52.0997 132.368 52.0863 132.524 52.1243L138.975 53.7144C139.094 53.7459 139.204 53.8047 139.296 53.8862C139.388 53.9678 139.46 54.0697 139.505 54.1839C139.544 54.2968 139.556 54.4171 139.54 54.5353C139.524 54.6535 139.481 54.7665 139.415 54.8654C139.415 54.9714 132.509 65.3298 131.843 82.2304C131.297 95.5571 138.809 107.475 138.885 107.597C138.933 107.696 138.958 107.804 138.958 107.915C138.958 108.025 138.933 108.133 138.885 108.233L136.764 114.941C136.721 115.067 136.647 115.18 136.549 115.269C136.451 115.359 136.333 115.423 136.204 115.456L136.098 115.471ZM132.721 53.7144C131.509 55.9255 126.663 65.7236 125.543 81.8064C124.513 97.1321 133.024 109.535 135.795 113.139L137.431 108.111C136.204 106.097 129.859 94.9513 130.328 82.185C130.542 72.6469 133.039 63.2991 137.612 54.926L132.721 53.7144Z" fill="#231F20"/>
<path d="M73.0686 104.007C73.0686 104.007 75.2342 78.2627 90.2873 55.1531L83.942 56.0163C83.942 56.0163 75.2796 60.6806 71.4028 80.1103C67.7834 98.2678 73.0686 104.007 73.0686 104.007Z" fill="#231F20"/>
<path d="M73.0683 104.765C72.9631 104.766 72.8587 104.746 72.7621 104.704C72.6655 104.662 72.5789 104.6 72.508 104.522C72.2809 104.28 67.0108 98.2982 70.6605 79.9589C74.5676 60.4081 83.2148 55.5469 83.5934 55.35H83.8357L90.181 54.4868C90.3249 54.4694 90.4708 54.4928 90.602 54.5544C90.7333 54.616 90.8445 54.7133 90.923 54.8351C91 54.9548 91.0409 55.0941 91.0409 55.2364C91.0409 55.3787 91 55.518 90.923 55.6377C76.1577 78.3536 73.8558 103.901 73.8255 104.098C73.8166 104.243 73.7641 104.381 73.6748 104.494C73.5855 104.608 73.4638 104.692 73.3258 104.734C73.2427 104.761 73.1553 104.771 73.0683 104.765ZM84.1991 56.7432C83.2148 57.3641 75.6579 62.6342 72.084 80.2618C69.661 92.3769 71.2814 98.8131 72.5232 101.675C73.4318 94.9816 77.0663 74.7645 88.712 56.1223L84.1991 56.7432Z" fill="#231F20"/>
<path d="M138.142 133.523C137.951 133.523 137.767 133.452 137.627 133.323C137.486 133.194 137.4 133.016 137.384 132.826C136.71 123.826 138.825 114.837 143.442 107.081C143.489 106.988 143.555 106.905 143.636 106.838C143.716 106.771 143.81 106.722 143.911 106.693C144.011 106.664 144.117 106.656 144.221 106.67C144.325 106.685 144.425 106.72 144.514 106.775C144.603 106.83 144.681 106.902 144.74 106.988C144.8 107.074 144.842 107.172 144.862 107.275C144.882 107.377 144.881 107.483 144.858 107.586C144.835 107.688 144.791 107.784 144.729 107.869C140.272 115.35 138.221 124.02 138.853 132.705C138.862 132.804 138.85 132.903 138.819 132.997C138.789 133.091 138.739 133.178 138.674 133.253C138.609 133.328 138.53 133.389 138.441 133.433C138.352 133.476 138.256 133.502 138.157 133.508L138.142 133.523Z" fill="white"/>
<path d="M83.1542 152.422C83.0575 152.424 82.9613 152.407 82.8714 152.371C82.7814 152.336 82.6995 152.283 82.6304 152.215C82.5613 152.147 82.5064 152.066 82.4689 151.977C82.4314 151.888 82.4121 151.792 82.4122 151.695C82.4122 151.302 82.1396 142.215 82.4122 137.93C82.4159 137.829 82.4399 137.731 82.4828 137.64C82.5256 137.55 82.5863 137.469 82.6614 137.402C82.7364 137.336 82.8241 137.285 82.9192 137.253C83.0143 137.222 83.1149 137.21 83.2148 137.218C83.413 137.233 83.5972 137.326 83.7276 137.476C83.8579 137.627 83.924 137.822 83.9114 138.02C83.6388 142.23 83.9114 151.559 83.9114 151.65C83.9155 151.848 83.8417 152.04 83.7058 152.185C83.5698 152.329 83.3827 152.414 83.1845 152.422H83.1542Z" fill="white"/>
<path d="M118.969 148.515C118.765 148.515 118.569 148.433 118.424 148.288C111.988 141.61 113.048 134.765 113.094 134.477C113.131 134.283 113.241 134.11 113.401 133.994C113.562 133.879 113.761 133.829 113.957 133.856C114.055 133.871 114.149 133.905 114.234 133.956C114.318 134.008 114.392 134.076 114.449 134.157C114.507 134.237 114.548 134.328 114.57 134.425C114.592 134.522 114.595 134.622 114.578 134.719C114.435 137.041 114.802 139.365 115.655 141.529C116.508 143.693 117.826 145.644 119.515 147.243C119.586 147.314 119.642 147.397 119.68 147.49C119.719 147.582 119.739 147.681 119.739 147.781C119.739 147.881 119.719 147.98 119.68 148.072C119.642 148.164 119.586 148.248 119.515 148.318C119.442 148.387 119.356 148.44 119.262 148.474C119.169 148.507 119.069 148.522 118.969 148.515Z" fill="white"/>
<path d="M11.8716 46.8996C11.697 46.8996 11.5278 46.8393 11.3926 46.729C11.2574 46.6186 11.1644 46.4649 11.1295 46.2938C10.4329 42.8107 14.8246 39.3276 15.0064 39.1762C15.1633 39.0524 15.3628 38.9956 15.5614 39.0183C15.7599 39.041 15.9415 39.1413 16.0664 39.2973C16.1874 39.4581 16.2423 39.6591 16.2198 39.859C16.1972 40.059 16.099 40.2427 15.9453 40.3726C14.8701 41.2055 12.1896 43.8557 12.6136 45.991C12.6357 46.0885 12.6377 46.1896 12.6197 46.288C12.6017 46.3864 12.564 46.4802 12.5088 46.5636C12.4537 46.6471 12.3822 46.7185 12.2987 46.7737C12.2152 46.8288 12.1214 46.8665 12.023 46.8844L11.8716 46.8996Z" fill="#231F20"/>
<path d="M114.679 98.164L84.7662 92.9541C83.5303 92.7388 82.3538 93.5663 82.1385 94.8022L79.748 108.528C79.5327 109.764 80.3601 110.94 81.5961 111.156L111.509 116.366C112.745 116.581 113.922 115.753 114.137 114.517L116.528 100.792C116.743 99.5558 115.915 98.3793 114.679 98.164Z" fill="white"/>
<path d="M111.898 117.152C111.726 117.167 111.554 117.167 111.383 117.152L81.4583 111.943C80.672 111.795 79.9726 111.35 79.5048 110.701C79.2733 110.375 79.1086 110.006 79.0202 109.617C78.9319 109.227 78.9216 108.823 78.9899 108.429L81.3826 94.709C81.5216 93.919 81.9682 93.2165 82.6244 92.7554C82.9503 92.5239 83.3189 92.3592 83.7087 92.2709C84.0986 92.1825 84.5021 92.1722 84.896 92.2405L114.805 97.45C115.597 97.5944 116.303 98.0394 116.774 98.6918C117.003 99.0188 117.165 99.3879 117.251 99.7777C117.336 100.168 117.344 100.571 117.274 100.963L114.881 114.684C114.75 115.379 114.38 116.006 113.835 116.457C113.29 116.908 112.605 117.154 111.898 117.152ZM111.64 115.638C111.836 115.673 112.037 115.669 112.231 115.626C112.426 115.583 112.61 115.502 112.773 115.389C112.936 115.275 113.075 115.13 113.182 114.962C113.289 114.794 113.362 114.607 113.397 114.411L115.79 100.691C115.824 100.494 115.82 100.292 115.776 100.097C115.732 99.9016 115.65 99.717 115.535 99.5536C115.419 99.3903 115.273 99.2515 115.103 99.1451C114.934 99.0388 114.745 98.9671 114.548 98.9341L84.6386 93.7246C84.4427 93.6897 84.2418 93.6938 84.0475 93.7365C83.8532 93.7793 83.6692 93.86 83.506 93.9739C83.3429 94.0878 83.2038 94.2328 83.0967 94.4005C82.9896 94.5682 82.9166 94.7553 82.8819 94.9513L80.4891 108.672C80.455 108.869 80.4601 109.07 80.5043 109.265C80.5485 109.46 80.6308 109.644 80.7466 109.807C80.9753 110.134 81.3236 110.357 81.7158 110.428L111.64 115.638Z" fill="#231F20"/>
<path d="M94.9094 90.2491L106.054 92.1902C106.739 92.3094 107.348 92.6957 107.748 93.264C108.147 93.8324 108.305 94.5362 108.186 95.2208L107.879 96.9813L91.5573 94.1385L91.8639 92.378C91.9832 91.6935 92.3694 91.0844 92.9378 90.6846C93.5061 90.2849 94.21 90.1273 94.8945 90.2465L94.9094 90.2491Z" fill="white"/>
<path d="M107.87 97.7226H107.749L91.4386 94.8756C91.3418 94.8596 91.2492 94.8246 91.166 94.7726C91.0828 94.7207 91.0108 94.6527 90.954 94.5727C90.8355 94.4059 90.7867 94.1995 90.8177 93.9972L91.1206 92.2405C91.2795 91.3571 91.7806 90.5721 92.5151 90.056C93.2495 89.54 94.1579 89.3345 95.0429 89.4843L106.174 91.4228C107.06 91.5817 107.848 92.082 108.37 92.816C108.882 93.5524 109.083 94.4611 108.93 95.345L108.627 97.1017C108.588 97.2984 108.474 97.4722 108.309 97.5863C108.181 97.6781 108.027 97.7259 107.87 97.7226ZM92.4381 93.5126L107.264 96.1022L107.431 95.0876C107.478 94.847 107.475 94.5993 107.423 94.3597C107.371 94.1202 107.27 93.8938 107.128 93.6943C106.842 93.2865 106.406 93.0087 105.916 92.922L94.7703 90.9836C94.2844 90.9 93.7852 91.0125 93.3821 91.2964C92.979 91.5803 92.7049 92.0124 92.6199 92.498L92.4381 93.5126Z" fill="#231F20"/>
<path d="M98.1316 112.443C102.431 112.443 105.916 108.958 105.916 104.659C105.916 100.36 102.431 96.8746 98.1316 96.8746C93.8327 96.8746 90.3477 100.36 90.3477 104.659C90.3477 108.958 93.8327 112.443 98.1316 112.443Z" fill="white"/>
<path d="M98.1471 113.2C97.64 113.198 97.1336 113.158 96.6327 113.078C94.4045 112.679 92.4241 111.416 91.1224 109.564C89.8206 107.712 89.3028 105.421 89.6817 103.189C89.8736 102.084 90.2814 101.027 90.8818 100.079C91.4823 99.1304 92.2636 98.3098 93.1812 97.6637C94.0988 97.0175 95.1346 96.5584 96.2296 96.3125C97.3246 96.0667 98.4573 96.0389 99.5631 96.2309C100.669 96.4228 101.726 96.8306 102.674 97.431C103.622 98.0315 104.443 98.8128 105.089 99.7304C105.735 100.648 106.194 101.684 106.44 102.779C106.686 103.874 106.714 105.007 106.522 106.112C106.18 108.089 105.154 109.882 103.623 111.178C102.092 112.474 100.153 113.19 98.1471 113.2ZM98.1471 97.6165C96.3764 97.6024 94.6656 98.2573 93.357 99.4502C92.0483 100.643 91.2384 102.286 91.0891 104.051C90.9398 105.815 91.4623 107.571 92.5519 108.967C93.6415 110.363 95.218 111.296 96.9659 111.579C98.8034 111.899 100.693 111.475 102.218 110.401C103.743 109.328 104.779 107.692 105.098 105.855C105.417 104.017 104.994 102.128 103.92 100.603C102.847 99.078 101.211 98.0418 99.3738 97.7225C98.9586 97.6529 98.5377 97.6225 98.1168 97.6317L98.1471 97.6165Z" fill="#231F20"/>
<path d="M98.1316 109.338C100.716 109.338 102.811 107.243 102.811 104.659C102.811 102.074 100.716 99.9791 98.1316 99.9791C95.5472 99.9791 93.4521 102.074 93.4521 104.659C93.4521 107.243 95.5472 109.338 98.1316 109.338Z" fill="white"/>
<path d="M98.1317 110.095C97.8242 110.118 97.5154 110.118 97.2079 110.095C96.5001 109.963 95.8255 109.691 95.2228 109.297C94.6202 108.903 94.1013 108.394 93.696 107.799C93.2907 107.203 93.0071 106.534 92.8613 105.829C92.7155 105.124 92.7104 104.397 92.8464 103.689C92.9682 102.984 93.2291 102.311 93.6139 101.707C93.9987 101.104 94.4997 100.584 95.0877 100.176C95.6676 99.7579 96.3263 99.4618 97.0239 99.3056C97.7215 99.1495 98.4435 99.1364 99.1463 99.2673C100.566 99.5151 101.829 100.316 102.658 101.495C103.487 102.673 103.815 104.132 103.568 105.552C103.355 106.834 102.689 107.997 101.692 108.831C100.694 109.664 99.4313 110.113 98.1317 110.095ZM98.1317 100.721C97.1207 100.809 96.1827 101.284 95.5133 102.046C94.8439 102.809 94.4947 103.801 94.5387 104.814C94.5826 105.828 95.0163 106.786 95.7492 107.488C96.4821 108.189 97.4577 108.581 98.4724 108.581C99.4871 108.581 100.463 108.189 101.196 107.488C101.929 106.786 102.362 105.828 102.406 104.814C102.45 103.801 102.101 102.809 101.432 102.046C100.762 101.284 99.8241 100.809 98.8131 100.721C98.5886 100.678 98.3603 100.658 98.1317 100.661V100.721Z" fill="#231F20"/>
<path d="M194.311 283.084C194.137 283.081 193.969 283.02 193.835 282.91C193.7 282.8 193.606 282.648 193.569 282.478L179.561 213.664C179.524 213.468 179.566 213.265 179.676 213.099C179.786 212.932 179.956 212.815 180.151 212.771C180.249 212.751 180.349 212.751 180.447 212.769C180.544 212.788 180.637 212.826 180.72 212.881C180.803 212.936 180.875 213.007 180.93 213.089C180.986 213.172 181.025 213.264 181.045 213.362L195.053 282.176C195.089 282.372 195.048 282.575 194.938 282.741C194.827 282.908 194.657 283.025 194.462 283.069L194.311 283.084Z" fill="#D1D3D4"/>
<path d="M223.174 283.084C223 283.084 222.831 283.024 222.696 282.914C222.56 282.803 222.467 282.65 222.432 282.479L207.561 213.68C207.539 213.582 207.536 213.481 207.553 213.383C207.57 213.284 207.606 213.19 207.659 213.106C207.713 213.021 207.783 212.948 207.865 212.891C207.946 212.833 208.039 212.793 208.137 212.771C208.335 212.735 208.54 212.775 208.709 212.885C208.878 212.995 208.998 213.166 209.045 213.362L223.917 282.161C223.939 282.258 223.942 282.359 223.925 282.458C223.908 282.556 223.872 282.65 223.818 282.735C223.765 282.819 223.695 282.892 223.613 282.95C223.531 283.007 223.439 283.048 223.341 283.069L223.174 283.084Z" fill="#D1D3D4"/>
<path d="M239.454 255.129C239.342 255.13 239.23 255.106 239.128 255.059C239.026 255.012 238.936 254.942 238.864 254.856C238.741 254.697 238.683 254.497 238.703 254.297C238.723 254.097 238.818 253.913 238.969 253.781L251.418 243.649C251.574 243.523 251.775 243.464 251.975 243.485C252.175 243.506 252.359 243.606 252.485 243.763C252.612 243.92 252.671 244.12 252.65 244.32C252.628 244.521 252.529 244.704 252.372 244.831L239.939 254.962C239.798 255.066 239.629 255.124 239.454 255.129Z" fill="#D1D3D4"/>
</svg>
