<svg width="23" height="23" viewBox="0 0 23 23" fill="none" xmlns="http://www.w3.org/2000/svg">
<path d="M19.7305 0.767822H2.54297C1.24902 0.767822 0.199219 1.81763 0.199219 3.11157V20.2991C0.199219 21.593 1.24902 22.6428 2.54297 22.6428H19.7305C21.0244 22.6428 22.0742 21.593 22.0742 20.2991V3.11157C22.0742 1.81763 21.0244 0.767822 19.7305 0.767822ZM17.3428 8.52173C17.3525 8.65845 17.3525 8.80005 17.3525 8.93677C17.3525 13.1702 14.1299 18.0481 8.24121 18.0481C6.4248 18.0481 4.74023 17.5208 3.32422 16.6125C3.58301 16.6418 3.83203 16.6516 4.0957 16.6516C5.59473 16.6516 6.97168 16.1438 8.07031 15.2844C6.66406 15.2551 5.48242 14.3323 5.07715 13.0627C5.57031 13.136 6.01465 13.136 6.52246 13.0042C5.05762 12.7063 3.95898 11.4172 3.95898 9.85962V9.82056C4.38379 10.0598 4.88184 10.2063 5.4043 10.2258C4.96505 9.93366 4.60497 9.53729 4.35619 9.0721C4.1074 8.6069 3.97765 8.08735 3.97852 7.55981C3.97852 6.96411 4.13477 6.41724 4.41309 5.9436C5.99023 7.88696 8.3584 9.15649 11.0146 9.29321C10.5605 7.12036 12.1865 5.35767 14.1396 5.35767C15.0625 5.35767 15.8926 5.74341 16.4785 6.36841C17.2012 6.23169 17.8945 5.96313 18.5098 5.59692C18.2705 6.33911 17.7676 6.96411 17.1035 7.35962C17.748 7.29126 18.373 7.1106 18.9492 6.86157C18.5146 7.50122 17.9678 8.06763 17.3428 8.52173Z" fill="black"/>
</svg>
