<svg width="23" height="23" viewBox="0 0 23 23" fill="none" xmlns="http://www.w3.org/2000/svg">
<path d="M20.3887 0.508057H3.20117C1.90723 0.508057 0.857422 1.55786 0.857422 2.85181V20.0393C0.857422 21.3333 1.90723 22.3831 3.20117 22.3831H20.3887C21.6826 22.3831 22.7324 21.3333 22.7324 20.0393V2.85181C22.7324 1.55786 21.6826 0.508057 20.3887 0.508057ZM18.001 8.26196C18.0107 8.39868 18.0107 8.54028 18.0107 8.677C18.0107 12.9104 14.7881 17.7883 8.89941 17.7883C7.08301 17.7883 5.39844 17.261 3.98242 16.3528C4.24121 16.3821 4.49023 16.3918 4.75391 16.3918C6.25293 16.3918 7.62988 15.884 8.72852 15.0247C7.32227 14.9954 6.14062 14.0725 5.73535 12.803C6.22852 12.8762 6.67285 12.8762 7.18066 12.7444C5.71582 12.4465 4.61719 11.1575 4.61719 9.59985V9.56079C5.04199 9.80005 5.54004 9.94653 6.0625 9.96606C5.62326 9.67389 5.26318 9.27752 5.01439 8.81233C4.7656 8.34714 4.63586 7.82759 4.63672 7.30005C4.63672 6.70435 4.79297 6.15747 5.07129 5.68384C6.64844 7.6272 9.0166 8.89673 11.6729 9.03345C11.2188 6.8606 12.8447 5.0979 14.7979 5.0979C15.7207 5.0979 16.5508 5.48364 17.1367 6.10864C17.8594 5.97192 18.5527 5.70337 19.168 5.33716C18.9287 6.07935 18.4258 6.70435 17.7617 7.09985C18.4062 7.03149 19.0312 6.85083 19.6074 6.60181C19.1729 7.24146 18.626 7.80786 18.001 8.26196Z" fill="black"/>
</svg>
