<svg width="25" height="18" viewBox="0 0 25 18" fill="none" xmlns="http://www.w3.org/2000/svg">
<path d="M24.0121 2.98008C23.7395 1.95361 22.9363 1.14519 21.9165 0.870839C20.0679 0.372314 12.6556 0.372314 12.6556 0.372314C12.6556 0.372314 5.24325 0.372314 3.39468 0.870839C2.37485 1.14523 1.57164 1.95361 1.29902 2.98008C0.803711 4.84063 0.803711 8.72249 0.803711 8.72249C0.803711 8.72249 0.803711 12.6043 1.29902 14.4649C1.57164 15.4914 2.37485 16.2661 3.39468 16.5405C5.24325 17.039 12.6556 17.039 12.6556 17.039C12.6556 17.039 20.0679 17.039 21.9165 16.5405C22.9363 16.2661 23.7395 15.4914 24.0121 14.4649C24.5074 12.6043 24.5074 8.72249 24.5074 8.72249C24.5074 8.72249 24.5074 4.84063 24.0121 2.98008ZM10.2313 12.2469V5.19805L16.4266 8.72258L10.2313 12.2469Z" fill="black"/>
</svg>
