<svg width="25" height="17" viewBox="0 0 25 17" fill="none" xmlns="http://www.w3.org/2000/svg">
<path d="M23.6703 2.72032C23.3977 1.69384 22.5945 0.885422 21.5747 0.611073C19.7261 0.112549 12.3138 0.112549 12.3138 0.112549C12.3138 0.112549 4.90145 0.112549 3.05289 0.611073C2.03305 0.885465 1.22984 1.69384 0.957227 2.72032C0.461914 4.58086 0.461914 8.46272 0.461914 8.46272C0.461914 8.46272 0.461914 12.3446 0.957227 14.2051C1.22984 15.2316 2.03305 16.0063 3.05289 16.2807C4.90145 16.7792 12.3138 16.7792 12.3138 16.7792C12.3138 16.7792 19.7261 16.7792 21.5747 16.2807C22.5945 16.0063 23.3977 15.2316 23.6703 14.2051C24.1656 12.3446 24.1656 8.46272 24.1656 8.46272C24.1656 8.46272 24.1656 4.58086 23.6703 2.72032ZM9.88952 11.9872V4.93829L16.0848 8.46281L9.88952 11.9872Z" fill="black"/>
</svg>
