<svg width="27" height="22" viewBox="0 0 27 22" fill="none" xmlns="http://www.w3.org/2000/svg">
<path d="M23.6642 0.145996H2.68057C1.22483 0.145996 0.0707319 1.31321 0.0707319 2.76895L0.0576172 18.5066C0.0576172 19.9624 1.22483 21.1296 2.68057 21.1296H23.6642C25.1199 21.1296 26.2871 19.9624 26.2871 18.5066V2.76895C26.2871 1.31321 25.1199 0.145996 23.6642 0.145996ZM11.8609 8.01484H7.92646V9.32632H11.8609C12.5822 9.32632 13.1724 9.91648 13.1724 10.6378V14.5722C13.1724 15.2935 12.5822 15.8837 11.8609 15.8837H10.5494C10.5494 16.605 9.95925 17.1952 9.23794 17.1952C8.51663 17.1952 7.92646 16.605 7.92646 15.8837H6.61499C5.89368 15.8837 5.30352 15.2935 5.30352 14.5722C5.30352 13.8509 5.89368 13.2607 6.61499 13.2607H10.5494V11.9493H6.61499C5.89368 11.9493 5.30352 11.3591 5.30352 10.6378V6.70337C5.30352 5.98206 5.89368 5.39189 6.61499 5.39189H7.92646C7.92646 4.67058 8.51663 4.08042 9.23794 4.08042C9.95925 4.08042 10.5494 4.67058 10.5494 5.39189H11.8609C12.5822 5.39189 13.1724 5.98206 13.1724 6.70337C13.1724 7.42468 12.5822 8.01484 11.8609 8.01484ZM17.9592 15.7525L15.7953 13.5886H21.0412L18.8773 15.7525C18.6281 16.0017 18.2084 16.0017 17.9592 15.7525ZM15.7953 8.01484L17.9592 5.85091C18.2215 5.58862 18.6281 5.58862 18.8904 5.85091L21.0412 8.01484H15.7953Z" fill="white"/>
</svg>
