<svg width="150" height="130" viewBox="0 0 150 130" fill="none" xmlns="http://www.w3.org/2000/svg">
<path d="M119.823 58.7593C135.87 58.7593 148.879 45.7527 148.879 29.7083C148.879 13.6639 135.87 0.657288 119.823 0.657288C103.776 0.657288 90.7671 13.6639 90.7671 29.7083C90.7671 45.7527 103.776 58.7593 119.823 58.7593Z" fill="white"/>
<path d="M119.844 59.023C114.045 59.023 108.376 57.3037 103.555 54.0826C98.7333 50.8615 94.9754 46.2831 92.7562 40.9265C90.5371 35.57 89.9565 29.6758 91.0878 23.9892C92.2191 18.3027 95.0115 13.0793 99.1119 8.9796C103.212 4.87986 108.437 2.0879 114.124 0.956782C119.811 -0.174335 125.707 0.406195 131.064 2.62496C136.422 4.84373 141.001 8.60107 144.222 13.4219C147.444 18.2426 149.164 23.9104 149.164 29.7083C149.155 37.4805 146.063 44.9319 140.567 50.4277C135.07 55.9235 127.617 59.0146 119.844 59.023ZM119.844 0.921035C114.149 0.921035 108.583 2.60938 103.848 5.77256C99.1132 8.93574 95.4229 13.4317 93.2437 18.6919C91.0645 23.9521 90.4943 29.7402 91.6053 35.3244C92.7162 40.9086 95.4584 46.0379 99.485 50.0639C103.512 54.0899 108.642 56.8316 114.227 57.9424C119.812 59.0531 125.601 58.483 130.862 56.3042C136.123 54.1254 140.62 50.4356 143.784 45.7016C146.947 40.9676 148.636 35.4018 148.636 29.7083C148.628 22.076 145.591 14.7587 140.194 9.36187C134.796 3.96504 127.478 0.929413 119.844 0.921035Z" fill="#231F20"/>
<path d="M119.823 51.9858C132.128 51.9858 142.104 42.0118 142.104 29.7083C142.104 17.4047 132.128 7.43073 119.823 7.43073C107.517 7.43073 97.5415 17.4047 97.5415 29.7083C97.5415 42.0118 107.517 51.9858 119.823 51.9858Z" fill="#AEECEF"/>
<path d="M119.823 45.4602C128.524 45.4602 135.578 38.4078 135.578 29.7082C135.578 21.0086 128.524 13.9562 119.823 13.9562C111.122 13.9562 104.068 21.0086 104.068 29.7082C104.068 38.4078 111.122 45.4602 119.823 45.4602Z" fill="white"/>
<path d="M119.823 40.0795C125.551 40.0795 130.196 35.4361 130.196 29.7082C130.196 23.9804 125.551 19.337 119.823 19.337C114.094 19.337 109.45 23.9804 109.45 29.7082C109.45 35.4361 114.094 40.0795 119.823 40.0795Z" fill="#AEECEF"/>
<path d="M1.20947 90.2369V97.1686L49.9347 128.82C49.9347 128.82 76.2785 109.228 92.9142 85.4627C109.55 61.6976 116.388 41.6779 116.388 41.6779H124.033V39.2882L113.913 35.9858L98.9765 38.2015V40.6334L108.141 41.0818C108.141 41.0818 94.2068 72.3906 63.0565 86.9345C31.9061 101.479 1.20947 90.2369 1.20947 90.2369Z" fill="#D1D3D4"/>
<path d="M49.9353 129.1C49.8845 129.102 49.8343 129.087 49.7929 129.058L1.06238 97.406C1.02621 97.3816 0.996665 97.3485 0.976406 97.3099C0.956147 97.2712 0.945806 97.2281 0.946306 97.1844V90.2369C0.946917 90.1948 0.957229 90.1533 0.976444 90.1158C0.99566 90.0783 1.02326 90.0457 1.05711 90.0206C1.09251 89.9973 1.13276 89.9823 1.17481 89.9768C1.21686 89.9713 1.2596 89.9755 1.29981 89.989C1.60582 90.105 32.2602 101.067 62.9463 86.7394C91.8807 73.2294 106.084 44.8483 107.741 41.3719L98.9613 40.9446C98.8941 40.9406 98.831 40.911 98.7849 40.862C98.7388 40.813 98.7132 40.7482 98.7133 40.6809V38.2437C98.7138 38.18 98.7368 38.1185 98.7784 38.0702C98.8199 38.0219 98.8773 37.9899 98.9402 37.9799L113.872 35.7696C113.912 35.7615 113.953 35.7615 113.993 35.7696L124.113 39.0719C124.166 39.0885 124.212 39.1215 124.245 39.166C124.278 39.2105 124.297 39.2643 124.297 39.3198V41.7095C124.296 41.7786 124.268 41.8443 124.218 41.8926C124.169 41.941 124.103 41.968 124.034 41.968H116.573C115.845 44.0148 108.775 63.2802 93.1312 85.6263C76.659 109.154 50.3521 128.841 50.0883 129.042C50.0448 129.077 49.9912 129.097 49.9353 129.1ZM1.46864 97.0262L49.9248 128.52C52.0616 126.9 76.9176 107.877 92.6985 85.3361C109.123 61.877 116.072 41.8309 116.14 41.6304C116.158 41.579 116.192 41.5345 116.236 41.5032C116.281 41.472 116.334 41.4556 116.388 41.4563H123.775V39.5203L113.893 36.2971L99.2673 38.4705V40.4276L108.184 40.8602C108.227 40.8634 108.268 40.8765 108.305 40.8985C108.341 40.9205 108.372 40.9507 108.395 40.9868C108.413 41.0247 108.423 41.0661 108.423 41.1082C108.423 41.1502 108.413 41.1916 108.395 41.2295C108.253 41.546 94.0598 72.7968 63.1785 87.2194C34.0594 100.809 4.98783 91.7826 1.46864 90.6062V97.0262Z" fill="#231F20"/>
<path d="M124.033 39.3304H115.623C110.427 51.0321 104.122 62.2088 96.7925 72.7071C78.173 98.9095 50.3625 119.742 50.3625 119.742L35.2674 110.684L20.5892 101.874L1.20459 90.2369C1.20459 90.2369 33.1095 92.9431 71.6042 68.7296C93.9171 54.6973 106.997 38.2437 106.997 38.2437H98.9769L120.05 28.4791L124.033 39.3304Z" fill="white"/>
<path d="M50.3677 120.005C50.3194 120.006 50.2718 119.994 50.2305 119.968L1.06738 90.4638C1.01529 90.4335 0.975119 90.3864 0.953542 90.3301C0.931965 90.2739 0.930282 90.212 0.948774 90.1547C0.967266 90.0974 1.00482 90.0481 1.05519 90.0151C1.10556 89.982 1.16572 89.9673 1.22567 89.9732C1.54751 89.9995 33.4946 92.3892 71.467 68.508C91.5164 55.9106 104.211 41.1873 106.437 38.5075H98.9769C98.9422 38.5147 98.9065 38.5151 98.8717 38.5086C98.8369 38.5021 98.8037 38.4887 98.7741 38.4694C98.7444 38.45 98.7189 38.425 98.6989 38.3958C98.679 38.3666 98.6649 38.3337 98.6576 38.2991C98.6504 38.2645 98.65 38.2287 98.6565 38.1939C98.6631 38.1592 98.6764 38.126 98.6957 38.0964C98.7151 38.0667 98.7401 38.0412 98.7693 38.0212C98.7985 38.0012 98.8314 37.9872 98.8661 37.9799L119.939 28.1943C119.972 28.1788 120.008 28.1707 120.045 28.1707C120.081 28.1707 120.117 28.1788 120.15 28.1943C120.184 28.2081 120.215 28.2289 120.24 28.2552C120.265 28.2816 120.285 28.3129 120.298 28.3473L124.281 39.2196C124.296 39.2595 124.3 39.3022 124.295 39.3441C124.289 39.3861 124.273 39.4261 124.249 39.4608C124.225 39.4955 124.192 39.5238 124.155 39.5433C124.117 39.5628 124.076 39.5731 124.033 39.5731H115.787C115.011 41.3561 107.872 57.5354 96.9983 72.839C78.5687 98.7723 50.8056 119.72 50.526 119.931C50.4839 119.974 50.4277 120.001 50.3677 120.005ZM2.24924 90.5534L50.3519 119.425C52.5204 117.774 78.8431 97.4641 96.5657 72.5542C108.004 56.4593 115.296 39.399 115.37 39.2249C115.391 39.1781 115.425 39.1384 115.468 39.1103C115.511 39.0823 115.561 39.0671 115.613 39.0666H123.659L119.902 28.8168L100.175 37.9747H106.997C107.046 37.9746 107.095 37.9884 107.137 38.0145C107.178 38.0406 107.212 38.078 107.234 38.1224C107.256 38.1671 107.265 38.2172 107.26 38.2669C107.254 38.3165 107.234 38.3634 107.202 38.402C107.07 38.5655 93.8432 55.0508 71.7467 68.9459C51.8239 81.4799 33.7056 86.6708 22.019 88.8179C11.989 90.6642 4.824 90.6431 2.24924 90.5534Z" fill="#231F20"/>
<path d="M57.4852 96.3087C56.0765 96.8995 42.406 105.947 35.5101 110.526L20.8477 101.763C25.5698 99.6532 33.579 96.1874 36.3648 95.9131C40.3483 95.5174 51.5443 93.2754 55.6544 91.2392C59.7645 89.2029 73.0657 80.0925 75.7038 81.3216C78.3418 82.5508 59.3688 95.5174 57.4852 96.3087Z" fill="#E6E7E8"/>
<path d="M64.0645 25.699C64.0645 25.699 65.9533 27.5137 65.7581 28.0202C65.5629 28.5266 64.534 28.4527 64.534 28.4527" fill="white"/>
<path d="M64.6818 28.7218H64.5129C64.4783 28.7194 64.4445 28.7101 64.4134 28.6947C64.3823 28.6792 64.3546 28.6577 64.3318 28.6315C64.2858 28.5786 64.2627 28.5095 64.2676 28.4396C64.2725 28.3696 64.305 28.3045 64.3579 28.2585C64.4108 28.2125 64.4799 28.1894 64.5499 28.1943C64.8928 28.1943 65.431 28.1521 65.5101 27.9305C65.5893 27.7089 64.7662 26.7488 63.8798 25.8995C63.8551 25.875 63.8354 25.8458 63.822 25.8137C63.8087 25.7815 63.8018 25.7471 63.8018 25.7122C63.8018 25.6774 63.8087 25.6429 63.822 25.6108C63.8354 25.5787 63.8551 25.5495 63.8798 25.525C63.9039 25.5004 63.9326 25.4809 63.9643 25.4676C63.996 25.4542 64.0301 25.4474 64.0645 25.4474C64.0988 25.4474 64.1329 25.4542 64.1646 25.4676C64.1963 25.4809 64.2251 25.5004 64.2491 25.525C65.0036 26.2477 66.233 27.5454 66.0114 28.131C65.7898 28.7165 65.0353 28.7218 64.6818 28.7218Z" fill="#231F20"/>
<path d="M63.1252 22.9559C64.1805 23.4834 64.2754 25.066 64.497 26.1211C64.803 27.5401 65.0827 28.9645 65.3254 30.3941C65.4784 31.3014 63.1569 31.8448 62.6873 31.6654L63.8533 35.126L58.5772 34.3558L58.1129 31.3595C58.1129 31.3595 57.1526 28.3947 57.6486 26.3638C57.9942 25.0805 58.6902 23.9188 59.6588 23.0087C59.6588 23.0087 62.0911 22.4389 63.1252 22.9559Z" fill="white"/>
<path d="M63.8534 35.3634H63.8112L58.5351 34.5879C58.4797 34.5806 58.4282 34.5556 58.3883 34.5166C58.3484 34.4776 58.3221 34.4268 58.3135 34.3716L57.8492 31.3964C57.8228 31.312 56.8889 28.3789 57.3954 26.3004C57.757 24.9613 58.4884 23.751 59.5059 22.8082C59.5399 22.7806 59.5795 22.7608 59.622 22.7502C59.7275 22.7502 62.1809 22.1646 63.2889 22.7185C64.2861 23.246 64.5129 24.4805 64.6923 25.4986C64.7293 25.6885 64.7609 25.8731 64.7979 26.0261C65.1039 27.4346 65.3835 28.8801 65.6262 30.3044C65.6489 30.4727 65.6238 30.6441 65.5538 30.7989C65.4839 30.9537 65.3718 31.0858 65.2305 31.1801C64.608 31.6151 63.8779 31.8705 63.12 31.9186L64.1753 34.9994C64.1886 35.0389 64.1924 35.081 64.1863 35.1223C64.1802 35.1636 64.1644 35.2028 64.1402 35.2368C64.116 35.2708 64.0841 35.2985 64.0471 35.3178C64.0101 35.337 63.969 35.3472 63.9273 35.3476L63.8534 35.3634ZM58.783 34.0973L63.463 34.7778L62.4394 31.7234C62.4243 31.6758 62.4226 31.625 62.4348 31.5765C62.4469 31.5281 62.4722 31.484 62.508 31.4491C62.5442 31.4155 62.5891 31.3928 62.6376 31.3834C62.6861 31.3741 62.7363 31.3786 62.7824 31.3964C63.5183 31.4158 64.2418 31.2036 64.8506 30.7897C65.0142 30.6578 65.0828 30.5312 65.0617 30.4099C64.819 28.9908 64.534 27.556 64.2386 26.1527C64.2016 25.9786 64.1647 25.7887 64.1331 25.5883C63.9695 24.6915 63.7743 23.5731 63.0092 23.1933C62.2442 22.8135 60.4767 23.0931 59.7644 23.2513C58.8651 24.1184 58.2162 25.2118 57.8861 26.4165C57.4113 28.3525 58.3346 31.2434 58.3398 31.2698L58.783 34.0973Z" fill="#231F20"/>
<path d="M65.0514 29.3179C64.9353 29.4415 64.794 29.5385 64.6369 29.6023C64.4799 29.6662 64.3109 29.6953 64.1416 29.6878C63.9722 29.6803 63.8065 29.6363 63.6557 29.5588C63.5049 29.4813 63.3727 29.3721 63.2681 29.2388" fill="white"/>
<path d="M64.149 29.972H64.0857C63.8858 29.9573 63.6914 29.8997 63.5157 29.8032C63.34 29.7067 63.1871 29.5736 63.0674 29.4129C63.0404 29.3873 63.0191 29.3564 63.0049 29.322C62.9907 29.2877 62.9839 29.2508 62.985 29.2136C62.986 29.1765 62.995 29.14 63.0111 29.1065C63.0273 29.0731 63.0503 29.0434 63.0787 29.0195C63.1072 28.9955 63.1403 28.9779 63.1761 28.9676C63.2118 28.9574 63.2493 28.9549 63.2861 28.9601C63.3228 28.9654 63.3581 28.9784 63.3895 28.9982C63.4209 29.018 63.4478 29.0443 63.4684 29.0752C63.5437 29.1779 63.6391 29.264 63.7489 29.3285C63.8587 29.3929 63.9805 29.4342 64.1068 29.4498C64.3892 29.436 64.6579 29.324 64.8666 29.1333C64.8911 29.1085 64.9203 29.0889 64.9524 29.0755C64.9846 29.0621 65.019 29.0552 65.0539 29.0552C65.0887 29.0552 65.1232 29.0621 65.1553 29.0755C65.1875 29.0889 65.2167 29.1085 65.2412 29.1333C65.2657 29.1573 65.2853 29.1861 65.2986 29.2178C65.3119 29.2495 65.3188 29.2835 65.3188 29.3179C65.3188 29.3523 65.3119 29.3863 65.2986 29.418C65.2853 29.4497 65.2657 29.4785 65.2412 29.5025C64.9448 29.7842 64.5574 29.9508 64.149 29.972Z" fill="#231F20"/>
<path d="M63.2406 25.8056C63.35 25.7747 63.3755 25.5269 63.2977 25.2522C63.2198 24.9775 63.0681 24.7799 62.9587 24.8109C62.8494 24.8418 62.8239 25.0896 62.9017 25.3643C62.9796 25.639 63.1313 25.8366 63.2406 25.8056Z" fill="#231F20"/>
<path d="M57.7646 35.4266L57.828 33.7702L64.2227 33.3904L65.5522 36.0913C62.9379 36.2499 60.3143 36.026 57.7646 35.4266Z" fill="white"/>
<path d="M64.0647 36.3921C61.925 36.3912 59.7923 36.1487 57.707 35.6694C57.647 35.6569 57.5933 35.6236 57.5557 35.5753C57.518 35.5269 57.4987 35.4668 57.5012 35.4056L57.5856 33.7544C57.5869 33.6886 57.6133 33.6257 57.6594 33.5787C57.7055 33.5316 57.7678 33.5039 57.8336 33.5012L64.2283 33.1214C64.2803 33.1189 64.3319 33.1315 64.3768 33.1577C64.4218 33.184 64.4581 33.2226 64.4815 33.2691L65.8111 35.9701C65.8319 36.0071 65.8428 36.0489 65.8428 36.0914C65.8428 36.1339 65.8319 36.1757 65.8111 36.2127C65.7907 36.2503 65.7612 36.2821 65.7252 36.3051C65.6892 36.3282 65.648 36.3418 65.6054 36.3446C65.6054 36.3446 65.0039 36.3921 64.0647 36.3921ZM58.0341 35.2051C60.3666 35.7302 62.7571 35.9518 65.1463 35.8646L64.0647 33.6753L58.0816 34.0288L58.0341 35.2051Z" fill="#231F20"/>
<path d="M79.6294 41.1398C80.1364 40.4077 80.5913 39.6409 80.9906 38.845C81.0202 38.269 81.1194 37.6986 81.2861 37.1464C81.5446 36.6189 82.2675 36.0913 82.6474 36.8035C82.6474 36.8035 82.7793 35.5691 83.6287 36.2074C84.0019 36.4648 84.2873 36.8302 84.4467 37.2546C84.6061 37.6789 84.6318 38.1419 84.5204 38.5813C84.3515 39.5256 81.1595 44.4157 81.1595 44.4157" fill="white"/>
<path d="M81.159 44.6848C81.1082 44.6863 81.0583 44.6715 81.0165 44.6426C80.9578 44.6048 80.9166 44.5452 80.9017 44.477C80.8869 44.4087 80.8997 44.3374 80.9374 44.2786C82.2089 42.332 84.1453 39.1932 84.2614 38.5444C84.363 38.154 84.3416 37.7417 84.1999 37.364C84.0582 36.9863 83.8033 36.6615 83.4699 36.4342C83.3275 36.3287 83.2114 36.2865 83.1481 36.3129C83.0848 36.3393 82.9318 36.6558 82.9107 36.8404C82.9047 36.8967 82.8809 36.9496 82.8426 36.9913C82.8042 37.033 82.7535 37.0613 82.6979 37.0719C82.6423 37.0825 82.5848 37.075 82.5338 37.0504C82.4828 37.0259 82.441 36.9855 82.4147 36.9354C82.2986 36.7191 82.1826 36.7191 82.1456 36.7191C82.0092 36.7538 81.8825 36.8195 81.7755 36.9109C81.6684 37.0024 81.5839 37.1173 81.5283 37.2466C81.3932 37.6063 81.3201 37.9862 81.312 38.3703C81.3022 38.5473 81.2811 38.7235 81.2487 38.8978C80.8495 39.7311 80.38 40.5288 79.8452 41.2822C79.804 41.3334 79.7451 41.3674 79.6802 41.3774C79.6152 41.3875 79.5489 41.373 79.4941 41.3366C79.4393 41.3003 79.4 41.2449 79.384 41.1812C79.3679 41.1174 79.3762 41.05 79.4073 40.9921C79.9047 40.2903 80.3474 39.5513 80.7316 38.7818C80.7578 38.6316 80.7754 38.4802 80.7844 38.3281C80.7966 37.8835 80.8859 37.4444 81.0482 37.0304C81.1393 36.8066 81.2868 36.6103 81.4763 36.4605C81.6659 36.3107 81.891 36.2126 82.1298 36.1758C82.2651 36.1716 82.3988 36.2064 82.515 36.276C82.5906 36.0714 82.7416 35.9034 82.9371 35.8065C83.0819 35.7562 83.2379 35.7468 83.3878 35.7793C83.5376 35.8119 83.6756 35.8852 83.7865 35.9911C84.2007 36.2776 84.5175 36.6836 84.6947 37.155C84.872 37.6263 84.9012 38.1404 84.7784 38.6288C84.6043 39.5994 81.7077 44.057 81.3806 44.5635C81.3561 44.6 81.3232 44.63 81.2846 44.6511C81.246 44.6723 81.2029 44.6838 81.159 44.6848Z" fill="#231F20"/>
<path d="M40.4482 51.1628C40.4482 51.1628 39.7412 52.3339 39.335 53.2255C39.0233 54.0788 38.8039 54.9631 38.6807 55.8631C38.475 55.5677 38.1109 55.4675 37.8893 55.2037C37.8263 55.587 37.7016 55.9576 37.52 56.301C37.4247 56.4701 37.2892 56.613 37.1253 56.717C36.9614 56.821 36.7744 56.8829 36.5808 56.8971C36.3736 56.8882 36.1705 56.8361 35.9846 56.7441C35.2987 56.4539 34.1696 55.9317 34.0958 55.0665C34.0933 54.7325 34.1867 54.4048 34.3648 54.1223C35.0138 52.9195 37.7099 49.8704 38.1478 49.3745" fill="white"/>
<path d="M36.576 57.1186C36.3346 57.1077 36.0978 57.0485 35.8796 56.9446C35.2939 56.6966 33.9274 56.1163 33.8325 55.0455C33.8245 54.6617 33.9291 54.2839 34.1332 53.9588C34.856 52.6136 37.9215 49.211 37.9531 49.1582C37.9763 49.1323 38.0044 49.1111 38.0358 49.096C38.0672 49.0809 38.1013 49.0721 38.1361 49.0701C38.1708 49.0682 38.2057 49.0731 38.2386 49.0846C38.2714 49.0961 38.3017 49.1139 38.3277 49.1371C38.3537 49.1604 38.3749 49.1884 38.39 49.2198C38.4051 49.2512 38.4139 49.2853 38.4159 49.32C38.4178 49.3548 38.4129 49.3897 38.4014 49.4225C38.3899 49.4554 38.372 49.4857 38.3488 49.5117C37.5574 50.3874 35.1831 53.1253 34.6028 54.2067C34.4463 54.4431 34.362 54.7198 34.3601 55.0033C34.4181 55.6679 35.315 56.1322 36.0906 56.4592C36.2416 56.5363 36.4069 56.5812 36.576 56.5911C36.725 56.5776 36.8683 56.5277 36.9934 56.4459C37.1185 56.364 37.2216 56.2527 37.2936 56.1216C37.4627 55.8056 37.5769 55.4631 37.6313 55.1088C37.6417 55.0604 37.6656 55.016 37.7001 54.9805C37.7346 54.9451 37.7784 54.9201 37.8265 54.9083C37.8739 54.8945 37.9243 54.8952 37.9713 54.9102C38.0183 54.9253 38.0597 54.954 38.0903 54.9927C38.1836 55.0884 38.2902 55.1701 38.4069 55.2354L38.4966 55.2987C38.6201 54.5448 38.8217 53.8058 39.098 53.0936C39.5043 52.1968 40.1902 51.0468 40.2219 50.9835C40.2392 50.9538 40.2624 50.9278 40.29 50.9071C40.3175 50.8864 40.3489 50.8715 40.3824 50.8631C40.4158 50.8548 40.4506 50.8532 40.4846 50.8585C40.5187 50.8637 40.5513 50.8757 40.5806 50.8938C40.6109 50.9107 40.6375 50.9335 40.6586 50.961C40.6797 50.9885 40.6949 51.0201 40.7033 51.0537C40.7117 51.0874 40.7131 51.1223 40.7075 51.1565C40.7018 51.1907 40.6891 51.2234 40.6703 51.2525C40.6703 51.2525 39.9686 52.4289 39.5782 53.2941C39.2792 54.1194 39.0653 54.9732 38.9398 55.842C38.9313 55.8935 38.9077 55.9414 38.8721 55.9795C38.8364 56.0176 38.7902 56.0443 38.7394 56.0562C38.6885 56.068 38.6353 56.0645 38.5865 56.0461C38.5376 56.0277 38.4953 55.9953 38.4649 55.9528C38.3683 55.8349 38.2501 55.7364 38.1167 55.6627L38.0481 55.6205C37.9844 55.8875 37.8812 56.1435 37.7421 56.3801C37.6247 56.5882 37.4569 56.7635 37.2541 56.8898C37.0513 57.0161 36.8199 57.0894 36.5813 57.1028L36.576 57.1186Z" fill="#231F20"/>
<path d="M71.2295 80.0556C71.2295 80.0556 70.7019 83.6955 72.2109 84.2336C73.7198 84.7717 81.4547 78.6102 80.9165 77.2439C80.3783 75.8776 77.7508 75.4081 75.3765 77.2439C74.061 78.276 72.6753 79.2155 71.2295 80.0556Z" fill="#231F20"/>
<path d="M72.4168 84.5238C72.318 84.5256 72.2197 84.5095 72.1266 84.4763C70.4647 83.8907 70.9131 80.4143 70.9712 80.0187C70.9769 79.9782 70.9918 79.9397 71.0146 79.9059C71.0375 79.872 71.0677 79.8439 71.1031 79.8235C72.5372 78.9906 73.9123 78.06 75.2185 77.0381C75.8169 76.5243 76.5254 76.1549 77.2892 75.9582C78.0531 75.7616 78.8519 75.743 79.6241 75.9039C79.9605 75.9762 80.2752 76.1265 80.5428 76.3428C80.8105 76.559 81.0235 76.8352 81.1647 77.1489C81.2333 77.3283 81.4496 77.8822 79.7771 79.6072C78.0201 81.4219 74.0155 84.5238 72.4168 84.5238ZM71.4724 80.2191C71.3458 81.2742 71.2772 83.6217 72.3008 83.9857C73.1291 84.2758 77.0493 81.6645 79.3972 79.2379C80.5368 78.0668 80.7373 77.4865 80.674 77.3335C80.5607 77.097 80.3941 76.8901 80.1871 76.7289C79.9802 76.5678 79.7387 76.457 79.4816 76.4051C78.7876 76.2709 78.0722 76.2961 77.3894 76.4789C76.7067 76.6616 76.0744 76.9972 75.5403 77.4601C74.2458 78.4673 72.887 79.3889 71.4724 80.2191Z" fill="#231F20"/>
<path d="M55.6543 63.5703C55.6543 63.5703 64.877 66.0445 71.7624 64.7837L71.1398 80.0398C71.1398 80.0398 73.7515 80.9893 76.5953 77.3177C76.5953 77.3177 79.3442 58.5746 77.5661 57.6726C75.7881 56.7705 59.4901 57.8361 59.4901 57.8361L55.6543 63.5703Z" fill="white"/>
<path d="M71.9683 80.4248C71.6576 80.4301 71.3479 80.3874 71.0503 80.2982C70.9957 80.2782 70.9489 80.2413 70.9167 80.193C70.8845 80.1446 70.8684 80.0873 70.8709 80.0292L71.4776 65.1107C64.6186 66.2291 55.6492 63.8605 55.5806 63.8341C55.5388 63.8235 55.5004 63.8025 55.469 63.773C55.4376 63.7434 55.4143 63.7063 55.4012 63.6653C55.3817 63.6268 55.3716 63.5844 55.3716 63.5413C55.3716 63.4982 55.3817 63.4558 55.4012 63.4173L59.237 57.6831C59.261 57.6485 59.2924 57.6197 59.3289 57.5988C59.3654 57.5778 59.406 57.5651 59.448 57.5618C61.1205 57.4563 75.8674 56.5067 77.6613 57.4299C79.4552 58.3531 77.3025 74.1947 76.8382 77.3546C76.8295 77.4 76.8115 77.4431 76.7854 77.4812C74.8702 79.987 73.0288 80.4248 71.9683 80.4248ZM71.4407 79.834C72.058 79.9553 74.0788 80.0872 76.3528 77.1964C77.6824 68.0965 78.4632 58.4111 77.4555 57.9047C76.0679 57.203 64.2651 57.7886 59.659 58.0893L56.1082 63.3646C57.8968 63.8024 65.7583 65.5749 71.7309 64.4829C71.771 64.4743 71.8126 64.4756 71.8521 64.4866C71.8916 64.4976 71.9279 64.5181 71.9578 64.5462C71.9896 64.5721 72.0149 64.6053 72.0314 64.6429C72.0479 64.6805 72.0552 64.7215 72.0527 64.7625L71.4407 79.834Z" fill="#231F20"/>
<path d="M50.5578 60.9116C50.5578 60.9116 48.1255 75.8354 47.6506 76.0728C47.1757 76.3102 33.9326 87.7998 33.9326 87.7998L37.8422 91.2392C37.8422 91.2392 52.6155 82.3029 53.4544 79.66C54.2933 77.0171 60.8779 60.9116 60.8779 60.9116H50.5578Z" fill="white"/>
<path d="M37.8473 91.5082C37.781 91.5087 37.717 91.4842 37.6679 91.4397L33.7583 88.0054C33.7283 87.9802 33.7042 87.9487 33.6877 87.9132C33.6712 87.8776 33.6626 87.8389 33.6626 87.7997C33.6626 87.7605 33.6712 87.7218 33.6877 87.6863C33.7042 87.6507 33.7283 87.6192 33.7583 87.594C35.9162 85.7265 46.458 76.5844 47.4763 75.8723C47.8773 75.1232 49.4126 66.3082 50.299 60.8694C50.309 60.8051 50.3416 60.7464 50.3909 60.7039C50.4402 60.6613 50.503 60.6377 50.5681 60.6373H60.8935C60.9377 60.6373 60.9811 60.6485 61.0198 60.6697C61.0585 60.6909 61.0913 60.7215 61.1151 60.7586C61.141 60.7949 61.157 60.8374 61.1616 60.8817C61.1663 60.9261 61.1593 60.9709 61.1415 61.0118C61.0782 61.1753 54.5463 77.1436 53.7285 79.7443C52.8791 82.4506 38.6071 91.102 38.0003 91.4713C37.954 91.4983 37.9008 91.5111 37.8473 91.5082ZM34.3492 87.8155L37.879 90.9121C42.0999 88.3589 52.5519 81.6487 53.1798 79.5914C53.9396 77.1647 59.4373 63.6864 60.4556 61.1964H50.7844C48.3679 76.0306 47.9353 76.2468 47.7717 76.326C47.3338 76.5792 39.599 83.2524 34.3703 87.805L34.3492 87.8155Z" fill="#231F20"/>
<path d="M45.1021 74.9861C45.1021 74.9861 53.5017 80.7098 58.4085 79.7339C72.5433 76.8588 79.7611 57.335 79.7611 57.335C79.7611 57.335 70.264 56.0636 65.22 54.8029L50.5576 59.4979L45.1021 74.9861Z" fill="#231F20"/>
<path d="M57.1632 80.0925C52.1931 80.0925 45.2708 75.4186 44.9542 75.2023C44.9061 75.1695 44.8701 75.1217 44.852 75.0664C44.8338 75.011 44.8345 74.9513 44.854 74.8964L50.3095 59.387C50.3225 59.3491 50.3441 59.3147 50.3724 59.2864C50.4007 59.258 50.4352 59.2365 50.4731 59.2235L65.1408 54.5337C65.1873 54.5204 65.2367 54.5204 65.2832 54.5337C70.2533 55.7787 79.7029 57.0448 79.7979 57.0553C79.837 57.0609 79.8744 57.0751 79.9073 57.097C79.9401 57.1189 79.9677 57.148 79.9878 57.1819C80.0034 57.2177 80.0114 57.2563 80.0114 57.2954C80.0114 57.3344 80.0034 57.373 79.9878 57.4088C79.914 57.604 72.5537 77.1067 58.44 79.9712C58.0195 80.0537 57.5918 80.0943 57.1632 80.0925ZM45.4185 74.9016C46.6215 75.6876 53.9923 80.3615 58.3556 79.4753C71.2189 76.864 78.405 60.0359 79.3969 57.5459C77.6769 57.3138 69.7099 56.1902 65.2304 55.0771L50.758 59.7035L45.4185 74.9016Z" fill="#231F20"/>
<path d="M69.0293 38.6868C69.0293 38.6868 68.2643 35.606 59.0785 34.6248C56.8588 34.3617 54.6086 34.6554 52.5308 35.4794C52.2934 36.9037 50.1196 54.6181 49.1699 59.4767C49.1699 59.4767 61.5478 62.1776 66.539 55.1351C66.5548 55.1351 68.3223 40.2272 69.0293 38.6868Z" fill="#AEECEF"/>
<path d="M58.4085 37.9746C58.4085 37.9746 49.0592 39.0297 46.6849 40.185C44.3106 41.3402 36.3647 50.1711 36.3647 50.1711L40 53.658C40 53.658 46.152 47.6811 47.8615 46.9057C49.5709 46.1302 56.6304 47.6706 56.6304 47.6706L58.4085 37.9746Z" fill="#AEECEF"/>
<path d="M69.0292 38.6868L74.1787 47.2644L79.7451 40.1533L82.668 43.3818C82.668 43.3818 77.7507 53.0461 75.3711 52.9986C70.2111 52.8984 63.3257 46.0352 63.3257 46.0352L69.0292 38.6868Z" fill="#AEECEF"/>
<path d="M37.8472 91.255C37.5675 87.7312 35.953 86.6867 34.7975 87.0717C33.6421 87.4568 32.8559 87.5676 33.183 90.9913C33.5102 94.4149 35.3621 99.3421 37.2246 98.9042C39.0871 98.4664 38.1268 94.7578 37.8472 91.255Z" fill="#231F20"/>
<path d="M37.0084 99.1679C36.6713 99.1588 36.346 99.0424 36.0798 98.8356C34.5444 97.7383 33.2201 93.8979 32.9141 90.9965C32.5975 87.6625 33.3045 87.2616 34.5761 86.8448L34.7133 86.8026C34.9831 86.7158 35.2696 86.693 35.5498 86.736C35.83 86.779 36.0964 86.8867 36.3278 87.0506C37.3091 87.6994 37.9423 89.1607 38.1058 91.2128C38.1639 91.9566 38.2536 92.7162 38.3432 93.4495C38.6862 96.2823 38.9764 98.7248 37.288 99.131C37.1962 99.1522 37.1026 99.1646 37.0084 99.1679ZM35.2831 87.2352C35.1538 87.2352 35.0255 87.2566 34.9032 87.2985L34.766 87.346C33.7688 87.6678 33.1832 87.8735 33.4628 90.949C33.7266 93.6763 34.9876 97.406 36.3805 98.4083C36.4911 98.5009 36.6209 98.5679 36.7605 98.6044C36.9 98.6409 37.046 98.646 37.1878 98.6193C38.4277 98.3239 38.1586 96.0924 37.8473 93.5075C37.7576 92.7743 37.6679 92.0094 37.6099 91.255C37.4041 88.7334 36.5546 87.8102 36.064 87.4884C35.8286 87.325 35.5485 87.2384 35.262 87.2405L35.2831 87.2352Z" fill="#231F20"/>
<path d="M61.8064 20.3816C59.2831 19.9154 56.6777 20.4591 54.5517 21.8956C53.8628 22.3554 53.2829 22.9604 52.8527 23.6681C51.6392 25.7782 52.4729 28.3736 51.7236 30.6209C50.9744 32.8682 48.4313 34.5826 46.7799 36.1494C44.8805 37.9483 43.0338 39.879 41.8942 42.2371C40 46.1672 41.0606 49.7649 43.7567 52.9512C44.1208 53.3991 44.5431 53.7965 45.0124 54.1329C45.9575 54.6987 47.0215 55.0365 48.12 55.1193C50.1514 55.3884 53.0796 55.5888 54.8735 54.3491C56.1556 53.4576 57.137 51.3792 57.2056 49.8651C57.2742 48.3511 56.6516 46.7 57.0842 45.1912C57.7279 42.9492 60.4398 41.794 61.0835 39.5572C61.5426 37.943 60.7881 36.2391 59.8436 34.857C59.1155 33.8019 58.2186 32.5675 58.609 31.3383C58.8412 30.6104 59.4796 30.0987 59.9492 29.5025C60.536 28.7447 60.8717 27.8226 60.9094 26.8649C60.9516 26.0156 60.5295 25.2348 60.5612 24.4172C61.2788 24.7442 62.144 24.4172 62.8616 24.3433C63.7744 24.2431 64.6871 24.1218 65.5999 23.9846C65.4084 23.0198 64.8859 22.1521 64.1226 21.5316C63.4489 20.9758 62.6564 20.5824 61.8064 20.3816Z" fill="white"/>
<path d="M50.8533 55.5888C49.9283 55.5792 49.0048 55.5105 48.0886 55.3831C46.9513 55.2901 45.8505 54.9382 44.8701 54.3544C44.3797 54.0046 43.9394 53.5892 43.5616 53.12C40.5173 49.5222 39.8683 45.8243 41.6622 42.1263C42.823 39.726 44.7224 37.7425 46.606 35.9542C46.9911 35.5902 47.4185 35.2209 47.8723 34.8358C49.3021 33.6014 50.9271 32.1982 51.4811 30.5365C51.746 29.5658 51.8686 28.5618 51.8452 27.5559C51.8769 26.2002 51.9138 24.797 52.6313 23.5362C53.083 22.7927 53.6939 22.1585 54.42 21.6793C56.6029 20.1939 59.2823 19.6255 61.8804 20.0967C62.7717 20.3071 63.6023 20.7206 64.3075 21.3047C65.1349 21.9652 65.6968 22.9015 65.8903 23.9424C65.9011 24.0128 65.8841 24.0847 65.8428 24.1428C65.7998 24.1982 65.7378 24.2358 65.6687 24.2483C64.7559 24.3855 63.8273 24.5068 62.9198 24.6071C62.7352 24.6071 62.5452 24.6651 62.35 24.702C61.8669 24.821 61.3657 24.8479 60.8727 24.7811C60.9076 25.0404 60.9569 25.2975 61.0204 25.5513C61.147 25.983 61.2092 26.4309 61.2051 26.8807C61.1633 27.8899 60.8094 28.8612 60.1921 29.6608C60.0496 29.8454 59.8913 30.0142 59.7383 30.1883C59.3734 30.534 59.0858 30.9528 58.8941 31.4174C58.5565 32.4725 59.3162 33.575 59.9863 34.5826L60.0918 34.7303C61.3475 36.5714 61.7749 38.2278 61.3686 39.6574C61.0257 40.8391 60.1499 41.7254 59.3057 42.5852C58.4615 43.4451 57.6753 44.2364 57.3693 45.2862C57.1871 46.1737 57.1871 47.089 57.3693 47.9766C57.4732 48.6129 57.5192 49.2574 57.5065 49.902C57.4379 51.3897 56.4829 53.5947 55.0584 54.5918C53.8923 55.3831 52.3517 55.5888 50.8533 55.5888ZM60.1129 20.4607C58.192 20.4674 56.3159 21.0418 54.7207 22.1118C54.0632 22.5464 53.51 23.1211 53.1009 23.7947C52.4467 24.9394 52.415 26.216 52.3834 27.5665C52.4115 28.6351 52.2799 29.7019 51.9929 30.7317C51.3967 32.5358 49.7084 33.9812 48.2258 35.2579C47.7773 35.643 47.3552 36.0069 46.9806 36.3657C45.1339 38.1171 43.2873 40.0584 42.1476 42.3795C40.4645 45.8717 41.0924 49.3798 43.9732 52.8087C44.3211 53.2394 44.7257 53.621 45.1761 53.9429C46.089 54.48 47.1119 54.8029 48.1677 54.8872C49.3126 55.0349 52.8055 55.4991 54.7365 54.1592C55.987 53.2941 56.8945 51.2472 56.9578 49.8809C56.9662 49.2664 56.9221 48.6522 56.8259 48.0451C56.6254 47.0884 56.6254 46.1005 56.8259 45.1437C57.1688 43.9621 58.0447 43.0706 58.8889 42.216C59.733 41.3614 60.5192 40.5648 60.8252 39.5097C61.184 38.2384 60.783 36.7349 59.6222 35.031L59.5167 34.878C58.7781 33.823 57.9339 32.578 58.356 31.2856C58.5659 30.7465 58.8919 30.2602 59.3109 29.8612C59.4587 29.6977 59.6064 29.5342 59.7383 29.3654C60.2873 28.6495 60.6023 27.7819 60.6405 26.8807C60.6433 26.4806 60.5864 26.0823 60.4717 25.699C60.3556 25.2869 60.2953 24.8611 60.2923 24.433C60.293 24.3892 60.3048 24.3464 60.3266 24.3084C60.3484 24.2705 60.3794 24.2387 60.4169 24.216C60.4543 24.1933 60.4969 24.1805 60.5406 24.1788C60.5844 24.1771 60.6278 24.1865 60.6669 24.2061C61.1726 24.3593 61.7124 24.3593 62.2181 24.2061C62.4239 24.1692 62.6296 24.1323 62.8249 24.1112C63.6374 24.0162 64.4605 23.9107 65.2783 23.7947C65.054 22.9973 64.5898 22.2882 63.9487 21.7637C63.3067 21.2316 62.5499 20.856 61.738 20.6664C61.2058 20.5365 60.6607 20.4674 60.1129 20.4607Z" fill="#231F20"/>
<path d="M61.9539 27.3343C61.9018 26.973 61.7502 26.6333 61.516 26.3531C61.3736 26.1133 61.1957 25.8963 60.9884 25.7096C60.8816 25.6177 60.7555 25.551 60.6194 25.5145C60.4833 25.4779 60.3407 25.4725 60.2023 25.4985C60.0821 25.5317 59.9704 25.5904 59.8748 25.6705C59.7792 25.7505 59.702 25.8502 59.6483 25.9628C59.5414 26.1888 59.4855 26.4355 59.4847 26.6855C59.4767 27.2319 59.6129 27.7708 59.8797 28.2478C60.1465 28.7248 60.5344 29.123 61.0042 29.4023L60.9198 29.3179" fill="white"/>
<path d="M60.9887 29.6661C60.942 29.667 60.8961 29.6541 60.8567 29.6291C60.3473 29.3252 59.9267 28.8929 59.6368 28.3754C59.347 27.8579 59.1982 27.2733 59.2053 26.6803C59.2067 26.3902 59.2715 26.1039 59.3953 25.8415C59.4663 25.6948 59.5681 25.5652 59.6937 25.4614C59.8194 25.3577 59.9659 25.2822 60.1234 25.2401C60.3012 25.2049 60.4847 25.2104 60.6601 25.256C60.8355 25.3017 60.9983 25.3864 61.1364 25.5039C61.3707 25.7065 61.5735 25.9429 61.7379 26.2055C62.0007 26.5253 62.1672 26.9131 62.218 27.3238C62.2194 27.3585 62.214 27.3931 62.202 27.4256C62.19 27.4582 62.1718 27.488 62.1483 27.5135C62.1247 27.539 62.0964 27.5596 62.0649 27.5741C62.0334 27.5886 61.9994 27.5968 61.9647 27.5982C61.8951 27.5996 61.8277 27.5741 61.7765 27.5269C61.7253 27.4797 61.6945 27.4144 61.6904 27.3449C61.6413 27.0328 61.5061 26.7405 61.2999 26.5009C61.1668 26.2837 61.0013 26.088 60.8093 25.9206C60.7338 25.852 60.6439 25.8012 60.5462 25.772C60.4485 25.7427 60.3455 25.7359 60.2447 25.7518C60.1623 25.7788 60.0861 25.8221 60.0208 25.8792C59.9556 25.9363 59.9025 26.006 59.8648 26.0842C59.776 26.2758 59.731 26.4849 59.7329 26.6961C59.729 27.1569 59.8362 27.6119 60.0456 28.0224C60.2551 28.4329 60.5605 28.7868 60.9359 29.0541C60.9954 29.064 61.0505 29.0916 61.0942 29.1333L61.1786 29.2177C61.2209 29.2658 61.2442 29.3277 61.2442 29.3918C61.2442 29.4558 61.2209 29.5177 61.1786 29.5658C61.156 29.5952 61.1273 29.6193 61.0945 29.6366C61.0618 29.6539 61.0256 29.664 60.9887 29.6661Z" fill="#231F20"/>
<path d="M74.3477 53.273H74.3002C69.0715 52.2971 63.3838 45.6555 63.1411 45.3601C63.1141 45.3345 63.0928 45.3036 63.0786 45.2693C63.0644 45.2349 63.0576 45.198 63.0587 45.1608C63.0598 45.1237 63.0687 45.0872 63.0848 45.0537C63.101 45.0203 63.1241 44.9906 63.1525 44.9667C63.1809 44.9427 63.2141 44.9251 63.2498 44.9149C63.2855 44.9046 63.323 44.9021 63.3598 44.9073C63.3966 44.9126 63.4318 44.9256 63.4633 44.9454C63.4947 44.9652 63.5216 44.9915 63.5421 45.0224C63.6002 45.0857 69.3459 51.8065 74.3952 52.7402C74.4651 52.7465 74.5297 52.7803 74.5747 52.8342C74.6198 52.8881 74.6415 52.9577 74.6352 53.0277C74.6289 53.0976 74.5951 53.1622 74.5412 53.2072C74.4872 53.2523 74.4176 53.274 74.3477 53.2677V53.273Z" fill="#231F20"/>
<path d="M62.6875 31.6443L60.1919 31.0271C60.4801 31.6538 60.9919 32.1504 61.627 32.4198C62.6031 32.8998 63.0568 32.7416 63.0568 32.7416L62.6875 31.6443Z" fill="#231F20"/>
<path d="M62.8612 33.0264C62.2558 32.976 61.6727 32.7742 61.1656 32.4396C60.6586 32.105 60.2438 31.6483 59.9593 31.1115C59.9431 31.0665 59.94 31.0179 59.9503 30.9712C59.9605 30.9246 59.9838 30.8817 60.0174 30.8477C60.0493 30.8125 60.0902 30.7865 60.1357 30.7725C60.1812 30.7586 60.2297 30.7572 60.2759 30.7686L62.7715 31.3858C62.8146 31.3961 62.8545 31.4169 62.8877 31.4464C62.9208 31.4758 62.9462 31.513 62.9615 31.5546L63.3308 32.6519C63.3527 32.7177 63.3478 32.7894 63.3172 32.8516C63.2866 32.9138 63.2327 32.9614 63.1672 32.9842C63.0685 33.0161 62.9649 33.0304 62.8612 33.0264ZM60.7508 31.4438C61.03 31.7497 61.3672 31.9971 61.7427 32.1718C62.0401 32.3313 62.3634 32.4367 62.6977 32.4831L62.4866 31.8553L60.7508 31.4438Z" fill="#231F20"/>
<path d="M49.935 129.1C49.9006 129.099 49.8668 129.09 49.8355 129.076C49.8043 129.061 49.7764 129.041 49.7533 129.015C49.7302 128.989 49.7124 128.96 49.701 128.927C49.6896 128.895 49.6849 128.86 49.687 128.826L50.1249 119.731C50.129 119.662 50.1601 119.597 50.2114 119.551C50.2627 119.505 50.3302 119.48 50.3993 119.483C50.4337 119.484 50.4675 119.493 50.4988 119.507C50.53 119.522 50.5579 119.543 50.581 119.568C50.6041 119.594 50.6219 119.624 50.6333 119.656C50.6447 119.689 50.6494 119.723 50.6473 119.757L50.1988 128.852C50.1961 128.92 50.1669 128.984 50.1176 129.03C50.0682 129.076 50.0027 129.101 49.935 129.1Z" fill="#231F20"/>
<path d="M116.388 41.9786C116.332 41.9793 116.278 41.9623 116.232 41.9301C116.187 41.8979 116.153 41.8521 116.135 41.7992L115.364 39.4095C115.354 39.377 115.35 39.3427 115.352 39.3085C115.355 39.2744 115.365 39.2411 115.38 39.2107C115.396 39.1803 115.418 39.1533 115.444 39.1313C115.47 39.1092 115.5 39.0927 115.533 39.0825C115.6 39.0608 115.672 39.0665 115.734 39.0981C115.797 39.1298 115.844 39.1849 115.866 39.2513L116.636 41.6357C116.658 41.7022 116.652 41.7745 116.62 41.8368C116.589 41.8991 116.534 41.9463 116.467 41.9681C116.442 41.9767 116.415 41.9803 116.388 41.9786Z" fill="#231F20"/>
</svg>
