<svg width="25" height="20" viewBox="0 0 25 20" fill="none" xmlns="http://www.w3.org/2000/svg">
<path d="M0.637817 3.64208C0.637817 2.76679 0.985525 1.92735 1.60445 1.30843C2.22337 0.689504 3.06281 0.341797 3.9381 0.341797H21.3396C22.2149 0.341797 23.0543 0.689504 23.6733 1.30843C24.2922 1.92735 24.6399 2.76679 24.6399 3.64208V16.2432C24.6399 16.6766 24.5545 17.1057 24.3887 17.5061C24.2228 17.9065 23.9797 18.2704 23.6733 18.5768C23.3668 18.8833 23.003 19.1264 22.6026 19.2922C22.2022 19.4581 21.773 19.5435 21.3396 19.5435H3.9381C3.5047 19.5435 3.07555 19.4581 2.67514 19.2922C2.27473 19.1264 1.91091 18.8833 1.60445 18.5768C1.29799 18.2704 1.05489 17.9065 0.889037 17.5061C0.723182 17.1057 0.637817 16.6766 0.637817 16.2432V3.64208ZM18.3754 4.20613C18.2067 4.03729 17.9779 3.94232 17.7393 3.94211H14.739C14.5003 3.94211 14.2714 4.03694 14.1026 4.20573C13.9338 4.37453 13.839 4.60347 13.839 4.84219C13.839 5.0809 13.9338 5.30984 14.1026 5.47864C14.2714 5.64743 14.5003 5.74226 14.739 5.74226H15.5671L13.5029 7.80524C13.4145 7.88764 13.3436 7.98701 13.2944 8.09742C13.2452 8.20783 13.2187 8.32702 13.2166 8.44787C13.2145 8.56872 13.2367 8.68877 13.282 8.80085C13.3272 8.91292 13.3946 9.01473 13.4801 9.1002C13.5656 9.18567 13.6674 9.25305 13.7794 9.29832C13.8915 9.34359 14.0116 9.36582 14.1324 9.36369C14.2533 9.36155 14.3725 9.3351 14.4829 9.28591C14.5933 9.23671 14.6926 9.16578 14.775 9.07735L16.8392 7.01437V7.84245C16.8392 8.08116 16.934 8.3101 17.1028 8.4789C17.2716 8.64769 17.5006 8.74252 17.7393 8.74252C17.978 8.74252 18.207 8.64769 18.3757 8.4789C18.5445 8.3101 18.6394 8.08116 18.6394 7.84245V4.84219C18.6392 4.60355 18.5442 4.37477 18.3754 4.20613ZM7.53841 15.9431H10.5399C10.7786 15.9431 11.0075 15.8483 11.1763 15.6795C11.3451 15.5107 11.44 15.2818 11.44 15.0431C11.44 14.8044 11.3451 14.5754 11.1763 14.4066C11.0075 14.2378 10.7786 14.143 10.5399 14.143H9.7118L11.776 12.0788C11.9399 11.909 12.0305 11.6816 12.0283 11.4456C12.0262 11.2096 11.9314 10.9839 11.7644 10.8171C11.5975 10.6503 11.3717 10.5557 11.1357 10.5538C10.8997 10.5518 10.6723 10.6427 10.5027 10.8067L8.43849 12.8685V12.0404C8.43849 11.8017 8.34366 11.5728 8.17486 11.404C8.00607 11.2352 7.77713 11.1403 7.53841 11.1403C7.2997 11.1403 7.07076 11.2352 6.90196 11.404C6.73317 11.5728 6.63834 11.8017 6.63834 12.0404V15.0407C6.63834 15.2794 6.73317 15.5083 6.90196 15.6771C7.07076 15.8459 7.2997 15.9407 7.53841 15.9407V15.9431Z" fill="white"/>
</svg>
