<svg width="125" height="86" viewBox="0 0 125 86" fill="none" xmlns="http://www.w3.org/2000/svg">
<path d="M118.33 5.81561C118.33 5.81561 77.8128 10.6601 62.9331 11.6368C48.0533 12.6135 32.7024 23.3572 30.1897 25.4669C27.6771 27.5766 15.8203 44.2196 19.7856 57.0339C23.751 69.8483 40.1227 82.1938 47.0718 83.1705C54.0209 84.1472 109.614 56.2526 122.02 46.3683L118.33 5.81561Z" fill="white"/>
<path d="M47.3073 85.124H46.7969C38.7485 83.991 21.9057 70.6297 17.8619 57.7763C13.4647 43.5555 26.4992 26.0139 28.9333 24.0214C28.9333 24.0214 45.8547 10.8945 62.8153 9.80057C77.4595 8.82386 117.78 4.01849 118.094 3.97942C118.36 3.94692 118.63 3.96799 118.888 4.04136C119.146 4.11473 119.387 4.23893 119.595 4.40655C119.804 4.57418 119.977 4.78182 120.103 5.01717C120.23 5.25252 120.308 5.51074 120.332 5.77655L124.022 46.3684C124.06 46.7004 124.011 47.0364 123.88 47.3442C123.749 47.652 123.542 47.9213 123.277 48.1264C111.773 57.073 57.358 85.124 47.3073 85.124ZM116.484 7.96439C108.004 8.98016 75.889 12.7307 63.0508 13.5902C50.2126 14.4497 35.5684 23.7479 31.6423 26.9515C29.7971 28.397 18.176 44.3368 21.9057 56.3698C25.6355 68.4028 41.1434 80.2014 47.5036 81.0999C53.8639 81.9985 106.041 55.901 120.057 45.3916L116.484 7.96439Z" fill="#231F20"/>
<path d="M25.6358 59.8078C25.6358 59.8078 52.7649 83.2486 61.6771 83.4831C70.5892 83.7175 65.6031 74.5755 65.6031 74.5755C65.6031 74.5755 74.1619 81.2561 75.6538 75.7085C77.1457 70.1608 75.2612 67.8948 75.2612 67.8948C75.2612 67.8948 82.3281 77.5056 84.2126 70.4734C86.0971 63.4411 84.9586 61.2142 84.9586 61.2142C84.9586 61.2142 90.5336 72.3486 93.1248 64.574C95.716 56.7995 80.4828 29.4127 65.2497 16.4421C65.2497 16.4421 83.074 18.3174 84.5659 12.0274C86.0578 5.73742 70.0788 3.11988 63.3652 2.76826C56.6517 2.41665 43.735 10.8944 32.1531 12.0274C22.2085 12.4421 12.2466 11.9451 2.39355 10.5428L3.88548 53.5178L25.6358 59.8078Z" fill="white"/>
<path d="M62.188 85.5146H61.5992C52.53 85.163 28.6988 65.1211 24.6549 61.644L3.14015 55.4713C2.72101 55.3615 2.34899 55.1193 2.07997 54.7812C1.81095 54.443 1.65944 54.0271 1.64822 53.596L0.156303 10.6211C0.15425 10.3232 0.212276 10.028 0.326917 9.75285C0.441559 9.47771 0.610541 9.22825 0.823785 9.01925C1.05189 8.83318 1.31586 8.69558 1.59946 8.61495C1.88306 8.53432 2.18027 8.51235 2.47272 8.55042C12.1711 9.91649 21.9744 10.4003 31.7611 9.99595C37.7866 9.03906 43.6518 7.26447 49.1928 4.72176C53.5987 2.53978 58.3823 1.21383 63.2873 0.814941C63.4836 0.814941 80.7583 1.86978 85.3125 7.92534C85.8262 8.57231 86.1851 9.32718 86.362 10.1327C86.5388 10.9382 86.5291 11.7733 86.3334 12.5745C85.077 17.9268 76.4789 18.8254 70.6291 18.8254C84.6844 33.0071 97.7189 57.1512 95.0099 65.2774C94.1462 67.8949 92.7328 69.1842 90.8875 69.4186C90.1442 69.4031 89.4121 69.2356 88.7367 68.9264C88.0613 68.6172 87.457 68.1731 86.9615 67.6215C86.9615 68.6373 86.5297 69.7702 86.2156 71.0594C85.4304 73.9896 83.8206 74.9663 82.6035 74.9663C81.8095 75.0495 81.0068 74.9712 80.2442 74.7362C79.4815 74.5011 78.7749 74.1142 78.1671 73.5989C78.0425 74.4538 77.8721 75.3015 77.6567 76.1383C77.4967 76.9293 77.129 77.6641 76.5912 78.2679C76.0533 78.8718 75.3644 79.3232 74.5944 79.5763C72.759 80.0286 70.8213 79.8066 69.1372 78.9512C69.3354 80.3046 69.058 81.6846 68.352 82.858C67.6761 83.8291 66.7405 84.5926 65.6512 85.0621C64.5619 85.5316 63.3623 85.6884 62.188 85.5146ZM5.65282 51.9551L26.1861 57.8545C26.4666 57.9342 26.7229 58.0818 26.9321 58.2841C37.6502 67.4652 55.7493 81.2172 61.7562 81.4516C63.2873 81.4516 64.3474 81.2562 64.6615 80.7093C64.9756 80.1623 64.3474 76.8025 63.6407 75.5914C63.4249 75.184 63.3545 74.7157 63.4412 74.2632C63.528 73.8108 63.7666 73.4012 64.118 73.1014C64.4694 72.8017 64.9128 72.6296 65.3753 72.6136C65.8379 72.5975 66.2922 72.7383 66.6638 73.0128C68.4467 74.6031 70.6838 75.6 73.0632 75.8648C73.0632 75.8648 73.3381 75.8648 73.4951 75.2007C74.2647 73.2683 74.2647 71.1166 73.4951 69.1842C73.1806 68.7635 73.0454 68.2363 73.1189 67.717C73.1924 67.1978 73.4687 66.7282 73.8877 66.4103C74.3046 66.0982 74.8256 65.9567 75.344 66.0148C75.8623 66.0729 76.3387 66.3263 76.6752 66.7229C77.8833 68.5622 79.5643 70.0461 81.5436 71.0204C81.7203 70.6694 81.8648 70.3033 81.9754 69.9265C82.8914 67.429 83.1746 64.7453 82.7999 62.1129C82.681 61.8778 82.6112 61.6213 82.5944 61.3588C82.5777 61.0962 82.6144 60.8329 82.7024 60.5848C82.7904 60.3367 82.9279 60.1089 83.1065 59.9149C83.2852 59.721 83.5014 59.5649 83.7421 59.4562C84.2326 59.2249 84.7945 59.1936 85.3079 59.3687C85.8213 59.5439 86.2457 59.9118 86.4904 60.3939C87.3508 62.3548 88.7026 64.0632 90.4164 65.3555C90.6426 64.9131 90.8394 64.4563 91.0054 63.9881C93.0862 57.8544 79.2271 31.3272 63.7192 18.0831C63.3885 17.8016 63.1568 17.4224 63.058 17.0007C62.9591 16.5791 62.9982 16.137 63.1696 15.739C63.3423 15.3435 63.6371 15.0129 64.0112 14.7952C64.3853 14.5774 64.8193 14.4838 65.2504 14.5279C72.0032 15.2311 81.7006 14.5278 82.4073 11.6368C82.459 11.4124 82.4575 11.1791 82.403 10.9553C82.3485 10.7316 82.2424 10.5235 82.0932 10.3476C79.6983 7.18306 69.3335 5.19058 63.0518 4.87803C58.7552 5.3605 54.5802 6.60422 50.724 8.55042C44.8208 11.2436 38.5714 13.1106 32.1537 14.0981C22.8587 14.5792 13.5389 14.1868 4.31798 12.9261L5.65282 51.9551Z" fill="#231F20"/>
<path d="M90.7295 9.7226C85.0326 9.48829 79.3263 9.64494 73.6511 10.1914C63.3648 11.1681 52.2934 14.0982 45.9724 22.1463C45.5609 22.5608 45.2594 23.0705 45.0949 23.6297C44.9304 24.1889 44.9082 24.78 45.0302 25.3499C45.5013 26.4828 46.9147 26.8344 48.0925 27.0298C56.6063 28.3442 65.2646 28.4495 73.8082 27.3423C74.9674 27.048 76.1824 27.048 77.3416 27.3423C78.2321 27.7423 79.0433 28.2981 79.7365 28.9832C83.123 31.7775 87.319 33.4203 91.711 33.6714" fill="white"/>
<path d="M91.7115 35.5856C86.8678 35.3398 82.2366 33.5293 78.52 30.4286L78.1666 30.1551C77.7376 29.7445 77.2476 29.4019 76.714 29.1393C75.8878 28.9448 75.0274 28.9448 74.2013 29.1393C65.45 30.2859 56.5788 30.1807 47.8575 28.8268C46.9075 28.7749 45.9867 28.482 45.1827 27.976C44.3786 27.47 43.7181 26.7676 43.264 25.9357C42.9588 25.0396 42.9072 24.0771 43.1149 23.1538C43.3227 22.2304 43.7817 21.3817 44.4418 20.7006C50.0168 13.473 59.5571 9.33176 73.5339 8.00344C79.301 7.45691 85.0986 7.30029 90.887 7.53464C91.15 7.54471 91.4085 7.60627 91.6476 7.71581C91.8866 7.82535 92.1017 7.98073 92.2804 8.17304C92.459 8.36536 92.5979 8.59084 92.6889 8.8366C92.7799 9.08235 92.8213 9.34355 92.8108 9.60525C92.7624 10.134 92.5189 10.6261 92.1275 10.9868C91.736 11.3475 91.2242 11.5512 90.6908 11.5587C85.0993 11.3314 79.4988 11.4749 73.9265 11.9884C61.1275 13.2386 52.5295 16.8719 47.6611 23.1619C46.9937 24.0605 46.9937 24.4121 46.9937 24.4121C46.9937 24.4121 47.2293 24.6465 48.4856 24.8418C56.8035 26.137 65.2646 26.2422 73.6124 25.1544C75.0922 24.7669 76.6475 24.7669 78.1273 25.1544C79.1205 25.5681 80.0262 26.1645 80.7971 26.9124C83.9108 29.5674 87.8142 31.1321 91.9079 31.3662C92.4459 31.4063 92.9472 31.6528 93.3061 32.0537C93.6651 32.4545 93.8535 32.9785 93.8316 33.5149C93.8371 33.7917 93.7858 34.0667 93.6807 34.323C93.5757 34.5793 93.4191 34.8115 93.2205 35.0054C93.022 35.1993 92.7857 35.3508 92.5262 35.4505C92.2667 35.5503 91.9895 35.5963 91.7115 35.5856Z" fill="#231F20"/>
</svg>
