<svg width="28" height="22" viewBox="0 0 28 22" fill="none" xmlns="http://www.w3.org/2000/svg">
<path d="M24.6641 8.85857V1.22821C24.6641 0.975247 24.5636 0.732646 24.3847 0.553775C24.2059 0.374903 23.9633 0.274414 23.7103 0.274414H4.6344C4.38143 0.274414 4.13883 0.374903 3.95996 0.553775C3.78109 0.732646 3.6806 0.975247 3.6806 1.22821V8.85857C2.92171 8.85857 2.19391 9.16004 1.65729 9.69666C1.12068 10.2333 0.819214 10.9611 0.819214 11.72V21.2579H2.96525V19.3503H25.3795V21.2579H27.5255V11.72C27.5255 10.9611 27.224 10.2333 26.6874 9.69666C26.1508 9.16004 25.423 8.85857 24.6641 8.85857ZM13.2186 8.85857H6.06509V6.95098C6.06509 6.69802 6.16558 6.45542 6.34445 6.27655C6.52332 6.09768 6.76592 5.99719 7.01889 5.99719H12.2648C12.5177 5.99719 12.7603 6.09768 12.9392 6.27655C13.1181 6.45542 13.2186 6.69802 13.2186 6.95098V8.85857ZM15.1261 6.95098C15.1261 6.69802 15.2266 6.45542 15.4055 6.27655C15.5844 6.09768 15.827 5.99719 16.0799 5.99719H21.3258C21.5788 5.99719 21.8214 6.09768 22.0003 6.27655C22.1791 6.45542 22.2796 6.69802 22.2796 6.95098V8.85857H15.1261V6.95098Z" fill="white"/>
</svg>
