<svg width="230" height="173" viewBox="0 0 230 173" fill="none" xmlns="http://www.w3.org/2000/svg">
<path d="M108.696 58.3545V97.539C108.696 99.8326 108.243 102.104 107.365 104.222C106.486 106.341 105.199 108.266 103.576 109.887C101.953 111.508 100.027 112.793 97.9078 113.67C95.7883 114.546 93.5169 114.997 91.2233 114.995H52.1935L43.0302 128.259L40.5218 131.878V114.995H36.7362C32.3237 114.996 28.0744 113.327 24.8432 110.322C21.6121 107.317 19.6387 103.2 19.3202 98.7989C19.2916 98.3866 19.2744 97.9628 19.2744 97.539V58.3545C19.2737 56.0618 19.7249 53.7913 20.6023 51.6731C21.4797 49.5548 22.7661 47.6303 24.3879 46.0096C26.0096 44.3889 27.935 43.1038 30.0538 42.2277C32.1727 41.3517 34.4434 40.902 36.7362 40.9042H91.2233C93.5166 40.902 95.7879 41.3516 97.9074 42.2275C100.027 43.1034 101.953 44.3883 103.576 46.0089C105.198 47.6295 106.486 49.5539 107.364 51.6722C108.243 53.7905 108.696 56.0612 108.696 58.3545Z" fill="white"/>
<path d="M91.2233 40.9042C93.5157 40.9035 95.7857 41.3542 97.9039 42.2308C100.022 43.1073 101.947 44.3925 103.568 46.0129C105.19 47.6333 106.476 49.5572 107.354 51.6748C108.232 53.7924 108.684 56.0621 108.685 58.3545V97.5389C108.684 102.169 106.843 106.609 103.569 109.883C100.294 113.156 95.8535 114.995 91.2233 114.995H52.1935L43.0302 128.259L40.5218 131.878V114.995H36.7362C32.3238 114.996 28.0745 113.327 24.8433 110.322C21.6121 107.317 19.6388 103.2 19.3203 98.7989C19.2916 98.3866 19.2745 97.9627 19.2745 97.5389V58.3545C19.2737 56.0617 19.7249 53.7913 20.6023 51.673C21.4798 49.5548 22.7661 47.6303 24.3879 46.0095C26.0097 44.3888 27.935 43.1037 30.0539 42.2277C32.1727 41.3517 34.4434 40.9019 36.7362 40.9042H91.2233ZM91.2233 40.3315H36.7362C31.9536 40.3315 27.3664 42.2294 23.9819 45.6086C20.5974 48.9877 18.6922 53.5719 18.6846 58.3545V97.5389C18.6846 97.9799 18.6846 98.4152 18.7304 98.8447C19.0735 103.389 21.118 107.637 24.4558 110.74C27.7935 113.843 32.1788 115.573 36.7362 115.585H39.909V131.878C39.909 132.03 39.9693 132.176 40.0767 132.283C40.1841 132.391 40.3298 132.451 40.4817 132.451C40.5774 132.453 40.6722 132.431 40.7572 132.387C40.8422 132.343 40.9149 132.278 40.9685 132.199L43.4769 128.58L52.4856 115.568H91.2233C93.5936 115.568 95.9409 115.102 98.131 114.196C100.321 113.289 102.311 111.96 103.987 110.284C105.664 108.608 106.994 106.619 107.901 104.429C108.808 102.239 109.275 99.8921 109.275 97.5218V58.3545C109.269 53.5693 107.365 48.9819 103.981 45.5988C100.597 42.2157 96.0085 40.3131 91.2233 40.3086V40.3315Z" fill="#231F20"/>
<path d="M212.969 68.5773V107.779C212.964 112.217 211.269 116.486 208.229 119.718C205.188 122.95 201.03 124.902 196.601 125.178V142.101L195.57 140.612L185.72 126.329L184.947 125.218H141.009C136.381 125.218 131.943 123.381 128.669 120.111C125.395 116.842 123.553 112.406 123.547 107.779V68.5773C123.548 66.285 124 64.0152 124.878 61.8976C125.756 59.78 127.042 57.8561 128.664 56.2357C130.285 54.6153 132.21 53.3301 134.328 52.4536C136.446 51.577 138.716 51.1263 141.009 51.127H195.513C197.805 51.1263 200.075 51.5771 202.193 52.4537C204.31 53.3303 206.235 54.6156 207.856 56.2361C209.477 57.8566 210.763 59.7805 211.64 61.8981C212.517 64.0156 212.969 66.2852 212.969 68.5773Z" fill="white"/>
<path d="M195.513 51.127C197.805 51.1263 200.075 51.5771 202.193 52.4537C204.31 53.3303 206.235 54.6156 207.856 56.2361C209.477 57.8565 210.763 59.7805 211.64 61.898C212.517 64.0156 212.969 66.2852 212.969 68.5773V107.779C212.964 112.217 211.269 116.486 208.229 119.718C205.188 122.95 201.03 124.902 196.601 125.178V142.101L195.57 140.612L185.72 126.329L184.947 125.218H141.009C136.381 125.218 131.943 123.381 128.669 120.111C125.395 116.842 123.553 112.406 123.547 107.779V68.5773C123.548 66.285 124 64.0152 124.878 61.8976C125.756 59.78 127.042 57.8561 128.664 56.2357C130.285 54.6153 132.21 53.3301 134.328 52.4536C136.446 51.577 138.716 51.1263 141.009 51.127H195.513ZM195.513 50.5543H141.009C136.223 50.5588 131.635 52.4614 128.251 55.8445C124.867 59.2276 122.963 63.815 122.957 68.6002V107.779C122.963 112.564 124.867 117.152 128.251 120.535C131.635 123.918 136.223 125.82 141.009 125.825H184.609L185.181 126.684L195.078 140.967L196.109 142.456C196.162 142.536 196.235 142.6 196.32 142.644C196.405 142.688 196.5 142.71 196.595 142.708C196.654 142.717 196.714 142.717 196.773 142.708C196.896 142.672 197.003 142.597 197.078 142.493C197.153 142.389 197.19 142.263 197.185 142.135V125.727C201.658 125.306 205.813 123.234 208.841 119.916C211.869 116.598 213.553 112.271 213.565 107.779V68.5773C213.565 63.7881 211.663 59.1949 208.278 55.8068C204.894 52.4187 200.302 50.513 195.513 50.5085V50.5543Z" fill="#231F20"/>
<path d="M27.0805 61.0692L27.5788 54.2769C27.5788 54.2769 29.9784 47.5877 29.6806 46.6885C29.3828 45.7894 27.2753 46.4996 26.2788 50.3825C26.2788 50.3825 24.5606 41.4941 23.7818 41.2937C23.0029 41.0932 22.1839 41.6946 22.2813 43.0118C22.3786 44.329 22.8826 46.6026 22.8826 46.6026C22.8826 46.6026 21.6857 41.2135 20.6834 41.7117C19.6812 42.21 20.6834 47.3529 20.6834 47.3529C20.6834 47.3529 19.5896 42.3131 18.7878 42.9087C17.986 43.5043 19.3605 48.3036 19.3605 48.3036C19.3605 48.3036 16.9952 42.1756 16.497 43.8422C15.9987 45.5088 18.49 51.5794 18.5873 53.7786C18.6847 55.9778 18.9882 65.4618 18.9882 65.4618L27.0805 61.0692Z" fill="white"/>
<path d="M18.9882 65.7596C18.9361 65.7579 18.8852 65.7442 18.8393 65.7195C18.7964 65.6936 18.7604 65.6577 18.7344 65.6148C18.7085 65.5719 18.6934 65.5233 18.6904 65.4732C18.6904 65.3759 18.3926 55.9606 18.2952 53.7901C18.091 52.3691 17.7575 50.9697 17.2987 49.6093C16.5828 47.1295 15.9013 44.7814 16.1991 43.7391C16.3308 43.3153 16.5828 43.2466 16.726 43.2409C17.1842 43.2409 17.7626 44.0713 18.3353 45.1995C18.1578 44.0541 18.1406 42.9831 18.5758 42.6567C18.6458 42.6032 18.7282 42.5683 18.8154 42.5553C18.9025 42.5423 18.9915 42.5515 19.0741 42.5823C19.3719 42.6911 19.6468 43.155 19.916 43.7678C19.916 42.6567 20.0191 41.6831 20.5173 41.4311C20.6002 41.387 20.6926 41.3639 20.7865 41.3639C20.8804 41.3639 20.9728 41.387 21.0556 41.4311C21.4849 41.7357 21.809 42.1659 21.9834 42.6624C21.9782 42.407 22.0264 42.1532 22.1251 41.9175C22.2237 41.6818 22.3705 41.4693 22.5561 41.2937C22.7304 41.147 22.9375 41.0445 23.1597 40.9946C23.382 40.9448 23.613 40.9491 23.8333 41.0073C24.5721 41.1906 25.5514 45.3198 26.3245 49.1741C27.1034 47.0723 28.2545 46.0757 29.1021 46.0414C29.2861 46.026 29.4698 46.0745 29.6222 46.1789C29.7745 46.2832 29.8862 46.4369 29.9383 46.6141C30.2476 47.5476 28.2832 53.1372 27.8536 54.3571L27.3554 61.1092C27.3515 61.1582 27.3352 61.2054 27.3082 61.2465C27.2812 61.2875 27.2442 61.3211 27.2008 61.344L19.1142 65.7367C19.074 65.7523 19.0313 65.7601 18.9882 65.7596ZM16.8062 43.8594V43.9109C16.537 44.7872 17.2529 47.2612 17.8829 49.4433C18.3566 50.8497 18.6979 52.2973 18.9023 53.7672C18.9882 55.6514 19.223 63.0163 19.286 64.975L26.8113 60.8859L27.2981 54.254C27.2929 54.2294 27.2929 54.2041 27.2981 54.1795C28.4435 50.938 29.5603 47.3071 29.3942 46.7802C29.3942 46.7401 29.3484 46.6255 29.1365 46.637C28.518 46.637 27.2695 47.7137 26.5651 50.4569C26.5456 50.521 26.5062 50.5772 26.4527 50.6173C26.3991 50.6575 26.3342 50.6795 26.2673 50.6803C26.2005 50.6767 26.1369 50.6512 26.0861 50.6077C26.0354 50.5642 26.0004 50.5052 25.9866 50.4398C25.2078 46.3621 24.1253 41.9179 23.6443 41.5628C23.5202 41.5371 23.3919 41.5396 23.2689 41.5704C23.1459 41.6011 23.0315 41.6592 22.9341 41.7404C22.7785 41.9013 22.6632 42.0967 22.5975 42.3107C22.5318 42.5247 22.5177 42.7512 22.5561 42.9717C22.6535 44.2316 23.1288 46.5053 23.1288 46.5225C23.1375 46.5601 23.1386 46.599 23.1322 46.6371C23.1258 46.6751 23.112 46.7115 23.0915 46.7442C23.0711 46.7769 23.0443 46.8053 23.0129 46.8277C22.9815 46.8501 22.946 46.866 22.9083 46.8747C22.8707 46.8833 22.8318 46.8845 22.7938 46.8781C22.7557 46.8717 22.7193 46.8579 22.6866 46.8374C22.6539 46.8169 22.6255 46.7902 22.6031 46.7588C22.5808 46.7273 22.5648 46.6918 22.5561 46.6542C22.0178 44.2259 21.1702 41.9924 20.7807 41.958C20.2997 42.1985 20.4715 44.9017 20.9354 47.2784C20.9522 47.3189 20.9599 47.3625 20.9579 47.4063C20.9559 47.4501 20.9443 47.4928 20.9239 47.5316C20.9035 47.5704 20.8748 47.6041 20.8398 47.6305C20.8049 47.6569 20.7645 47.6753 20.7216 47.6843C20.6788 47.6933 20.6344 47.6927 20.5918 47.6826C20.5492 47.6725 20.5093 47.6532 20.475 47.6259C20.4407 47.5986 20.4129 47.5641 20.3935 47.5248C20.3741 47.4856 20.3635 47.4425 20.3627 47.3987C19.9045 45.3026 19.2516 43.3898 18.9023 43.155C18.6102 43.5215 18.9424 45.8238 19.6353 48.2005C19.6572 48.2742 19.6498 48.3534 19.6146 48.4218C19.5793 48.4901 19.5191 48.5421 19.4463 48.567C19.3749 48.5913 19.2968 48.5869 19.2285 48.5549C19.1602 48.5229 19.1069 48.4656 19.0798 48.3952C18.3353 46.385 17.2586 44.1686 16.8062 43.8594Z" fill="#231F20"/>
<path d="M109.235 84.9338C109.235 84.9338 112.671 82.6429 113.318 81.257C113.965 79.8711 113.954 77.0591 114.635 75.7419C115.317 74.4246 116.502 76.3661 115.781 80.1803C115.781 80.1803 120.758 71.9677 121.267 72.9642C121.777 73.9607 121.267 74.1097 119.99 76.7555C119.99 76.7555 120.987 73.892 122.092 74.5678C123.197 75.2436 120.42 78.7486 120.42 78.7486C120.42 78.7486 122.613 75.5758 123.243 76.7613C123.873 77.9468 120.987 80.8847 120.987 80.8847C120.987 80.8847 124.011 77.1163 124.171 78.4966C124.331 79.8768 120.735 84.5558 113.29 90.4661" fill="white"/>
<path d="M113.295 90.7238C113.256 90.7241 113.217 90.7154 113.181 90.6986C113.145 90.6817 113.114 90.6571 113.089 90.6264C113.067 90.5999 113.051 90.5693 113.041 90.5364C113.031 90.5034 113.028 90.4689 113.032 90.4347C113.036 90.4006 113.046 90.3675 113.063 90.3375C113.08 90.3075 113.102 90.2811 113.129 90.2599C120.706 84.2236 124.011 79.6935 123.896 78.5252C123.903 78.497 123.903 78.4675 123.896 78.4393C123.713 78.4393 123.077 78.9547 122.333 79.7451C121.973 80.2052 121.591 80.6468 121.187 81.068C121.164 81.094 121.136 81.1151 121.105 81.1303C121.074 81.1455 121.04 81.1544 121.006 81.1566C120.936 81.1609 120.867 81.1372 120.815 81.0909C120.762 81.0446 120.731 80.9793 120.726 80.9095C120.722 80.8397 120.746 80.7711 120.792 80.7187C121.073 80.375 121.502 79.8596 121.972 79.3613C122.705 78.4049 123.283 77.3741 123.026 76.8873C122.957 76.767 122.9 76.7613 122.865 76.7613C122.453 76.7269 121.72 77.5115 121.101 78.2789C120.872 78.6054 120.695 78.8516 120.637 78.9089C120.594 78.9582 120.534 78.9894 120.468 78.9965C120.403 79.0037 120.338 78.9862 120.284 78.9475C120.231 78.9088 120.195 78.8516 120.182 78.7873C120.169 78.7229 120.18 78.656 120.214 78.5996C120.294 78.4851 120.466 78.2388 120.7 77.9468C121.422 76.9216 122.201 75.57 122.092 74.9802C122.087 74.9416 122.074 74.9046 122.053 74.8719C122.033 74.8392 122.005 74.8116 121.972 74.7912C121.922 74.7576 121.864 74.737 121.804 74.731C121.744 74.725 121.684 74.7339 121.628 74.7568C121.393 74.8726 121.195 75.0509 121.055 75.2722C120.826 75.6846 120.557 76.1886 120.236 76.8701C120.208 76.9311 120.156 76.9785 120.093 77.002C120.03 77.0256 119.96 77.0234 119.899 76.9961C119.837 76.9706 119.788 76.9224 119.761 76.8616C119.735 76.8008 119.733 76.732 119.755 76.6696C119.963 76.0608 120.252 75.4828 120.614 74.9515C120.614 74.9057 120.666 74.8542 120.695 74.8141C121.216 73.8577 121.33 73.6687 121.09 73.136C120.408 73.4969 118.026 76.9789 116.016 80.2891C115.984 80.3416 115.936 80.3814 115.878 80.4013C115.82 80.4212 115.758 80.42 115.701 80.3979C115.643 80.3751 115.595 80.333 115.564 80.2787C115.534 80.2244 115.524 80.1613 115.535 80.1001C116.107 77.2022 115.5 75.6789 115.162 75.5643C115.094 75.5357 114.973 75.6789 114.899 75.8335C114.554 76.7009 114.334 77.613 114.246 78.5424C114.143 79.5 113.919 80.4409 113.582 81.3429C112.906 82.809 109.573 85.0311 109.407 85.1228C109.349 85.1607 109.278 85.1742 109.211 85.1603C109.143 85.1463 109.084 85.106 109.046 85.0483C109.008 84.9906 108.994 84.9201 109.008 84.8525C109.022 84.7848 109.063 84.7255 109.12 84.6875C109.155 84.6875 112.493 82.4539 113.129 81.1195C113.442 80.2625 113.648 79.3699 113.742 78.4622C113.839 77.4784 114.079 76.5139 114.452 75.5987C114.779 74.9572 115.191 75.026 115.351 75.0775C116.016 75.3066 116.462 76.7613 116.25 78.9375C117.814 76.4291 120.34 72.5748 121.181 72.592C121.255 72.595 121.326 72.6179 121.388 72.6582C121.449 72.6986 121.499 72.7548 121.531 72.8211C121.66 73.0254 121.735 73.2594 121.749 73.5008C121.763 73.7422 121.716 73.9833 121.611 74.2013C121.832 74.159 122.06 74.1998 122.252 74.3158C122.35 74.3744 122.434 74.4533 122.498 74.5472C122.562 74.6411 122.605 74.7478 122.625 74.8599C122.648 75.412 122.51 75.959 122.229 76.4348C122.431 76.2939 122.671 76.2162 122.917 76.2115C123.04 76.2227 123.157 76.2662 123.258 76.3376C123.358 76.409 123.438 76.5058 123.489 76.6181C123.581 76.8668 123.615 77.133 123.589 77.3968C123.564 77.6606 123.479 77.9152 123.341 78.1415C123.444 78.0593 123.562 77.9983 123.689 77.9619C123.816 77.9255 123.948 77.9146 124.079 77.9296C124.185 77.9691 124.277 78.0392 124.344 78.1309C124.41 78.2226 124.447 78.3319 124.452 78.445C124.629 79.9856 120.855 84.7849 113.49 90.6436C113.466 90.6709 113.436 90.6923 113.402 90.7062C113.368 90.72 113.332 90.7261 113.295 90.7238Z" fill="#231F20"/>
<path d="M49.2497 38.5332C48.1999 41.1927 47.5271 43.9859 47.251 46.8317L48.6255 44.6211C47.7779 45.9841 48.1558 48.6701 48.2475 50.205C48.3795 52.5005 48.797 54.7706 49.4902 56.9629C49.6874 55.855 50.0102 54.7733 50.4524 53.7385L52.245 58.2056C52.6361 59.3442 53.1959 60.4176 53.9058 61.3899C56.4142 64.4997 62.0668 64.7345 65.652 63.9613C68.6472 63.3199 73.8932 60.8286 73.3033 56.8827L73.561 58.6008C75.5868 55.3068 76.2945 51.3695 75.5426 47.5762L78.1598 51.0812C78.5146 46.9263 77.6085 42.7609 75.5598 39.1288C73.5152 35.5036 71.2473 33.5049 67.6106 31.4546C66.5626 30.8819 64.9189 30.5612 64.4207 31.6608C61.8836 29.9427 58.4015 29.9427 55.6411 31.2942C52.8807 32.6458 50.8075 35.1428 49.5132 37.9262C49.4158 38.1381 49.3299 38.3328 49.2497 38.5332Z" fill="white"/>
<path d="M61.9812 64.6428C58.7569 64.6428 55.4524 63.7723 53.677 61.5788C52.9464 60.5835 52.3674 59.4853 51.9589 58.3202L50.4527 54.5174C50.1555 55.3223 49.9312 56.1522 49.7826 56.9972C49.7712 57.0632 49.7378 57.1234 49.6879 57.1681C49.638 57.2127 49.5746 57.2393 49.5077 57.2435C49.4421 57.2476 49.377 57.2295 49.323 57.1921C49.269 57.1547 49.2291 57.1002 49.2099 57.0373C48.5099 54.8205 48.0867 52.5256 47.95 50.2049C47.95 49.9701 47.9156 49.7181 47.8984 49.4432C47.7976 48.4654 47.7727 47.4812 47.824 46.4995L47.4975 47.015C47.4625 47.0716 47.4092 47.1146 47.3464 47.1367C47.2836 47.1589 47.2152 47.159 47.1524 47.1369C47.0895 47.1149 47.0361 47.072 47.001 47.0155C46.9659 46.9589 46.9511 46.8921 46.9592 46.826C47.2455 43.9542 47.9238 41.1351 48.9751 38.4473C49.061 38.2469 49.1526 38.0464 49.2443 37.8746C50.4902 34.9464 52.7014 32.5332 55.5097 31.0365C58.4247 29.6219 61.8495 29.7136 64.3293 31.2541C64.516 31.0109 64.7744 30.8326 65.0681 30.7444C65.9898 30.5504 66.9508 30.7164 67.7541 31.2083C71.6828 33.419 73.8648 35.5265 75.8178 38.9971C77.8909 42.6834 78.8105 46.9068 78.4579 51.1213C78.452 51.1812 78.428 51.2379 78.3891 51.2839C78.3503 51.3299 78.2984 51.3631 78.2403 51.379C78.183 51.3951 78.1221 51.3934 78.0658 51.3739C78.0095 51.3545 77.9605 51.3183 77.9253 51.2702L76.0239 48.7159C76.4398 52.2141 75.6607 55.7501 73.8133 58.7497C73.7808 58.8017 73.7334 58.8428 73.6771 58.8673C73.6209 58.8918 73.5585 58.8987 73.4983 58.8871C73.4702 58.8792 73.4433 58.8676 73.4181 58.8528C72.4388 61.7507 68.4871 63.652 65.7153 64.2477C64.4875 64.5077 63.2362 64.6401 61.9812 64.6428ZM50.4527 53.4464C50.5108 53.446 50.5678 53.4634 50.6159 53.4961C50.6639 53.5288 50.7009 53.5754 50.7218 53.6297L52.5144 58.0968C52.8974 59.207 53.4416 60.2548 54.1294 61.2066C56.6207 64.2877 62.342 64.3679 65.5835 63.6749C68.7391 62.9934 73.5441 60.5652 73.0287 56.9342C73.0118 56.8925 73.0046 56.8475 73.0076 56.8025C73.0106 56.7576 73.0237 56.7139 73.0461 56.6748C73.0684 56.6357 73.0993 56.6022 73.1364 56.5767C73.1736 56.5513 73.216 56.5346 73.2605 56.5279C73.3051 56.5212 73.3505 56.5247 73.3935 56.5382C73.4365 56.5516 73.4759 56.5746 73.5087 56.6054C73.5415 56.6363 73.5669 56.6742 73.5829 56.7162C73.599 56.7583 73.6053 56.8035 73.6014 56.8483L73.7331 57.7245C75.3978 54.6441 75.9346 51.079 75.2508 47.6449C75.2386 47.5791 75.2489 47.5111 75.2801 47.4519C75.3112 47.3927 75.3614 47.3457 75.4226 47.3185C75.4833 47.2909 75.5517 47.285 75.6163 47.3017C75.6809 47.3183 75.7378 47.3566 75.7777 47.4101L77.9196 50.2737C78.0908 46.4377 77.1842 42.6305 75.3023 39.2835C73.4067 35.9217 71.2934 33.8771 67.4677 31.7238C66.8071 31.3125 66.0164 31.1634 65.2514 31.3057C65.1256 31.3389 65.0089 31.3999 64.9098 31.4841C64.8107 31.5683 64.7317 31.6737 64.6787 31.7925C64.6609 31.8321 64.6348 31.8674 64.6022 31.896C64.5696 31.9247 64.5312 31.946 64.4897 31.9586C64.4478 31.9697 64.404 31.9713 64.3614 31.9634C64.3188 31.9555 64.2785 31.9382 64.2434 31.9128C61.9182 30.3264 58.5908 30.1946 55.7559 31.5691C53.0826 32.994 50.9739 35.2865 49.7769 38.0693L49.5192 38.642C48.6375 40.8492 48.0353 43.1579 47.7266 45.5145L48.3795 44.4722C48.4213 44.4061 48.4876 44.3593 48.5638 44.3421C48.6401 44.325 48.72 44.3388 48.7861 44.3805C48.8522 44.4223 48.899 44.4886 48.9161 44.5649C48.9333 44.6411 48.9195 44.7211 48.8777 44.7872C48.2077 45.8581 48.368 47.9141 48.4883 49.4146C48.4883 49.6952 48.5284 49.9873 48.5398 50.1935C48.6539 52.0804 48.957 53.951 49.4447 55.7774C49.6384 55.0444 49.8853 54.3267 50.1835 53.6297C50.2051 53.5759 50.2422 53.5297 50.2902 53.4971C50.3381 53.4644 50.3947 53.4468 50.4527 53.4464Z" fill="#231F20"/>
<path d="M79.6661 114.995H53.2244C51.5063 96.5425 49.0837 66.527 51.575 62.7586C52.0924 62.0054 52.7788 61.3837 53.5794 60.9431C53.9336 60.7259 54.303 60.5345 54.6848 60.3704C56.8347 59.5943 59.1055 59.2065 61.3911 59.225C63.3061 59.1872 65.221 59.3001 67.1182 59.5629H67.1697C68.7927 59.756 70.3926 60.109 71.9461 60.6167C72.1866 60.7083 72.3928 60.7942 72.5531 60.8744C74.8153 62.0771 78.452 101.221 79.6661 114.995Z" fill="white"/>
<path d="M86.7675 114.995H52.1934L50.1431 117.95L43.0072 128.259C42.5986 124.555 42.2283 121.039 41.8961 117.71C40.6992 105.906 39.8917 96.4108 39.5194 88.7995C39.5194 88.7422 39.5194 88.6735 39.5194 88.6105C38.8551 74.8656 39.6053 67.3002 41.982 63.4115C42.8778 61.954 44.0844 60.7122 45.5156 59.7749C47.4637 58.5442 49.6528 57.7455 51.9356 57.4325C52.8286 57.2953 53.7298 57.2188 54.6331 57.2034C55.2058 57.2034 55.5093 57.2034 55.5093 57.2034C55.5093 57.2034 57.4393 57.0889 60.2112 57.0545H61.2593C63.7104 57.0545 66.6484 57.0545 69.4489 57.3065C70.8005 57.4153 72.1235 57.5642 73.3433 57.7589H73.435C73.6182 57.7933 73.7958 57.8219 73.9733 57.862C75.4598 58.0764 76.9011 58.533 78.24 59.2136C78.7726 59.5229 79.288 60.3991 79.7863 61.7163C79.7966 61.7499 79.81 61.7825 79.8264 61.8137C80.2859 63.1265 80.6684 64.4651 80.9718 65.8226C82.8846 73.9264 84.4423 87.9118 85.5019 99.5034C85.7653 102.418 86.0001 105.185 86.2063 107.664C86.3666 109.652 86.5041 111.461 86.6186 113.013C86.6759 113.735 86.7274 114.394 86.7675 114.995Z" fill="#AEECEF"/>
<path d="M54.7422 63.5547L67.2386 90.4661L67.6166 65.9085L54.7422 63.5547Z" fill="white"/>
<path d="M67.2384 90.7581C67.1817 90.7587 67.1261 90.7428 67.0783 90.7123C67.0305 90.6818 66.9926 90.638 66.9692 90.5863L54.4728 63.6807C54.45 63.6318 54.4411 63.5776 54.4472 63.524C54.4532 63.4705 54.474 63.4196 54.5072 63.3771C54.5392 63.3332 54.5834 63.2995 54.6342 63.2802C54.685 63.2609 54.7404 63.2568 54.7935 63.2683L67.6737 65.6221C67.7419 65.6344 67.8036 65.6704 67.8476 65.724C67.8917 65.7775 67.9153 65.8449 67.9142 65.9142L67.5362 90.4661C67.5342 90.533 67.51 90.5974 67.4675 90.6492C67.4251 90.701 67.3667 90.7373 67.3014 90.7524L67.2384 90.7581ZM55.2517 63.9498L66.9635 89.1488L67.3186 66.1318L55.2517 63.9498Z" fill="#231F20"/>
<path d="M67.0956 58.1197L67.6225 65.9085C67.6225 65.9085 65.5722 70.4557 60.5037 68.9954C55.4353 67.535 54.7423 63.5547 54.7423 63.5547C54.7423 63.5547 54.4846 48.8533 54.5018 48.5212C54.5018 48.0802 57.8808 45.5775 58.3561 44.9647C59.6764 43.2786 60.6497 41.3477 61.2196 39.2834L61.2654 41.5055C62.7037 40.3727 63.813 38.8759 64.4783 37.1702C65.2228 38.8596 67.0154 39.7702 68.5617 40.7782C72.3816 43.258 72.8513 49.615 71.9979 53.7786C71.179 57.7188 67.0956 58.1197 67.0956 58.1197Z" fill="white"/>
<path d="M62.4281 69.5795C61.7493 69.5735 61.0747 69.4733 60.4236 69.2817C55.2693 67.7869 54.4789 63.778 54.4503 63.6062C54.4217 62.0542 54.1868 48.8419 54.204 48.5097C54.2212 48.1775 54.7424 47.685 56.5292 46.2189C57.0894 45.7734 57.6211 45.2933 58.1213 44.7814C59.4071 43.1225 60.3547 41.2273 60.9104 39.2033C60.9344 39.1417 60.9781 39.0899 61.0348 39.0559C61.0914 39.0219 61.1578 39.0078 61.2234 39.0156C61.289 39.0235 61.3501 39.053 61.3971 39.0994C61.4441 39.1458 61.4744 39.2065 61.4831 39.272V40.8813C62.6615 39.8364 63.5726 38.5246 64.1404 37.0556C64.1624 37.0016 64.1995 36.955 64.2472 36.9215C64.295 36.888 64.3513 36.8689 64.4096 36.8666C64.4681 36.8646 64.5258 36.8805 64.5749 36.9123C64.6241 36.944 64.6623 36.99 64.6845 37.0442C65.2572 38.4015 66.6489 39.2548 67.9661 40.0795C68.2009 40.2284 68.4357 40.3716 68.6591 40.5205C72.7196 43.1606 73.0288 49.9243 72.2442 53.8301C71.5455 57.3179 68.3441 58.1827 67.3705 58.366L67.8745 65.8856C67.8855 65.9327 67.8855 65.9816 67.8745 66.0287C67.8688 66.0746 66.2365 69.5795 62.4281 69.5795ZM60.939 41.013C60.3551 42.4951 59.5646 43.8872 58.5909 45.1479C58.0651 45.6865 57.5025 46.1879 56.9072 46.6484C56.1449 47.2296 55.4357 47.8774 54.7882 48.5842C54.7882 48.8476 54.9485 58.4919 55.0402 63.5489C55.0402 63.6577 55.7732 67.323 60.5839 68.7033C61.8626 69.1306 63.2534 69.0753 64.4941 68.5478C65.7348 68.0203 66.7396 67.0571 67.319 65.8397L66.8035 58.1311C66.7971 58.0545 66.8212 57.9785 66.8705 57.9195C66.9199 57.8606 66.9904 57.8234 67.067 57.8162C67.2273 57.8162 70.9671 57.3809 71.7059 53.7099C72.4447 50.0388 72.1927 43.4871 68.3785 41.013C68.1551 40.8641 67.926 40.7209 67.6912 40.5778C66.4828 39.8161 65.2343 39.0372 64.4841 37.846C63.7952 39.3679 62.7526 40.7031 61.443 41.7403C61.3994 41.7744 61.3472 41.7956 61.2922 41.8017C61.2372 41.8077 61.1816 41.7983 61.1317 41.7745C61.0817 41.7507 61.0394 41.7135 61.0094 41.667C60.9794 41.6205 60.963 41.5666 60.9619 41.5113L60.939 41.013Z" fill="#231F20"/>
<path d="M67.2388 61.9626C66.2912 62.0267 65.3409 61.8872 64.4518 61.5533C63.5627 61.2194 62.7555 60.6989 62.0844 60.0268C59.9253 57.736 60.1716 56.499 60.1716 56.499C60.1716 56.499 63.7224 58.6523 67.107 58.1254L67.2388 61.9626Z" fill="#231F20"/>
<path d="M66.792 62.2604C65.8758 62.2679 64.9675 62.0907 64.1213 61.7394C63.2751 61.3881 62.5083 60.87 61.8668 60.2158C59.6676 57.925 59.8508 56.5792 59.8795 56.436C59.8898 56.392 59.9101 56.351 59.939 56.3162C59.9678 56.2815 60.0043 56.2538 60.0456 56.2355C60.0858 56.213 60.1312 56.2011 60.1773 56.2011C60.2234 56.2011 60.2688 56.213 60.309 56.2355C60.3434 56.2355 63.814 58.3259 67.0555 57.8219C67.095 57.8163 67.1353 57.8189 67.1738 57.8298C67.2123 57.8406 67.2481 57.8594 67.2788 57.8849C67.3102 57.9095 67.3357 57.9408 67.3536 57.9764C67.3714 58.0121 67.3811 58.0512 67.3819 58.0911L67.5251 61.9282C67.5285 62.0005 67.5044 62.0714 67.4576 62.1267C67.4109 62.1819 67.345 62.2174 67.2731 62.226C67.2445 62.2432 67.0726 62.2604 66.792 62.2604ZM60.4923 57.003C60.6125 57.5241 61.0077 58.4863 62.2791 59.8207C62.8908 60.4292 63.6189 60.9081 64.4199 61.2289C65.2209 61.5497 66.0783 61.7057 66.9409 61.6877L66.8207 58.4462C64.1748 58.7383 61.546 57.5528 60.4923 57.003Z" fill="#231F20"/>
<path d="M66.3394 45.4114C66.3394 45.4114 68.5386 49.993 67.7654 50.6402C66.9923 51.2873 65.1997 50.5142 65.1997 50.5142" fill="white"/>
<path d="M66.8779 51.1785C66.2614 51.1518 65.6545 51.0161 65.0853 50.7776C65.0509 50.7633 65.0196 50.7422 64.9934 50.7156C64.9672 50.689 64.9465 50.6575 64.9327 50.6228C64.9188 50.5881 64.912 50.551 64.9126 50.5137C64.9133 50.4764 64.9214 50.4395 64.9364 50.4054C64.9656 50.3357 65.021 50.2804 65.0908 50.2515C65.1605 50.2225 65.2388 50.2222 65.3087 50.2507C65.7325 50.4283 67.0669 50.8234 67.5995 50.4168C67.9088 50.1591 67.1929 47.8339 66.0933 45.5317C66.0668 45.4643 66.0669 45.3893 66.0934 45.322C66.12 45.2546 66.1711 45.1998 66.2364 45.1686C66.3017 45.1374 66.3765 45.1321 66.4455 45.1538C66.5146 45.1754 66.5729 45.2225 66.6087 45.2854C67.3017 46.7286 68.8136 50.1591 67.9603 50.8578C67.6489 51.0896 67.2653 51.2033 66.8779 51.1785Z" fill="#231F20"/>
<path d="M63.9281 44.5398C64.0036 43.9086 63.8407 43.37 63.5643 43.337C63.288 43.3039 63.0027 43.7889 62.9272 44.4201C62.8517 45.0514 63.0146 45.5899 63.2909 45.623C63.5673 45.656 63.8526 45.1711 63.9281 44.5398Z" fill="#231F20"/>
<path d="M69.8245 45.0281C69.9 44.3968 69.7372 43.8583 69.4608 43.8253C69.1844 43.7922 68.8992 44.2771 68.8237 44.9084C68.7482 45.5397 68.9111 46.0782 69.1874 46.1112C69.4638 46.1443 69.749 45.6594 69.8245 45.0281Z" fill="#231F20"/>
<path d="M58.5794 46.574C58.1652 45.7753 57.6013 45.0637 56.9185 44.4779C56.5188 44.1381 56.0113 43.9516 55.4868 43.9516C54.9622 43.9516 54.4547 44.1381 54.055 44.4779C53.5712 44.8995 53.2243 45.4558 53.0585 46.0758C52.2739 48.756 53.8603 50.5715 56.1511 51.4993" fill="white"/>
<path d="M56.1454 51.8085C56.1096 51.8166 56.0724 51.8166 56.0366 51.8085C53.2189 50.6631 52.0277 48.567 52.7722 46.0299C52.9584 45.3614 53.3391 44.7634 53.8661 44.3118C54.3195 43.9174 54.9002 43.7001 55.5011 43.7001C56.1021 43.7001 56.6828 43.9174 57.1362 44.3118C57.8421 44.9236 58.4252 45.6641 58.8543 46.4938C58.8886 46.5646 58.8941 46.6461 58.8695 46.7209C58.8449 46.7957 58.7923 46.858 58.7226 46.8947C58.6884 46.9125 58.651 46.9234 58.6126 46.9267C58.5742 46.93 58.5355 46.9257 58.4988 46.914C58.462 46.9023 58.428 46.8834 58.3986 46.8585C58.3692 46.8335 58.345 46.803 58.3274 46.7687C57.9331 46.0026 57.3945 45.32 56.741 44.7585C56.3916 44.457 55.9455 44.2911 55.4839 44.2911C55.0224 44.2911 54.5763 44.457 54.2269 44.7585C53.7897 45.1413 53.4766 45.6458 53.3277 46.2074C52.4057 49.3459 55.0458 50.7891 56.2485 51.2759C56.3232 51.2923 56.3884 51.3374 56.4302 51.4015C56.472 51.4655 56.487 51.5434 56.472 51.6184C56.457 51.6934 56.4132 51.7595 56.35 51.8025C56.2868 51.8456 56.2092 51.8621 56.134 51.8486L56.1454 51.8085Z" fill="#231F20"/>
<path d="M66.0703 55.3535C64.4266 55.3535 63.9513 53.5094 63.9284 52.5358C63.9254 52.4935 63.9327 52.4511 63.9497 52.4122C63.9666 52.3733 63.9927 52.3391 64.0257 52.3125C64.0565 52.2849 64.093 52.2644 64.1326 52.2525C64.1722 52.2406 64.2139 52.2376 64.2548 52.2438L68.4699 52.9024C68.5513 52.9187 68.6231 52.9659 68.6704 53.0341C68.686 53.0713 68.694 53.1112 68.694 53.1515C68.694 53.1918 68.686 53.2317 68.6704 53.2689C68.5087 53.8442 68.1711 54.3546 67.7048 54.7284C67.2386 55.1023 66.667 55.3208 66.0703 55.3535ZM64.5297 52.868C64.6099 53.5037 64.9249 54.7808 66.0703 54.7808C66.4938 54.765 66.9037 54.6275 67.2511 54.3848C67.5985 54.142 67.8685 53.8043 68.0289 53.4121L64.5297 52.868Z" fill="#231F20"/>
<path d="M79.7691 61.6647C79.7691 61.6647 92.3686 88.0664 94.4876 88.5818C98.2388 89.481 111.795 81.8182 111.795 81.8182L116.285 89.7043C116.285 89.7043 102.391 107.55 92.4888 105.001C85.1411 103.106 77.6787 86.3483 77.6787 86.3483L79.7691 61.6647Z" fill="#AEECEF"/>
<path d="M45.5101 59.7805C45.5101 59.7805 44.777 56.9743 28.7986 79.5618C28.7986 65.6107 29.3999 58.9444 29.3999 58.9444L17.8026 60.4964C17.8026 60.4964 12.7743 99.761 22.3843 101.158C31.9943 102.556 42.8355 83.8628 42.8355 83.8628L45.5101 59.7805Z" fill="#AEECEF"/>
<path d="M21.6113 56.8082C21.5323 56.8082 21.4566 56.7768 21.4007 56.721C21.3449 56.6651 21.3135 56.5894 21.3135 56.5104C21.3135 52.9024 25.9352 50.2565 26.1299 50.1419C26.1641 50.1226 26.2018 50.1103 26.2408 50.1056C26.2797 50.1009 26.3193 50.104 26.3571 50.1146C26.3948 50.1253 26.4302 50.1433 26.461 50.1676C26.4918 50.192 26.5175 50.2222 26.5365 50.2565C26.5557 50.2902 26.568 50.3275 26.5726 50.366C26.5772 50.4045 26.5741 50.4436 26.5634 50.4809C26.5527 50.5183 26.5347 50.5531 26.5105 50.5834C26.4862 50.6137 26.4561 50.6388 26.422 50.6574C26.3762 50.6574 21.9034 53.2517 21.9034 56.5104C21.9041 56.5492 21.8971 56.5878 21.8828 56.6239C21.8685 56.66 21.8471 56.6929 21.8199 56.7206C21.7927 56.7484 21.7602 56.7704 21.7244 56.7854C21.6886 56.8005 21.6501 56.8082 21.6113 56.8082Z" fill="#231F20"/>
<path d="M86.6417 113.311C86.5672 113.311 86.4954 113.283 86.4411 113.232C86.3867 113.181 86.3541 113.111 86.3497 113.036C85.2959 96.3878 80.7486 66.1719 80.7028 65.8684C80.6963 65.8303 80.6976 65.7913 80.7066 65.7537C80.7156 65.7162 80.732 65.6808 80.755 65.6498C80.7781 65.6187 80.8071 65.5927 80.8405 65.5732C80.8738 65.5537 80.9107 65.5411 80.9491 65.5362C81.0264 65.5247 81.1053 65.544 81.1685 65.5901C81.2317 65.6362 81.2743 65.7053 81.287 65.7825C81.3328 66.086 85.8686 96.3248 86.9338 112.996C86.9369 113.035 86.9323 113.074 86.92 113.111C86.9078 113.148 86.8884 113.182 86.8627 113.212C86.8371 113.241 86.8059 113.265 86.7709 113.282C86.7359 113.299 86.6978 113.309 86.6589 113.311H86.6417Z" fill="#231F20"/>
<path d="M31.0092 98.2835C30.9511 98.2829 30.8944 98.2653 30.8461 98.2329C30.7979 98.2005 30.7602 98.1547 30.7376 98.1011C30.7151 98.0475 30.7088 97.9885 30.7193 97.9314C30.7299 97.8742 30.757 97.8214 30.7973 97.7795C30.8889 97.6878 39.9033 88.5188 45.9568 79.8882C45.9786 79.8558 46.0067 79.8281 46.0394 79.8067C46.0721 79.7853 46.1088 79.7707 46.1472 79.7638C46.1856 79.7569 46.2251 79.7577 46.2632 79.7663C46.3013 79.7749 46.3373 79.791 46.3691 79.8137C46.4333 79.8588 46.4772 79.9274 46.4911 80.0046C46.5051 80.0818 46.488 80.1614 46.4436 80.2261C40.3557 88.8796 31.307 98.1059 31.2211 98.1976C31.1643 98.2527 31.0883 98.2835 31.0092 98.2835Z" fill="#231F20"/>
<path d="M115.764 84.3267C115.73 84.3347 115.694 84.3347 115.661 84.3267C115.597 84.299 115.547 84.2474 115.521 84.1831C115.496 84.1188 115.496 84.0469 115.523 83.9831C115.953 82.7932 115.953 81.4904 115.523 80.3006C115.51 80.2682 115.504 80.2337 115.505 80.1989C115.505 80.1642 115.513 80.1298 115.526 80.0979C115.54 80.066 115.56 80.0372 115.585 80.013C115.61 79.9888 115.64 79.9697 115.672 79.957C115.704 79.9442 115.739 79.9379 115.774 79.9385C115.808 79.939 115.843 79.9464 115.875 79.9602C115.907 79.9741 115.935 79.994 115.96 80.019C115.984 80.044 116.003 80.0735 116.016 80.1059C116.5 81.4238 116.5 82.8713 116.016 84.1892C115.993 84.2351 115.956 84.2728 115.911 84.2974C115.866 84.3219 115.815 84.3322 115.764 84.3267Z" fill="#231F20"/>
<path d="M55.017 90.2943H54.9769C54.8852 90.2943 52.6861 89.9907 50.9679 87.1215C49.2498 84.2522 49.9027 78.3476 49.9314 78.0957C49.9385 78.0233 49.9724 77.9561 50.0264 77.9074C50.0804 77.8587 50.1507 77.8319 50.2234 77.8322L58.5391 77.9811C58.6088 77.983 58.6756 78.0092 58.7279 78.0552C58.7802 78.1013 58.8148 78.1642 58.8255 78.2331C58.8655 78.445 59.6788 83.5306 58.8255 85.9417C57.9721 88.3528 55.3033 90.174 55.1888 90.2484C55.1372 90.2802 55.0775 90.2961 55.017 90.2943ZM50.4869 78.4278C50.3838 79.6191 50.0688 84.487 51.4662 86.8179C52.8636 89.1488 54.5187 89.5956 54.9482 89.6815C55.4236 89.3436 57.5426 87.74 58.2585 85.7355C58.9744 83.7311 58.436 79.6076 58.2585 78.5653L50.4869 78.4278Z" fill="#231F20"/>
<path d="M185.09 51.8658C185.09 51.8658 189.013 43.5444 195.289 49.4318C200.444 54.2654 192.586 66.0803 197.993 67.9416C197.993 67.9416 192.993 67.1055 191.658 63.0393C190.324 58.9731 190.702 57.7475 190.702 57.7475C190.702 57.7475 188.096 59.3052 185.657 57.9594C183.217 56.6135 185.09 51.8658 185.09 51.8658Z" fill="white"/>
<path d="M197.993 68.2051H197.947C197.735 68.1707 192.792 67.2945 191.407 63.1252C190.513 60.3934 190.376 58.9101 190.393 58.1999C189.637 58.5753 188.805 58.7706 187.962 58.7706C187.118 58.7706 186.286 58.5753 185.531 58.1999C182.919 56.7567 184.763 51.9861 184.843 51.7799C184.918 51.6138 186.756 47.771 189.998 47.1696C191.773 46.826 193.611 47.5304 195.456 49.26C198.17 51.8028 197.431 56.1324 196.773 59.9982C196.149 63.6864 195.627 66.8707 198.067 67.7183C198.124 67.7399 198.172 67.7806 198.202 67.8335C198.233 67.8864 198.244 67.9482 198.234 68.0084C198.223 68.0686 198.193 68.1233 198.147 68.1634C198.101 68.2034 198.042 68.2262 197.981 68.228L197.993 68.2051ZM190.702 57.484C190.761 57.4829 190.818 57.5033 190.862 57.5413C190.904 57.5736 190.935 57.6176 190.951 57.6676C190.968 57.7176 190.969 57.7713 190.954 57.8219C190.954 57.8219 190.633 59.0761 191.905 62.9763C192.718 65.4503 194.986 66.6931 196.521 67.2658C195.278 65.7138 195.765 62.8732 196.269 59.9066C196.905 56.1954 197.62 51.9861 195.123 49.638C193.405 48.0287 191.727 47.3472 190.118 47.6793C187.197 48.252 185.433 51.7971 185.342 51.9861C185.25 52.1751 183.623 56.5677 185.794 57.7475C188.085 59.0074 190.553 57.5528 190.582 57.5413C190.615 57.5104 190.657 57.4904 190.702 57.484Z" fill="#231F20"/>
<path d="M190.055 56.8082C190.004 57.137 189.859 57.4441 189.638 57.6921C189.416 57.9402 189.127 58.1186 188.806 58.2056C187.901 58.4118 186.687 57.9021 185.903 57.2091C185.212 56.5424 184.671 55.7361 184.316 54.8438C183.658 53.3892 181.499 47.8969 185.404 49.5062C188.806 50.9036 190.605 54.5174 190.055 56.8082Z" fill="#231F20"/>
<path d="M188.366 58.5263C187.378 58.4622 186.443 58.0574 185.72 57.3809C184.999 56.6947 184.437 55.8604 184.07 54.9355C183.601 53.8989 182.163 50.4397 183.263 49.3C183.698 48.8476 184.448 48.8304 185.485 49.26C188.921 50.6803 190.863 54.4143 190.284 56.8597C190.226 57.2352 190.059 57.5853 189.803 57.8664C189.548 58.1474 189.215 58.3471 188.847 58.4404C188.69 58.485 188.528 58.5138 188.366 58.5263ZM184.208 49.489C184.104 49.4803 184 49.4931 183.901 49.5266C183.803 49.5601 183.712 49.6136 183.635 49.6838C182.988 50.3595 183.635 52.7878 184.54 54.7636C184.879 55.6282 185.401 56.4095 186.069 57.0545C186.751 57.6673 187.896 58.1999 188.744 57.9937C189.02 57.9207 189.269 57.7667 189.458 57.5514C189.647 57.3361 189.767 57.0693 189.803 56.7853C190.336 54.5689 188.526 51.0983 185.302 49.7697C184.958 49.6039 184.588 49.5011 184.208 49.4661V49.489Z" fill="#231F20"/>
<path d="M169.953 50.4684C169.953 50.4684 166.03 42.147 159.753 48.0287C154.599 52.868 162.457 64.6829 157.05 66.5385C157.05 66.5385 162.05 65.7023 163.384 61.6361C164.719 57.5699 164.341 56.3443 164.341 56.3443C164.341 56.3443 166.947 57.9078 169.386 56.5562C171.826 55.2046 169.953 50.4684 169.953 50.4684Z" fill="white"/>
<path d="M157.05 66.8019C156.993 66.8014 156.937 66.7821 156.891 66.747C156.846 66.7118 156.813 66.6627 156.798 66.6072C156.783 66.5435 156.791 66.4763 156.822 66.4183C156.852 66.3603 156.903 66.3155 156.964 66.2922C159.427 65.4446 158.888 62.2833 158.258 58.5722C157.606 54.735 156.861 50.3825 159.576 47.8397C161.42 46.1216 163.258 45.4057 165.034 45.7436C168.275 46.3621 170.113 50.1935 170.188 50.3252C170.268 50.5257 172.112 55.2963 169.501 56.7395C167.542 57.8276 165.492 57.1461 164.638 56.7395C164.638 57.4439 164.518 58.933 163.625 61.659C162.256 65.8283 157.296 66.7046 157.084 66.7447L157.05 66.8019ZM164.169 46.1846C162.794 46.1846 161.374 46.8661 159.931 48.2177C157.422 50.5715 158.144 54.7751 158.785 58.4863C159.289 61.4529 159.776 64.2935 158.539 65.8455C160.074 65.2728 162.336 64.03 163.149 61.556C164.427 57.673 164.106 56.4016 164.1 56.4016C164.086 56.3507 164.087 56.2967 164.103 56.2465C164.12 56.1963 164.151 56.1522 164.193 56.1201C164.235 56.088 164.286 56.0692 164.339 56.0663C164.392 56.0634 164.444 56.0765 164.49 56.1038C164.49 56.1038 166.998 57.5699 169.272 56.31C171.436 55.113 169.81 50.7719 169.724 50.5829C169.638 50.3939 167.863 46.826 164.948 46.2705C164.691 46.2182 164.43 46.1894 164.169 46.1846Z" fill="#231F20"/>
<path d="M164.988 55.4108C165.039 55.741 165.186 56.0491 165.41 56.2973C165.633 56.5455 165.925 56.7231 166.248 56.8082C167.153 57.0144 168.373 56.5104 169.151 55.8117C169.844 55.1467 170.385 54.3399 170.738 53.4464C171.396 51.9975 173.561 46.4995 169.65 48.1088C166.248 49.5005 164.444 53.1372 164.988 55.4108Z" fill="#231F20"/>
<path d="M166.683 57.106C166.515 57.1074 166.348 57.0882 166.185 57.0487C165.815 56.9578 165.48 56.759 165.223 56.4776C164.966 56.1962 164.799 55.8448 164.742 55.4681C164.169 53.0513 166.093 49.2886 169.541 47.8683C170.577 47.4445 171.328 47.456 171.763 47.9141C172.863 49.0595 171.425 52.4958 170.955 53.5438C170.591 54.4714 170.028 55.308 169.306 55.995C168.583 56.6521 167.658 57.0439 166.683 57.106ZM170.829 48.063C170.449 48.0865 170.076 48.1797 169.73 48.3379C166.506 49.6609 164.696 53.1314 165.228 55.3478C165.265 55.6319 165.385 55.8986 165.574 56.1139C165.762 56.3292 166.011 56.4832 166.288 56.5562C167.141 56.7509 168.281 56.2298 168.968 55.617C169.633 54.9704 170.152 54.1894 170.492 53.3262C171.385 51.3561 172.049 48.9221 171.396 48.252C171.32 48.1836 171.23 48.1316 171.132 48.0991C171.035 48.0666 170.932 48.0543 170.829 48.063Z" fill="#231F20"/>
<path d="M171.917 47.3987C168.767 48.9965 166.024 51.1384 165.744 55.7831C165.446 60.651 165.171 66.6301 169.18 69.7227C171.155 71.1908 173.502 72.0763 175.954 72.2788C178.407 72.4812 180.867 71.9925 183.056 70.8681C185.213 69.6808 187.002 67.926 188.232 65.7938C189.462 63.6616 190.084 61.2334 190.032 58.7726C189.728 48.504 179.299 43.6646 171.917 47.3987Z" fill="white"/>
<path d="M177.083 72.5748C174.182 72.5985 171.353 71.6689 169.031 69.9289C164.822 66.6759 165.205 60.3705 165.48 55.7659C165.784 50.8578 168.842 48.6644 171.78 47.1753C173.695 46.251 175.81 45.8193 177.935 45.9193C180.059 46.0193 182.124 46.6479 183.944 47.7481C185.858 48.8871 187.448 50.4983 188.561 52.4276C189.674 54.357 190.273 56.5397 190.301 58.7669C190.364 61.2813 189.733 63.7644 188.479 65.9443C187.224 68.1242 185.394 69.9169 183.188 71.1258C181.3 72.0955 179.205 72.5927 177.083 72.5748ZM171.929 47.3758L172.049 47.6106C169.082 49.1111 166.322 51.1385 166.018 55.7774C165.744 60.2616 165.371 66.4068 169.363 69.4879C171.297 70.9243 173.594 71.7925 175.995 71.9948C178.396 72.1972 180.806 71.7257 182.953 70.6333C185.07 69.4734 186.827 67.7542 188.033 65.6636C189.239 63.573 189.847 61.1912 189.791 58.7783C189.77 56.637 189.199 54.5371 188.133 52.6799C187.067 50.8227 185.542 49.2704 183.704 48.1719C181.962 47.1137 179.984 46.5072 177.949 46.4072C175.914 46.3071 173.886 46.7169 172.049 47.5991L171.929 47.3758Z" fill="#231F20"/>
<path d="M140.379 78.2388C140.189 75.1055 139.464 72.0278 138.237 69.1386C138.054 68.7033 137.664 68.1936 137.223 68.4112C137.464 69.7399 137.706 71.0762 137.951 72.4202C135.488 70.791 133.352 68.7167 131.651 66.3037C131.513 66.0552 131.317 65.8447 131.078 65.6909C130.95 65.6244 130.802 65.6088 130.663 65.647C130.523 65.6852 130.404 65.7745 130.328 65.897C130.3 66.0129 130.298 66.1334 130.322 66.2501C130.346 66.3668 130.395 66.477 130.465 66.5728C131.19 67.8785 132.036 69.1134 132.991 70.2611C131.765 68.457 130.471 66.5843 128.558 65.5305C128.766 67.6174 129.56 69.6029 130.849 71.2576L127.791 67.8557C127.516 67.5464 127.052 67.2143 126.726 67.4777C126.399 67.7412 126.617 68.2394 126.846 68.5773L128.965 71.7501C127.888 70.807 126.768 69.9098 125.603 69.0584C125.803 70.9884 127.281 72.5404 128.856 73.6744C130.431 74.8083 132.201 75.7247 133.489 77.1736C134.267 78.1203 134.928 79.1566 135.459 80.2605" fill="white"/>
<path d="M135.408 80.5124C135.36 80.5121 135.313 80.4985 135.273 80.4733C135.232 80.448 135.2 80.412 135.179 80.3693C134.653 79.2861 134.003 78.2675 133.243 77.3339C132.301 76.3686 131.236 75.5311 130.076 74.8427C129.606 74.5334 129.119 74.2127 128.65 73.8748C126.599 72.3915 125.466 70.7765 125.288 69.0755C125.283 69.0252 125.293 68.9745 125.316 68.9297C125.339 68.8849 125.375 68.848 125.42 68.8235C125.463 68.7966 125.512 68.7823 125.563 68.7823C125.614 68.7823 125.663 68.7966 125.706 68.8235C126.37 69.3084 127.025 69.8124 127.67 70.3355L126.577 68.7033C126.164 68.0905 126.141 67.5579 126.514 67.2486C126.886 66.9393 127.436 67.0997 127.934 67.6609L129.211 69.0755C128.707 67.9507 128.39 66.7514 128.272 65.5248C128.266 65.4771 128.274 65.4288 128.294 65.3853C128.314 65.3418 128.346 65.3048 128.386 65.2785C128.427 65.2549 128.474 65.2424 128.521 65.2424C128.568 65.2424 128.615 65.2549 128.655 65.2785C129.145 65.5521 129.605 65.8744 130.03 66.2406C129.988 66.0852 129.998 65.9203 130.059 65.771C130.097 65.6859 130.151 65.6092 130.219 65.5453C130.287 65.4814 130.367 65.4316 130.454 65.3988C130.684 65.3183 130.937 65.3306 131.158 65.4331C131.446 65.5963 131.686 65.8336 131.851 66.1204C133.417 68.3441 135.354 70.2814 137.578 71.8474C137.372 70.7249 137.168 69.6005 136.965 68.4742C136.957 68.4197 136.965 68.3639 136.99 68.3146C137.015 68.2653 137.054 68.225 137.103 68.1993C137.19 68.151 137.286 68.1223 137.385 68.1154C137.484 68.1085 137.583 68.1234 137.676 68.1592C138.051 68.3398 138.341 68.6606 138.483 69.0526C139.72 71.9618 140.452 75.0606 140.648 78.2159C140.651 78.2854 140.627 78.3535 140.581 78.4058C140.535 78.4582 140.471 78.4907 140.402 78.4965C140.333 78.4997 140.265 78.4756 140.214 78.4296C140.162 78.3835 140.131 78.3191 140.127 78.2502C139.939 75.1461 139.22 72.0972 138.002 69.2359C137.915 68.9991 137.752 68.7978 137.538 68.6632C137.761 69.8945 137.985 71.1315 138.214 72.3628C138.223 72.4132 138.217 72.4651 138.197 72.512C138.176 72.5589 138.142 72.5987 138.099 72.6263C138.058 72.657 138.008 72.6735 137.956 72.6735C137.905 72.6735 137.854 72.657 137.813 72.6263C135.318 70.9841 133.155 68.8856 131.439 66.4411C131.317 66.2297 131.146 66.0509 130.941 65.9199C130.894 65.9002 130.845 65.8901 130.795 65.8901C130.744 65.8901 130.695 65.9002 130.648 65.9199C130.626 65.9259 130.605 65.9367 130.588 65.9516C130.57 65.9664 130.555 65.9849 130.545 66.0058C130.5 66.1146 130.591 66.2979 130.671 66.4525C130.9 66.8649 131.147 67.2772 131.404 67.6781C132.063 68.4685 132.642 69.3161 133.186 70.1178C133.222 70.1739 133.236 70.2419 133.224 70.3079C133.213 70.3738 133.176 70.4328 133.123 70.4729C133.097 70.4937 133.067 70.5091 133.035 70.5184C133.003 70.5276 132.97 70.5304 132.937 70.5267C132.904 70.523 132.872 70.5128 132.843 70.4967C132.814 70.4805 132.788 70.4589 132.767 70.4328C132.121 69.658 131.524 68.8431 130.981 67.9931C130.376 67.2399 129.662 66.5816 128.862 66.0402C129.132 67.8873 129.872 69.6342 131.009 71.1144C131.046 71.1682 131.062 71.234 131.053 71.2987C131.044 71.3635 131.012 71.4227 130.962 71.4648C130.912 71.5069 130.848 71.5289 130.783 71.5266C130.717 71.5243 130.655 71.4978 130.608 71.4522L127.55 68.0504C127.361 67.8328 127.012 67.5579 126.846 67.6953C126.68 67.8328 126.846 68.1707 127.018 68.4513L129.137 71.6183C129.172 71.6708 129.188 71.7345 129.181 71.7976C129.173 71.8608 129.143 71.9192 129.096 71.962C129.048 72.0035 128.986 72.0263 128.922 72.0263C128.858 72.0263 128.796 72.0035 128.747 71.962C127.842 71.1659 126.897 70.4042 125.929 69.6711C126.284 70.9941 127.298 72.2655 128.965 73.4682C129.417 73.8003 129.904 74.1153 130.374 74.4246C131.572 75.1368 132.669 76.0054 133.638 77.0075C134.428 77.9682 135.101 79.0199 135.642 80.1402C135.664 80.1801 135.675 80.225 135.675 80.2705C135.674 80.316 135.661 80.3605 135.638 80.3998C135.615 80.439 135.582 80.4715 135.543 80.4943C135.504 80.5171 135.459 80.5292 135.413 80.5296L135.408 80.5124Z" fill="#231F20"/>
<path d="M160.372 77.9582C158.287 79.8997 153.631 87.2303 149.393 94.916L140.613 76.5093L133.478 78.634C133.478 78.634 139.932 112.676 146.3 114.09C152.669 115.505 161.345 100.299 161.345 100.299L171.081 73.577C171.081 73.577 163.487 75.0374 160.372 77.9582Z" fill="#AEECEF"/>
<path d="M184.809 117.211C185.147 121.054 185.479 124.33 185.691 126.329L184.918 125.218H161.586C161.013 119.949 160.063 110.665 159.828 102.756C159.685 98.1747 159.776 94.0913 160.297 91.4798C161.552 85.18 166.322 80.7015 169.312 78.4221C169.99 77.8969 170.696 77.4076 171.425 76.956L171.774 76.7441H171.803C172.114 76.3914 172.462 76.0727 172.84 75.7934C175.915 73.5026 179.684 74.7912 182.255 75.8679L182.581 76.011C183.063 76.2229 183.498 76.4119 183.87 76.5837L184.368 76.767C186.625 77.5001 186.693 79.5675 184.368 86.9783C183.395 90.0824 183.503 97.8597 183.967 105.832C184.191 109.726 184.506 113.706 184.809 117.211Z" fill="white"/>
<path d="M172.095 75.6044C172.012 75.9919 171.907 76.3743 171.78 76.7498C171.666 77.0992 171.517 77.4829 171.345 77.8952C171.276 78.0556 171.208 78.2217 171.127 78.3877C169.827 84.3553 168.625 97.9857 168.264 102.688C168.155 104.194 167.897 106.697 167.594 109.938C167.531 110.568 167.468 111.238 167.41 111.925C167.408 111.948 167.408 111.971 167.41 111.994C167.342 112.716 167.273 113.466 167.204 114.245C167.204 114.285 167.204 114.319 167.204 114.359C167.153 114.932 167.101 115.505 167.055 116.077C167.01 116.576 166.964 117.085 166.924 117.607C166.729 119.96 166.54 122.497 166.351 125.195H155.676C156.122 120.814 156.563 116.352 156.982 112.08C157.193 109.978 157.394 107.922 157.589 105.941C158.539 96.3478 159.307 88.6105 159.765 86.4171C159.942 85.5408 160.137 84.699 160.338 83.9716C161.987 78.319 164.822 75.7132 167.296 74.522C167.491 74.4246 167.68 74.3445 167.869 74.2643C168.852 73.8704 169.892 73.6383 170.95 73.577H171.03C171.311 73.577 171.534 73.577 171.7 73.577H171.752C171.847 73.5699 171.943 73.5699 172.038 73.577C172.147 73.8036 172.198 74.0534 172.187 74.3044C172.216 74.7399 172.185 75.1772 172.095 75.6044Z" fill="#AEECEF"/>
<path d="M172.003 70.7249L171.322 77.9983C171.322 77.9983 171.7 82.1218 176.23 81.2684C177.562 81.0024 178.818 80.4436 179.908 79.6324C180.997 78.8212 181.893 77.7779 182.53 76.578L183.102 63.9785C182.72 61.7298 182.676 59.4366 182.971 57.1747C177.61 56.602 173.739 52.1979 173.739 52.1979C173.739 52.1979 171.654 54.8095 170.772 55.6342C170.073 56.2368 169.452 56.9236 168.922 57.6787C168.052 59.0131 167.931 60.7599 167.828 62.3062C167.688 64.143 167.711 65.9886 167.897 67.8213C168.355 71.2575 172.003 70.7249 172.003 70.7249Z" fill="white"/>
<path d="M175.062 81.6349C174.192 81.6633 173.338 81.4014 172.633 80.8904C171.764 80.1715 171.202 79.1469 171.064 78.0269L171.717 71.0285C170.739 71.0955 169.767 70.8268 168.962 70.2668C168.593 69.969 168.29 69.598 168.071 69.1771C167.852 68.7562 167.723 68.2946 167.691 67.8213C167.498 65.9718 167.475 64.1084 167.622 62.2546C167.72 60.7656 167.84 58.9043 168.768 57.5012C169.308 56.728 169.943 56.0257 170.658 55.4108C171.511 54.6262 173.578 52.049 173.601 52.0261C173.624 51.9959 173.654 51.971 173.687 51.9532C173.721 51.9354 173.758 51.9251 173.796 51.923C173.874 51.9254 173.948 51.9583 174.002 52.0147C174.037 52.0605 177.868 56.3672 183.057 56.9056C183.091 56.9084 183.125 56.9181 183.155 56.9342C183.186 56.9502 183.213 56.9723 183.235 56.999C183.257 57.0257 183.273 57.0566 183.283 57.0897C183.292 57.1228 183.295 57.1576 183.291 57.1919C183.01 59.2361 183.031 61.3105 183.354 63.3485C183.4 63.5574 183.425 63.7704 183.429 63.9842C183.429 63.9842 183.429 64.1961 182.828 76.5837C182.823 76.6193 182.814 76.6541 182.799 76.6868C182.147 77.9303 181.223 79.0107 180.095 79.8476C178.968 80.6845 177.666 81.2563 176.287 81.5204C175.883 81.597 175.473 81.6353 175.062 81.6349ZM171.585 77.9983C171.634 78.5219 171.801 79.0277 172.073 79.478C172.344 79.9283 172.714 80.3114 173.155 80.5988C173.595 80.8862 174.095 81.0705 174.616 81.1378C175.138 81.2052 175.668 81.1539 176.167 80.9878C177.452 80.7311 178.666 80.1962 179.723 79.4205C180.779 78.6448 181.653 77.6472 182.283 76.4978C182.324 75.6044 182.856 64.0186 182.885 63.9384C182.873 63.7634 182.85 63.5893 182.816 63.4172C182.499 61.4196 182.47 59.3868 182.73 57.3809C178.108 56.8082 174.678 53.4922 173.807 52.5759C173.263 53.2403 171.74 55.1073 171.001 55.7831C170.317 56.369 169.709 57.0386 169.191 57.7761C168.355 59.0647 168.241 60.7713 168.143 62.2775C167.997 64.0987 168.018 65.9295 168.206 67.7469C168.233 68.1513 168.342 68.5461 168.527 68.9066C168.712 69.2672 168.97 69.5859 169.283 69.843C170.076 70.3641 171.027 70.5873 171.969 70.4729C172.008 70.4677 172.048 70.4712 172.086 70.4831C172.123 70.495 172.158 70.515 172.187 70.5417C172.215 70.5701 172.236 70.6043 172.25 70.6418C172.264 70.6793 172.27 70.7194 172.267 70.7593L171.585 77.9983Z" fill="#231F20"/>
<path d="M171.734 74.2986C171.734 74.2986 174.672 74.6824 176.74 72.8898C178.807 71.0972 178.698 69.087 178.698 69.087C178.698 69.087 175.325 70.9426 172.004 70.725L171.734 74.2986Z" fill="#231F20"/>
<path d="M172.45 74.5621C172.199 74.5643 171.949 74.5509 171.7 74.522C171.635 74.5148 171.576 74.4825 171.536 74.4321C171.495 74.3817 171.476 74.3173 171.482 74.2528L171.757 70.6849C171.759 70.652 171.767 70.6198 171.781 70.5901C171.795 70.5603 171.815 70.5338 171.839 70.5119C171.864 70.49 171.892 70.4732 171.924 70.4626C171.955 70.452 171.988 70.4477 172.021 70.4501C175.233 70.662 178.544 68.8637 178.578 68.8408C178.616 68.8203 178.658 68.8097 178.701 68.8101C178.744 68.8105 178.786 68.8219 178.823 68.8431C178.86 68.8643 178.892 68.8947 178.914 68.9314C178.936 68.9681 178.949 69.0098 178.95 69.0527C178.95 69.1386 179.042 71.2003 176.906 73.0616C175.643 74.07 174.065 74.6013 172.45 74.5621ZM172.003 74.0467C172.725 74.0867 174.947 74.0867 176.585 72.6722C177.57 71.8738 178.227 70.7401 178.429 69.4879C176.509 70.4452 174.395 70.9525 172.25 70.9712L172.003 74.0467Z" fill="#231F20"/>
<path d="M175.491 60.5193C175.491 60.5193 172.851 63.8067 173.355 64.4596C173.859 65.1124 175.445 64.849 175.445 64.849" fill="white"/>
<path d="M174.73 65.1582C174.44 65.1833 174.149 65.1451 173.876 65.0462C173.603 64.9472 173.355 64.7901 173.149 64.5855C172.576 63.8525 174.46 61.3669 175.297 60.3361C175.317 60.3094 175.342 60.2871 175.371 60.2705C175.4 60.2539 175.432 60.2435 175.466 60.2397C175.499 60.236 175.532 60.239 175.564 60.2487C175.596 60.2584 175.626 60.2744 175.652 60.296C175.678 60.3166 175.699 60.3422 175.716 60.3712C175.732 60.4002 175.742 60.4322 175.746 60.4652C175.749 60.4982 175.746 60.5316 175.737 60.5635C175.728 60.5954 175.713 60.6251 175.692 60.651C174.38 62.2775 173.367 64.0071 173.556 64.2763C173.888 64.7115 175.027 64.6313 175.405 64.5683C175.468 64.5673 175.528 64.5887 175.575 64.6286C175.623 64.6685 175.655 64.7242 175.664 64.7855C175.674 64.8468 175.661 64.9096 175.629 64.9623C175.596 65.015 175.545 65.0541 175.486 65.0723C175.236 65.1198 174.983 65.1485 174.73 65.1582Z" fill="#231F20"/>
<path d="M171.657 60.0904C171.711 59.6771 171.577 59.3187 171.358 59.2899C171.139 59.2611 170.917 59.5729 170.863 59.9862C170.809 60.3995 170.942 60.758 171.162 60.7867C171.381 60.8155 171.602 60.5038 171.657 60.0904Z" fill="#231F20"/>
<path d="M177.818 59.566C177.871 59.1518 177.736 58.7934 177.516 58.7654C177.297 58.7374 177.076 59.0504 177.023 59.4645C176.97 59.8787 177.105 60.2371 177.325 60.2651C177.545 60.2932 177.765 59.9802 177.818 59.566Z" fill="#231F20"/>
<path d="M173.366 66.5442L175.262 66.2292C175.262 66.2292 175.405 68.9782 174.34 69.0927C173.275 69.2073 173.366 66.5442 173.366 66.5442Z" fill="white"/>
<path d="M174.265 69.3676C174.069 69.3658 173.881 69.2901 173.738 69.1557C173.068 68.583 173.114 66.7217 173.12 66.5155C173.123 66.4574 173.145 66.402 173.184 66.3583C173.222 66.3146 173.275 66.2853 173.332 66.275L175.233 65.96C175.268 65.9543 175.304 65.9559 175.339 65.9648C175.373 65.9737 175.406 65.9896 175.434 66.0116C175.462 66.0341 175.485 66.0628 175.501 66.0955C175.517 66.1283 175.525 66.1642 175.525 66.2006C175.525 66.5041 175.646 69.1843 174.38 69.3562L174.265 69.3676ZM173.624 66.7389C173.624 67.4433 173.738 68.457 174.076 68.7835C174.108 68.8134 174.146 68.8356 174.188 68.8485C174.23 68.8614 174.274 68.8646 174.317 68.8579C174.89 68.7777 175.033 67.3861 175.027 66.5098L173.624 66.7389Z" fill="#231F20"/>
<path d="M181.058 60.0154C181.63 58.7841 183.314 58.4519 184.528 58.807C184.928 58.9083 185.289 59.1254 185.566 59.431C185.843 59.7366 186.024 60.1172 186.086 60.5251C186.143 61.0302 186.102 61.5417 185.966 62.0313C185.739 62.9442 185.351 63.8093 184.82 64.5856C184.578 64.9886 184.237 65.3236 183.83 65.5592C183.569 65.6868 183.276 65.7316 182.989 65.6875C182.702 65.6435 182.436 65.5128 182.226 65.3129" fill="white"/>
<path d="M183.234 65.9715C182.812 65.9555 182.408 65.7959 182.089 65.5191C182.041 65.4731 182.013 65.4111 182.009 65.3451C182.005 65.2792 182.026 65.2142 182.068 65.163C182.109 65.1118 182.169 65.0783 182.234 65.0689C182.3 65.0595 182.366 65.0751 182.421 65.1124C182.593 65.2761 182.811 65.3843 183.046 65.4231C183.281 65.4619 183.522 65.4295 183.738 65.3301C184.105 65.1136 184.413 64.8084 184.631 64.4424C185.14 63.6878 185.509 62.8478 185.72 61.9626C185.85 61.505 185.887 61.0259 185.828 60.5537C185.776 60.1942 185.618 59.8583 185.375 59.589C185.131 59.3197 184.812 59.1291 184.46 59.0418C183.314 58.7096 181.831 59.0418 181.298 60.1127C181.286 60.1482 181.267 60.1808 181.241 60.2082C181.216 60.2356 181.185 60.2573 181.15 60.2717C181.116 60.2862 181.078 60.2931 181.041 60.292C181.004 60.2909 180.967 60.2818 180.933 60.2654C180.899 60.249 180.87 60.2256 180.846 60.1967C180.822 60.1679 180.804 60.1343 180.794 60.0982C180.785 60.062 180.783 60.0242 180.788 59.9872C180.794 59.9502 180.808 59.9149 180.829 59.8837C181.476 58.5435 183.257 58.1655 184.609 58.5378C185.054 58.6563 185.455 58.9038 185.761 59.2492C186.066 59.5945 186.263 60.0225 186.327 60.4793C186.39 61.0188 186.348 61.5656 186.201 62.0886C185.972 63.0325 185.575 63.927 185.027 64.7287C184.758 65.1675 184.384 65.5318 183.938 65.7882C183.721 65.9033 183.48 65.966 183.234 65.9715Z" fill="#231F20"/>
<path d="M195.582 140.612L186.67 127.749L185.72 126.329L184.946 125.218H174.638C174.97 122.429 175.336 119.611 175.72 116.81C175.926 115.293 176.138 113.775 176.35 112.275C176.533 110.992 176.724 109.722 176.923 108.466C177.003 107.928 177.077 107.395 177.158 106.863C179.082 94.0397 181.075 82.7174 182.02 77.5573C182.071 77.2309 182.129 76.9331 182.174 76.6582C182.22 76.3833 182.283 76.0855 182.318 75.8621C182.472 75.0374 182.558 74.5907 182.558 74.5907H182.713C184.352 74.9754 185.969 75.4476 187.558 76.0053C189.963 76.8643 192.414 78.0441 192.844 79.4071C194.35 84.1549 194.115 104.411 194.385 116.484C194.442 119.29 194.533 121.638 194.682 123.282C194.785 124.399 194.946 125.653 195.118 127.72C195.261 130.326 195.456 134.175 195.582 140.612Z" fill="#AEECEF"/>
<path d="M180.623 109.657C178.412 109.274 176.39 108.249 174.323 107.367C173.498 107.017 172.645 106.702 171.791 106.433C170.778 106.124 169.816 105.522 168.728 105.494C168.063 105.494 168.235 106.422 168.481 106.771C168.743 107.08 169.055 107.343 169.403 107.55C170.033 107.979 171.368 108.77 171.597 109.531C170.757 109.673 169.906 109.74 169.054 109.732C168.145 109.835 167.24 109.972 166.339 110.144C165.463 110.316 164.587 110.528 163.728 110.768C162.948 110.908 162.181 111.115 161.437 111.387C161.265 111.473 161.076 111.605 161.065 111.799C161.025 112.481 162.559 112.401 162.943 112.372L170.022 111.656C167.544 111.891 165.09 112.333 162.685 112.979C162.461 113.022 162.259 113.142 162.113 113.317C161.54 114.222 164.043 114.268 164.329 114.279C165.635 114.306 166.941 114.271 168.246 114.176L165.062 114.703C164.352 114.823 163.636 114.943 162.937 115.121C162.546 115.19 162.181 115.366 161.884 115.631C161.864 115.648 161.847 115.669 161.836 115.693C161.824 115.716 161.817 115.742 161.815 115.768C161.815 115.843 161.895 115.888 161.958 115.917C162.557 116.164 163.201 116.279 163.848 116.255C165.174 116.279 166.5 116.191 167.811 115.992L163.882 116.41C163.532 116.406 163.192 116.531 162.926 116.759C162.891 116.873 162.895 116.995 162.938 117.106C162.98 117.217 163.059 117.31 163.161 117.372C163.365 117.492 163.594 117.563 163.831 117.578C165.278 117.667 166.73 117.667 168.178 117.578C169.757 117.582 171.336 117.482 172.903 117.28C176.002 116.906 179.018 116.018 181.825 114.651" fill="white"/>
<path d="M165.377 117.927C164.853 117.933 164.328 117.904 163.808 117.841C163.53 117.824 163.261 117.739 163.023 117.595C162.872 117.499 162.758 117.356 162.698 117.188C162.638 117.02 162.635 116.837 162.691 116.667C162.703 116.639 162.72 116.614 162.743 116.593C162.787 116.541 162.837 116.495 162.892 116.455C162.536 116.409 162.188 116.31 161.861 116.163C161.78 116.135 161.709 116.084 161.657 116.016C161.605 115.947 161.574 115.865 161.569 115.78C161.569 115.719 161.581 115.659 161.604 115.603C161.628 115.547 161.663 115.496 161.706 115.453C162.038 115.156 162.447 114.958 162.886 114.88C163.407 114.743 163.94 114.646 164.466 114.554H164.335C162.903 114.52 162.044 114.285 161.838 113.855C161.786 113.749 161.765 113.631 161.777 113.513C161.789 113.396 161.834 113.284 161.906 113.191C162.09 112.954 162.356 112.795 162.651 112.744L163.023 112.647C162.777 112.647 161.534 112.773 161.053 112.315C160.984 112.25 160.93 112.171 160.895 112.083C160.861 111.994 160.846 111.9 160.853 111.805C160.873 111.662 160.932 111.527 161.024 111.416C161.116 111.305 161.237 111.221 161.374 111.175C161.863 110.961 162.376 110.809 162.903 110.723C163.172 110.671 163.441 110.614 163.693 110.545C164.564 110.299 165.451 110.087 166.333 109.915C167.215 109.743 168.155 109.594 169.065 109.497C169.392 109.463 169.718 109.457 170.039 109.451C170.447 109.457 170.855 109.43 171.259 109.371C170.78 108.818 170.213 108.348 169.581 107.979L169.203 107.722C168.86 107.518 168.558 107.254 168.309 106.943C168.175 106.75 168.089 106.527 168.059 106.294C168.029 106.06 168.056 105.823 168.137 105.603C168.2 105.49 168.293 105.398 168.405 105.336C168.517 105.275 168.645 105.246 168.773 105.253C169.524 105.308 170.258 105.502 170.938 105.826C171.27 105.963 171.585 106.089 171.906 106.193C172.775 106.462 173.629 106.776 174.466 107.132L175.611 107.63C177.23 108.419 178.937 109.011 180.697 109.394C180.73 109.4 180.762 109.412 180.791 109.43C180.82 109.448 180.845 109.471 180.865 109.499C180.884 109.526 180.898 109.558 180.906 109.591C180.914 109.624 180.915 109.658 180.909 109.692C180.895 109.76 180.856 109.82 180.8 109.86C180.743 109.9 180.674 109.918 180.605 109.909C178.804 109.524 177.058 108.918 175.405 108.105L174.26 107.619C173.44 107.266 172.603 106.957 171.751 106.691C171.408 106.582 171.064 106.445 170.738 106.307C170.119 105.998 169.45 105.804 168.762 105.734C168.636 105.734 168.619 105.78 168.601 105.809C168.567 105.943 168.562 106.082 168.584 106.218C168.607 106.354 168.658 106.484 168.733 106.599C168.949 106.855 169.207 107.074 169.495 107.246L169.873 107.504C170.629 108.002 171.66 108.69 171.883 109.434C171.909 109.498 171.909 109.57 171.883 109.635C171.866 109.666 171.844 109.693 171.816 109.714C171.788 109.736 171.757 109.752 171.723 109.76C171.181 109.893 170.625 109.953 170.067 109.938C169.741 109.938 169.438 109.938 169.14 109.978C168.241 110.075 167.336 110.213 166.448 110.385C165.56 110.557 164.73 110.763 163.854 111.003C163.59 111.083 163.31 111.141 163.029 111.198C162.545 111.276 162.072 111.413 161.62 111.605C161.454 111.685 161.397 111.759 161.391 111.799C161.39 111.818 161.394 111.837 161.402 111.854C161.41 111.871 161.422 111.885 161.437 111.897C161.922 112.118 162.464 112.184 162.989 112.086L170.045 111.376C170.113 111.369 170.181 111.389 170.234 111.432C170.288 111.475 170.322 111.537 170.331 111.605C170.337 111.674 170.317 111.744 170.273 111.798C170.229 111.853 170.166 111.888 170.096 111.897C167.635 112.138 165.198 112.586 162.811 113.237C162.642 113.264 162.485 113.344 162.365 113.466C162.336 113.512 162.307 113.569 162.325 113.598C162.422 113.781 163.098 113.993 164.358 114.021C165.618 114.05 166.969 114.021 168.258 113.924C168.291 113.92 168.325 113.923 168.358 113.932C168.39 113.942 168.42 113.958 168.447 113.979C168.473 114 168.494 114.027 168.51 114.057C168.526 114.087 168.536 114.119 168.538 114.153C168.547 114.22 168.528 114.287 168.488 114.341C168.447 114.394 168.387 114.43 168.321 114.439L165.142 114.966C164.438 115.087 163.722 115.201 163.035 115.379C162.737 115.439 162.455 115.558 162.204 115.728C162.744 115.921 163.315 116.013 163.888 115.997C164.507 115.997 165.125 115.997 165.744 115.957L167.817 115.74C167.884 115.731 167.952 115.75 168.006 115.792C168.06 115.834 168.095 115.895 168.103 115.963C168.111 116.03 168.093 116.098 168.053 116.153C168.012 116.207 167.952 116.244 167.885 116.255C167.192 116.364 166.488 116.438 165.789 116.478L163.945 116.679C163.677 116.679 163.415 116.756 163.189 116.902C163.192 116.955 163.208 117.007 163.235 117.053C163.261 117.099 163.299 117.137 163.344 117.166C163.52 117.263 163.716 117.316 163.917 117.32C164.868 117.415 165.826 117.432 166.78 117.372C167.261 117.372 167.748 117.337 168.229 117.337H168.338C169.87 117.341 171.401 117.241 172.92 117.04C175.976 116.654 178.947 115.762 181.711 114.399C181.741 114.383 181.774 114.373 181.808 114.37C181.843 114.366 181.877 114.37 181.91 114.381C181.943 114.392 181.973 114.409 181.999 114.432C182.025 114.455 182.045 114.483 182.06 114.514C182.09 114.576 182.095 114.647 182.074 114.712C182.052 114.777 182.006 114.831 181.945 114.863C179.119 116.257 176.08 117.169 172.954 117.561C171.374 117.771 169.782 117.87 168.189 117.859C167.691 117.859 167.233 117.859 166.757 117.893C166.282 117.927 165.847 117.927 165.377 117.927Z" fill="#231F20"/>
<path d="M192.776 79.4301C192.776 79.4301 211.257 113.054 204.63 115.316C201.916 116.243 177.627 117.67 177.627 117.67L175.05 107.206L193.262 104.389L192.776 79.4301Z" fill="#AEECEF"/>
<path d="M170.789 63.7608C170.663 63.7608 170.532 63.7608 170.406 63.7608C169.704 63.7001 169.029 63.4673 168.439 63.0831C167.85 62.6989 167.364 62.1752 167.025 61.5583C166.686 60.9414 166.505 60.2504 166.497 59.5466C166.489 58.8429 166.655 58.148 166.98 57.5237C167.305 56.8994 167.779 56.3648 168.36 55.9675C168.94 55.5702 169.61 55.3223 170.31 55.2459C171.01 55.1695 171.717 55.2668 172.37 55.5294C173.023 55.7919 173.602 56.2115 174.054 56.7509C174.576 57.374 174.91 58.133 175.017 58.939C175.123 59.7451 174.998 60.5649 174.656 61.3023C174.313 62.0397 173.767 62.6643 173.083 63.1027C172.398 63.5412 171.602 63.7754 170.789 63.778V63.7608ZM170.789 55.743C170.061 55.7435 169.349 55.9558 168.74 56.354C168.131 56.7521 167.65 57.319 167.358 57.9854C167.065 58.6518 166.972 59.389 167.091 60.1071C167.21 60.8252 167.535 61.4932 168.027 62.0297C168.519 62.5661 169.157 62.9478 169.862 63.1283C170.567 63.3087 171.31 63.2801 171.999 63.046C172.688 62.8118 173.294 62.3822 173.743 61.8095C174.193 61.2368 174.466 60.5458 174.529 59.8206C174.615 58.8305 174.304 57.8467 173.665 57.0854C173.026 56.3241 172.111 55.8475 171.121 55.7602L170.789 55.743Z" fill="#231F20"/>
<path d="M179.111 63.8009H178.727C177.884 63.7275 177.082 63.4056 176.422 62.8762C175.762 62.3467 175.273 61.6334 175.019 60.8264C174.764 60.0194 174.754 59.155 174.991 58.3426C175.228 57.5301 175.7 56.8061 176.348 56.2621C176.996 55.7181 177.791 55.3785 178.632 55.2863C179.474 55.1941 180.323 55.3535 181.074 55.7442C181.824 56.135 182.442 56.7395 182.849 57.4814C183.256 58.2233 183.434 59.0693 183.36 59.9123C183.269 60.9767 182.781 61.9682 181.995 62.6913C181.208 63.4143 180.179 63.8163 179.111 63.8181V63.8009ZM179.111 55.7831C178.508 55.7842 177.915 55.9306 177.38 56.2097C176.846 56.4888 176.387 56.8926 176.042 57.3867C175.697 57.8808 175.476 58.4507 175.398 59.0483C175.32 59.6459 175.387 60.2535 175.594 60.8196C175.8 61.3858 176.14 61.8939 176.585 62.3009C177.029 62.7079 177.565 63.0018 178.147 63.1577C178.729 63.3137 179.341 63.3271 179.929 63.1968C180.517 63.0665 181.066 62.7964 181.528 62.4093C181.906 62.0936 182.218 61.7057 182.445 61.2681C182.673 60.8305 182.81 60.3521 182.85 59.8607C182.896 59.3703 182.843 58.8757 182.696 58.4057C182.548 57.9358 182.309 57.4998 181.991 57.1232C181.673 56.7408 181.281 56.4255 180.84 56.1955C180.399 55.9654 179.916 55.8253 179.42 55.7831H179.111Z" fill="#231F20"/>
<path d="M175.05 107.441C174.988 107.439 174.929 107.416 174.882 107.375C174.835 107.335 174.803 107.279 174.793 107.218C174.787 107.184 174.788 107.149 174.796 107.116C174.804 107.082 174.818 107.051 174.839 107.023C174.859 106.995 174.885 106.972 174.914 106.954C174.944 106.936 174.976 106.925 175.01 106.92L192.942 104.148L188.623 85.5064C188.611 85.4716 188.606 85.4344 188.609 85.3975C188.612 85.3606 188.623 85.3247 188.64 85.2922C188.658 85.2596 188.682 85.2312 188.712 85.2088C188.741 85.1863 188.775 85.1703 188.811 85.1618C188.847 85.1533 188.885 85.1524 188.921 85.1594C188.957 85.1663 188.992 85.1809 189.022 85.202C189.053 85.2232 189.078 85.2506 189.097 85.2823C189.116 85.314 189.129 85.3494 189.133 85.3862L193.52 104.285C193.533 104.357 193.518 104.43 193.48 104.492C193.459 104.521 193.433 104.546 193.402 104.564C193.372 104.583 193.338 104.595 193.302 104.6L175.09 107.418L175.05 107.441Z" fill="#231F20"/>
<path d="M156.981 112.361H156.953C156.884 112.352 156.821 112.316 156.778 112.262C156.735 112.207 156.715 112.138 156.723 112.068C156.758 111.794 160.074 84.3438 160.108 83.943H160.366L160.423 83.6795C160.664 83.731 160.664 83.7311 160.108 88.3642L157.245 112.109C157.244 112.142 157.236 112.176 157.223 112.207C157.209 112.238 157.19 112.266 157.165 112.289C157.141 112.313 157.112 112.331 157.08 112.343C157.049 112.355 157.015 112.361 156.981 112.361Z" fill="#231F20"/>
<path d="M152.887 101.508C152.838 101.508 152.79 101.495 152.749 101.469C152.708 101.444 152.674 101.408 152.652 101.365L141.77 79.5503C141.74 79.4878 141.735 79.4159 141.756 79.3497C141.778 79.2835 141.824 79.2282 141.885 79.1953C141.948 79.1652 142.021 79.161 142.087 79.1834C142.153 79.2059 142.208 79.2533 142.24 79.3155L153.121 101.13C153.152 101.192 153.157 101.264 153.136 101.33C153.114 101.397 153.068 101.452 153.007 101.485C152.969 101.501 152.928 101.509 152.887 101.508Z" fill="#231F20"/>
<path d="M190.702 58.0109C190.644 58.01 190.587 57.9899 190.542 57.9536C190.496 57.9174 190.464 57.867 190.45 57.8104C190.432 57.7444 190.442 57.6741 190.476 57.615C190.511 57.5559 190.567 57.5129 190.633 57.4955C190.633 57.4955 191.555 57.2263 193.21 55.5941C193.26 55.5461 193.327 55.5193 193.397 55.5193C193.466 55.5193 193.533 55.5461 193.583 55.5941C193.607 55.618 193.626 55.6466 193.639 55.678C193.652 55.7095 193.659 55.7432 193.659 55.7773C193.659 55.8114 193.652 55.8452 193.639 55.8766C193.626 55.9081 193.607 55.9366 193.583 55.9606C191.796 57.7188 190.811 57.9823 190.771 57.9937L190.702 58.0109Z" fill="#231F20"/>
<path d="M126.766 121.363L129.595 113.683L122.906 119.892C120.002 119.064 116.996 118.649 113.977 118.66C102.752 118.66 93.6519 124.067 93.6519 130.739C93.6519 137.411 102.752 142.823 113.977 142.823C125.202 142.823 134.308 137.416 134.308 130.739C134.308 126.964 131.364 123.58 126.766 121.363Z" fill="white"/>
<path d="M113.977 143.126C102.609 143.126 93.3594 137.577 93.3594 130.756C93.3594 123.935 102.603 118.391 113.977 118.391C116.959 118.376 119.929 118.773 122.802 119.571L129.371 113.472C129.418 113.427 129.479 113.401 129.544 113.395C129.608 113.39 129.672 113.407 129.726 113.443C129.78 113.479 129.819 113.532 129.839 113.593C129.859 113.654 129.857 113.72 129.835 113.781L127.12 121.226C131.874 123.586 134.565 127.05 134.565 130.762C134.594 137.56 125.345 143.126 113.977 143.126ZM113.977 118.964C102.929 118.964 93.9321 124.256 93.9321 130.756C93.9321 137.256 102.924 142.554 113.977 142.554C125.03 142.554 134.021 137.262 134.021 130.756C134.021 127.211 131.33 123.883 126.639 121.593C126.576 121.561 126.526 121.508 126.5 121.442C126.473 121.377 126.472 121.304 126.496 121.237L128.89 114.674L123.071 120.075C123.035 120.108 122.99 120.132 122.942 120.143C122.894 120.154 122.844 120.152 122.796 120.138C119.927 119.333 116.957 118.937 113.977 118.964Z" fill="#D1D3D4"/>
<path d="M100.96 48.8362L98.5484 55.4566L104.31 50.1076C106.803 50.8137 109.382 51.1665 111.973 51.1556C121.64 51.1556 129.48 46.4995 129.48 40.7725C129.48 35.0454 121.64 30.3665 111.967 30.3665C102.294 30.3665 94.4536 34.9996 94.4536 40.7725C94.4536 44.014 96.9907 46.9291 100.96 48.8362Z" fill="white"/>
<path d="M98.5425 55.743C98.4858 55.7427 98.4303 55.7268 98.3821 55.6972C98.3286 55.6613 98.2888 55.6084 98.269 55.5471C98.2493 55.4858 98.2508 55.4196 98.2733 55.3593L100.598 48.9793C96.5094 46.9462 94.167 43.9567 94.167 40.7438C94.167 34.8507 102.15 30.0515 111.967 30.0515C121.783 30.0515 129.766 34.8507 129.766 40.7725C129.766 46.6942 121.783 51.4706 111.967 51.4706C109.407 51.4701 106.86 51.1194 104.395 50.4283L98.7372 55.6628C98.6848 55.7133 98.6152 55.742 98.5425 55.743ZM111.967 30.6242C102.471 30.6242 94.7397 35.1657 94.7397 40.7438C94.7397 43.7849 97.0305 46.6427 101.08 48.5784C101.143 48.6095 101.193 48.663 101.219 48.7285C101.246 48.7941 101.247 48.8671 101.223 48.9335L99.2412 54.4372L104.132 49.8957C104.169 49.8623 104.213 49.839 104.261 49.828C104.309 49.8169 104.36 49.8186 104.407 49.8327C106.873 50.5331 109.426 50.8821 111.99 50.8693C121.491 50.8693 129.217 46.3277 129.217 40.7438C129.217 35.16 121.468 30.6242 111.967 30.6242Z" fill="#D1D3D4"/>
<path d="M127.458 126.615H100.495C100.419 126.615 100.347 126.585 100.293 126.531C100.239 126.478 100.209 126.405 100.209 126.329C100.209 126.253 100.239 126.18 100.293 126.126C100.347 126.073 100.419 126.042 100.495 126.042H127.458C127.534 126.042 127.607 126.073 127.661 126.126C127.714 126.18 127.745 126.253 127.745 126.329C127.745 126.405 127.714 126.478 127.661 126.531C127.607 126.585 127.534 126.615 127.458 126.615Z" fill="#D1D3D4"/>
<path d="M127.458 131.26H100.495C100.42 131.258 100.348 131.228 100.294 131.174C100.241 131.121 100.21 131.049 100.209 130.973C100.209 130.898 100.239 130.825 100.293 130.771C100.347 130.717 100.419 130.687 100.495 130.687H127.458C127.534 130.687 127.607 130.717 127.661 130.771C127.714 130.825 127.745 130.898 127.745 130.973C127.745 131.049 127.714 131.122 127.661 131.176C127.607 131.23 127.534 131.26 127.458 131.26Z" fill="#D1D3D4"/>
<path d="M119.286 135.841H100.495C100.42 135.84 100.348 135.809 100.294 135.756C100.241 135.703 100.21 135.631 100.209 135.555C100.209 135.479 100.239 135.406 100.293 135.353C100.347 135.299 100.419 135.269 100.495 135.269H119.286C119.362 135.269 119.435 135.299 119.488 135.353C119.542 135.406 119.572 135.479 119.572 135.555C119.572 135.631 119.542 135.704 119.488 135.758C119.435 135.811 119.362 135.841 119.286 135.841Z" fill="#D1D3D4"/>
<path d="M125.122 38.1037H101.893C101.817 38.1037 101.744 38.0735 101.69 38.0198C101.637 37.9661 101.606 37.8933 101.606 37.8174C101.606 37.7414 101.637 37.6686 101.69 37.6149C101.744 37.5612 101.817 37.531 101.893 37.531H125.122C125.198 37.531 125.27 37.5612 125.324 37.6149C125.378 37.6686 125.408 37.7414 125.408 37.8174C125.407 37.8928 125.376 37.9648 125.323 38.0182C125.269 38.0716 125.197 38.1022 125.122 38.1037Z" fill="#D1D3D4"/>
<path d="M118.02 43.1836H101.893C101.817 43.1836 101.744 43.1534 101.69 43.0997C101.637 43.046 101.606 42.9732 101.606 42.8973C101.606 42.8213 101.637 42.7485 101.69 42.6948C101.744 42.6411 101.817 42.6109 101.893 42.6109H118.02C118.096 42.6109 118.169 42.6411 118.223 42.6948C118.276 42.7485 118.306 42.8213 118.306 42.8973C118.306 42.9732 118.276 43.046 118.223 43.0997C118.169 43.1534 118.096 43.1836 118.02 43.1836Z" fill="#D1D3D4"/>
</svg>
