<svg width="25" height="23" viewBox="0 0 25 23" fill="none" xmlns="http://www.w3.org/2000/svg">
<path d="M1.39697 11.1569H2.64607M2.64607 11.1569H22.6317M2.64607 11.1569V13.6551C2.64607 15.0766 3.3743 17.7122 6.07486 18.4529M22.6317 11.1569C22.963 11.1569 23.2807 11.0253 23.5149 10.791C23.7492 10.5568 23.8808 10.2391 23.8808 9.90777V4.91137C23.8808 3.66227 23.1313 1.16406 20.1335 1.16406C17.1357 1.16406 16.3862 3.66227 16.3862 4.91137M22.6317 11.1569V13.6551C22.6317 15.0766 21.9035 17.7122 19.2029 18.4529M16.3862 4.91137H13.888M16.3862 4.91137H18.8844M19.2029 18.4529C18.6917 18.5893 18.1644 18.6561 17.6353 18.6515H7.64248C7.0579 18.6515 6.53702 18.5803 6.07486 18.4529M19.2029 18.4529L20.1335 21.1497M6.07486 18.4529L5.14428 21.1497" stroke="white" stroke-width="2" stroke-linecap="round" stroke-linejoin="round"/>
<path d="M22.6317 13.6554V11.1572H2.64612V13.6554C2.64612 15.0769 3.37434 17.7125 6.0749 18.4532C6.53707 18.5806 7.05794 18.6518 7.64252 18.6518H17.6353C18.1644 18.6564 18.6917 18.5896 19.203 18.4532C21.9035 17.7125 22.6317 15.0769 22.6317 13.6554Z" fill="white"/>
</svg>
