<svg width="223" height="168" viewBox="0 0 223 168" fill="none" xmlns="http://www.w3.org/2000/svg">
<path d="M106.053 154.908C139.346 154.908 166.335 151.389 166.335 147.048C166.335 142.707 139.346 139.188 106.053 139.188C72.7599 139.188 45.7705 142.707 45.7705 147.048C45.7705 151.389 72.7599 154.908 106.053 154.908Z" fill="#D1D3D4"/>
<path d="M101.76 64.8878C101.76 64.8878 96.0069 65.5747 93.894 65.7132C91.781 65.8517 89.6012 67.375 89.2444 67.6741C88.8876 67.9733 87.204 70.333 87.767 72.1499C88.3301 73.9669 90.6549 75.7173 91.6417 75.8558C92.6284 75.9943 100.523 72.0392 102.284 70.6377L101.76 64.8878Z" fill="white"/>
<path d="M91.6751 76.1328H91.6026C90.4598 75.9721 88.0681 74.0777 87.4939 72.2552C86.8695 70.2389 88.7204 67.7517 89.066 67.4692C89.066 67.4692 91.4688 65.6079 93.8772 65.4528C95.9567 65.3143 101.682 64.633 101.727 64.6275C101.765 64.6229 101.803 64.6258 101.84 64.6363C101.876 64.6467 101.91 64.6643 101.94 64.688C101.97 64.7118 101.994 64.7412 102.012 64.7746C102.03 64.808 102.041 64.8446 102.045 64.8823L102.569 70.6377C102.574 70.6848 102.567 70.7324 102.548 70.7761C102.53 70.8197 102.5 70.8579 102.463 70.887C100.829 72.1555 93.1023 76.1328 91.6751 76.1328ZM101.498 65.1925C100.294 65.3365 95.7337 65.8683 93.9107 65.9902C92.0877 66.112 90.0082 67.4304 89.4507 67.8846C89.1887 68.0896 87.5385 70.3496 88.0681 72.0558C88.5977 73.7619 90.7998 75.4348 91.703 75.5622C92.6061 75.6896 100.015 71.9893 102.006 70.4992L101.498 65.1925Z" fill="#231F20"/>
<path d="M88.5978 72.5432C88.5978 72.5432 92.4501 75.8669 93.7156 75.9001C94.9811 75.9333 94.2731 74.6371 94.2731 74.6371C94.2731 74.6371 95.4885 75.5843 95.7003 74.7978C95.9122 74.0112 95.6446 73.6899 95.6446 73.6899C95.6446 73.6899 96.6481 75.0526 96.9157 74.0555C97.1833 73.0584 97.0216 72.7426 97.0216 72.7426C97.0216 72.7426 97.8132 74.3214 98.1812 73.219C98.5491 72.1167 96.386 68.2336 94.2229 66.3945C94.2229 66.3945 96.754 66.6604 96.9658 65.7686C97.1777 64.8767 94.9087 64.5056 93.9553 64.4557C93.002 64.4059 91.1678 65.6079 89.5232 65.7686C88.1111 65.8274 86.6965 65.7569 85.2974 65.5581L85.5092 71.6514L88.5978 72.5432Z" fill="white"/>
<path d="M93.788 76.1881H93.7044C92.4166 76.1383 89.0325 73.2966 88.4583 72.8036L85.4032 71.9284C85.3437 71.9128 85.2909 71.8785 85.2527 71.8305C85.2145 71.7826 85.1929 71.7236 85.1914 71.6625L84.9795 65.5692C84.9792 65.5269 84.9874 65.4851 85.0037 65.4461C85.02 65.407 85.044 65.3717 85.0743 65.342C85.1067 65.3157 85.1442 65.2961 85.1844 65.2847C85.2247 65.2733 85.2669 65.2702 85.3084 65.2756C86.6856 65.4693 88.0777 65.5379 89.4674 65.4805C90.323 65.3449 91.1559 65.0932 91.9427 64.7327C92.5683 64.4233 93.2476 64.2353 93.9441 64.1788C93.972 64.1788 96.425 64.3283 97.0717 65.1869C97.1446 65.2787 97.1956 65.3857 97.2207 65.4999C97.2458 65.6141 97.2444 65.7325 97.2166 65.8461C97.0382 66.605 95.8173 66.7324 94.9866 66.7324C96.9825 68.7432 98.8334 72.1666 98.4487 73.3187C98.3261 73.6899 98.1253 73.8727 97.8633 73.9059C97.7578 73.9037 97.6538 73.88 97.5579 73.8361C97.462 73.7923 97.3762 73.7293 97.3058 73.6511C97.3058 73.7951 97.2445 73.9558 97.1999 74.1386C97.0884 74.554 96.8598 74.6925 96.687 74.6925C96.5743 74.7043 96.4603 74.6932 96.352 74.6599C96.2437 74.6266 96.1433 74.5717 96.057 74.4986C96.0393 74.6199 96.0151 74.74 95.9846 74.8587C95.9618 74.9709 95.9096 75.075 95.8332 75.1606C95.7569 75.2463 95.659 75.3103 95.5497 75.3462C95.2891 75.4103 95.0139 75.3788 94.7748 75.2575C94.8029 75.4494 94.7635 75.6451 94.6633 75.8115C94.5673 75.9492 94.4345 76.0574 94.2798 76.124C94.1251 76.1905 93.9547 76.2128 93.788 76.1881ZM85.76 71.4298L88.6757 72.2663C88.7156 72.2776 88.7519 72.2985 88.7817 72.3272C90.3036 73.6289 92.8737 75.5788 93.7267 75.6121C93.9441 75.6121 94.0946 75.5844 94.1392 75.5068C94.1838 75.4292 94.0946 74.9529 93.9943 74.7811C93.9636 74.7234 93.9536 74.657 93.966 74.5928C93.9783 74.5287 94.0122 74.4706 94.0621 74.4281C94.112 74.3856 94.1749 74.3612 94.2406 74.3589C94.3063 74.3566 94.3708 74.3766 94.4236 74.4155C94.6767 74.641 94.9944 74.7824 95.3323 74.8199C95.3323 74.8199 95.3713 74.8199 95.3936 74.7257C95.5029 74.4518 95.5029 74.1467 95.3936 73.8727C95.3489 73.813 95.3297 73.7383 95.3402 73.6647C95.3506 73.591 95.3898 73.5245 95.4494 73.4794C95.5085 73.4351 95.5825 73.4151 95.6561 73.4233C95.7297 73.4315 95.7974 73.4675 95.8452 73.5237C96.0167 73.7845 96.2554 73.9949 96.5365 74.133C96.5616 74.0833 96.5821 74.0314 96.5978 73.9779C96.7279 73.6238 96.7681 73.2433 96.7149 72.8701C96.698 72.8367 96.6881 72.8004 96.6857 72.7631C96.6833 72.7259 96.6885 72.6886 96.701 72.6534C96.7135 72.6182 96.7331 72.5859 96.7584 72.5584C96.7838 72.5309 96.8145 72.5088 96.8487 72.4934C96.9183 72.4606 96.9981 72.4561 97.071 72.481C97.1439 72.5058 97.2042 72.558 97.2389 72.6263C97.3611 72.9044 97.5531 73.1466 97.7964 73.3298C97.8285 73.2671 97.8565 73.2023 97.8801 73.1359C98.1755 72.2663 96.2076 68.505 94.0054 66.6272C93.9585 66.5873 93.9256 66.5335 93.9115 66.4737C93.8975 66.4139 93.903 66.3512 93.9274 66.2948C93.9519 66.2387 93.9938 66.1919 94.0469 66.161C94.1 66.1301 94.1616 66.1169 94.2229 66.1231C95.1818 66.2228 96.5588 66.1231 96.6591 65.7132C96.6665 65.6814 96.6663 65.6483 96.6585 65.6166C96.6508 65.5848 96.6357 65.5553 96.6145 65.5304C96.2745 65.0817 94.8027 64.7992 93.9107 64.7549C93.3005 64.8233 92.7077 64.9996 92.1601 65.2756C91.3219 65.6574 90.4344 65.9221 89.5231 66.0622C88.2032 66.1304 86.8798 66.0747 85.5705 65.896L85.76 71.4298Z" fill="#231F20"/>
<path d="M97.8411 65.4418C97.0322 65.4085 96.2219 65.4307 95.416 65.5082C93.9553 65.6467 92.3832 66.0622 91.4856 67.2033C91.4272 67.262 91.3844 67.3343 91.361 67.4136C91.3377 67.4929 91.3345 67.5767 91.3518 67.6575C91.4187 67.8181 91.6194 67.868 91.7867 67.8957C92.9956 68.0821 94.2251 68.097 95.4383 67.94C95.6029 67.8983 95.7754 67.8983 95.9401 67.94C96.0665 67.9967 96.1817 68.0755 96.2801 68.1727C96.761 68.5689 97.3568 68.8018 97.9805 68.8374" fill="white"/>
<path d="M97.9805 69.1088C97.2927 69.0739 96.6351 68.8172 96.1073 68.3776L96.0571 68.3388C95.9962 68.2806 95.9266 68.232 95.8508 68.1948C95.7335 68.1672 95.6114 68.1672 95.494 68.1948C94.2514 68.3574 92.9917 68.3424 91.7532 68.1505C91.6183 68.1431 91.4876 68.1016 91.3734 68.0299C91.2592 67.9581 91.1654 67.8585 91.101 67.7406C91.0576 67.6135 91.0503 67.477 91.0798 67.3461C91.1093 67.2152 91.1745 67.0949 91.2682 66.9983C92.0599 65.9735 93.4146 65.3863 95.3993 65.198C96.2182 65.1205 97.0415 65.0983 97.8634 65.1315C97.9008 65.1329 97.9375 65.1417 97.9714 65.1572C98.0054 65.1727 98.0359 65.1948 98.0613 65.222C98.0866 65.2493 98.1064 65.2813 98.1193 65.3161C98.1322 65.351 98.1381 65.388 98.1366 65.4251C98.1297 65.5001 98.0952 65.5698 98.0396 65.621C97.984 65.6721 97.9113 65.701 97.8356 65.7021C97.0416 65.6698 96.2463 65.6902 95.455 65.763C93.6376 65.9403 92.4167 66.4554 91.7254 67.3473C91.6306 67.4747 91.6306 67.5245 91.6306 67.5245C91.6306 67.5245 91.664 67.5578 91.8424 67.5855C93.0236 67.7691 94.225 67.784 95.4104 67.6298C95.6206 67.5748 95.8414 67.5748 96.0515 67.6298C96.1926 67.6884 96.3212 67.773 96.4307 67.8791C96.8728 68.2555 97.4271 68.4773 98.0084 68.5105C98.0848 68.5162 98.156 68.5512 98.2069 68.608C98.2579 68.6649 98.2847 68.7391 98.2815 68.8152C98.2823 68.8544 98.275 68.8934 98.2601 68.9298C98.2452 68.9661 98.223 68.999 98.1948 69.0265C98.1666 69.054 98.133 69.0755 98.0962 69.0896C98.0593 69.1038 98.02 69.1103 97.9805 69.1088Z" fill="#231F20"/>
<path d="M150.408 140.406C150.408 140.406 150.86 143.32 150.185 144.439C149.511 145.558 148.903 146.981 148.607 149.596C149.147 150.196 149.807 150.678 150.544 151.012C151.281 151.345 152.079 151.524 152.889 151.535C155.598 151.535 158.302 149.518 158.603 148.549C158.904 147.58 156.424 137.271 156.424 137.271L150.408 140.406Z" fill="white"/>
<path d="M152.889 151.823C152.035 151.812 151.192 151.624 150.416 151.271C149.639 150.918 148.945 150.408 148.378 149.773C148.334 149.712 148.312 149.638 148.317 149.563C148.64 146.743 149.321 145.314 149.934 144.295C150.447 143.447 150.246 141.232 150.123 140.45C150.115 140.391 150.125 140.331 150.152 140.278C150.179 140.224 150.221 140.18 150.274 140.151L156.289 137.016C156.328 136.997 156.371 136.987 156.415 136.987C156.458 136.987 156.501 136.997 156.54 137.016C156.581 137.033 156.617 137.059 156.645 137.093C156.673 137.127 156.693 137.167 156.702 137.21C157.12 138.944 159.188 147.641 158.876 148.638C158.564 149.635 155.726 151.823 152.889 151.823ZM148.902 149.502C149.417 150.042 150.034 150.474 150.719 150.775C151.403 151.075 152.141 151.238 152.889 151.252C155.487 151.252 158.079 149.269 158.33 148.483C158.503 147.929 157.393 142.578 156.228 137.708L150.72 140.583C150.815 141.281 151.049 143.575 150.43 144.605C149.811 145.635 149.22 146.871 148.902 149.502Z" fill="#231F20"/>
<path d="M131.704 76.9526L144.738 80.5366L147.771 41.207C147.771 41.207 135.868 43.1513 133.276 44.3423C130.684 45.5332 131.704 76.9526 131.704 76.9526Z" fill="white"/>
<path d="M144.738 80.8246H144.66L131.631 77.2406C131.572 77.2243 131.52 77.1897 131.482 77.1419C131.444 77.0942 131.422 77.0356 131.419 76.9747C131.419 76.8972 131.157 69.0202 131.219 61.0989C131.347 44.9073 132.646 44.309 133.137 44.0874C135.751 42.8854 147.236 41.0076 147.721 40.9245C147.764 40.9166 147.809 40.9187 147.851 40.9308C147.893 40.9429 147.932 40.9645 147.964 40.9941C147.997 41.0236 148.022 41.0602 148.038 41.101C148.053 41.1418 148.059 41.1856 148.055 41.2291L145.022 80.5587C145.02 80.6016 145.008 80.6434 144.986 80.6808C144.965 80.7183 144.935 80.7504 144.9 80.7748C144.852 80.8076 144.796 80.8251 144.738 80.8246ZM131.988 76.731L144.476 80.171L147.453 41.5393C145.446 41.8772 135.668 43.5446 133.382 44.5915C131.81 45.3172 131.486 61.6473 131.988 76.731Z" fill="#231F20"/>
<path d="M136.03 136.274V145.037L131.821 146.234L131.921 144.439L130.037 146.317C130.037 146.317 118.725 148.333 118.781 146.837C118.837 145.342 119.985 144.522 121.412 143.774C122.945 142.976 126.987 140.711 126.987 140.711L127.589 134.291" fill="white"/>
<path d="M120.883 147.685C119.829 147.685 119.02 147.58 118.708 147.308C118.638 147.253 118.582 147.182 118.545 147.101C118.508 147.02 118.492 146.932 118.496 146.843C118.563 145.181 119.873 144.273 121.284 143.519C122.694 142.766 126.006 140.927 126.708 140.534L127.299 134.257C127.296 134.216 127.301 134.175 127.315 134.136C127.33 134.097 127.352 134.062 127.382 134.033C127.411 134.004 127.447 133.981 127.486 133.967C127.525 133.953 127.567 133.948 127.608 133.951C127.649 133.955 127.69 133.968 127.726 133.989C127.761 134.009 127.792 134.038 127.816 134.072C127.84 134.106 127.856 134.144 127.863 134.185C127.87 134.226 127.868 134.267 127.857 134.307L127.266 140.777C127.261 140.823 127.245 140.867 127.22 140.905C127.195 140.944 127.161 140.976 127.121 140.999C127.076 140.999 123.068 143.276 121.546 144.068C120.024 144.86 119.121 145.597 119.071 146.887C119.377 147.441 124.322 147.076 129.897 146.09L131.737 144.262C131.777 144.219 131.829 144.19 131.886 144.179C131.943 144.168 132.002 144.176 132.055 144.201C132.108 144.224 132.154 144.263 132.184 144.312C132.215 144.362 132.23 144.419 132.228 144.478L132.15 145.868L135.762 144.843V136.274C135.75 136.231 135.748 136.186 135.756 136.142C135.764 136.098 135.782 136.057 135.81 136.021C135.837 135.986 135.872 135.957 135.912 135.937C135.952 135.917 135.996 135.907 136.041 135.907C136.086 135.907 136.13 135.917 136.17 135.937C136.21 135.957 136.245 135.986 136.272 136.021C136.299 136.057 136.318 136.098 136.326 136.142C136.334 136.186 136.332 136.231 136.32 136.274V145.037C136.319 145.099 136.299 145.159 136.262 145.209C136.225 145.259 136.173 145.295 136.113 145.314L131.899 146.505C131.855 146.518 131.809 146.52 131.764 146.511C131.72 146.502 131.678 146.483 131.642 146.455C131.606 146.427 131.578 146.391 131.559 146.349C131.541 146.308 131.533 146.262 131.536 146.217L131.592 145.17L130.221 146.533C130.181 146.576 130.128 146.605 130.07 146.616C128.838 146.837 123.871 147.685 120.883 147.685Z" fill="#231F20"/>
<path d="M156.267 80.4867L159.808 139.808C159.808 139.808 159.473 142.24 154.16 142.539C148.847 142.838 149.382 141.603 149.382 141.603L141.02 100.013L137.608 138.755L126.14 139.459L128.42 75.756L156.267 80.4867Z" fill="#231F20"/>
<path d="M152.649 142.86C150.737 142.86 149.583 142.6 149.215 142.074C149.116 141.934 149.074 141.761 149.098 141.592L141.137 101.957L137.898 138.778C137.893 138.844 137.863 138.907 137.815 138.954C137.767 139.001 137.703 139.029 137.636 139.032L126.168 139.736C126.09 139.739 126.014 139.711 125.956 139.658C125.902 139.602 125.872 139.526 125.873 139.448L128.153 75.745C128.155 75.7061 128.165 75.668 128.183 75.6336C128.202 75.5991 128.227 75.5691 128.259 75.5456C128.288 75.5199 128.323 75.5012 128.36 75.4906C128.398 75.4801 128.438 75.478 128.476 75.4846L156.312 80.2319C156.374 80.2419 156.43 80.2727 156.472 80.3191C156.513 80.3655 156.538 80.4246 156.541 80.4867L160.086 139.808C160.086 139.969 159.651 142.522 154.177 142.832C153.619 142.843 153.112 142.86 152.649 142.86ZM149.639 141.702C149.655 141.732 149.673 141.759 149.695 141.785C149.884 141.996 150.692 142.456 154.155 142.262C158.865 142.001 159.484 140.018 159.54 139.791L156.011 80.7249L128.694 76.0663L126.464 139.165L137.385 138.495L140.775 99.9853C140.78 99.9191 140.81 99.8572 140.858 99.8112C140.906 99.7653 140.97 99.7385 141.037 99.736C141.103 99.7322 141.169 99.7526 141.221 99.7934C141.273 99.8342 141.309 99.8926 141.321 99.9576L149.683 141.547C149.7 141.6 149.7 141.656 149.683 141.708L149.639 141.702Z" fill="#231F20"/>
<path d="M145.742 39.9994C145.742 39.9994 141.226 81.4838 143.233 84.0762C145.24 86.6687 154.21 90.0975 158.219 86.9124C162.227 83.7272 157.315 46.2257 155.543 43.4393C152.44 41.8746 149.145 40.7182 145.742 39.9994Z" fill="#AEECEF"/>
<path d="M162.494 93.9529C162.494 93.9529 161.937 90.4133 162.255 90.0754C162.572 89.7375 170.545 89.5214 171.175 89.5934C171.805 89.6654 171.911 93.3491 171.911 93.3491L170.723 93.4655C170.723 93.4655 170.851 91.0669 170.411 90.9617C169.97 90.8564 163.498 91.0503 163.498 91.0503L163.844 93.9418L162.494 93.9529Z" fill="#231F20"/>
<path d="M162.494 94.2465C162.429 94.2461 162.365 94.2225 162.315 94.1799C162.265 94.1373 162.232 94.0785 162.221 94.0139C161.831 91.571 161.775 90.1917 162.06 89.9037C162.556 89.4051 171.141 89.3497 171.225 89.3497C171.827 89.394 172.161 90.7512 172.217 93.3769C172.216 93.446 172.191 93.5126 172.145 93.5645C172.099 93.6164 172.035 93.6501 171.966 93.6594L170.779 93.7757C170.739 93.779 170.699 93.7737 170.662 93.7603C170.624 93.747 170.59 93.7258 170.561 93.6981C170.531 93.6721 170.508 93.6396 170.492 93.6031C170.477 93.5667 170.47 93.5272 170.472 93.4876C170.548 92.7465 170.501 91.9979 170.333 91.2719C169.814 91.2165 166.235 91.2719 163.832 91.3661L164.145 93.9585C164.149 93.9971 164.145 94.0363 164.134 94.0735C164.122 94.1106 164.103 94.145 164.078 94.1745C164.052 94.2043 164.021 94.2282 163.985 94.2444C163.949 94.2607 163.911 94.269 163.871 94.2687H162.494V94.2465ZM162.461 90.308C162.429 91.4427 162.521 92.5774 162.734 93.6926H163.559L163.247 91.1112C163.243 91.0735 163.247 91.0354 163.259 90.9992C163.27 90.9631 163.289 90.9296 163.314 90.9008C163.338 90.8711 163.369 90.8473 163.403 90.831C163.438 90.8147 163.476 90.8063 163.515 90.8066C164.602 90.7733 170.054 90.6072 170.506 90.718C170.662 90.7567 171.13 90.8675 171.063 93.1885L171.676 93.1276C171.621 91.5101 171.398 90.0532 171.164 89.8815C170.467 89.815 163.347 90.0255 162.461 90.2914V90.308Z" fill="#231F20"/>
<path d="M164.189 84.7963C163.54 85.8574 163.007 86.9846 162.6 88.1587C162.419 88.7763 162.437 89.4349 162.65 90.0421L164.507 89.743C164.507 89.743 164.234 93.3436 164.814 93.3436C165.393 93.3436 166.297 93.7812 166.241 91.0004C166.241 91.0004 166.492 92.064 167.439 91.6485C167.965 91.4461 168.39 91.0489 168.627 90.5406C168.627 90.5406 169.458 91.8812 170.299 90.4077C171.141 88.9342 169.77 84.7631 169.77 84.7631L169.636 82.7578L163.955 82.9129L164.189 84.7963Z" fill="white"/>
<path d="M165.271 93.6538C165.176 93.6538 165.087 93.6538 165.004 93.6538H164.814C164.692 93.6492 164.576 93.5975 164.491 93.5098C164.078 93.0722 164.128 91.1999 164.195 90.1086L162.701 90.3468C162.64 90.3569 162.577 90.3473 162.522 90.3193C162.467 90.2914 162.422 90.2467 162.394 90.1917C162.149 89.5265 162.123 88.8006 162.322 88.12C162.717 86.944 163.244 85.816 163.894 84.7576L163.688 82.9739C163.683 82.9344 163.686 82.8943 163.698 82.8561C163.709 82.818 163.729 82.7827 163.755 82.7523C163.809 82.6925 163.885 82.6567 163.967 82.6526L169.647 82.5031C169.787 82.4698 169.932 82.6138 169.943 82.7689L170.071 84.7354C170.216 85.173 171.443 89.0617 170.562 90.5739C170.244 91.1279 169.876 91.4048 169.447 91.4104C169.298 91.4102 169.151 91.3797 169.015 91.3206C168.879 91.2615 168.756 91.1751 168.655 91.0669C168.368 91.4506 167.983 91.7509 167.54 91.9366C167.392 92.0102 167.229 92.0485 167.063 92.0485C166.898 92.0485 166.735 92.0102 166.587 91.9366L166.492 91.8868C166.515 92.4348 166.332 92.9716 165.979 93.3935C165.786 93.5685 165.532 93.6619 165.271 93.6538ZM164.886 93.0556H165.054C165.31 93.0556 165.477 93.0556 165.611 92.9614C165.745 92.8672 165.985 92.3244 165.957 90.9949C165.956 90.9239 165.982 90.8553 166.03 90.8021C166.077 90.749 166.142 90.7151 166.213 90.7069C166.283 90.6982 166.353 90.7155 166.411 90.7554C166.469 90.7953 166.51 90.8549 166.526 90.9229C166.575 91.1214 166.696 91.295 166.866 91.4104C166.941 91.4382 167.021 91.4496 167.101 91.4439C167.18 91.4381 167.258 91.4154 167.328 91.3771C167.785 91.2093 168.155 90.8687 168.36 90.4299C168.38 90.3805 168.413 90.3375 168.456 90.3054C168.498 90.2733 168.549 90.2533 168.602 90.2476C168.655 90.2419 168.709 90.2507 168.758 90.2731C168.806 90.2954 168.848 90.3305 168.878 90.3745C168.945 90.4908 169.202 90.801 169.436 90.801C169.67 90.801 169.898 90.5019 170.043 90.2471C170.696 89.1392 169.865 85.9596 169.486 84.8351C169.483 84.8112 169.483 84.787 169.486 84.7631L169.369 83.0348L164.279 83.1733L164.457 84.7465C164.464 84.8082 164.45 84.8704 164.418 84.9238C163.786 85.9621 163.265 87.063 162.863 88.2086C162.735 88.698 162.725 89.2105 162.835 89.7042L164.44 89.4439C164.483 89.4356 164.528 89.4378 164.569 89.4503C164.611 89.4629 164.649 89.4854 164.68 89.5159C164.713 89.5451 164.738 89.5811 164.754 89.6214C164.771 89.6617 164.778 89.7052 164.775 89.7486C164.691 91.1223 164.708 92.7232 164.886 93.0556Z" fill="#231F20"/>
<path d="M158.464 94.2798L154.924 94.7063L156.479 112.515L160.27 112.826L158.464 94.2798Z" fill="white"/>
<path d="M160.27 113.108L156.479 112.803C156.411 112.798 156.348 112.769 156.3 112.722C156.251 112.674 156.222 112.61 156.217 112.543L154.662 94.7285C154.658 94.6921 154.661 94.6553 154.672 94.6202C154.682 94.5851 154.7 94.5525 154.723 94.5242C154.746 94.4958 154.775 94.4724 154.808 94.4551C154.84 94.4379 154.876 94.4273 154.913 94.4238L158.453 93.9917C158.528 93.9867 158.603 94.0083 158.665 94.0527C158.695 94.0771 158.72 94.1074 158.738 94.1417C158.756 94.1759 158.767 94.2135 158.77 94.2521L160.56 112.798C160.565 112.837 160.561 112.878 160.549 112.916C160.537 112.953 160.516 112.988 160.489 113.018C160.462 113.047 160.429 113.071 160.392 113.086C160.356 113.102 160.316 113.109 160.276 113.108H160.27ZM156.747 112.25L159.952 112.51L158.207 94.5955L155.236 94.9556L156.747 112.25Z" fill="#231F20"/>
<path d="M158.464 94.2798C158.38 94.5235 160.27 112.826 160.27 112.826L177.224 111.092L176.081 93.1996L158.464 94.2798Z" fill="white"/>
<path d="M160.27 113.108C160.204 113.107 160.139 113.086 160.086 113.047C160.029 112.997 159.993 112.928 159.986 112.853C158.09 94.4903 158.163 94.2631 158.19 94.1911C158.207 94.1354 158.24 94.0861 158.286 94.0504C158.332 94.0146 158.389 93.9941 158.447 93.9917L176.064 92.9115C176.14 92.907 176.215 92.9323 176.272 92.982C176.329 93.0318 176.365 93.102 176.371 93.1774L177.513 111.075C177.518 111.148 177.494 111.22 177.446 111.276C177.398 111.332 177.33 111.367 177.257 111.374L160.298 113.108H160.27ZM158.759 94.5457C158.871 96.2075 159.841 105.84 160.526 112.51L176.922 110.848L175.807 93.5098L158.759 94.5457Z" fill="#231F20"/>
<path d="M162.589 100.733C162.542 100.733 162.495 100.721 162.453 100.699C162.411 100.677 162.376 100.645 162.349 100.606L158.224 94.4348C158.193 94.372 158.185 94.2999 158.204 94.2322C158.222 94.1645 158.265 94.1058 158.324 94.0671C158.382 94.0283 158.453 94.0122 158.523 94.0218C158.593 94.0314 158.657 94.066 158.703 94.1191L162.734 100.146L173.499 99.3095L175.813 93.0998C175.825 93.0643 175.845 93.0316 175.87 93.0037C175.896 92.9757 175.926 92.9531 175.961 92.9371C175.995 92.9211 176.032 92.9121 176.07 92.9105C176.108 92.909 176.145 92.915 176.181 92.9281C176.217 92.9411 176.25 92.961 176.278 92.9867C176.306 93.0124 176.329 93.0434 176.345 93.0779C176.361 93.1124 176.37 93.1498 176.372 93.1877C176.373 93.2257 176.367 93.2636 176.354 93.2993L173.973 99.6751C173.955 99.7263 173.921 99.7712 173.878 99.8046C173.835 99.8379 173.783 99.8583 173.728 99.8634L162.611 100.733H162.589Z" fill="#231F20"/>
<path d="M169.389 98.5283L167.754 98.7062L168.113 101.96L169.747 101.783L169.389 98.5283Z" fill="#D1D3D4"/>
<path d="M127.696 43.5889C127.696 43.5889 122.884 85.8654 124.088 87.0619C125.293 88.2584 130.606 86.7628 132.406 85.5663C134.207 84.3698 136.833 40.5145 136.833 40.5145C136.833 40.5145 130.305 41.3953 127.696 43.5889Z" fill="#AEECEF"/>
<path d="M127.695 43.5889C127.695 43.5889 119.166 61.3149 115.141 62.5612C109.125 64.428 100.646 64.2784 100.646 64.2784L101.326 73.2412C101.326 73.2412 112.253 74.7589 118.463 73.1691C124.674 71.5793 131.319 62.6111 131.319 62.6111L127.695 43.5889Z" fill="#AEECEF"/>
<path d="M138.249 46.5968L139.425 48.2919L135.188 73.568L137.897 77.0025L141.354 74.0167L140.601 48.5688L141.928 46.7242L140.25 45.5277L138.249 46.5968Z" fill="#D1D3D4"/>
<path d="M124.39 75.6951H124.362C124.286 75.6867 124.217 75.6499 124.168 75.5921C124.119 75.5344 124.095 75.4602 124.1 75.3849C124.496 70.6598 126.291 51.4714 126.33 51.2775C126.352 51.2181 126.394 51.1678 126.448 51.1343C126.502 51.1008 126.566 51.0861 126.63 51.0924C126.693 51.0987 126.753 51.1257 126.8 51.1692C126.846 51.2127 126.877 51.2703 126.887 51.3329C126.887 51.5268 125.075 70.7208 124.657 75.4348C124.652 75.503 124.622 75.567 124.573 75.6149C124.523 75.6628 124.458 75.6913 124.39 75.6951Z" fill="#231F20"/>
<path d="M137.145 37.2352L136.493 42.6915C136.493 42.6915 136.911 45.2673 140.685 44.8519C144.46 44.4364 145.324 41.9991 145.324 41.9991L146.171 31.7845C146.171 31.7845 144.064 29.9399 145.614 24.1844C145.614 24.1844 139.737 25.1982 134.38 23.8188C134.38 23.8188 133.454 30.4661 133.533 33.3133C133.611 36.1606 137.145 37.2352 137.145 37.2352Z" fill="white"/>
<path d="M139.932 45.1842C136.677 45.1842 136.247 42.7635 136.242 42.7358V42.6583L136.866 37.4346C136.047 37.1355 133.354 35.9556 133.281 33.3189C133.198 30.455 134.09 24.0515 134.129 23.7801C134.134 23.7404 134.149 23.7024 134.171 23.6688C134.193 23.6353 134.223 23.6071 134.257 23.5862C134.29 23.5629 134.327 23.5468 134.366 23.5392C134.406 23.5315 134.447 23.5325 134.486 23.5419C139.709 24.8935 145.507 23.8964 145.591 23.8964C145.638 23.8877 145.686 23.8913 145.731 23.9068C145.776 23.9224 145.816 23.9493 145.847 23.985C145.881 24.0198 145.905 24.0626 145.916 24.1092C145.928 24.1558 145.927 24.2046 145.914 24.2509C144.426 29.7903 146.36 31.5463 146.383 31.5629C146.415 31.5932 146.441 31.6302 146.457 31.6714C146.473 31.7126 146.48 31.7569 146.477 31.8011L145.63 42.0157C145.636 42.0394 145.636 42.064 145.63 42.0877C145.597 42.193 144.666 44.6968 140.757 45.1288C140.484 45.1631 140.208 45.1816 139.932 45.1842ZM136.822 42.6804C136.883 42.974 137.44 44.8962 140.685 44.5694C144.03 44.1982 144.955 42.2207 145.073 41.9326L145.903 31.8897C145.485 31.4189 144.058 29.397 145.262 24.5334C143.829 24.7273 139.085 25.2369 134.67 24.1734C134.486 25.525 133.794 30.8206 133.867 33.3023C133.939 35.9335 137.212 36.9527 137.273 36.9638C137.337 36.9837 137.393 37.0247 137.43 37.0801C137.468 37.1355 137.485 37.2019 137.479 37.2685L136.822 42.6804Z" fill="#231F20"/>
<path d="M144.493 31.2748C144.683 30.7912 145.025 30.3813 145.468 30.106C145.893 29.8699 146.355 29.7087 146.834 29.6297C147.092 29.5572 147.362 29.542 147.626 29.5853C147.806 29.6387 147.974 29.7251 148.122 29.8402C148.494 30.083 148.765 30.4508 148.886 30.876C148.942 31.2248 148.913 31.5819 148.802 31.9174C148.709 32.2926 148.567 32.654 148.379 32.9921C148.183 33.3242 147.922 33.6143 147.612 33.8455C147.303 34.0767 146.95 34.2443 146.574 34.3386C146.198 34.433 145.808 34.4521 145.425 34.395C145.041 34.3378 144.673 34.2055 144.342 34.0058" fill="white"/>
<path d="M145.859 34.7093C145.27 34.7106 144.691 34.5516 144.186 34.2495C144.122 34.2105 144.076 34.1478 144.058 34.0751C144.041 34.0024 144.053 33.9257 144.092 33.8618C144.111 33.8289 144.136 33.8002 144.166 33.7774C144.197 33.7545 144.231 33.7379 144.268 33.7286C144.305 33.7193 144.344 33.7175 144.381 33.7232C144.419 33.729 144.455 33.7422 144.487 33.762C144.786 33.9418 145.117 34.0608 145.462 34.1122C145.807 34.1635 146.159 34.1461 146.497 34.0611C146.836 33.976 147.154 33.825 147.433 33.6167C147.711 33.4085 147.946 33.1472 148.122 32.848C148.3 32.5334 148.433 32.1961 148.518 31.8454C148.62 31.5538 148.649 31.242 148.602 30.937C148.489 30.5823 148.257 30.2772 147.944 30.0728C147.826 29.9786 147.692 29.9072 147.548 29.8623C147.328 29.8314 147.104 29.8465 146.89 29.9066C146.442 29.9807 146.011 30.1306 145.614 30.3498C145.225 30.5908 144.926 30.9504 144.761 31.3746C144.733 31.4457 144.678 31.5032 144.608 31.5343C144.538 31.5655 144.459 31.5678 144.387 31.5408C144.315 31.5135 144.258 31.4591 144.226 31.3895C144.195 31.32 144.193 31.2409 144.22 31.1696C144.439 30.625 144.83 30.1661 145.335 29.8623C145.787 29.6099 146.279 29.4357 146.79 29.3472C147.09 29.265 147.404 29.2517 147.71 29.3084C147.929 29.3682 148.134 29.4719 148.312 29.613C148.738 29.8954 149.048 30.3197 149.187 30.8096C149.251 31.2062 149.221 31.6123 149.098 31.995C148.998 32.3942 148.845 32.7781 148.641 33.1361C148.42 33.5037 148.128 33.8239 147.782 34.0779C147.435 34.3319 147.041 34.5145 146.623 34.6151C146.373 34.678 146.116 34.7096 145.859 34.7093Z" fill="#231F20"/>
<path d="M136.621 28.4885C136.621 28.4885 134.246 31.0145 134.619 31.5795C134.993 32.1445 136.292 32.0226 136.292 32.0226" fill="white"/>
<path d="M136.03 32.3163C135.562 32.3163 134.736 32.2387 134.402 31.7291C133.956 31.0976 135.472 29.3029 136.42 28.3279C136.446 28.3021 136.476 28.2816 136.509 28.2677C136.543 28.2537 136.579 28.2465 136.615 28.2465C136.652 28.2465 136.688 28.2537 136.721 28.2677C136.755 28.2816 136.785 28.3021 136.81 28.3279C136.862 28.3806 136.891 28.4512 136.891 28.5246C136.891 28.598 136.862 28.6685 136.81 28.7212C135.695 29.9011 134.776 31.1918 134.842 31.4909C135.049 31.7956 135.896 31.8344 136.275 31.8011C136.348 31.7964 136.42 31.8196 136.476 31.866C136.532 31.9124 136.568 31.9784 136.576 32.0504C136.582 32.123 136.56 32.1952 136.513 32.2511C136.466 32.3071 136.398 32.3425 136.325 32.3495C136.226 32.3436 136.128 32.3325 136.03 32.3163Z" fill="#231F20"/>
<path d="M139.363 27.8357C139.5 27.4914 139.413 27.1334 139.166 27.0361C138.92 26.9387 138.609 27.1389 138.471 27.4832C138.333 27.8274 138.421 28.1854 138.667 28.2828C138.913 28.3801 139.225 28.1799 139.363 27.8357Z" fill="#231F20"/>
<path d="M135.847 27.256C135.984 26.9117 135.895 26.5543 135.649 26.4576C135.402 26.361 135.092 26.5618 134.955 26.9061C134.818 27.2504 134.907 27.6078 135.153 27.7045C135.399 27.8011 135.71 27.6003 135.847 27.256Z" fill="#231F20"/>
<path d="M135.472 33.3134L137.964 33.474C137.964 33.474 138.126 35.2632 136.777 35.5845C135.428 35.9058 135.472 33.3134 135.472 33.3134Z" fill="white"/>
<path d="M136.548 35.8726C136.32 35.8758 136.097 35.7994 135.919 35.6565C135.177 35.0693 135.183 33.474 135.183 33.2912C135.185 33.2157 135.217 33.1441 135.272 33.0918C135.33 33.0439 135.403 33.0183 135.478 33.0198L137.97 33.186C138.037 33.1884 138.1 33.2152 138.149 33.2611C138.197 33.3071 138.227 33.369 138.232 33.4352C138.293 34.1332 138.082 35.5347 136.833 35.8393C136.74 35.8607 136.644 35.8718 136.548 35.8726ZM135.751 33.5959C135.779 34.1055 135.902 34.9364 136.264 35.2244C136.326 35.2707 136.399 35.3019 136.475 35.3153C136.552 35.3288 136.63 35.3242 136.705 35.302C137.546 35.097 137.669 34.1664 137.68 33.7177L135.751 33.5959Z" fill="#231F20"/>
<path d="M149.967 30.1337C149.929 30.1413 149.889 30.1413 149.85 30.1337C149.816 30.1187 149.784 30.097 149.758 30.0699C149.732 30.0427 149.712 30.0107 149.698 29.9756C149.685 29.9405 149.679 29.9032 149.68 29.8656C149.681 29.8281 149.69 29.7912 149.705 29.7571C150.453 28.2701 150.888 26.6472 150.982 24.9876C151.021 24.1819 150.875 23.378 150.554 22.637C150.233 21.896 149.747 21.2374 149.131 20.7112C148.423 20.1573 147.291 19.8194 146.472 20.3401C146.427 20.3695 146.375 20.3858 146.322 20.3871C146.268 20.3884 146.215 20.3747 146.169 20.3475C146.123 20.3203 146.086 20.2807 146.062 20.2334C146.037 20.186 146.027 20.1328 146.032 20.0798C146.017 19.8927 145.965 19.7105 145.876 19.5446C145.788 19.3788 145.666 19.2328 145.519 19.1159C143.121 16.673 139.314 16.4459 136.069 16.6176C136.393 16.9028 136.685 17.2223 136.939 17.5704C136.965 17.6151 136.978 17.6657 136.978 17.7172C136.978 17.7687 136.965 17.8194 136.939 17.864C136.917 17.9096 136.883 17.9486 136.841 17.9769C136.799 18.0051 136.75 18.0216 136.699 18.0246C134.927 18.1283 133.155 17.8329 131.514 17.1605C131.705 18.5222 132.099 19.848 132.685 21.0935C132.709 21.143 132.718 21.1986 132.711 21.2532C132.704 21.3079 132.681 21.3593 132.645 21.4011C132.609 21.4429 132.561 21.4733 132.508 21.4885C132.455 21.5037 132.398 21.5031 132.345 21.4868C130.944 21.0756 129.735 20.1846 128.933 18.9719C128.771 20.225 128.916 21.4986 129.358 22.6834C129.8 23.8682 130.525 24.9288 131.47 25.7742C131.497 25.8001 131.518 25.8311 131.533 25.8653C131.547 25.8996 131.555 25.9364 131.555 25.9737C131.555 26.0109 131.547 26.0477 131.533 26.082C131.518 26.1163 131.497 26.1472 131.47 26.1731C131.443 26.2 131.412 26.2215 131.377 26.2361C131.342 26.2507 131.304 26.2583 131.266 26.2583C131.228 26.2583 131.191 26.2507 131.156 26.2361C131.121 26.2215 131.089 26.2 131.063 26.1731C129.94 25.1734 129.109 23.8918 128.657 22.4629C128.204 21.034 128.148 19.5105 128.493 18.0523C128.506 17.9948 128.538 17.9429 128.583 17.9042C128.628 17.8654 128.684 17.8417 128.743 17.8363C128.803 17.8324 128.862 17.8461 128.914 17.8757C128.965 17.9053 129.007 17.9494 129.033 18.0025C129.618 19.2109 130.625 20.1674 131.865 20.6946C131.35 19.4151 131.025 18.0678 130.901 16.6952C130.897 16.6452 130.905 16.595 130.927 16.5495C130.948 16.5039 130.98 16.4647 131.022 16.4356C131.063 16.4065 131.111 16.3885 131.161 16.3836C131.211 16.3786 131.262 16.3867 131.308 16.4071C132.812 17.1035 134.454 17.4574 136.114 17.443C135.819 17.1197 135.486 16.8333 135.121 16.5899C135.071 16.5566 135.033 16.5086 135.012 16.4526C134.991 16.3966 134.987 16.3354 135.003 16.2776C135.018 16.2197 135.051 16.1681 135.097 16.1297C135.144 16.0914 135.201 16.0683 135.261 16.0637C138.778 15.8144 143.166 15.8809 145.92 18.6894C146.201 18.9498 146.414 19.2752 146.539 19.6366C147.039 19.4853 147.569 19.4607 148.082 19.5652C148.594 19.6697 149.072 19.8999 149.471 20.2349C150.156 20.8147 150.699 21.5422 151.059 22.3619C151.418 23.1817 151.584 24.0722 151.545 24.9655C151.451 26.7001 151 28.397 150.218 29.9509C150.198 30.0019 150.164 30.0462 150.12 30.0786C150.075 30.111 150.022 30.1301 149.967 30.1337Z" fill="#231F20"/>
<path d="M137.145 37.2352C137.145 37.2352 140.005 37.5122 141.404 36.8641C141.404 36.8641 139.988 39.9994 136.811 40.5256L137.145 37.2352Z" fill="#231F20"/>
<path d="M136.833 40.797C136.798 40.7982 136.763 40.7924 136.731 40.78C136.698 40.7676 136.668 40.7489 136.643 40.725C136.611 40.6973 136.586 40.6621 136.57 40.6225C136.555 40.5829 136.549 40.5401 136.554 40.4979L136.894 37.2075C136.898 37.1718 136.908 37.1371 136.925 37.1055C136.942 37.0739 136.965 37.0459 136.993 37.0232C137.021 37.0006 137.054 36.9836 137.088 36.9734C137.123 36.9632 137.159 36.9599 137.195 36.9638C137.195 36.9638 139.983 37.2241 141.315 36.6148C141.365 36.5902 141.422 36.5823 141.478 36.5923C141.533 36.6022 141.583 36.6296 141.622 36.6702C141.662 36.7086 141.69 36.7585 141.701 36.8129C141.711 36.8674 141.705 36.9239 141.683 36.9749C141.622 37.1078 140.167 40.2542 136.877 40.797H136.833ZM137.418 37.5343L137.145 40.1822C138.692 39.7377 140.011 38.7259 140.836 37.3515C139.71 37.5651 138.56 37.6266 137.418 37.5343Z" fill="#231F20"/>
<path d="M155.303 43.2842C155.303 43.2842 161.675 46.3087 164.987 54.7895C168.298 63.2703 171.242 82.985 171.242 82.985L161.285 83.8436C161.285 83.8436 159.986 63.2703 152.922 53.4656L155.303 43.2842Z" fill="#AEECEF"/>
<path d="M126.792 81.2733C126.75 81.2727 126.709 81.263 126.672 81.2448C126.634 81.2266 126.601 81.2004 126.575 81.1681C126.55 81.1401 126.531 81.1073 126.519 81.0718C126.507 81.0363 126.503 80.9988 126.506 80.9615C126.509 80.9243 126.52 80.888 126.537 80.855C126.555 80.8219 126.579 80.7928 126.608 80.7692L131.525 76.731C131.554 76.7073 131.588 76.6894 131.623 76.6785C131.659 76.6676 131.697 76.6639 131.734 76.6675C131.772 76.6711 131.808 76.682 131.841 76.6995C131.874 76.7171 131.903 76.741 131.927 76.7698C131.975 76.8286 131.999 76.9042 131.991 76.98C131.984 77.0558 131.947 77.1256 131.888 77.1742L126.976 81.2068C126.925 81.2504 126.86 81.274 126.792 81.2733Z" fill="#231F20"/>
<path d="M154.461 81.2733C154.405 81.2737 154.35 81.2562 154.305 81.2234C152.348 79.9494 147.782 76.9193 147.57 76.2989C147.547 76.2262 147.553 76.1473 147.588 76.0791C147.622 76.0108 147.682 75.9586 147.754 75.9333C147.825 75.9102 147.901 75.9151 147.968 75.9472C148.034 75.9793 148.086 76.0359 148.111 76.105C148.356 76.515 151.607 78.7861 154.617 80.747C154.649 80.7678 154.676 80.7945 154.698 80.8258C154.719 80.8571 154.734 80.8922 154.742 80.9292C154.75 80.9663 154.75 81.0045 154.743 81.0416C154.736 81.0788 154.722 81.1142 154.701 81.1459C154.675 81.1853 154.639 81.2176 154.597 81.2399C154.555 81.2622 154.509 81.2736 154.461 81.2733Z" fill="#231F20"/>
<path d="M145.039 61.6528C144.992 61.6531 144.946 61.6416 144.905 61.6196C144.837 61.5842 144.786 61.5236 144.763 61.4509C144.74 61.3782 144.747 61.2995 144.783 61.2318L149.181 52.9782L145.864 50.4356C145.831 50.4098 145.804 50.3771 145.784 50.3398C145.765 50.3025 145.754 50.2615 145.753 50.2196C145.751 50.178 145.759 50.1365 145.775 50.0982C145.791 50.0599 145.816 50.0257 145.847 49.998C145.959 49.8983 148.412 47.7158 149.064 47.1784C148.836 46.6854 147.319 45.0125 145.937 43.6388C145.893 43.5834 145.871 43.514 145.876 43.4438C145.88 43.3735 145.91 43.3073 145.96 43.2575C146.01 43.2078 146.077 43.1779 146.147 43.1737C146.218 43.1694 146.288 43.191 146.344 43.2344C147.604 44.4863 149.689 46.6744 149.689 47.2781C149.685 47.331 149.67 47.3824 149.645 47.4292C149.62 47.476 149.586 47.517 149.544 47.5496C149.259 47.7601 147.565 49.2612 146.511 50.1919L149.744 52.6735C149.799 52.7143 149.836 52.7731 149.851 52.8392C149.865 52.9052 149.855 52.9742 149.822 53.0336L145.312 61.4977C145.288 61.5479 145.248 61.5896 145.2 61.6172C145.151 61.6449 145.095 61.6573 145.039 61.6528Z" fill="#231F20"/>
<path d="M134.313 58.3624C134.26 58.3628 134.209 58.3491 134.164 58.3228C134.119 58.2965 134.081 58.2585 134.056 58.2129L130.249 50.9397C130.214 50.8769 130.205 50.8032 130.223 50.734C130.242 50.6648 130.287 50.6055 130.349 50.5685L133.588 48.5134L130.945 46.763C130.91 46.7399 130.88 46.7093 130.858 46.6733C130.836 46.6372 130.822 46.5967 130.818 46.5548C130.814 46.5128 130.819 46.4704 130.833 46.4307C130.848 46.391 130.871 46.355 130.901 46.3254L134.508 42.7303C134.564 42.6869 134.633 42.6653 134.704 42.6696C134.775 42.6739 134.841 42.7037 134.892 42.7534C134.942 42.8032 134.972 42.8694 134.976 42.9397C134.98 43.0099 134.958 43.0793 134.915 43.1347L131.57 46.4583L134.274 48.2697C134.313 48.296 134.345 48.3314 134.368 48.3729C134.39 48.4145 134.402 48.4608 134.402 48.5079C134.4 48.5553 134.387 48.6016 134.364 48.643C134.341 48.6844 134.308 48.7198 134.268 48.7461L130.879 50.8954L134.569 57.9359C134.603 58.0038 134.609 58.082 134.586 58.1543C134.563 58.2265 134.513 58.2872 134.447 58.3237C134.405 58.3446 134.359 58.3577 134.313 58.3624Z" fill="#231F20"/>
<path d="M140.93 102.002C140.863 102.002 140.799 101.979 140.747 101.937C140.696 101.894 140.662 101.834 140.651 101.769C140.562 101.215 138.421 87.8153 138.544 85.2727C138.549 85.1992 138.582 85.1305 138.638 85.0817C138.693 85.0329 138.766 85.0079 138.84 85.0123C138.914 85.0167 138.983 85.0502 139.032 85.1052C139.081 85.1603 139.106 85.2325 139.102 85.3059C138.951 87.7876 141.181 101.542 141.203 101.68C141.209 101.716 141.207 101.753 141.199 101.788C141.19 101.824 141.174 101.857 141.152 101.886C141.131 101.916 141.103 101.941 141.072 101.959C141.04 101.978 141.006 101.991 140.969 101.996L140.93 102.002Z" fill="white"/>
<path d="M161.374 83.0182C161.308 83.0179 161.243 82.9945 161.192 82.952C161.141 82.9095 161.107 82.8506 161.095 82.7855L154.628 50.9618C154.621 50.925 154.621 50.8872 154.629 50.8505C154.636 50.8138 154.651 50.779 154.673 50.7481C154.694 50.7172 154.721 50.6907 154.753 50.6704C154.784 50.65 154.82 50.6361 154.857 50.6294C154.894 50.6214 154.932 50.6208 154.968 50.6277C155.005 50.6345 155.04 50.6487 155.072 50.6694C155.103 50.6901 155.13 50.7169 155.15 50.7481C155.171 50.7793 155.185 50.8143 155.191 50.851L161.675 82.6748C161.683 82.7112 161.684 82.7489 161.677 82.7855C161.67 82.8222 161.656 82.8571 161.635 82.8881C161.614 82.9192 161.587 82.9457 161.556 82.9662C161.524 82.9866 161.489 83.0005 161.452 83.0071L161.374 83.0182Z" fill="#231F20"/>
<path d="M72.9378 112.947L71.8841 137.642C71.8841 137.642 82.0083 143.625 81.5512 144.25C81.094 144.876 63.3711 141.774 63.3711 141.774L64.5641 113.247" fill="white"/>
<path d="M80.8931 144.566C78.7578 144.566 72.8706 143.73 63.3207 142.057C63.2513 142.046 63.1884 142.01 63.1441 141.956C63.0998 141.902 63.0773 141.833 63.0809 141.763L64.274 113.235C64.2783 113.16 64.3123 113.089 64.3686 113.039C64.4249 112.988 64.4991 112.961 64.575 112.964C64.6129 112.965 64.6501 112.974 64.6844 112.99C64.7187 113.006 64.7495 113.029 64.775 113.057C64.8004 113.084 64.82 113.117 64.8326 113.153C64.8452 113.188 64.8505 113.226 64.8482 113.263L63.6663 141.514C69.7988 142.583 79.3376 144.095 81.1384 144.034C80.2687 143.137 75.8756 140.312 71.7389 137.869C71.6946 137.842 71.6584 137.803 71.6339 137.758C71.6095 137.712 71.5976 137.661 71.5995 137.609L72.6532 112.914C72.6539 112.877 72.6622 112.84 72.6775 112.805C72.6928 112.771 72.7149 112.74 72.7424 112.714C72.7699 112.688 72.8023 112.668 72.8377 112.655C72.8732 112.642 72.9109 112.636 72.9487 112.637C72.9868 112.639 73.0242 112.648 73.0588 112.663C73.0934 112.679 73.1246 112.702 73.1505 112.729C73.1764 112.757 73.1965 112.79 73.2097 112.825C73.2229 112.861 73.2289 112.899 73.2274 112.936L72.1793 137.465C75.1397 139.215 81.6568 143.165 81.8408 144.112C81.8549 144.163 81.8567 144.217 81.8461 144.269C81.8354 144.321 81.8126 144.37 81.7795 144.411C81.7089 144.515 81.4134 144.566 80.8931 144.566Z" fill="#231F20"/>
<path d="M75.3684 138.467L72.0903 141.409L62.6797 140.107V143.818C62.6797 143.818 83.4577 146.544 84.4222 144.832C85.3867 143.12 75.3684 138.467 75.3684 138.467Z" fill="#231F20"/>
<path d="M66.1585 118.182L65.1104 142.882C65.1104 142.882 75.229 148.865 74.7719 149.485C74.3147 150.106 56.5918 147.015 56.5918 147.015L57.7848 118.487" fill="white"/>
<path d="M74.1141 149.806C71.9788 149.806 66.0916 148.964 56.5417 147.297C56.4728 147.285 56.4106 147.249 56.3665 147.195C56.3225 147.141 56.2995 147.073 56.3019 147.004L57.495 118.476C57.5006 118.4 57.5348 118.33 57.5907 118.278C57.6465 118.227 57.7199 118.199 57.796 118.199C57.8341 118.2 57.8715 118.209 57.9062 118.225C57.9408 118.241 57.9719 118.263 57.9978 118.291C58.0237 118.319 58.0438 118.351 58.057 118.387C58.0702 118.422 58.0763 118.46 58.0748 118.498L56.8873 146.749C63.0198 147.818 72.5531 149.33 74.3594 149.264C73.4897 148.366 69.1021 145.547 64.9599 143.098C64.9156 143.071 64.8794 143.032 64.8549 142.987C64.8305 142.941 64.8186 142.89 64.8205 142.838L65.8742 118.143C65.8915 118.083 65.9281 118.03 65.9784 117.993C66.0287 117.955 66.09 117.934 66.153 117.934C66.216 117.934 66.2772 117.955 66.3275 117.993C66.3778 118.03 66.4144 118.083 66.4317 118.143L65.3836 142.672C68.3439 144.422 74.8611 148.372 75.0507 149.319C75.0621 149.371 75.0626 149.425 75.052 149.478C75.0415 149.53 75.0201 149.58 74.9893 149.624C74.928 149.757 74.6325 149.806 74.1141 149.806Z" fill="#231F20"/>
<path d="M68.5056 143.663L65.2944 146.677L55.856 145.569L55.9229 149.275C55.9229 149.275 76.7566 151.535 77.6654 149.801C78.5741 148.067 68.5056 143.663 68.5056 143.663Z" fill="#231F20"/>
<path d="M77.8271 73.1027C78.6411 78.6088 74.4821 133.078 74.4821 133.078C68.4757 133.682 62.4186 133.581 56.4359 132.778C51.6637 122.935 46.6127 92.1415 48.0176 84.968C49.4225 77.7945 52.8288 70.3275 52.8288 70.3275C52.8288 70.3275 77.855 73.3021 77.8271 73.1027Z" fill="#231F20"/>
<path d="M77.8773 75.9057C77.8773 75.9057 80.6313 46.6744 79.2822 44.4808C74.7497 37.13 51.212 37.3627 49.2106 44.3312C47.6329 49.8152 50.4092 72.4214 50.4092 72.4214L77.8773 75.9057Z" fill="#AEECEF"/>
<path d="M63.2429 70.3275C63.2429 70.3275 79.9679 73.917 86.1004 72.8202L87.6056 65.0651C87.6056 65.0651 68.16 62.3785 66.6548 61.3814C65.1495 60.3843 65.0492 50.2251 65.0492 50.2251C65.0492 50.2251 60.3383 51.2222 59.1397 53.7149C57.9411 56.2076 56.8261 67.6575 63.2429 70.3275Z" fill="#AEECEF"/>
<path d="M61.0352 41.6224C60.6226 41.8606 70.8081 58.7945 70.8081 58.7945L67.5133 41.2735C67.5133 41.2735 64.9432 39.4067 61.0352 41.6224Z" fill="white"/>
<path d="M81.5346 73.7508C81.2614 73.7508 54.2171 71.7511 53.7488 55.0997C53.7473 55.0622 53.7533 55.0247 53.7666 54.9895C53.7799 54.9543 53.8001 54.9221 53.826 54.8948C53.852 54.8674 53.8832 54.8455 53.9178 54.8303C53.9524 54.8151 53.9897 54.8069 54.0275 54.8062C54.0655 54.8039 54.1035 54.8094 54.1393 54.8223C54.1751 54.8352 54.2078 54.8552 54.2355 54.8812C54.2632 54.9071 54.2852 54.9384 54.3003 54.9732C54.3153 55.0079 54.323 55.0453 54.323 55.0831C54.7634 71.2193 81.306 73.1637 81.5736 73.1803C81.6342 73.1975 81.6875 73.2338 81.7254 73.2838C81.7633 73.3338 81.7839 73.3947 81.7839 73.4573C81.7839 73.5198 81.7633 73.5807 81.7254 73.6307C81.6875 73.6807 81.6342 73.717 81.5736 73.7342L81.5346 73.7508Z" fill="#231F20"/>
<path d="M61.0351 41.6224C60.7229 37.8889 60.4776 34.604 60.1877 30.8705C60.0929 29.4912 59.9424 28.1008 59.9034 26.7215C59.8476 24.7217 60.7229 25.1871 62.6909 25.1704C62.8321 23.8853 63.0291 22.6112 63.2818 21.3483L64.2463 24.5113C67.2512 23.6693 73.4952 24.5113 73.4952 24.5113C73.4952 24.5113 74.1252 30.527 73.328 33.3743C72.1795 37.4845 66.8052 36.5816 66.8052 36.5816L67.5021 41.2734C67.5021 41.2734 67.7028 42.8134 65.8296 43.3396C63.1313 44.0985 61.0351 41.6224 61.0351 41.6224Z" fill="white"/>
<path d="M64.7813 43.7717C63.6639 43.741 62.5865 43.3524 61.7095 42.6638C61.7095 42.6638 60.8008 41.9769 60.7506 41.6889C60.4495 38.1104 60.1931 34.7314 59.9032 30.9314C59.8697 30.4938 59.8363 30.0506 59.7973 29.6075C59.7192 28.6769 59.6412 27.7186 59.6133 26.7713C59.6133 25.9792 59.7081 25.5194 60.0035 25.2314C60.3882 24.8547 60.9624 24.8769 61.7597 24.9101C61.9715 24.9101 62.1945 24.9101 62.4454 24.9101C62.5848 23.708 62.7743 22.5005 63.0029 21.3206C63.0122 21.2557 63.044 21.196 63.0928 21.1518C63.1415 21.1076 63.2042 21.0817 63.2701 21.0784C63.3361 21.0751 63.4011 21.0948 63.454 21.1339C63.507 21.173 63.5446 21.2292 63.5604 21.2929L64.4412 24.19C67.5465 23.4588 73.2832 24.19 73.5285 24.2232C73.593 24.2315 73.6528 24.2612 73.6984 24.3074C73.7439 24.3536 73.7724 24.4137 73.7794 24.478C73.7794 24.7273 74.4093 30.5713 73.601 33.4573C72.5863 37.0967 68.4385 37.0302 67.1451 36.9139L67.7862 41.2346C67.7862 41.2346 67.9981 43.0349 65.913 43.6166C65.5447 43.7194 65.1639 43.7716 64.7813 43.7717ZM61.3248 41.5227C61.6705 41.8938 63.5158 43.6997 65.7848 43.0626C67.3793 42.6139 67.251 41.3565 67.2455 41.3066L66.5319 36.637C66.5254 36.5926 66.5296 36.5474 66.5441 36.5051C66.5586 36.4627 66.5831 36.4244 66.6155 36.3932C66.6477 36.3608 66.6874 36.3368 66.7311 36.3232C66.7749 36.3097 66.8213 36.3071 66.8664 36.3157C67.0726 36.3489 71.9954 37.1244 73.0602 33.3133C73.7459 30.8538 73.3445 25.8906 73.2386 24.7771C72.0957 24.6442 66.9277 24.0958 64.3186 24.8215C64.2831 24.8325 64.2457 24.8363 64.2087 24.8328C64.1717 24.8293 64.1357 24.8184 64.103 24.8008C64.0703 24.7833 64.0414 24.7594 64.0181 24.7306C63.9948 24.7018 63.9776 24.6687 63.9674 24.6331L63.343 22.5891C63.1924 23.4698 63.0642 24.3561 62.9694 25.2369C62.9613 25.3065 62.928 25.3707 62.8756 25.4176C62.8233 25.4645 62.7556 25.4908 62.6851 25.4917C62.3339 25.4917 62.0105 25.4917 61.7206 25.4917C61.0684 25.4917 60.6056 25.4474 60.3882 25.6468C60.1879 25.9796 60.1109 26.3715 60.1708 26.7547C60.1987 27.6853 60.2767 28.6381 60.3548 29.5576C60.3882 30.0063 60.4272 30.4495 60.4607 30.8926C60.7673 34.6317 61.0182 37.983 61.3248 41.5227Z" fill="#231F20"/>
<path d="M66.8161 36.5816C66.8161 36.5816 64.5861 36.3046 63.499 35.2134C63.499 35.2134 64.9652 38.8527 67.2231 39.4011L66.8161 36.5816Z" fill="#231F20"/>
<path d="M67.2233 39.7778C67.1939 39.7832 67.1636 39.7832 67.1341 39.7778C64.709 39.1962 63.2316 35.5236 63.1424 35.3463C63.1128 35.2655 63.1114 35.1772 63.1385 35.0956C63.1656 35.014 63.2196 34.9438 63.2918 34.8964C63.3639 34.849 63.4501 34.8272 63.5363 34.8344C63.6225 34.8417 63.7037 34.8776 63.7668 34.9364C64.7648 35.9279 66.8442 36.1938 66.8665 36.1994C66.9493 36.2095 67.0264 36.2465 67.0858 36.3046C67.1453 36.3627 67.1838 36.4386 67.1955 36.5206L67.6024 39.3402C67.6105 39.3941 67.6067 39.4491 67.5913 39.5014C67.5759 39.5537 67.5493 39.6021 67.5132 39.6431C67.4772 39.6842 67.4326 39.717 67.3826 39.7393C67.3325 39.7616 67.2782 39.7729 67.2233 39.7723V39.7778ZM64.4693 36.3046C64.9944 37.3287 65.783 38.1964 66.755 38.8195L66.4763 36.9139C65.7854 36.7905 65.1117 36.5859 64.4693 36.3046Z" fill="#231F20"/>
<path d="M61.0461 29.3804C60.9504 28.9076 60.7246 28.4705 60.394 28.1175C60.0633 27.7644 59.6406 27.5094 59.1729 27.3807C58.9642 27.3127 58.7433 27.2899 58.5251 27.3138C58.3068 27.3376 58.0962 27.4077 57.9074 27.5192C57.6868 27.7073 57.5194 27.9492 57.4217 28.2212C57.3239 28.4932 57.2992 28.7858 57.3499 29.0702C57.4139 29.9816 57.827 30.8341 58.5041 31.4522C59.1812 32.0704 60.0709 32.4074 60.9904 32.3938" fill="white"/>
<path d="M60.9235 32.6819C59.9369 32.6846 58.9858 32.3158 58.2617 31.6498C57.5376 30.9838 57.0943 30.07 57.021 29.0924C56.9687 28.7558 57.006 28.4114 57.1293 28.0936C57.2525 27.7758 57.4574 27.4957 57.7235 27.281C57.9487 27.1478 58.1996 27.0631 58.4599 27.0326C58.7202 27.002 58.9841 27.0263 59.2343 27.1037C59.7527 27.247 60.2211 27.5297 60.5881 27.9206C60.955 28.3116 61.2062 28.7957 61.3138 29.3195C61.3227 29.3907 61.304 29.4626 61.2614 29.5207C61.2189 29.5787 61.1557 29.6184 61.0847 29.6318C61.0137 29.6452 60.9403 29.6313 60.8793 29.5928C60.8183 29.5543 60.7743 29.4942 60.7563 29.4247C60.6649 29.0066 60.4612 28.6209 60.1666 28.3087C59.8721 27.9966 59.4979 27.7696 59.0838 27.6521C58.9147 27.5944 58.7351 27.5735 58.5572 27.5907C58.3793 27.6079 58.2071 27.6628 58.0524 27.7518C57.8775 27.9159 57.7448 28.1192 57.6652 28.3447C57.5857 28.5702 57.5617 28.8114 57.5953 29.048C57.6563 29.8846 58.0365 30.6663 58.6582 31.2336C59.28 31.8009 60.0962 32.1109 60.9403 32.1002C60.9834 32.088 61.0288 32.0859 61.0729 32.094C61.1171 32.1022 61.1587 32.1204 61.1945 32.1473C61.2303 32.1741 61.2594 32.2089 61.2794 32.2488C61.2994 32.2887 61.3098 32.3326 61.3098 32.3772C61.3098 32.4218 61.2994 32.4658 61.2794 32.5057C61.2594 32.5456 61.2303 32.5803 61.1945 32.6072C61.1587 32.634 61.1171 32.6522 61.0729 32.6604C61.0288 32.6686 60.9834 32.6664 60.9403 32.6542L60.9235 32.6819Z" fill="#231F20"/>
<path d="M72.6831 25.8783C72.702 25.5025 72.5527 25.1897 72.3497 25.1796C72.1468 25.1696 71.967 25.4661 71.9482 25.842C71.9293 26.2178 72.0786 26.5306 72.2816 26.5406C72.4845 26.5507 72.6643 26.2541 72.6831 25.8783Z" fill="#231F20"/>
<path d="M69.2915 26.346C69.3104 25.9701 69.1611 25.6573 68.9581 25.6473C68.7552 25.6372 68.5754 25.9338 68.5566 26.3096C68.5377 26.6854 68.687 26.9983 68.89 27.0083C69.0929 27.0183 69.2727 26.7218 69.2915 26.346Z" fill="#231F20"/>
<path d="M72.3746 33.0752C71.8902 33.3835 71.3595 33.6135 70.8025 33.7565C70.061 33.9504 69.1634 33.9448 68.6505 33.3798C68.441 33.1254 68.2855 32.8314 68.1934 32.5157" fill="white"/>
<path d="M69.9605 34.1553C69.6824 34.1701 69.4044 34.1258 69.1448 34.0255C68.8853 33.9252 68.6502 33.7712 68.4552 33.5737C68.2235 33.2902 68.0493 32.9648 67.9423 32.6154C67.9157 32.5419 67.9195 32.461 67.953 32.3903C67.9865 32.3197 68.0468 32.2652 68.1207 32.2387C68.1946 32.2123 68.2761 32.2161 68.3472 32.2493C68.4183 32.2826 68.4732 32.3425 68.4998 32.416C68.5858 32.6963 68.7218 32.9589 68.9012 33.1915C69.4587 33.7454 70.4622 33.5571 70.7633 33.4795C71.2845 33.3426 71.781 33.1258 72.2351 32.837C72.2986 32.7958 72.3761 32.7815 72.4503 32.7971C72.5245 32.8126 72.5895 32.8569 72.6309 32.9201C72.6723 32.9832 72.6867 33.0602 72.6711 33.1339C72.6554 33.2077 72.6108 33.2722 72.5473 33.3134C72.0447 33.638 71.4933 33.8811 70.9138 34.0335C70.6025 34.1143 70.2822 34.1553 69.9605 34.1553Z" fill="#231F20"/>
<path d="M71.6164 27.1314C71.6164 27.1314 74.716 30.6378 73.9523 31.3912C73.1885 32.1445 71.3989 31.7679 71.3989 31.7679" fill="white"/>
<path d="M72.38 32.1501C72.032 32.1487 71.6849 32.1153 71.3431 32.0503C71.2807 32.0246 71.2294 31.978 71.198 31.9186C71.1665 31.8593 71.1569 31.7909 71.1707 31.7252C71.1846 31.6595 71.2211 31.6008 71.274 31.559C71.3268 31.5172 71.3926 31.4951 71.4602 31.4964C71.9173 31.5906 73.2163 31.7235 73.7515 31.1973C74.047 30.8982 72.9264 29.0535 71.3988 27.3197C71.3503 27.2617 71.3261 27.1873 71.3313 27.112C71.3365 27.0367 71.3706 26.9663 71.4267 26.9153C71.4532 26.8884 71.4848 26.8669 71.5198 26.8523C71.5547 26.8377 71.5923 26.8301 71.6302 26.8301C71.6681 26.8301 71.7057 26.8377 71.7406 26.8523C71.7756 26.8669 71.8072 26.8884 71.8337 26.9153C72.8205 28.0232 75.017 30.7154 74.1585 31.5684C73.6614 31.9795 73.0257 32.1875 72.38 32.1501Z" fill="#231F20"/>
<path d="M77.7769 64.0403H77.7044C68.3719 61.6251 63.4993 56.7837 61.0519 53.1443C59.4877 50.9208 58.4282 48.3863 57.9466 45.716C57.9371 45.6419 57.9576 45.567 58.0036 45.5078C58.0496 45.4486 58.1173 45.4099 58.1919 45.4003C58.268 45.3909 58.3448 45.4118 58.4054 45.4585C58.466 45.5053 58.5055 45.5739 58.5153 45.6495C58.5153 45.7825 60.3662 58.9441 77.8494 63.4864C77.9147 63.505 77.9712 63.5464 78.0085 63.6029C78.0458 63.6594 78.0615 63.7273 78.0527 63.7943C78.0439 63.8613 78.0113 63.9229 77.9607 63.9681C77.9101 64.0132 77.8449 64.0388 77.7769 64.0403Z" fill="#231F20"/>
<path d="M54.1946 36.3932C54.1341 36.3945 54.075 36.3749 54.0274 36.3378C53.9906 36.312 53.9604 36.2781 53.9391 36.2387C53.9178 36.1992 53.906 36.1554 53.9047 36.1107L53.8434 27.6133C53.8434 25.0596 53.8044 22.1626 54.9584 19.6255C55.6664 18.0357 57.0769 16.1246 58.9055 15.5264C59.3746 15.3691 59.8714 15.31 60.3646 15.3529C60.8577 15.3958 61.3366 15.5397 61.7711 15.7757C62.4214 15.2671 63.0988 14.7937 63.8004 14.3576C64.6783 13.9207 65.6184 13.62 66.5879 13.4657C68.3774 13.1666 69.9329 13.5045 71.8785 14.5736C73.0321 15.2695 74.0358 16.1852 74.8319 17.268C75.6279 18.3509 76.2006 19.5794 76.5169 20.883C77.1345 23.4653 77.1345 26.1555 76.5169 28.7378C76.5161 28.7802 76.5059 28.8218 76.487 28.8598C76.4681 28.8978 76.441 28.9312 76.4076 28.9575C76.3742 28.9839 76.3354 29.0027 76.2939 29.0124C76.2524 29.0222 76.2093 29.0227 76.1675 29.014C76.1258 29.0053 76.0865 28.9876 76.0525 28.962C76.0184 28.9365 75.9905 28.9038 75.9706 28.8664C75.9507 28.8289 75.9394 28.7875 75.9375 28.7451C75.9356 28.7028 75.9431 28.6606 75.9594 28.6215C76.5545 26.1245 76.5545 23.524 75.9594 21.027C75.6629 19.7975 75.1245 18.6384 74.3754 17.6164C73.6262 16.5944 72.681 15.7298 71.5942 15.0721C69.7768 14.0474 68.3496 13.7482 66.6826 14.0197C65.7767 14.1699 64.8989 14.4557 64.0791 14.8672C63.9063 14.9558 62.1836 16.1689 61.9996 16.313L61.9606 16.3462C61.9157 16.372 61.8647 16.3855 61.8129 16.3855C61.761 16.3855 61.7101 16.372 61.6651 16.3462C61.2861 16.1168 60.8614 15.9722 60.4204 15.9225C59.9795 15.8727 59.5329 15.919 59.1118 16.0582C57.4393 16.6121 56.1626 18.3681 55.5048 19.8471C54.4232 22.2733 54.4399 25.104 54.4622 27.6022L54.518 35.7119C55.0976 35.557 55.6963 35.4843 56.2964 35.4958C56.2772 34.9193 56.4368 34.3507 56.7536 33.8673C56.7861 33.8243 56.8296 33.7908 56.8797 33.7703C56.9297 33.7498 56.9844 33.7431 57.0379 33.7509C57.0908 33.7599 57.1403 33.7833 57.1806 33.8185C57.221 33.8537 57.2507 33.8993 57.2665 33.9504C57.4102 34.4267 57.4853 34.921 57.4895 35.4183L58.8107 35.3352C58.8488 35.333 58.887 35.3382 58.923 35.3506C58.9591 35.3631 58.9923 35.3824 59.0208 35.4077C59.0493 35.4329 59.0724 35.4634 59.089 35.4976C59.1056 35.5317 59.1152 35.5688 59.1174 35.6066C59.1196 35.6437 59.1145 35.6809 59.1023 35.7161C59.09 35.7512 59.0709 35.7836 59.0461 35.8114C59.0212 35.8392 58.9911 35.8618 58.9574 35.878C58.9237 35.8942 58.8871 35.9036 58.8498 35.9058L57.2107 36.0055C57.1705 36.0088 57.1301 36.003 57.0924 35.9887C57.0548 35.9743 57.0209 35.9516 56.9933 35.9224C56.9638 35.8948 56.9406 35.8612 56.9252 35.8239C56.9098 35.7867 56.9026 35.7466 56.9041 35.7063C56.9128 35.4619 56.8998 35.2172 56.8651 34.9751C56.8038 35.2329 56.7925 35.4998 56.8316 35.7617C56.837 35.8038 56.8328 35.8466 56.8193 35.8869C56.8058 35.9272 56.7833 35.9639 56.7536 35.9944C56.7248 36.027 56.6884 36.0522 56.6476 36.0676C56.6068 36.0831 56.5628 36.0883 56.5194 36.083C55.7646 36.0292 55.0065 36.1253 54.2894 36.3655C54.2597 36.3802 54.2276 36.3896 54.1946 36.3932Z" fill="#231F20"/>
<path d="M78.0779 61.2041C78.0015 61.2013 77.9292 61.1691 77.8761 61.1143C77.8231 61.0596 77.7935 60.9865 77.7936 60.9105C77.7936 60.8164 77.9329 51.0449 76.751 46.8017C76.735 46.7298 76.7472 46.6545 76.7853 46.5913C76.8234 46.5281 76.8845 46.4818 76.9559 46.4619C77.0273 46.442 77.1036 46.4501 77.1692 46.4845C77.2348 46.5188 77.2847 46.5769 77.3085 46.6466C78.5072 50.9729 78.3789 60.4951 78.3678 60.9216C78.3678 60.9592 78.3603 60.9964 78.3456 61.031C78.331 61.0657 78.3095 61.0971 78.2825 61.1234C78.2556 61.1497 78.2236 61.1704 78.1884 61.1842C78.1533 61.1981 78.1157 61.2049 78.0779 61.2041Z" fill="#231F20"/>
<path d="M74.2702 147.098C74.1959 147.097 74.1245 147.07 74.0695 147.02C73.4395 146.389 69.7544 144.561 68.383 143.913C68.3174 143.879 68.2674 143.822 68.2434 143.753C68.2195 143.684 68.2236 143.608 68.2548 143.541C68.2872 143.477 68.3438 143.427 68.4126 143.403C68.4814 143.379 68.5568 143.383 68.6227 143.414C68.829 143.514 73.6402 145.807 74.4653 146.627C74.5167 146.68 74.5455 146.75 74.5455 146.824C74.5455 146.897 74.5167 146.967 74.4653 147.02C74.4117 147.068 74.3425 147.096 74.2702 147.098Z" fill="white"/>
<path d="M51.6136 83.7549C51.577 83.7618 51.5393 83.7615 51.5028 83.754C51.4664 83.7464 51.4317 83.7318 51.4009 83.711C51.3701 83.6902 51.3438 83.6635 51.3233 83.6326C51.3029 83.6016 51.2888 83.5669 51.2818 83.5306C51.2749 83.4942 51.2752 83.4568 51.2828 83.4206C51.2904 83.3843 51.3051 83.3499 51.326 83.3193C51.347 83.2887 51.3738 83.2625 51.405 83.2422C51.4361 83.2219 51.471 83.2079 51.5076 83.201C54.9474 81.7718 56.146 77.4511 56.1572 77.4068C56.1667 77.3704 56.1833 77.3363 56.2061 77.3063C56.2289 77.2763 56.2575 77.2511 56.2901 77.232C56.3227 77.213 56.3588 77.2005 56.3962 77.1954C56.4337 77.1902 56.4718 77.1924 56.5084 77.2018C56.545 77.2113 56.5794 77.2278 56.6096 77.2505C56.6397 77.2731 56.6651 77.3015 56.6843 77.3339C56.7034 77.3663 56.716 77.4021 56.7212 77.4393C56.7264 77.4766 56.7242 77.5144 56.7147 77.5508C56.6645 77.7392 55.438 82.1817 51.7418 83.7106C51.7022 83.7333 51.6587 83.7483 51.6136 83.7549Z" fill="white"/>
</svg>
